<svg xmlns="http://www.w3.org/2000/svg" viewBox="0 0 57 67">
  <path d="M33.73,3.36H10.35A3.27,3.27,0,0,0,7.08,6.63V58.76A3.27,3.27,0,0,0,10.35,62H48.93a3.27,3.27,0,0,0,3.27-3.27V21.28a3.27,3.27,0,0,0-1-2.36L36,4.28A3.27,3.27,0,0,0,33.73,3.36Z" style="fill:#dbe5ea"/>
  <path d="M34.68,4.84V19.73a0.78,0.78,0,0,0,.78.78H52.11a2.49,2.49,0,0,0-.23-0.65A3.71,3.71,0,0,0,51,18.72L36,4.28h0A0.78,0.78,0,0,0,34.68,4.84Z" style="fill:#c4cdd1"/>
  <rect x="2.79" y="14.6" width="22.89" height="14.08" rx="1.49" ry="1.49" style="fill:#35c98d"/>
  <path d="M7.31,23.5a1.84,1.84,0,0,0,.58.67,1.2,1.2,0,0,0,.67.22,1,1,0,0,0,.83-0.34,2,2,0,0,0,.28-1.23V17h2v6a4.26,4.26,0,0,1-.17,1.22,2.83,2.83,0,0,1-.52,1,2.46,2.46,0,0,1-.89.67,3.07,3.07,0,0,1-1.29.25,3.42,3.42,0,0,1-1.73-.4,3.16,3.16,0,0,1-1.16-1.22Z" style="fill:#fff"/>
  <path d="M14.36,23.46a4.38,4.38,0,0,0,1.07.67,2.79,2.79,0,0,0,1.15.26,1.56,1.56,0,0,0,.94-0.23,0.75,0.75,0,0,0,.31-0.63,0.69,0.69,0,0,0-.09-0.36,0.86,0.86,0,0,0-.26-0.27,2.45,2.45,0,0,0-.41-0.22l-0.53-.23L15.36,22a3.45,3.45,0,0,1-.67-0.36,2.93,2.93,0,0,1-.58-0.52,2.33,2.33,0,0,1-.41-0.69,2.45,2.45,0,0,1-.15-0.89,2.37,2.37,0,0,1,.23-1,2.59,2.59,0,0,1,.66-0.85,3.17,3.17,0,0,1,1-.57,3.84,3.84,0,0,1,1.29-.21,4.17,4.17,0,0,1,1.55.3,3.94,3.94,0,0,1,1.34.88l-1,1.28a3.94,3.94,0,0,0-.88-0.53,2.49,2.49,0,0,0-1-.19,1.44,1.44,0,0,0-.83.21,0.69,0.69,0,0,0-.31.6,0.59,0.59,0,0,0,.1.35A1,1,0,0,0,16,20a3,3,0,0,0,.43.22L17,20.46l1.16,0.47a3.16,3.16,0,0,1,1.3.91,2.33,2.33,0,0,1,.47,1.53A2.54,2.54,0,0,1,19,25.31a3.3,3.3,0,0,1-1.07.61,4.22,4.22,0,0,1-1.43.23,5,5,0,0,1-1.76-.32,4.59,4.59,0,0,1-1.56-1Z" style="fill:#fff"/>
  <path d="M26.21,53.13v1.78H24.77a3.06,3.06,0,0,1-2.22-.7,3.56,3.56,0,0,1-.71-2.55q0-.62,0-1.1T22,49.65q0-.45.08-0.89t0-1a1.81,1.81,0,0,0-.1-0.59,1.47,1.47,0,0,0-.33-0.54A1.67,1.67,0,0,0,21,46.24a2.86,2.86,0,0,0-.93-0.17v-2A2.86,2.86,0,0,0,21,43.93a1.66,1.66,0,0,0,.61-0.39A1.47,1.47,0,0,0,22,43a1.81,1.81,0,0,0,.1-0.59q0-.55,0-1T22,40.52q0-.45-0.08-0.93t0-1.1a3.56,3.56,0,0,1,.71-2.55,3.06,3.06,0,0,1,2.22-.7h1.44V37H25.78a1.15,1.15,0,0,0-1,.33,2.24,2.24,0,0,0-.25,1.27q0,0.94,0,1.81t0,1.92a3.34,3.34,0,0,1-.41,1.89A2.08,2.08,0,0,1,23,45v0.09a2.08,2.08,0,0,1,1.28.79,3.34,3.34,0,0,1,.41,1.89q0,1.05,0,1.92t0,1.81a2.24,2.24,0,0,0,.25,1.27,1.15,1.15,0,0,0,1,.33h0.43Z" style="fill:#35c98d"/>
  <path d="M33.51,53.13a1.15,1.15,0,0,0,1-.33,2.25,2.25,0,0,0,.25-1.27q0-.94,0-1.81t0-1.92A3.34,3.34,0,0,1,35,45.92a2.08,2.08,0,0,1,1.28-.79V45A2.08,2.08,0,0,1,35,44.25a3.34,3.34,0,0,1-.41-1.89q0-1.05,0-1.92t0-1.81a2.25,2.25,0,0,0-.25-1.27,1.15,1.15,0,0,0-1-.33H33.07V35.25h1.44a3.06,3.06,0,0,1,2.22.7,3.56,3.56,0,0,1,.71,2.55q0,0.62,0,1.1t-0.08.93q0,0.45-.08.89t0,1a1.81,1.81,0,0,0,.1.59,1.48,1.48,0,0,0,.33.54,1.66,1.66,0,0,0,.61.39,2.86,2.86,0,0,0,.93.17v2a2.86,2.86,0,0,0-.93.17,1.67,1.67,0,0,0-.61.39,1.48,1.48,0,0,0-.33.54,1.81,1.81,0,0,0-.1.59q0,0.55,0,1t0.08,0.89q0,0.45.08,0.93t0,1.1a3.56,3.56,0,0,1-.71,2.55,3.06,3.06,0,0,1-2.22.7H33.07V53.13h0.43Z" style="fill:#35c98d"/>
</svg>
