<svg xmlns="http://www.w3.org/2000/svg" viewBox="-5 0 69.78 61.88">
  <rect y="3.57" width="58.31" height="58.31" rx="11.79" ry="11.79" style="fill:#456bd9"/><rect x="47.36" width="17.42" height="14.34" rx="4.82" ry="4.82" style="fill:#f26941"/>
  <path d="M55.61,12.57H57V8.84H55.8V7.92a5.2,5.2,0,0,0,.89-0.24,4.92,4.92,0,0,0,.71-0.35h1.1v5.24h1.21v1.21h-4.1V12.57Z" transform="translate(-4.36 -3.38)" style="fill:#fff"/>
  <path d="M64.39,8.87a1.56,1.56,0,0,0-.45-0.32,1.23,1.23,0,0,0-1.06,0,1,1,0,0,0-.41.34,2,2,0,0,0-.29.62,4,4,0,0,0-.13.94,1.52,1.52,0,0,1,.28-0.29,1.9,1.9,0,0,1,.34-0.21A1.78,1.78,0,0,1,63,9.79a1.27,1.27,0,0,1,.33,0,2.33,2.33,0,0,1,.77.12,1.69,1.69,0,0,1,.61.37,1.63,1.63,0,0,1,.4.62,2.49,2.49,0,0,1,.14.88,2.25,2.25,0,0,1-.17.9,2.14,2.14,0,0,1-.46.68,1.93,1.93,0,0,1-.68.43,2.38,2.38,0,0,1-1.74,0,2.11,2.11,0,0,1-.78-0.57,2.85,2.85,0,0,1-.54-1,4.59,4.59,0,0,1-.2-1.46,5,5,0,0,1,.22-1.56,3.24,3.24,0,0,1,.58-1.09,2.3,2.3,0,0,1,.83-0.63,2.4,2.4,0,0,1,1-.21,2.5,2.5,0,0,1,1.11.23,2.72,2.72,0,0,1,.77.54Zm-1.3,3.91a0.77,0.77,0,0,0,.57-0.25,1.13,1.13,0,0,0,.24-0.8A0.93,0.93,0,0,0,63.66,11a0.89,0.89,0,0,0-.6-0.21,1,1,0,0,0-.5.14,1.4,1.4,0,0,0-.48.5,2.69,2.69,0,0,0,.15.64,1.5,1.5,0,0,0,.23.41,0.77,0.77,0,0,0,.29.22A0.85,0.85,0,0,0,63.09,12.78Z" transform="translate(-4.36 -3.38)" style="fill:#fff"/>
  <path d="M33,27.88s-5.07-7.19-12.75-5S13.17,33,13.56,34.52s1.28,5.59,7.65,10.6c5,4,11.74,9.37,11.74,9.37s12.18-8.65,15.88-13.13,7.1-11.45,1-16.55a10,10,0,0,0-13.06-.23C35,26.09,33,27.88,33,27.88Z" transform="translate(-4.36 -3.38)" style="fill:#fff"/>
</svg>
