<svg xmlns="http://www.w3.org/2000/svg" xmlns:xlink="http://www.w3.org/1999/xlink" width="800" height="450" viewBox="0 0 800 450">
  <g>
    <g>
      <g>
        <path d="M8.61351,0h782.2812a8.49054,8.49054,0,0,1,8.49054,8.49054V441.50943A8.49057,8.49057,0,0,1,790.89468,450H8.61351a8.49057,8.49057,0,0,1-8.49057-8.49057V8.49057A8.49057,8.49057,0,0,1,8.61351,0Z" fill="#f2f5f7"/>
        <g mask="url(#a)">
          <g>
            <path d="M763.12956,414.79473a43.1531,43.1531,0,0,0-13.2357-2.56131,15.558,15.558,0,0,0-.94418-3.30652c-5.91195-14.57571-25.31551-23.13395-44.8544-18.71839a34.852,34.852,0,0,0-25.55082,19.33158,39.10254,39.10254,0,0,0-19.63006,5.53046c-16.61512,10.18948-24.26255,30.56557-17.55058,44.43711a22.33715,22.33715,0,0,0,20.07715,12.343v.02348h1.79711l93.21773-.4342c15.227,2.265,32.16281-4.35991,34.46582-16.8407,2.853-15.47058-8.92969-33.077-27.79207-39.8045" fill="#c0cfd8" fill-rule="evenodd"/>
            <path d="M864.23868,387.02222a35.39995,35.39995,0,0,0-9.07649,1.1736C851.52942,370.2989,837.51454,356.976,820.8049,356.976a31.43586,31.43586,0,0,0-14.44461,3.5207,46.41862,46.41862,0,0,0-29.51866-10.68538c-24.24488.02055-44.3279,18.99714-48.06919,43.85917H728.143c-28.55388-.89779-44.7515,20.75192-44.7515,46.3559,0,25.60432,20.50078,37.14343,44.7515,37.14343h136.0956c21.95392,0,39.74861-20.17359,39.74861-45.05914s-17.79469-45.08847-39.74861-45.08847" fill="#fff" fill-rule="evenodd"/>
          </g>
        </g>
      </g>
      <g>
        <path d="M79.9215,445.75471v-4.03985m0-158.65021V167.76275m0-158.78771V4.24528" fill="none" stroke="#c0cfd8" stroke-linecap="round" stroke-width="2.12264"/>
        <path d="M159.98605,445.75471V397.64149m0-69.94491V123.52611m0-73.74541V4.24528" fill="none" stroke="#c0cfd8" stroke-linecap="round" stroke-width="2.12264"/>
        <path d="M240.0506,445.75471V369.19139m0-40.19553V118.35994m0-37.4209V4.24528" fill="none" stroke="#c0cfd8" stroke-linecap="round" stroke-width="2.12264"/>
        <path d="M320.11514,445.75471v-18.0346m0-30.17261V308.65681m0-167.40347V53.02193m0-28.785V4.24528" fill="none" stroke="#c0cfd8" stroke-linecap="round" stroke-width="2.12264"/>
        <path d="M400.17969,445.75471v-6.7565m0-24.565V340.71312m0-233.86559V32.31306m0-21.20477v-6.863" fill="none" stroke="#c0cfd8" stroke-linecap="round" stroke-width="2.12264"/>
        <path d="M480.24423,445.75471V426.10332m0-29.01032V304.10612m0-162.82632V54.162m0-33.09984V4.24528" fill="none" stroke="#c0cfd8" stroke-linecap="round" stroke-width="2.12264"/>
        <path d="M560.30878,445.75471V369.22465m0-42.63562V119.393m0-38.63591V4.24528" fill="none" stroke="#c0cfd8" stroke-linecap="round" stroke-width="2.12264"/>
        <path d="M640.37335,426.00877v-25.8204m0-80.5488V122.6717m0-70.816V4.24528" fill="none" stroke="#c0cfd8" stroke-linecap="round" stroke-width="2.12264"/>
        <path d="M720.43787,281.61625V165.80017m0-156.474V4.24528" fill="none" stroke="#c0cfd8" stroke-linecap="round" stroke-width="2.12264"/>
        <path d="M5.44285,149.11557H35.728m100.89738,0h60.20943m27.05623,0h88.87053m175.55609,0H575.217m30.30676,0h55.81891m102.32513,0h31.24878" fill="none" stroke="#c0cfd8" stroke-linecap="round" stroke-width="2.12264"/>
        <path d="M6.50683,223.93867H181.65509m26.42825,0h77.38431m230.17505,0h75.25574m25.51446,0H793.85254" fill="none" stroke="#c0cfd8" stroke-linecap="round" stroke-width="2.12264"/>
        <path d="M6.50683,298.76179H35.75268m106.10506,0h50.62131m32.69952,0h87.8431m172.52234,0h88.144m35.58239,0h52.80176m104.25263,0h27.52777" fill="none" stroke="#c0cfd8" stroke-linecap="round" stroke-width="2.12264"/>
        <path d="M5.44285,373.58491h4.467m156.75631,0h78.35108m30.74818,0H522.49115m32.56293,0h77.84454" fill="none" stroke="#c0cfd8" stroke-linecap="round" stroke-width="2.12264"/>
        <path d="M3.31489,74.29246h5.2576m157.86882,0H244.729m36.32947,0h238.657m34.62305,0h78.7572m157.73865,0h6.21008" fill="none" stroke="#c0cfd8" stroke-linecap="round" stroke-width="2.12264"/>
      </g>
      <g>
        <path d="M785.56453,346.20679a74.44745,74.44745,0,1,0-128.75724,65.53779" fill="none" stroke="#c0cfd8" stroke-linecap="round" stroke-width="4.24528"/>
        <path d="M747.23633,357.01872a34.74172,34.74172,0,1,0-54.939,33.81156" fill="none" stroke="#c0cfd8" stroke-linecap="round" stroke-width="2.12264"/>
        <path d="M737.81623,362.97171a24.8236,24.8236,0,1,0-10.21171,20.02076" fill="none" stroke="#c0cfd8" stroke-linecap="round" stroke-width="2.12264"/>
        <path d="M731.98021,304.66462a38.54,38.54,0,0,1,21.46687,10.05071,36.74085,36.74085,0,0,1,9.80841,21.14639" fill="none" stroke="#c0cfd8" stroke-linecap="round" stroke-width="2.12264"/>
        <path d="M733.682,313.95606a23.77246,23.77246,0,0,1,13.633,6.33982,24.31284,24.31284,0,0,1,6.351,13.75934" fill="none" stroke="#c0cfd8" stroke-linecap="round" stroke-width="2.12264"/>
        <path d="M670.564,407.07413a30.22549,30.22549,0,0,1-2.39762-2.14845,36.74077,36.74077,0,0,1-9.80841-21.14635" fill="none" stroke="#c0cfd8" stroke-linecap="round" stroke-width="2.12264"/>
        <path d="M678.707,402.66868a19.78287,19.78287,0,0,1-4.4085-3.32355,24.31271,24.31271,0,0,1-6.35094-13.75931" fill="none" stroke="#c0cfd8" stroke-linecap="round" stroke-width="2.12264"/>
      </g>
      <g>
        <ellipse cx="87.36937" cy="87.0283" rx="74.47866" ry="74.29245" fill="none" stroke="#c0cfd8" stroke-width="4.24528"/>
        <ellipse cx="87.36937" cy="87.0283" rx="34.75672" ry="34.66983" fill="none" stroke="#c0cfd8" stroke-width="2.12264"/>
        <ellipse cx="87.36937" cy="87.0283" rx="24.8262" ry="24.76414" fill="none" stroke="#c0cfd8" stroke-width="2.12264"/>
        <path d="M106.35955,28.72121a38.54,38.54,0,0,1,21.46687,10.05071,36.74085,36.74085,0,0,1,9.80841,21.14639" fill="none" stroke="#c0cfd8" stroke-linecap="round" stroke-width="2.12264"/>
        <path d="M108.06136,38.01265a23.77246,23.77246,0,0,1,13.633,6.33982,24.31284,24.31284,0,0,1,6.351,13.75934" fill="none" stroke="#c0cfd8" stroke-linecap="round" stroke-width="2.12264"/>
        <path d="M64.01261,139.033a38.54,38.54,0,0,1-21.46688-10.05075,36.7412,36.7412,0,0,1-9.80841-21.14635" fill="none" stroke="#c0cfd8" stroke-linecap="round" stroke-width="2.12264"/>
        <path d="M62.31083,129.74158a23.77256,23.77256,0,0,1-13.633-6.33969,24.31272,24.31272,0,0,1-6.35094-13.7593" fill="none" stroke="#c0cfd8" stroke-linecap="round" stroke-width="2.12264"/>
        <ellipse cx="400.17969" cy="224.99999" rx="204.2843" ry="203.77358" fill="none" stroke="#c0cfd8" stroke-width="16.98113"/>
      </g>
      <g>
        <ellipse cx="87.36937" cy="362.97171" rx="74.47866" ry="74.29245" fill="none" stroke="#c0cfd8" stroke-width="4.24528"/>
        <ellipse cx="87.36937" cy="362.97171" rx="34.75672" ry="34.66983" fill="none" stroke="#c0cfd8" stroke-width="2.12264"/>
        <ellipse cx="87.36937" cy="362.97171" rx="24.8262" ry="24.76414" fill="none" stroke="#c0cfd8" stroke-width="2.12264"/>
        <path d="M68.37918,304.66462a38.54,38.54,0,0,0-21.46687,10.05071,36.74091,36.74091,0,0,0-9.80841,21.14639" fill="none" stroke="#c0cfd8" stroke-linecap="round" stroke-width="2.12264"/>
        <path d="M66.67737,313.95606a23.77246,23.77246,0,0,0-13.633,6.33982,24.31276,24.31276,0,0,0-6.35094,13.75934" fill="none" stroke="#c0cfd8" stroke-linecap="round" stroke-width="2.12264"/>
        <path d="M110.72613,414.97643A38.54,38.54,0,0,0,132.193,404.92568a36.74117,36.74117,0,0,0,9.80841-21.14635" fill="none" stroke="#c0cfd8" stroke-linecap="round" stroke-width="2.12264"/>
        <path d="M112.4279,405.685a23.77254,23.77254,0,0,0,13.633-6.33969,24.31272,24.31272,0,0,0,6.35094-13.7593" fill="none" stroke="#c0cfd8" stroke-linecap="round" stroke-width="2.12264"/>
      </g>
      <g>
        <ellipse cx="712.99003" cy="87.0283" rx="74.47866" ry="74.29245" fill="none" stroke="#c0cfd8" stroke-width="4.24528"/>
        <ellipse cx="712.99003" cy="87.0283" rx="34.75672" ry="34.66983" fill="none" stroke="#c0cfd8" stroke-width="2.12264"/>
        <ellipse cx="712.99003" cy="87.0283" rx="24.8262" ry="24.76414" fill="none" stroke="#c0cfd8" stroke-width="2.12264"/>
        <path d="M693.99984,28.72121A38.54,38.54,0,0,0,672.533,38.77192a36.74091,36.74091,0,0,0-9.80841,21.14639" fill="none" stroke="#c0cfd8" stroke-linecap="round" stroke-width="2.12264"/>
        <path d="M692.298,38.01265a23.77246,23.77246,0,0,0-13.633,6.33982,24.31284,24.31284,0,0,0-6.351,13.75934" fill="none" stroke="#c0cfd8" stroke-linecap="round" stroke-width="2.12264"/>
        <path d="M736.34679,139.033a38.54,38.54,0,0,0,21.46687-10.05075,36.7412,36.7412,0,0,0,9.80841-21.14635" fill="none" stroke="#c0cfd8" stroke-linecap="round" stroke-width="2.12264"/>
        <path d="M738.04856,129.74158a23.77261,23.77261,0,0,0,13.633-6.33986,24.31271,24.31271,0,0,0,6.35094-13.75931" fill="none" stroke="#c0cfd8" stroke-linecap="round" stroke-width="2.12264"/>
      </g>
    </g>
    <g>
      <g>
        <path d="M399.1157,333.25472c60.52489,0,109.59-48.94246,109.59-109.316,0-9.67585-4.00163-17.317-6.14462-25.46783a104.33755,104.33755,0,0,0-34.90168-56.711c-18.85-15.28374-42.35859-27.13721-68.54372-27.13721-22.76612,0-41.81078,9.33457-59.33284,21.18749-29.06119,19.65867-50.25717,50.46415-50.25717,88.12855,0,60.37358,49.06512,109.316,109.59,109.316Z" fill="#d9118f" fill-rule="evenodd"/>
        <g>
          <path d="M292.3117,233.21861,336.89837,225.78a2.201,2.201,0,0,0,1.97347-2.53566,62.68379,62.68379,0,0,1,39.1241-54.82753l-17.10029-46.51654a109.79168,109.79168,0,0,0-71.33672,107.98726c.01068.80129.0666,2.05548.66124,2.57167a2.61512,2.61512,0,0,0,2.09153.75943Z" fill="#ff80ca"/>
          <path d="M505.6292,233.69893l-44.58663-7.43863a2.201,2.201,0,0,1-1.97343-2.53567A62.68393,62.68393,0,0,0,419.945,168.8971l17.1003-46.51654s69.64248,22.29262,71.74393,101.02822c.05865,2.19643-.034,4.44613-.08342,6.73111a4.66818,4.66818,0,0,1-.98508,2.79964A2.61514,2.61514,0,0,1,505.6292,233.69893Z" fill="#fff"/>
          <path d="M377.725,168.41679,360.7566,121.90025a101.68584,101.68584,0,0,1,76.42786.48031L420.21609,168.8971S403.1776,158.931,377.725,168.41679Z" fill="#feb3df"/>
        </g>
        <ellipse cx="400.17968" cy="225" rx="21.06681" ry="21.01415" fill="#5c0a5c"/>
        <path d="M400.17968,214.98266l56.683-34.38149s3.46637-2.17464,5.14507.23923-.71926,4.43632-1.59171,5.067L406.175,228.26984Z" fill="#5c0a5c"/>
      </g>
      <ellipse cx="400.17968" cy="223.93719" rx="109.58852" ry="109.31455" fill="none" stroke="#d9118f" stroke-width="4.24528"/>
    </g>
  </g>
</svg>
