<svg xmlns="http://www.w3.org/2000/svg" xmlns:xlink="http://www.w3.org/1999/xlink" width="240" height="156" viewBox="0 0 190 106">
  <defs>
    <mask id="a" x="1.5" y="0" width="212.37799" height="112.4" maskUnits="userSpaceOnUse">
      <rect x="1.5" width="187.8" height="106" rx="2" fill="#fff"/>
    </mask>
  </defs>
  <g>
    <g>
      <g>
        <rect x="1.5" width="187.8" height="106" rx="2" fill="#f2f5f7"/>
        <g mask="url(#a)">
          <g>
            <path d="M180.78112,97.7072a10.11726,10.11726,0,0,0-3.10995-.60333,3.67191,3.67191,0,0,0-.22185-.77887c-1.38911-3.43339-5.9483-5.44933-10.53929-4.40922a8.1916,8.1916,0,0,0-6.00359,4.55366,9.17059,9.17059,0,0,0-4.61241,1.30273c-3.904,2.40019-5.70089,7.19989-4.1238,10.46741a5.24707,5.24707,0,0,0,4.71746,2.90746v.00553h.42226l21.90306-.10228c3.57783.53353,7.55719-1.027,8.09832-3.96692.67037-3.64418-2.09818-7.79147-6.53021-9.37617" fill="#c0cfd8" fill-rule="evenodd"/>
            <path d="M204.53839,91.16523a8.29815,8.29815,0,0,0-2.13267.27645c-.85358-4.21572-4.14661-7.354-8.07282-7.354a7.37147,7.37147,0,0,0-3.394.82932A10.89028,10.89028,0,0,0,184.003,82.4c-5.69674.00484-10.41558,4.47488-11.29466,10.33127h-.14789c-6.70921-.21148-10.51511,4.88823-10.51511,10.91939,0,6.03124,4.817,8.74934,10.51511,8.74934h31.97793c5.15844,0,9.3396-4.752,9.3396-10.61393s-4.18116-10.62084-9.3396-10.62084" fill="#fff" fill-rule="evenodd"/>
          </g>
        </g>
      </g>
      <g>
        <path d="M20.25,105v-.95161m0-37.37094v-27.16m0-37.40333V1" fill="none" stroke="#c0cfd8" stroke-linecap="round" stroke-width="0.5"/>
        <path d="M39.0625,105V93.66666m0-16.47591V29.09726m0-17.37114V1" fill="none" stroke="#c0cfd8" stroke-linecap="round" stroke-width="0.5"/>
        <path d="M57.875,105V86.96508m0-9.46828V27.88034m0-8.8147V1" fill="none" stroke="#c0cfd8" stroke-linecap="round" stroke-width="0.5"/>
        <path d="M76.6875,105v-4.24815m0-7.10733V72.70583m0-39.43282V12.48961m0-6.78047V1" fill="none" stroke="#c0cfd8" stroke-linecap="round" stroke-width="0.5"/>
        <path d="M95.5,105v-1.59153m0-5.78643V80.25687m0-55.08834V7.61152m0-4.9949V1" fill="none" stroke="#c0cfd8" stroke-linecap="round" stroke-width="0.5"/>
        <path d="M114.3125,105v-4.629m0-6.83354V71.63389m0-38.35465V12.75816m0-7.79685V1" fill="none" stroke="#c0cfd8" stroke-linecap="round" stroke-width="0.5"/>
        <path d="M133.125,105V86.97292m0-10.04306V28.12369m0-9.1009V1" fill="none" stroke="#c0cfd8" stroke-linecap="round" stroke-width="0.5"/>
        <path d="M151.9375,100.34873V94.26659m0-18.97371V28.896m0-16.68111V1" fill="none" stroke="#c0cfd8" stroke-linecap="round" stroke-width="0.5"/>
        <path d="M170.75,66.33627V39.05515m0-36.85831V1" fill="none" stroke="#c0cfd8" stroke-linecap="round" stroke-width="0.5"/>
        <path d="M2.75,35.125H9.866m23.70752,0H47.72073m6.35731,0H74.95965m41.24983,0h20.41845m7.12108,0h13.11558m24.043,0H188.25" fill="none" stroke="#c0cfd8" stroke-linecap="round" stroke-width="0.5"/>
        <path d="M3,52.75H44.154m6.20976,0H68.54649m54.08347,0h17.68259m5.99505,0H188" fill="none" stroke="#c0cfd8" stroke-linecap="round" stroke-width="0.5"/>
        <path d="M3,70.375H9.8718m24.93115,0H46.69727m7.6833,0h20.6402m40.537,0h20.7109m8.36067,0H157.036m24.49588,0H188" fill="none" stroke="#c0cfd8" stroke-linecap="round" stroke-width="0.5"/>
        <path d="M2.75,88H3.7996m36.83251,0H59.042m7.2248,0h57.97232m7.6512,0h18.29087" fill="none" stroke="#c0cfd8" stroke-linecap="round" stroke-width="0.5"/>
        <path d="M2.25,17.5H3.48536m37.09391,0h18.395m8.53621,0h56.07646m8.13526,0h18.50531m37.06333,0H188.75" fill="none" stroke="#c0cfd8" stroke-linecap="round" stroke-width="0.5"/>
      </g>
      <g>
        <path d="M186.05259,81.55093a17.50193,17.50193,0,1,0-30.25366,15.43779" fill="none" stroke="#c0cfd8" stroke-linecap="round"/>
        <path d="M177.04674,84.09774a8.16737,8.16737,0,1,0-12.90883,7.9645" fill="none" stroke="#c0cfd8" stroke-linecap="round" stroke-width="0.5"/>
        <path d="M174.83333,85.5a5.83229,5.83229,0,1,0-2.39941,4.716" fill="none" stroke="#c0cfd8" stroke-linecap="round" stroke-width="0.5"/>
        <path d="M173.46206,71.76544a9.04591,9.04591,0,0,1,5.044,2.3675,8.664,8.664,0,0,1,2.30465,4.98115" fill="none" stroke="#c0cfd8" stroke-linecap="round" stroke-width="0.5"/>
        <path d="M173.86193,73.95409a5.57971,5.57971,0,0,1,3.20331,1.49338,5.73337,5.73337,0,0,1,1.49226,3.24109" fill="none" stroke="#c0cfd8" stroke-linecap="round" stroke-width="0.5"/>
        <path d="M159.03131,95.88857a7.10724,7.10724,0,0,1-.56336-.50608,8.66394,8.66394,0,0,1-2.30465-4.98114" fill="none" stroke="#c0cfd8" stroke-linecap="round" stroke-width="0.5"/>
        <path d="M160.94462,94.85084a4.64939,4.64939,0,0,1-1.03585-.78288,5.73333,5.73333,0,0,1-1.49226-3.24108" fill="none" stroke="#c0cfd8" stroke-linecap="round" stroke-width="0.5"/>
      </g>
      <g>
        <circle cx="22" cy="20.5" r="17.5" fill="none" stroke="#c0cfd8"/>
        <circle cx="22" cy="20.5" r="8.16667" fill="none" stroke="#c0cfd8" stroke-width="0.5"/>
        <circle cx="22" cy="20.5" r="5.83333" fill="none" stroke="#c0cfd8" stroke-width="0.5"/>
        <path d="M26.46206,6.76544a9.04591,9.04591,0,0,1,5.044,2.3675,8.664,8.664,0,0,1,2.30465,4.98115" fill="none" stroke="#c0cfd8" stroke-linecap="round" stroke-width="0.5"/>
        <path d="M26.86193,8.95409a5.57971,5.57971,0,0,1,3.20331,1.49338,5.73337,5.73337,0,0,1,1.49226,3.24109" fill="none" stroke="#c0cfd8" stroke-linecap="round" stroke-width="0.5"/>
        <path d="M16.51194,32.75a9.04592,9.04592,0,0,1-5.044-2.36751,8.66406,8.66406,0,0,1-2.30465-4.98114" fill="none" stroke="#c0cfd8" stroke-linecap="round" stroke-width="0.5"/>
        <path d="M16.11208,30.56135A5.57971,5.57971,0,0,1,12.90877,29.068a5.73333,5.73333,0,0,1-1.49226-3.24108" fill="none" stroke="#c0cfd8" stroke-linecap="round" stroke-width="0.5"/>
        <circle cx="95.5" cy="53" r="48" fill="none" stroke="#c0cfd8" stroke-width="4"/>
      </g>
      <g>
        <circle cx="22" cy="85.5" r="17.5" fill="none" stroke="#c0cfd8"/>
        <circle cx="22" cy="85.5" r="8.16667" fill="none" stroke="#c0cfd8" stroke-width="0.5"/>
        <circle cx="22" cy="85.5" r="5.83333" fill="none" stroke="#c0cfd8" stroke-width="0.5"/>
        <path d="M17.53794,71.76544a9.04591,9.04591,0,0,0-5.044,2.3675,8.664,8.664,0,0,0-2.30465,4.98115" fill="none" stroke="#c0cfd8" stroke-linecap="round" stroke-width="0.5"/>
        <path d="M17.13807,73.95409a5.57971,5.57971,0,0,0-3.20331,1.49338,5.73337,5.73337,0,0,0-1.49226,3.24109" fill="none" stroke="#c0cfd8" stroke-linecap="round" stroke-width="0.5"/>
        <path d="M27.48806,97.75a9.04592,9.04592,0,0,0,5.044-2.36751,8.66406,8.66406,0,0,0,2.30465-4.98114" fill="none" stroke="#c0cfd8" stroke-linecap="round" stroke-width="0.5"/>
        <path d="M27.88792,95.56135A5.57971,5.57971,0,0,0,31.09123,94.068a5.73333,5.73333,0,0,0,1.49226-3.24108" fill="none" stroke="#c0cfd8" stroke-linecap="round" stroke-width="0.5"/>
      </g>
      <g>
        <circle cx="169" cy="20.5" r="17.5" fill="none" stroke="#c0cfd8"/>
        <circle cx="169" cy="20.5" r="8.16667" fill="none" stroke="#c0cfd8" stroke-width="0.5"/>
        <circle cx="169" cy="20.5" r="5.83333" fill="none" stroke="#c0cfd8" stroke-width="0.5"/>
        <path d="M164.53794,6.76544a9.04591,9.04591,0,0,0-5.044,2.3675,8.664,8.664,0,0,0-2.30465,4.98115" fill="none" stroke="#c0cfd8" stroke-linecap="round" stroke-width="0.5"/>
        <path d="M164.13807,8.95409a5.57971,5.57971,0,0,0-3.20331,1.49338,5.73337,5.73337,0,0,0-1.49226,3.24109" fill="none" stroke="#c0cfd8" stroke-linecap="round" stroke-width="0.5"/>
        <path d="M174.48806,32.75a9.04592,9.04592,0,0,0,5.044-2.36751,8.66406,8.66406,0,0,0,2.30465-4.98114" fill="none" stroke="#c0cfd8" stroke-linecap="round" stroke-width="0.5"/>
        <path d="M174.88792,30.56135a5.57971,5.57971,0,0,0,3.20331-1.49339,5.73333,5.73333,0,0,0,1.49226-3.24108" fill="none" stroke="#c0cfd8" stroke-linecap="round" stroke-width="0.5"/>
      </g>
    </g>
    <g>
      <circle cx="95.25" cy="52.75" r="25.75" fill="#560a9b"/>
      <g>
        <polyline points="83.897 58.497 77.695 52.294 83.897 46.092" fill="none" stroke="#fff" stroke-linecap="round" stroke-linejoin="round" stroke-width="3"/>
        <polyline points="106.553 58.497 112.755 52.294 106.553 46.092" fill="none" stroke="#fff" stroke-linecap="round" stroke-linejoin="round" stroke-width="3"/>
        <line x1="101.93105" y1="39.67896" x2="88.91589" y2="65.88799" fill="none" stroke="#e98efa" stroke-linecap="round" stroke-width="3"/>
      </g>
    </g>
  </g>
</svg>
