<svg xmlns="http://www.w3.org/2000/svg" width="800" height="450" viewBox="0 0 800 450">
  <path d="M8.60877.10053h781.9317a8.48676,8.48676,0,0,1,8.48676,8.48676V441.41269a8.48679,8.48679,0,0,1-8.48679,8.48679H8.60877A8.48677,8.48677,0,0,1,.122,441.41271V8.5873A8.48677,8.48677,0,0,1,8.60877.10053Z" fill="#f2f5f7"/>
  <path d="M762.78772,414.70992a43.13427,43.13427,0,0,0-13.2298-2.56017,15.55089,15.55089,0,0,0-.94375-3.305c-5.90931-14.5692-25.3042-23.12361-44.83436-18.71a34.83637,34.83637,0,0,0-25.5394,19.32293,39.0853,39.0853,0,0,0-19.6213,5.528c-16.60769,10.18493-24.2517,30.55192-17.54273,44.41726a22.32716,22.32716,0,0,0,20.06818,12.33748v.02346h1.7963l93.17608-.434c15.22017,2.264,32.14846-4.358,34.45043-16.83317,2.85177-15.46367-8.92571-33.06222-27.77965-39.78671" fill="#c0cfd8" fill-rule="evenodd"/>
  <path d="M863.85165,386.94981a35.38458,35.38458,0,0,0-9.07243,1.17308C851.14807,370.234,837.13947,356.917,820.43727,356.917a31.42178,31.42178,0,0,0-14.43814,3.51913,46.39781,46.39781,0,0,0-29.50546-10.6806c-24.23406.02053-44.30811,18.98864-48.04773,43.83956h-.62913c-28.54112-.89738-44.7315,20.74265-44.7315,46.3352,0,25.59288,20.49162,37.12682,44.7315,37.12682h136.0348c21.94411,0,39.73085-20.16457,39.73085-45.039s-17.78674-45.06833-39.73085-45.06833" fill="#fff" fill-rule="evenodd"/>
  <path d="M79.8849,445.65608V441.618m0-158.57931V167.78833m0-158.71677V4.34391" fill="none" stroke="#c0cfd8" stroke-linecap="round" stroke-width="2.12169"/>
  <path d="M159.91367,445.65608V397.56434m0-69.91363V123.57144m0-73.71245V4.34391" fill="none" stroke="#c0cfd8" stroke-linecap="round" stroke-width="2.12169"/>
  <path d="M239.94245,445.65608V369.127m0-40.17759V118.40758m0-37.40418V4.34391" fill="none" stroke="#c0cfd8" stroke-linecap="round" stroke-width="2.12169"/>
  <path d="M319.97121,445.65608V427.62953m0-30.15912v-88.851m0-167.32869v-88.192m0-28.77215V4.34391" fill="none" stroke="#c0cfd8" stroke-linecap="round" stroke-width="2.12169"/>
  <path d="M400,445.65608V438.9026m0-24.55405V340.66142m0-233.76109V32.39915m0-21.19529V4.34391" fill="none" stroke="#c0cfd8" stroke-linecap="round" stroke-width="2.12169"/>
  <path d="M480.02877,445.65608V426.01344m0-28.99735V304.07078m0-162.75358V54.23833m0-33.085V4.34391" fill="none" stroke="#c0cfd8" stroke-linecap="round" stroke-width="2.12169"/>
  <path d="M560.05755,445.65608V369.16023m0-42.61658V119.44021m0-38.61863V4.34391" fill="none" stroke="#c0cfd8" stroke-linecap="round" stroke-width="2.12169"/>
  <path d="M640.08635,425.919V400.11009m0-80.51279V122.71742m0-70.78439V4.34391" fill="none" stroke="#c0cfd8" stroke-linecap="round" stroke-width="2.12169"/>
  <path d="M720.1151,281.591V165.82661m0-156.404V4.34391" fill="none" stroke="#c0cfd8" stroke-linecap="round" stroke-width="2.12169"/>
  <path d="M5.43952,149.14947H35.71114m100.8523,0H196.746m27.04414,0h88.8308m175.47766,0H574.9591m30.29321,0h55.79394m102.27948,0h31.23474" fill="none" stroke="#c0cfd8" stroke-linecap="round" stroke-width="2.12169"/>
  <path d="M6.503,223.93916h175.07m26.41646,0h77.34971m230.07224,0h75.2221m25.50306,0H793.497" fill="none" stroke="#c0cfd8" stroke-linecap="round" stroke-width="2.12169"/>
  <path d="M6.503,298.72883H35.73581m106.05765,0h50.59868m32.68494,0h87.80383m172.44528,0h88.10459m35.56646,0h52.7782m104.206,0H793.497" fill="none" stroke="#c0cfd8" stroke-linecap="round" stroke-width="2.12169"/>
  <path d="M5.43952,373.51851h4.465m156.68627,0H244.9069m30.73445,0H522.25682m32.54841,0h77.80969" fill="none" stroke="#c0cfd8" stroke-linecap="round" stroke-width="2.12169"/>
  <path d="M3.31251,74.35979H8.56776m157.79829,0h78.25271m36.31324,0H519.48241m34.60761,0h78.722m157.66821,0h6.20728" fill="none" stroke="#c0cfd8" stroke-linecap="round" stroke-width="2.12169"/>
  <path d="M785.21266,346.15262A74.41418,74.41418,0,1,0,656.513,411.66113" fill="none" stroke="#c0cfd8" stroke-linecap="round" stroke-width="4.24339"/>
  <path d="M746.90158,356.95972a34.72619,34.72619,0,1,0-54.91443,33.79645" fill="none" stroke="#c0cfd8" stroke-linecap="round" stroke-width="2.12169"/>
  <path d="M737.48569,362.91005a24.8125,24.8125,0,1,0-10.20714,20.01181" fill="none" stroke="#c0cfd8" stroke-linecap="round" stroke-width="2.12169"/>
  <path d="M731.65228,304.629a38.5228,38.5228,0,0,1,21.45729,10.04621,36.7247,36.7247,0,0,1,9.804,21.13695" fill="none" stroke="#c0cfd8" stroke-linecap="round" stroke-width="2.12169"/>
  <path d="M733.35333,313.91629a23.762,23.762,0,0,1,13.627,6.337,24.302,24.302,0,0,1,6.3481,13.7532" fill="none" stroke="#c0cfd8" stroke-linecap="round" stroke-width="2.12169"/>
  <path d="M670.26356,406.99276a30.20583,30.20583,0,0,1-2.39654-2.14749,36.72425,36.72425,0,0,1-9.804-21.1369" fill="none" stroke="#c0cfd8" stroke-linecap="round" stroke-width="2.12169"/>
  <path d="M678.40282,402.58928a19.77439,19.77439,0,0,1-4.40652-3.32206,24.30181,24.30181,0,0,1-6.34811-13.75316" fill="none" stroke="#c0cfd8" stroke-linecap="round" stroke-width="2.12169"/>
  <ellipse cx="87.32943" cy="87.08995" rx="74.44537" ry="74.25926" fill="none" stroke="#c0cfd8" stroke-width="4.24339"/>
  <ellipse cx="87.32943" cy="87.08995" rx="34.74119" ry="34.65434" fill="none" stroke="#c0cfd8" stroke-width="2.12169"/>
  <ellipse cx="87.32943" cy="87.08995" rx="24.81511" ry="24.75307" fill="none" stroke="#c0cfd8" stroke-width="2.12169"/>
  <path d="M106.31114,28.8089a38.52285,38.52285,0,0,1,21.45728,10.04622,36.72457,36.72457,0,0,1,9.804,21.13694" fill="none" stroke="#c0cfd8" stroke-linecap="round" stroke-width="2.12169"/>
  <path d="M108.01219,38.09619a23.76194,23.76194,0,0,1,13.62695,6.337,24.302,24.302,0,0,1,6.34811,13.7532" fill="none" stroke="#c0cfd8" stroke-linecap="round" stroke-width="2.12169"/>
  <path d="M63.98311,139.07143a38.52281,38.52281,0,0,1-21.45728-10.04626,36.72477,36.72477,0,0,1-9.804-21.1369" fill="none" stroke="#c0cfd8" stroke-linecap="round" stroke-width="2.12169"/>
  <path d="M62.2821,129.78414a23.76189,23.76189,0,0,1-13.62695-6.33686A24.30184,24.30184,0,0,1,42.307,109.69413" fill="none" stroke="#c0cfd8" stroke-linecap="round" stroke-width="2.12169"/>
  <ellipse cx="400.00001" cy="225" rx="204.19302" ry="203.68255" fill="none" stroke="#c0cfd8" stroke-width="16.97355"/>
  <ellipse cx="87.32943" cy="362.91005" rx="74.44537" ry="74.25926" fill="none" stroke="#c0cfd8" stroke-width="4.24339"/>
  <ellipse cx="87.32943" cy="362.91005" rx="34.74119" ry="34.65434" fill="none" stroke="#c0cfd8" stroke-width="2.12169"/>
  <ellipse cx="87.32943" cy="362.91005" rx="24.81511" ry="24.75307" fill="none" stroke="#c0cfd8" stroke-width="2.12169"/>
  <path d="M68.34774,304.629a38.52277,38.52277,0,0,0-21.45729,10.04621,36.72457,36.72457,0,0,0-9.804,21.13695" fill="none" stroke="#c0cfd8" stroke-linecap="round" stroke-width="2.12169"/>
  <path d="M66.64668,313.91629a23.76194,23.76194,0,0,0-13.62695,6.337,24.302,24.302,0,0,0-6.3481,13.7532" fill="none" stroke="#c0cfd8" stroke-linecap="round" stroke-width="2.12169"/>
  <path d="M110.67576,414.89153A38.52274,38.52274,0,0,0,132.133,404.84527a36.72474,36.72474,0,0,0,9.804-21.1369" fill="none" stroke="#c0cfd8" stroke-linecap="round" stroke-width="2.12169"/>
  <path d="M112.37677,405.60424a23.76189,23.76189,0,0,0,13.627-6.33686,24.30173,24.30173,0,0,0,6.3481-13.75315" fill="none" stroke="#c0cfd8" stroke-linecap="round" stroke-width="2.12169"/>
  <ellipse cx="712.67058" cy="87.08995" rx="74.44537" ry="74.25926" fill="none" stroke="#c0cfd8" stroke-width="4.24339"/>
  <ellipse cx="712.67058" cy="87.08995" rx="34.74119" ry="34.65434" fill="none" stroke="#c0cfd8" stroke-width="2.12169"/>
  <ellipse cx="712.67058" cy="87.08995" rx="24.81511" ry="24.75307" fill="none" stroke="#c0cfd8" stroke-width="2.12169"/>
  <path d="M693.68888,28.8089A38.52282,38.52282,0,0,0,672.2316,38.85512a36.72457,36.72457,0,0,0-9.804,21.13694" fill="none" stroke="#c0cfd8" stroke-linecap="round" stroke-width="2.12169"/>
  <path d="M691.98783,38.09619a23.76194,23.76194,0,0,0-13.627,6.337,24.302,24.302,0,0,0-6.34811,13.7532" fill="none" stroke="#c0cfd8" stroke-linecap="round" stroke-width="2.12169"/>
  <path d="M736.01691,139.07143a38.52287,38.52287,0,0,0,21.45728-10.04626,36.72482,36.72482,0,0,0,9.804-21.1369" fill="none" stroke="#c0cfd8" stroke-linecap="round" stroke-width="2.12169"/>
  <path d="M737.71792,129.78414a23.76187,23.76187,0,0,0,13.62694-6.337A24.30171,24.30171,0,0,0,757.693,109.694" fill="none" stroke="#c0cfd8" stroke-linecap="round" stroke-width="2.12169"/>
  <ellipse cx="398.93649" cy="223.93915" rx="109.54105" ry="109.2672" fill="#f27041"/>
  <path d="M353.20618,201.39756c0,16.33857,7.11757,25.76657,14.68794,35.86934,2.03713,2.69841,4.22271,5.55316,6.24418,8.58887.51134.66621,1.73939,1.44382,3.93323,13.06013,1.57114,8.07715,9.07634,9.51027,17.32463,9.567h8.61039c8.25821-.01731,15.59524-1.1197,17.116-9.21574,2.19464-11.451,3.81939-12.57231,4.14188-13.41144,2.03712-3.04394,4.22271-5.89046,6.24252-8.58887,7.59594-9.938,14.6896-19.53056,14.6896-35.86934a46.49642,46.49642,0,1,0-92.99039,0Z" fill="#fff" fill-rule="evenodd"/>
  <path d="M388.56156,272.13184a3.87486,3.87486,0,1,0,0,7.74969h23.46412a3.81353,3.81353,0,0,0,3.88456-3.74156v-.13328a3.92079,3.92079,0,0,0-3.88456-3.87485Z" fill="#ffbb78" fill-rule="evenodd"/>
  <path d="M410.33509,283.07422h-20.264a3.87486,3.87486,0,1,0,0,7.7497h20.26407a3.87486,3.87486,0,1,0,0-7.7497" fill="#ffbb78" fill-rule="evenodd"/>
  <path d="M390.522,198.0113l.04126-.05759a3.05116,3.05116,0,0,1,2.35877-1.64537h.33816a4.068,4.068,0,0,1,1.51753.33731,1.52557,1.52557,0,0,1,1.01441,1.01187,1.86483,1.86483,0,0,1-.66788,2.18836,8.92313,8.92313,0,0,1-3.54644,2.032,2.96844,2.96844,0,0,1-.66789-.82266,3.91317,3.91317,0,0,1-.38762-3.04395Zm12.63517.54315.066.06582a2.03651,2.03651,0,0,1,1.798-1.16821h.173a1.6462,1.6462,0,0,1,1.52247,1.763l-.00493.05517a3.55611,3.55611,0,0,1-.66789,1.64537,8.792,8.792,0,0,1-1.86394,1.3494,2.32138,2.32138,0,0,1-.51133-.66622,2.64453,2.64453,0,0,1-.51133-3.04395Zm-19.0878,7.48478a.70919.70919,0,0,1,.60046-.8317c1.90018-.26487,5.48539-.55283,6.55344-.85292A9.74175,9.74175,0,0,0,397.82954,206a26.20077,26.20077,0,0,0,5.5983-1.0802.698.698,0,0,1,.57816.07571q1.01565.63429,2.08741,1.17724a39.92766,39.92766,0,0,0,8.57245,2.07646.71029.71029,0,0,1,.587.8342l-9.00066,48.11033a.71379.71379,0,0,0,.70268.8441h1.02437a.71454.71454,0,0,0,.70268-.58165l9.17214-48.86514c.33815-1.51374.58556-1.82635-.92372-2.032a17.22534,17.22534,0,0,0-1.89279-.204l-.07342-.00738a51.92964,51.92964,0,0,1-8.0957-2.0263,3.70389,3.70389,0,0,1-.82477-.51006,10.92142,10.92142,0,0,0,1.534-1.3163,4.93063,4.93063,0,0,0,1.35257-3.20846,4.02608,4.02608,0,0,0-7.76912-1.53021,5.40215,5.40215,0,0,0,.66788,5.22407.16447.16447,0,0,0,.14846.17275,19.92648,19.92648,0,0,1-4.22271.66622,10.7321,10.7321,0,0,1-1.97773-.07817.71483.71483,0,0,1-.34228-1.27764,7.30587,7.30587,0,0,0,1.30556-1.18632,4.04887,4.04887,0,0,0,1.18687-4.64817,4.60422,4.60422,0,0,0-2.12208-2.15789,1.23728,1.23728,0,0,0-.12783-.05431,6.528,6.528,0,0,0-2.98633-.31346,5.28683,5.28683,0,0,0-4.2227,3.04395,5.4023,5.4023,0,0,0,.66788,5.22408c0,.17274.17322.17274.17322.3373l-3.03014.50675-.04454.00823c-2.25072.52079-1.8194.43193-2.83054.60388-1.51754.3373-2.37528.074-2.03712,1.57955l9.18358,52.04148a.71513.71513,0,0,0,.70434.58925h1.3047a.71322.71322,0,0,0,.70268-.83931Z" fill="#f27041" fill-rule="evenodd"/>
</svg>
