<svg xmlns="http://www.w3.org/2000/svg" xmlns:xlink="http://www.w3.org/1999/xlink" width="800" height="450" viewBox="0 0 800 450">
  <g>
    <g>
      <g>
        <path d="M8.60877.10053h781.9317a8.48676,8.48676,0,0,1,8.48676,8.48676V441.41269a8.48679,8.48679,0,0,1-8.48679,8.48679H8.60877A8.48677,8.48677,0,0,1,.122,441.41271V8.5873A8.48677,8.48677,0,0,1,8.60877.10053Z" fill="#f2f5f7"/>
        <g>
          <g>
            <path d="M762.78772,414.70992a43.13427,43.13427,0,0,0-13.2298-2.56017,15.55089,15.55089,0,0,0-.94375-3.305c-5.90931-14.5692-25.3042-23.12361-44.83436-18.71a34.83637,34.83637,0,0,0-25.5394,19.32293,39.0853,39.0853,0,0,0-19.6213,5.528c-16.60769,10.18493-24.2517,30.55192-17.54273,44.41726a22.32716,22.32716,0,0,0,20.06818,12.33748v.02346h1.7963l93.17608-.434c15.22017,2.264,32.14846-4.358,34.45043-16.83317,2.85177-15.46367-8.92571-33.06222-27.77965-39.78671" fill="#c0cfd8" fill-rule="evenodd"/>
            <path d="M863.85165,386.94981a35.38458,35.38458,0,0,0-9.07243,1.17308C851.14807,370.234,837.13947,356.917,820.43727,356.917a31.42178,31.42178,0,0,0-14.43814,3.51913,46.39781,46.39781,0,0,0-29.50546-10.6806c-24.23406.02053-44.30811,18.98864-48.04773,43.83956h-.62913c-28.54112-.89738-44.7315,20.74265-44.7315,46.3352,0,25.59288,20.49162,37.12682,44.7315,37.12682h136.0348c21.94411,0,39.73085-20.16457,39.73085-45.039s-17.78674-45.06833-39.73085-45.06833" fill="#fff" fill-rule="evenodd"/>
          </g>
        </g>
      </g>
      <g>
        <path d="M79.8849,445.65608V441.618m0-158.57931V167.78833m0-158.71677V4.34391" fill="none" stroke="#c0cfd8" stroke-linecap="round" stroke-width="2.12169"/>
        <path d="M159.91367,445.65608V397.56434m0-69.91363V123.57144m0-73.71245V4.34391" fill="none" stroke="#c0cfd8" stroke-linecap="round" stroke-width="2.12169"/>
        <path d="M239.94245,445.65608V369.127m0-40.17759V118.40758m0-37.40418V4.34391" fill="none" stroke="#c0cfd8" stroke-linecap="round" stroke-width="2.12169"/>
        <path d="M319.97121,445.65608V427.62953m0-30.15912v-88.851m0-167.32869v-88.192m0-28.77215V4.34391" fill="none" stroke="#c0cfd8" stroke-linecap="round" stroke-width="2.12169"/>
        <path d="M400,445.65608V438.9026m0-24.55405V340.66142m0-233.76109V32.39915m0-21.19529V4.34391" fill="none" stroke="#c0cfd8" stroke-linecap="round" stroke-width="2.12169"/>
        <path d="M480.02877,445.65608V426.01344m0-28.99735V304.07078m0-162.75358V54.23833m0-33.085V4.34391" fill="none" stroke="#c0cfd8" stroke-linecap="round" stroke-width="2.12169"/>
        <path d="M560.05755,445.65608V369.16023m0-42.61658V119.44021m0-38.61863V4.34391" fill="none" stroke="#c0cfd8" stroke-linecap="round" stroke-width="2.12169"/>
        <path d="M640.08635,425.919V400.11009m0-80.51279V122.71742m0-70.78439V4.34391" fill="none" stroke="#c0cfd8" stroke-linecap="round" stroke-width="2.12169"/>
        <path d="M720.1151,281.591V165.82661m0-156.404V4.34391" fill="none" stroke="#c0cfd8" stroke-linecap="round" stroke-width="2.12169"/>
        <path d="M5.43952,149.14947H35.71114m100.8523,0H196.746m27.04414,0h88.8308m175.47766,0H574.9591m30.29321,0h55.79394m102.27948,0h31.23474" fill="none" stroke="#c0cfd8" stroke-linecap="round" stroke-width="2.12169"/>
        <path d="M6.503,223.93916h175.07m26.41646,0h77.34971m230.07224,0h75.2221m25.50306,0H793.497" fill="none" stroke="#c0cfd8" stroke-linecap="round" stroke-width="2.12169"/>
        <path d="M6.503,298.72883H35.73581m106.05765,0h50.59868m32.68494,0h87.80383m172.44528,0h88.10459m35.56646,0h52.7782m104.206,0H793.497" fill="none" stroke="#c0cfd8" stroke-linecap="round" stroke-width="2.12169"/>
        <path d="M5.43952,373.51851h4.465m156.68627,0H244.9069m30.73445,0H522.25682m32.54841,0h77.80969" fill="none" stroke="#c0cfd8" stroke-linecap="round" stroke-width="2.12169"/>
        <path d="M3.31251,74.35979H8.56776m157.79829,0h78.25271m36.31324,0H519.48241m34.60761,0h78.722m157.66821,0h6.20728" fill="none" stroke="#c0cfd8" stroke-linecap="round" stroke-width="2.12169"/>
      </g>
      <g>
        <path d="M785.21266,346.15262A74.41418,74.41418,0,1,0,656.513,411.66113" fill="none" stroke="#c0cfd8" stroke-linecap="round" stroke-width="4.24339"/>
        <path d="M746.90158,356.95972a34.72619,34.72619,0,1,0-54.91443,33.79645" fill="none" stroke="#c0cfd8" stroke-linecap="round" stroke-width="2.12169"/>
        <path d="M737.48569,362.91005a24.8125,24.8125,0,1,0-10.20714,20.01181" fill="none" stroke="#c0cfd8" stroke-linecap="round" stroke-width="2.12169"/>
        <path d="M731.65228,304.629a38.5228,38.5228,0,0,1,21.45729,10.04621,36.7247,36.7247,0,0,1,9.804,21.13695" fill="none" stroke="#c0cfd8" stroke-linecap="round" stroke-width="2.12169"/>
        <path d="M733.35333,313.91629a23.762,23.762,0,0,1,13.627,6.337,24.302,24.302,0,0,1,6.3481,13.7532" fill="none" stroke="#c0cfd8" stroke-linecap="round" stroke-width="2.12169"/>
        <path d="M670.26356,406.99276a30.20583,30.20583,0,0,1-2.39654-2.14749,36.72425,36.72425,0,0,1-9.804-21.1369" fill="none" stroke="#c0cfd8" stroke-linecap="round" stroke-width="2.12169"/>
        <path d="M678.40282,402.58928a19.77439,19.77439,0,0,1-4.40652-3.32206,24.30181,24.30181,0,0,1-6.34811-13.75316" fill="none" stroke="#c0cfd8" stroke-linecap="round" stroke-width="2.12169"/>
      </g>
      <g>
        <ellipse cx="87.32943" cy="87.08995" rx="74.44537" ry="74.25926" fill="none" stroke="#c0cfd8" stroke-width="4.24339"/>
        <ellipse cx="87.32943" cy="87.08995" rx="34.74119" ry="34.65434" fill="none" stroke="#c0cfd8" stroke-width="2.12169"/>
        <ellipse cx="87.32943" cy="87.08995" rx="24.81511" ry="24.75307" fill="none" stroke="#c0cfd8" stroke-width="2.12169"/>
        <path d="M106.31114,28.8089a38.52285,38.52285,0,0,1,21.45728,10.04622,36.72457,36.72457,0,0,1,9.804,21.13694" fill="none" stroke="#c0cfd8" stroke-linecap="round" stroke-width="2.12169"/>
        <path d="M108.01219,38.09619a23.76194,23.76194,0,0,1,13.62695,6.337,24.302,24.302,0,0,1,6.34811,13.7532" fill="none" stroke="#c0cfd8" stroke-linecap="round" stroke-width="2.12169"/>
        <path d="M63.98311,139.07143a38.52281,38.52281,0,0,1-21.45728-10.04626,36.72477,36.72477,0,0,1-9.804-21.1369" fill="none" stroke="#c0cfd8" stroke-linecap="round" stroke-width="2.12169"/>
        <path d="M62.2821,129.78414a23.76189,23.76189,0,0,1-13.62695-6.33686A24.30184,24.30184,0,0,1,42.307,109.69413" fill="none" stroke="#c0cfd8" stroke-linecap="round" stroke-width="2.12169"/>
        <ellipse cx="400.00001" cy="225" rx="204.19302" ry="203.68255" fill="none" stroke="#c0cfd8" stroke-width="16.97355"/>
      </g>
      <g>
        <ellipse cx="87.32943" cy="362.91005" rx="74.44537" ry="74.25926" fill="none" stroke="#c0cfd8" stroke-width="4.24339"/>
        <ellipse cx="87.32943" cy="362.91005" rx="34.74119" ry="34.65434" fill="none" stroke="#c0cfd8" stroke-width="2.12169"/>
        <ellipse cx="87.32943" cy="362.91005" rx="24.81511" ry="24.75307" fill="none" stroke="#c0cfd8" stroke-width="2.12169"/>
        <path d="M68.34774,304.629a38.52277,38.52277,0,0,0-21.45729,10.04621,36.72457,36.72457,0,0,0-9.804,21.13695" fill="none" stroke="#c0cfd8" stroke-linecap="round" stroke-width="2.12169"/>
        <path d="M66.64668,313.91629a23.76194,23.76194,0,0,0-13.62695,6.337,24.302,24.302,0,0,0-6.3481,13.7532" fill="none" stroke="#c0cfd8" stroke-linecap="round" stroke-width="2.12169"/>
        <path d="M110.67576,414.89153A38.52274,38.52274,0,0,0,132.133,404.84527a36.72474,36.72474,0,0,0,9.804-21.1369" fill="none" stroke="#c0cfd8" stroke-linecap="round" stroke-width="2.12169"/>
        <path d="M112.37677,405.60424a23.76189,23.76189,0,0,0,13.627-6.33686,24.30173,24.30173,0,0,0,6.3481-13.75315" fill="none" stroke="#c0cfd8" stroke-linecap="round" stroke-width="2.12169"/>
      </g>
      <g>
        <ellipse cx="712.67058" cy="87.08995" rx="74.44537" ry="74.25926" fill="none" stroke="#c0cfd8" stroke-width="4.24339"/>
        <ellipse cx="712.67058" cy="87.08995" rx="34.74119" ry="34.65434" fill="none" stroke="#c0cfd8" stroke-width="2.12169"/>
        <ellipse cx="712.67058" cy="87.08995" rx="24.81511" ry="24.75307" fill="none" stroke="#c0cfd8" stroke-width="2.12169"/>
        <path d="M693.68888,28.8089A38.52282,38.52282,0,0,0,672.2316,38.85512a36.72457,36.72457,0,0,0-9.804,21.13694" fill="none" stroke="#c0cfd8" stroke-linecap="round" stroke-width="2.12169"/>
        <path d="M691.98783,38.09619a23.76194,23.76194,0,0,0-13.627,6.337,24.302,24.302,0,0,0-6.34811,13.7532" fill="none" stroke="#c0cfd8" stroke-linecap="round" stroke-width="2.12169"/>
        <path d="M736.01691,139.07143a38.52287,38.52287,0,0,0,21.45728-10.04626,36.72482,36.72482,0,0,0,9.804-21.1369" fill="none" stroke="#c0cfd8" stroke-linecap="round" stroke-width="2.12169"/>
        <path d="M737.71792,129.78414a23.76187,23.76187,0,0,0,13.62694-6.337A24.30171,24.30171,0,0,0,757.693,109.694" fill="none" stroke="#c0cfd8" stroke-linecap="round" stroke-width="2.12169"/>
      </g>
    </g>
    <g>
      <ellipse cx="398.93649" cy="223.93915" rx="109.54105" ry="109.2672" fill="#105c52"/>
      <g>
        <g>
          <path d="M395.19722,252.88155a27.29648,27.29648,0,0,0-54.59294,0,43.48216,43.48216,0,0,1-2.10706,17.407c-2.42645,5.11871-8.05022,7.4945-5.95022,9.82127,2.61069,2.8926,10.73489,4.75867,18.32934,4.75867a78.86487,78.86487,0,0,0,18.87084-1.95854,34.79332,34.79332,0,0,0,9.47549-3.78968A33.99176,33.99176,0,0,0,395.19722,252.88155Z" fill="#2cdb8f" fill-rule="evenodd"/>
          <path d="M393.40749,207.15456l22.39776,22.34177a8.47176,8.47176,0,0,1,0,12.00212l-1.33014,1.32678a7.48869,7.48869,0,0,1-11.7517-1.52253,64.56625,64.56625,0,0,0-10.1637-13.25468,51.39571,51.39571,0,0,0-11.0009-8.46729,7.02658,7.02658,0,0,1-1.51362-11.09939l1.3301-1.32678a8.52314,8.52314,0,0,1,12.0322,0Z" fill="#2cdd90" fill-rule="evenodd"/>
          <path d="M440.248,209.26327c20.19315-20.14268,30.58088-42.43861,23.20142-49.7994s-29.731,3.001-49.92421,23.14342-21.166,32.15214-13.78672,39.51306S420.05485,229.4059,440.248,209.26327Z" fill="#2cdd90" fill-rule="evenodd"/>
        </g>
        <path d="M340.622,255.2609a47.40309,47.40309,0,0,1-1.88172,11.82046,26.55489,26.55489,0,0,1-5.78322,10.13414,4.877,4.877,0,0,0-.87071,1.46872,1.674,1.674,0,0,0,.46063,1.42556,14.40729,14.40729,0,0,0,5.39771,2.98009,42.49347,42.49347,0,0,0,16.36922,1.77858c1.57586-.04337,3.60783-.06676,5.87808-.195a49.44621,49.44621,0,0,0,11.606-1.861,43.13235,43.13235,0,0,0,9.7218-5.13929q-16.44737-6.583-17.87795-7.56931c-3.24582-2.23784-10.05426-10.03561-12.69511-11.57172A38.52246,38.52246,0,0,0,340.622,255.2609Z" fill="#fff" fill-rule="evenodd"/>
      </g>
    </g>
  </g>
</svg>
