<svg xmlns="http://www.w3.org/2000/svg" width="800" height="450" viewBox="0 0 800 450">
  <g>
    <g>
      <rect width="800" height="450" fill="#f2f5f7" />
      <g>
        <line x1="400" y1="10" x2="400" y2="440" fill="none" stroke="#c0cfd8" stroke-linecap="round"
          stroke-miterlimit="10" stroke-width="2" />
        <line x1="320" y1="10" x2="320" y2="440" fill="none" stroke="#c0cfd8" stroke-linecap="round"
          stroke-miterlimit="10" stroke-width="2" />
        <line x1="240" y1="10" x2="240" y2="440" fill="none" stroke="#c0cfd8" stroke-linecap="round"
          stroke-miterlimit="10" stroke-width="2" />
        <line x1="160" y1="10" x2="160" y2="440" fill="none" stroke="#c0cfd8" stroke-linecap="round"
          stroke-miterlimit="10" stroke-width="2" />
        <line x1="80" y1="10" x2="80" y2="440" fill="none" stroke="#c0cfd8" stroke-linecap="round"
          stroke-miterlimit="10" stroke-width="2" />
        <line x1="720" y1="10" x2="720" y2="440" fill="none" stroke="#c0cfd8" stroke-linecap="round"
          stroke-miterlimit="10" stroke-width="2" />
        <line x1="640" y1="10" x2="640" y2="440" fill="none" stroke="#c0cfd8" stroke-linecap="round"
          stroke-miterlimit="10" stroke-width="2" />
        <line x1="560" y1="10" x2="560" y2="440" fill="none" stroke="#c0cfd8" stroke-linecap="round"
          stroke-miterlimit="10" stroke-width="2" />
        <line x1="480" y1="10" x2="480" y2="440" fill="none" stroke="#c0cfd8" stroke-linecap="round"
          stroke-miterlimit="10" stroke-width="2" />
        <line x1="10.18" y1="225" x2="790" y2="225" fill="none" stroke="#c0cfd8" stroke-linecap="round"
          stroke-miterlimit="10" stroke-width="2" />
        <line x1="10.18" y1="300" x2="790" y2="300" fill="none" stroke="#c0cfd8" stroke-linecap="round"
          stroke-miterlimit="10" stroke-width="2" />
        <line x1="10.18" y1="375" x2="790" y2="375" fill="none" stroke="#c0cfd8" stroke-linecap="round"
          stroke-miterlimit="10" stroke-width="2" />
        <line x1="10.18" y1="150" x2="790" y2="150" fill="none" stroke="#c0cfd8" stroke-linecap="round"
          stroke-miterlimit="10" stroke-width="2" />
        <line x1="10.18" y1="75" x2="790" y2="75" fill="none" stroke="#c0cfd8" stroke-linecap="round"
          stroke-miterlimit="10" stroke-width="2" />
      </g>
      <circle cx="400" cy="225" r="200" fill="none" stroke="#f2f5f7" stroke-linecap="round" stroke-miterlimit="10"
        stroke-width="18" />
      <circle cx="400" cy="225" r="200" fill="none" stroke="#c0cfd8" stroke-linecap="round" stroke-miterlimit="10"
        stroke-width="12" />
      <g>
        <circle cx="90" cy="90" r="70" fill="#f2f5f7" stroke="#f2f5f7" stroke-miterlimit="10" stroke-width="10" />
        <circle cx="90" cy="90" r="70" fill="none" stroke="#c0cfd8" stroke-miterlimit="10" stroke-width="4" />
        <circle cx="90" cy="90" r="32.67" transform="matrix(1, -0.05, 0.05, 1, -3.99, 4.17)" fill="none"
          stroke="#c0cfd8" stroke-miterlimit="10" stroke-width="2" />
        <circle cx="90" cy="90" r="23.33" fill="none" stroke="#c0cfd8" stroke-miterlimit="10" stroke-width="2" />
        <path d="M107.85,35.06q12.89,2.17,20.17,9.47t9.22,19.93" fill="none" stroke="#c0cfd8" stroke-linecap="round"
          stroke-miterlimit="10" stroke-width="2" />
        <path d="M109.45,43.82q8.14,1.27,12.81,6t6,13" fill="none" stroke="#c0cfd8" stroke-linecap="round"
          stroke-miterlimit="10" stroke-width="2" />
        <path d="M68.05,139q-12.88-2.17-20.18-9.47t-9.22-19.92" fill="none" stroke="#c0cfd8" stroke-linecap="round"
          stroke-miterlimit="10" stroke-width="2" />
        <path d="M66.45,130.25q-8.16-1.27-12.81-6t-6-13" fill="none" stroke="#c0cfd8" stroke-linecap="round"
          stroke-miterlimit="10" stroke-width="2" />
      </g>
      <g>
        <circle cx="710" cy="90" r="70" fill="#f2f5f7" stroke="#f2f5f7" stroke-miterlimit="10" stroke-width="10" />
        <circle cx="710" cy="90" r="70" fill="none" stroke="#c0cfd8" stroke-miterlimit="10" stroke-width="4" />
        <circle cx="710" cy="90" r="32.67" transform="translate(-3.35 32.27) rotate(-2.6)" fill="none" stroke="#c0cfd8"
          stroke-miterlimit="10" stroke-width="2" />
        <circle cx="710" cy="90" r="23.33" fill="none" stroke="#c0cfd8" stroke-miterlimit="10" stroke-width="2" />
        <path d="M727.85,35.06q12.89,2.17,20.17,9.47t9.22,19.93" fill="none" stroke="#c0cfd8" stroke-linecap="round"
          stroke-miterlimit="10" stroke-width="2" />
        <path d="M729.45,43.82q8.14,1.27,12.81,6t6,13" fill="none" stroke="#c0cfd8" stroke-linecap="round"
          stroke-miterlimit="10" stroke-width="2" />
        <path d="M688.05,139q-12.88-2.17-20.18-9.47t-9.22-19.92" fill="none" stroke="#c0cfd8" stroke-linecap="round"
          stroke-miterlimit="10" stroke-width="2" />
        <path d="M686.45,130.25q-8.16-1.27-12.81-6t-6-13" fill="none" stroke="#c0cfd8" stroke-linecap="round"
          stroke-miterlimit="10" stroke-width="2" />
      </g>
      <g>
        <circle cx="90" cy="360" r="70" fill="#f2f5f7" stroke="#f2f5f7" stroke-miterlimit="10" stroke-width="10" />
        <circle cx="90" cy="360" r="70" fill="none" stroke="#c0cfd8" stroke-miterlimit="10" stroke-width="4" />
        <circle cx="90" cy="360" r="32.67" transform="matrix(1, -0.05, 0.05, 1, -16.22, 4.45)" fill="none"
          stroke="#c0cfd8" stroke-miterlimit="10" stroke-width="2" />
        <circle cx="90" cy="360" r="23.33" fill="none" stroke="#c0cfd8" stroke-miterlimit="10" stroke-width="2" />
        <path d="M107.85,305.06q12.89,2.18,20.17,9.47t9.22,19.93" fill="none" stroke="#c0cfd8" stroke-linecap="round"
          stroke-miterlimit="10" stroke-width="2" />
        <path d="M109.45,313.82q8.14,1.28,12.81,6t6,13" fill="none" stroke="#c0cfd8" stroke-linecap="round"
          stroke-miterlimit="10" stroke-width="2" />
        <path d="M68.05,409q-12.88-2.17-20.18-9.47t-9.22-19.92" fill="none" stroke="#c0cfd8" stroke-linecap="round"
          stroke-miterlimit="10" stroke-width="2" />
        <path d="M66.45,400.25q-8.16-1.28-12.81-6t-6-13" fill="none" stroke="#c0cfd8" stroke-linecap="round"
          stroke-miterlimit="10" stroke-width="2" />
      </g>
      <g>
        <circle cx="710" cy="360" r="70" fill="#f2f5f7" stroke="#f2f5f7" stroke-miterlimit="10" stroke-width="10" />
        <circle cx="710" cy="360" r="70" fill="none" stroke="#c0cfd8" stroke-miterlimit="10" stroke-width="4" />
        <circle cx="710" cy="360" r="32.67" transform="translate(-15.58 32.54) rotate(-2.6)" fill="none"
          stroke="#c0cfd8" stroke-miterlimit="10" stroke-width="2" />
        <circle cx="710" cy="360" r="23.33" fill="none" stroke="#c0cfd8" stroke-miterlimit="10" stroke-width="2" />
        <path d="M727.85,305.06q12.89,2.18,20.17,9.47t9.22,19.93" fill="none" stroke="#c0cfd8" stroke-linecap="round"
          stroke-miterlimit="10" stroke-width="2" />
        <path d="M729.45,313.82q8.14,1.28,12.81,6t6,13" fill="none" stroke="#c0cfd8" stroke-linecap="round"
          stroke-miterlimit="10" stroke-width="2" />
        <path d="M688.05,409q-12.88-2.17-20.18-9.47t-9.22-19.92" fill="none" stroke="#c0cfd8" stroke-linecap="round"
          stroke-miterlimit="10" stroke-width="2" />
        <path d="M686.45,400.25q-8.16-1.28-12.81-6t-6-13" fill="none" stroke="#c0cfd8" stroke-linecap="round"
          stroke-miterlimit="10" stroke-width="2" />
      </g>
      <circle cx="400" cy="225" r="120" fill="#f2f5f7" stroke="#f2f5f7" stroke-miterlimit="10" stroke-width="16" />
      <g>
        <path
          d="M760.31,413.62A44.5,44.5,0,0,0,746.66,411a15.61,15.61,0,0,0-1-3.41c-6.09-15.06-26.09-23.91-46.23-19.35-13,3-22.65,10.73-26.34,20a40.11,40.11,0,0,0-20.23,5.72c-13.51,8.3-21.26,23.15-20.54,36.09h157C789.44,435.31,777.84,419.89,760.31,413.62Z"
          fill="#c0cfd8" />
        <path
          d="M800,354.48a47.42,47.42,0,0,0-26.31-8c-25,0-45.69,19.63-49.55,45.32h-.65c-29.43-.93-46.12,21.45-46.12,47.9A42.3,42.3,0,0,0,678.59,450H800Z"
          fill="#fff" fill-rule="evenodd" />
      </g>
    </g>
  </g>
  <g>
    <g>
      <circle cx="400" cy="225" r="120" fill="#215cca" />
      <g>
        <path
          d="M365,240.77a29,29,0,0,1-12.73-15.27,12.39,12.39,0,0,1,3.46-6.66c3.2-3.67,40.47-44.2,56.27-51.13a77.47,77.47,0,0,0-12.54-1.07c-46.66,0-51.13,33.33-51.13,33.33S320,208.64,320,234.5c0,37,45.6,38.8,45.6,38.8a100.35,100.35,0,0,0,14.4-.53,8.61,8.61,0,0,0,5.93-4.73c2.73-6.67,6.67-17.27,10.53-28.4C381.33,240.37,366.67,241.1,365,240.77Z"
          fill="#fff" />
        <path
          d="M480,226.64c0-32.73-32.07-36.27-32.07-36.27a40.67,40.67,0,0,0-14.27-14.66c-2.86,10.2-10.26,37.39-10.66,42.53h11.2s1.8,0,1.33,2.2c-1.07,5-3.87,17.2-9.87,17.6l-7.86.46c-2.2,9-4.54,18.4-6.2,25.2a31.3,31.3,0,0,0,20,6.07,30.62,30.62,0,0,0,22.33-8.2C480.93,257,480,226.64,480,226.64Z"
          fill="#fff" />
        <path
          d="M412.6,185.71A281.91,281.91,0,0,0,379.33,220L403.4,219c4.93-13.87,9.2-26.2,11.06-31.6A2,2,0,0,0,412.6,185.71Z"
          fill="#fff" />
      </g>
    </g>
  </g>
</svg>
