<svg xmlns="http://www.w3.org/2000/svg" width="800" height="450" viewBox="0 0 800 450">
  <g>
    <g>
      <rect width="800" height="450" fill="#f2f5f7" />
      <g>
        <line x1="400" y1="10" x2="400" y2="440" fill="none" stroke="#c0cfd8" stroke-linecap="round"
          stroke-miterlimit="10" stroke-width="2" />
        <line x1="320" y1="10" x2="320" y2="440" fill="none" stroke="#c0cfd8" stroke-linecap="round"
          stroke-miterlimit="10" stroke-width="2" />
        <line x1="240" y1="10" x2="240" y2="440" fill="none" stroke="#c0cfd8" stroke-linecap="round"
          stroke-miterlimit="10" stroke-width="2" />
        <line x1="160" y1="10" x2="160" y2="440" fill="none" stroke="#c0cfd8" stroke-linecap="round"
          stroke-miterlimit="10" stroke-width="2" />
        <line x1="80" y1="10" x2="80" y2="440" fill="none" stroke="#c0cfd8" stroke-linecap="round"
          stroke-miterlimit="10" stroke-width="2" />
        <line x1="720" y1="10" x2="720" y2="440" fill="none" stroke="#c0cfd8" stroke-linecap="round"
          stroke-miterlimit="10" stroke-width="2" />
        <line x1="640" y1="10" x2="640" y2="440" fill="none" stroke="#c0cfd8" stroke-linecap="round"
          stroke-miterlimit="10" stroke-width="2" />
        <line x1="560" y1="10" x2="560" y2="440" fill="none" stroke="#c0cfd8" stroke-linecap="round"
          stroke-miterlimit="10" stroke-width="2" />
        <line x1="480" y1="10" x2="480" y2="440" fill="none" stroke="#c0cfd8" stroke-linecap="round"
          stroke-miterlimit="10" stroke-width="2" />
        <line x1="10.18" y1="225" x2="790" y2="225" fill="none" stroke="#c0cfd8" stroke-linecap="round"
          stroke-miterlimit="10" stroke-width="2" />
        <line x1="10.18" y1="300" x2="790" y2="300" fill="none" stroke="#c0cfd8" stroke-linecap="round"
          stroke-miterlimit="10" stroke-width="2" />
        <line x1="10.18" y1="375" x2="790" y2="375" fill="none" stroke="#c0cfd8" stroke-linecap="round"
          stroke-miterlimit="10" stroke-width="2" />
        <line x1="10.18" y1="150" x2="790" y2="150" fill="none" stroke="#c0cfd8" stroke-linecap="round"
          stroke-miterlimit="10" stroke-width="2" />
        <line x1="10.18" y1="75" x2="790" y2="75" fill="none" stroke="#c0cfd8" stroke-linecap="round"
          stroke-miterlimit="10" stroke-width="2" />
      </g>
      <circle cx="400" cy="225" r="200" fill="none" stroke="#f2f5f7" stroke-linecap="round" stroke-miterlimit="10"
        stroke-width="18" />
      <circle cx="400" cy="225" r="200" fill="none" stroke="#c0cfd8" stroke-linecap="round" stroke-miterlimit="10"
        stroke-width="12" />
      <g>
        <circle cx="90" cy="90" r="70" fill="#f2f5f7" stroke="#f2f5f7" stroke-miterlimit="10" stroke-width="10" />
        <circle cx="90" cy="90" r="70" fill="none" stroke="#c0cfd8" stroke-miterlimit="10" stroke-width="4" />
        <circle cx="90" cy="90" r="32.67" transform="translate(-3.99 4.17) rotate(-2.6)" fill="none" stroke="#c0cfd8"
          stroke-miterlimit="10" stroke-width="2" />
        <circle cx="90" cy="90" r="23.33" fill="none" stroke="#c0cfd8" stroke-miterlimit="10" stroke-width="2" />
        <path d="M107.85,35.06q12.89,2.17,20.17,9.47t9.22,19.93" fill="none" stroke="#c0cfd8" stroke-linecap="round"
          stroke-miterlimit="10" stroke-width="2" />
        <path d="M109.45,43.82q8.14,1.27,12.81,6t6,13" fill="none" stroke="#c0cfd8" stroke-linecap="round"
          stroke-miterlimit="10" stroke-width="2" />
        <path d="M68.05,139q-12.88-2.17-20.18-9.47t-9.22-19.92" fill="none" stroke="#c0cfd8" stroke-linecap="round"
          stroke-miterlimit="10" stroke-width="2" />
        <path d="M66.45,130.25q-8.16-1.27-12.81-6t-6-13" fill="none" stroke="#c0cfd8" stroke-linecap="round"
          stroke-miterlimit="10" stroke-width="2" />
      </g>
      <g>
        <circle cx="710" cy="90" r="70" fill="#f2f5f7" stroke="#f2f5f7" stroke-miterlimit="10" stroke-width="10" />
        <circle cx="710" cy="90" r="70" fill="none" stroke="#c0cfd8" stroke-miterlimit="10" stroke-width="4" />
        <circle cx="710" cy="90" r="32.67" transform="translate(-3.35 32.27) rotate(-2.6)" fill="none" stroke="#c0cfd8"
          stroke-miterlimit="10" stroke-width="2" />
        <circle cx="710" cy="90" r="23.33" fill="none" stroke="#c0cfd8" stroke-miterlimit="10" stroke-width="2" />
        <path d="M727.85,35.06q12.89,2.17,20.17,9.47t9.22,19.93" fill="none" stroke="#c0cfd8" stroke-linecap="round"
          stroke-miterlimit="10" stroke-width="2" />
        <path d="M729.45,43.82q8.14,1.27,12.81,6t6,13" fill="none" stroke="#c0cfd8" stroke-linecap="round"
          stroke-miterlimit="10" stroke-width="2" />
        <path d="M688.05,139q-12.88-2.17-20.18-9.47t-9.22-19.92" fill="none" stroke="#c0cfd8" stroke-linecap="round"
          stroke-miterlimit="10" stroke-width="2" />
        <path d="M686.45,130.25q-8.16-1.27-12.81-6t-6-13" fill="none" stroke="#c0cfd8" stroke-linecap="round"
          stroke-miterlimit="10" stroke-width="2" />
      </g>
      <g>
        <circle cx="90" cy="360" r="70" fill="#f2f5f7" stroke="#f2f5f7" stroke-miterlimit="10" stroke-width="10" />
        <circle cx="90" cy="360" r="70" fill="none" stroke="#c0cfd8" stroke-miterlimit="10" stroke-width="4" />
        <circle cx="90" cy="360" r="32.67" transform="translate(-16.22 4.45) rotate(-2.6)" fill="none" stroke="#c0cfd8"
          stroke-miterlimit="10" stroke-width="2" />
        <circle cx="90" cy="360" r="23.33" fill="none" stroke="#c0cfd8" stroke-miterlimit="10" stroke-width="2" />
        <path d="M107.85,305.06q12.89,2.18,20.17,9.47t9.22,19.93" fill="none" stroke="#c0cfd8" stroke-linecap="round"
          stroke-miterlimit="10" stroke-width="2" />
        <path d="M109.45,313.82q8.14,1.28,12.81,6t6,13" fill="none" stroke="#c0cfd8" stroke-linecap="round"
          stroke-miterlimit="10" stroke-width="2" />
        <path d="M68.05,409q-12.88-2.17-20.18-9.47t-9.22-19.92" fill="none" stroke="#c0cfd8" stroke-linecap="round"
          stroke-miterlimit="10" stroke-width="2" />
        <path d="M66.45,400.25q-8.16-1.28-12.81-6t-6-13" fill="none" stroke="#c0cfd8" stroke-linecap="round"
          stroke-miterlimit="10" stroke-width="2" />
      </g>
      <g>
        <circle cx="710" cy="360" r="70" fill="#f2f5f7" stroke="#f2f5f7" stroke-miterlimit="10" stroke-width="10" />
        <circle cx="710" cy="360" r="70" fill="none" stroke="#c0cfd8" stroke-miterlimit="10" stroke-width="4" />
        <circle cx="710" cy="360" r="32.67" transform="translate(-15.58 32.54) rotate(-2.6)" fill="none"
          stroke="#c0cfd8" stroke-miterlimit="10" stroke-width="2" />
        <circle cx="710" cy="360" r="23.33" fill="none" stroke="#c0cfd8" stroke-miterlimit="10" stroke-width="2" />
        <path d="M727.85,305.06q12.89,2.18,20.17,9.47t9.22,19.93" fill="none" stroke="#c0cfd8" stroke-linecap="round"
          stroke-miterlimit="10" stroke-width="2" />
        <path d="M729.45,313.82q8.14,1.28,12.81,6t6,13" fill="none" stroke="#c0cfd8" stroke-linecap="round"
          stroke-miterlimit="10" stroke-width="2" />
        <path d="M688.05,409q-12.88-2.17-20.18-9.47t-9.22-19.92" fill="none" stroke="#c0cfd8" stroke-linecap="round"
          stroke-miterlimit="10" stroke-width="2" />
        <path d="M686.45,400.25q-8.16-1.28-12.81-6t-6-13" fill="none" stroke="#c0cfd8" stroke-linecap="round"
          stroke-miterlimit="10" stroke-width="2" />
      </g>
      <circle cx="400" cy="225" r="120" fill="#f2f5f7" stroke="#f2f5f7" stroke-miterlimit="10" stroke-width="16" />
      <g>
        <path
          d="M760.31,413.62A44.5,44.5,0,0,0,746.66,411a15.61,15.61,0,0,0-1-3.41c-6.09-15.06-26.09-23.91-46.23-19.35-13,3-22.65,10.73-26.34,20a40.11,40.11,0,0,0-20.23,5.72c-13.51,8.3-21.26,23.15-20.54,36.09h157C789.44,435.31,777.84,419.89,760.31,413.62Z"
          fill="#c0cfd8" />
        <path
          d="M800,354.48a47.42,47.42,0,0,0-26.31-8c-25,0-45.69,19.63-49.55,45.32h-.65c-29.43-.93-46.12,21.45-46.12,47.9A42.3,42.3,0,0,0,678.59,450H800Z"
          fill="#fff" fill-rule="evenodd" />
      </g>
    </g>
  </g>
  <g>
    <g>
      <circle cx="400" cy="225" r="120" fill="#f27041" />
      <g>
        <g>
          <line x1="387" y1="283" x2="413" y2="283" fill="none" stroke="#ffbb78" stroke-linecap="round"
            stroke-miterlimit="10" stroke-width="8" />
          <line x1="389" y1="295" x2="411" y2="295" fill="none" stroke="#ffbb78" stroke-linecap="round"
            stroke-miterlimit="10" stroke-width="8" />
        </g>
        <g>
          <path
            d="M400.1,151.28c-28.6,0-50.29,21.87-50.29,50.67,0,17.68,7.68,27.88,15.85,38.81,2.2,2.92,4.56,6,6.74,9.3.56.72,1.88,1.56,4.25,14.13,1.7,8.74,9.8,10.29,18.7,10.35h9.3c8.91,0,16.83-1.21,18.47-10,2.37-12.39,4.13-13.6,4.47-14.51,2.2-3.3,4.56-6.38,6.74-9.3,8.2-10.75,15.86-21.13,15.86-38.81C450.39,173.13,428.71,151.28,400.1,151.28Z"
            fill="#fff" fill-rule="evenodd" />
          <g>
            <line x1="394.69" y1="256.59" x2="385.31" y2="203.41" fill="none" stroke="#f27041" stroke-linecap="round"
              stroke-miterlimit="10" stroke-width="3" />
            <line x1="414.69" y1="203.41" x2="405.31" y2="256.59" fill="none" stroke="#f27041" stroke-linecap="round"
              stroke-miterlimit="10" stroke-width="3" />
            <path
              d="M384.2,192.29c4-1.18,5.76,6.44,9.35,5.81s2.69-8.4,6.77-8.64,4.09,7.59,7.72,7.8,4.54-7.56,8.58-6.86,2.25,8.33,5.77,9.38"
              fill="none" stroke="#f27041" stroke-linecap="round" stroke-miterlimit="10" stroke-width="3" />
          </g>
        </g>
      </g>
    </g>
  </g>
</svg>
