<svg xmlns="http://www.w3.org/2000/svg" width="800" height="450" viewBox="0 0 800 450">
  <g>
    <rect width="800" height="450" fill="#f2f5f7"/>
    <g>
      <line x1="400" y1="10" x2="400" y2="440" fill="none" stroke="#c0cfd8" stroke-linecap="round" stroke-miterlimit="10" stroke-width="2"/>
      <line x1="320" y1="10" x2="320" y2="440" fill="none" stroke="#c0cfd8" stroke-linecap="round" stroke-miterlimit="10" stroke-width="2"/>
      <line x1="240" y1="10" x2="240" y2="440" fill="none" stroke="#c0cfd8" stroke-linecap="round" stroke-miterlimit="10" stroke-width="2"/>
      <line x1="160" y1="10" x2="160" y2="440" fill="none" stroke="#c0cfd8" stroke-linecap="round" stroke-miterlimit="10" stroke-width="2"/>
      <line x1="80" y1="10" x2="80" y2="440" fill="none" stroke="#c0cfd8" stroke-linecap="round" stroke-miterlimit="10" stroke-width="2"/>
      <line x1="720" y1="10" x2="720" y2="440" fill="none" stroke="#c0cfd8" stroke-linecap="round" stroke-miterlimit="10" stroke-width="2"/>
      <line x1="640" y1="10" x2="640" y2="440" fill="none" stroke="#c0cfd8" stroke-linecap="round" stroke-miterlimit="10" stroke-width="2"/>
      <line x1="560" y1="10" x2="560" y2="440" fill="none" stroke="#c0cfd8" stroke-linecap="round" stroke-miterlimit="10" stroke-width="2"/>
      <line x1="480" y1="10" x2="480" y2="440" fill="none" stroke="#c0cfd8" stroke-linecap="round" stroke-miterlimit="10" stroke-width="2"/>
      <line x1="10.18273" y1="225" x2="790" y2="225" fill="none" stroke="#c0cfd8" stroke-linecap="round" stroke-miterlimit="10" stroke-width="2"/>
      <line x1="10.18273" y1="300" x2="790" y2="300" fill="none" stroke="#c0cfd8" stroke-linecap="round" stroke-miterlimit="10" stroke-width="2"/>
      <line x1="10.18273" y1="375" x2="790" y2="375" fill="none" stroke="#c0cfd8" stroke-linecap="round" stroke-miterlimit="10" stroke-width="2"/>
      <line x1="10.18273" y1="150" x2="790" y2="150" fill="none" stroke="#c0cfd8" stroke-linecap="round" stroke-miterlimit="10" stroke-width="2"/>
      <line x1="10.18273" y1="75" x2="790" y2="75" fill="none" stroke="#c0cfd8" stroke-linecap="round" stroke-miterlimit="10" stroke-width="2"/>
    </g>
    <circle cx="400" cy="225" r="200" fill="none" stroke="#f2f5f7" stroke-linecap="round" stroke-miterlimit="10" stroke-width="18"/>
    <circle cx="400" cy="225" r="200" fill="none" stroke="#c0cfd8" stroke-linecap="round" stroke-miterlimit="10" stroke-width="12"/>
    <g>
      <circle cx="90.00001" cy="89.99999" r="69.99999" fill="#f2f5f7" stroke="#f2f5f7" stroke-miterlimit="10" stroke-width="10"/>
      <circle cx="89.99999" cy="89.99999" r="69.99999" fill="none" stroke="#c0cfd8" stroke-miterlimit="10" stroke-width="4"/>
      <circle cx="89.99997" cy="89.99998" r="32.66665" transform="translate(-3.98585 4.17075) rotate(-2.59722)" fill="none" stroke="#c0cfd8" stroke-miterlimit="10" stroke-width="2"/>
      <circle cx="90" cy="90.00002" r="23.33334" fill="none" stroke="#c0cfd8" stroke-miterlimit="10" stroke-width="2"/>
      <path d="M107.84823,35.06177c8.58855,1.45126,15.31389,4.60794,20.17599,9.47003,4.8621,4.86212,7.93497,11.50363,9.2186,19.92459" fill="none" stroke="#c0cfd8" stroke-linecap="round" stroke-miterlimit="10" stroke-width="2"/>
      <path d="M109.44771,43.81634c5.43542,.84988,9.70651,2.84106,12.81325,5.97354,3.10674,3.13248,5.09643,7.45395,5.96904,12.96435" fill="none" stroke="#c0cfd8" stroke-linecap="round" stroke-miterlimit="10" stroke-width="2"/>
      <path d="M68.04775,138.99998c-8.58856-1.45123-15.31389-4.60791-20.176-9.47-4.86211-4.86212-7.93497-11.50363-9.2186-19.92459" fill="none" stroke="#c0cfd8" stroke-linecap="round" stroke-miterlimit="10" stroke-width="2"/>
      <path d="M66.44831,130.24538c-5.43543-.84985-9.70651-2.84103-12.81325-5.97351-3.10674-3.13248-5.09642-7.45395-5.96904-12.96435" fill="none" stroke="#c0cfd8" stroke-linecap="round" stroke-miterlimit="10" stroke-width="2"/>
    </g>
    <g>
      <circle cx="710.00001" cy="89.99999" r="69.99999" fill="#f2f5f7" stroke="#f2f5f7" stroke-miterlimit="10" stroke-width="10"/>
      <circle cx="709.99999" cy="89.99999" r="69.99999" fill="none" stroke="#c0cfd8" stroke-miterlimit="10" stroke-width="4"/>
      <circle cx="709.99997" cy="89.99998" r="32.66665" transform="translate(-3.34897 32.26571) rotate(-2.59722)" fill="none" stroke="#c0cfd8" stroke-miterlimit="10" stroke-width="2"/>
      <circle cx="710" cy="90.00002" r="23.33334" fill="none" stroke="#c0cfd8" stroke-miterlimit="10" stroke-width="2"/>
      <path d="M727.84823,35.06177c8.58855,1.45126,15.31389,4.60794,20.17599,9.47003,4.8621,4.86212,7.93497,11.50363,9.2186,19.92459" fill="none" stroke="#c0cfd8" stroke-linecap="round" stroke-miterlimit="10" stroke-width="2"/>
      <path d="M729.44771,43.81634c5.43542,.84988,9.70651,2.84106,12.81325,5.97354,3.10674,3.13248,5.09643,7.45395,5.96904,12.96435" fill="none" stroke="#c0cfd8" stroke-linecap="round" stroke-miterlimit="10" stroke-width="2"/>
      <path d="M688.04775,138.99998c-8.58856-1.45123-15.31389-4.60791-20.176-9.47-4.86211-4.86212-7.93497-11.50363-9.2186-19.92459" fill="none" stroke="#c0cfd8" stroke-linecap="round" stroke-miterlimit="10" stroke-width="2"/>
      <path d="M686.44831,130.24538c-5.43543-.84985-9.70651-2.84103-12.81325-5.97351-3.10674-3.13248-5.09642-7.45395-5.96904-12.96435" fill="none" stroke="#c0cfd8" stroke-linecap="round" stroke-miterlimit="10" stroke-width="2"/>
    </g>
    <g>
      <circle cx="90.00001" cy="360.00001" r="69.99999" fill="#f2f5f7" stroke="#f2f5f7" stroke-miterlimit="10" stroke-width="10"/>
      <circle cx="89.99999" cy="360.00001" r="69.99999" fill="none" stroke="#c0cfd8" stroke-miterlimit="10" stroke-width="4"/>
      <circle cx="89.99997" cy="360" r="32.66665" transform="translate(-16.22076 4.4481) rotate(-2.59722)" fill="none" stroke="#c0cfd8" stroke-miterlimit="10" stroke-width="2"/>
      <circle cx="90" cy="360.00004" r="23.33334" fill="none" stroke="#c0cfd8" stroke-miterlimit="10" stroke-width="2"/>
      <path d="M107.84823,305.06178c8.58855,1.45126,15.31389,4.60794,20.17599,9.47003,4.8621,4.86212,7.93497,11.50363,9.2186,19.92459" fill="none" stroke="#c0cfd8" stroke-linecap="round" stroke-miterlimit="10" stroke-width="2"/>
      <path d="M109.44771,313.81636c5.43542,.84988,9.70651,2.84106,12.81325,5.97354,3.10674,3.13248,5.09643,7.45395,5.96904,12.96435" fill="none" stroke="#c0cfd8" stroke-linecap="round" stroke-miterlimit="10" stroke-width="2"/>
      <path d="M68.04775,409c-8.58856-1.45123-15.31389-4.60791-20.176-9.47-4.86211-4.86212-7.93497-11.50363-9.2186-19.92459" fill="none" stroke="#c0cfd8" stroke-linecap="round" stroke-miterlimit="10" stroke-width="2"/>
      <path d="M66.44831,400.2454c-5.43543-.84985-9.70651-2.84103-12.81325-5.97351-3.10674-3.13248-5.09642-7.45395-5.96904-12.96435" fill="none" stroke="#c0cfd8" stroke-linecap="round" stroke-miterlimit="10" stroke-width="2"/>
    </g>
    <g>
      <circle cx="710.00001" cy="360.00001" r="69.99999" fill="#f2f5f7" stroke="#f2f5f7" stroke-miterlimit="10" stroke-width="10"/>
      <circle cx="709.99999" cy="360.00001" r="69.99999" fill="none" stroke="#c0cfd8" stroke-miterlimit="10" stroke-width="4"/>
      <circle cx="709.99997" cy="360" r="32.66665" transform="translate(-15.58387 32.54305) rotate(-2.59722)" fill="none" stroke="#c0cfd8" stroke-miterlimit="10" stroke-width="2"/>
      <circle cx="710" cy="360.00004" r="23.33334" fill="none" stroke="#c0cfd8" stroke-miterlimit="10" stroke-width="2"/>
      <path d="M727.84823,305.06178c8.58855,1.45126,15.31389,4.60794,20.17599,9.47003,4.8621,4.86212,7.93497,11.50363,9.2186,19.92459" fill="none" stroke="#c0cfd8" stroke-linecap="round" stroke-miterlimit="10" stroke-width="2"/>
      <path d="M729.44771,313.81636c5.43542,.84988,9.70651,2.84106,12.81325,5.97354,3.10674,3.13248,5.09643,7.45395,5.96904,12.96435" fill="none" stroke="#c0cfd8" stroke-linecap="round" stroke-miterlimit="10" stroke-width="2"/>
      <path d="M688.04775,409c-8.58856-1.45123-15.31389-4.60791-20.176-9.47-4.86211-4.86212-7.93497-11.50363-9.2186-19.92459" fill="none" stroke="#c0cfd8" stroke-linecap="round" stroke-miterlimit="10" stroke-width="2"/>
      <path d="M686.44831,400.2454c-5.43543-.84985-9.70651-2.84103-12.81325-5.97351-3.10674-3.13248-5.09642-7.45395-5.96904-12.96435" fill="none" stroke="#c0cfd8" stroke-linecap="round" stroke-miterlimit="10" stroke-width="2"/>
    </g>
    <circle cx="400" cy="225" r="120" fill="#f2f5f7" stroke="#f2f5f7" stroke-miterlimit="10" stroke-width="16"/>
    <g>
      <path d="M760.30669,413.62056c-4.38029-1.59313-8.98472-2.48628-13.64266-2.6467-.19739-1.17143-.52423-2.31715-.97348-3.41679-6.09376-15.06179-26.09433-23.9055-46.23448-19.34267-13.0365,2.95293-22.64719,10.72335-26.337,19.97629-6.92111,.08185-14.20993,2.01307-20.23398,5.71486-13.50795,8.3047-21.25824,23.15593-20.53877,36.09445h157.03988c.05246-14.69312-11.54279-30.10905-29.07952-36.37944Z" fill="#c0cfd8"/>
      <path d="M800,354.48109c-7.65135-5.07277-16.6566-8.01109-26.30801-8.01109-24.99069,.02124-45.69188,19.63069-49.54834,45.32185h-.64888c-29.43231-.92772-46.12827,21.44406-46.12827,47.90195,0,3.72446,.43232,7.15052,1.22166,10.3062h121.41185v-95.51891Z" fill="#fff" fill-rule="evenodd"/>
    </g>
  </g>
  <path d="M520.69675,224.5816c.27173,66.28218-53.24033,120.23481-119.52251,120.50654-66.28218,.27173-120.23481-53.24033-120.50654-119.52251-.27173-66.28218,53.24034-120.23481,119.52251-120.50654,66.28218-.27173,120.23481,53.24034,120.50654,119.52251Z" fill="#485968"/>
  <path d="M466.44623,242.60142l-11.35624-6.4716c1.38756-7.09061,1.3317-14.24446-.00139-21.09873l10.79539-6.11526c1.01506-.57469,1.44249-1.815,.99707-2.89238l-5.50226-13.32172c-.44544-1.07737-1.6239-1.65529-2.74928-1.34787l-11.96971,3.27227c-4.12437-6.14156-9.51307-11.49933-15.97821-15.65418l3.42136-12.37083c.31065-1.12307-.26496-2.30245-1.34232-2.74974l-13.3185-5.5318c-1.07737-.44775-2.31953-.024-2.89746,.98921l-6.62347,11.60227c-6.65855-1.13646-13.35219-1.02844-19.78364,.2151l-6.10325-10.7557c-.57562-1.01413-1.81685-1.44157-2.89515-.99659l-13.3328,5.4981c-1.0783,.44498-1.65668,1.62205-1.34879,2.74651l3.26073,11.90738c-5.82445,3.89682-10.95695,8.91808-15.0204,14.92208l-12.48069-3.44583c-1.12445-.31065-2.3043,.2645-2.75251,1.34095l-5.53641,13.30696c-.44821,1.07644-.02354,2.31768,.99013,2.8956l11.2473,6.40929c-1.3908,7.09985-1.33587,14.26293,0,21.12504l-10.71785,6.07187c-1.01459,.57469-1.44203,1.815-.99705,2.89238l5.50271,13.32171c.44498,1.07738,1.62344,1.65529,2.74882,1.34787l11.88339-3.24919c3.65862,5.4501,8.31338,10.28165,13.82994,14.20662l-3.56077,12.87444c-.31065,1.12399,.2645,2.3029,1.34187,2.7502l13.31895,5.53179c1.07737,.44775,2.31953,.02402,2.89746-.9892l6.36359-11.14806c7.52544,1.65299,15.14504,1.68806,22.42721,.26772l6.09356,10.73908c.57561,1.01413,1.81639,1.44158,2.89514,.99659l13.33281-5.49808c1.0783-.44499,1.65667-1.62252,1.34878-2.74697l-3.26581-11.92586c5.78936-3.88711,10.8928-8.88483,14.93779-14.85699l12.6007,3.47907c1.12492,.31019,2.30523-.2645,2.75252-1.34049l5.53686-13.30787c.44775-1.07645,.02354-2.31768-.99011-2.89515Zm-65.7639,16.25011c-18.67072,0-33.80607-15.12288-33.80607-33.77791s15.13534-33.77791,33.80607-33.77791,33.80607,15.12288,33.80607,33.77791-15.1358,33.77791-33.80607,33.77791Z" fill="#fff"/>
</svg>