<svg xmlns="http://www.w3.org/2000/svg" width="800" height="450" viewBox="0 0 800 450">
  <g>
    <g>
      <rect width="800" height="450" fill="#f2f5f7" />
      <g>
        <line x1="400" y1="10" x2="400" y2="440" fill="none" stroke="#c0cfd8" stroke-linecap="round"
          stroke-miterlimit="10" stroke-width="2" />
        <line x1="320" y1="10" x2="320" y2="440" fill="none" stroke="#c0cfd8" stroke-linecap="round"
          stroke-miterlimit="10" stroke-width="2" />
        <line x1="240" y1="10" x2="240" y2="440" fill="none" stroke="#c0cfd8" stroke-linecap="round"
          stroke-miterlimit="10" stroke-width="2" />
        <line x1="160" y1="10" x2="160" y2="440" fill="none" stroke="#c0cfd8" stroke-linecap="round"
          stroke-miterlimit="10" stroke-width="2" />
        <line x1="80" y1="10" x2="80" y2="440" fill="none" stroke="#c0cfd8" stroke-linecap="round"
          stroke-miterlimit="10" stroke-width="2" />
        <line x1="720" y1="10" x2="720" y2="440" fill="none" stroke="#c0cfd8" stroke-linecap="round"
          stroke-miterlimit="10" stroke-width="2" />
        <line x1="640" y1="10" x2="640" y2="440" fill="none" stroke="#c0cfd8" stroke-linecap="round"
          stroke-miterlimit="10" stroke-width="2" />
        <line x1="560" y1="10" x2="560" y2="440" fill="none" stroke="#c0cfd8" stroke-linecap="round"
          stroke-miterlimit="10" stroke-width="2" />
        <line x1="480" y1="10" x2="480" y2="440" fill="none" stroke="#c0cfd8" stroke-linecap="round"
          stroke-miterlimit="10" stroke-width="2" />
        <line x1="10.18" y1="225" x2="790" y2="225" fill="none" stroke="#c0cfd8" stroke-linecap="round"
          stroke-miterlimit="10" stroke-width="2" />
        <line x1="10.18" y1="300" x2="790" y2="300" fill="none" stroke="#c0cfd8" stroke-linecap="round"
          stroke-miterlimit="10" stroke-width="2" />
        <line x1="10.18" y1="375" x2="790" y2="375" fill="none" stroke="#c0cfd8" stroke-linecap="round"
          stroke-miterlimit="10" stroke-width="2" />
        <line x1="10.18" y1="150" x2="790" y2="150" fill="none" stroke="#c0cfd8" stroke-linecap="round"
          stroke-miterlimit="10" stroke-width="2" />
        <line x1="10.18" y1="75" x2="790" y2="75" fill="none" stroke="#c0cfd8" stroke-linecap="round"
          stroke-miterlimit="10" stroke-width="2" />
      </g>
      <circle cx="400" cy="225" r="200" fill="none" stroke="#f2f5f7" stroke-linecap="round" stroke-miterlimit="10"
        stroke-width="18" />
      <circle cx="400" cy="225" r="200" fill="none" stroke="#c0cfd8" stroke-linecap="round" stroke-miterlimit="10"
        stroke-width="12" />
      <g>
        <circle cx="90" cy="90" r="70" fill="#f2f5f7" stroke="#f2f5f7" stroke-miterlimit="10" stroke-width="10" />
        <circle cx="90" cy="90" r="70" fill="none" stroke="#c0cfd8" stroke-miterlimit="10" stroke-width="4" />
        <circle cx="90" cy="90" r="32.67" transform="translate(-3.99 4.17) rotate(-2.6)" fill="none" stroke="#c0cfd8"
          stroke-miterlimit="10" stroke-width="2" />
        <circle cx="90" cy="90" r="23.33" fill="none" stroke="#c0cfd8" stroke-miterlimit="10" stroke-width="2" />
        <path d="M107.85,35.06q12.89,2.17,20.17,9.47t9.22,19.93" fill="none" stroke="#c0cfd8" stroke-linecap="round"
          stroke-miterlimit="10" stroke-width="2" />
        <path d="M109.45,43.82q8.14,1.27,12.81,6t6,13" fill="none" stroke="#c0cfd8" stroke-linecap="round"
          stroke-miterlimit="10" stroke-width="2" />
        <path d="M68.05,139q-12.88-2.17-20.18-9.47t-9.22-19.92" fill="none" stroke="#c0cfd8" stroke-linecap="round"
          stroke-miterlimit="10" stroke-width="2" />
        <path d="M66.45,130.25q-8.16-1.27-12.81-6t-6-13" fill="none" stroke="#c0cfd8" stroke-linecap="round"
          stroke-miterlimit="10" stroke-width="2" />
      </g>
      <g>
        <circle cx="710" cy="90" r="70" fill="#f2f5f7" stroke="#f2f5f7" stroke-miterlimit="10" stroke-width="10" />
        <circle cx="710" cy="90" r="70" fill="none" stroke="#c0cfd8" stroke-miterlimit="10" stroke-width="4" />
        <circle cx="710" cy="90" r="32.67" transform="translate(-3.35 32.27) rotate(-2.6)" fill="none" stroke="#c0cfd8"
          stroke-miterlimit="10" stroke-width="2" />
        <circle cx="710" cy="90" r="23.33" fill="none" stroke="#c0cfd8" stroke-miterlimit="10" stroke-width="2" />
        <path d="M727.85,35.06q12.89,2.17,20.17,9.47t9.22,19.93" fill="none" stroke="#c0cfd8" stroke-linecap="round"
          stroke-miterlimit="10" stroke-width="2" />
        <path d="M729.45,43.82q8.14,1.27,12.81,6t6,13" fill="none" stroke="#c0cfd8" stroke-linecap="round"
          stroke-miterlimit="10" stroke-width="2" />
        <path d="M688.05,139q-12.88-2.17-20.18-9.47t-9.22-19.92" fill="none" stroke="#c0cfd8" stroke-linecap="round"
          stroke-miterlimit="10" stroke-width="2" />
        <path d="M686.45,130.25q-8.16-1.27-12.81-6t-6-13" fill="none" stroke="#c0cfd8" stroke-linecap="round"
          stroke-miterlimit="10" stroke-width="2" />
      </g>
      <g>
        <circle cx="90" cy="360" r="70" fill="#f2f5f7" stroke="#f2f5f7" stroke-miterlimit="10" stroke-width="10" />
        <circle cx="90" cy="360" r="70" fill="none" stroke="#c0cfd8" stroke-miterlimit="10" stroke-width="4" />
        <circle cx="90" cy="360" r="32.67" transform="translate(-16.22 4.45) rotate(-2.6)" fill="none" stroke="#c0cfd8"
          stroke-miterlimit="10" stroke-width="2" />
        <circle cx="90" cy="360" r="23.33" fill="none" stroke="#c0cfd8" stroke-miterlimit="10" stroke-width="2" />
        <path d="M107.85,305.06q12.89,2.18,20.17,9.47t9.22,19.93" fill="none" stroke="#c0cfd8" stroke-linecap="round"
          stroke-miterlimit="10" stroke-width="2" />
        <path d="M109.45,313.82q8.14,1.28,12.81,6t6,13" fill="none" stroke="#c0cfd8" stroke-linecap="round"
          stroke-miterlimit="10" stroke-width="2" />
        <path d="M68.05,409q-12.88-2.17-20.18-9.47t-9.22-19.92" fill="none" stroke="#c0cfd8" stroke-linecap="round"
          stroke-miterlimit="10" stroke-width="2" />
        <path d="M66.45,400.25q-8.16-1.28-12.81-6t-6-13" fill="none" stroke="#c0cfd8" stroke-linecap="round"
          stroke-miterlimit="10" stroke-width="2" />
      </g>
      <g>
        <circle cx="710" cy="360" r="70" fill="#f2f5f7" stroke="#f2f5f7" stroke-miterlimit="10" stroke-width="10" />
        <circle cx="710" cy="360" r="70" fill="none" stroke="#c0cfd8" stroke-miterlimit="10" stroke-width="4" />
        <circle cx="710" cy="360" r="32.67" transform="translate(-15.58 32.54) rotate(-2.6)" fill="none"
          stroke="#c0cfd8" stroke-miterlimit="10" stroke-width="2" />
        <circle cx="710" cy="360" r="23.33" fill="none" stroke="#c0cfd8" stroke-miterlimit="10" stroke-width="2" />
        <path d="M727.85,305.06q12.89,2.18,20.17,9.47t9.22,19.93" fill="none" stroke="#c0cfd8" stroke-linecap="round"
          stroke-miterlimit="10" stroke-width="2" />
        <path d="M729.45,313.82q8.14,1.28,12.81,6t6,13" fill="none" stroke="#c0cfd8" stroke-linecap="round"
          stroke-miterlimit="10" stroke-width="2" />
        <path d="M688.05,409q-12.88-2.17-20.18-9.47t-9.22-19.92" fill="none" stroke="#c0cfd8" stroke-linecap="round"
          stroke-miterlimit="10" stroke-width="2" />
        <path d="M686.45,400.25q-8.16-1.28-12.81-6t-6-13" fill="none" stroke="#c0cfd8" stroke-linecap="round"
          stroke-miterlimit="10" stroke-width="2" />
      </g>
      <circle cx="400" cy="225" r="120" fill="#f2f5f7" stroke="#f2f5f7" stroke-miterlimit="10" stroke-width="16" />
      <g>
        <path
          d="M760.31,413.62A44.5,44.5,0,0,0,746.66,411a15.61,15.61,0,0,0-1-3.41c-6.09-15.06-26.09-23.91-46.23-19.35-13,3-22.65,10.73-26.34,20a40.11,40.11,0,0,0-20.23,5.72c-13.51,8.3-21.26,23.15-20.54,36.09h157C789.44,435.31,777.84,419.89,760.31,413.62Z"
          fill="#c0cfd8" />
        <path
          d="M800,354.48a47.42,47.42,0,0,0-26.31-8c-25,0-45.69,19.63-49.55,45.32h-.65c-29.43-.93-46.12,21.45-46.12,47.9A42.3,42.3,0,0,0,678.59,450H800Z"
          fill="#fff" fill-rule="evenodd" />
      </g>
    </g>
  </g>
  <g>
    <g>
      <circle cx="400" cy="225" r="120" fill="#105c52" />
      <g>
        <path
          d="M396,256.32a29.47,29.47,0,0,0-58.93,0c0,3.92.54,12.89-2.27,18.84-2.62,5.54-8.69,8.11-6.43,10.63,2.82,3.13,11.59,5.15,19.79,5.15a85.31,85.31,0,0,0,20.37-2.12,37.72,37.72,0,0,0,10.23-4.1C389.82,278,396,265,396,256.32Z"
          fill="#2cdb8f" fill-rule="evenodd" />
        <path
          d="M469.64,155.23c-8-8-32.09,3.24-53.89,25-12.26,12.26-18,21.74-19.18,29.1L394,206.84a9.18,9.18,0,0,0-13,0l-1.43,1.43a7.6,7.6,0,0,0,1.63,12,55.54,55.54,0,0,1,11.88,9.17,69.8,69.8,0,0,1,11,14.34,7.81,7.81,0,0,0,1.27,1.65,8.07,8.07,0,0,0,11.41,0l1.44-1.44a9.18,9.18,0,0,0,0-13l-3.29-3.29c7.63-.95,17.41-6.34,29.67-18.6C466.39,187.32,477.61,163.19,469.64,155.23Z"
          fill="#2cdb8f" fill-rule="evenodd" />
        <path
          d="M337.05,258.9a51.46,51.46,0,0,1-2,12.79,28.68,28.68,0,0,1-6.24,11,5.2,5.2,0,0,0-.94,1.59,1.84,1.84,0,0,0,.49,1.55c1.35,1.61,4.54,2.73,5.83,3.22,6.12,2.33,12.81,2.06,17.67,1.93,1.7-.05,3.9-.08,6.35-.22a52.73,52.73,0,0,0,12.52-2q3.8-1.17,10.5-5.56Q363.44,276,361.9,275c-3.5-2.42-10.85-10.86-13.7-12.52Q345.05,260.59,337.05,258.9Z"
          fill="#fff" fill-rule="evenodd" />
      </g>
    </g>
  </g>
</svg>
