<svg width="800" height="450" viewBox="0 0 800 450" fill="none" xmlns="http://www.w3.org/2000/svg">
<path d="M800 0H0V450H800V0Z" fill="#F2F5F7"/>
<path d="M400 10V440" stroke="#C0CFD8" stroke-width="2" stroke-miterlimit="10" stroke-linecap="round"/>
<path d="M320 10V440" stroke="#C0CFD8" stroke-width="2" stroke-miterlimit="10" stroke-linecap="round"/>
<path d="M240 10V440" stroke="#C0CFD8" stroke-width="2" stroke-miterlimit="10" stroke-linecap="round"/>
<path d="M160 10V440" stroke="#C0CFD8" stroke-width="2" stroke-miterlimit="10" stroke-linecap="round"/>
<path d="M80 10V440" stroke="#C0CFD8" stroke-width="2" stroke-miterlimit="10" stroke-linecap="round"/>
<path d="M720 10V440" stroke="#C0CFD8" stroke-width="2" stroke-miterlimit="10" stroke-linecap="round"/>
<path d="M640 10V440" stroke="#C0CFD8" stroke-width="2" stroke-miterlimit="10" stroke-linecap="round"/>
<path d="M560 10V440" stroke="#C0CFD8" stroke-width="2" stroke-miterlimit="10" stroke-linecap="round"/>
<path d="M480 10V440" stroke="#C0CFD8" stroke-width="2" stroke-miterlimit="10" stroke-linecap="round"/>
<path d="M10.1827 225H790" stroke="#C0CFD8" stroke-width="2" stroke-miterlimit="10" stroke-linecap="round"/>
<path d="M10.1827 300H790" stroke="#C0CFD8" stroke-width="2" stroke-miterlimit="10" stroke-linecap="round"/>
<path d="M10.1827 375H790" stroke="#C0CFD8" stroke-width="2" stroke-miterlimit="10" stroke-linecap="round"/>
<path d="M10.1827 150H790" stroke="#C0CFD8" stroke-width="2" stroke-miterlimit="10" stroke-linecap="round"/>
<path d="M10.1827 75H790" stroke="#C0CFD8" stroke-width="2" stroke-miterlimit="10" stroke-linecap="round"/>
<path d="M400 425C510.457 425 600 335.457 600 225C600 114.543 510.457 25 400 25C289.543 25 200 114.543 200 225C200 335.457 289.543 425 400 425Z" stroke="#F2F5F7" stroke-width="18" stroke-miterlimit="10" stroke-linecap="round"/>
<path d="M400 425C510.457 425 600 335.457 600 225C600 114.543 510.457 25 400 25C289.543 25 200 114.543 200 225C200 335.457 289.543 425 400 425Z" stroke="#C0CFD8" stroke-width="12" stroke-miterlimit="10" stroke-linecap="round"/>
<path d="M90 160C128.66 160 160 128.66 160 90C160 51.3401 128.66 20 90 20C51.3401 20 20 51.3401 20 90C20 128.66 51.3401 160 90 160Z" fill="#F2F5F7" stroke="#F2F5F7" stroke-width="10" stroke-miterlimit="10"/>
<path d="M90 160C128.66 160 160 128.66 160 90C160 51.3401 128.66 20 90 20C51.3401 20 20 51.3401 20 90C20 128.66 51.3401 160 90 160Z" stroke="#C0CFD8" stroke-width="4" stroke-miterlimit="10"/>
<path d="M91.4803 122.633C109.503 121.816 123.451 106.542 122.633 88.5197C121.816 70.4969 106.542 56.5493 88.5197 57.3669C70.4969 58.1844 56.5494 73.4575 57.3669 91.4802C58.1844 109.503 73.4575 123.451 91.4803 122.633Z" stroke="#C0CFD8" stroke-width="2" stroke-miterlimit="10"/>
<path d="M90 113.333C102.887 113.333 113.333 102.887 113.333 90C113.333 77.1134 102.887 66.6667 90 66.6667C77.1134 66.6667 66.6667 77.1134 66.6667 90C66.6667 102.887 77.1134 113.333 90 113.333Z" stroke="#C0CFD8" stroke-width="2" stroke-miterlimit="10"/>
<path d="M107.848 35.0618C116.437 36.513 123.162 39.6697 128.024 44.5318C132.886 49.3939 135.959 56.0354 137.243 64.4564" stroke="#C0CFD8" stroke-width="2" stroke-miterlimit="10" stroke-linecap="round"/>
<path d="M109.448 43.8163C114.883 44.6662 119.154 46.6574 122.261 49.7899C125.368 52.9224 127.357 57.2438 128.23 62.7542" stroke="#C0CFD8" stroke-width="2" stroke-miterlimit="10" stroke-linecap="round"/>
<path d="M68.0478 139C59.4592 137.549 52.7339 134.392 47.8718 129.53C43.0096 124.668 39.9368 118.026 38.6532 109.605" stroke="#C0CFD8" stroke-width="2" stroke-miterlimit="10" stroke-linecap="round"/>
<path d="M66.4483 130.245C61.0129 129.396 56.7418 127.404 53.6351 124.272C50.5283 121.139 48.5386 116.818 47.666 111.308" stroke="#C0CFD8" stroke-width="2" stroke-miterlimit="10" stroke-linecap="round"/>
<path d="M710 160C748.66 160 780 128.66 780 90C780 51.3401 748.66 20 710 20C671.34 20 640 51.3401 640 90C640 128.66 671.34 160 710 160Z" fill="#F2F5F7" stroke="#F2F5F7" stroke-width="10" stroke-miterlimit="10"/>
<path d="M710 160C748.66 160 780 128.66 780 90C780 51.3401 748.66 20 710 20C671.34 20 640 51.3401 640 90C640 128.66 671.34 160 710 160Z" stroke="#C0CFD8" stroke-width="4" stroke-miterlimit="10"/>
<path d="M711.48 122.633C729.503 121.815 743.451 106.542 742.633 88.5197C741.816 70.4969 726.542 56.5493 708.52 57.3668C690.497 58.1844 676.549 73.4574 677.367 91.4802C678.184 109.503 693.458 123.451 711.48 122.633Z" stroke="#C0CFD8" stroke-width="2" stroke-miterlimit="10"/>
<path d="M710 113.333C722.887 113.333 733.333 102.887 733.333 90C733.333 77.1134 722.887 66.6667 710 66.6667C697.113 66.6667 686.667 77.1134 686.667 90C686.667 102.887 697.113 113.333 710 113.333Z" stroke="#C0CFD8" stroke-width="2" stroke-miterlimit="10"/>
<path d="M727.848 35.0618C736.437 36.513 743.162 39.6697 748.024 44.5318C752.886 49.3939 755.959 56.0354 757.243 64.4564" stroke="#C0CFD8" stroke-width="2" stroke-miterlimit="10" stroke-linecap="round"/>
<path d="M729.448 43.8163C734.883 44.6662 739.154 46.6574 742.261 49.7899C745.368 52.9224 747.357 57.2438 748.23 62.7542" stroke="#C0CFD8" stroke-width="2" stroke-miterlimit="10" stroke-linecap="round"/>
<path d="M688.048 139C679.459 137.549 672.734 134.392 667.872 129.53C663.01 124.668 659.937 118.026 658.653 109.605" stroke="#C0CFD8" stroke-width="2" stroke-miterlimit="10" stroke-linecap="round"/>
<path d="M686.448 130.245C681.013 129.396 676.742 127.404 673.635 124.272C670.528 121.139 668.539 116.818 667.666 111.308" stroke="#C0CFD8" stroke-width="2" stroke-miterlimit="10" stroke-linecap="round"/>
<path d="M90 430C128.66 430 160 398.66 160 360C160 321.34 128.66 290 90 290C51.3401 290 20 321.34 20 360C20 398.66 51.3401 430 90 430Z" fill="#F2F5F7" stroke="#F2F5F7" stroke-width="10" stroke-miterlimit="10"/>
<path d="M90 430C128.66 430 160 398.66 160 360C160 321.34 128.66 290 90 290C51.3401 290 20 321.34 20 360C20 398.66 51.3401 430 90 430Z" stroke="#C0CFD8" stroke-width="4" stroke-miterlimit="10"/>
<path d="M91.4803 392.633C109.503 391.816 123.451 376.542 122.633 358.52C121.816 340.497 106.542 326.549 88.5197 327.367C70.497 328.184 56.5494 343.458 57.3669 361.48C58.1844 379.503 73.4575 393.451 91.4803 392.633Z" stroke="#C0CFD8" stroke-width="2" stroke-miterlimit="10"/>
<path d="M90 383.333C102.887 383.333 113.333 372.887 113.333 360C113.333 347.113 102.887 336.667 90 336.667C77.1134 336.667 66.6667 347.113 66.6667 360C66.6667 372.887 77.1134 383.333 90 383.333Z" stroke="#C0CFD8" stroke-width="2" stroke-miterlimit="10"/>
<path d="M107.848 305.062C116.437 306.513 123.162 309.67 128.024 314.532C132.886 319.394 135.959 326.035 137.243 334.456" stroke="#C0CFD8" stroke-width="2" stroke-miterlimit="10" stroke-linecap="round"/>
<path d="M109.448 313.816C114.883 314.666 119.154 316.657 122.261 319.79C125.368 322.922 127.357 327.244 128.23 332.754" stroke="#C0CFD8" stroke-width="2" stroke-miterlimit="10" stroke-linecap="round"/>
<path d="M68.0478 409C59.4592 407.549 52.7339 404.392 47.8718 399.53C43.0096 394.668 39.9368 388.026 38.6532 379.605" stroke="#C0CFD8" stroke-width="2" stroke-miterlimit="10" stroke-linecap="round"/>
<path d="M66.4483 400.245C61.0129 399.396 56.7418 397.404 53.6351 394.272C50.5283 391.139 48.5386 386.818 47.666 381.307" stroke="#C0CFD8" stroke-width="2" stroke-miterlimit="10" stroke-linecap="round"/>
<path d="M710 430C748.66 430 780 398.66 780 360C780 321.34 748.66 290 710 290C671.34 290 640 321.34 640 360C640 398.66 671.34 430 710 430Z" fill="#F2F5F7" stroke="#F2F5F7" stroke-width="10" stroke-miterlimit="10"/>
<path d="M710 430C748.66 430 780 398.66 780 360C780 321.34 748.66 290 710 290C671.34 290 640 321.34 640 360C640 398.66 671.34 430 710 430Z" stroke="#C0CFD8" stroke-width="4" stroke-miterlimit="10"/>
<path d="M711.48 392.633C729.503 391.816 743.451 376.542 742.633 358.52C741.816 340.497 726.542 326.549 708.52 327.367C690.497 328.184 676.549 343.457 677.367 361.48C678.184 379.503 693.458 393.451 711.48 392.633Z" stroke="#C0CFD8" stroke-width="2" stroke-miterlimit="10"/>
<path d="M710 383.333C722.887 383.333 733.333 372.887 733.333 360C733.333 347.113 722.887 336.667 710 336.667C697.113 336.667 686.667 347.113 686.667 360C686.667 372.887 697.113 383.333 710 383.333Z" stroke="#C0CFD8" stroke-width="2" stroke-miterlimit="10"/>
<path d="M727.848 305.062C736.437 306.513 743.162 309.67 748.024 314.532C752.886 319.394 755.959 326.035 757.243 334.456" stroke="#C0CFD8" stroke-width="2" stroke-miterlimit="10" stroke-linecap="round"/>
<path d="M729.448 313.816C734.883 314.666 739.154 316.657 742.261 319.79C745.368 322.922 747.357 327.244 748.23 332.754" stroke="#C0CFD8" stroke-width="2" stroke-miterlimit="10" stroke-linecap="round"/>
<path d="M688.048 409C679.459 407.549 672.734 404.392 667.872 399.53C663.01 394.668 659.937 388.026 658.653 379.605" stroke="#C0CFD8" stroke-width="2" stroke-miterlimit="10" stroke-linecap="round"/>
<path d="M686.448 400.245C681.013 399.396 676.742 397.404 673.635 394.272C670.528 391.139 668.539 386.818 667.666 381.307" stroke="#C0CFD8" stroke-width="2" stroke-miterlimit="10" stroke-linecap="round"/>
<path d="M400 345C466.274 345 520 291.274 520 225C520 158.726 466.274 105 400 105C333.726 105 280 158.726 280 225C280 291.274 333.726 345 400 345Z" fill="#F2F5F7" stroke="#F2F5F7" stroke-width="16" stroke-miterlimit="10"/>
<path d="M760.307 413.621C755.926 412.027 751.322 411.134 746.664 410.974C746.467 409.802 746.14 408.657 745.691 407.557C739.597 392.495 719.596 383.652 699.456 388.214C686.42 391.167 676.809 398.938 673.119 408.191C666.198 408.273 658.909 410.204 652.885 413.906C639.377 422.21 631.627 437.061 632.346 450H789.386C789.439 435.307 777.843 419.891 760.307 413.621V413.621Z" fill="#C0CFD8"/>
<path fill-rule="evenodd" clip-rule="evenodd" d="M800 354.481C792.349 349.408 783.343 346.47 773.692 346.47C748.701 346.491 728 366.101 724.144 391.792H723.495C694.062 390.864 677.367 413.236 677.367 439.694C677.367 443.418 677.799 446.844 678.588 450H800V354.481V354.481Z" fill="white"/>
<path d="M519.225 224.699C519.225 290.806 465.634 344.397 399.526 344.397C333.419 344.397 279.828 290.806 279.828 224.699C279.828 158.591 333.419 105 399.526 105C465.634 105 519.225 158.591 519.225 224.699Z" fill="white"/>
<path d="M461.315 191.546H427.808C426.781 191.546 425.947 190.712 425.947 189.684V156.178C425.947 155.15 426.781 154.316 427.808 154.316H461.315C462.342 154.316 463.176 155.15 463.176 156.178V189.684C463.176 190.712 462.342 191.546 461.315 191.546Z" fill="#950CDE"/>
<path d="M480.165 293.977H446.658C445.631 293.977 444.797 293.143 444.797 292.115V258.609C444.797 257.581 445.631 256.747 446.658 256.747H480.165C481.193 256.747 482.027 257.581 482.027 258.609V292.115C482.027 293.143 481.193 293.977 480.165 293.977Z" fill="#158466"/>
<path d="M417.448 293.977H383.942C382.914 293.977 382.08 293.143 382.08 292.115V258.609C382.08 257.581 382.914 256.747 383.942 256.747H417.448C418.476 256.747 419.31 257.581 419.31 258.609V292.115C419.31 293.143 418.476 293.977 417.448 293.977Z" fill="#215CCA"/>
<path d="M421.755 208.339L402.011 228.083C401.285 228.809 400.106 228.809 399.378 228.083L379.636 208.339C378.908 207.611 378.908 206.432 379.636 205.706L399.378 185.962C400.106 185.236 401.285 185.236 402.011 185.962L421.755 205.706C422.483 206.432 422.483 207.611 421.755 208.339" fill="#F27041"/>
<path d="M353.534 207.022C353.534 196.228 344.783 187.477 333.988 187.477C323.193 187.477 314.443 196.228 314.443 207.022C314.443 217.817 323.193 226.568 333.988 226.568C344.783 226.568 353.534 217.817 353.534 207.022Z" fill="#D9118F"/>
<path d="M405.631 243.977L400.695 248.914L395.758 243.977" stroke="#738DA0" stroke-width="2.79222" stroke-miterlimit="10" stroke-linecap="round"/>
<path d="M400.695 247.503V234.81" stroke="#738DA0" stroke-width="2.79222" stroke-miterlimit="10" stroke-linecap="round"/>
<path d="M368.307 202.086L373.244 207.022L368.307 211.959" stroke="#738DA0" stroke-width="2.79222" stroke-miterlimit="10" stroke-linecap="round"/>
<path d="M371.833 207.022H359.14" stroke="#738DA0" stroke-width="2.79222" stroke-miterlimit="10" stroke-linecap="round"/>
<path d="M434.169 271.353L439.106 276.289L434.169 281.226" stroke="#738DA0" stroke-width="2.79222" stroke-miterlimit="10" stroke-linecap="round"/>
<path d="M437.695 276.289H425.002" stroke="#738DA0" stroke-width="2.79222" stroke-miterlimit="10" stroke-linecap="round"/>
<path d="M401.534 177.868C401.534 177.868 401.534 172.931 407.882 172.931H414.228" stroke="#738DA0" stroke-width="2.79222" stroke-miterlimit="10" stroke-linecap="round"/>
<path d="M410.97 167.994L415.907 172.931L410.97 177.868" stroke="#738DA0" stroke-width="2.79222" stroke-miterlimit="10" stroke-linecap="round"/>
</svg>
