<svg xmlns="http://www.w3.org/2000/svg" width="580" height="300" viewBox="0 0 580 300">
  <path
    d="m261.74,215.01c-8.91-3.24-18.27-5.04-27.74-5.36-.4-2.4-1.07-4.75-2-7-12.44-30.64-53.17-48.64-94.19-39.35-26.55,6.01-46.12,21.84-53.64,40.71-14.51.16-28.72,4.16-41.17,11.61-34.91,21.44-51,64.32-36.88,93.52,7.89,16.35,23.71,25.26,42.15,26v.05h3.73l195.69-.91c32,4.77,67.52-9.18,72.35-35.44,6.03-32.59-18.7-69.64-58.3-83.83Z"
    fill="#3d84f5" />
  <path
    d="m481.1,159.3c-6.43-.01-12.83.82-19.05,2.47-7.63-37.67-37.05-65.71-72.13-65.71-10.55.01-20.95,2.55-30.32,7.41-17.41-14.47-39.33-22.42-61.97-22.47-50.89,0-93,40-100.91,92.3h-1.32c-59.94-1.9-93.94,43.7-93.94,97.54s43.03,78.16,93.94,78.16h285.7c46.09,0,83.44-42.45,83.44-94.82s-37.35-94.88-83.44-94.88Z"
    fill="#8abfff" />
  <path
    d="m825.11,111.48c-10.75-21.84-26.29-41.49-46.68-56-39.15-27.88-92.52-34-139.09-24.51-37.34-37.92-102.09-37.43-154.55-12.1-47.79,23.07-81.01,64.41-84.79,111.33-18.17,3.19-35.76,9.11-52.15,17.57-72.4,38.23-105.61,114.74-76.43,166.81,16,28.61,47.92,44.46,85.21,46.24l-.14.18h452c79.88,0,144.64-56,144.64-125.17.02-64.26-55.94-117.21-128.02-124.35Z"
    fill="#fff" />
</svg>