<svg xmlns="http://www.w3.org/2000/svg" viewBox="0 0 146.75 87">
  <path d="M10.21,82.06A2.08,2.08,0,0,1,8.66,78.6L19.46,66.46a2.08,2.08,0,1,1,3.1,2.76L11.76,81.37A2.07,2.07,0,0,1,10.21,82.06Z" style="fill:#0f1c3f"/>
  <path d="M72.28,82.06a2.07,2.07,0,0,1-1.55-.7L59.92,69.23A2.08,2.08,0,1,1,63,66.46L73.83,78.6A2.08,2.08,0,0,1,72.28,82.06Z" style="fill:#0f1c3f"/>
  <path d="M6.9,22.32H75.59a0,0,0,0,1,0,0V65a4.29,4.29,0,0,1-4.29,4.29H11.19A4.3,4.3,0,0,1,6.9,65V22.32A0,0,0,0,1,6.9,22.32Z" style="fill:#dbe5ea"/>
  <path d="M76.16,24.08H5.51a2.08,2.08,0,1,1,0-4.16H76.16A2.08,2.08,0,0,1,76.16,24.08Z" style="fill:#0f1c3f"/>
  <path d="M46.89,21.08h-11a2.08,2.08,0,0,1,0-4.16h11A2.08,2.08,0,0,1,46.89,21.08Z" style="fill:#0f1c3f"/>
  <circle cx="112.54" cy="15.92" r="10.97" style="fill:#f26941"/>
  <path d="M129.15,82.76v-47a6,6,0,0,0-6-5.91h-27a5.11,5.11,0,0,0-3.66,1.55L78.94,44.9h0L61.5,34.07a5,5,0,0,0-7,1.83c-1.41,2.39-.28,5.35,2,6.89L80.35,57.7,96.1,41.94V82.76h33.05Z" style="fill:#f26941"/>
  <path d="M140.08,82a4.85,4.85,0,0,1-4.55-3.17l-15.19-41a4.85,4.85,0,1,1,9.1-3.37l15.19,41A4.85,4.85,0,0,1,140.08,82Z" style="fill:#f26941"/>
</svg>
