<svg xmlns="http://www.w3.org/2000/svg" viewBox="0 0 91 91.75">
  <path d="M27.14,42l43.52,2.55S70.81,62.09,70,69,69.24,86.3,69.24,86.3s-16.49,2.06-24.7,1.39S24.27,86.1,24.27,86.1Z" style="fill:#e1c62e"/>
  <path d="M63.13,53.63L58.56,77.26c-0.12.61-2.88,1.39-2.78,0.88l4.57-23.62c0.12-.61,2.88-1.39,2.78-0.88h0Z" style="fill:#f26941"/>
  <path d="M61.89,54.63a73.44,73.44,0,0,1-25.19.46c-1.44-.23.12-2.3,1.41-2.1a70.12,70.12,0,0,0,24-.38c1.83-.35,1.13,1.76-0.2,2h0Z" style="fill:#f26941"/>
  <path d="M55.85,78.75C49,77.61,42,78,35,78.51c-1.79.12-1.86-.86,0-1,7.52-.52,15.08-1,22.38.25,1.89,0.31-.54,1.13-1.49,1h0Z" style="fill:#f26941"/>
  <path d="M40.65,53.88a210.86,210.86,0,0,1-5,22.94c-0.33,1.19-3.14,1.49-2.74,0a206.12,206.12,0,0,0,4.86-22.41c0.18-1.15,3.05-1.92,2.84-.56h0Z" style="fill:#f26941"/>
  <path d="M63.29,55.53a284.83,284.83,0,0,1-26.39,21c-0.62.44-2.68-.43-3-0.2a284.83,284.83,0,0,0,26.39-21c0.49-.44,2.8.39,3,0.2h0Z" style="fill:#f26941"/>
  <path d="M55.23,77.66c-0.41-4.32-4.29-8.5-7-12.08a117.18,117.18,0,0,0-9.29-10.65c-0.29-.29,2.19-1.76,2.5-1.44a116.71,116.71,0,0,1,9.84,11.36c2.62,3.47,6.1,7.35,6.5,11.52,0,0.51-2.49,1.58-2.52,1.27h0Z" style="fill:#f26941"/>
  <path d="M12,55.88L2.48,13.66,47.09,4.75l8.36,41S42,49.86,31.76,52.1,12,55.88,12,55.88Z" style="fill:#f14ca3"/>
  <path d="M12.81,20.83c0,1.9-.69,5.15,1.73,5.78a2.56,2.56,0,0,0,2.11-.43c1-.6,2.27-2.64,3.39-2.87,0.51-.11-0.38-0.18.81,0.21,0.39,0.13.77,0.35,1.17,0.46a5.87,5.87,0,0,0,2.92,0,8.13,8.13,0,0,0,2.8-1.39c1-.73,5.41-5,6.15-1.41,0.15,0.75,1.67,1.4,2.17.92,1.07-1,1.94-.18,3-0.53s2.17-2.18,2.91-3c0.58-.66-1.56-1.82-2.08-1.23-1,1.19-1.79,2.53-3.36,2.64a3.25,3.25,0,0,0-2.54.91l2.17,0.92a4.53,4.53,0,0,0-3.2-3.36c-2.25-.72-4.09.46-5.73,1.73-1.19.92-2.6,2.41-4.22,2.44-1.23,0-2.17-.86-3.31-1a2.25,2.25,0,0,0-1.72.48c-0.56.38-3,3.38-3.6,3.14l1,0.89a20.7,20.7,0,0,1-.26-4.68c0-.81-2.28-1.61-2.25-0.6h0Z" style="fill:#a5375c"/>
  <path d="M14.67,32.89l0.4,2.58c0.15,1,1.65.65,2.06,0.32,1.39-1.09,1.8-2.88,4-2.91,1.13,0,2.53.92,3.65,1.29A6.37,6.37,0,0,0,30.08,34a17.69,17.69,0,0,0,2.61-2.29c1.63-1.41,3.23-1.43,5.33-.82A3.68,3.68,0,0,0,40.1,31c0.37-.1,1.94-1.29,2.09-1.23,0.89,0.36,2.73-.76,1.4-1.31a2.9,2.9,0,0,0-2.46,0c-0.41.17-.73,0.53-1.13,0.7a2.54,2.54,0,0,1-2.08-.1,7.53,7.53,0,0,0-6.45,1.22c-0.65.5-1.17,1.13-1.77,1.67a3.75,3.75,0,0,1-4.2.65,21.19,21.19,0,0,0-4.21-1.34,5.68,5.68,0,0,0-3.21.38c-1.41.68-1.61,2.31-2.78,3.23l2.06,0.32L17,32.61c-0.16-1.06-2.45-.81-2.29.27h0Z" style="fill:#a5375c"/>
  <path d="M18.22,40c0,1.9-.69,5.15,1.73,5.78a2.56,2.56,0,0,0,2.11-.43c1-.6,2.27-2.64,3.39-2.87,0.51-.11-0.38-0.18.81,0.21,0.39,0.13.77,0.35,1.17,0.46a5.87,5.87,0,0,0,2.92,0,8.13,8.13,0,0,0,2.8-1.39c1-.73,5.41-5,6.15-1.41,0.15,0.75,1.67,1.4,2.17.92,1.07-1,1.94-.18,3-0.53s2.17-2.18,2.91-3c0.58-.66-1.56-1.82-2.08-1.23-1,1.19-1.79,2.53-3.36,2.64a3.25,3.25,0,0,0-2.54.91L41.55,41a4.53,4.53,0,0,0-3.2-3.36c-2.25-.72-4.09.46-5.73,1.73-1.19.92-2.6,2.41-4.22,2.44-1.23,0-2.17-.86-3.31-1a2.25,2.25,0,0,0-1.72.48c-0.56.38-3,3.38-3.6,3.14l1,0.89a20.7,20.7,0,0,1-.26-4.68c0-.81-2.28-1.61-2.25-0.6h0Z" style="fill:#a5375c"/>
  <path d="M42.44,62.63l-4.82-43,45.32-4,3.8,41.72S73,59.95,62.5,61,42.44,62.63,42.44,62.63Z" style="fill:#7cbada"/>
  <path d="M47.1,27.89c-0.16,1.9-1.25,5,1.09,5.93a2.56,2.56,0,0,0,2.15-.19c1.08-.48,2.55-2.37,3.68-2.48,0.52,0-.36-0.22.78,0.3,0.38,0.17.73,0.44,1.11,0.59a5.87,5.87,0,0,0,2.9.36,8.13,8.13,0,0,0,2.94-1.07c1.11-.62,5.93-4.42,6.27-0.72,0.07,0.76,1.51,1.58,2.05,1.15,1.18-.92,1.95,0,3-0.19s2.39-1.93,3.22-2.68c0.65-.59-1.35-2-1.93-1.45-1.17,1.07-2.06,2.32-3.63,2.26a3.25,3.25,0,0,0-2.62.62l2.05,1.15a4.53,4.53,0,0,0-2.81-3.69c-2.16-1-4.12,0-5.89,1.09-1.28.78-2.85,2.11-4.46,2-1.23-.12-2.06-1.1-3.18-1.39a2.25,2.25,0,0,0-1.77.29c-0.6.31-3.4,3-3.92,2.73l0.86,1a20.7,20.7,0,0,1,.26-4.68c0.07-.81-2.09-1.85-2.17-0.85h0Z" style="fill:#456bd9"/>
  <path d="M47.63,40.07l0.11,2.61c0,1,1.56.83,2,.55,1.5-.93,2.11-2.66,4.31-2.46,1.13,0.11,2.42,1.19,3.49,1.69a6.37,6.37,0,0,0,5.27.42,17.69,17.69,0,0,0,2.84-2c1.78-1.22,3.37-1.06,5.39-.23A3.68,3.68,0,0,0,73.1,41c0.38-.06,2.07-1.07,2.21-1,0.84,0.46,2.79-.46,1.53-1.14a2.9,2.9,0,0,0-2.44-.31c-0.43.13-.78,0.44-1.2,0.57a2.54,2.54,0,0,1-2.06-.32,7.53,7.53,0,0,0-6.55.5c-0.7.42-1.28,1-1.95,1.47a3.75,3.75,0,0,1-4.24.18,21.19,21.19,0,0,0-4-1.79,5.68,5.68,0,0,0-3.24,0c-1.48.53-1.85,2.12-3.12,2.91l2,0.55-0.11-2.61c0-1.07-2.35-1.08-2.3,0h0Z" style="fill:#456bd9"/>
  <path d="M50.37,47.55c-0.16,1.9-1.25,5,1.09,5.93a2.56,2.56,0,0,0,2.15-.19c1.08-.48,2.55-2.37,3.68-2.48,0.52,0-.36-0.22.78,0.3,0.38,0.17.73,0.44,1.11,0.59a5.87,5.87,0,0,0,2.9.36A8.13,8.13,0,0,0,65,51c1.11-.62,5.93-4.42,6.27-0.72,0.07,0.76,1.51,1.58,2.05,1.15,1.18-.92,1.95,0,3-0.19s2.39-1.93,3.22-2.68c0.65-.59-1.35-2-1.93-1.45C76.49,48.14,75.6,49.4,74,49.34A3.25,3.25,0,0,0,71.4,50l2.05,1.15a4.53,4.53,0,0,0-2.81-3.69c-2.16-1-4.12,0-5.89,1.09-1.28.78-2.85,2.11-4.46,2-1.23-.12-2.06-1.1-3.18-1.39a2.25,2.25,0,0,0-1.77.29c-0.6.31-3.4,3-3.92,2.73l0.86,1a20.7,20.7,0,0,1,.26-4.68c0.07-.81-2.09-1.85-2.17-0.85h0Z" style="fill:#456bd9"/>
</svg>
