<svg xmlns="http://www.w3.org/2000/svg" width="176" height="42" viewBox="0 0 176 42">
  <g>
    <path d="M153.915,14.294a1.77789,1.77789,0,0,0,1.882-1.16l.962-10.868c0-1.074-1.258-1.957-2.842-1.957-1.58,0-2.837.883-2.837,1.957l.96,10.868a1.77449,1.77449,0,0,0,1.878,1.16Z" fill="#ffc00f"/>
    <path d="M148.041,17.69a1.77494,1.77494,0,0,0-.063-2.209l-8.933-6.265c-.928-.537-2.321.11-3.112,1.48-.793,1.369-.652,2.898.276,3.435l9.89,4.605a1.78776,1.78776,0,0,0,1.946-1.052Z" fill="#ffc00f"/>
    <path d="M159.793,17.684a1.78514,1.78514,0,0,0,1.945,1.052l9.892-4.605c.931-.537,1.065-2.066.278-3.435-.794-1.37-2.189-2.017-3.115-1.48l-8.933,6.265a1.78043,1.78043,0,0,0-.063,2.209Z" fill="#ffc00f"/>
    <path d="M153.915,27.869a1.77721,1.77721,0,0,1,1.882,1.157l.962,10.867c0,1.076-1.258,1.957-2.842,1.957-1.58,0-2.837-.881-2.837-1.957l.96-10.867a1.77269,1.77269,0,0,1,1.878-1.157Z" fill="#ffc00f"/>
    <path d="M159.793,24.475a1.77788,1.77788,0,0,1,1.945-1.048l9.892,4.6c.931.539,1.065,2.069.278,3.439-.794,1.366-2.189,2.015-3.115,1.479l-8.933-6.26a1.78574,1.78574,0,0,1-.063-2.212Z" fill="#ffc00f"/>
    <path d="M148.041,24.473a1.78022,1.78022,0,0,1-.063,2.212l-8.933,6.26c-.928.536-2.321-.113-3.112-1.479-.793-1.37-.652-2.901.276-3.439l9.89-4.6a1.77972,1.77972,0,0,1,1.947,1.048Z" fill="#ffc00f"/>
    <path d="M102.46,22.33c0-4.104-1.753-7.714-7.676-7.714a14.02928,14.02928,0,0,0-6.773,1.615l.965,3.298a9.92626,9.92626,0,0,1,4.938-1.388c3.005-.008,3.498,1.701,3.498,2.796v.259c-6.551-.01-10.691,2.257-10.691,6.879a5.45345,5.45345,0,0,0,5.774,5.466A6.55491,6.55491,0,0,0,97.763,31.2h.112s.748,3.13,4.873,1.933a26.43052,26.43052,0,0,1-.287-4.364V22.33Zm-4.891,4.334a3.20049,3.20049,0,0,1-3.425,3.295,2.23413,2.23413,0,0,1-2.431-2.395c0-2.488,2.739-3.175,5.856-3.159Z" fill="#0271dc"/>
    <path d="M.404,9.027s4.28,17.539,4.963,20.386c.797,3.323,2.234,4.545,6.376,3.721l2.673-10.875c.677-2.701,1.132-4.626,1.567-7.374h.076a72.20253,72.20253,0,0,0,1.299,7.384s1.088,4.936,1.645,7.529c.559,2.592,2.113,4.225,6.17,3.336L31.541,9.027H26.4L24.226,19.449c-.585,3.034-1.114,5.404-1.523,8.18H22.63c-.372-2.749-.844-5.024-1.439-7.98L18.927,9.027H13.57L11.149,19.381c-.686,3.146-1.328,5.687-1.736,8.368H9.34c-.418-2.525-.975-5.718-1.577-8.763,0,0-1.439-7.406-1.943-9.959Z" fill="#0271dc"/>
    <path d="M46.153,22.33c0-4.104-1.753-7.714-7.675-7.714a14.02282,14.02282,0,0,0-6.773,1.615l.963,3.298a9.93014,9.93014,0,0,1,4.939-1.388c3.007-.008,3.499,1.701,3.499,2.796v.259c-6.552-.01-10.691,2.257-10.691,6.879a5.452,5.452,0,0,0,5.771,5.466A6.56255,6.56255,0,0,0,41.457,31.2h.111s.749,3.13,4.872,1.933a26.43052,26.43052,0,0,1-.287-4.364Zm-4.89,4.334a3.20042,3.20042,0,0,1-3.424,3.295,2.23413,2.23413,0,0,1-2.431-2.395c0-2.488,2.738-3.175,5.856-3.159v2.259Z" fill="#0271dc"/>
    <polygon points="54.313 28.016 54.313 9.027 49.419 9.027 49.419 33.134 54.313 33.134 54.313 28.016" fill="#0271dc"/>
    <path d="M118.361,9.027V26.811c0,2.451.462,4.169,1.449,5.219a5.42394,5.42394,0,0,0,3.985,1.512,11.62979,11.62979,0,0,0,3.542-.525l-.063-3.825a7.436,7.436,0,0,1-1.859.221c-1.667,0-2.227-1.068-2.227-3.269V19.34h4.263V14.728h-4.263v-5.7h-4.827Z" fill="#0271dc"/>
    <path d="M105.724,15.024v18.11h5.05V23.861a6.90281,6.90281,0,0,1,.109-1.337,3.81162,3.81162,0,0,1,3.992-3.184,9.21675,9.21675,0,0,1,1.458.129V14.728a4.85482,4.85482,0,0,0-1.113-.112,5.33117,5.33117,0,0,0-4.928,3.824h-.137V15.024Z" fill="#0271dc"/>
    <path d="M57.742,15.024v18.11h4.921V22.513a4.24412,4.24412,0,0,1,.231-1.482,3.33151,3.33151,0,0,1,2.991-2.32c1.986,0,2.915,1.679,2.915,4.102V33.134h4.916V22.385a5.033,5.033,0,0,1,.205-1.468,3.1043,3.1043,0,0,1,2.953-2.206c2.013,0,2.979,1.649,2.979,4.5v9.923h4.919V22.468c0-5.625-2.856-7.852-6.08-7.852a6.55278,6.55278,0,0,0-3.574.984,7.62264,7.62264,0,0,0-2.294,2.256h-.072a5.1642,5.1642,0,0,0-4.991-3.239,5.69685,5.69685,0,0,0-5.274,2.869h-.073V15.025H57.742Z" fill="#0271dc"/>
    <path d="M174.154,31.616a1.26921,1.26921,0,1,1-.007,0Zm-.014.247a.98049.98049,0,0,0,.015,1.96.93642.93642,0,0,0,.935-.98.94688.94688,0,0,0-.943-.98Zm-.187,1.616h-.284v-1.22a2.40852,2.40852,0,0,1,.471-.045.70332.70332,0,0,1,.427.097.337.337,0,0,1,.12.262.316.316,0,0,1-.254.292v.015c.12.037.187.134.224.299a.81036.81036,0,0,0,.09.299h-.307a.98637.98637,0,0,1-.097-.292c-.022-.135-.097-.195-.254-.195h-.135v.488Zm.007-.688h.135c.157,0,.284-.053.284-.18,0-.112-.082-.187-.262-.187a.65.65,0,0,0-.157.015v.352Z" fill="#0271dc"/>
  </g>
</svg>
