<svg xmlns="http://www.w3.org/2000/svg" width="161" height="35" viewBox="0 0 161 35">
  <g>
    <polygon points="0.25 1.11 4.663 1.11 4.663 15.91 11.133 15.91 11.133 1.11 15.546 1.11 15.546 34.084 11.133 34.084 11.133 19.669 4.663 19.669 4.663 34.083 0.25 34.083 0.25 1.11" fill="#003595"/>
    <path d="M39.432,1.11H43.76V24.409a11.50617,11.50617,0,0,0,.636,4.741,2.69966,2.69966,0,0,0,2.588,1.174,2.73909,2.73909,0,0,0,2.546-1.026,9.322,9.322,0,0,0,.636-4.25V1.11h4.328V25.05q0,5.382-1.634,7.282-1.953,2.157-5.962,2.157-4.413,0-6.216-2.776-1.251-1.899-1.252-7.304V1.11Z" fill="#003595"/>
    <polygon points="57.572 1.11 71.934 1.11 71.934 4.996 66.991 4.996 66.991 34.082 62.663 34.082 62.663 4.996 57.572 4.996 57.572 1.11" fill="#003595"/>
    <polygon points="75.012 1.11 86.744 1.11 86.744 4.868 79.425 4.868 79.425 15.691 85.916 15.691 85.916 19.449 79.425 19.449 79.425 30.323 86.744 30.323 86.744 34.081 75.012 34.081 75.012 1.11" fill="#003595"/>
    <path d="M91.556,1.11h4.413V30.325h7.213v3.758H91.556Z" fill="#003595"/>
    <path d="M121.578,18.408q0,8.7345-1.93,12.408a6.72984,6.72984,0,0,1-6.47,3.673,6.89138,6.89138,0,0,1-6.725-3.95q-1.9305-3.8655-1.93-13.732,0-8.799,1.91-12.45Q108.3635.6835,112.967.683a6.9599,6.9599,0,0,1,6.11,2.841,13.51316,13.51316,0,0,1,1.91,5.403A56.95054,56.95054,0,0,1,121.578,18.408Zm-4.625.47q0-8.5635-.764-11.362-.765-2.8185-3.118-2.819a3.12956,3.12956,0,0,0-3.139,2.584q-.765,2.6055-.764,10.465,0,7.239.806,10.038.828,2.649,3.097,2.648a3.09943,3.09943,0,0,0,3.055-2.477Q116.9525,25.498,116.953,18.878Z" fill="#003595"/>
    <path d="M140.826,18.386q0,8.7345-1.93,12.408a6.72985,6.72985,0,0,1-6.47,3.673,6.89138,6.89138,0,0,1-6.725-3.95q-1.9305-3.8655-1.93-13.732,0-8.799,1.91-12.45Q127.6115.6615,132.215.661a6.95991,6.95991,0,0,1,6.11,2.841,13.51316,13.51316,0,0,1,1.91,5.403A56.97423,56.97423,0,0,1,140.826,18.386Zm-4.625.47q0-8.5635-.764-11.362-.765-2.8185-3.118-2.819a3.12957,3.12957,0,0,0-3.139,2.584q-.765,2.6055-.764,10.465,0,7.239.806,10.038.828,2.649,3.097,2.648a3.09942,3.09942,0,0,0,3.055-2.477Q136.20051,25.476,136.201,18.856Z" fill="#003595"/>
    <path d="M147.66,34.09h-4.185V.994h4.185Zm12.59,0h-4.184l-7.228-16.928L156.066.995h4.184l-7.228,16.167Z" fill="#003595"/>
    <path d="M28.479.511,18.577,34.083h3.994l1.756-6.277H32.28l1.608,6.277h3.787Zm-3.14,23.681,3.14-11.222,2.875,11.222Z" fill="#003595"/>
  </g>
</svg>
