<svg xmlns="http://www.w3.org/2000/svg" width="163" height="39" viewBox="0 0 163 39">
  <g>
    <g>
      <path d="M74.85,4.8c0-.1-.1-.1-.1-.2-.1-.1-.3,0-.5-.1a.21508.21508,0,0,1-.2-.2V1.4l.2-.2c1.1-.1,2.1,0,3.2,0a4.03351,4.03351,0,0,1,1.1,0,.76385.76385,0,0,1,.2.5V6.9c0,.5,0,.5.5.5h4.7c.2,0,.4,0,.5-.2.1-.1,0-.3,0-.4V1.4c0-.1.1-.1.2-.2,1-.1,2,0,3,0h1.3c.2.1.2.3.2.5V4a.76385.76385,0,0,1-.2.5c-.2.1-.3,0-.5.1-.2,0-.2.1-.2.3v9.8c0,.3.1.4.4.4.5,0,.6.1.6.6v2.2c0,.4-.2.5-.5.5h-3.8c-.2,0-.3,0-.3-.2v-7a.21508.21508,0,0,0-.2-.2c-.1-.1-.2,0-.3,0h-4.8c-.3.1-.2.3-.2.5v6.4c0,.5-.1.6-.6.6h-3.7c-.2,0-.3,0-.4-.2V15.5c0-.2.2-.2.4-.2s.4,0,.5-.2c.1-.1,0-.2,0-.3V5.4A1.4128,1.4128,0,0,1,74.85,4.8Z"/>
      <path d="M98.25,1.3l.2.2V14.4c0,.5.2.6.7.7a16.15208,16.15208,0,0,0,2.2,0h2.1c.5-.1.7-.3.7-1V2c0-.2-.1-.4.1-.5h4.3l.2.2a28.05208,28.05208,0,0,1,0,2.9l-.2.2c-.2.1-.3,0-.5.1-.1,0-.1.1-.1.2-.1.1,0,.3,0,.4V16.1a2.092,2.092,0,0,1-.4.6c-.5.5-1.1,1-1.6,1.6a1.2345,1.2345,0,0,1-.8.4h-7.7a.90783.90783,0,0,1-.7-.3c-.6-.6-1.2-1.2-1.7-1.8-.1-.2-.2-.3-.2-.5V5.7a.73473.73473,0,0,0-.2-.6c-.2-.1-.3,0-.5-.1-.2,0-.2-.2-.2-.3V2.1c0-.2,0-.3.2-.3A11.27958,11.27958,0,0,1,98.25,1.3Z"/>
      <path d="M34.75,15.1a.75812.75812,0,0,1,.2.4v2.2c0,.4-.2.5-.5.5H22.25c-.3,0-.5-.1-.5-.5V15.3c0-.3.1-.4.4-.4.4,0,.5-.1.5-.5V5.1c0-.2,0-.4-.2-.5s-.3,0-.5-.1c-.2,0-.2-.2-.2-.4V1.6c0-.2,0-.3.2-.4h12.1l.2.2V4.1l-.2.2h-7.4c-.2,0-.2.2-.2.3V7.2c0,.2,0,.3.2.4.1.1.3,0,.4,0h6.3c0,.1.1.1.1.2a4.05208,4.05208,0,0,1,0,1.1v1.7c-.1.2-.3.2-.5.2h-6c-.6,0-.6,0-.6.6v2.9c0,.2,0,.4.3.4.1.1.3,0,.4,0h7.2C34.45,15.1,34.55,15.1,34.75,15.1Z"/>
      <path d="M142.85,8l.2.2v2.7c-.1.3-.3.3-.6.3h-5.9c-.6,0-.6,0-.6.6v2.9c0,.2,0,.4.3.4.1.1.3,0,.4,0h7.7a.75817.75817,0,0,1,.2.4v2.2c0,.4-.1.5-.6.5h-12c-.5,0-.6,0-.6-.6V15.3c0-.3.1-.4.4-.4.4,0,.5-.2.5-.6V4.9c0-.2-.1-.3-.2-.5-.2-.1-.3,0-.5-.1-.2,0-.2-.1-.2-.3V1.3c0-.1,0-.2.2-.3h12.2a.758.758,0,0,1,.2.4V3.7a.7638.7638,0,0,1-.2.5h-7.5c-.2,0-.2.1-.2.3V7.1c0,.2,0,.3.2.4.1.1.3,0,.4,0h5.9C142.55,7.9,142.75,7.9,142.85,8Z"/>
      <path d="M43.45,7.3a.69874.69874,0,0,0,.8.6h5.4a.97479.97479,0,0,1,.9.4c.5.5,1,1.1,1.6,1.6a1.22153,1.22153,0,0,1,.4.9v4.6a1.27386,1.27386,0,0,1-.5,1.1l-1.6,1.6a.90783.90783,0,0,1-.7.3h-9.6a.26517.26517,0,0,1-.3-.3V15.4c0-.1,0-.2.1-.2h8.1c.4-.1.7-.3.7-.7V12.2a.89069.89069,0,0,0-.5-.8c-.1-.1-.3,0-.4,0h-5.5a.54993.54993,0,0,1-.5-.3c-.5-.6-1.1-1.1-1.6-1.6a1.26754,1.26754,0,0,1-.4-.9V4.2a1.1355,1.1355,0,0,1,.3-.8l1.2-1.2c.2-.2.3-.4.5-.6a.36737.36737,0,0,1,.3-.1h9.1l.2.2a28.05208,28.05208,0,0,1,0,2.9l-.2.2h-7.2a.47239.47239,0,0,0-.5.5A6.55955,6.55955,0,0,0,43.45,7.3Z"/>
      <path d="M161.95,15.9a21.83475,21.83475,0,0,1-2.1,2.2,1.42145,1.42145,0,0,1-.6.2h-9.4c-.5,0-.6,0-.6-.6V15.5a.60118.60118,0,0,1,.1-.4h8.1c.5-.1.7-.3.7-.8V12.1a.89067.89067,0,0,0-.5-.8c-.1-.1-.3,0-.4,0h-5.5c-.4,0-.5-.3-.7-.5a19.19778,19.19778,0,0,0-1.5-1.4,1.13554,1.13554,0,0,1-.3-.8V4.2a.90786.90786,0,0,1,.3-.7c.5-.5,1.1-1,1.6-1.6a.60469.60469,0,0,1,.6-.3h9.1c0,.1.1.1.1.2a4.05208,4.05208,0,0,1,0,1.1V4.6l-.2.2h-7.1a.4724.4724,0,0,0-.5.5,16.15369,16.15369,0,0,0,0,2.2c.1.4.3.5.8.5h5.3a1.28388,1.28388,0,0,1,1,.4l1.5,1.5c.1.1.2.3.3.4.1.2,0,.4,0,.6C161.95,12.6,162.05,14.2,161.95,15.9Z"/>
      <path d="M66.15,5.5a.21508.21508,0,0,1-.2-.2c-.1-.2,0-.3-.1-.5l-.1-.1a7.51875,7.51875,0,0,0-1.5,0h-2.7c-.4,0-.6.3-.6.7v9.1c0,.4.3.6.7.7a2.15208,2.15208,0,0,0,.8,0h3.3c.1-.1.2,0,.2-.2.1-.1,0-.3.1-.5,0-.2.1-.3.4-.3h2.4a.51954.51954,0,0,1,.4.2v3.8c-.1.2-.3.2-.5.2h-8.8a1.07214,1.07214,0,0,1-.6-.2l-1.8-1.8a.76385.76385,0,0,1-.2-.5V4a1.0122,1.0122,0,0,1,.4-.7l1.5-1.5a.60467.60467,0,0,1,.6-.3h9.3l.2.2V5.5c-.1.1-.2.1-.2.2A16.1682,16.1682,0,0,0,66.15,5.5Z"/>
      <path d="M113.45,5.5c-.2,0-.2-.2-.2-.4V1.6c0-.2.1-.3.2-.3h13.2a.75812.75812,0,0,1,.2.4V4.9a.76385.76385,0,0,1-.2.5h-2.8l-.2-.2c-.1-.2,0-.3-.1-.5l-.2-.2a2.845,2.845,0,0,0-1.3,0,.21508.21508,0,0,0-.2.2c-.1.1,0,.2,0,.3v9.6c0,.3.2.3.3.3.5,0,.6.1.6.6v2.1c0,.4-.1.5-.5.5h-4.7c-.3,0-.4-.1-.4-.4V15.3c0-.3.1-.5.4-.4.4,0,.5-.2.5-.5V4.9c0-.2-.1-.3-.2-.5h-1.3c-.2,0-.2.2-.2.4s0,.4-.2.5A11.84492,11.84492,0,0,1,113.45,5.5Z"/>
      <path d="M83.55,38.1c-.4-.1-.3-.5-.4-.8-.3-.9-.6-1.9-.9-2.9-.2-.8-.5-1.5-.7-2.3a1.77672,1.77672,0,0,0-.4,1c-.5,1.5-.9,3-1.4,4.6-.1.2-.1.3-.3.4h-1.7a2.35457,2.35457,0,0,1-.5-1.3c-.3-.9-.5-1.8-.8-2.7-.2-.9-.5-1.8-.7-2.7s-.5-1.7-.7-2.6c0-.2-.2-.4.1-.5h1.9a.87034.87034,0,0,1,.4.9c.4,1.6.7,3.1,1.1,4.7,0,.1,0,.3.1.3.2,0,.2-.2.2-.3.5-1.8,1.1-3.5,1.7-5.2.1-.2.2-.3.4-.3h1.1a.704.704,0,0,1,.4.5c.6,1.8,1.1,3.5,1.7,5.3,0,.1,0,.1.1.2a9.36276,9.36276,0,0,0,.4-1.6c.3-1.3.6-2.6.9-4,0-.2.1-.3.4-.4h1.8c.2.1.2.2.1.4-.6,2-1.1,4.1-1.7,6.1-.3,1-.5,1.9-.8,2.9a2.18589,2.18589,0,0,1-.3.5A3.19707,3.19707,0,0,0,83.55,38.1Z"/>
      <path d="M91.75,30.3c-.1-.2-.4-.1-.5-.4V28.5a.21508.21508,0,0,1,.2-.2h7c.1.1.2.1.3.2a8.55208,8.55208,0,0,1,0,1.6.74936.74936,0,0,1-.5.1h-3.6c-.5,0-.5,0-.5.5v1.1c0,.1,0,.3.2.3.2.1.4,0,.7,0h3l.2.2v1.4l-.2.2h-3.7a.26517.26517,0,0,0-.3.3v1.6c0,.2,0,.3.2.3a7.51875,7.51875,0,0,0,1.5,0h3.1l.2.2v1.4c-.1.1-.1.2-.2.2h-7.4c-.1,0-.1-.2-.2-.3V36.2c0-.3.4-.2.5-.4V30.3Z"/>
      <path d="M71.85,29.9c-.1.2-.3.2-.5.2h-3.6c-.2,0-.4-.1-.4.2a4.295,4.295,0,0,0,0,1.6.09794.09794,0,0,0,.1.1,6.53344,6.53344,0,0,0,1.4,0h2.4c.2.1.2.2.2.4v1c0,.2-.1.3-.1.4-.1.1-.3,0-.4,0h-3.4a.21508.21508,0,0,0-.2.2,12.03339,12.03339,0,0,0,0,1.9c0,.1.1.1.2.2s.3,0,.4,0h4.2a.51954.51954,0,0,1,.2.4v1.1c0,.1-.1.2-.1.3-.1.1-.2,0-.3,0h-7.2l-.1-.1V36.1c.2-.1.4-.1.5-.4.1-.1,0-.2,0-.3V30c-.1-.2-.4-.2-.5-.4V28a.21508.21508,0,0,1,.2-.2h6.9l.2.2A9.76468,9.76468,0,0,1,71.85,29.9Z"/>
      <path d="M118.75,37.8c-.1.1-.1.2-.2.2h-1.9c-.2-.1-.1-.3-.1-.4,0-1-.1-2,0-3a3.00773,3.00773,0,0,0-.8-2.2l-2.4-3.9c-.1-.1-.2-.3,0-.4h2.1a1.05729,1.05729,0,0,1,.6.7c.4.7.8,1.3,1.2,2,.2.2.3.3.5,0,.5-.8,1-1.5,1.4-2.3a.53585.53585,0,0,1,.4-.3h2.1c.2.1.1.2,0,.4-.9,1.5-1.9,2.9-2.8,4.4a1.49319,1.49319,0,0,0-.3.7,6.55208,6.55208,0,0,0,0,1.4A12.28733,12.28733,0,0,1,118.75,37.8Z"/>
      <path d="M16.95,5.3a1.22153,1.22153,0,0,0-.4-.9c-.8-.8-1.5-1.6-2.3-2.4-.3-.3-.5-.6-.9-.7H2.15l-.2.2V4.4a.21508.21508,0,0,0,.2.2c.2.1.3,0,.5.1.1,0,.1.1.1.2.1.1,0,.2,0,.3v9.7c0,.1-.1.2-.3.1-.2,0-.4,0-.4.2V18c0,.2.2.2.4.2h10.6a.90783.90783,0,0,0,.7-.3c1-1,1.9-2,2.9-3a.84375.84375,0,0,0,.2-.7C16.95,11.3,16.95,8.3,16.95,5.3ZM12.75,14c-1.2,1.2-.7,1.1-2.5,1.1H7.15c-.5,0-.5-.1-.5-.5V5.2c0-.5.1-.5.5-.5h4.1a1.1355,1.1355,0,0,1,.8.3c1.3,1.3,1.1.8,1.1,2.6v5.5A1.22153,1.22153,0,0,1,12.75,14Z"/>
      <path d="M48.25,34.1a4.29852,4.29852,0,0,0-.9-1c-.2-.2-.2-.4,0-.7a1.55511,1.55511,0,0,0,.6-.8V29.8a3.539,3.539,0,0,0-1.6-1.6h-6.5c-.2,0-.2.1-.2.3v1.4c0,.1,0,.2.2.3.3,0,.3.3.3.5v5.2a.51954.51954,0,0,1-.2.4c-.4.1-.3.4-.4.7v.9a.60123.60123,0,0,0,.1.4h7.1a6.1951,6.1951,0,0,0,1.4-1.4A13.57122,13.57122,0,0,0,48.25,34.1Zm-5.8-3.7c0-.3.1-.4.4-.4h2.2c.4,0,.5.1.6.5v1c0,.4-.1.6-.6.6h-2.2c-.3,0-.4-.1-.4-.4Zm3.5,5.3a.47239.47239,0,0,1-.5.5h-2.6c-.3,0-.5-.1-.5-.4V34.3c0-.3.1-.4.4-.4h2.5a.53033.53033,0,0,1,.6.6A4.86864,4.86864,0,0,1,45.95,35.7Z"/>
      <path d="M111.35,36.4l-.2-.2c-.2-.1-.4,0-.5-.1-.3,0-.4-.2-.5-.4-.2-.4-.4-.7-.6-1.1a.47109.47109,0,0,1,.1-.6,6.034,6.034,0,0,1,.8-.8,1.1355,1.1355,0,0,0,.3-.8V30a.73473.73473,0,0,0-.2-.6,4.35744,4.35744,0,0,0-1.4-1.3h-6.4c-.2,0-.2.1-.2.3v1.4c0,.1,0,.3.2.3.3,0,.3.2.3.5v5.2c0,.2-.1.4-.2.4-.4.1-.3.4-.3.6v.9a.60123.60123,0,0,0,.1.4h2.4l.2-.2a14.71875,14.71875,0,0,0,0-2.1V34.7a.21508.21508,0,0,1,.2-.2,2.05417,2.05417,0,0,1,1.1,0,.82146.82146,0,0,1,.5.5c.4.9.9,1.7,1.3,2.6a.99837.99837,0,0,0,.4.5h2.2l.2-.2A3.887,3.887,0,0,0,111.35,36.4Zm-2.8-4.3c0,.4-.1.5-.6.5h-2.2c-.3,0-.4-.1-.4-.4V30.5c0-.3.1-.4.4-.4h2.3c.4,0,.6.1.6.5A7.56868,7.56868,0,0,1,108.55,32.1Z"/>
      <path d="M60.75,36.7c0-.2,0-.3-.1-.4-.2-.1-.4,0-.6-.1-.2,0-.4-.1-.4-.3l-.6-1.2a.59247.59247,0,0,1,.1-.7,6.27845,6.27845,0,0,0,1.1-1.2V29.6a5.35633,5.35633,0,0,0-1.5-1.5h-6.4l-.2.2a7.51875,7.51875,0,0,0,0,1.5c0,.3.4.2.5.4v5.7c0,.3-.4.1-.5.4v1.5c0,.1.1.1.1.2a5.65208,5.65208,0,0,0,1.3,0,4.81875,4.81875,0,0,0,1.2,0,.74936.74936,0,0,0,.1-.5V34.8c0-.2,0-.4.3-.4a1.70417,1.70417,0,0,1,1,0,.66441.66441,0,0,1,.5.4c.5,1,1,1.9,1.4,2.9.1.1.1.3.3.3a17.65208,17.65208,0,0,0,2.3,0C60.95,37.6,60.75,37.1,60.75,36.7Zm-3.3-4.1h-2.2c-.3,0-.4-.1-.4-.4V30.5c0-.3.1-.4.4-.4h2.3a.53033.53033,0,0,1,.6.6v1.5A.71975.71975,0,0,1,57.45,32.6Z"/>
    </g>
    <g>
      <path d="M73.85,3.8c0-.1-.1-.1-.1-.2-.1-.1-.3,0-.5-.1a.21508.21508,0,0,1-.2-.2V.4l.2-.2c1.1-.1,2.1,0,3.2,0a4.03351,4.03351,0,0,1,1.1,0,.76385.76385,0,0,1,.2.5V5.9c0,.5,0,.5.5.5h4.7c.2,0,.4,0,.5-.2.1-.1,0-.3,0-.4V.4c0-.1.1-.1.2-.2,1-.1,2,0,3,0h1.3c.2.1.2.3.2.5V3a.76385.76385,0,0,1-.2.5c-.2.1-.3,0-.5.1-.2,0-.2.1-.2.3v9.8c0,.3.1.4.4.4.5,0,.6.1.6.6v2.2c0,.4-.2.5-.5.5h-3.8c-.2,0-.3,0-.3-.2v-7a.21508.21508,0,0,0-.2-.2c-.1-.1-.2,0-.3,0h-4.8c-.3.1-.2.3-.2.5v6.4c0,.5-.1.6-.6.6h-3.7c-.2,0-.3,0-.4-.2V14.5c0-.2.2-.2.4-.2s.4,0,.5-.2c.1-.1,0-.2,0-.3V4.4A1.4128,1.4128,0,0,1,73.85,3.8Z" fill="#d4000b"/>
      <path d="M97.25.3l.2.2V13.4c0,.5.2.6.7.7a16.15208,16.15208,0,0,0,2.2,0h2.1c.5-.1.7-.3.7-1V1c0-.2-.1-.4.1-.5h4.3l.2.2a28.05208,28.05208,0,0,1,0,2.9l-.2.2c-.2.1-.3,0-.5.1-.1,0-.1.1-.1.2-.1.1,0,.3,0,.4V15.1a2.092,2.092,0,0,1-.4.6c-.5.5-1.1,1-1.6,1.6a1.2345,1.2345,0,0,1-.8.4h-7.7a.90783.90783,0,0,1-.7-.3c-.6-.6-1.2-1.2-1.7-1.8-.1-.2-.2-.3-.2-.5V4.7a.73473.73473,0,0,0-.2-.6c-.2-.1-.3,0-.5-.1-.2,0-.2-.2-.2-.3V1.1c0-.2,0-.3.2-.3A11.27958,11.27958,0,0,1,97.25.3Z" fill="#d4000b"/>
      <path d="M33.75,14.1a.75812.75812,0,0,1,.2.4v2.2c0,.4-.2.5-.5.5H21.25c-.3,0-.5-.1-.5-.5V14.3c0-.3.1-.4.4-.4.4,0,.5-.1.5-.5V4.1c0-.2,0-.4-.2-.5s-.3,0-.5-.1c-.2,0-.2-.2-.2-.4V.6c0-.2,0-.3.2-.4h12.1l.2.2V3.1l-.2.2h-7.4c-.2,0-.2.2-.2.3V6.2c0,.2,0,.3.2.4.1.1.3,0,.4,0h6.3c0,.1.1.1.1.2a4.05208,4.05208,0,0,1,0,1.1V9.6c-.1.2-.3.2-.5.2h-6c-.6,0-.6,0-.6.6v2.9c0,.2,0,.4.3.4.1.1.3,0,.4,0h7.2C33.45,14.1,33.55,14.1,33.75,14.1Z" fill="#d4000b"/>
      <path d="M141.85,7l.2.2V9.9c-.1.3-.3.3-.6.3h-5.9c-.6,0-.6,0-.6.6v2.9c0,.2,0,.4.3.4.1.1.3,0,.4,0h7.7a.75817.75817,0,0,1,.2.4v2.2c0,.4-.1.5-.6.5h-12c-.5,0-.6,0-.6-.6V14.3c0-.3.1-.4.4-.4.4,0,.5-.2.5-.6V3.9c0-.2-.1-.3-.2-.5-.2-.1-.3,0-.5-.1-.2,0-.2-.1-.2-.3V.3c0-.1,0-.2.2-.3h12.2a.758.758,0,0,1,.2.4V2.7a.7638.7638,0,0,1-.2.5h-7.5c-.2,0-.2.1-.2.3V6.1c0,.2,0,.3.2.4.1.1.3,0,.4,0h5.9C141.55,6.9,141.75,6.9,141.85,7Z" fill="#d4000b"/>
      <path d="M42.45,6.3a.69874.69874,0,0,0,.8.6h5.4a.97479.97479,0,0,1,.9.4c.5.5,1,1.1,1.6,1.6a1.22153,1.22153,0,0,1,.4.9v4.6a1.27386,1.27386,0,0,1-.5,1.1l-1.6,1.6a.90783.90783,0,0,1-.7.3h-9.6a.26517.26517,0,0,1-.3-.3V14.4c0-.1,0-.2.1-.2h8.1c.4-.1.7-.3.7-.7V11.2a.89069.89069,0,0,0-.5-.8c-.1-.1-.3,0-.4,0h-5.5a.54993.54993,0,0,1-.5-.3c-.5-.6-1.1-1.1-1.6-1.6a1.26754,1.26754,0,0,1-.4-.9V3.2a1.1355,1.1355,0,0,1,.3-.8l1.2-1.2c.2-.2.3-.4.5-.6a.36737.36737,0,0,1,.3-.1h9.1l.2.2a28.05208,28.05208,0,0,1,0,2.9l-.2.2h-7.2a.47239.47239,0,0,0-.5.5A6.55955,6.55955,0,0,0,42.45,6.3Z" fill="#d4000b"/>
      <path d="M160.95,14.9a21.83475,21.83475,0,0,1-2.1,2.2,1.42145,1.42145,0,0,1-.6.2h-9.4c-.5,0-.6,0-.6-.6V14.5a.60118.60118,0,0,1,.1-.4h8.1c.5-.1.7-.3.7-.8V11.1a.89067.89067,0,0,0-.5-.8c-.1-.1-.3,0-.4,0h-5.5c-.4,0-.5-.3-.7-.5a19.19778,19.19778,0,0,0-1.5-1.4,1.13554,1.13554,0,0,1-.3-.8V3.2a.90786.90786,0,0,1,.3-.7c.5-.5,1.1-1,1.6-1.6a.60469.60469,0,0,1,.6-.3h9.1c0,.1.1.1.1.2a4.05208,4.05208,0,0,1,0,1.1V3.6l-.2.2h-7.1a.4724.4724,0,0,0-.5.5,16.15369,16.15369,0,0,0,0,2.2c.1.4.3.5.8.5h5.3a1.28388,1.28388,0,0,1,1,.4l1.5,1.5c.1.1.2.3.3.4.1.2,0,.4,0,.6C160.95,11.6,161.05,13.2,160.95,14.9Z" fill="#d4000b"/>
      <path d="M65.15,4.5a.21508.21508,0,0,1-.2-.2c-.1-.2,0-.3-.1-.5l-.1-.1a7.51875,7.51875,0,0,0-1.5,0h-2.7c-.4,0-.6.3-.6.7v9.1c0,.4.3.6.7.7a2.15208,2.15208,0,0,0,.8,0h3.3c.1-.1.2,0,.2-.2.1-.1,0-.3.1-.5,0-.2.1-.3.4-.3h2.4a.51954.51954,0,0,1,.4.2v3.8c-.1.2-.3.2-.5.2h-8.8a1.07214,1.07214,0,0,1-.6-.2l-1.8-1.8a.76385.76385,0,0,1-.2-.5V3a1.0122,1.0122,0,0,1,.4-.7L58.25.8a.60467.60467,0,0,1,.6-.3h9.3l.2.2V4.5c-.1.1-.2.1-.2.2A16.1682,16.1682,0,0,0,65.15,4.5Z" fill="#d4000b"/>
      <path d="M112.45,4.5c-.2,0-.2-.2-.2-.4V.6c0-.2.1-.3.2-.3h13.2a.75812.75812,0,0,1,.2.4V3.9a.76385.76385,0,0,1-.2.5h-2.8l-.2-.2c-.1-.2,0-.3-.1-.5l-.2-.2a2.845,2.845,0,0,0-1.3,0,.21508.21508,0,0,0-.2.2c-.1.1,0,.2,0,.3v9.6c0,.3.2.3.3.3.5,0,.6.1.6.6v2.1c0,.4-.1.5-.5.5h-4.7c-.3,0-.4-.1-.4-.4V14.3c0-.3.1-.5.4-.4.4,0,.5-.2.5-.5V3.9c0-.2-.1-.3-.2-.5h-1.3c-.2,0-.2.2-.2.4s0,.4-.2.5A11.84492,11.84492,0,0,1,112.45,4.5Z" fill="#d4000b"/>
      <path d="M82.55,37.1c-.4-.1-.3-.5-.4-.8-.3-.9-.6-1.9-.9-2.9-.2-.8-.5-1.5-.7-2.3a1.77672,1.77672,0,0,0-.4,1c-.5,1.5-.9,3-1.4,4.6-.1.2-.1.3-.3.4h-1.7a2.35457,2.35457,0,0,1-.5-1.3c-.3-.9-.5-1.8-.8-2.7-.2-.9-.5-1.8-.7-2.7s-.5-1.7-.7-2.6c0-.2-.2-.4.1-.5h1.9a.87034.87034,0,0,1,.4.9c.4,1.6.7,3.1,1.1,4.7,0,.1,0,.3.1.3.2,0,.2-.2.2-.3.5-1.8,1.1-3.5,1.7-5.2.1-.2.2-.3.4-.3h1.1a.704.704,0,0,1,.4.5c.6,1.8,1.1,3.5,1.7,5.3,0,.1,0,.1.1.2a9.36276,9.36276,0,0,0,.4-1.6c.3-1.3.6-2.6.9-4,0-.2.1-.3.4-.4h1.8c.2.1.2.2.1.4-.6,2-1.1,4.1-1.7,6.1-.3,1-.5,1.9-.8,2.9a2.18589,2.18589,0,0,1-.3.5A3.19707,3.19707,0,0,0,82.55,37.1Z" fill="#d4000b"/>
      <path d="M90.75,29.3c-.1-.2-.4-.1-.5-.4V27.5a.21508.21508,0,0,1,.2-.2h7c.1.1.2.1.3.2a8.55208,8.55208,0,0,1,0,1.6.74936.74936,0,0,1-.5.1h-3.6c-.5,0-.5,0-.5.5v1.1c0,.1,0,.3.2.3.2.1.4,0,.7,0h3l.2.2v1.4l-.2.2h-3.7a.26517.26517,0,0,0-.3.3v1.6c0,.2,0,.3.2.3a7.51875,7.51875,0,0,0,1.5,0h3.1l.2.2v1.4c-.1.1-.1.2-.2.2h-7.4c-.1,0-.1-.2-.2-.3V35.2c0-.3.4-.2.5-.4V29.3Z" fill="#d4000b"/>
      <path d="M70.85,28.9c-.1.2-.3.2-.5.2h-3.6c-.2,0-.4-.1-.4.2a4.295,4.295,0,0,0,0,1.6.09794.09794,0,0,0,.1.1,6.53344,6.53344,0,0,0,1.4,0h2.4c.2.1.2.2.2.4v1c0,.2-.1.3-.1.4-.1.1-.3,0-.4,0h-3.4a.21508.21508,0,0,0-.2.2,12.03339,12.03339,0,0,0,0,1.9c0,.1.1.1.2.2s.3,0,.4,0h4.2a.51954.51954,0,0,1,.2.4v1.1c0,.1-.1.2-.1.3-.1.1-.2,0-.3,0h-7.2l-.1-.1V35.1c.2-.1.4-.1.5-.4.1-.1,0-.2,0-.3V29c-.1-.2-.4-.2-.5-.4V27a.21508.21508,0,0,1,.2-.2h6.9l.2.2A9.76468,9.76468,0,0,1,70.85,28.9Z" fill="#d4000b"/>
      <path d="M117.75,36.8c-.1.1-.1.2-.2.2h-1.9c-.2-.1-.1-.3-.1-.4,0-1-.1-2,0-3a3.00773,3.00773,0,0,0-.8-2.2l-2.4-3.9c-.1-.1-.2-.3,0-.4h2.1a1.05729,1.05729,0,0,1,.6.7c.4.7.8,1.3,1.2,2,.2.2.3.3.5,0,.5-.8,1-1.5,1.4-2.3a.53585.53585,0,0,1,.4-.3h2.1c.2.1.1.2,0,.4-.9,1.5-1.9,2.9-2.8,4.4a1.49319,1.49319,0,0,0-.3.7,6.55208,6.55208,0,0,0,0,1.4A12.28733,12.28733,0,0,1,117.75,36.8Z" fill="#d4000b"/>
      <path d="M15.95,4.3a1.22153,1.22153,0,0,0-.4-.9c-.8-.8-1.5-1.6-2.3-2.4-.3-.3-.5-.6-.9-.7H1.15L.95.5V3.4a.21508.21508,0,0,0,.2.2c.2.1.3,0,.5.1.1,0,.1.1.1.2.1.1,0,.2,0,.3v9.7c0,.1-.1.2-.3.1-.2,0-.4,0-.4.2V17c0,.2.2.2.4.2h10.6a.90783.90783,0,0,0,.7-.3c1-1,1.9-2,2.9-3a.84375.84375,0,0,0,.2-.7C15.95,10.3,15.95,7.3,15.95,4.3ZM11.75,13c-1.2,1.2-.7,1.1-2.5,1.1H6.15c-.5,0-.5-.1-.5-.5V4.2c0-.5.1-.5.5-.5h4.1a1.1355,1.1355,0,0,1,.8.3c1.3,1.3,1.1.8,1.1,2.6v5.5A1.22153,1.22153,0,0,1,11.75,13Z" fill="#d4000b"/>
      <path d="M47.25,33.1a4.29852,4.29852,0,0,0-.9-1c-.2-.2-.2-.4,0-.7a1.55511,1.55511,0,0,0,.6-.8V28.8a3.539,3.539,0,0,0-1.6-1.6h-6.5c-.2,0-.2.1-.2.3v1.4c0,.1,0,.2.2.3.3,0,.3.3.3.5v5.2a.51954.51954,0,0,1-.2.4c-.4.1-.3.4-.4.7v.9a.60123.60123,0,0,0,.1.4h7.1a6.1951,6.1951,0,0,0,1.4-1.4A13.57122,13.57122,0,0,0,47.25,33.1Zm-5.8-3.7c0-.3.1-.4.4-.4h2.2c.4,0,.5.1.6.5v1c0,.4-.1.6-.6.6h-2.2c-.3,0-.4-.1-.4-.4Zm3.5,5.3a.47239.47239,0,0,1-.5.5h-2.6c-.3,0-.5-.1-.5-.4V33.3c0-.3.1-.4.4-.4h2.5a.53033.53033,0,0,1,.6.6A4.86864,4.86864,0,0,1,44.95,34.7Z" fill="#d4000b"/>
      <path d="M110.35,35.4l-.2-.2c-.2-.1-.4,0-.5-.1-.3,0-.4-.2-.5-.4-.2-.4-.4-.7-.6-1.1a.47109.47109,0,0,1,.1-.6,6.034,6.034,0,0,1,.8-.8,1.1355,1.1355,0,0,0,.3-.8V29a.73473.73473,0,0,0-.2-.6,4.35744,4.35744,0,0,0-1.4-1.3h-6.4c-.2,0-.2.1-.2.3v1.4c0,.1,0,.3.2.3.3,0,.3.2.3.5v5.2c0,.2-.1.4-.2.4-.4.1-.3.4-.3.6v.9a.60123.60123,0,0,0,.1.4h2.4l.2-.2a14.71875,14.71875,0,0,0,0-2.1V33.7a.21508.21508,0,0,1,.2-.2,2.05417,2.05417,0,0,1,1.1,0,.82146.82146,0,0,1,.5.5c.4.9.9,1.7,1.3,2.6a.99837.99837,0,0,0,.4.5h2.2l.2-.2A3.887,3.887,0,0,0,110.35,35.4Zm-2.8-4.3c0,.4-.1.5-.6.5h-2.2c-.3,0-.4-.1-.4-.4V29.5c0-.3.1-.4.4-.4h2.3c.4,0,.6.1.6.5A7.56868,7.56868,0,0,1,107.55,31.1Z" fill="#d4000b"/>
      <path d="M59.75,35.7c0-.2,0-.3-.1-.4-.2-.1-.4,0-.6-.1-.2,0-.4-.1-.4-.3l-.6-1.2a.59247.59247,0,0,1,.1-.7,6.27845,6.27845,0,0,0,1.1-1.2V28.6a5.35633,5.35633,0,0,0-1.5-1.5h-6.4l-.2.2a7.51875,7.51875,0,0,0,0,1.5c0,.3.4.2.5.4v5.7c0,.3-.4.1-.5.4v1.5c0,.1.1.1.1.2a5.65208,5.65208,0,0,0,1.3,0,4.81875,4.81875,0,0,0,1.2,0,.74936.74936,0,0,0,.1-.5V33.8c0-.2,0-.4.3-.4a1.70417,1.70417,0,0,1,1,0,.66441.66441,0,0,1,.5.4c.5,1,1,1.9,1.4,2.9.1.1.1.3.3.3a17.65208,17.65208,0,0,0,2.3,0C59.95,36.6,59.75,36.1,59.75,35.7Zm-3.3-4.1h-2.2c-.3,0-.4-.1-.4-.4V29.5c0-.3.1-.4.4-.4h2.3a.53033.53033,0,0,1,.6.6v1.5A.71975.71975,0,0,1,56.45,31.6Z" fill="#d4000b"/>
    </g>
  </g>
</svg>
