<svg xmlns="http://www.w3.org/2000/svg" width="201" height="34" viewBox="0 0 201 34">
  <g>
    <path d="M29.82,14.909a4.16227,4.16227,0,0,0-5.402,1.157l-.84.57c-.058-.429-.136-.877-.241-1.346,0,0-.904-5.742-8.639-15.233,0,0,1.126,3.964-.589,10.931a9.51914,9.51914,0,0,0-.296,1.49A51.59278,51.59278,0,0,0,.5,9.563s3.599,2.007,7.313,8.146a13.69145,13.69145,0,0,0,6.136,5.465l-9.808,6.66L1.642,33.737l11.617-6.063c14.71-1.03,15.374-6.52,15.374-6.52l.891-4.464,3.745-.899Z" fill="#05709c"/>
    <path d="M48.516,24.377a3.281,3.281,0,0,1-1.472,1.758,2.86227,2.86227,0,0,1-1.477.367,2.72718,2.72718,0,0,1-1.445-.367,2.80154,2.80154,0,0,1-.992-.813,2.75,2.75,0,0,1-.615-1.37,19.54256,19.54256,0,0,1-.173-3.241,20.0014,20.0014,0,0,1,.173-3.263A2.72826,2.72826,0,0,1,43.13,16.1a3.02462,3.02462,0,0,1,.992-.835,3.21267,3.21267,0,0,1,1.445-.345,3.38191,3.38191,0,0,1,1.477.345,2.87067,2.87067,0,0,1,.949.835,2.78816,2.78816,0,0,1,.587,1.162h2.485c-.012-.122-.024-.235-.038-.33a3.79932,3.79932,0,0,0-.548-1.545,5.38886,5.38886,0,0,0-4.906-2.911,5.281,5.281,0,0,0-3.088.908,5.50909,5.50909,0,0,0-1.829,1.993,4.58522,4.58522,0,0,0-.527,1.548,27.97989,27.97989,0,0,0-.161,3.786,28.106,28.106,0,0,0,.161,3.756,4.6758,4.6758,0,0,0,.215.867c.093.222.197.456.312.7a5.641,5.641,0,0,0,4.917,2.911,5.4757,5.4757,0,0,0,3.12-.933,5.22108,5.22108,0,0,0,1.786-1.978,3.84,3.84,0,0,0,.549-1.567c.004-.027.007-.061.011-.09Z" fill="#676868"/>
    <path d="M104.755,12.296h2.281v2.35h-2.281Zm0,4.748h2.281V28.778h-2.281Z" fill="#676868"/>
    <path d="M97.798,18.852H96.646V17.044h1.152V15.495a3.11968,3.11968,0,0,1,.897-2.464,3.30515,3.30515,0,0,1,2.2-.735h1.477v2.215h-1.305q-1.0335-.0345-.987.977v1.556h2.293v1.808H100.08v9.926H97.799V18.852Z" fill="#676868"/>
    <path d="M55.286,23.757a2.79437,2.79437,0,0,0,.795,2.147,2.58145,2.58145,0,0,0,1.93.741,3.36781,3.36781,0,0,0,2.484-1.149l1.658,1.454a5.28561,5.28561,0,0,1-4.089,1.909,5.71077,5.71077,0,0,1-1.752-.267,4.17675,4.17675,0,0,1-.833-.393,4.02495,4.02495,0,0,1-.801-.529,4.66492,4.66492,0,0,1-1.176-1.828,7.43517,7.43517,0,0,1-.501-2.938,8.4116,8.4116,0,0,1,.419-2.895,5.06175,5.06175,0,0,1,1.089-1.857,4.05824,4.05824,0,0,1,1.519-.999,4.75656,4.75656,0,0,1,1.641-.31,4.64876,4.64876,0,0,1,3.298,1.314,4.89474,4.89474,0,0,1,1.4,3.637l.005,1.942Zm4.801-1.955a3.0583,3.0583,0,0,0-.719-2.077,2.46506,2.46506,0,0,0-3.38.009,3.21734,3.21734,0,0,0-.708,2.081Z" fill="#676868"/>
    <path d="M70.634,27.651H70.59a1.91729,1.91729,0,0,1-.983.884,4.54735,4.54735,0,0,1-1.816.299,4.06629,4.06629,0,0,1-2.936-1.032,3.296,3.296,0,0,1-1.09-2.54,3.38443,3.38443,0,0,1,.934-2.455,3.68786,3.68786,0,0,1,2.755-1.025l3.163-.009-.003-1.238q.018-1.5555-2.336-1.505a3.99132,3.99132,0,0,0-1.346.186,1.66332,1.66332,0,0,0-.808.729l-1.799-1.41a4.37319,4.37319,0,0,1,3.835-1.719,5.94235,5.94235,0,0,1,3.426.827,3.46106,3.46106,0,0,1,1.31,3.026l.022,8.015-2.281.006Zm-.011-3.936-2.742.008q-1.9965.051-1.97,1.42a1.27081,1.27081,0,0,0,.518,1.017,2.34987,2.34987,0,0,0,1.635.459,3.89817,3.89817,0,0,0,2.028-.356q.537-.375.533-1.698Z" fill="#676868"/>
    <path d="M76.156,25.092a4.68474,4.68474,0,0,0,3.605,1.495,2.97821,2.97821,0,0,0,1.613-.4,1.24321,1.24321,0,0,0,.623-1.11.98129.98129,0,0,0-.375-.881,1.91577,1.91577,0,0,0-1.021-.28l-2.019-.175a3.7895,3.7895,0,0,1-2.34-.988,3.06261,3.06261,0,0,1-.95-2.338,3.21813,3.21813,0,0,1,1.231-2.717,4.8007,4.8007,0,0,1,3-.913,8.87411,8.87411,0,0,1,1.414.098,6.86213,6.86213,0,0,1,1.174.313,6.66314,6.66314,0,0,1,1.888,1.181l-1.411,1.71a7.02091,7.02091,0,0,0-1.395-.807,4.54478,4.54478,0,0,0-1.669-.281,2.2195,2.2195,0,0,0-1.502.4,1.29677,1.29677,0,0,0-.447,1.02.80357.80357,0,0,0,.342.69,1.94049,1.94049,0,0,0,1.164.416l1.887.142a3.48587,3.48587,0,0,1,2.571,1.102,3.83484,3.83484,0,0,1,.742,2.409,3.0837,3.0837,0,0,1-1.34,2.641,5.71357,5.71357,0,0,1-3.36.983,7.10676,7.10676,0,0,1-5.011-2.088Z" fill="#676868"/>
    <path d="M88.076,23.667a2.798,2.798,0,0,0,.795,2.147,2.58145,2.58145,0,0,0,1.93.741,3.36781,3.36781,0,0,0,2.484-1.149l1.658,1.454a5.2851,5.2851,0,0,1-4.088,1.909,5.71077,5.71077,0,0,1-1.752-.267,4.20292,4.20292,0,0,1-.833-.393,3.9897,3.9897,0,0,1-.8-.529,4.66492,4.66492,0,0,1-1.176-1.828,7.43665,7.43665,0,0,1-.50005-2.938,8.4116,8.4116,0,0,1,.419-2.895,5.06175,5.06175,0,0,1,1.089-1.857,4.05824,4.05824,0,0,1,1.519-.999,4.75656,4.75656,0,0,1,1.641-.31,4.64876,4.64876,0,0,1,3.298,1.314,4.8986,4.8986,0,0,1,1.4,3.637l.005,1.942Zm4.802-1.955a3.06324,3.06324,0,0,0-.719-2.077,2.46506,2.46506,0,0,0-3.38.009,3.21734,3.21734,0,0,0-.708,2.081Z" fill="#676868"/>
    <path d="M109.419,16.965H111.7v1.244h.048a3.74029,3.74029,0,0,1,5.345-.489l-1.666,2.039a2.3526,2.3526,0,0,0-1.502-.589,2.111,2.111,0,0,0-1.502.589,2.34126,2.34126,0,0,0-.724,1.868v7.074h-2.281V16.965Z" fill="#676868"/>
    <path d="M119.645,23.724a2.79415,2.79415,0,0,0,.789,2.149,2.58167,2.58167,0,0,0,1.928.747,3.363,3.363,0,0,0,2.487-1.143l1.654,1.459a5.285,5.285,0,0,1-4.094,1.898,5.74967,5.74967,0,0,1-1.752-.271,4.18343,4.18343,0,0,1-.832-.396,3.99275,3.99275,0,0,1-.799-.531,4.65981,4.65981,0,0,1-1.171-1.831,7.43513,7.43513,0,0,1-.492-2.939,8.41267,8.41267,0,0,1,.427-2.894,5.05821,5.05821,0,0,1,1.094-1.854,4.0578,4.0578,0,0,1,1.522-.995,4.75326,4.75326,0,0,1,1.642-.305,4.642,4.642,0,0,1,3.294,1.323,4.89917,4.89917,0,0,1,1.39,3.641v1.942Zm4.807-1.942a3.06106,3.06106,0,0,0-.713-2.079,2.46642,2.46642,0,0,0-3.38,0,3.21382,3.21382,0,0,0-.713,2.079Z" fill="#676868"/>
    <path d="M135.553,20.712a27.97933,27.97933,0,0,1,.161-3.786,4.585,4.585,0,0,1,.527-1.548,5.517,5.517,0,0,1,1.829-1.993,5.28814,5.28814,0,0,1,3.088-.908,5.38886,5.38886,0,0,1,4.906,2.911,3.79961,3.79961,0,0,1,.548,1.545,32.2311,32.2311,0,0,1,.14,3.778,32.29574,32.29574,0,0,1-.14,3.756,3.81124,3.81124,0,0,1-.549,1.567,5.22087,5.22087,0,0,1-1.786,1.978,5.46807,5.46807,0,0,1-3.12.933,5.64092,5.64092,0,0,1-4.917-2.911c-.115-.244-.219-.478-.312-.7a4.65625,4.65625,0,0,1-.215-.867A28.309,28.309,0,0,1,135.553,20.712Zm2.376,0a19.54942,19.54942,0,0,0,.173,3.241,2.73272,2.73272,0,0,0,.615,1.37,2.80154,2.80154,0,0,0,.992.813,2.72472,2.72472,0,0,0,1.445.367,2.86226,2.86226,0,0,0,1.477-.367,2.65842,2.65842,0,0,0,.949-.813,2.8902,2.8902,0,0,0,.636-1.37,20.80892,20.80892,0,0,0,.162-3.241,21.29763,21.29763,0,0,0-.162-3.263,3.39666,3.39666,0,0,0-1.585-2.183,3.3819,3.3819,0,0,0-1.477-.345,3.216,3.216,0,0,0-1.445.345,3.02462,3.02462,0,0,0-.992.835,2.72865,2.72865,0,0,0-.615,1.348A19.99138,19.99138,0,0,0,137.929,20.712Z" fill="#676868"/>
    <path d="M175.546,27.293a3.7481,3.7481,0,0,1-2.883,1.337,3.4602,3.4602,0,0,1-1.807-.478,3.98466,3.98466,0,0,1-1.151-.934,3.55427,3.55427,0,0,1-.634-1.39,15.15523,15.15523,0,0,1-.204-3.092,15.66866,15.66866,0,0,1,.204-3.147,3.46154,3.46154,0,0,1,.634-1.368,3.65053,3.65053,0,0,1,1.151-.973,3.78212,3.78212,0,0,1,1.807-.431,3.74168,3.74168,0,0,1,2.883,1.367V16.962h2.242V28.22a4.657,4.657,0,0,1-4.848,5.079,5.04949,5.04949,0,0,1-3.87-1.93l1.742-1.431a4.2669,4.2669,0,0,0,.99.704,2.55567,2.55567,0,0,0,1.183.346,2.5844,2.5844,0,0,0,1.85-.659,2.53513,2.53513,0,0,0,.71-1.853V27.293Zm-4.437-4.553a12.83948,12.83948,0,0,0,.086,1.829,1.75446,1.75446,0,0,0,.355.87,2.07147,2.07147,0,0,0,.689.569,2.08806,2.08806,0,0,0,2.196,0,2.11732,2.11732,0,0,0,.667-.569,1.90747,1.90747,0,0,0,.377-.87,16.95992,16.95992,0,0,0,.065-1.829,17.97244,17.97244,0,0,0-.065-1.873,1.7508,1.7508,0,0,0-.377-.848,2.703,2.703,0,0,0-.667-.613,2.30008,2.30008,0,0,0-2.196,0,2.57034,2.57034,0,0,0-.689.613,1.60993,1.60993,0,0,0-.355.848A13.59377,13.59377,0,0,0,171.109,22.74Z" fill="#676868"/>
    <path d="M180.118,22.721a10.39838,10.39838,0,0,1,.291-2.806,4.074,4.074,0,0,1,.926-1.614,4.23184,4.23184,0,0,1,1.292-1.028,4.6748,4.6748,0,0,1,2.099-.453,4.7478,4.7478,0,0,1,2.142.456,4.03158,4.03158,0,0,1,1.249,1.034,3.64978,3.64978,0,0,1,.944,1.611,11.19106,11.19106,0,0,1,.268,2.801,10.89855,10.89855,0,0,1-.269,2.778,3.98083,3.98083,0,0,1-.947,1.656,3.5322,3.5322,0,0,1-.527.5,2.46675,2.46675,0,0,1-.721.478,4.36084,4.36084,0,0,1-2.141.5,4.5917,4.5917,0,0,1-3.389-1.478,4.46742,4.46742,0,0,1-.925-1.656A10.02282,10.02282,0,0,1,180.118,22.721Zm6.967.022a10.72846,10.72846,0,0,0-.108-1.806,2.17481,2.17481,0,0,0-.442-.959,1.6644,1.6644,0,0,0-.733-.613,2.36516,2.36516,0,0,0-1.079-.234,2.4002,2.4002,0,0,0-1.057.234,2.01629,2.01629,0,0,0-.755.613,2.73824,2.73824,0,0,0-.421.959,8.84391,8.84391,0,0,0-.13,1.784,8.52149,8.52149,0,0,0,.13,1.762,2.95084,2.95084,0,0,0,.421,1.004,2.75531,2.75531,0,0,0,.755.591,2.45008,2.45008,0,0,0,2.136,0,2.122,2.122,0,0,0,.733-.591,2.33156,2.33156,0,0,0,.442-1.004A10.073,10.073,0,0,0,187.085,22.743Z" fill="#676868"/>
    <path d="M191.578,16.961h2.243v1.222h.043a3.55729,3.55729,0,0,1,2.904-1.367,3.75961,3.75961,0,0,1,2.538,1.011,3.97843,3.97843,0,0,1,1.194,3v7.668h-2.243V21.62a2.52251,2.52251,0,0,0-.625-1.847,2.08756,2.08756,0,0,0-1.583-.645,2.12048,2.12048,0,0,0-1.593.645,2.49864,2.49864,0,0,0-.635,1.847v6.877h-2.243V16.961Z" fill="#676868"/>
    <path d="M149.22,16.965h2.281v1.244h.048a3.74029,3.74029,0,0,1,5.345-.489l-1.666,2.039a2.3526,2.3526,0,0,0-1.502-.589,2.111,2.111,0,0,0-1.502.589,2.34126,2.34126,0,0,0-.724,1.868v7.074h-2.281V16.965Z" fill="#676868"/>
    <path d="M159.446,23.724a2.79415,2.79415,0,0,0,.789,2.149,2.58166,2.58166,0,0,0,1.928.747,3.363,3.363,0,0,0,2.487-1.143l1.654,1.459a5.285,5.285,0,0,1-4.094,1.898,5.74975,5.74975,0,0,1-1.752-.271,4.18327,4.18327,0,0,1-.832-.396,3.99253,3.99253,0,0,1-.799-.531,4.65969,4.65969,0,0,1-1.171-1.831,7.43493,7.43493,0,0,1-.492-2.939,8.41267,8.41267,0,0,1,.427-2.894,5.05835,5.05835,0,0,1,1.094-1.854,4.05772,4.05772,0,0,1,1.522-.995,4.7533,4.7533,0,0,1,1.642-.305,4.64209,4.64209,0,0,1,3.294,1.323,4.89921,4.89921,0,0,1,1.39,3.641v1.942Zm4.807-1.942a3.06112,3.06112,0,0,0-.713-2.079,2.46641,2.46641,0,0,0-3.38,0,3.21376,3.21376,0,0,0-.713,2.079Z" fill="#676868"/>
  </g>
</svg>
