<svg xmlns="http://www.w3.org/2000/svg" viewBox="0 0 24 24">
  <path d="M12,2.16c3.2,0,3.58,0,4.85.07a6.64,6.64,0,0,1,2.23.41,3.72,3.72,0,0,1,1.38.9,3.72,3.72,0,0,1,.9,1.38,6.64,6.64,0,0,1,.41,2.23c0.06,1.27.07,1.64,0.07,4.85s0,3.58-.07,4.85a6.64,6.64,0,0,1-.41,2.23,4,4,0,0,1-2.28,2.28,6.64,6.64,0,0,1-2.23.41c-1.27.06-1.64,0.07-4.85,0.07s-3.58,0-4.85-.07a6.64,6.64,0,0,1-2.23-.41,3.72,3.72,0,0,1-1.38-.9,3.72,3.72,0,0,1-.9-1.38,6.64,6.64,0,0,1-.41-2.23C2.17,15.58,2.16,15.2,2.16,12s0-3.58.07-4.85a6.64,6.64,0,0,1,.41-2.23,3.72,3.72,0,0,1,.9-1.38,3.72,3.72,0,0,1,1.38-.9,6.64,6.64,0,0,1,2.23-.41C8.42,2.17,8.8,2.16,12,2.16M12,0C8.74,0,8.33,0,7.05.07A8.81,8.81,0,0,0,4.14.63,5.88,5.88,0,0,0,2,2,5.88,5.88,0,0,0,.63,4.14,8.81,8.81,0,0,0,.07,7.05C0,8.33,0,8.74,0,12s0,3.67.07,4.95a8.81,8.81,0,0,0,.56,2.91A5.88,5.88,0,0,0,2,22a5.88,5.88,0,0,0,2.13,1.38,8.81,8.81,0,0,0,2.91.56C8.33,24,8.74,24,12,24s3.67,0,4.95-.07a8.81,8.81,0,0,0,2.91-.56,6.14,6.14,0,0,0,3.51-3.51,8.81,8.81,0,0,0,.56-2.91C24,15.67,24,15.26,24,12s0-3.67-.07-4.95a8.81,8.81,0,0,0-.56-2.91A5.88,5.88,0,0,0,22,2,5.88,5.88,0,0,0,19.86.63,8.81,8.81,0,0,0,16.95.07C15.67,0,15.26,0,12,0h0Z"/>
  <path d="M12,5.84A6.16,6.16,0,1,0,18.16,12,6.16,6.16,0,0,0,12,5.84ZM12,16a4,4,0,1,1,4-4A4,4,0,0,1,12,16Z"/>
  <circle cx="18.41" cy="5.59" r="1.44"/>
</svg>
