<svg xmlns="http://www.w3.org/2000/svg" width="24" height="24" viewBox="0 0 24 24">
  <path d="m20,10.58l-5.24.28,3.9-3.51c.61-.55.63-1.49.05-2.06s-1.52-.55-2.06.05l-3.51,3.9.28-5.24c.04-.81-.61-1.5-1.42-1.5s-1.46.68-1.42,1.5l.28,5.24-3.51-3.9c-.55-.61-1.49-.63-2.06-.05s-.55,1.52.05,2.06l3.9,3.51-5.24-.28c-.81-.04-1.5.61-1.5,1.42s.68,1.46,1.5,1.42l5.24-.28-3.9,3.51c-.61.55-.63,1.49-.05,2.06h0c.58.58,1.52.55,2.06-.05l3.51-3.9-.28,5.24c-.04.81.61,1.5,1.42,1.5s1.46-.68,1.42-1.5l-.28-5.24,3.51,3.9c.55.61,1.49.63,2.06.05h0c.58-.58.55-1.52-.05-2.06l-3.9-3.51,5.24.28c.81.04,1.5-.61,1.5-1.42s-.68-1.46-1.5-1.42Z"/>
</svg>
