<svg xmlns="http://www.w3.org/2000/svg" width="24" height="24" viewBox="0 0 24 24">
  <polygon points="3 7.14 12 1.33 21 7.14 12 12.95 3 7.14" opacity=".66" stroke-width="0" />
  <polygon points="12 22.67 3 16.86 3 7.14 12 12.95 12 22.67" opacity=".33" stroke-width="0" />
  <path
    d="m20.65,6.91L12.42,1.6c-.25-.16-.58-.16-.83,0L3.35,6.91c-.22.14-.35.38-.35.64v8.89c0,.26.13.5.35.64l8.24,5.32c.25.16.58.16.83,0l8.24-5.32c.22-.14.35-.38.35-.64V7.56c0-.26-.13-.5-.35-.64Z"
    fill="none" stroke-linejoin="round" stroke-width="2" />
</svg>