<svg xmlns="http://www.w3.org/2000/svg" viewBox="0 0 24 24" width="24" height="24">
  <path d="M0,12A12,12,0,0,0,8.21,23.39,0.6,0.6,0,0,0,9,22.81c0-.29,0-1,0-2-3.34.72-4-1.61-4-1.61A3.18,3.18,0,0,0,3.63,17.4c-1.09-.74.08-0.73,0.08-0.73a2.52,2.52,0,0,1,1.84,1.24,2.56,2.56,0,0,0,3.49,1,2.57,2.57,0,0,1,.76-1.6C7.14,17,4.34,16,4.34,11.37A4.64,4.64,0,0,1,5.58,8.15,4.32,4.32,0,0,1,5.7,5s1-.32,3.3,1.23a11.38,11.38,0,0,1,6,0C17.3,4.65,18.3,5,18.3,5a4.31,4.31,0,0,1,.12,3.18,4.63,4.63,0,0,1,1.23,3.22c0,4.61-2.81,5.62-5.48,5.92A2.86,2.86,0,0,1,15,19.52c0,1.6,0,2.9,0,3.29a0.6,0.6,0,0,0,.83.58A12,12,0,1,0,0,12Z"/>
</svg>
