<svg xmlns="http://www.w3.org/2000/svg" width="24" height="24" viewBox="0 0 24 24">
  <path d="M13.1,19.1c0.6-0.6,0.6-1.6,0-2.3c-0.6-0.6-1.7-0.6-2.3,0c-0.6,0.6-0.6,1.6,0,2.3C11.5,19.7,12.5,19.7,13.1,19.1z
    "/>
  <path d="M16.8,14.8l-0.5-0.5c-2.3-2.3-6.1-2.3-8.5,0l-0.5,0.5C7,15,7,15.4,7.2,15.7l0.5,0.5c0.1,0.1,0.3,0.2,0.4,0.2
    c0.2,0,0.3-0.1,0.4-0.2l0.5-0.5c1.5-1.5,4.1-1.5,5.6,0l0.5,0.5c0.2,0.2,0.6,0.2,0.9,0l0.5-0.5c0.1-0.1,0.2-0.3,0.2-0.4
    C16.9,15.1,16.9,14.9,16.8,14.8z"/>
  <path d="M18.9,12.1l-0.5-0.5c-3.5-3.5-9.2-3.5-12.7,0l-0.5,0.5c-0.1,0.1-0.2,0.3-0.2,0.4c0,0.2,0.1,0.3,0.2,0.4l0.5,0.5
    c0.2,0.2,0.7,0.2,0.9,0L7.1,13c1.3-1.3,3.1-2,4.9-2s3.6,0.7,4.9,2l0.5,0.5c0.1,0.1,0.3,0.2,0.4,0.2c0,0,0,0,0,0
    c0.2,0,0.3-0.1,0.4-0.2l0.5-0.5C19.1,12.8,19.1,12.4,18.9,12.1z"/>
  <path d="M21,9.5L20.5,9c-4.7-4.7-12.3-4.7-17,0L3,9.5C2.8,9.6,2.8,9.8,2.8,9.9c0,0.2,0.1,0.3,0.2,0.4l0.5,0.5c0.2,0.2,0.6,0.2,0.9,0
    l0.5-0.5c3.9-3.9,10.3-3.9,14.2,0l0.5,0.5c0.1,0.1,0.3,0.2,0.4,0.2s0.3-0.1,0.4-0.2l0.5-0.5C21.3,10.1,21.3,9.7,21,9.5z"/>
  <path d="M12,23c6.1,0,11-4.9,11-11S18.1,1,12,1S1,5.9,1,12S5.9,23,12,23z M19.8,5.1l-16,13.7" fill="none" stroke-width="2"/>
</svg>

