<svg xmlns="http://www.w3.org/2000/svg" width="58px" height="58px" viewBox="-1 -1 58 58">
  <path d="M56.5,41.3 L47.9,4.3 C47.2,1.3 44.2,-0.6 41.2,0.1 L35,1.5 C35.7,1.6 36.4,1.7 37.1,1.9 L40.6,1.1 C43.6,0.4 46.6,2.3 47.3,5.3 L50.5,19 C49.2,21.6 46.7,26 42.8,28.6 C43.7,29.4 44.5,30.1 45.2,31 C47.3,33.6 48.3,36.8 48.3,40.5 C48.3,44.1 47.3,47.2 45.3,49.7 L52.4,48.1 C55.3,47.3 57.2,44.3 56.5,41.3 L56.5,41.3 Z M17.8317148,28.1772278 C17.920915,28.1508498 18.010345,28.1251034 18.1,28.1 C19.9,29.4 22.1,30.6 24.6,31.6 C28.8,33.4 31.6,34.9 33.1,36.2 C34.6,37.5 35.3,39.2 35.3,41.2 C35.3,44.7 32.8,46.4 28,46.4 C23.3,46.4 19.1,44.9 15.4,42 L11,51.9 L11,51.9 C14.4,53.7 17.1,54.9 19.3,55.3 C19.4,55.3 19.5,55.4 19.6,55.4 L15.4,56.4 C12.4,57.1 9.4,55.2 8.7,52.2 L0.1,15.2 C-0.6,12.2 1.3,9.2 4.3,8.5 L14.6,6.1 C14.3,6.4 13.9,6.8 13.6,7.2 L5.5,9.1 C4.77117111,9.27006007 4.10726564,9.5758691 3.52979178,9.98444782 C4.06092639,9.70059916 4.68230805,9.46997967 5.4,9.3 L13.5,7.4 C11.7,9.6 10.8,12.4 10.8,15.7 L10.8,15.7 C10.8,20.639987 13.2403472,24.799063 17.8317148,28.1772278 Z M41.6,14.5 C38.9,12.2 35.1,11 30.3,11 C26,11 23.8,12.7 23.8,16.2 C23.8,17.6 24.5,18.8 25.9,19.9 C27.3,21 30.4,22.5 35,24.3 C38.2,25.5 40.8,27 42.7,28.6 C46.6,26 49.1,21.6 50.4,19 L47.2,5.3 C46.5,2.5 44.3,0.2 40.5,1.1 L37,1.9 C39.8,2.5 42.5,3.5 45,4.8 L41.6,14.5 Z" />
  <path d="M13.5,7.4 L37.1,2 C36.4,1.8 35.7,1.7 35,1.6 L14.6,6.3 C14.2,6.6 13.9,7 13.5,7.4 L13.5,7.4 Z M45.1,31 C44.4,30.2 43.6,29.4 42.7,28.6 C39.4,30.9 35.1,31.8 29.9,29.3 C25.8,27.3 21.7,27.3 18.1,28.3 C19.9,29.6 22.1,30.7 24.6,31.8 C28.8,33.6 31.7,35.1 33.1,36.4 C34.6,37.7 35.3,39.3 35.3,41.4 C35.3,44.8 32.9,46.6 28,46.6 C23.3,46.6 19.1,45.1 15.4,42.2 L11,52.1 C14.4,53.9 17.1,55.1 19.2,55.6 C19.3,55.6 19.4,55.7 19.5,55.7 L45.2,49.8 C47.2,47.3 48.2,44.2 48.2,40.6 C48.2,36.7 47.2,33.6 45.1,31 L45.1,31 Z M10.8,15.7 C10.8,20.7 13.2,24.9 18.1,28.2 C21.8,27.2 25.8,27.3 29.9,29.2 C35.1,31.7 39.4,30.7 42.7,28.5 C40.7,26.9 38.2,25.5 35,24.2 C30.3,22.3 27.3,20.9 25.9,19.8 C24.5,18.7 23.8,17.5 23.8,16.1 C23.8,12.7 26,10.9 30.3,10.9 C35.1,10.9 38.9,12.1 41.6,14.4 L45.2,4.7 C42.6,3.4 39.9,2.4 37.2,1.8 L13.6,7.2 C11.7,9.7 10.8,12.4 10.8,15.7 Z" fill="#FFFFFF" />
</svg>
