<?xml version="1.0" encoding="utf-8"?>
<!-- Generator: Adobe Illustrator 19.0.0, SVG Export Plug-In . SVG Version: 6.00 Build 0)  -->
<svg version="1.1" xmlns="http://www.w3.org/2000/svg" xmlns:xlink="http://www.w3.org/1999/xlink" x="0px" y="0px"
	 viewBox="0 0 24 24" width="24" height="24">
	<title>Cloud Four</title>
 	<g id="cloudfour-logo" fill="currentColor">
		<path id="cloud-left" d="M9.9,18.9c0.1-0.3,0.3-0.8,0.6-1.7c0.2-0.7,0.5-1.5,0.8-2.4c-0.5,0-0.9,0.1-1.4,0.1c-0.5,0-1,0.1-1.6,0.1
			c-0.5,0-1,0.1-1.4,0.1c-0.3,0-0.6,0-0.7-0.1C6,15,5.9,14.9,5.8,14.8c-0.1-0.1-0.1-0.2-0.2-0.4c-0.1-0.1-0.2-0.3-0.2-0.4
			c-0.1-0.1-0.2-0.3-0.2-0.4C5,13.4,5,13.2,4.9,13.1c-0.1-0.3,0-0.5,0.1-0.7c0.1-0.2,0.2-0.4,0.3-0.5l0,0C6,11.1,6.6,10.5,7.1,10
			c0.5-0.5,0.9-1,1.3-1.3c0.4-0.4,0.8-0.8,1.1-1.1C9.7,7.3,10,7,10.4,6.6c0.3-0.4,0.7-0.7,1.1-1c0.4-0.3,0.8-0.6,1.2-0.9
			c0.3-0.2,0.6-0.3,0.8-0.4c-0.5-0.1-1-0.1-1.6-0.1c-4,0-7.2,2.2-7.7,5c-2.4,0.9-4.1,2.8-4.1,5.2c0,3.1,3,5.6,6.7,5.6
			c1.1,0,2.1-0.2,3-0.6C9.8,19.2,9.9,19,9.9,18.9z"/>
		<path id="cloud-right" d="M19.1,7.7c-0.4-0.8-1.1-1.5-2-2.1c-0.2,0.6-0.3,1.2-0.5,1.7c-0.2,0.9-0.5,1.6-0.6,2.3
			c-0.2,0.8-0.4,1.5-0.5,2.1l0,0.1c0,0,0,0,0,0c0,0,0,0,0,0c0.2,0,0.5,0,0.7,0c0.3,0,0.5,0,0.7,0h0.5l0,0.5c0,0.4-0.1,0.7-0.2,1
			c-0.1,0.1-0.1,0.3-0.2,0.4c-0.1,0.1-0.2,0.3-0.3,0.4c-0.1,0.1-0.2,0.2-0.3,0.3c-0.1,0.1-0.2,0.2-0.4,0.3l-0.2,0.1l-0.2,0
			c-0.1,0-0.2,0-0.4,0c-0.1,0-0.3,0-0.4,0h-0.2c-0.1,0.4-0.2,0.8-0.3,1.2c-0.1,0.5-0.2,1-0.4,1.6c-0.1,0.3-0.2,0.7-0.2,1
			c0.8,0.6,1.8,0.9,3,0.9c1.2,0,2.4-0.4,3.2-1.1c2.2-0.5,3.9-2.6,3.9-5.2C23.8,10.1,21.7,7.7,19.1,7.7z"/>
		<path id="four-counter" d="M9,11.9c3.6-4.1,5.1-5,5.1-5c-0.8,2.6-1.7,4.8-1.7,4.8C9.2,11.8,9,11.9,9,11.9z"/>
	</g>
</svg>
