<?xml version="1.0" encoding="UTF-8" standalone="no"?>
<svg width="26px" height="26px" viewBox="0 0 26 26" version="1.1" xmlns="http://www.w3.org/2000/svg" xmlns:xlink="http://www.w3.org/1999/xlink" xmlns:sketch="http://www.bohemiancoding.com/sketch/ns">
  <path fill="currentColor" d="M0,6 C0,4.8954305 0.894978851,4 1.99700466,4 L24.0029953,4 C25.1059106,4 26,4.88772964 26,6 L26,8 C26,8 17.2751465,14 13,14 C8.60847982,14 0,8 0,8 L0,6 L0,6 Z M0,19.9914698 C0,21.1007504 0.894978851,22 1.99700466,22 L24.0029953,22 C25.1059106,22 26,21.0980496 26,19.9914698 L26,10 C26,10 17.2751465,16 13,16 C8.60847982,16 0,10 0,10 L0,19.9914698 L0,19.9914698 Z"></path>
</svg>
