<?xml version="1.0" encoding="UTF-8" standalone="no"?>
<svg width="24px" height="24px" viewBox="0 0 24 24" version="1.1" xmlns="http://www.w3.org/2000/svg" xmlns:xlink="http://www.w3.org/1999/xlink" xmlns:sketch="http://www.bohemiancoding.com/sketch/ns">
    <!-- Generator: Sketch 3.3.2 (12043) - http://www.bohemiancoding.com/sketch -->
    <title>envelope</title>
    <desc>Created with Sketch.</desc>
    <defs></defs>
    <g id="Page-1" stroke="none" stroke-width="1" fill="none" fill-rule="evenodd" sketch:type="MSPage">
        <g id="envelope" sketch:type="MSArtboardGroup" fill="currentColor">
            <path d="M0,6 C0,4.8954305 0.897026226,4 2.00494659,4 L21.9950534,4 C23.1023548,4 24,4.88772964 24,6 L24,8 C24,8 16.1380208,13 12,13 C8.13802083,13 0,8 0,8 L0,6 Z" id="envelope-top" sketch:type="MSShapeGroup"></path>
            <path d="M24,18.000385 C24,19.1047419 23.1029738,20 21.9950534,20 L2.00494659,20 C0.897645164,20 0,19.1125667 0,18.000385 L0,10 C0,10 7.86197917,15 12,15 C15.8619792,15 24,10 24,10 L24,18.000385 L24,18.000385 Z" id="envelope-bottom" sketch:type="MSShapeGroup"></path>
        </g>
    </g>
</svg>
