<svg xmlns="http://www.w3.org/2000/svg" viewBox="0 0 24 24">
  <path d="M19.94,1H4.06A3.06,3.06,0,0,0,1,4.06V19.94A3.06,3.06,0,0,0,4.06,23H19.94A3.06,3.06,0,0,0,23,19.94V4.06A3.06,3.06,0,0,0,19.94,1ZM12,7.72A4.28,4.28,0,1,1,7.72,12,4.28,4.28,0,0,1,12,7.72Zm8.56,12.22a0.61,0.61,0,0,1-.61.61H4.06a0.61,0.61,0,0,1-.61-0.61V10.17H5.54a6.72,6.72,0,1,0,12.93,0h2.09v9.78Zm0-12.83a0.61,0.61,0,0,1-.61.61H16.89a0.61,0.61,0,0,1-.61-0.61V4.06a0.61,0.61,0,0,1,.61-0.61h3.06a0.61,0.61,0,0,1,.61.61V7.11Z"/>
</svg>
