<svg xmlns="http://www.w3.org/2000/svg" viewBox="0 0 24 24">
  <path d="M21.4,0H2.6C1.7,0,1,0.7,1,1.6v18.8C1,21.3,1.7,22,2.6,22h18.8c0.9,0,1.6-0.7,1.6-1.6c0,0,0,0,0,0V1.6C23,0.7,22.3,0,21.4,0
	  C21.4,0,21.4,0,21.4,0z M7.5,18.8H4.3V8.2h3.3V18.8z M5.9,6.8C4.8,6.8,4,6,4,4.9S4.9,3,5.9,3c1,0,1.9,0.9,1.9,1.9
	  C7.8,6,6.9,6.8,5.9,6.8C5.9,6.8,5.9,6.8,5.9,6.8z M19.8,18.8h-3.3v-5.1c0-1.2,0-2.8-1.7-2.8s-2,1.3-2,2.7v5.2H9.6V8.2h3.1v1.4l0,0
	  c0.6-1.1,1.9-1.8,3.1-1.7c3.3,0,3.9,2.2,3.9,5L19.8,18.8L19.8,18.8z"/>
</svg>
