<svg xmlns="http://www.w3.org/2000/svg" width="480" height="460" viewBox="0 0 480 460">
  <polyline points="134.24 130.56 151.28 43.26 158.33 29.89 161.6 53.11 160.72 138.15 134.24 130.56" fill="#f2bc75"/>
  <polyline points="75.91 154.1 49.81 171.47 36.27 198.71 36.27 232.02 65.84 266.22 104.27 281 139.77 281.96 146.06 288.78 153.95 311.97 176.36 331.19 184.58 340.13 189.89 372.35 202.65 383.4 229.3 381.65 234.8 351.76 248.16 389.95 256.65 398.05 288.95 392.49 288.95 340.88 323.47 333.3 323.47 351.76 331.18 372.35 352.27 366 360.8 346.67 367.55 367.35 399.22 359.6 405.79 340.88 397.69 306.35 416.21 266.93 410.71 227.5 387.65 178.51 348.77 149.41 306.96 141.4 260.8 149.41 238.66 159.82 213.21 121.74 187.68 107.39 167.19 116.41 157.13 136.43 129.45 127.83 107.19 122.01 86.44 131.23 78.08 149.41 77.84 158.1" fill="#93d1b9"/>
  <path d="M304.46,134.74s-7.62-14.17-3.28-21.21,5.82-13.11,0-15.48-14,0-18.89-7-8.44-17.59-14.43-15.48-12.23,8.09-11.21,14.07a40.91,40.91,0,0,1,0,12l-3.95,8.26,2.11,6.56,1.8,5.32,11.92,2,12.53-2-11.43,5.67,1.88,3.82,7.37,3.51,12.22-3.54S305.84,144,304.46,134.74Z" fill="#ea8aa2"/>
  <path d="M335.78,97.35h16.57l13.37-4.58,9.85-14.07h12.31L392.1,91,390,103.32v6.52l3.87,11.88-4.58,7.64-14.43,5.37-7.28,7.1s-8.21-.79-9.61.25-13.37-7.34-13.37-7.34L326,141.85s6.31-12.52,6.68-14.42S335.78,97.35,335.78,97.35Z" fill="#ea8aa2"/>
  <path d="M164.95,112.82s-1.58-58-1.25-71.82S162.9,18.17,157,19.26s-13.14,39.41-14.85,49.11-12.67,59.43-12.67,59.43l7.2,6.1s3.28-9.85,7.66-37.09,9.54-52.88,11.42-55.67.16,2.82.16,5.48-.62,25-.32,31.9.47,23.61.47,31.57,0,24.09,1.1,26.27,2.19,1.72,3.6,1.72,2.19.62,3.16-7.51S164.95,112.82,164.95,112.82Z" fill="#de9f54"/>
  <polygon points="161.17 111.18 137.7 131.23 133.81 122.52 157.43 101.6 161.17 111.18" fill="#de9f54"/>
  <polygon points="156.29 78.7 141.16 95.24 141.16 103.33 157.89 85.74 156.29 78.7" fill="#de9f54"/>
  <path d="M157.22,52.62,146.06,65.25l1.4,7S158.64,60,158.69,58.6,157.22,52.62,157.22,52.62Z" fill="#de9f54"/>
  <ellipse cx="68.92" cy="198.71" rx="7.51" ry="5.13" transform="translate(-90.89 61.97) rotate(-30.32)" fill="#58a484"/>
  <ellipse cx="86.99" cy="220.26" rx="8.21" ry="5.86" transform="translate(-134.35 136.06) rotate(-47.62)" fill="#58a484"/>
  <ellipse cx="111.91" cy="154.11" rx="36.01" ry="32.37" fill="#58a484"/>
  <ellipse cx="153.2" cy="213.02" rx="34.48" ry="33.08" fill="#58a484"/>
  <ellipse cx="111.91" cy="151.29" rx="30.49" ry="24.4" fill="#fff"/>
  <ellipse cx="150.85" cy="208.8" rx="26.04" ry="23.23" fill="#fff"/>
  <ellipse cx="114.44" cy="158.1" rx="15.01" ry="11.49" fill="#58a484"/>
  <ellipse cx="149.38" cy="209.47" rx="13.84" ry="13.61" fill="#58a484"/>
  <path d="M176.37,138.1a9.47,9.47,0,0,1,6-9c3.95-1.63,13.78-2.28,17.6-1.14s2.76,4.23,1.84,5-7.4-.67-12.38.79a10.93,10.93,0,0,0-7.6,6.91C180.92,142.92,176.57,142.71,176.37,138.1Z" fill="#58a484"/>
  <path d="M188.25,151.29c2.93-2.83,8.21-8.09,17.59-9.27A29.18,29.18,0,0,1,225,146.66c2.46,1.59,5.28,4.4,4.1,6.51s-2,2.12-6,0-13.55-5-20-1.88-11.84,8-12.81,8.44-4.81-1.29-4.81-2.82S185.66,153.76,188.25,151.29Z" fill="#58a484"/>
  <path d="M204.75,167c4.49-1.45,10.91-3.64,22.75-1.18s16.57,10.67,14,11.26-12-5.63-21.11-4.46-11.61,1.64-14.07,2.46-6.1,2.7-7,.47S196.78,169.59,204.75,167Z" fill="#58a484"/>
  <path d="M220.31,187.77c6.72,0,20-1.06,37,10.09s14.43,16.89,13.49,18.29-9.47,9.27-21.93,11.14a50.68,50.68,0,0,1-31.79-5c-8.68-4.58-11.38-12.73-10.56-13.46s3.28-1.08,6.31.68,14.86,9.85,29.3,7.51,19.14-5.63,19.14-6.31-5.43-7.89-19.14-11.14-23.44-2.94-29.9-2-5.83-6.82-2.68-8A31.77,31.77,0,0,1,220.31,187.77Z" fill="#58a484"/>
  <path d="M200.08,237.15S174,264.6,141,271.41,86.75,274,66.11,259.91,41,235.51,38.9,212s22.77-46,30-50,8.91-4,8.91-4l.24-8.68s-3.52,0-12.43,6.31S40.27,176.6,33,195.85s0,42.22,8,53,22.84,26.53,44.1,33.31c22.05,7,37.09,8.91,56,3.28s45-26.74,50.2-31.2S203.58,243.48,200.08,237.15Z" fill="#58a484"/>
  <path d="M53.67,215.1C51,214,49,222.27,50.15,228S56.26,245.13,65.4,243s8.44-5.86,8-8-2.12-4-9.15-1.64-7.51-7.48-7.28-10.32S58.37,217,53.67,215.1Z" fill="#58a484"/>
  <path d="M139.77,282s-.7,10.32,6.57,23.93,18.07,27.45,38.24,34.25,34.25,9.85,43.16,9.15L246,396s25.33,5.86,50.44-2.12V342s37.54-4.46,51.37-12.9l12.67,38s17.83,2.37,49.26-7.27c0,0,5.86-19.23-6.8-53.25A82.17,82.17,0,0,0,420.33,270c4.46-22.52,2-33.31-12-67.79-11-27.21-40.82-45.28-40.82-45.28h-15a106,106,0,0,1,12.26,7.54c6.86,4.84,15.19,11.84,21.06,20.38,11.73,17.13,18.53,30,21.81,49s-.47,45.78-18.29,70.14c0,0,12.2,10.32,10.09,50,0,0-4,6.57-31.9,5.63l-10.32-37.54s-.47-6.31-6.57-4.69-67.33,17.83-67.33,17.83-1.64,1.64-.94,8.21,5.4,43.16,5.4,43.16a79.24,79.24,0,0,1-36.62,1.93l-12-43.41s-.47-8.91-8.21-8.68-76.48,4.66-83-57.5Z" fill="#58a484"/>
  <path d="M243.68,390c1.11,2.84,4.74,14,9.16,20.08s9.6,8,12,6.08,7.27-16.89,7.51-19.47c0,0,4.92,6.8,6.57,9.38s6.57,8.44,12.67,7,4.92-24.4,4.92-24.4l-39.82,3.52Z" fill="#58a484"/>
  <path d="M358.92,362.33s1.36,3.16,2.53,6.66,7.51,16,13.37,16.19,8-3.28,8.44-7.27,1.4-13.37,4-11.26,9.38,8.68,12.9,11,7.74-1.64,8.44-6.31,2.11-16.63,2.11-16.63l-11.49,4.9-33.08,3.76Z" fill="#58a484"/>
  <path d="M181.31,333.8a51.84,51.84,0,0,0,0,17.95c1.76,9.47,8.09,34.83,10.2,36.94l43.63-3.5,3.52-15.24-9.85-25.26-2.11,31-27.8,1.79s-12-21.81-9.15-40.82Z" fill="#58a484"/>
  <path d="M189.89,385.19s4.07,10.31,6.42,14.06,5.86,6.57,9.85,6.57,4.69-3.52,5.86-6.8,3.76-9.15,3.76-9.15,7,10.79,10.56,11.49,7.27-.22,8-5.86,1.14-11.66,2.23-16.34Z" fill="#58a484"/>
  <path d="M317.14,331.19a38.88,38.88,0,0,0,0,13.42c1.32,7.1,6.07,26.12,7.65,27.7l32.71-2.63,2.64-11.43-7.39-18.94-1.58,23.22-20.87,1.37s-9-16.36-6.86-30.61Z" fill="#58a484"/>
  <path d="M323.57,369.71s3.05,7.73,4.81,10.54,4.4,4.92,7.39,4.92,3.52-2.64,4.4-5.1,2.82-6.86,2.82-6.86,5.28,8.09,7.89,8.62,5.45-.17,6-4.4.86-8.74,1.67-12.26Z" fill="#58a484"/>
  <path d="M235.14,156.92s23.22-14.88,45.92-16.64,61.63,1.58,86.5,16.64l-4.46,2.19-10.56-2.19s-16.34-12.51-55.13-10.48S244.53,161,243.14,161.92s-4.85,2.5-7,0A4.69,4.69,0,0,1,235.14,156.92Z" fill="#58a484"/>
  <path d="M326.48,129.63c1.06-3.85,2.55-10,1.69-16.19s-2.23-16,2.29-17.53,5.42-1.86,5.42-1.86l5.89-.79s13.33,2.71,16,.29,12.5-10,12.17-16.86A17.56,17.56,0,0,1,389,75.3c10.88,5.59,10.26,19.41,9.47,22.67a28.56,28.56,0,0,1-4.61,10,61.45,61.45,0,0,1,4.44,9.17c1.58,4.36,1.29,10.66-9,15.78-5.15,2.56-12.38,3-12.38,3s3.49,13.27-20.67,10.31c-4.82-.59-12.52-8.2-12.52-8.2s-12.57,7.21-18.89,7.18c0,0,20.52-12.63,21-16,0,0,9.39,17.48,21.71,8.49,0,0-12.16-1.58-14.4-11.57-.42-1.84,3.69-4.14,4.74-3.35s11.54,10.26,25,5.19,5.26-14.32,5.26-14.32-9.47,8.11-19.61,6.53-12.56-7.4-13-10.81c-.26-1.86,3.8-1.95,4.9-1s1.19,5,10.32,2.51,18.79-5.63,18.81-15.74-3-17-11.63-14.32c0,0-8,17.85-18.63,19.34s-21.78-3.43-21.51.79,2.66,20.16,2,24.51-3.72,9-5.3,11.79a47.51,47.51,0,0,1-3.95,5.6s-8.36,7.78-7.89-5.84C322.67,135,325,135.09,326.48,129.63Z" fill="#c0637e"/>
  <path d="M307.72,128.21c-.36-3.37-.79-8.68.79-13.76s4-13,.48-15-4.28-2.3-4.28-2.3l-4.81-1.46s-11.51.45-13.42-1.93-9.1-10-7.89-15.78a14.88,14.88,0,0,0-15.78-3.77c-9.87,3.16-11.25,14.82-11,17.67a24.2,24.2,0,0,0,2.49,9,52.09,52.09,0,0,0-5,7.06c-1.89,3.43-2.53,8.74,5.37,14.43,3.95,2.84,9.94,4.19,9.94,4.19s-4.74,10.62,15.87,11.44c4.11.17,11.59-5.15,11.59-5.15s9.53,7.74,14.82,8.58c0,0-15.42-13.35-15.36-16.24,0,0-10.26,13.34-19.31,4.14,0,0,10.39.32,13.62-7.7.6-1.48-2.52-3.95-3.51-3.45s-11,7-21.65.92-2.45-12.69-2.45-12.69,6.8,8.07,15.51,8.14,11.51-4.47,12.38-7.26c.47-1.52-2.91-2.15-3.95-1.51s-1.69,4.06-9,.69-14.95-7.27-13.57-15.72,4.82-13.76,11.68-10.39c0,0,4.21,16,12.94,18.71s18.68.1,17.88,3.6-5,16.49-5,20.22,1.88,8.07,2.83,10.58a40.25,40.25,0,0,0,2.54,5.22s5.93,7.65,7.42-3.8C310.17,133.24,308.21,133,307.72,128.21Z" fill="#c0637e"/>
  <path d="M384.37,171.46s25.81,14.39,40.66,14.07c0,0,3.44-1.58,13.61,3.6s12.67,21,10.79,24.24c0,0-32.24,8.32-32.24-19.73v-.72s-23.75-7.1-29.53-14.45S384.37,171.46,384.37,171.46Z" fill="#58a484"/>
  <path d="M423.31,190.86s18.77-1.4,22.05,18.15C445.36,209,421.74,212.29,423.31,190.86Z" fill="#93d1b9"/>
  <path d="M168.52,116.15c2.93-2.83,8.21-8.09,17.59-9.27a29.18,29.18,0,0,1,19.12,4.63c2.46,1.59,12.63,8.11,11.46,10.21s-9.35-1.58-13.34-3.71-13.55-5-20-1.88-11.84,8-12.81,8.44-4.81-1.29-4.81-2.82S166,118.58,168.52,116.15Z" fill="#58a484"/>
</svg>
