<svg xmlns="http://www.w3.org/2000/svg" width="480" height="380" viewBox="0 0 480 380">
  <g transform="rotate(3 240 190)">
    <rect x="40" y="40" width="400" height="300" rx="12" ry="12" fill="#456bd9"/>
    <g fill="#fff">
      <rect x="60" y="126" width="75" height="29" rx="3" ry="3"/>
      <rect x="60" y="168" width="75" height="29" rx="3" ry="3"/>
      <rect x="60" y="210" width="75" height="29" rx="3" ry="3"/>
      <rect x="155" y="60" width="75" height="53" rx="3" ry="3"/>
      <rect x="155" y="126" width="75" height="97" rx="3" ry="3"/>
      <rect x="155" y="236" width="75" height="53" rx="3" ry="3"/>
      <rect x="250" y="60" width="75" height="29" rx="3" ry="3"/>
      <rect x="250" y="102" width="75" height="97" rx="3" ry="3"/>
      <rect x="345" y="60" width="75" height="53" rx="3" ry="3"/>
      <rect x="345" y="126" width="75" height="29" rx="3" ry="3"/>
      <rect x="345" y="168" width="75" height="29" rx="3" ry="3"/>
      <rect x="345" y="210" width="75" height="97" rx="3" ry="3"/>
    </g>
    <g fill="#dbe5ea">
      <path d="M60,150h75a0,0,0,0,1,0,0v5a3,3,0,0,1-3,3H63a3,3,0,0,1-3-3v-5a0,0,0,0,1,0,0Z"/>
      <path d="M60,192h75a0,0,0,0,1,0,0v5a3,3,0,0,1-3,3H63a3,3,0,0,1-3-3v-5a0,0,0,0,1,0,0Z"/>
      <path d="M60,234h75a0,0,0,0,1,0,0v5a3,3,0,0,1-3,3H63a3,3,0,0,1-3-3v-5a0,0,0,0,1,0,0Z"/>
      <path d="M155,108h75a0,0,0,0,1,0,0v5a3,3,0,0,1-3,3H158a3,3,0,0,1-3-3v-5A0,0,0,0,1,155,108Z"/>
      <path d="M155,218h75a0,0,0,0,1,0,0v5a3,3,0,0,1-3,3H158a3,3,0,0,1-3-3v-5A0,0,0,0,1,155,218Z"/>
      <path d="M155,284h75a0,0,0,0,1,0,0v5a3,3,0,0,1-3,3H158a3,3,0,0,1-3-3v-5A0,0,0,0,1,155,284Z"/>
      <path d="M250,84h75a0,0,0,0,1,0,0v5a3,3,0,0,1-3,3H253a3,3,0,0,1-3-3V84A0,0,0,0,1,250,84Z"/>
      <path d="M250,194h75a0,0,0,0,1,0,0v5a3,3,0,0,1-3,3H253a3,3,0,0,1-3-3v-5A0,0,0,0,1,250,194Z"/>
      <path d="M345,108h75a0,0,0,0,1,0,0v5a3,3,0,0,1-3,3H348a3,3,0,0,1-3-3v-5A0,0,0,0,1,345,108Z"/>
      <path d="M345,150h75a0,0,0,0,1,0,0v5a3,3,0,0,1-3,3H348a3,3,0,0,1-3-3v-5A0,0,0,0,1,345,150Z"/>
      <path d="M345,192h75a0,0,0,0,1,0,0v5a3,3,0,0,1-3,3H348a3,3,0,0,1-3-3v-5A0,0,0,0,1,345,192Z"/>
      <path d="M345,302h75a0,0,0,0,1,0,0v5a3,3,0,0,1-3,3H348a3,3,0,0,1-3-3v-5A0,0,0,0,1,345,302Z"/>
    </g>
    <rect x="60" y="60" width="75" height="53" rx="3" ry="3" fill="#f14ca3"/>
    <path d="M60,108h75a0,0,0,0,1,0,0v5a3,3,0,0,1-3,3H63a3,3,0,0,1-3-3v-5a0,0,0,0,1,0,0Z" fill="#cc2bae"/>
    <g fill="#fff">
      <path d="M86.16,91A9.42,9.42,0,0,1,82,86.07a4,4,0,0,1,1.12-2.16c1-1.19,13.11-14.32,18.23-16.57A25.38,25.38,0,0,0,97.33,67C82.21,67,80.76,77.8,80.76,77.8S71.58,80.61,71.58,89c0,12,14.77,12.57,14.77,12.57a33,33,0,0,0,4.67-.17,2.79,2.79,0,0,0,1.92-1.53c.89-2.16,2.16-5.59,3.41-9.2C91.45,90.89,86.7,91.13,86.16,91Z"/>
      <path d="M123.42,86.44c0-10.6-10.39-11.75-10.39-11.75a13.2,13.2,0,0,0-4.62-4.75c-.93,3.3-3.33,12.12-3.46,13.78h3.63s.58,0,.43.71c-.35,1.62-1.25,5.57-3.2,5.7l-2.55.15c-.71,2.92-1.47,6-2,8.16a10.15,10.15,0,0,0,6.48,2A9.91,9.91,0,0,0,115,97.76C123.72,96.29,123.42,86.44,123.42,86.44Z"/>
      <path d="M101.58,73.18A91.43,91.43,0,0,0,90.8,84.28l7.8-.3c1.6-4.49,3-8.49,3.59-10.24A.65.65,0,0,0,101.58,73.18Z"/>
    </g>
  </g>
</svg>
