<svg xmlns="http://www.w3.org/2000/svg" width="480" height="400" viewBox="0 10 480 400">
  <g fill="#e1c62e">
    <path d="M311.3,278.59c-73,.31-132.32-49-132.63-122S237.29,33.75,310.25,33.44s132.32,49,132.63,122S384.26,278.28,311.3,278.59Z"/>
    <path d="M480,243.25s-46-8-52.79-46.32l-24.65,35.5s9,15.09,38.35,17.8S480,243.25,480,243.25Z"/>
  </g>
  <g fill="#fff">
    <path d="M308.31,67.3c-32.13,0-56.49,24.57-56.49,56.91,0,19.86,8.63,31.32,17.81,43.6,2.47,3.28,5.12,6.75,7.57,10.44.62.81,2.66,4.71,5.32,18.83a21,21,0,0,0,20.47,17h10.44a20.84,20.84,0,0,0,20.44-17c2.66-13.92,4.93-17.81,5.32-18.83,2.47-3.7,5.12-7.16,7.57-10.44,9.21-12.08,17.81-23.74,17.81-43.6C364.8,91.84,340.44,67.3,308.31,67.3Zm-10.18,39.09a11.75,11.75,0,0,0,8,2,31.73,31.73,0,0,0,7.16-1.43c1,.62,2,1.23,2.86,1.64,2.47,1.23,8.63,2.26,11.27,2.66l-11.46,61.41h-15l-11.67-65.1C291.1,107.21,296.63,106.81,298.12,106.39Zm-.81-7.78a3.7,3.7,0,0,1,2.86-2h.41a4.93,4.93,0,0,1,1.84.41,1.85,1.85,0,0,1,1.23,1.23,2.27,2.27,0,0,1-.81,2.66,10.81,10.81,0,0,1-4.3,2.47,3.6,3.6,0,0,1-.81-1,4.77,4.77,0,0,1-.47-3.7Zm15.35.81A2.47,2.47,0,0,1,314.85,98h.21a2,2,0,0,1,1.84,2.21v0a4.33,4.33,0,0,1-.81,2,10.69,10.69,0,0,1-2.26,1.64h0a2.82,2.82,0,0,1-.62-.81,3.22,3.22,0,0,1-.62-3.7Zm25.79,62c-2.66,3.48-5.32,7-7.78,10.85l-.21.21H319l11.41-60.94c.41-1.84.71-2.22-1.12-2.47a20.82,20.82,0,0,0-2.34-.25,62.77,62.77,0,0,1-9.86-2.47,4.47,4.47,0,0,1-1-.62,13.24,13.24,0,0,0,1.86-1.6,6,6,0,0,0,1.64-3.9,4.88,4.88,0,0,0-9.42-1.86,6.58,6.58,0,0,0,.81,6.35.2.2,0,0,0,.18.21h0a24.11,24.11,0,0,1-5.12.81,13,13,0,0,1-4.71-.62,8.89,8.89,0,0,0,3.48-2.47A4.93,4.93,0,0,0,306.25,97a5.6,5.6,0,0,0-2.65-2.66,7.88,7.88,0,0,0-3.7-.41,6.41,6.41,0,0,0-5.12,3.7,6.58,6.58,0,0,0,.81,6.35c0,.21.21.21.21.41l-3.7.62c-2.76.64-2.23.53-3.46.74-1.84.41-2.88.09-2.47,1.92l11.46,65.1H286.18a.2.2,0,0,0-.18-.21h0c-2.66-3.9-5.32-7.4-7.78-10.85-8.8-11.67-15.56-20.88-15.56-37.05,0-26.4,19.65-46.05,45.61-46.05s45.61,19.86,45.61,46.05c.1,16-6.66,25.16-15.46,36.83Z"/>
    <path d="M323.25,219.61H294.8a4.71,4.71,0,0,0,0,9.42h28.45a4.63,4.63,0,0,0,4.71-4.56s0-.1,0-.15A4.76,4.76,0,0,0,323.25,219.61Z"/>
    <path d="M321.2,232.91H296.63a4.71,4.71,0,0,0,0,9.42H321.2a4.71,4.71,0,0,0,0-9.42Z"/>
  </g>
  <g fill="#4cbb88">
    <path d="M157,386.55C91.15,387.17,37.35,342.91,36.73,277S89.08,165.92,154.94,165.31,274.61,209,275.22,274.82,222.87,385.94,157,386.55Z"/>
    <path d="M0,348.48s40.34-5.67,47.32-39l20.55,31.64s-8.28,12.92-33.93,14.46S0,348.48,0,348.48Z"/>
  </g>
  <g fill="none" stroke="#fff" stroke-linecap="round" stroke-linejoin="round" stroke-width="12">
    <polyline points="193.39 250.89 218.18 276.31 192.77 301.1"/>
    <polyline points="114.51 249.92 89.09 274.7 113.88 300.12"/>
    <line x1="168.74" y1="237.13" x2="139.72" y2="313.89"/>
  </g>
</svg>
