<svg xmlns="http://www.w3.org/2000/svg" viewBox="0 0 295.43 152.26">
<path d="M215.77,133.22l-15.56,8.69-80.47,6.55a4,4,0,0,1-4.35-3.7l-4.48-55-4.48-55a4,4,0,0,1,3.7-4.35l80.58-6.56,16.37,4.8c2.08,0.76,2.31.88,3.1,1.55A4,4,0,0,1,211.59,33l3.93,48.28,3.82,46.94a4,4,0,0,1-1,2.94A7.52,7.52,0,0,1,215.77,133.22Z" transform="translate(-2.28 -23.87)" fill="#92999b"/>
<rect x="110.77" y="27.01" width="87.47" height="118.42" rx="3" ry="3" transform="translate(-8.77 -11.05) rotate(-4.65)" fill="#aab2b5"/>
<rect x="103.07" y="27.34" width="94.19" height="104.96" rx="3" ry="3" transform="matrix(1, -0.08, 0.08, 1, -8.27, -11.42)" fill="#dbe5ea"/>
<rect x="110.84" y="34.63" width="75.36" height="60.55" rx="3" ry="3" transform="translate(-7.06 -11.6) rotate(-4.65)" fill="#92999b"/>
<rect x="137.04" y="106.62" width="30.95" height="4.04" rx="1" ry="1" transform="translate(-10.6 -11.13) rotate(-4.65)" fill="#92999b"/>
<rect x="118.33" y="37.15" width="64.59" height="55.17" rx="3" ry="3" transform="translate(-7.04 -11.43) rotate(-4.65)" fill="#0f1c3f"/>
<path d="M135,163.49a8.48,8.48,0,0,1-8.39,8.56c-4.64,0-8.39-1.95-8.39-8.56A8.4,8.4,0,1,1,135,163.49Z" transform="translate(-2.28 -23.87)" fill="#fff"/>
<path d="M128.91,176.13a9.14,9.14,0,1,1,9-9.14A9.07,9.07,0,0,1,128.91,176.13Zm0-17.12a8,8,0,1,0,7.82,8A7.91,7.91,0,0,0,128.91,159Z" transform="translate(-2.28 -23.87)" fill="#92999b"/>
<path d="M158,159.92c0,4-1.57,7-5.51,7s-8.76-3-8.76-7A7.14,7.14,0,1,1,158,159.92Z" transform="translate(-2.28 -23.87)" fill="#fff"/>
<path d="M149.47,165.75a7.69,7.69,0,1,1,7.62-7.69A7.67,7.67,0,0,1,149.47,165.75Zm0-14.4a6.71,6.71,0,1,0,6.65,6.71A6.69,6.69,0,0,0,149.47,151.35Z" transform="translate(-2.28 -23.87)" fill="#92999b"/>
<path d="M184.72,167.35c0,4.73-3.76,6.68-8.39,6.68s-8.39-1.95-8.39-6.68a8.48,8.48,0,0,1,8.39-8.56C181,158.79,184.72,161.19,184.72,167.35Z" transform="translate(-2.28 -23.87)" fill="#fff"/>
<path d="M174.78,172.89a9.14,9.14,0,1,1,9-9.14A9.07,9.07,0,0,1,174.78,172.89Zm0-17.12a8,8,0,1,0,7.82,8A7.91,7.91,0,0,0,174.78,155.78Z" transform="translate(-2.28 -23.87)" fill="#92999b"/>
<path d="M210.52,165.51a9.64,9.64,0,0,1-9.55,9.73c-4.09,0-9.55-4.36-9.55-9.73s1.64-11.48,9.55-9.73C206.13,156.92,210.52,160.14,210.52,165.51Z" transform="translate(-2.28 -23.87)" fill="#fff"/>
<path d="M200.33,171.49a10.4,10.4,0,1,1,10.2-10.4A10.31,10.31,0,0,1,200.33,171.49Zm0-19.47a9.07,9.07,0,1,0,8.89,9.07A9,9,0,0,0,200.33,152Z" transform="translate(-2.28 -23.87)" fill="#92999b"/>
<rect x="15.48" y="73.93" width="83.73" height="16.15" rx="6" ry="6" transform="translate(-3.67 139.15) rotate(-109.09)" fill="#aab2b5"/>
<path d="M68.41,122.69a8.8,8.8,0,0,1-8.28-5.89L38,52.94a8.75,8.75,0,1,1,16.53-5.72l22.1,63.86A8.75,8.75,0,0,1,68.41,122.69Zm-22.13-80a7.41,7.41,0,0,0-7,9.82l22.1,63.86a7.4,7.4,0,0,0,14-4.84L53.29,47.66A7.45,7.45,0,0,0,46.28,42.67Z" transform="translate(-2.28 -23.87)" fill="#456bd9"/>
<rect x="61.08" y="107.36" width="63.54" height="16.15" rx="6" ry="6" transform="translate(-17.35 -9.92) rotate(-7.95)" fill="#aab2b5"/>
<path d="M69.38,127.46a8.75,8.75,0,0,1-1.2-17.41l46.94-6.55a8.75,8.75,0,0,1,2.42,17.33l-46.94,6.55A8.86,8.86,0,0,1,69.38,127.46Zm46.95-22.7a7.36,7.36,0,0,0-1,.07l-46.94,6.55a7.4,7.4,0,0,0,2,14.66l46.94-6.55A7.4,7.4,0,0,0,116.33,104.76Z" transform="translate(-2.28 -23.87)" fill="#456bd9"/>
<circle cx="69.75" cy="118.34" r="5.02" transform="translate(-17.97 -13.09) rotate(-7.95)" fill="#fff"/>
<circle cx="115.38" cy="111.97" r="5.02" transform="translate(-16.66 -6.84) rotate(-7.95)" fill="#fff"/>
<rect x="2.37" y="42.75" width="51.31" height="16.15" rx="6" ry="6" transform="matrix(0.97, -0.26, 0.26, 0.97, -14.4, -14.97)" fill="#aab2b5"/>
<path d="M11,64.09a8.75,8.75,0,0,1-2.25-17.2l34-9a8.75,8.75,0,1,1,4.49,16.91l-34,9A8.74,8.74,0,0,1,11,64.09ZM45,38.9a7.38,7.38,0,0,0-1.9.25l-34,9a7.4,7.4,0,1,0,3.8,14.3l34-9A7.4,7.4,0,0,0,45,38.9Z" transform="translate(-2.28 -23.87)" fill="#456bd9"/>
<circle cx="44.66" cy="46.4" r="5.02" transform="translate(-12.7 -10.84) rotate(-14.88)" fill="#fff"/>
<rect x="2.94" y="54.59" width="16.45" height="1.35" transform="translate(-16.36 -19.02) rotate(-15.18)" fill="#456bd9"/>
<rect x="203.85" y="66.79" width="83.73" height="16.15" rx="6" ry="6" transform="translate(105.93 267.96) rotate(-74.58)" fill="#aab2b5"/>
<path d="M236.73,116.18a8.75,8.75,0,0,1-8.43-11.07l18-65.15a8.75,8.75,0,0,1,16.87,4.65l-18,65.15A8.77,8.77,0,0,1,236.73,116.18Zm10.84-75.86-18,65.15a7.4,7.4,0,0,0,14.27,3.94l18-65.15a7.4,7.4,0,1,0-14.27-3.94h0Z" transform="translate(-2.28 -23.87)" fill="#456bd9"/>
<rect x="181.78" y="100.56" width="63.54" height="16.15" rx="6" ry="6" transform="translate(431.02 180.23) rotate(176.52)" fill="#aab2b5"/>
<path d="M189.89,118.82a8.75,8.75,0,0,1-.53-17.48l47.31-2.88a8.78,8.78,0,0,1,9.26,8.2,8.77,8.77,0,0,1-8.2,9.26l-47.31,2.88Zm47.32-19h-0.45l-47.31,2.88a7.4,7.4,0,1,0,.9,14.77l47.31-2.88A7.4,7.4,0,0,0,237.21,99.8Z" transform="translate(-2.28 -23.87)" fill="#456bd9"/>
<circle cx="236.79" cy="107.22" r="5.02" transform="translate(-8.36 -9.28) rotate(-3.48)" fill="#fff"/>
<circle cx="190.8" cy="110.02" r="5.02" transform="translate(-8.62 -12.07) rotate(-3.48)" fill="#fff"/>
<rect x="245.94" y="31.52" width="51.31" height="16.15" rx="6" ry="6" transform="translate(543.77 12.99) rotate(171.13)" fill="#aab2b5"/>
<path d="M254.22,51.05a8.75,8.75,0,0,1-1.34-17.39l34.74-5.42a8.75,8.75,0,0,1,2.7,17.28l-34.74,5.42A8.82,8.82,0,0,1,254.22,51.05ZM289,29.48a7.41,7.41,0,0,0-1.14.09L253.08,35a7.4,7.4,0,0,0,2.28,14.62l34.74-5.42A7.4,7.4,0,0,0,289,29.48Z" transform="translate(-2.28 -23.87)" fill="#456bd9"/>
<circle cx="254.59" cy="42.25" r="5.02" transform="translate(-5.75 15.88) rotate(-8.87)" fill="#fff"/>
<line x1="278.75" y1="14.22" x2="294.99" y2="11.6" fill="#d1c6c6"/>
<rect x="280.93" y="36.1" width="16.45" height="1.35" transform="translate(-4.44 22.91) rotate(-9.21)" fill="#456bd9"/>
<path d="M134.82,49.61a54.77,54.77,0,0,1,4.31,11.94l-3,1a60.05,60.05,0,0,0-4.22-12Zm33.62,0.54a1.1,1.1,0,0,1-1.17.58c-4.71,15.84-12.07,25.54-26.12,31.69A21.14,21.14,0,0,0,139,80c13.73-5.79,20.78-14.81,25.23-31.15ZM149,47.05a75.33,75.33,0,0,1,2.38,12.75l-3.19.49a73.82,73.82,0,0,0-2.33-12.7Z" transform="translate(-2.28 -23.87)" fill="#fff"/>
</svg>