<svg xmlns="http://www.w3.org/2000/svg" viewBox="0 0 280 240">
<path fill="#DBE5EA" d="M182.9,74.3L97.2,86.4c-4,0.6-7.8-1.9-8.5-5.5L78.4,22.4c-0.6-3.6,2.1-7,6.2-7.6l85.7-12.2
	c4-0.6,7.8,1.9,8.5,5.5l10.3,58.5C189.7,70.3,186.9,73.7,182.9,74.3z"/>
<path fill="#ffffff" d="M116.3,33c3.3,11.8-0.2,22.1-7.7,22.9S92.5,47.8,89.2,36s0.2-22.1,7.7-22.9C104.4,12.3,113.1,21.2,116.3,33z"/>
<path fill="#456BD9" d="M107.7,58c-8.2,0-17-9.1-20.4-21.5c-2.2-8.1-1.6-15.8,1.7-20.6c1.9-2.8,4.5-4.4,7.6-4.8
	c8.5-0.9,18,8.5,21.6,21.4l0,0c2.2,8.1,1.6,15.8-1.7,20.6c-1.9,2.8-4.5,4.4-7.6,4.8C108.5,58,108.1,58,107.7,58z M97.9,15
	c-0.3,0-0.5,0-0.8,0c-1.9,0.2-3.5,1.2-4.8,3c-2.6,3.8-3.1,10.5-1.2,17.3c2.9,10.7,10.9,19.2,17.3,18.5c1.9-0.2,3.5-1.2,4.8-3.1
	c2.6-3.8,3.1-10.5,1.2-17.3l0,0C111.6,23.3,104.1,15,97.9,15z"/>
<path fill="#456BD9" d="M130.1,71.4c2.9,3.3,8,4.1,12,2c5.1-2.7,5.3-9.2,1.1-12.7c-1.7-1.4-4.7,1.1-3,2.7c2.3,2,2.4,5.2,0.2,7.3
	c-0.2,0.2-0.4,0.3-0.6,0.5c-2.5,1.4-5.8,0.9-7.6-1.1c-0.4-0.5-1.2-0.6-1.8-0.2C129.8,70.2,129.7,70.9,130.1,71.4L130.1,71.4z"/>
<path fill="#ffffff" d="M144.6,3.9c7.2-2,15,6.1,17.4,18.1c2.4,12-1.4,23.3-8.6,25.4c-7.2,2-15-6.1-17.4-18.1
	C133.6,17.3,137.4,5.9,144.6,3.9z"/>
<path fill="#456BD9" d="M151.1,49.7c-2.1,0-4.2-0.6-6.2-1.9c-5.2-3.2-9.2-9.9-10.9-18.1c-2.7-13.2,1.8-25.4,10.1-27.7
	c2.9-0.8,6.1-0.3,9,1.5c5.2,3.2,9.3,9.9,10.9,18.1c2.7,13.2-1.8,25.4-10.1,27.7C153,49.5,152.1,49.7,151.1,49.7z M146.9,5.6
	c-0.6,0-1.1,0.1-1.7,0.2l0,0c-6.1,1.7-9.4,12.2-7.2,23c1.4,7,4.9,12.9,9.1,15.5c2,1.2,4,1.6,5.8,1.1c6.1-1.7,9.4-12.2,7.2-23
	c-1.4-7-4.9-12.9-9.1-15.5C149.6,6,148.2,5.6,146.9,5.6z"/>
<path fill="#EF8D43" d="M165.1,199c0.4-4.7-2-8.5-4.6-12c-0.7-1-2-1.3-3-0.5c-0.1,0.1-0.2,0.2-0.4,0.3l-0.1,0
	c-12.8,0.5-25.4-3.7-38.2-2.2c-0.3-0.3-0.8-0.4-1.2-0.1l-0.7,0.4l-0.1,0.1c-4,2.7-8.2,6.1-8.7,11.3c-0.6,5.4,2.6,9.8,6.3,13.2
	c0.9,0.8,2.6,1,3.4-0.1l0.1-0.2c0.4-0.1,0.7-0.3,0.8-0.7c0.3-0.7,0.6-1.4,0.9-2.1c0.5,10.2,6.3,19.1,15.2,23.3
	c0.9,0.5,2.1,0.3,2.8-0.5c1.9,1.8,3.4,4,4.3,6.5c0.8,2.4,4.5,1.1,3.6-1.2l-0.2-0.5c10.7-4.6,11.8-17.6,9.5-27.8
	c0.9,0.8,1.6,1.7,2.1,2.8c0.8,1.7,3,0.7,3.2-0.9C162.9,205.9,164.7,202.6,165.1,199z"/>
<path fill="#FFDE52" d="M152.7,197.1c0-1.9-0.5-3.8-1.3-5.4c-0.4-0.8-0.8-1.5-1.3-2.2c-0.6-1.1-1.7-1.8-2.9-1.8c-0.5,0-1,0.2-1.3,0.5
	c-1.3-2.7-3.6-4.7-6.4-5.5c-1.4-0.3-2.9,0.7-3.2,2.2c-1.6,0.3-3.2,1-4.5,2.1c-0.3,0-0.6,0.1-0.8,0.3l-0.1-0.2
	c-0.4-1.1-1.4-1.8-2.5-1.8c-0.8,0-1.7,0.3-2.4,0.8c-1.9,0.9-3.4,2.5-4.4,4.4c-0.8,1.7-1.9,5.2-0.3,6.6c1.9,1.6,5.1-0.8,6.5-2.1
	l0.1-0.1l0.1,0.2c-0.7,5.7,1.5,11.5,5.3,16.1c0.2,0.3,0.5,0.5,0.9,0.5c1.9,2.9,3.5,6,5.1,9.1c0.7,1.5,3.3,0.3,2.7-1.3
	c-0.2-0.4-0.3-0.8-0.5-1.2c0.2-0.2,0.3-0.5,0.3-0.9c-0.5-4.8,3.7-7.7,5.4-11.9c1-2.6,1.4-5.4,1.3-8.1c0.5,0.3,0.9,0.7,1.3,1.1
	c0.8,0.7,1.9,0.6,2.6-0.2C152.5,198,152.7,197.6,152.7,197.1z"/>
<path fill="#ffffff" d="M183.4,205.9c-4.3,0.5-7.5,5.4-4.8,9.4c3.2,4.8,10.9,4.7,13-1C193.4,209.5,188.4,204.2,183.4,205.9z"/>
<path fill="#ffffff" d="M217.9,216.9c-0.9-2-3.1-3-5.1-2.3c-2,0.6-3.3,2.4-3.3,4.5c0.1,2.3,2,4.2,4.3,4.2c2.4,0,4.3-1.9,4.3-4.3
	c0,0,0,0,0,0C218.2,218.2,218.1,217.5,217.9,216.9z"/>
<path fill="#DBE5EA" d="M171.3,187.8l-66.1,2.3c-6.8,0-9.8-7.6-12.4-15.6l-3.4-28.7c-5.6-49,36.5-56.6,43.3-56.6h6.3
	c12.6-0.2,54.3,9.6,49.2,54l-4.5,31.3C181.3,182.3,178.1,187.8,171.3,187.8z"/>
<path fill="#9CAAB1" d="M90.6,155.3c2.9,1.2,9.7,2.5,20,2.9c3.8-22.1,4.6-47.4-8.8-55.1c-8.5,8.5-14.7,21.8-12.4,42.7L90.6,155.3z"/>
<path fill="#9CAAB1" d="M96.2,167.4c-1.7-0.3-3.1-0.6-4.3-1l1,8c0.9,9.3,5.1,14.8,10.9,15.5c1.4-4.7,3.1-13.8,4.8-21.3
	C103.9,168.5,99.7,168,96.2,167.4z"/>
<path fill="#9CAAB1" d="M110.2,160.6c-5.2-0.2-10.1-0.7-14-1.4c-2.3-0.4-4-0.8-5.3-1.3l0.7,6c3.1,1,9.1,2,17.5,2.4
	C109.5,164.5,109.8,162.5,110.2,160.6z"/>
<path fill="#9CAAB1" d="M166.3,163.5c0.1,1.9,0.2,3.8,0.3,5.9c9.1-0.4,15.3-1.6,18.2-2.7l0.9-6.1c-1.4,0.5-3.4,1.1-6.2,1.6
	C175.8,162.8,171.3,163.2,166.3,163.5z"/>
<path fill="#9CAAB1" d="M186.1,157.8l2.1-14.6c1.6-14,0.6-24-7-32.9c-7.2-2.5-16.1,13.1-15,50.8C177.3,160.6,184.1,159,186.1,157.8z"/>
<path fill="#9CAAB1" d="M179.6,170.4c-3.6,0.6-8,1.1-12.8,1.3c0.4,5,0.9,10.3,1.7,16.1h2.9c6.8,0,10-5.5,12.4-13.3l0.8-5.3
	C183.2,169.6,181.6,170,179.6,170.4z"/>
<path fill="#C18BBD" d="M245.4,56c-5.4,13.9-17.1,44.3-21.9,55.9c-1.6,3.8-4.7,8.5-6.5,9.4c-7.9-0.1-15.7-2-22-3.5
	c-5.9-1.4-10.5-2.5-14.1-2c-1.1,0-3.3,3.4-3.3,6c0,2.6,2.8,6.4,3.9,6.4c1.7-0.2,7.4,0,11.4,0.9c7.1,1.7,28.9,1.8,28.9,1.8
	c2.1,0,6.9-7.7,10.8-14.7c4.8-8.6,23.7-40.3,30.3-51.1C252.3,64.2,245.4,56,245.4,56z"/>
<path fill="#DBE5EA" d="M249.4,64.6c-6.7-4.5-9.4-13-6.5-20.5c1.1-2.8,2.9-5.3,5.3-7.2l4.4,5.9c-1.3,1-2.3,2.4-2.9,3.9
	c-0.9,2.4-0.9,5.1,0.2,7.5c2.2,5,8,7.2,13,5l12.1-2.8c-3.4,8.8-13.4,13.3-22.2,9.8c0,0,0,0-0.1,0C251.7,65.9,250.5,65.3,249.4,64.6z
	"/>
<path fill="#9CAAB1" d="M273.7,59.4c0.6-0.9,1.1-1.9,1.4-2.9c1.1-2.8,1.4-5.9,0.9-8.9l-7.3,1.4c0.3,1.6,0.1,3.3-0.5,4.9
	c-0.9,2.4-2.8,4.4-5.2,5.4c-2.4,1-5.1,1.1-7.5,0.2c-0.4-0.2-0.8-0.3-1.1-0.5C260.3,62.6,267.6,62.8,273.7,59.4z"/>
<path fill="#C18BBD" d="M34.1,56.7c6.1,13.3,18,45,22.8,56.6c1.6,3.8,4.7,8.5,6.5,9.4c7.9-0.1,15.7-2,22-3.5c5.9-1.4,10.5-2.5,14.1-2
	c1.1,0,3.3,3.4,3.3,6c0,2.6-2.8,6.4-3.9,6.4c-1.7-0.2-7.4,0-11.4,0.9c-7.1,1.7-28.9,1.8-28.9,1.8c-2.1,0-6.9-7.7-10.8-14.7
	c-4.8-8.6-23.7-40.3-30.3-51.1C28.1,65.6,34.1,56.7,34.1,56.7z"/>
<path fill="#DBE5EA" d="M29,67.1C28.9,67.1,28.9,67.1,29,67.1c-8.4,4.5-18.8,1.3-23.3-7.1L18,61.3c5.2,1.6,10.7-1.3,12.3-6.5
	c0.8-2.5,0.5-5.2-0.7-7.5c-0.8-1.5-1.9-2.7-3.3-3.6l3.7-6.4c2.6,1.6,4.7,3.8,6.1,6.5c3.7,7.1,2.1,15.9-4,21.1
	C31.2,65.8,30.1,66.5,29,67.1z"/>
<path fill="#9CAAB1" d="M26.5,59.9c-0.3,0.2-0.7,0.5-1,0.6c-2.3,1.2-5,1.5-7.5,0.7c-2.5-0.8-4.6-2.5-5.8-4.8c-0.8-1.5-1.2-3.1-1.1-4.8
	l-7.4-0.5c-0.2,3,0.5,6.1,1.9,8.8c0.5,1,1.1,1.9,1.8,2.7C13.9,65.3,21.2,64.2,26.5,59.9z"/>
</svg>
