<svg xmlns="http://www.w3.org/2000/svg" viewBox="0 0 274.34 131.24">
  <rect x="30.53" y="89.03" width="71.35" height="13.76" rx="6" ry="6" transform="translate(-22.06 144.96) rotate(-109.09)" fill="#aab2b5"/>
	<path d="M75.64,130.58a7.5,7.5,0,0,1-7.05-5L49.75,71.14a7.45,7.45,0,1,1,14.09-4.88l18.84,54.43A7.46,7.46,0,0,1,75.64,130.58ZM56.78,62.4a6.32,6.32,0,0,0-5.95,8.37l18.84,54.43a6.31,6.31,0,0,0,11.92-4.13L62.75,66.64A6.35,6.35,0,0,0,56.78,62.4Z" transform="translate(-19.28 -44.89)" fill="#456bd9"/>
	<path d="M76.46,134.65a7.45,7.45,0,0,1-1-14.84l40-5.58A7.45,7.45,0,0,1,117.5,129l-40,5.58A7.55,7.55,0,0,1,76.46,134.65Zm40-19.35a6.27,6.27,0,0,0-.88.06l-40,5.58a6.31,6.31,0,0,0,1.74,12.49l40-5.58A6.31,6.31,0,0,0,116.47,115.31Z" transform="translate(-19.28 -44.89)" fill="#456bd9"/>
	<path d="M121.5,125.41a6.3,6.3,0,0,0-5.9-10l-40,5.58a6.31,6.31,0,0,0,1.74,12.49l40-5.58A6.26,6.26,0,0,0,121.5,125.41Z" transform="translate(-19.28 -44.89)" fill="#aab2b5"/>
	<circle cx="76.78" cy="126.88" r="4.28" transform="translate(-36.09 -33.06) rotate(-7.95)" fill="#fff"/>
	<path d="M26.74,80.64A7.45,7.45,0,0,1,24.82,66l29-7.7a7.45,7.45,0,1,1,3.83,14.41l-29,7.7A7.45,7.45,0,0,1,26.74,80.64Zm29-21.46a6.29,6.29,0,0,0-1.62.21l-29,7.7a6.31,6.31,0,1,0,3.24,12.19l29-7.7A6.31,6.31,0,0,0,55.7,59.18Z" transform="translate(-19.28 -44.89)" fill="#456bd9"/>
	<path d="M61.8,63.87a6.3,6.3,0,0,0-7.72-4.48l-29,7.7a6.31,6.31,0,0,0,3.24,12.19l29-7.7A6.31,6.31,0,0,0,61.8,63.87Z" transform="translate(-19.28 -44.89)" fill="#aab2b5"/>
	<circle cx="55.4" cy="65.57" r="4.28" transform="matrix(0.97, -0.26, 0.26, 0.97, -34.27, -28.46)" fill="#fff"/>
	<rect x="19.85" y="72.55" width="14.02" height="1.15" transform="matrix(0.97, -0.26, 0.26, 0.97, -37.49, -35.31)" fill="#456bd9"/>
	<path d="M203.34,139.56L190.08,147l-68.58,5.58a3.45,3.45,0,0,1-3.71-3.15L114,102.53l-3.82-46.86A3.45,3.45,0,0,1,113.31,52L182,46.37l13.95,4.09a6.45,6.45,0,0,1,2.64,1.32,3.43,3.43,0,0,1,1.2,2.34l3.35,41.15,3.26,40a3.43,3.43,0,0,1-.81,2.5A6.41,6.41,0,0,1,203.34,139.56Z" transform="translate(-19.28 -44.89)" fill="#92999b"/>
	<rect x="113.85" y="49.05" width="74.54" height="100.92" rx="3" ry="3" transform="translate(-26.86 -32.3) rotate(-4.65)" fill="#aab2b5"/>
	<rect x="107.29" y="49.33" width="80.28" height="89.45" rx="3" ry="3" transform="translate(-26.43 -32.62) rotate(-4.65)" fill="#dbe5ea"/>
	<rect x="113.91" y="55.54" width="64.22" height="51.61" rx="3" ry="3" transform="translate(-25.4 -32.78) rotate(-4.65)" fill="#92999b"/>
	<rect x="154.14" y="116.89" width="26.38" height="3.44" rx="1" ry="1" transform="translate(-28.36 -30.93) rotate(-4.65)" fill="#92999b"/>
	<rect x="120.3" y="57.69" width="55.05" height="47.02" rx="3" ry="3" transform="translate(-25.39 -32.63) rotate(-4.65)" fill="#0f1c3f"/>
	<path d="M134.51,165.36a7.22,7.22,0,0,1-7.15,7.29c-4,0-7.15-1.66-7.15-7.29A7.15,7.15,0,1,1,134.51,165.36Z" transform="translate(-19.28 -44.89)" fill="#fff"/>
	<path d="M129.31,176.13a7.79,7.79,0,1,1,7.64-7.79A7.73,7.73,0,0,1,129.31,176.13Zm0-14.59a6.8,6.8,0,1,0,6.67,6.8A6.74,6.74,0,0,0,129.31,161.54Z" transform="translate(-19.28 -44.89)" fill="#92999b"/>
	<path d="M154.14,162.31c0,3.39-1.34,6-4.7,6s-7.46-2.58-7.46-6A6.08,6.08,0,1,1,154.14,162.31Z" transform="translate(-19.28 -44.89)" fill="#fff"/>
	<path d="M146.83,167.29a6.56,6.56,0,1,1,6.5-6.56A6.53,6.53,0,0,1,146.83,167.29Zm0-12.27a5.72,5.72,0,1,0,5.67,5.72A5.7,5.7,0,0,0,146.83,155Z" transform="translate(-19.28 -44.89)" fill="#92999b"/>
	<path d="M176.87,168.65c0,4-3.2,5.69-7.15,5.69s-7.15-1.66-7.15-5.69a7.22,7.22,0,0,1,7.15-7.29C173.67,161.35,176.87,163.4,176.87,168.65Z" transform="translate(-19.28 -44.89)" fill="#fff"/>
	<path d="M168.4,173.37a7.79,7.79,0,1,1,7.64-7.79A7.73,7.73,0,0,1,168.4,173.37Zm0-14.59a6.8,6.8,0,1,0,6.67,6.8A6.74,6.74,0,0,0,168.4,158.79Z" transform="translate(-19.28 -44.89)" fill="#92999b"/>
	<path d="M198.87,167.08a8.22,8.22,0,0,1-8.14,8.29c-3.49,0-8.14-3.71-8.14-8.29s1.4-9.78,8.14-8.29C195.12,159.76,198.87,162.5,198.87,167.08Z" transform="translate(-19.28 -44.89)" fill="#fff"/>
	<path d="M190.18,172.17a8.86,8.86,0,1,1,8.69-8.86A8.79,8.79,0,0,1,190.18,172.17Zm0-16.59a7.73,7.73,0,1,0,7.58,7.73A7.66,7.66,0,0,0,190.18,155.58Z" transform="translate(-19.28 -44.89)" fill="#92999b"/>
	<rect x="213.63" y="77.83" width="71.35" height="13.76" rx="6" ry="6" transform="translate(82.08 257.63) rotate(-74.58)" fill="#aab2b5"/>
	<path d="M241.65,119.93a7.46,7.46,0,0,1-7.18-9.44L249.78,55a7.45,7.45,0,0,1,14.37,4l-15.31,55.52A7.47,7.47,0,0,1,241.65,119.93Zm9.24-64.65-15.31,55.52a6.31,6.31,0,1,0,12.16,3.36L263,58.63a6.31,6.31,0,1,0-12.16-3.35h0Z" transform="translate(-19.28 -44.89)" fill="#456bd9"/>
	<path d="M201.09,121.36a7.45,7.45,0,0,1,.77-14.88l40.38,0.84a7.48,7.48,0,0,1,7.3,7.61,7.48,7.48,0,0,1-7.61,7.3l-40.38-.84Zm41.51-12.87-0.39,0-40.38-.84a6.31,6.31,0,1,0-.26,12.61L242,121.08A6.31,6.31,0,0,0,242.61,108.49Z" transform="translate(-19.28 -44.89)" fill="#456bd9"/>
	<path d="M248.39,114.9a6.32,6.32,0,0,0-5.79-6.42l-0.39,0-40.38-.84a6.31,6.31,0,1,0-.26,12.61L242,121.08A6.31,6.31,0,0,0,248.39,114.9Z" transform="translate(-19.28 -44.89)" fill="#aab2b5"/>
	<circle cx="241.73" cy="114.76" r="4.28" transform="translate(102.68 309.16) rotate(-88.81)" fill="#fff"/>
	<circle cx="202.48" cy="113.95" r="4.28" transform="translate(65.06 269.12) rotate(-88.81)" fill="#fff"/>
	<circle cx="202.45" cy="114.12" r="4.28" transform="translate(64.86 269.26) rotate(-88.81)" fill="#fff"/>
	<path d="M256.56,64.42a7.46,7.46,0,0,1-1.14-14.82L285,45a7.45,7.45,0,0,1,2.3,14.73l-29.61,4.62A7.52,7.52,0,0,1,256.56,64.42ZM286.18,46a6.31,6.31,0,0,0-1,.08l-29.61,4.62a6.31,6.31,0,0,0,1.94,12.46l29.61-4.62A6.31,6.31,0,0,0,286.18,46Z" transform="translate(-19.28 -44.89)" fill="#456bd9"/>
	<path d="M292.4,51.38a6.3,6.3,0,0,0-7.2-5.26l-29.61,4.62a6.31,6.31,0,0,0,1.94,12.46l29.61-4.62A6.33,6.33,0,0,0,292.4,51.38Z" transform="translate(-19.28 -44.89)" fill="#aab2b5"/>
	<circle cx="256.87" cy="56.92" r="4.28" transform="translate(-24.99 -4.62) rotate(-8.87)" fill="#fff"/>
	<line x1="260.12" y1="8.48" x2="273.97" y2="6.24" fill="#d1c6c6"/>
	<rect x="279.32" y="51.68" width="14.02" height="1.15" transform="translate(-23.96 1.63) rotate(-9.21)" fill="#456bd9"/>
	<path d="M134.35,68.31A46.67,46.67,0,0,1,138,78.48l-2.56.84a51.18,51.18,0,0,0-3.6-10.21ZM163,68.77a0.94,0.94,0,0,1-1,.5c-4,13.5-10.29,21.76-22.26,27a18,18,0,0,0-1.84-2.1c11.71-4.93,17.71-12.62,21.5-26.55Zm-16.52-2.64a64.2,64.2,0,0,1,2,10.86l-2.72.42a62.91,62.91,0,0,0-2-10.83Z" transform="translate(-19.28 -44.89)" fill="#fff"/>
</svg>