<svg xmlns="http://www.w3.org/2000/svg" viewBox="0 0 16 16">
  <defs>
    <style>
      .c4Favicon {
        fill: #215cca;
      }
      @media (prefers-color-scheme: light) {
        .c4Favicon {
          fill: #215cca;
        }
      }
      @media (prefers-color-scheme: dark) {
        .c4Favicon {
          fill: #fff;
        }
      }
    </style>
  </defs>
  <path class="c4Favicon" d="M4.94,9.49A2.49,2.49,0,0,1,3.83,8.15a1,1,0,0,1,.3-.59c.28-.33,3.5-3.87,4.93-4.47A6.8,6.8,0,0,0,8,3C3.87,3,3.48,5.92,3.48,5.92S1,6.68,1,8.94c0,3.24,4,3.4,4,3.4a7.59,7.59,0,0,0,1.26-.05.75.75,0,0,0,.52-.41c.23-.6.56-1.51.91-2.48C6.36,9.42,5.07,9.52,4.94,9.49Z"/>
  <path class="c4Favicon" d="M15,8.24a3.15,3.15,0,0,0-2.81-3.19A3.65,3.65,0,0,0,11,3.76C10.7,4.64,10.07,7,10,7.48h1s.16,0,.12.19c-.1.44-.34,1.51-.88,1.54H9.55c-.19.79-.4,1.61-.54,2.21a2.73,2.73,0,0,0,1.75.53,2.66,2.66,0,0,0,2-.72C15.08,10.92,15,8.24,15,8.24Z"/>
  <path class="c4Favicon" d="M9.1,4.67a25,25,0,0,0-2.91,3l2.1-.09c.43-1.21.8-2.29,1-2.76A.18.18,0,0,0,9.1,4.67Z"/>
</svg>
