<svg xmlns="http://www.w3.org/2000/svg" viewBox="0 0 141 132" width="141" height="132">
  <path d="M40.56,82.86c-2.47-.46-9-7.22-10.89-13.08,0,0,.07-2.49,3-5.87,2.72-3.13,34.67-37.84,48.22-43.78a67.48,67.48,0,0,0-10.79-.85c-39.94,0-43.8,28.52-43.8,28.52S2,55.34,2,77.46c0,31.72,39.06,33.32,39.06,33.32a88.35,88.35,0,0,0,12.06-.53,7.4,7.4,0,0,0,5.1-4.06c2.33-5.9,5.59-14.79,9-24.32C54.54,82.51,41.87,83.11,40.56,82.86Z"/>
  <path d="M139.06,70.59c0-28.05-27.45-31-27.45-31S108.32,32.72,99.4,27C97,35.74,90.59,59,90.24,63.41h9.59s1.52,0,1.13,1.89C100,69.6,97.67,80,92.5,80.37c-1.2.08-3.61.25-6.72.43-1.91,7.68-3.89,15.76-5.31,21.59.71.6,6.34,5.19,17.34,5.19,12.91,0,19.14-7,19.14-7C139.84,96.8,139.06,70.59,139.06,70.59Z"/>
  <path d="M81.32,35.67C80,35.67,58.22,57.61,52.84,65l20.59-.82c4.21-11.87,7.89-22.44,9.48-27.1A1.68,1.68,0,0,0,81.32,35.67Z"/>
</svg>
