<svg xmlns="http://www.w3.org/2000/svg" viewBox="0 0 24 24" width="24" height="24">
  <path d="M18.94,11.77a5.42,5.42,0,0,1,.43-.41c.15-.12,1,0,1.61-.38a6.17,6.17,0,0,0,1.61-1.72,2.58,2.58,0,0,0,.26-1.1l.13-1s-.69.1-1.17.22A2.63,2.63,0,0,0,20.72,8c-.29.23-.22,0-.57.36a3.74,3.74,0,0,0-.86,1.47,5.86,5.86,0,0,0-.1,1.42,1.17,1.17,0,0,1-.23.29l.08-1.1A11.1,11.1,0,0,0,19,9l0-.36c.11-.11.47-.46.64-.6s.86-.15,1.36-.52a2.88,2.88,0,0,0,1.1-2.28,3.92,3.92,0,0,0-.58-1.54A4.36,4.36,0,0,0,20,4.4,2.92,2.92,0,0,0,19,6.59c.1.73.55,1,.54,1.27s-.42.5-.55.58a2.25,2.25,0,0,1,0-.34,2.5,2.5,0,0,0-.15-.8,5.32,5.32,0,0,1-.23-.58A2.11,2.11,0,0,1,18.73,6a7.54,7.54,0,0,0,0-1.25,6.34,6.34,0,0,0-.12-1.15,3.48,3.48,0,0,0-.32-.83L18,2.34A1.93,1.93,0,0,0,17.62,2a3.63,3.63,0,0,1-.39-.4,1.16,1.16,0,0,0-.45-.24c-.12,0-.31-.31-.31-.31a2.66,2.66,0,0,1,0,.45A2.33,2.33,0,0,0,16.2,2a5.53,5.53,0,0,0-.14.93,4,4,0,0,0,.22,1.25A6.68,6.68,0,0,0,17,5.4,14.93,14.93,0,0,0,18.4,6.74l.24.73a6.27,6.27,0,0,1,.13,1.06h-.05c-.09,0-.31-.14-.42-.26s-.09-.28-.2-.59a5.5,5.5,0,0,0-.91-1.55,2.4,2.4,0,0,0-1.54-.72,4.15,4.15,0,0,0-1.5.32A6.77,6.77,0,0,0,14.45,7a3.81,3.81,0,0,0,1.8,1.41,7.47,7.47,0,0,0,1.91,0l.47.27.14,0h0c0,.47.12.62.08,1a8,8,0,0,1-.06,1.05l-.16.45-.14-.09a2.35,2.35,0,0,1-.29-.73,4.58,4.58,0,0,0-1.11-1.44,2.92,2.92,0,0,0-1.81-.52h-.95s.18.74.3,1.05,0,.47.19.74a1.8,1.8,0,0,0,.64.75,2.16,2.16,0,0,0,1.51.47c.49,0,1.3-.18,1.46-.16s.2.1.2.1v0a1.85,1.85,0,0,1,.06.62,10.12,10.12,0,0,1-.18,1.44,7.67,7.67,0,0,1-.37,1.39l-.21.17h0l-.12-.14c-.1-.16,0-.52-.17-1.26A3.43,3.43,0,0,0,16,11.68a5.62,5.62,0,0,0-1.88-.34,7,7,0,0,0,.19.9,8.88,8.88,0,0,0,.19.87,3.25,3.25,0,0,0,1.41,1.45c.65.4,1.71.3,1.8.4l.2.21a1.47,1.47,0,0,1-.15.5A8.39,8.39,0,0,1,17,17.2c-.21.27-.36.47-.45.61a3.19,3.19,0,0,1-.39-.41c-.09-.14.22-.73.16-1.45a2.11,2.11,0,0,0-1-1.52L13.69,14a6.89,6.89,0,0,0-.13,1,2.35,2.35,0,0,0,.82,1.65c.49.44,1.32.43,1.58.75.13.16.47.49.47.5l-.06.1a2.9,2.9,0,0,1-.4.56,12.73,12.73,0,0,1-1.29,1.1,1.44,1.44,0,0,1-.16-.33,4.6,4.6,0,0,0,.16-1.4c0-.94-1.12-1.53-1.42-1.73s-.7-.51-.7-.51a2.72,2.72,0,0,0,0,2.57c.42.72,1.71,1,1.78,1.13l.16.37-.4.25-1.07.58a5.68,5.68,0,0,0-1.24.55,12.72,12.72,0,0,0-1.78,1.33,2.59,2.59,0,0,0,.18.45c.06.07.12,0,.16,0s0-.2.1-.3,1-.87,1.27-1.06A6.42,6.42,0,0,1,12.83,21c.21-.08.66-.29,1-.46l.11.05c.07,0,.45,0,.56.12s.55.94.83,1.1a1.8,1.8,0,0,0,1.39.41A5.08,5.08,0,0,0,18,21.91a1.44,1.44,0,0,0,.41-.55,1.51,1.51,0,0,1-.21-.33,2.88,2.88,0,0,0-.86-.9,2.45,2.45,0,0,0-1.58-.23,7,7,0,0,0-1.06.65,1.18,1.18,0,0,1-.62-.06h0l.25-.15c.21-.14,1.32-1,1.59-1.25a6,6,0,0,0,.56-.61,2.33,2.33,0,0,1,.4.08,5.84,5.84,0,0,0,1,.78c.37.14,1.24.52,1.82.2a3.45,3.45,0,0,0,1-.92,1.62,1.62,0,0,0-.42-.56,3.39,3.39,0,0,0-1.35-.5,2.93,2.93,0,0,0-1,.14,5.3,5.3,0,0,0-1,.67c-.06,0-.24-.06-.31-.09l.29-.39a8.36,8.36,0,0,1,.71-1l.07-.15.49-.09L19,17a4.72,4.72,0,0,0,.92,0,3.49,3.49,0,0,0,1.46.06,3.65,3.65,0,0,0,1.45-.92A.61.61,0,0,1,22.6,16a3.81,3.81,0,0,1-.31-.42,2.48,2.48,0,0,0-.86-.66A1.87,1.87,0,0,0,20,15a2.6,2.6,0,0,0-.89.35c-.37.26-.81,1-1,1.15a.68.68,0,0,1-.45,0,1.23,1.23,0,0,1,.11-.34c.1-.23.53-1.25.67-1.6.15-.09.48-.28.56-.34s.24-.09.59,0a2.73,2.73,0,0,0,1.7-.09,4.09,4.09,0,0,0,1.4-1.58A6.89,6.89,0,0,0,23,11.45s-.36,0-.53,0a4.7,4.7,0,0,0-1.16-.06,2.55,2.55,0,0,0-1.69.86c-.44.55-.47,1.66-.62,1.82a1.18,1.18,0,0,1-.43.25,13.53,13.53,0,0,0,.31-1.74l.06-.81Zm-13.88,0a5.42,5.42,0,0,0-.43-.41c-.15-.12-1,0-1.61-.38A6.17,6.17,0,0,1,1.41,9.26a2.58,2.58,0,0,1-.26-1.1L1,7.21s.69.1,1.17.22A2.74,2.74,0,0,1,3.29,8c.28.23.21,0,.56.36a3.74,3.74,0,0,1,.86,1.47,6.66,6.66,0,0,1,.11,1.42.93.93,0,0,0,.22.29L5,10.45A13.32,13.32,0,0,1,5,9l0-.36c-.11-.11-.46-.46-.64-.61S3.5,7.92,3,7.55A2.84,2.84,0,0,1,1.91,5.27a3.82,3.82,0,0,1,.57-1.54A4.36,4.36,0,0,1,4,4.4,2.92,2.92,0,0,1,5,6.59c-.1.73-.55,1-.54,1.27s.43.5.55.58a1.42,1.42,0,0,0,0-.34,2.42,2.42,0,0,1,.16-.8,5.77,5.77,0,0,0,.22-.58A2.11,2.11,0,0,0,5.27,6a8.8,8.8,0,0,1,0-1.25,6.34,6.34,0,0,1,.12-1.15,3.51,3.51,0,0,1,.33-.83L6,2.33c.11-.17.29-.25.42-.38a2.91,2.91,0,0,0,.39-.4,1.16,1.16,0,0,1,.45-.24c.12,0,.31-.31.31-.31a2.66,2.66,0,0,0,0,.45A2.33,2.33,0,0,1,7.8,2,5.53,5.53,0,0,1,7.94,3a4,4,0,0,1-.22,1.25A6.68,6.68,0,0,1,7,5.4,14.93,14.93,0,0,1,5.6,6.74l-.24.73a6.27,6.27,0,0,0-.13,1.06h0c.09,0,.31-.14.42-.26s.08-.28.2-.59a5.5,5.5,0,0,1,.91-1.55,2.4,2.4,0,0,1,1.54-.72,4.15,4.15,0,0,1,1.5.32A6.77,6.77,0,0,1,9.55,7a3.81,3.81,0,0,1-1.8,1.41,7.47,7.47,0,0,1-1.91,0l-.47.27-.14,0v0c0,.47-.12.62-.08,1a7.94,7.94,0,0,0,.06,1.05l.16.46.14-.09a2.35,2.35,0,0,0,.29-.73A4.61,4.61,0,0,1,6.91,8.93a3.06,3.06,0,0,1,1.81-.52l.95,0s-.18.74-.3,1.05,0,.47-.19.74a1.89,1.89,0,0,1-.64.75A2.16,2.16,0,0,1,7,11.44c-.49,0-1.3-.18-1.46-.16s-.2.1-.2.1v0A1.85,1.85,0,0,0,5.3,12a10.29,10.29,0,0,0,.18,1.44,7.93,7.93,0,0,0,.37,1.39l.21.17h0l.12-.13c.1-.16,0-.52.17-1.26A3.49,3.49,0,0,1,8,11.67a5.79,5.79,0,0,1,1.88-.33,7,7,0,0,1-.19.9c-.08.19,0,.33-.19.87A3.23,3.23,0,0,1,8.1,14.55a5.6,5.6,0,0,1-1.8.4l-.2.22a1.54,1.54,0,0,0,.15.5A8.39,8.39,0,0,0,7,17.2c.21.26.35.47.45.61a3.19,3.19,0,0,0,.38-.41c.1-.14-.21-.73-.15-1.45a2.12,2.12,0,0,1,1-1.53L10.31,14a6.87,6.87,0,0,1,.13,1,2.35,2.35,0,0,1-.82,1.66c-.49.44-1.32.43-1.58.75-.13.15-.47.49-.48.5l.07.1a2.9,2.9,0,0,0,.4.56,12.73,12.73,0,0,0,1.29,1.1,2,2,0,0,0,.16-.33A4.6,4.6,0,0,1,9.32,18c0-.94,1.12-1.53,1.42-1.73s.7-.51.7-.51a2.72,2.72,0,0,1,0,2.57c-.42.72-1.71,1-1.78,1.12l-.16.38a2.63,2.63,0,0,0,.4.24l1.07.59a5.4,5.4,0,0,1,1.24.55A13.39,13.39,0,0,1,14,22.51a2.59,2.59,0,0,1-.18.45c-.06.07-.12,0-.17,0s0-.19-.09-.29-1-.87-1.27-1.06A5.22,5.22,0,0,0,11.17,21c-.22-.08-.66-.29-1-.46l-.11.05c-.07,0-.45,0-.57.12s-.54.94-.82,1.1a1.8,1.8,0,0,1-1.39.41,5.08,5.08,0,0,1-1.22-.34,1.44,1.44,0,0,1-.41-.55A1.51,1.51,0,0,0,5.85,21a2.68,2.68,0,0,1,.86-.9,2.5,2.5,0,0,1,1.58-.24,7.7,7.7,0,0,1,1.06.66,1.08,1.08,0,0,0,.62-.07h0l-.26-.15c-.21-.14-1.31-1-1.58-1.25a6,6,0,0,1-.56-.61,2.71,2.71,0,0,0-.41.08,5.34,5.34,0,0,1-1,.78c-.37.14-1.24.52-1.82.2a3.45,3.45,0,0,1-1-.92A1.57,1.57,0,0,1,3.74,18a3.54,3.54,0,0,1,1.35-.49,2.72,2.72,0,0,1,1,.14,5.94,5.94,0,0,1,1,.66c.06,0,.24-.05.3-.09l-.28-.38a8.73,8.73,0,0,0-.71-1l-.07-.14-.49-.09L5,17a4.71,4.71,0,0,1-.92,0,3.45,3.45,0,0,1-1.46.07,3.62,3.62,0,0,1-1.45-.93A.47.47,0,0,0,1.4,16c.08-.1.15-.19.3-.41a2.46,2.46,0,0,1,.86-.66A1.89,1.89,0,0,1,4,15a2.64,2.64,0,0,1,.88.35c.38.26.82,1,1,1.15a.68.68,0,0,0,.45,0,1.69,1.69,0,0,0-.11-.34c-.11-.23-.53-1.25-.67-1.6-.15-.09-.48-.28-.56-.34s-.24-.09-.59,0a2.7,2.7,0,0,1-1.71-.1,4,4,0,0,1-1.39-1.58A6.64,6.64,0,0,1,1,11.45s.36,0,.53,0a4.7,4.7,0,0,1,1.16-.06,2.55,2.55,0,0,1,1.69.86c.44.55.47,1.66.62,1.82a1.18,1.18,0,0,0,.43.25,13.53,13.53,0,0,1-.31-1.74Z"/>
</svg>