<svg xmlns="http://www.w3.org/2000/svg" viewBox="0 0 24 24" width="24" height="24">
  <path d="M1,12.27A11,11,0,0,0,8.52,22.71c.55.1.75-.24.75-.53s0-.95,0-1.87C6.2,21,5.55,18.83,5.55,18.83a2.92,2.92,0,0,0-1.22-1.61c-1-.68.08-.66.08-.66a2.28,2.28,0,0,1,1.68,1.13,2.33,2.33,0,0,0,3.2.91,2.39,2.39,0,0,1,.7-1.47c-2.44-.27-5-1.22-5-5.43a4.29,4.29,0,0,1,1.13-3,4,4,0,0,1,.11-2.91s.93-.29,3,1.13A10.92,10.92,0,0,1,12,6.59,10.92,10.92,0,0,1,14.75,7c2.1-1.42,3-1.13,3-1.13a4,4,0,0,1,.11,2.91,4.29,4.29,0,0,1,1.13,3c0,4.22-2.57,5.15-5,5.42a2.63,2.63,0,0,1,.75,2c0,1.47,0,2.66,0,3s.2.64.75.53A11,11,0,1,0,1,12.27Z"/> 
</svg>
