<svg xmlns="http://www.w3.org/2000/svg" width="24" height="24" viewBox="0 0 88 88">
  <path d="m6.95,71.85l3.85,6.65c.8,1.4,1.95,2.5,3.3,3.3l13.75-23.8H.35c0,1.55.4,3.1,1.2,4.5l5.4,9.35Z" />
  <path d="m44,30L30.25,6.2c-1.35.8-2.5,1.9-3.3,3.3L1.55,53.5c-.79,1.37-1.2,2.92-1.2,4.5h27.5l16.15-28Z"
    opacity=".66" />
  <path d="m73.9,81.8c1.35-.8,2.5-1.9,3.3-3.3l1.6-2.75,7.65-13.25c.8-1.4,1.2-2.95,1.2-4.5h-27.5l13.75,23.8Z"
    opacity=".5" />
  <path d="m44,30l13.75-23.8c-1.35-.8-2.9-1.2-4.5-1.2h-18.5c-1.6,0-3.15.45-4.5,1.2l13.75,23.8Z" />
  <path d="m60.15,58H27.85l-13.75,23.8c1.35.8,2.9,1.2,4.5,1.2h50.8c1.6,0,3.15-.45,4.5-1.2l-13.75-23.8Z" opacity=".66" />
  <path d="m73.75,31.5l-12.7-22c-.8-1.4-1.95-2.5-3.3-3.3l-13.75,23.8,16.15,28h27.45c0-1.55-.4-3.1-1.2-4.5l-12.65-22Z"
    opacity=".33" />
</svg>