<svg xmlns="http://www.w3.org/2000/svg" viewBox="0 0 24 24" width="24" height="24">
  <path d="M12,3.8c2.67,0,3,0,4,.06a5.61,5.61,0,0,1,1.86.34,3.33,3.33,0,0,1,1.9,1.9A5.61,5.61,0,0,1,20.14,8c.05,1,.06,1.37.06,4s0,3-.06,4a5.61,5.61,0,0,1-.34,1.86,3.33,3.33,0,0,1-1.9,1.9,5.61,5.61,0,0,1-1.86.34c-1,.05-1.37.06-4,.06s-3,0-4-.06A5.61,5.61,0,0,1,6.1,19.8a3.33,3.33,0,0,1-1.9-1.9A5.61,5.61,0,0,1,3.86,16c0-1-.06-1.37-.06-4s0-3,.06-4A5.61,5.61,0,0,1,4.2,6.1,3.33,3.33,0,0,1,6.1,4.2,5.61,5.61,0,0,1,8,3.86c1,0,1.37-.06,4-.06M12,2c-2.72,0-3.06,0-4.12.06a7.59,7.59,0,0,0-2.43.46A4.85,4.85,0,0,0,3.68,3.68,4.85,4.85,0,0,0,2.52,5.45a7.59,7.59,0,0,0-.46,2.43C2,8.94,2,9.28,2,12s0,3.06.06,4.12a7.59,7.59,0,0,0,.46,2.43,4.85,4.85,0,0,0,1.16,1.77,4.85,4.85,0,0,0,1.77,1.16,7.59,7.59,0,0,0,2.43.46C8.94,22,9.28,22,12,22s3.06,0,4.12-.06a7.59,7.59,0,0,0,2.43-.46,5.19,5.19,0,0,0,2.93-2.93,7.59,7.59,0,0,0,.46-2.43c0-1.06.06-1.4.06-4.12s0-3.06-.06-4.12a7.59,7.59,0,0,0-.46-2.43,4.85,4.85,0,0,0-1.16-1.77,4.85,4.85,0,0,0-1.77-1.16,7.59,7.59,0,0,0-2.43-.46C15.06,2,14.72,2,12,2Z"/>
  <path d="M12,6.86A5.14,5.14,0,1,0,17.14,12,5.14,5.14,0,0,0,12,6.86Zm0,8.47A3.33,3.33,0,1,1,15.33,12,3.33,3.33,0,0,1,12,15.33Z"/>
  <circle cx="17.34" cy="6.66" r="1.2"/>
</svg>
