<svg xmlns="http://www.w3.org/2000/svg" viewBox="0 0 24 24" width="24px" height="24px">
  <path d="M22.48,16.85,19.28,3.1a2.07,2.07,0,0,0-2.49-1.56l-2.3.52a5.36,5.36,0,0,1,.78.15l1.3-.3a2.08,2.08,0,0,1,2.49,1.56l1.19,5.09a9.27,9.27,0,0,1-2.86,3.57,7.48,7.48,0,0,1,.89.89,5.47,5.47,0,0,1,1.15,3.53A5.34,5.34,0,0,1,18.32,20L21,19.38a2.16,2.16,0,0,0,1.52-2.53ZM8.11,12l.1,0a11.16,11.16,0,0,0,2.41,1.3A13,13,0,0,1,13.78,15a2.36,2.36,0,0,1,.82,1.86c0,1.3-.93,1.94-2.71,1.94a7.37,7.37,0,0,1-4.68-1.64L5.57,20.79h0a11.61,11.61,0,0,0,3.09,1.26s.07,0,.11,0l-1.56.37A2.07,2.07,0,0,1,4.72,20.9L1.52,7.15A2.09,2.09,0,0,1,3.08,4.66l3.83-.89a3.79,3.79,0,0,0-.37.41l-3,.7a2.36,2.36,0,0,0-.74.33A3,3,0,0,1,3.49,5l3-.71a4.74,4.74,0,0,0-1,3.09h0A5.63,5.63,0,0,0,8.11,12Zm8.83-5.08a6.32,6.32,0,0,0-4.2-1.3c-1.59,0-2.41.63-2.41,1.93a1.74,1.74,0,0,0,.78,1.38,15.73,15.73,0,0,0,3.38,1.63,9.91,9.91,0,0,1,2.86,1.6,9.27,9.27,0,0,0,2.86-3.57L19,3.47a2,2,0,0,0-2.49-1.56l-1.3.3a11.55,11.55,0,0,1,3,1.08Z"/>
  <path d="M6.49,4.19l8.77-2A7.14,7.14,0,0,0,14.48,2L6.9,3.78a4,4,0,0,0-.41.41ZM18.23,13a8.3,8.3,0,0,0-.89-.89,4.5,4.5,0,0,1-4.76.26A6.05,6.05,0,0,0,8.2,12a12.44,12.44,0,0,0,2.42,1.3A12.5,12.5,0,0,1,13.77,15a2.31,2.31,0,0,1,.82,1.86c0,1.27-.89,1.93-2.71,1.93A7.37,7.37,0,0,1,7.2,17.12L5.56,20.8a14.22,14.22,0,0,0,3.05,1.3s.07,0,.11,0l9.55-2.2a5.35,5.35,0,0,0,1.12-3.42A5.41,5.41,0,0,0,18.23,13ZM5.49,7.27A5.45,5.45,0,0,0,8.2,11.92a6.19,6.19,0,0,1,4.38.37A4.54,4.54,0,0,0,17.34,12a11,11,0,0,0-2.86-1.6A16.6,16.6,0,0,1,11.1,8.79a1.71,1.71,0,0,1-.78-1.37c0-1.26.82-1.93,2.41-1.93a6.26,6.26,0,0,1,4.2,1.3l1.34-3.61a13.08,13.08,0,0,0-3-1.07l-8.77,2A5,5,0,0,0,5.49,7.27Z"
  fill="#fff"/>
</svg>
