<svg xmlns="http://www.w3.org/2000/svg" viewBox="0 0 24 24" width="24px" height="24px">
  <path d="M14,15.2a5.82,5.82,0,0,0-1.37-.88c-1.18-.56-2.38-1-3.55-1.59-3.26-1.53-5.35-5-3-9.15L2.6,4.37A2.06,2.06,0,0,0,1.05,6.83L4.37,21.4A2.06,2.06,0,0,0,6.83,23l1.45-.33v0L5.46,21.34l1.68-4c.36.22.61.38.88.52a7.37,7.37,0,0,0,4.92,1,1.86,1.86,0,0,0,1.75-1.34A2.2,2.2,0,0,0,14,15.2Z"/>
  <path d="M17.17,1.05l-2.08.47h0c1,.32,1.88.58,2.72.92l.74.29s-1,2.67-1.47,3.94a6,6,0,0,0-5-1.41,2.13,2.13,0,0,0-1.75,1.44,1.63,1.63,0,0,0,.76,2,11,11,0,0,0,1.63.86c1.09.48,2.23.87,3.32,1.37a6,6,0,0,1,3.81,6.29,23.93,23.93,0,0,1-.55,2.9v0l2.08-.47A2.06,2.06,0,0,0,23,17.17L19.63,2.6A2.06,2.06,0,0,0,17.17,1.05Z"/>
</svg>
