<svg xmlns="http://www.w3.org/2000/svg" width="24" height="24" viewBox="0 0 24 24">
  <path
    d="M10.11,13.8H4.99c-2.48,0-4.49-2.01-4.49-4.49S2.51,4.81,4.99,4.81h5.97c.99,0,1.8,.8,1.8,1.8s-.8,1.8-1.8,1.8H4.9c-.5,0-.9,.4-.9,.9s.4,.9,.9,.9h5.12c2.48,0,4.49,2.01,4.49,4.49s-2.01,4.49-4.49,4.49H2.3c-.99,0-1.8-.8-1.8-1.8s.8-1.8,1.8-1.8h7.81c.5,0,.9-.4,.9-.9s-.4-.9-.9-.9Zm3.78,5.39c1.19-.81,2.05-2.1,2.3-3.59h2.9c.49,0,.88-.4,.88-.9v-5.39c0-.5-.4-.9-.88-.9h-5.27c.42-.48,.67-1.11,.67-1.8s-.26-1.32-.67-1.8h6.15c1.95,0,3.53,1.61,3.53,3.59v7.19c0,1.98-1.58,3.59-3.53,3.59h-6.08Z"
    fill-rule="evenodd" />
</svg>
