<svg id="Layer_1" data-name="Layer 1" xmlns="http://www.w3.org/2000/svg" width="256" height="144" viewBox="0 0 256 144">
  <title>chat-02</title>
  <circle cx="224" cy="32" r="32" fill="#f14ca3"/>
  <g>
    <rect x="16" width="160" height="64" rx="3" ry="3" transform="translate(192 64) rotate(-180)" fill="#dbe5ea"/>
    <polygon points="184 32 176 26 176 38 184 32" fill="#dbe5ea"/>
  </g>
  <circle cx="32" cy="112" r="32" fill="#35c98d"/>
  <g>
    <rect x="80" y="80" width="160" height="64" rx="3" ry="3" fill="#dbe5ea"/>
    <polygon points="72 112 80 106 80 118 72 112" fill="#dbe5ea"/>
  </g>
  <g opacity="0.5">
    <path d="M36.29,27.86A1.22,1.22,0,0,1,35.12,27a1.19,1.19,0,0,1,0-.7v-.11a7.77,7.77,0,0,1-1.22.6,1.23,1.23,0,0,1-.93,0,1.28,1.28,0,0,1-.38-.27,1.15,1.15,0,0,1-.26-.4,1,1,0,0,1-.08-.47,1.3,1.3,0,0,1,.12-.45,1.24,1.24,0,0,1,.27-.38,1.16,1.16,0,0,1,.41-.25,5.2,5.2,0,0,0,.7-.35,11.32,11.32,0,0,0,1.35-.95l.47-.38.37-.32.34-.31a1.19,1.19,0,0,1,1.17-.3,1.12,1.12,0,0,1,.44.22,1.34,1.34,0,0,1,.32.36,1.18,1.18,0,0,1,.17.68,5,5,0,0,1-.13.8l-.05.23-.07.25a1.24,1.24,0,0,1,1.22.72,1.16,1.16,0,0,1,.1.46,1.3,1.3,0,0,1-.08.45,1.14,1.14,0,0,1-.64.66l-.74.34-.58.29-.4.21-.16.08A1.23,1.23,0,0,1,36.29,27.86Z" fill="#0f1c3f"/>
    <path d="M39.14,28.64h-.25l-.18,0a1.73,1.73,0,0,1-.61-.31,1.33,1.33,0,0,1-.4-.51,1.13,1.13,0,0,1-.11-.31,1.63,1.63,0,0,1,0-.28,1.86,1.86,0,0,1,0-.37l-.23-.16a.64.64,0,0,1-.18-.18,1.33,1.33,0,0,1-.29-.82,1.21,1.21,0,0,1,.13-.55,1.61,1.61,0,0,1,.35-.46l.23-.23a4.4,4.4,0,0,0,.3-.34l.24-.26.35-.37.35-.35.34-.29.26-.19a1.76,1.76,0,0,1,1.32-.24,1.27,1.27,0,0,1,.94.78h0a1.7,1.7,0,0,1,.08.21,1.21,1.21,0,0,1,0,.21l.3-.34.24-.29.17-.19,0,0,0,0a1.57,1.57,0,0,1,.66-.46,1.31,1.31,0,0,1,.77,0,1.27,1.27,0,0,1,.49.26,1.7,1.7,0,0,1,.37.44,1.43,1.43,0,0,1,.15.65,2.48,2.48,0,0,1,0,.37L45,24l0,.1-.07.23v0a1.52,1.52,0,0,1,.48.13,1.21,1.21,0,0,1,.41.3,1.39,1.39,0,0,1,.32.86,1.29,1.29,0,0,1-.5,1l-.06.06-.54.43a7.2,7.2,0,0,1-.6.41,2.79,2.79,0,0,1-1.41.42,2.12,2.12,0,0,1-.58-.08,1.32,1.32,0,0,1-.41-.16,1.2,1.2,0,0,1-.32-.28l-.28.22-.3.21h0a5.08,5.08,0,0,1-.54.32l-.49.23a2,2,0,0,1-.44.12A2.87,2.87,0,0,1,39.14,28.64Z" fill="#0f1c3f"/>
    <path d="M45.62,28.64h-.25l-.18,0a1.73,1.73,0,0,1-.61-.31,1.33,1.33,0,0,1-.4-.51,1.13,1.13,0,0,1-.11-.31,1.63,1.63,0,0,1,0-.28,1.86,1.86,0,0,1,0-.37l-.23-.16a.64.64,0,0,1-.18-.18,1.33,1.33,0,0,1-.29-.82,1.21,1.21,0,0,1,.13-.55,1.61,1.61,0,0,1,.35-.46l.23-.23a4.4,4.4,0,0,0,.3-.34l.24-.26.35-.37.35-.35.34-.29.26-.19a1.76,1.76,0,0,1,1.32-.24,1.27,1.27,0,0,1,.94.78h0a1.7,1.7,0,0,1,.08.21,1.21,1.21,0,0,1,0,.21l.3-.34.24-.29.17-.19,0,0,0,0a1.57,1.57,0,0,1,.66-.46,1.31,1.31,0,0,1,.77,0,1.27,1.27,0,0,1,.49.26,1.7,1.7,0,0,1,.37.44,1.43,1.43,0,0,1,.15.65,2.48,2.48,0,0,1,0,.37l0,.11,0,.1-.07.23v0a1.52,1.52,0,0,1,.48.13,1.21,1.21,0,0,1,.41.3,1.39,1.39,0,0,1,.32.86,1.29,1.29,0,0,1-.5,1l-.06.06-.54.43a7.2,7.2,0,0,1-.6.41,2.79,2.79,0,0,1-1.41.42,2.12,2.12,0,0,1-.58-.08,1.32,1.32,0,0,1-.41-.16,1.2,1.2,0,0,1-.32-.28l-.28.22-.3.21h0a5.08,5.08,0,0,1-.54.32l-.49.23a2,2,0,0,1-.44.12A2.87,2.87,0,0,1,45.62,28.64Z" fill="#0f1c3f"/>
    <path d="M52.11,28.64h-.25l-.18,0a1.73,1.73,0,0,1-.61-.31,1.33,1.33,0,0,1-.4-.51,1.13,1.13,0,0,1-.11-.31,1.63,1.63,0,0,1,0-.28,1.86,1.86,0,0,1,0-.37l-.23-.16a.64.64,0,0,1-.18-.18,1.33,1.33,0,0,1-.29-.82,1.21,1.21,0,0,1,.13-.55,1.61,1.61,0,0,1,.35-.46l.23-.23a4.4,4.4,0,0,0,.3-.34l.24-.26.35-.37.35-.35.34-.29.26-.19a1.76,1.76,0,0,1,1.32-.24,1.27,1.27,0,0,1,.94.78h0a1.7,1.7,0,0,1,.08.21,1.21,1.21,0,0,1,0,.21l.3-.34.24-.29.17-.19,0,0,0,0a1.57,1.57,0,0,1,.66-.46,1.31,1.31,0,0,1,.77,0,1.27,1.27,0,0,1,.49.26,1.7,1.7,0,0,1,.37.44,1.43,1.43,0,0,1,.15.65,2.48,2.48,0,0,1,0,.37l0,.11,0,.1-.07.23v0a1.52,1.52,0,0,1,.48.13,1.21,1.21,0,0,1,.41.3,1.39,1.39,0,0,1,.32.86,1.29,1.29,0,0,1-.5,1l-.06.06-.54.43a7.2,7.2,0,0,1-.6.41A2.79,2.79,0,0,1,55.9,28a2.12,2.12,0,0,1-.58-.08,1.32,1.32,0,0,1-.41-.16,1.2,1.2,0,0,1-.32-.28l-.28.22-.3.21h0a5.08,5.08,0,0,1-.54.32l-.49.23a2,2,0,0,1-.44.12A2.87,2.87,0,0,1,52.11,28.64Z" fill="#0f1c3f"/>
    <path d="M65.23,27.5a1.73,1.73,0,0,1-.33,0,1.32,1.32,0,0,1-.5-.25,1.39,1.39,0,0,1-.35-.41,1.23,1.23,0,0,1-.71.05,1.17,1.17,0,0,1-.64-.38,1.07,1.07,0,0,1-.24-.41,1.21,1.21,0,0,1,.07-.91,1.28,1.28,0,0,1,.29-.38l.29-.25.32-.31.62-.58q.32-.29.63-.53l.4-.28.36-.2a1.9,1.9,0,0,1,1.24-.17,1.45,1.45,0,0,1,.58.32,1.53,1.53,0,0,1,.38.55,1.48,1.48,0,0,1,0,1l0,.12-.06.13a1.19,1.19,0,0,1,.71,1.15,1.21,1.21,0,0,1-.11.45,1.17,1.17,0,0,1-.27.37,1.2,1.2,0,0,1-.42.25l-.7.26-.53.19-.23.08-.16.06-.26.06A1.13,1.13,0,0,1,65.23,27.5Z" fill="#0f1c3f"/>
    <path d="M67.86,28.64h-.25l-.18,0a1.73,1.73,0,0,1-.61-.31,1.33,1.33,0,0,1-.4-.51,1.13,1.13,0,0,1-.11-.31,1.63,1.63,0,0,1,0-.28,1.86,1.86,0,0,1,0-.37l-.23-.16a.64.64,0,0,1-.18-.18,1.33,1.33,0,0,1-.29-.82,1.21,1.21,0,0,1,.13-.55,1.61,1.61,0,0,1,.35-.46l.23-.23a4.4,4.4,0,0,0,.3-.34l.24-.26.35-.37.35-.35.34-.29.26-.19a1.76,1.76,0,0,1,1.32-.24,1.27,1.27,0,0,1,.94.78h0a1.7,1.7,0,0,1,.08.21,1.21,1.21,0,0,1,0,.21l.3-.34.24-.29.17-.19,0,0,0,0a1.57,1.57,0,0,1,.66-.46,1.31,1.31,0,0,1,.77,0,1.27,1.27,0,0,1,.49.26,1.7,1.7,0,0,1,.37.44,1.43,1.43,0,0,1,.15.65,2.48,2.48,0,0,1,0,.37l0,.11,0,.1-.07.23v0a1.52,1.52,0,0,1,.48.13,1.21,1.21,0,0,1,.41.3,1.39,1.39,0,0,1,.32.86,1.29,1.29,0,0,1-.5,1l-.06.06-.54.43a7.2,7.2,0,0,1-.6.41,2.79,2.79,0,0,1-1.41.42,2.12,2.12,0,0,1-.58-.08,1.32,1.32,0,0,1-.41-.16,1.2,1.2,0,0,1-.32-.28l-.28.22-.3.21h0a5.08,5.08,0,0,1-.54.32l-.49.23a2,2,0,0,1-.44.12A2.87,2.87,0,0,1,67.86,28.64Z" fill="#0f1c3f"/>
    <path d="M76.23,27.86A1.22,1.22,0,0,1,75.06,27a1.19,1.19,0,0,1,0-.7v-.11a7.77,7.77,0,0,1-1.22.6,1.23,1.23,0,0,1-.93,0,1.28,1.28,0,0,1-.38-.27,1.15,1.15,0,0,1-.26-.4,1,1,0,0,1-.08-.47,1.3,1.3,0,0,1,.12-.45,1.24,1.24,0,0,1,.27-.38,1.16,1.16,0,0,1,.41-.25,5.2,5.2,0,0,0,.7-.35,11.32,11.32,0,0,0,1.35-.95l.47-.38.37-.32.34-.31a1.19,1.19,0,0,1,1.17-.3,1.12,1.12,0,0,1,.44.22,1.34,1.34,0,0,1,.32.36,1.18,1.18,0,0,1,.17.68,5,5,0,0,1-.13.8l-.05.23-.07.25a1.24,1.24,0,0,1,1.22.72,1.16,1.16,0,0,1,.1.46,1.3,1.3,0,0,1-.08.45,1.14,1.14,0,0,1-.64.66l-.74.34-.58.29-.4.21-.16.08A1.23,1.23,0,0,1,76.23,27.86Z" fill="#0f1c3f"/>
    <path d="M82.45,27.74a1.37,1.37,0,0,1-.38-.06,1.17,1.17,0,0,1-.52-.27,1.25,1.25,0,0,1-.33-.47,1.37,1.37,0,0,1,0-1,3.72,3.72,0,0,1,.22-.48l.05-.1.07-.11-.55.31-.55.31q-.5.3-1,.55t-.85.41a1.1,1.1,0,0,1-.47.11,1.26,1.26,0,0,1-.46-.08,1.22,1.22,0,0,1-.4-.25,1.13,1.13,0,0,1-.27-.39,1.05,1.05,0,0,1-.11-.46,1.21,1.21,0,0,1,.33-.84,1.14,1.14,0,0,1,.4-.27l.69-.35.87-.49,1.13-.64a11.63,11.63,0,0,1,1.16-.57,5,5,0,0,1,1.21-.42,3.64,3.64,0,0,1,.72-.11,2.22,2.22,0,0,1,.65.07,1.39,1.39,0,0,1,1,1.7,4.4,4.4,0,0,1-.33.82l.08,0,.08,0a1.12,1.12,0,0,1,.47-.07,1.35,1.35,0,0,1,.45.11,1.2,1.2,0,0,1,.63.67,1.23,1.23,0,0,1,.07.47,1.19,1.19,0,0,1-.11.44,1.17,1.17,0,0,1-.27.37,1.18,1.18,0,0,1-.42.25l-1,.37-.84.28-.83.21A2.82,2.82,0,0,1,82.45,27.74Z" fill="#0f1c3f"/>
    <path d="M92.18,28.64h-.25l-.18,0a1.74,1.74,0,0,1-.61-.31,1.33,1.33,0,0,1-.4-.51,1.1,1.1,0,0,1-.11-.31,1.58,1.58,0,0,1,0-.28,1.86,1.86,0,0,1,0-.37l-.23-.16a.65.65,0,0,1-.18-.18,1.32,1.32,0,0,1-.29-.82,1.21,1.21,0,0,1,.13-.55,1.59,1.59,0,0,1,.35-.46l.23-.23q.16-.17.3-.34l.24-.26.35-.37.35-.35.34-.29.26-.19a1.76,1.76,0,0,1,1.32-.24,1.26,1.26,0,0,1,.94.78h0a1.78,1.78,0,0,1,.08.21,1.26,1.26,0,0,1,0,.21l.3-.34.24-.29.17-.19,0,0,0,0a1.57,1.57,0,0,1,.66-.46,1.31,1.31,0,0,1,.77,0,1.26,1.26,0,0,1,.49.26,1.7,1.7,0,0,1,.37.44,1.44,1.44,0,0,1,.15.65,2.46,2.46,0,0,1,0,.37A.81.81,0,0,1,98,24l0,.1-.07.23v0a1.51,1.51,0,0,1,.48.13,1.19,1.19,0,0,1,.41.3,1.38,1.38,0,0,1,.24.42,1.35,1.35,0,0,1,.08.44,1.29,1.29,0,0,1-.5,1l-.06.06L98,27.2q-.29.22-.6.41A2.79,2.79,0,0,1,96,28a2.12,2.12,0,0,1-.58-.08,1.33,1.33,0,0,1-.41-.16,1.21,1.21,0,0,1-.32-.28l-.28.22-.3.21h0a5.28,5.28,0,0,1-.54.32l-.49.23a2,2,0,0,1-.44.12A2.86,2.86,0,0,1,92.18,28.64Z" fill="#0f1c3f"/>
    <path d="M100.55,27.86A1.22,1.22,0,0,1,99.38,27a1.2,1.2,0,0,1,0-.7v-.11a7.76,7.76,0,0,1-1.22.6,1.24,1.24,0,0,1-.93,0,1.27,1.27,0,0,1-.38-.27,1.13,1.13,0,0,1-.26-.4,1,1,0,0,1-.08-.47,1.29,1.29,0,0,1,.12-.45,1.24,1.24,0,0,1,.27-.38,1.15,1.15,0,0,1,.41-.25,5.26,5.26,0,0,0,.7-.35,11.28,11.28,0,0,0,1.35-.95l.47-.38.37-.32.34-.31a1.19,1.19,0,0,1,1.17-.3,1.13,1.13,0,0,1,.44.22,1.36,1.36,0,0,1,.32.36,1.18,1.18,0,0,1,.17.68,5,5,0,0,1-.13.8c0,.08,0,.16-.05.23l-.07.25a1.24,1.24,0,0,1,1.22.72,1.17,1.17,0,0,1,.1.46,1.3,1.3,0,0,1-.08.45,1.15,1.15,0,0,1-.24.39,1.13,1.13,0,0,1-.4.27l-.74.34-.58.29-.4.21-.16.08A1.23,1.23,0,0,1,100.55,27.86Z" fill="#0f1c3f"/>
    <path d="M105.29,27.86a1.22,1.22,0,0,1-1.17-.84,1.2,1.2,0,0,1,0-.7v-.11a7.76,7.76,0,0,1-1.22.6,1.24,1.24,0,0,1-.93,0,1.27,1.27,0,0,1-.38-.27,1.13,1.13,0,0,1-.26-.4,1,1,0,0,1-.08-.47,1.29,1.29,0,0,1,.12-.45,1.24,1.24,0,0,1,.27-.38,1.15,1.15,0,0,1,.41-.25,5.26,5.26,0,0,0,.7-.35,11.28,11.28,0,0,0,1.35-.95l.47-.38.37-.32.34-.31a1.19,1.19,0,0,1,1.17-.3,1.13,1.13,0,0,1,.44.22,1.36,1.36,0,0,1,.32.36,1.18,1.18,0,0,1,.17.68,5,5,0,0,1-.13.8c0,.08,0,.16-.05.23l-.07.25a1.24,1.24,0,0,1,1.22.72,1.17,1.17,0,0,1,.1.46,1.3,1.3,0,0,1-.08.45,1.15,1.15,0,0,1-.24.39,1.13,1.13,0,0,1-.4.27l-.74.34-.58.29-.4.21-.16.08A1.23,1.23,0,0,1,105.29,27.86Z" fill="#0f1c3f"/>
    <path d="M109.26,28.57a1.93,1.93,0,0,1-.46-.06,1.18,1.18,0,0,1-.46-.22,1.07,1.07,0,0,1-.32-.39,1.09,1.09,0,0,1-.12-.3,1.29,1.29,0,0,1,0-.27,1.85,1.85,0,0,1,0-.22c0-.06,0-.12,0-.16l0-.13a.93.93,0,0,1,0-.14l-.16.08-.16.05a1.26,1.26,0,0,1-.41.07,1.23,1.23,0,0,1-.69-.21,1.15,1.15,0,0,1-.45-.58,1.08,1.08,0,0,1-.07-.47,1.24,1.24,0,0,1,.12-.44,1.32,1.32,0,0,1,.27-.37,1.07,1.07,0,0,1,.41-.25l.14-.06.3-.17q.19-.13.49-.35l.72-.59.46-.41.37-.34.25-.23.1-.09a1.22,1.22,0,0,1,.54-.31,1.11,1.11,0,0,1,.63,0,1.1,1.1,0,0,1,.76.6,1.48,1.48,0,0,1,.13.37,1.06,1.06,0,0,1,0,.55s0,0,0,0,0,0,0,0l0,.06a.22.22,0,0,1,0,.06,1.5,1.5,0,0,1-.07.18l-.09.23-.1.29c0,.1-.08.21-.13.32l0,0,0,0a1.23,1.23,0,0,1,.91-.17,1.26,1.26,0,0,1,.43.18A1.16,1.16,0,0,1,113,25a1.08,1.08,0,0,1,.19.44,1.18,1.18,0,0,1,0,.46,1.27,1.27,0,0,1-.18.43,1.13,1.13,0,0,1-.34.34l-.55.38-.53.39-.57.42a4.55,4.55,0,0,1-.53.34,3,3,0,0,1-.37.17l-.34.11A2.24,2.24,0,0,1,109.26,28.57Z" fill="#0f1c3f"/>
    <path d="M112.89,28.64h-.25l-.18,0a1.74,1.74,0,0,1-.61-.31,1.33,1.33,0,0,1-.4-.51,1.1,1.1,0,0,1-.11-.31,1.58,1.58,0,0,1,0-.28,1.86,1.86,0,0,1,0-.37l-.23-.16a.65.65,0,0,1-.18-.18,1.32,1.32,0,0,1-.29-.82,1.21,1.21,0,0,1,.13-.55,1.59,1.59,0,0,1,.35-.46l.23-.23q.16-.17.3-.34l.24-.26.35-.37.35-.35.34-.29.26-.19a1.76,1.76,0,0,1,1.32-.24,1.26,1.26,0,0,1,.94.78h0a1.78,1.78,0,0,1,.08.21,1.26,1.26,0,0,1,0,.21l.3-.34.24-.29.17-.19,0,0,0,0a1.57,1.57,0,0,1,.66-.46,1.31,1.31,0,0,1,.77,0,1.26,1.26,0,0,1,.49.26,1.7,1.7,0,0,1,.37.44,1.44,1.44,0,0,1,.15.65,2.46,2.46,0,0,1,0,.37.81.81,0,0,1,0,.11l0,.1-.07.23v0a1.51,1.51,0,0,1,.48.13,1.19,1.19,0,0,1,.41.3,1.38,1.38,0,0,1,.24.42,1.35,1.35,0,0,1,.08.44,1.29,1.29,0,0,1-.5,1l-.06.06-.54.43q-.29.22-.6.41a2.79,2.79,0,0,1-1.41.42,2.12,2.12,0,0,1-.58-.08,1.33,1.33,0,0,1-.41-.16,1.21,1.21,0,0,1-.32-.28l-.28.22-.3.21h0a5.28,5.28,0,0,1-.54.32l-.49.23a2,2,0,0,1-.44.12A2.86,2.86,0,0,1,112.89,28.64Z" fill="#0f1c3f"/>
    <path d="M120.09,27.5a1.72,1.72,0,0,1-.33,0,1.32,1.32,0,0,1-.5-.25,1.39,1.39,0,0,1-.35-.41,1.23,1.23,0,0,1-.71.05,1.17,1.17,0,0,1-.64-.38,1.06,1.06,0,0,1-.24-.41,1.18,1.18,0,0,1-.05-.46,1.21,1.21,0,0,1,.12-.44,1.29,1.29,0,0,1,.29-.38l.29-.25.32-.31.62-.58q.32-.29.63-.53l.4-.28.36-.2a1.9,1.9,0,0,1,1.24-.17,1.45,1.45,0,0,1,.58.32,1.54,1.54,0,0,1,.38.55,1.48,1.48,0,0,1,0,1l0,.12-.06.13a1.23,1.23,0,0,1,.63.67,1.25,1.25,0,0,1,.07.48,1.22,1.22,0,0,1-.11.45,1.18,1.18,0,0,1-.7.62l-.7.26-.53.19-.23.08-.16.06-.26.06A1.14,1.14,0,0,1,120.09,27.5Z" fill="#0f1c3f"/>
    <path d="M124.62,27.86a1.22,1.22,0,0,1-1.17-.84,1.2,1.2,0,0,1,0-.7v-.11a7.76,7.76,0,0,1-1.22.6,1.24,1.24,0,0,1-.93,0,1.27,1.27,0,0,1-.38-.27,1.13,1.13,0,0,1-.26-.4,1,1,0,0,1-.08-.47,1.29,1.29,0,0,1,.12-.45,1.24,1.24,0,0,1,.27-.38,1.15,1.15,0,0,1,.41-.25,5.26,5.26,0,0,0,.7-.35,11.28,11.28,0,0,0,1.35-.95l.47-.38.37-.32.34-.31a1.19,1.19,0,0,1,1.17-.3,1.13,1.13,0,0,1,.44.22,1.36,1.36,0,0,1,.32.36,1.18,1.18,0,0,1,.17.68,5,5,0,0,1-.13.8c0,.08,0,.16-.05.23l-.07.25a1.24,1.24,0,0,1,1.22.72,1.17,1.17,0,0,1,.1.46,1.3,1.3,0,0,1-.08.45,1.15,1.15,0,0,1-.24.39,1.13,1.13,0,0,1-.4.27l-.74.34-.58.29-.4.21-.16.08A1.23,1.23,0,0,1,124.62,27.86Z" fill="#0f1c3f"/>
    <path d="M128.18,27.5a1.72,1.72,0,0,1-.33,0,1.32,1.32,0,0,1-.5-.25,1.39,1.39,0,0,1-.35-.41,1.23,1.23,0,0,1-.71.05,1.17,1.17,0,0,1-.64-.38,1.06,1.06,0,0,1-.24-.41,1.18,1.18,0,0,1-.05-.46,1.21,1.21,0,0,1,.12-.44,1.29,1.29,0,0,1,.29-.38l.29-.25.32-.31.62-.58q.32-.29.63-.53l.4-.28.36-.2a1.9,1.9,0,0,1,1.24-.17,1.45,1.45,0,0,1,.58.32,1.54,1.54,0,0,1,.38.55,1.48,1.48,0,0,1,0,1l0,.12-.06.13a1.23,1.23,0,0,1,.63.67,1.25,1.25,0,0,1,.07.48,1.22,1.22,0,0,1-.11.45,1.18,1.18,0,0,1-.7.62l-.7.26-.53.19-.23.08-.16.06-.26.06A1.14,1.14,0,0,1,128.18,27.5Z" fill="#0f1c3f"/>
    <path d="M137.86,28.57a1.93,1.93,0,0,1-.46-.06,1.18,1.18,0,0,1-.46-.22,1.07,1.07,0,0,1-.32-.39,1.09,1.09,0,0,1-.12-.3,1.29,1.29,0,0,1,0-.27,1.85,1.85,0,0,1,0-.22c0-.06,0-.12,0-.16l0-.13a.93.93,0,0,1,0-.14l-.16.08-.16.05a1.26,1.26,0,0,1-.41.07,1.23,1.23,0,0,1-.69-.21,1.15,1.15,0,0,1-.45-.58,1.08,1.08,0,0,1-.07-.47,1.24,1.24,0,0,1,.12-.44,1.32,1.32,0,0,1,.27-.37,1.07,1.07,0,0,1,.41-.25l.14-.06.3-.17q.19-.13.49-.35l.72-.59.46-.41.37-.34.25-.23.1-.09a1.22,1.22,0,0,1,.54-.31,1.11,1.11,0,0,1,.63,0,1.1,1.1,0,0,1,.76.6,1.48,1.48,0,0,1,.13.37,1.06,1.06,0,0,1,0,.55s0,0,0,0,0,0,0,0l0,.06a.22.22,0,0,1,0,.06,1.5,1.5,0,0,1-.07.18l-.09.23-.1.29c0,.1-.08.21-.13.32l0,0,0,0a1.23,1.23,0,0,1,.91-.17,1.26,1.26,0,0,1,.43.18,1.16,1.16,0,0,1,.33.34,1.08,1.08,0,0,1,.19.44,1.18,1.18,0,0,1,0,.46,1.27,1.27,0,0,1-.18.43,1.13,1.13,0,0,1-.34.34l-.55.38-.53.39-.57.42a4.55,4.55,0,0,1-.53.34,3,3,0,0,1-.37.17l-.34.11A2.24,2.24,0,0,1,137.86,28.57Z" fill="#0f1c3f"/>
    <path d="M143.38,27.86a1.22,1.22,0,0,1-1.17-.84,1.2,1.2,0,0,1,0-.7v-.11a7.76,7.76,0,0,1-1.22.6,1.24,1.24,0,0,1-.93,0,1.27,1.27,0,0,1-.38-.27,1.13,1.13,0,0,1-.26-.4,1,1,0,0,1-.08-.47,1.29,1.29,0,0,1,.12-.45,1.24,1.24,0,0,1,.27-.38,1.15,1.15,0,0,1,.41-.25,5.26,5.26,0,0,0,.7-.35,11.28,11.28,0,0,0,1.35-.95l.47-.38.37-.32.34-.31a1.19,1.19,0,0,1,1.17-.3,1.13,1.13,0,0,1,.44.22,1.36,1.36,0,0,1,.32.36,1.18,1.18,0,0,1,.17.68,5,5,0,0,1-.13.8c0,.08,0,.16-.05.23l-.07.25a1.24,1.24,0,0,1,1.22.72,1.17,1.17,0,0,1,.1.46,1.3,1.3,0,0,1-.08.45,1.15,1.15,0,0,1-.24.39,1.13,1.13,0,0,1-.4.27l-.74.34-.58.29-.4.21-.16.08A1.23,1.23,0,0,1,143.38,27.86Z" fill="#0f1c3f"/>
    <path d="M147.35,28.57a1.93,1.93,0,0,1-.46-.06,1.18,1.18,0,0,1-.46-.22,1.07,1.07,0,0,1-.32-.39,1.09,1.09,0,0,1-.12-.3,1.29,1.29,0,0,1,0-.27,1.85,1.85,0,0,1,0-.22c0-.06,0-.12,0-.16l0-.13a.93.93,0,0,1,0-.14l-.16.08-.16.05a1.26,1.26,0,0,1-.41.07,1.23,1.23,0,0,1-.69-.21,1.15,1.15,0,0,1-.45-.58,1.08,1.08,0,0,1-.07-.47,1.24,1.24,0,0,1,.12-.44,1.32,1.32,0,0,1,.27-.37,1.07,1.07,0,0,1,.41-.25l.14-.06.3-.17q.19-.13.49-.35l.72-.59L147,23l.37-.34.25-.23.1-.09a1.22,1.22,0,0,1,.54-.31,1.11,1.11,0,0,1,.63,0,1.1,1.1,0,0,1,.76.6,1.48,1.48,0,0,1,.13.37,1.06,1.06,0,0,1,0,.55s0,0,0,0,0,0,0,0l0,.06a.22.22,0,0,1,0,.06,1.5,1.5,0,0,1-.07.18l-.09.23-.1.29c0,.1-.08.21-.13.32l0,0,0,0a1.23,1.23,0,0,1,.91-.17,1.26,1.26,0,0,1,.43.18,1.16,1.16,0,0,1,.33.34,1.08,1.08,0,0,1,.19.44,1.18,1.18,0,0,1,0,.46,1.27,1.27,0,0,1-.18.43,1.13,1.13,0,0,1-.34.34l-.55.38-.53.39-.57.42a4.55,4.55,0,0,1-.53.34,3,3,0,0,1-.37.17l-.34.11A2.24,2.24,0,0,1,147.35,28.57Z" fill="#0f1c3f"/>
    <path d="M154.34,27.74a1.37,1.37,0,0,1-.38-.06,1.16,1.16,0,0,1-.52-.27,1.25,1.25,0,0,1-.33-.47,1.38,1.38,0,0,1,0-1,3.8,3.8,0,0,1,.22-.48l.05-.1.07-.11-.55.31-.55.31q-.5.3-1,.55t-.85.41a1.1,1.1,0,0,1-.47.11,1.27,1.27,0,0,1-.46-.08,1.23,1.23,0,0,1-.4-.25,1.12,1.12,0,0,1-.27-.39,1.06,1.06,0,0,1-.11-.46,1.22,1.22,0,0,1,.33-.84,1.15,1.15,0,0,1,.4-.27l.69-.35.87-.49,1.13-.64a11.58,11.58,0,0,1,1.16-.57,5,5,0,0,1,1.21-.42,3.63,3.63,0,0,1,.72-.11,2.23,2.23,0,0,1,.65.07,1.39,1.39,0,0,1,1,1.7,4.34,4.34,0,0,1-.33.82l.08,0,.08,0a1.12,1.12,0,0,1,.47-.07,1.35,1.35,0,0,1,.45.11,1.2,1.2,0,0,1,.38.27,1.18,1.18,0,0,1,.25.4,1.23,1.23,0,0,1,.07.47,1.19,1.19,0,0,1-.11.44,1.17,1.17,0,0,1-.27.37,1.18,1.18,0,0,1-.42.25l-1,.37-.84.28-.83.21A2.83,2.83,0,0,1,154.34,27.74Z" fill="#0f1c3f"/>
    <path d="M35.12,41.5a1.73,1.73,0,0,1-.33,0,1.32,1.32,0,0,1-.5-.25,1.39,1.39,0,0,1-.35-.41,1.23,1.23,0,0,1-.71.05,1.17,1.17,0,0,1-.64-.38,1.07,1.07,0,0,1-.24-.41,1.21,1.21,0,0,1,.07-.91,1.28,1.28,0,0,1,.29-.38l.29-.25.32-.31.62-.58q.32-.29.63-.53l.4-.28.36-.2a1.9,1.9,0,0,1,1.24-.17,1.45,1.45,0,0,1,.58.32,1.53,1.53,0,0,1,.38.55,1.48,1.48,0,0,1,0,1l0,.12-.06.13a1.19,1.19,0,0,1,.71,1.15,1.21,1.21,0,0,1-.11.45,1.17,1.17,0,0,1-.27.37,1.2,1.2,0,0,1-.42.25l-.7.26-.53.19-.23.08-.16.06-.26.06A1.13,1.13,0,0,1,35.12,41.5Z" fill="#0f1c3f"/>
    <path d="M39.64,41.86A1.22,1.22,0,0,1,38.47,41a1.19,1.19,0,0,1,0-.7v-.11a7.77,7.77,0,0,1-1.22.6,1.23,1.23,0,0,1-.93,0,1.28,1.28,0,0,1-.38-.27,1.15,1.15,0,0,1-.26-.4,1,1,0,0,1-.08-.47,1.3,1.3,0,0,1,.12-.45,1.24,1.24,0,0,1,.27-.38,1.16,1.16,0,0,1,.41-.25,5.2,5.2,0,0,0,.7-.35,11.32,11.32,0,0,0,1.35-.95l.47-.38.37-.32.34-.31a1.19,1.19,0,0,1,1.17-.3,1.12,1.12,0,0,1,.44.22,1.34,1.34,0,0,1,.32.36,1.18,1.18,0,0,1,.17.68,5,5,0,0,1-.13.8l-.05.23-.07.25a1.24,1.24,0,0,1,1.22.72,1.16,1.16,0,0,1,.1.46,1.3,1.3,0,0,1-.08.45,1.14,1.14,0,0,1-.64.66l-.74.34-.58.29-.4.21-.16.08A1.23,1.23,0,0,1,39.64,41.86Z" fill="#0f1c3f"/>
    <path d="M43.61,42.57a1.94,1.94,0,0,1-.46-.06,1.18,1.18,0,0,1-.46-.22,1.31,1.31,0,0,1-.43-.69,1.29,1.29,0,0,1,0-.27,1.74,1.74,0,0,1,0-.22c0-.06,0-.12,0-.16l0-.13a1.06,1.06,0,0,1,0-.14l-.16.08-.16.05a1.26,1.26,0,0,1-.41.07,1.23,1.23,0,0,1-.69-.21,1.14,1.14,0,0,1-.45-.58,1.09,1.09,0,0,1-.07-.47,1.24,1.24,0,0,1,.12-.44,1.32,1.32,0,0,1,.27-.37,1.08,1.08,0,0,1,.41-.25l.14-.06.3-.17q.19-.13.49-.35l.72-.59.46-.41.37-.34.25-.23.1-.09a1.21,1.21,0,0,1,.54-.31,1.12,1.12,0,0,1,.63,0,1.1,1.1,0,0,1,.76.6,1.48,1.48,0,0,1,.13.37,1.06,1.06,0,0,1,0,.55s0,0,0,0,0,0,0,0a.22.22,0,0,0,0,.06l0,.06a1.5,1.5,0,0,1-.07.18l-.09.23-.1.29q-.05.16-.13.32l0,0,0,0a1.23,1.23,0,0,1,.91-.17,1.25,1.25,0,0,1,.43.18,1.15,1.15,0,0,1,.33.34,1.08,1.08,0,0,1,.19.44,1.18,1.18,0,0,1,0,.46,1.27,1.27,0,0,1-.18.43,1.13,1.13,0,0,1-.34.34l-.55.38-.53.39-.57.42a4.54,4.54,0,0,1-.53.34,2.93,2.93,0,0,1-.37.17l-.34.11A2.25,2.25,0,0,1,43.61,42.57Z" fill="#0f1c3f"/>
    <path d="M50.61,41.74a1.37,1.37,0,0,1-.38-.06,1.16,1.16,0,0,1-.52-.27,1.25,1.25,0,0,1-.33-.47,1.37,1.37,0,0,1,0-1,3.72,3.72,0,0,1,.22-.48l.05-.1.07-.11-.55.31-.55.31q-.5.3-1,.55t-.85.41a1.1,1.1,0,0,1-.47.11,1.26,1.26,0,0,1-.46-.08,1.22,1.22,0,0,1-.4-.25,1.13,1.13,0,0,1-.27-.39,1.05,1.05,0,0,1-.11-.46,1.21,1.21,0,0,1,.33-.84,1.14,1.14,0,0,1,.4-.27l.69-.35.87-.49,1.13-.64a11.63,11.63,0,0,1,1.16-.57,5,5,0,0,1,1.21-.42,3.64,3.64,0,0,1,.73-.11,2.22,2.22,0,0,1,.65.07,1.39,1.39,0,0,1,1,1.7,4.24,4.24,0,0,1-.33.82l.08,0,.08,0a1.12,1.12,0,0,1,.47-.07,1.34,1.34,0,0,1,.45.11,1.2,1.2,0,0,1,.63.67,1.23,1.23,0,0,1,.07.47,1.2,1.2,0,0,1-.11.44,1.17,1.17,0,0,1-.27.37,1.19,1.19,0,0,1-.42.25l-1,.37-.84.28-.83.21A2.84,2.84,0,0,1,50.61,41.74Z" fill="#0f1c3f"/>
    <path d="M57.78,41.74a1.37,1.37,0,0,1-.38-.06,1.16,1.16,0,0,1-.52-.27,1.25,1.25,0,0,1-.33-.47,1.37,1.37,0,0,1,0-1,3.72,3.72,0,0,1,.22-.48l.05-.1.07-.11-.55.31-.55.31q-.5.3-1,.55t-.85.41a1.1,1.1,0,0,1-.47.11,1.26,1.26,0,0,1-.46-.08,1.22,1.22,0,0,1-.4-.25,1.13,1.13,0,0,1-.27-.39,1.05,1.05,0,0,1-.11-.46,1.21,1.21,0,0,1,.33-.84,1.14,1.14,0,0,1,.4-.27l.69-.35.87-.49,1.13-.64a11.63,11.63,0,0,1,1.16-.57,5,5,0,0,1,1.21-.42,3.64,3.64,0,0,1,.73-.11,2.22,2.22,0,0,1,.65.07,1.39,1.39,0,0,1,1,1.7,4.24,4.24,0,0,1-.33.82l.08,0,.08,0a1.12,1.12,0,0,1,.47-.07,1.34,1.34,0,0,1,.45.11,1.2,1.2,0,0,1,.63.67,1.23,1.23,0,0,1,.07.47,1.2,1.2,0,0,1-.11.44,1.17,1.17,0,0,1-.27.37,1.19,1.19,0,0,1-.42.25l-1,.37-.84.28-.83.21A2.84,2.84,0,0,1,57.78,41.74Z" fill="#0f1c3f"/>
    <path d="M61.6,42.64h-.25l-.18,0a1.73,1.73,0,0,1-.61-.31,1.33,1.33,0,0,1-.4-.51A1.13,1.13,0,0,1,60,41.5a1.63,1.63,0,0,1,0-.28,1.86,1.86,0,0,1,0-.37l-.23-.16a.64.64,0,0,1-.18-.18,1.33,1.33,0,0,1-.29-.82,1.21,1.21,0,0,1,.13-.55,1.61,1.61,0,0,1,.35-.46l.23-.23a4.4,4.4,0,0,0,.3-.34l.24-.26.35-.37.35-.35.34-.29.26-.19a1.76,1.76,0,0,1,1.32-.24,1.27,1.27,0,0,1,.94.78h0a1.7,1.7,0,0,1,.08.21,1.21,1.21,0,0,1,0,.21l.3-.34L64.8,37l.17-.19,0,0,0,0a1.57,1.57,0,0,1,.66-.46,1.31,1.31,0,0,1,.77,0,1.27,1.27,0,0,1,.49.26,1.7,1.7,0,0,1,.37.44,1.43,1.43,0,0,1,.15.65,2.48,2.48,0,0,1,0,.37l0,.11,0,.1-.07.23v0a1.52,1.52,0,0,1,.48.13,1.21,1.21,0,0,1,.41.3,1.39,1.39,0,0,1,.32.86,1.29,1.29,0,0,1-.5,1l-.06.06-.54.43a7.2,7.2,0,0,1-.6.41,2.79,2.79,0,0,1-1.41.42,2.12,2.12,0,0,1-.58-.08,1.32,1.32,0,0,1-.41-.16,1.2,1.2,0,0,1-.32-.28l-.28.22-.3.21h0a5.08,5.08,0,0,1-.54.32l-.49.23a2,2,0,0,1-.44.12A2.87,2.87,0,0,1,61.6,42.64Z" fill="#0f1c3f"/>
    <path d="M77.36,41.74a1.37,1.37,0,0,1-.38-.06,1.16,1.16,0,0,1-.52-.27,1.25,1.25,0,0,1-.33-.47,1.37,1.37,0,0,1,0-1,3.72,3.72,0,0,1,.22-.48l.05-.1.07-.11-.55.31-.55.31q-.5.3-1,.55t-.85.41a1.1,1.1,0,0,1-.47.11,1.26,1.26,0,0,1-.46-.08,1.22,1.22,0,0,1-.4-.25,1.13,1.13,0,0,1-.27-.39,1.05,1.05,0,0,1-.11-.46,1.21,1.21,0,0,1,.33-.84,1.14,1.14,0,0,1,.4-.27l.69-.35.87-.49,1.13-.64a11.63,11.63,0,0,1,1.16-.57,5,5,0,0,1,1.21-.42,3.64,3.64,0,0,1,.73-.11,2.22,2.22,0,0,1,.65.07,1.39,1.39,0,0,1,1,1.7,4.24,4.24,0,0,1-.33.82l.08,0,.08,0a1.12,1.12,0,0,1,.47-.07,1.34,1.34,0,0,1,.45.11,1.2,1.2,0,0,1,.63.67,1.23,1.23,0,0,1,.07.47,1.2,1.2,0,0,1-.11.44,1.17,1.17,0,0,1-.27.37,1.19,1.19,0,0,1-.42.25l-1,.37-.84.28-.83.21A2.84,2.84,0,0,1,77.36,41.74Z" fill="#0f1c3f"/>
    <path d="M84.54,41.74a1.37,1.37,0,0,1-.38-.06,1.16,1.16,0,0,1-.52-.27,1.25,1.25,0,0,1-.33-.47,1.38,1.38,0,0,1,0-1,3.8,3.8,0,0,1,.22-.48l.05-.1.07-.11-.55.31-.55.31q-.5.3-1,.55t-.85.41a1.1,1.1,0,0,1-.47.11,1.26,1.26,0,0,1-.46-.08,1.22,1.22,0,0,1-.4-.25,1.13,1.13,0,0,1-.27-.39,1.05,1.05,0,0,1-.11-.46,1.21,1.21,0,0,1,.33-.84,1.14,1.14,0,0,1,.4-.27l.69-.35.87-.49,1.13-.64a11.58,11.58,0,0,1,1.16-.57,5,5,0,0,1,1.21-.42,3.63,3.63,0,0,1,.72-.11,2.23,2.23,0,0,1,.65.07,1.39,1.39,0,0,1,1,1.7,4.34,4.34,0,0,1-.33.82l.08,0,.08,0a1.12,1.12,0,0,1,.47-.07,1.35,1.35,0,0,1,.45.11,1.2,1.2,0,0,1,.38.27,1.18,1.18,0,0,1,.25.4,1.23,1.23,0,0,1,.07.47,1.19,1.19,0,0,1-.11.44,1.17,1.17,0,0,1-.27.37,1.18,1.18,0,0,1-.42.25l-1,.37-.84.28-.83.21A2.83,2.83,0,0,1,84.54,41.74Z" fill="#0f1c3f"/>
    <path d="M89.48,42.57a1.93,1.93,0,0,1-.46-.06,1.18,1.18,0,0,1-.46-.22,1.07,1.07,0,0,1-.32-.39,1.09,1.09,0,0,1-.12-.3,1.29,1.29,0,0,1,0-.27,1.85,1.85,0,0,1,0-.22c0-.06,0-.12,0-.16l0-.13a.93.93,0,0,1,0-.14l-.16.08-.16.05a1.26,1.26,0,0,1-.41.07,1.23,1.23,0,0,1-.69-.21,1.15,1.15,0,0,1-.45-.58,1.08,1.08,0,0,1-.07-.47,1.24,1.24,0,0,1,.12-.44,1.32,1.32,0,0,1,.27-.37,1.07,1.07,0,0,1,.41-.25l.14-.06.3-.17q.19-.13.49-.35l.72-.59.46-.41.37-.34.25-.23.1-.09a1.22,1.22,0,0,1,.54-.31A1.11,1.11,0,0,1,91,36a1.1,1.1,0,0,1,.76.6,1.48,1.48,0,0,1,.13.37,1.06,1.06,0,0,1,0,.55s0,0,0,0,0,0,0,0l0,.06a.22.22,0,0,1,0,.06,1.5,1.5,0,0,1-.07.18l-.09.23-.1.29c0,.1-.08.21-.13.32l0,0,0,0a1.23,1.23,0,0,1,.91-.17,1.26,1.26,0,0,1,.43.18,1.16,1.16,0,0,1,.33.34,1.08,1.08,0,0,1,.19.44,1.18,1.18,0,0,1,0,.46,1.27,1.27,0,0,1-.18.43,1.13,1.13,0,0,1-.34.34l-.55.38-.53.39-.57.42a4.55,4.55,0,0,1-.53.34,3,3,0,0,1-.37.17l-.34.11A2.24,2.24,0,0,1,89.48,42.57Z" fill="#0f1c3f"/>
    <path d="M93.83,41.5a1.72,1.72,0,0,1-.33,0,1.32,1.32,0,0,1-.5-.25,1.39,1.39,0,0,1-.35-.41,1.23,1.23,0,0,1-.71.05,1.17,1.17,0,0,1-.64-.38,1.06,1.06,0,0,1-.24-.41,1.18,1.18,0,0,1-.05-.46,1.21,1.21,0,0,1,.12-.44,1.29,1.29,0,0,1,.29-.38l.29-.25.32-.31.62-.58q.32-.29.63-.53l.4-.28.36-.2a1.9,1.9,0,0,1,1.24-.17,1.45,1.45,0,0,1,.58.32,1.54,1.54,0,0,1,.38.55,1.48,1.48,0,0,1,0,1l0,.12-.06.13a1.23,1.23,0,0,1,.63.67,1.25,1.25,0,0,1,.07.48,1.22,1.22,0,0,1-.11.45,1.18,1.18,0,0,1-.7.62l-.7.26-.53.19-.23.08-.16.06-.26.06A1.14,1.14,0,0,1,93.83,41.5Z" fill="#0f1c3f"/>
    <path d="M96.46,42.64h-.25l-.18,0a1.74,1.74,0,0,1-.61-.31,1.33,1.33,0,0,1-.4-.51,1.1,1.1,0,0,1-.11-.31,1.58,1.58,0,0,1,0-.28,1.86,1.86,0,0,1,0-.37l-.23-.16a.65.65,0,0,1-.18-.18,1.32,1.32,0,0,1-.29-.82,1.21,1.21,0,0,1,.13-.55,1.59,1.59,0,0,1,.35-.46l.23-.23q.16-.17.3-.34l.24-.26.35-.37.35-.35.34-.29.26-.19a1.76,1.76,0,0,1,1.32-.24,1.26,1.26,0,0,1,.94.78h0a1.78,1.78,0,0,1,.08.21,1.26,1.26,0,0,1,0,.21l.3-.34.24-.29.17-.19,0,0,0,0a1.57,1.57,0,0,1,.66-.46,1.31,1.31,0,0,1,.77,0,1.26,1.26,0,0,1,.49.26,1.7,1.7,0,0,1,.37.44,1.44,1.44,0,0,1,.15.65,2.46,2.46,0,0,1,0,.37.81.81,0,0,1,0,.11l0,.1-.07.23v0a1.51,1.51,0,0,1,.48.13,1.19,1.19,0,0,1,.41.3,1.38,1.38,0,0,1,.24.42,1.35,1.35,0,0,1,.08.44,1.29,1.29,0,0,1-.5,1l-.06.06-.54.43q-.29.22-.6.41a2.79,2.79,0,0,1-1.41.42,2.12,2.12,0,0,1-.58-.08,1.33,1.33,0,0,1-.41-.16,1.21,1.21,0,0,1-.32-.28l-.28.22-.3.21h0a5.28,5.28,0,0,1-.54.32l-.49.23a2,2,0,0,1-.44.12A2.86,2.86,0,0,1,96.46,42.64Z" fill="#0f1c3f"/>
    <path d="M102.94,42.64h-.25l-.18,0a1.74,1.74,0,0,1-.61-.31,1.33,1.33,0,0,1-.4-.51,1.1,1.1,0,0,1-.11-.31,1.58,1.58,0,0,1,0-.28,1.86,1.86,0,0,1,0-.37l-.23-.16a.65.65,0,0,1-.18-.18,1.32,1.32,0,0,1-.29-.82,1.21,1.21,0,0,1,.13-.55,1.59,1.59,0,0,1,.35-.46l.23-.23q.16-.17.3-.34l.24-.26.35-.37.35-.35.34-.29.26-.19a1.76,1.76,0,0,1,1.32-.24,1.26,1.26,0,0,1,.94.78h0a1.78,1.78,0,0,1,.08.21,1.26,1.26,0,0,1,0,.21l.3-.34.24-.29.17-.19,0,0,0,0a1.57,1.57,0,0,1,.66-.46,1.31,1.31,0,0,1,.77,0,1.26,1.26,0,0,1,.49.26,1.7,1.7,0,0,1,.37.44,1.44,1.44,0,0,1,.15.65,2.46,2.46,0,0,1,0,.37.81.81,0,0,1,0,.11l0,.1-.07.23v0a1.51,1.51,0,0,1,.48.13,1.19,1.19,0,0,1,.41.3,1.38,1.38,0,0,1,.24.42,1.35,1.35,0,0,1,.08.44,1.29,1.29,0,0,1-.5,1l-.06.06-.54.43q-.29.22-.6.41a2.79,2.79,0,0,1-1.41.42,2.12,2.12,0,0,1-.58-.08,1.33,1.33,0,0,1-.41-.16,1.21,1.21,0,0,1-.32-.28l-.28.22-.3.21h0a5.28,5.28,0,0,1-.54.32l-.49.23a2,2,0,0,1-.44.12A2.86,2.86,0,0,1,102.94,42.64Z" fill="#0f1c3f"/>
    <path d="M111.31,41.86a1.22,1.22,0,0,1-1.17-.84,1.2,1.2,0,0,1,0-.7v-.11a7.76,7.76,0,0,1-1.22.6,1.24,1.24,0,0,1-.93,0,1.27,1.27,0,0,1-.38-.27,1.13,1.13,0,0,1-.26-.4,1,1,0,0,1-.08-.47,1.29,1.29,0,0,1,.12-.45,1.24,1.24,0,0,1,.27-.38,1.15,1.15,0,0,1,.41-.25,5.26,5.26,0,0,0,.7-.35,11.28,11.28,0,0,0,1.35-.95l.47-.38.37-.32.34-.31a1.19,1.19,0,0,1,1.17-.3,1.13,1.13,0,0,1,.44.22,1.36,1.36,0,0,1,.32.36,1.18,1.18,0,0,1,.17.68,5,5,0,0,1-.13.8c0,.08,0,.16-.05.23l-.07.25a1.24,1.24,0,0,1,1.22.72,1.17,1.17,0,0,1,.1.46,1.3,1.3,0,0,1-.08.45,1.15,1.15,0,0,1-.24.39,1.13,1.13,0,0,1-.4.27l-.74.34-.58.29-.4.21-.16.08A1.23,1.23,0,0,1,111.31,41.86Z" fill="#0f1c3f"/>
    <path d="M115.28,42.57a1.93,1.93,0,0,1-.46-.06,1.18,1.18,0,0,1-.46-.22,1.07,1.07,0,0,1-.32-.39,1.09,1.09,0,0,1-.12-.3,1.29,1.29,0,0,1,0-.27,1.85,1.85,0,0,1,0-.22c0-.06,0-.12,0-.16l0-.13a.93.93,0,0,1,0-.14l-.16.08-.16.05a1.26,1.26,0,0,1-.41.07,1.23,1.23,0,0,1-.69-.21,1.15,1.15,0,0,1-.45-.58,1.08,1.08,0,0,1-.07-.47,1.24,1.24,0,0,1,.12-.44,1.32,1.32,0,0,1,.27-.37,1.07,1.07,0,0,1,.41-.25l.14-.06.3-.17q.19-.13.49-.35l.72-.59.46-.41.37-.34.25-.23.1-.09a1.22,1.22,0,0,1,.54-.31,1.11,1.11,0,0,1,.63,0,1.1,1.1,0,0,1,.76.6,1.48,1.48,0,0,1,.13.37,1.06,1.06,0,0,1,0,.55s0,0,0,0,0,0,0,0l0,.06a.22.22,0,0,1,0,.06,1.5,1.5,0,0,1-.07.18l-.09.23-.1.29c0,.1-.08.21-.13.32l0,0,0,0a1.23,1.23,0,0,1,.91-.17,1.26,1.26,0,0,1,.43.18A1.16,1.16,0,0,1,119,39a1.08,1.08,0,0,1,.19.44,1.18,1.18,0,0,1,0,.46,1.27,1.27,0,0,1-.18.43,1.13,1.13,0,0,1-.34.34l-.55.38-.53.39-.57.42a4.55,4.55,0,0,1-.53.34,3,3,0,0,1-.37.17l-.34.11A2.24,2.24,0,0,1,115.28,42.57Z" fill="#0f1c3f"/>
    <path d="M121.84,42.64h-.25l-.18,0a1.74,1.74,0,0,1-.61-.31,1.33,1.33,0,0,1-.4-.51,1.1,1.1,0,0,1-.11-.31,1.58,1.58,0,0,1,0-.28,1.86,1.86,0,0,1,0-.37l-.23-.16a.65.65,0,0,1-.18-.18,1.32,1.32,0,0,1-.29-.82,1.21,1.21,0,0,1,.13-.55,1.59,1.59,0,0,1,.35-.46l.23-.23q.16-.17.3-.34l.24-.26.35-.37.35-.35.34-.29.26-.19a1.76,1.76,0,0,1,1.32-.24,1.26,1.26,0,0,1,.94.78h0a1.78,1.78,0,0,1,.08.21,1.26,1.26,0,0,1,0,.21l.3-.34L125,37l.17-.19,0,0,0,0a1.57,1.57,0,0,1,.66-.46,1.31,1.31,0,0,1,.77,0,1.26,1.26,0,0,1,.49.26,1.7,1.7,0,0,1,.37.44,1.44,1.44,0,0,1,.15.65,2.46,2.46,0,0,1,0,.37.81.81,0,0,1,0,.11l0,.1-.07.23v0a1.51,1.51,0,0,1,.48.13,1.19,1.19,0,0,1,.41.3,1.38,1.38,0,0,1,.24.42,1.35,1.35,0,0,1,.08.44,1.29,1.29,0,0,1-.5,1l-.06.06-.54.43q-.29.22-.6.41a2.79,2.79,0,0,1-1.41.42,2.12,2.12,0,0,1-.58-.08,1.33,1.33,0,0,1-.41-.16,1.21,1.21,0,0,1-.32-.28l-.28.22-.3.21h0a5.28,5.28,0,0,1-.54.32l-.49.23a2,2,0,0,1-.44.12A2.86,2.86,0,0,1,121.84,42.64Z" fill="#0f1c3f"/>
    <path d="M130.21,41.86A1.22,1.22,0,0,1,129,41a1.2,1.2,0,0,1,0-.7v-.11a7.76,7.76,0,0,1-1.22.6,1.24,1.24,0,0,1-.93,0,1.27,1.27,0,0,1-.38-.27,1.13,1.13,0,0,1-.26-.4,1,1,0,0,1-.08-.47,1.29,1.29,0,0,1,.12-.45,1.24,1.24,0,0,1,.27-.38,1.15,1.15,0,0,1,.41-.25,5.26,5.26,0,0,0,.7-.35,11.28,11.28,0,0,0,1.35-.95l.47-.38.37-.32.34-.31a1.19,1.19,0,0,1,1.17-.3,1.13,1.13,0,0,1,.44.22,1.36,1.36,0,0,1,.32.36,1.18,1.18,0,0,1,.17.68,5,5,0,0,1-.13.8c0,.08,0,.16-.05.23l-.07.25a1.24,1.24,0,0,1,1.22.72,1.17,1.17,0,0,1,.1.46,1.3,1.3,0,0,1-.08.45,1.15,1.15,0,0,1-.24.39,1.13,1.13,0,0,1-.4.27l-.74.34-.58.29-.4.21-.16.08A1.23,1.23,0,0,1,130.21,41.86Z" fill="#0f1c3f"/>
    <path d="M134.95,41.86a1.22,1.22,0,0,1-1.17-.84,1.2,1.2,0,0,1,0-.7v-.11a7.76,7.76,0,0,1-1.22.6,1.24,1.24,0,0,1-.93,0,1.27,1.27,0,0,1-.38-.27,1.13,1.13,0,0,1-.26-.4,1,1,0,0,1-.08-.47,1.29,1.29,0,0,1,.12-.45,1.24,1.24,0,0,1,.27-.38,1.15,1.15,0,0,1,.41-.25,5.26,5.26,0,0,0,.7-.35,11.28,11.28,0,0,0,1.35-.95l.47-.38.37-.32.34-.31a1.19,1.19,0,0,1,1.17-.3,1.13,1.13,0,0,1,.44.22,1.36,1.36,0,0,1,.32.36,1.18,1.18,0,0,1,.17.68,5,5,0,0,1-.13.8c0,.08,0,.16-.05.23l-.07.25a1.24,1.24,0,0,1,1.22.72,1.17,1.17,0,0,1,.1.46,1.3,1.3,0,0,1-.08.45,1.15,1.15,0,0,1-.24.39,1.13,1.13,0,0,1-.4.27l-.74.34-.58.29-.4.21-.16.08A1.23,1.23,0,0,1,134.95,41.86Z" fill="#0f1c3f"/>
    <path d="M137.8,42.64h-.25l-.18,0a1.74,1.74,0,0,1-.61-.31,1.33,1.33,0,0,1-.4-.51,1.1,1.1,0,0,1-.11-.31,1.58,1.58,0,0,1,0-.28,1.86,1.86,0,0,1,0-.37l-.23-.16a.65.65,0,0,1-.18-.18,1.32,1.32,0,0,1-.29-.82,1.21,1.21,0,0,1,.13-.55,1.59,1.59,0,0,1,.35-.46l.23-.23q.16-.17.3-.34l.24-.26.35-.37.35-.35.34-.29.26-.19a1.76,1.76,0,0,1,1.32-.24,1.26,1.26,0,0,1,.94.78h0a1.78,1.78,0,0,1,.08.21,1.26,1.26,0,0,1,0,.21l.3-.34L141,37l.17-.19,0,0,0,0a1.57,1.57,0,0,1,.66-.46,1.31,1.31,0,0,1,.77,0,1.26,1.26,0,0,1,.49.26,1.7,1.7,0,0,1,.37.44,1.44,1.44,0,0,1,.15.65,2.46,2.46,0,0,1,0,.37.81.81,0,0,1,0,.11l0,.1-.07.23v0a1.51,1.51,0,0,1,.48.13,1.19,1.19,0,0,1,.41.3,1.38,1.38,0,0,1,.24.42,1.35,1.35,0,0,1,.08.44,1.29,1.29,0,0,1-.5,1l-.06.06-.54.43q-.29.22-.6.41a2.79,2.79,0,0,1-1.41.42,2.12,2.12,0,0,1-.58-.08,1.33,1.33,0,0,1-.41-.16,1.21,1.21,0,0,1-.32-.28l-.28.22-.3.21h0a5.28,5.28,0,0,1-.54.32l-.49.23a2,2,0,0,1-.44.12A2.86,2.86,0,0,1,137.8,42.64Z" fill="#0f1c3f"/>
  </g>
  <g opacity="0.5">
    <path d="M96.9,108.14h-.25l-.18,0a1.73,1.73,0,0,1-.61-.31,1.33,1.33,0,0,1-.4-.51,1.13,1.13,0,0,1-.11-.31,1.63,1.63,0,0,1,0-.28,1.86,1.86,0,0,1,0-.37l-.23-.16A.64.64,0,0,1,95,106a1.33,1.33,0,0,1-.29-.82,1.21,1.21,0,0,1,.13-.55,1.61,1.61,0,0,1,.35-.46l.23-.23a4.4,4.4,0,0,0,.3-.34l.24-.26.35-.37.35-.35.34-.29.26-.19a1.76,1.76,0,0,1,1.32-.24,1.27,1.27,0,0,1,.94.78h0a1.7,1.7,0,0,1,.08.21,1.21,1.21,0,0,1,0,.21l.3-.34.24-.29.17-.19,0,0,0,0a1.57,1.57,0,0,1,.66-.46,1.31,1.31,0,0,1,.77,0,1.27,1.27,0,0,1,.49.26,1.7,1.7,0,0,1,.37.44,1.43,1.43,0,0,1,.15.65,2.48,2.48,0,0,1,0,.37l0,.11,0,.1-.07.23v0a1.52,1.52,0,0,1,.48.13,1.21,1.21,0,0,1,.41.3,1.39,1.39,0,0,1,.32.86,1.29,1.29,0,0,1-.5,1l-.06.06-.54.43a7.2,7.2,0,0,1-.6.41,2.79,2.79,0,0,1-1.41.42,2.12,2.12,0,0,1-.58-.08,1.32,1.32,0,0,1-.41-.16,1.2,1.2,0,0,1-.32-.28l-.28.22-.3.21h0a5.08,5.08,0,0,1-.54.32l-.49.23a2,2,0,0,1-.44.12A2.87,2.87,0,0,1,96.9,108.14Z" fill="#0f1c3f"/>
    <path d="M103.38,108.14h-.25l-.18,0a1.73,1.73,0,0,1-.61-.31,1.33,1.33,0,0,1-.4-.51,1.13,1.13,0,0,1-.11-.31,1.63,1.63,0,0,1,0-.28,1.86,1.86,0,0,1,0-.37l-.23-.16a.64.64,0,0,1-.18-.18,1.33,1.33,0,0,1-.29-.82,1.21,1.21,0,0,1,.13-.55,1.61,1.61,0,0,1,.35-.46l.23-.23a4.4,4.4,0,0,0,.3-.34l.24-.26.35-.37.35-.35.34-.29.26-.19a1.76,1.76,0,0,1,1.32-.24,1.27,1.27,0,0,1,.94.78h0a1.7,1.7,0,0,1,.08.21,1.21,1.21,0,0,1,0,.21l.3-.34.24-.29.17-.19,0,0,0,0a1.57,1.57,0,0,1,.66-.46,1.31,1.31,0,0,1,.77,0,1.27,1.27,0,0,1,.49.26,1.7,1.7,0,0,1,.37.44,1.43,1.43,0,0,1,.15.65,2.48,2.48,0,0,1,0,.37l0,.11,0,.1-.07.23v0a1.52,1.52,0,0,1,.48.13,1.21,1.21,0,0,1,.41.3,1.39,1.39,0,0,1,.32.86,1.29,1.29,0,0,1-.5,1l-.06.06-.54.43a7.2,7.2,0,0,1-.6.41,2.79,2.79,0,0,1-1.41.42,2.12,2.12,0,0,1-.58-.08,1.32,1.32,0,0,1-.41-.16,1.2,1.2,0,0,1-.32-.28l-.28.22-.3.21h0a5.08,5.08,0,0,1-.54.32l-.49.23a2,2,0,0,1-.44.12A2.87,2.87,0,0,1,103.38,108.14Z" fill="#0f1c3f"/>
    <path d="M113.23,107.24a1.37,1.37,0,0,1-.38-.06,1.16,1.16,0,0,1-.52-.27,1.25,1.25,0,0,1-.33-.47,1.37,1.37,0,0,1,0-1,3.72,3.72,0,0,1,.22-.48l.05-.1.07-.11-.55.31-.55.31q-.5.3-1,.55t-.85.41a1.1,1.1,0,0,1-.47.11,1.26,1.26,0,0,1-.46-.08,1.22,1.22,0,0,1-.4-.25,1.13,1.13,0,0,1-.27-.39,1.05,1.05,0,0,1-.11-.46,1.21,1.21,0,0,1,.33-.84,1.14,1.14,0,0,1,.4-.27l.69-.35.87-.49,1.13-.64a11.63,11.63,0,0,1,1.16-.57,5,5,0,0,1,1.21-.42,3.63,3.63,0,0,1,.72-.11,2.23,2.23,0,0,1,.65.07,1.39,1.39,0,0,1,1,1.7,4.21,4.21,0,0,1-.33.82l.08,0,.08,0a1.12,1.12,0,0,1,.47-.07,1.35,1.35,0,0,1,.45.11,1.18,1.18,0,0,1,.38.27,1.17,1.17,0,0,1,.25.4,1.23,1.23,0,0,1,.07.47,1.18,1.18,0,0,1-.8,1.06l-1,.37-.84.28-.83.21A2.84,2.84,0,0,1,113.23,107.24Z" fill="#0f1c3f"/>
    <path d="M120.41,107.24a1.36,1.36,0,0,1-.38-.06,1.17,1.17,0,0,1-.52-.27,1.25,1.25,0,0,1-.33-.47,1.37,1.37,0,0,1,0-1,3.8,3.8,0,0,1,.22-.48l.05-.1.07-.11L119,105l-.55.31q-.5.3-1,.55t-.85.41a1.1,1.1,0,0,1-.47.11,1.26,1.26,0,0,1-.46-.08,1.23,1.23,0,0,1-.4-.25,1.13,1.13,0,0,1-.27-.39,1.05,1.05,0,0,1-.11-.46,1.22,1.22,0,0,1,.08-.45,1.23,1.23,0,0,1,.25-.39,1.14,1.14,0,0,1,.4-.27l.69-.35.87-.49,1.13-.64a11.57,11.57,0,0,1,1.16-.57,5,5,0,0,1,1.21-.42,3.63,3.63,0,0,1,.72-.11,2.23,2.23,0,0,1,.65.07,1.39,1.39,0,0,1,1,1.7,4.21,4.21,0,0,1-.33.82l.08,0,.08,0a1.12,1.12,0,0,1,.47-.07,1.35,1.35,0,0,1,.45.11,1.19,1.19,0,0,1,.63.67,1.23,1.23,0,0,1,.07.47,1.19,1.19,0,0,1-.11.44,1.17,1.17,0,0,1-.27.37,1.18,1.18,0,0,1-.42.25l-1,.37-.84.28-.83.21A2.84,2.84,0,0,1,120.41,107.24Z" fill="#0f1c3f"/>
    <path d="M125.34,108.07a1.93,1.93,0,0,1-.46-.06,1.18,1.18,0,0,1-.46-.22,1.07,1.07,0,0,1-.32-.39,1.09,1.09,0,0,1-.12-.3,1.29,1.29,0,0,1,0-.27,1.85,1.85,0,0,1,0-.22c0-.06,0-.12,0-.16l0-.13a.93.93,0,0,1,0-.14l-.16.08-.16.05a1.26,1.26,0,0,1-.41.07,1.23,1.23,0,0,1-.69-.21,1.14,1.14,0,0,1-.45-.58,1.09,1.09,0,0,1-.07-.47,1.24,1.24,0,0,1,.12-.44,1.31,1.31,0,0,1,.27-.37,1.09,1.09,0,0,1,.42-.25L123,104l.3-.17q.19-.13.49-.35l.72-.59.46-.41.37-.34.25-.23.1-.09a1.22,1.22,0,0,1,.54-.31,1.11,1.11,0,0,1,.63,0,1.1,1.1,0,0,1,.76.6,1.48,1.48,0,0,1,.13.37,1.06,1.06,0,0,1,0,.55s0,0,0,0,0,0,0,0l0,.06a.22.22,0,0,1,0,.06,1.5,1.5,0,0,1-.07.18l-.09.23-.1.29c0,.1-.08.21-.13.32l0,0,0,0a1.23,1.23,0,0,1,.91-.17,1.26,1.26,0,0,1,.43.18,1.16,1.16,0,0,1,.33.34,1.08,1.08,0,0,1,.19.44,1.18,1.18,0,0,1,0,.46,1.27,1.27,0,0,1-.18.43,1.13,1.13,0,0,1-.34.34l-.55.38-.53.39-.57.42a4.55,4.55,0,0,1-.53.34,3,3,0,0,1-.37.17l-.34.11A2.24,2.24,0,0,1,125.34,108.07Z" fill="#0f1c3f"/>
    <path d="M132.33,107.24a1.37,1.37,0,0,1-.38-.06,1.16,1.16,0,0,1-.52-.27,1.25,1.25,0,0,1-.33-.47,1.38,1.38,0,0,1,0-1,3.8,3.8,0,0,1,.22-.48l.05-.1.07-.11-.55.31-.55.31q-.5.3-1,.55t-.85.41a1.1,1.1,0,0,1-.47.11,1.27,1.27,0,0,1-.46-.08,1.23,1.23,0,0,1-.4-.25,1.12,1.12,0,0,1-.27-.39,1.06,1.06,0,0,1-.11-.46,1.22,1.22,0,0,1,.33-.84,1.15,1.15,0,0,1,.4-.27l.69-.35.87-.49,1.13-.64a11.58,11.58,0,0,1,1.16-.57,5,5,0,0,1,1.21-.42,3.63,3.63,0,0,1,.72-.11,2.23,2.23,0,0,1,.65.07,1.39,1.39,0,0,1,1,1.7,4.34,4.34,0,0,1-.33.82l.08,0,.08,0a1.12,1.12,0,0,1,.47-.07,1.35,1.35,0,0,1,.45.11,1.2,1.2,0,0,1,.38.27,1.18,1.18,0,0,1,.25.4,1.23,1.23,0,0,1,.07.47,1.19,1.19,0,0,1-.11.44,1.17,1.17,0,0,1-.27.37,1.18,1.18,0,0,1-.42.25l-1,.37-.84.28-.83.21A2.83,2.83,0,0,1,132.33,107.24Z" fill="#0f1c3f"/>
    <path d="M136.15,108.14h-.25l-.18,0a1.74,1.74,0,0,1-.61-.31,1.33,1.33,0,0,1-.4-.51,1.1,1.1,0,0,1-.11-.31,1.58,1.58,0,0,1,0-.28,1.86,1.86,0,0,1,0-.37l-.23-.16a.65.65,0,0,1-.18-.18,1.32,1.32,0,0,1-.29-.82,1.21,1.21,0,0,1,.13-.55,1.59,1.59,0,0,1,.35-.46l.23-.23q.16-.17.3-.34l.24-.26.35-.37.35-.35.34-.29.26-.19a1.76,1.76,0,0,1,1.32-.24,1.26,1.26,0,0,1,.94.78h0a1.78,1.78,0,0,1,.08.21,1.26,1.26,0,0,1,0,.21l.3-.34.24-.29.17-.19,0,0,0,0a1.57,1.57,0,0,1,.66-.46,1.31,1.31,0,0,1,.77,0,1.26,1.26,0,0,1,.49.26,1.7,1.7,0,0,1,.37.44,1.44,1.44,0,0,1,.15.65,2.46,2.46,0,0,1,0,.37.81.81,0,0,1,0,.11l0,.1-.07.23v0a1.51,1.51,0,0,1,.48.13,1.19,1.19,0,0,1,.41.3,1.38,1.38,0,0,1,.24.42,1.35,1.35,0,0,1,.08.44,1.29,1.29,0,0,1-.5,1l-.06.06-.54.43q-.29.22-.6.41a2.79,2.79,0,0,1-1.41.42,2.12,2.12,0,0,1-.58-.08,1.33,1.33,0,0,1-.41-.16,1.21,1.21,0,0,1-.32-.28l-.28.22-.3.21h0a5.28,5.28,0,0,1-.54.32L137,108a2,2,0,0,1-.44.12A2.86,2.86,0,0,1,136.15,108.14Z" fill="#0f1c3f"/>
    <path d="M142.63,108.14h-.25l-.18,0a1.74,1.74,0,0,1-.61-.31,1.33,1.33,0,0,1-.4-.51,1.1,1.1,0,0,1-.11-.31,1.58,1.58,0,0,1,0-.28,1.86,1.86,0,0,1,0-.37l-.23-.16a.65.65,0,0,1-.18-.18,1.32,1.32,0,0,1-.29-.82,1.21,1.21,0,0,1,.13-.55,1.59,1.59,0,0,1,.35-.46l.23-.23q.16-.17.3-.34l.24-.26L142,103l.35-.35.34-.29.26-.19a1.76,1.76,0,0,1,1.32-.24,1.26,1.26,0,0,1,.94.78h0a1.78,1.78,0,0,1,.08.21,1.26,1.26,0,0,1,0,.21l.3-.34.24-.29.17-.19,0,0,0,0a1.57,1.57,0,0,1,.66-.46,1.31,1.31,0,0,1,.77,0,1.26,1.26,0,0,1,.49.26,1.7,1.7,0,0,1,.37.44,1.44,1.44,0,0,1,.15.65,2.46,2.46,0,0,1,0,.37.81.81,0,0,1,0,.11l0,.1-.07.23v0a1.51,1.51,0,0,1,.48.13,1.19,1.19,0,0,1,.41.3,1.38,1.38,0,0,1,.24.42,1.35,1.35,0,0,1,.08.44,1.29,1.29,0,0,1-.5,1l-.06.06-.54.43q-.29.22-.6.41a2.79,2.79,0,0,1-1.41.42,2.12,2.12,0,0,1-.58-.08,1.33,1.33,0,0,1-.41-.16,1.21,1.21,0,0,1-.32-.28l-.28.22-.3.21h0a5.28,5.28,0,0,1-.54.32l-.49.23a2,2,0,0,1-.44.12A2.86,2.86,0,0,1,142.63,108.14Z" fill="#0f1c3f"/>
    <path d="M97.62,121a1.73,1.73,0,0,1-.33,0,1.32,1.32,0,0,1-.5-.25,1.39,1.39,0,0,1-.35-.41,1.23,1.23,0,0,1-.71.05,1.17,1.17,0,0,1-.64-.38,1.07,1.07,0,0,1-.24-.41,1.21,1.21,0,0,1,.07-.91,1.28,1.28,0,0,1,.29-.38l.29-.25.32-.31.62-.58q.32-.29.63-.53l.4-.28.36-.2A1.9,1.9,0,0,1,99,116a1.45,1.45,0,0,1,.58.32,1.53,1.53,0,0,1,.38.55,1.48,1.48,0,0,1,0,1l0,.12-.06.13a1.19,1.19,0,0,1,.71,1.15,1.21,1.21,0,0,1-.11.45,1.17,1.17,0,0,1-.27.37,1.2,1.2,0,0,1-.42.25l-.7.26-.53.19-.23.08-.16.06-.26.06A1.13,1.13,0,0,1,97.62,121Z" fill="#0f1c3f"/>
    <path d="M102.14,121.36a1.22,1.22,0,0,1-1.17-.84,1.19,1.19,0,0,1,0-.7v-.11a7.77,7.77,0,0,1-1.22.6,1.23,1.23,0,0,1-.93,0,1.28,1.28,0,0,1-.38-.27,1.15,1.15,0,0,1-.26-.4,1,1,0,0,1-.08-.47,1.3,1.3,0,0,1,.12-.45,1.24,1.24,0,0,1,.27-.38,1.16,1.16,0,0,1,.41-.25,5.2,5.2,0,0,0,.7-.35,11.32,11.32,0,0,0,1.35-.95l.47-.38.37-.32.34-.31a1.19,1.19,0,0,1,1.17-.3,1.12,1.12,0,0,1,.44.22,1.34,1.34,0,0,1,.32.36,1.18,1.18,0,0,1,.17.68,5,5,0,0,1-.13.8l-.05.23L104,118a1.24,1.24,0,0,1,1.22.72,1.16,1.16,0,0,1,.1.46,1.3,1.3,0,0,1-.08.45,1.14,1.14,0,0,1-.64.66l-.74.34-.58.29-.4.21-.16.08A1.23,1.23,0,0,1,102.14,121.36Z" fill="#0f1c3f"/>
    <path d="M108.35,121.24a1.37,1.37,0,0,1-.38-.06,1.16,1.16,0,0,1-.52-.27,1.25,1.25,0,0,1-.33-.47,1.37,1.37,0,0,1,0-1,3.72,3.72,0,0,1,.22-.48l.05-.1.07-.11-.55.31-.55.31q-.5.3-1,.55t-.85.41a1.1,1.1,0,0,1-.47.11,1.26,1.26,0,0,1-.46-.08,1.22,1.22,0,0,1-.4-.25,1.13,1.13,0,0,1-.27-.39,1.05,1.05,0,0,1-.11-.46,1.21,1.21,0,0,1,.33-.84,1.14,1.14,0,0,1,.4-.27l.69-.35.87-.49,1.13-.64a11.63,11.63,0,0,1,1.16-.57,5,5,0,0,1,1.21-.42,3.64,3.64,0,0,1,.73-.11,2.22,2.22,0,0,1,.65.07,1.39,1.39,0,0,1,1,1.7,4.24,4.24,0,0,1-.33.82l.08,0,.08,0a1.12,1.12,0,0,1,.47-.07,1.34,1.34,0,0,1,.45.11,1.2,1.2,0,0,1,.63.67,1.23,1.23,0,0,1,.07.47,1.2,1.2,0,0,1-.11.44,1.17,1.17,0,0,1-.27.37,1.19,1.19,0,0,1-.42.25l-1,.37-.84.28-.83.21A2.84,2.84,0,0,1,108.35,121.24Z" fill="#0f1c3f"/>
    <path d="M119.21,122.07a1.93,1.93,0,0,1-.46-.06,1.18,1.18,0,0,1-.46-.22,1.31,1.31,0,0,1-.43-.69,1.29,1.29,0,0,1,0-.27,1.85,1.85,0,0,1,0-.22c0-.06,0-.12,0-.16l0-.13a1.05,1.05,0,0,1,0-.14l-.16.08-.16.05a1.26,1.26,0,0,1-.41.07,1.23,1.23,0,0,1-.69-.21,1.14,1.14,0,0,1-.45-.58,1.09,1.09,0,0,1-.07-.47,1.24,1.24,0,0,1,.12-.44,1.31,1.31,0,0,1,.27-.37,1.09,1.09,0,0,1,.42-.25l.14-.06.3-.17q.19-.13.49-.35l.72-.59.46-.41.37-.34.25-.23.1-.09a1.21,1.21,0,0,1,.54-.31,1.12,1.12,0,0,1,.63,0,1.1,1.1,0,0,1,.76.6,1.52,1.52,0,0,1,.13.37,1.07,1.07,0,0,1,0,.55s0,0,0,0,0,0,0,0a.22.22,0,0,0,0,.06.22.22,0,0,1,0,.06,1.5,1.5,0,0,1-.07.18l-.09.23-.1.29c0,.1-.08.21-.13.32l0,0,0,0a1.23,1.23,0,0,1,.91-.17,1.25,1.25,0,0,1,.43.18,1.14,1.14,0,0,1,.33.34,1.08,1.08,0,0,1,.19.44,1.18,1.18,0,0,1,0,.46,1.27,1.27,0,0,1-.18.43,1.12,1.12,0,0,1-.34.34l-.55.38-.53.39-.57.42a4.54,4.54,0,0,1-.53.34,2.9,2.9,0,0,1-.37.17l-.34.11A2.24,2.24,0,0,1,119.21,122.07Z" fill="#0f1c3f"/>
    <path d="M124.73,121.36a1.22,1.22,0,0,1-1.17-.84,1.19,1.19,0,0,1,0-.7v-.11a7.72,7.72,0,0,1-1.22.6,1.23,1.23,0,0,1-.93,0,1.29,1.29,0,0,1-.38-.27,1.15,1.15,0,0,1-.26-.4,1,1,0,0,1-.08-.47,1.3,1.3,0,0,1,.12-.45,1.22,1.22,0,0,1,.27-.38,1.15,1.15,0,0,1,.41-.25,5.26,5.26,0,0,0,.7-.35,11.36,11.36,0,0,0,1.35-.95l.47-.38.37-.32.34-.31a1.19,1.19,0,0,1,1.17-.3,1.13,1.13,0,0,1,.44.22,1.36,1.36,0,0,1,.32.36,1.18,1.18,0,0,1,.17.68,5,5,0,0,1-.13.8c0,.08,0,.16-.05.23l-.07.25a1.24,1.24,0,0,1,1.22.72,1.17,1.17,0,0,1,.1.46,1.3,1.3,0,0,1-.08.45,1.15,1.15,0,0,1-.24.39,1.13,1.13,0,0,1-.4.27l-.74.34-.58.29-.4.21-.16.08A1.23,1.23,0,0,1,124.73,121.36Z" fill="#0f1c3f"/>
    <path d="M128.7,122.07a1.93,1.93,0,0,1-.46-.06,1.18,1.18,0,0,1-.46-.22,1.07,1.07,0,0,1-.32-.39,1.09,1.09,0,0,1-.12-.3,1.29,1.29,0,0,1,0-.27,1.85,1.85,0,0,1,0-.22c0-.06,0-.12,0-.16l0-.13a.93.93,0,0,1,0-.14l-.16.08-.16.05a1.26,1.26,0,0,1-.41.07,1.23,1.23,0,0,1-.69-.21,1.15,1.15,0,0,1-.45-.58,1.08,1.08,0,0,1-.07-.47,1.24,1.24,0,0,1,.12-.44,1.32,1.32,0,0,1,.27-.37,1.07,1.07,0,0,1,.41-.25l.14-.06.3-.17q.19-.13.49-.35l.72-.59.46-.41.37-.34.25-.23.1-.09a1.22,1.22,0,0,1,.54-.31,1.11,1.11,0,0,1,.63,0,1.1,1.1,0,0,1,.76.6,1.48,1.48,0,0,1,.13.37,1.06,1.06,0,0,1,0,.55s0,0,0,0,0,0,0,0l0,.06a.22.22,0,0,1,0,.06,1.5,1.5,0,0,1-.07.18l-.09.23-.1.29c0,.1-.08.21-.13.32l0,0,0,0a1.23,1.23,0,0,1,.91-.17,1.26,1.26,0,0,1,.43.18,1.16,1.16,0,0,1,.33.34,1.08,1.08,0,0,1,.19.44,1.18,1.18,0,0,1,0,.46,1.27,1.27,0,0,1-.18.43,1.13,1.13,0,0,1-.34.34l-.55.38L131,121l-.57.42a4.55,4.55,0,0,1-.53.34,3,3,0,0,1-.37.17l-.34.11A2.24,2.24,0,0,1,128.7,122.07Z" fill="#0f1c3f"/>
    <path d="M135.7,121.24a1.37,1.37,0,0,1-.38-.06,1.16,1.16,0,0,1-.52-.27,1.25,1.25,0,0,1-.33-.47,1.38,1.38,0,0,1,0-1,3.8,3.8,0,0,1,.22-.48l.05-.1.07-.11-.55.31-.55.31q-.5.3-1,.55t-.85.41a1.1,1.1,0,0,1-.47.11,1.27,1.27,0,0,1-.46-.08,1.23,1.23,0,0,1-.4-.25,1.12,1.12,0,0,1-.27-.39,1.06,1.06,0,0,1-.11-.46,1.22,1.22,0,0,1,.33-.84,1.15,1.15,0,0,1,.4-.27l.69-.35.87-.49,1.13-.64a11.58,11.58,0,0,1,1.16-.57,5,5,0,0,1,1.21-.42,3.63,3.63,0,0,1,.72-.11,2.23,2.23,0,0,1,.65.07,1.39,1.39,0,0,1,1,1.7,4.34,4.34,0,0,1-.33.82l.08,0,.08,0a1.12,1.12,0,0,1,.47-.07,1.35,1.35,0,0,1,.45.11,1.2,1.2,0,0,1,.38.27,1.18,1.18,0,0,1,.25.4,1.23,1.23,0,0,1,.07.47,1.19,1.19,0,0,1-.11.44,1.17,1.17,0,0,1-.27.37,1.18,1.18,0,0,1-.42.25l-1,.37-.84.28-.83.21A2.83,2.83,0,0,1,135.7,121.24Z" fill="#0f1c3f"/>
    <path d="M142.87,121.24a1.37,1.37,0,0,1-.38-.06,1.16,1.16,0,0,1-.52-.27,1.25,1.25,0,0,1-.33-.47,1.38,1.38,0,0,1,0-1,3.8,3.8,0,0,1,.22-.48l.05-.1.07-.11-.55.31-.55.31q-.5.3-1,.55t-.85.41a1.1,1.1,0,0,1-.47.11,1.27,1.27,0,0,1-.46-.08,1.23,1.23,0,0,1-.4-.25,1.12,1.12,0,0,1-.27-.39,1.06,1.06,0,0,1-.11-.46,1.22,1.22,0,0,1,.33-.84,1.15,1.15,0,0,1,.4-.27l.69-.35.87-.49,1.13-.64A11.58,11.58,0,0,1,142,116a5,5,0,0,1,1.21-.42,3.63,3.63,0,0,1,.72-.11,2.23,2.23,0,0,1,.65.07,1.39,1.39,0,0,1,1,1.7,4.34,4.34,0,0,1-.33.82l.08,0,.08,0a1.12,1.12,0,0,1,.47-.07,1.35,1.35,0,0,1,.45.11,1.2,1.2,0,0,1,.38.27,1.18,1.18,0,0,1,.25.4,1.23,1.23,0,0,1,.07.47,1.19,1.19,0,0,1-.11.44,1.17,1.17,0,0,1-.27.37,1.18,1.18,0,0,1-.42.25l-1,.37-.84.28-.83.21A2.83,2.83,0,0,1,142.87,121.24Z" fill="#0f1c3f"/>
    <path d="M148.58,121.36a1.22,1.22,0,0,1-1.17-.84,1.2,1.2,0,0,1,0-.7v-.11a7.76,7.76,0,0,1-1.22.6,1.24,1.24,0,0,1-.93,0,1.27,1.27,0,0,1-.38-.27,1.13,1.13,0,0,1-.26-.4,1,1,0,0,1-.08-.47,1.29,1.29,0,0,1,.12-.45,1.24,1.24,0,0,1,.27-.38,1.15,1.15,0,0,1,.41-.25,5.26,5.26,0,0,0,.7-.35,11.28,11.28,0,0,0,1.35-.95l.47-.38.37-.32.34-.31a1.19,1.19,0,0,1,1.17-.3,1.13,1.13,0,0,1,.44.22,1.36,1.36,0,0,1,.32.36,1.18,1.18,0,0,1,.17.68,5,5,0,0,1-.13.8c0,.08,0,.16-.05.23l-.07.25a1.24,1.24,0,0,1,1.22.72,1.17,1.17,0,0,1,.1.46,1.3,1.3,0,0,1-.08.45,1.15,1.15,0,0,1-.24.39,1.13,1.13,0,0,1-.4.27l-.74.34-.58.29-.4.21-.16.08A1.23,1.23,0,0,1,148.58,121.36Z" fill="#0f1c3f"/>
  </g>
  <rect x="168" y="88" width="64" height="48" rx="2" ry="2" fill="#456bd9" stroke="#fff" stroke-miterlimit="10" stroke-width="3"/>
  <path d="M193,116.89l8.48-8.49a2,2,0,0,1,2.82,0h0a2,2,0,0,1,0,2.83h0l-8.83,8.84a4,4,0,0,1-5.66,0h0a4,4,0,0,1,0-5.66h0l9.9-9.9a6,6,0,0,1,8.49,0h0a6,6,0,0,1,0,8.49h0l-6.72,6.72" fill="none" stroke="#fff" stroke-width="2"/>
  <path d="M208.22,44.21a8.22,8.22,0,1,1,2.72-16,13.21,13.21,0,0,1,24.17-4.17A10.25,10.25,0,1,1,238,44.21H208.22ZM207,24.8a2.7,2.7,0,1,0-2.7-2.7A2.7,2.7,0,0,0,207,24.8Zm10,11.09c1.5,0,2-1.34,2-3s-.5-3-2-3-2,1.34-2,3S215.49,35.89,217,35.89Zm13.48,0c1.5,0,2-1.34,2-3s-.5-3-2-3-2,1.34-2,3S229,35.89,230.47,35.89Z" fill="#fff"/>
  <path d="M16.22,124.21a8.22,8.22,0,1,1,2.72-16,13.21,13.21,0,0,1,24.17-4.17A10.25,10.25,0,1,1,46,124.21H16.22ZM15,104.8a2.7,2.7,0,1,0-2.7-2.7A2.7,2.7,0,0,0,15,104.8Zm10,11.09c1.5,0,2-1.34,2-3s-.5-3-2-3-2,1.34-2,3S23.49,115.89,25,115.89Zm13.48,0c1.5,0,2-1.34,2-3s-.5-3-2-3-2,1.34-2,3S37,115.89,38.47,115.89Z" fill="#fff"/>
</svg>
