<?xml version="1.0" encoding="UTF-8" standalone="no"?>
<svg preserveAspectRatio="none" width="1440px" height="80px" viewBox="0 0 1440 80" version="1.1" xmlns="http://www.w3.org/2000/svg" xmlns:xlink="http://www.w3.org/1999/xlink" xmlns:sketch="http://www.bohemiancoding.com/sketch/ns">
    <!-- Generator: Sketch 3.3.3 (12072) - http://www.bohemiancoding.com/sketch -->
    <defs>
        <path id="path-1" d="M1393.60303,5.33377955e-14 C1372.11289,5.33377955e-14 1353.44635,12.0362086 1343.90799,29.7487856 C1334.98933,24.3375956 1324.53748,21.2209187 1313.35175,21.2209187 C1289.63222,21.2209187 1269.19082,35.2332048 1259.78105,55.444449 C1253.20929,51.6775861 1245.60654,49.5151072 1237.49383,49.5151072 C1227.4954,49.5151072 1218.26191,52.7893377 1210.79329,58.3203572 C1203.87898,38.7670658 1185.27452,24.7569988 1163.39637,24.7569988 C1149.89921,24.7569988 1137.65366,30.0982883 1128.62192,38.7748326 C1118.43725,15.9295582 1095.58686,0 1069.00938,0 C1040.08388,0 1015.56839,18.8642717 1007.00005,44.9837765 C999.409488,40.8995873 990.733614,38.5784453 981.515636,38.5784453 C961.485519,38.5784453 944.016259,49.522874 934.702942,65.7642108 C928.366206,42.9477843 907.499099,26.1993911 882.71643,26.1993911 C864.943415,26.1993911 849.179177,34.8138015 839.34482,48.1004533 C832.697677,24.0679792 810.730842,6.42086462 784.636704,6.42086462 C756.707839,6.42086462 733.504919,26.638766 728.759019,53.2664366 C720.425701,45.0769772 709.016028,40.019728 696.423484,40.019728 C677.738094,40.019728 661.655688,51.1472296 654.378863,67.1455788 C646.690748,47.1440363 627.346852,32.9464583 604.682711,32.9464583 C586.553836,32.9464583 570.551249,42.0335295 560.933069,55.9037954 C551.280521,41.1026318 534.612777,31.3154455 515.655781,31.3154455 C497.215391,31.3154455 480.941198,40.5744943 471.182226,54.7010622 C463.672595,49.3031865 454.474572,46.1143901 444.528246,46.1143901 C433.41346,46.1143901 423.224352,50.0854069 415.292346,56.6871254 C408.366945,35.9677153 388.857869,21.0311887 365.855605,21.0311887 C347.274424,21.0311887 330.973625,30.7817604 321.740127,45.4486706 C311.678507,35.614884 297.936348,29.5468507 282.772969,29.5468507 C272.587186,29.5468507 263.047716,32.2940532 254.827475,37.0694811 C243.251513,20.377674 223.990762,9.44212164 202.173588,9.44212164 C176.873204,9.44212164 155.005035,24.1389892 144.580904,45.4752994 C133.21225,35.1721805 118.14421,28.8944456 101.609497,28.8944456 C75.6328699,28.8944456 53.2813525,44.3935052 43.21419,66.6618226 C34.6003972,59.609634 23.0454986,55.3767675 11.0571389,55.3767675 C7.45420112,55.3767675 0,56.4840809 0,56.4840809 L0,164 L1440,164 L1440,56.4840799 C1440,13.5780795 1412.33284,5.33377955e-14 1393.60303,5.33377955e-14 Z"></path>
    </defs>
    <g id="Page-1" stroke="none" stroke-width="1" fill="none" fill-rule="evenodd" sketch:type="MSPage">
        <g id="Artboard" sketch:type="MSArtboardGroup">
            <mask id="mask-2" sketch:name="clouds" fill="white">
                <use xlink:href="#path-1"></use>
            </mask>
            <use id="clouds" fill="#FFFFFF" sketch:type="MSShapeGroup" transform="translate(720.000000, 82.000000) scale(-1, 1) translate(-720.000000, -82.000000) " xlink:href="#path-1"></use>
        </g>
    </g>
</svg>
