<?xml version="1.0" encoding="utf-8"?>
<svg xmlns="http://www.w3.org/2000/svg" xmlns:xlink="http://www.w3.org/1999/xlink"
  viewBox="-20 30 360 280" width="360" height="280">
  <defs>
    <style>
      .u-hidden {
        visibility: hidden;
      }

      .u-fillDark {
        fill: #0F1C3F;
      }

      .u-fillMid {
        fill: #DBE5EA;
      }

      .u-fillLight {
        fill: white;
      }

      .u-strokeMid {
        fill: none;
        stroke: #DBE5EA;
      }
    </style>
    <mask id="screenMask">
      <rect id="screenMaskMain" class="u-fillLight" x="130" y="107" width="60" height="106" rx="0" ry="0" transform="rotate(0)"/>
      <polygon id="screenMaskPointer" class="u-fillLight" points="160 160 160 160 160 160"/>
    </mask>
  </defs>

  <!-- Carousel Icon Definitions -->

  <symbol id="icon-wineGlass" viewBox="-10 -10 60 96">
    <path d="M40,15.61A42.17,42.17,0,0,0,36.58,0H3.42A42.17,42.17,0,0,0,0,15.61C0,27.28,7.5,39,20,39S40,27.28,40,15.61Z" fill="#fff" stroke="#7cbada" stroke-width="3"/>
    <path d="M4.84,19.43C6.18,27.36,11.63,34.5,20,34.5s13.82-7.14,15.16-15.07H4.84Z" fill="#a5375c"/>
    <g fill="#7cbada">
      <rect x="17" y="39" width="6" height="37"/>
      <path d="M38.5,73.89h0A2.11,2.11,0,0,1,36.39,76H3.61A2.11,2.11,0,0,1,1.5,73.89h0a2.11,2.11,0,0,1,1.88-2.1L20,70l16.62,1.8A2.11,2.11,0,0,1,38.5,73.89Z"/>
    </g>
  </symbol>

  <symbol id="icon-wineBottle" viewBox="-10 -10 60 150">
    <path d="M39.79,52.51C39.79,48.38,35,38.34,27,33.89V27H13v6.89C5,38.34.21,48.38,0.21,52.51L0,125a4.89,4.89,0,0,0,4.81,5H35.15A4.89,4.89,0,0,0,40,125Z" fill="#a5375c"/>
    <rect x="3" y="56" width="34" height="48" fill="#f8e9df"/>
    <path d="M27,4c0-2.74-2-4-4.66-4H17.66C15,0,13,1.25,13,4V28H27V4Z" fill="#9caab1"/>
  </symbol>

  <symbol id="icon-umbrella" viewBox="-20 -20 300 270">
    <polygon points="177.24 191.13 169.99 195.41 136.26 138.28 140.43 137.04 143.51 134 177.24 191.13" fill="#c5ced3"/>
    <g fill="#767c7f" stroke="#63676a">
      <path d="M208.1,223.45c-8.4,5-19.73,1.39-25.25-8l-8.79-14.88,5.89-3.48L188.73,212c3.61,6.11,10.73,8.6,15.88,5.56S211,207.08,207.43,201a3.42,3.42,0,1,1,5.89-3.48C218.84,206.85,216.5,218.49,208.1,223.45Z"/>
      <path d="M77.13,24.8l0.82-.25a24.68,24.68,0,0,1,3.51-.87l-1.92-3.25a4.33,4.33,0,1,0-7.46,4.4L74,28.13a21.07,21.07,0,0,1,2.67-2.85Z"/>
    </g>
    <g fill="#35c98d">
      <path d="M205.24,85.17C192,68.21,177.32,54.69,161.55,45a122.54,122.54,0,0,0-40-16,106.7,106.7,0,0,0-29.05-1.91A75.59,75.59,0,0,0,83,28.36l57.22,101.75C144.55,124.24,166.39,97,205.24,85.17Z"/>
      <path d="M50.7,109c0.23,18.69,4.31,38.35,12.12,58.45,5.54-4.91,31.84-26.63,71.28-33.71L76.88,32C73.5,35.74,64.06,47.34,57.54,66A125.06,125.06,0,0,0,50.7,109Z"/>
      <path d="M7.43,189.08s17.12-15.25,49.15-18.32c-8-20.49-12.14-40.56-12.36-59.65a127.75,127.75,0,0,1,7-44A107.53,107.53,0,0,1,69.19,34.52C-18.5,91.58,7.43,189.08,7.43,189.08Z"/>
      <path d="M88.37,23a103.24,103.24,0,0,1,37.33,1,125.22,125.22,0,0,1,40.94,16.35c16.1,9.9,31.09,23.68,44.56,41,4.08-5.42,21.5-27.14,45-36.48C256.15,44.85,179.54-29.36,88.37,23Z"/>
    </g>
  </symbol>

  <symbol id="icon-rocket" viewBox="0 -40 158 400">
    <g fill="#c5ced3">
      <path d="M79.23,140.91c22.2,0,43.95-5.56,62-15.74-0.23-3.37-.59-6.64-1.12-9.79C129.12,49.44,96.5,14.2,83.28,2.3A8.37,8.37,0,0,0,72,2.43c-12.85,12-44,46.93-54.26,112.67-0.49,3.15-.83,6.44-1,9.82C35,135.39,56.55,140.91,79.23,140.91Z"/>
      <path d="M157.32,269.87l-4-41.4a4.72,4.72,0,0,0-2-3.43l-22.43-15.51c6.91-24.34,13-53.07,12.66-77.66-18.51,9.85-39.84,15-62.32,15a132.41,132.41,0,0,1-62.79-15.29C16.18,156,22,184.54,28.63,208.87l-22.54,16A4.3,4.3,0,0,0,4.29,228L0.67,270.47a4.3,4.3,0,0,0,6.66,4l34.75-22.92c1,2.77,1.87,5.16,2.59,7.07A8.37,8.37,0,0,0,52.59,264l52.21-.5a8.36,8.36,0,0,0,7.71-5.31c0.69-1.77,1.53-4,2.49-6.49l35.07,22.57A4.72,4.72,0,0,0,157.32,269.87Z"/>
    </g>
    <path d="M79.08,319.83c34.23-19,31.72-50.91,31.72-50.91-20,35.48-31.72,35.91-31.72,35.91H78.92s-11.69-.43-31.72-35.91c0,0-2.5,31.91,31.72,50.91h0.17Z" fill="#f26941"/>
    <circle cx="79" cy="79" r="28" fill="#456bd9"/>
  </symbol>

  <symbol id="icon-social" viewBox="0 -10 110 120">
    <path d="M40,78.44h0c0-4.54-7.52-8.33-12.62-9a7.56,7.56,0,0,1-.84-3.07H26.43c2-1.84,3.46-4.91,4.29-8.62A8.86,8.86,0,0,0,22.56,47c-4.81-.27-9.46,3.72-9.26,9.77,0.13,4,1.53,7.53,3.84,9.59,0,0,.38,2.86-0.53,3.14C11.63,70.38,5,74.06,5,78.44H5c0,5-.54,7.88,3.08,7.53H35.63C40.57,86,40,83.46,40,78.44Z" fill="#f26941"/>
    <path d="M105,78.44c0-4.55-7.52-8.33-12.62-9a7.51,7.51,0,0,1-.8-2.75c2.41-2,3.73-5.69,4.1-10.16A8.82,8.82,0,0,0,86.12,47c-4.8.41-8.87,5-7.85,11a14.11,14.11,0,0,0,4.3,8.36h0s0,2.86-.95,3.15c-5,.87-11.58,4.55-11.58,8.93,0,5-.54,7.88,3.08,7.53h27.52C105.57,86,105,83.46,105,78.44Z" fill="#35c98d"/>
    <path d="M72.48,86.44c0-4.55-7.52-8.33-12.62-9a7.51,7.51,0,0,1-.8-2.75c2.41-2,3.73-5.69,4.1-10.16A8.82,8.82,0,0,0,53.62,55c-4.8.41-8.87,5-7.85,11a14.11,14.11,0,0,0,4.3,8.36h0s0,2.86-.95,3.15c-5,.87-11.58,4.55-11.58,8.93,0,5-.54,7.88,3.08,7.53H68.13C73.07,94,72.48,91.46,72.48,86.44Z" fill="#456bd9"/>
    <path d="M81,21C81,10.51,72.12,2,55,2S29,10.51,29,21c0,6.52,3.43,12.27,10.14,15.69-0.76,2.26-2.34,6-5.05,8.06,0,0,6.07,1.36,11.46-5.78a38.35,38.35,0,0,0,5.75.87L55,49.76l3.7-9.92A38.35,38.35,0,0,0,64.45,39c5.39,7.14,11.46,5.78,11.46,5.78-2.71-2.08-4.3-5.8-5.05-8.06C77.57,33.27,81,27.52,81,21Z" fill="#B0D6E9"/>
  </symbol>

  <symbol id="icon-barGraph" viewBox="-50 -30 190 160">
    <rect x="0" y="20" width="30" height="80" fill="#F26941" rx="4" ry="4"/>
    <rect x="35" y="0" width="30" height="100" fill="#35C98D" rx="4" ry="4"/>
    <rect x="70" y="40" width="30" height="60" fill="#456BD9" rx="4" ry="4"/>
    <polyline points="-10 -5 -10 110 105 110" fill="none" stroke="#DBE5EA" stroke-width="10" stroke-linecap="round"/>
  </symbol>

  <symbol id="icon-orbits" viewBox="-10 -10 120 120">
    <g fill="none" stroke="#0F1C3F">
      <circle cx="50" cy="50" r="48"/>
      <circle cx="50" cy="50" r="38"/>
      <circle cx="50" cy="50" r="28"/>
    </g>
    <circle cx="50" cy="50" r="18" fill="#E2C733"/>
    <circle cx="16" cy="16" r="5" fill="#F26941"/>
    <circle cx="77" cy="23" r="5" fill="#456BD9"/>
    <circle cx="31" cy="69" r="5" fill="#F14CA3"/>
  </symbol>

  <symbol id="icon-trees" viewBox="-10 -20 103 115">
    <polygon points="35,70 59,10 83,70" fill="#249579"/>
    <polygon points="0,70 30,0 60,70" fill="#35C98D"/>
    <g id="limbs" stroke="#DBE5EA" stroke-width="3">
      <line x1="30" y1="30" x2="30" y2="70"/>
      <line x1="30" y1="45" x2="40" y2="37"/>
      <line x1="21" y1="44" x2="30" y2="50"/>
      <line x1="30" y1="55" x2="40" y2="47"/>
    </g>
  </symbol>

  <!-- Animated Components -->

  <g id="keyboard" class="u-hidden js-scaleIn">
    <polygon class="u-fillMid" points="67 216 253 216 283 256 37 256"/>
    <rect class="u-fillDark" x="37" y="256" width="246" height="4"/>
    <polygon class="u-fillLight" points="128 241 192 241 198 256 198 258 122 258 122 256"/>
  </g>

  <path id="headphones" class="u-hidden u-fillDark js-scaleIn" d="M248,138.94a88,88,0,1,0-176,0V205a16,16,0,0,0,16,16h8a8,8,0,0,0,8-8V173a8,8,0,0,0-8-8H88V138.94a72,72,0,1,1,144,0V165h-8a8,8,0,0,0-8,8v40a8,8,0,0,0,8,8h8a16,16,0,0,0,16-16V138.94Z"/>

  <path id="watchband" class="u-hidden u-fillMid js-scaleIn" d="M188,148H178V130l-3.4-18.72a4,4,0,0,0-3.94-3.28H149.34a4,4,0,0,0-3.94,3.28L142,130v60l3.4,18.72a4,4,0,0,0,3.94,3.28h21.32a4,4,0,0,0,3.94-3.28L178,190V157h10a2,2,0,0,0,2-2v-5A2,2,0,0,0,188,148Z"/>

  <rect id="bezel" class="u-fillDark" x="127" y="92" width="66" height="136" rx="6" ry="6" transform="rotate(0)"/>

  <g id="screen" mask="url(#screenMask)">
    <rect class="u-fillLight" width="100%" height="100%"/>
    <svg id="screenContent" x="130" y="107" width="60" height="106">
      <!-- <use class="js-carouselItem u-hidden" xlink:href="#icon-wineGlass"/>
      <use class="js-carouselItem u-hidden" xlink:href="#icon-umbrella"/>
      <use class="js-carouselItem u-hidden" xlink:href="#icon-rocket"/>
      <use class="js-carouselItem u-hidden" xlink:href="#icon-social"/>
      <use class="js-carouselItem u-hidden" xlink:href="#icon-barGraph"/> -->
      <use class="js-carouselItem u-hidden" xlink:href="#icon-orbits"/>
      <use class="js-carouselItem u-hidden" xlink:href="#icon-trees"/>
    </svg>
  </g>

  <g id="remote" class="u-hidden js-scaleIn">
    <rect class="u-fillDark" x="236" y="216" width="36" height="88" rx="4" ry="4"/>
    <circle class="u-strokeMid" stroke-width="4" cx="254" cy="242" r="9"/>
    <circle class="u-fillMid" cx="245" cy="264" r="3"/>
    <circle class="u-fillMid" cx="254" cy="264" r="3"/>
    <circle class="u-fillMid" cx="263" cy="264" r="3"/>
  </g>

  <script xlink:href="/assets/toolkit/scripts/home-animation.js"/>
</svg>
