<svg xmlns="http://www.w3.org/2000/svg" width="480" height="270" viewBox="0 0 480 270">
  <rect width="480" height="270" fill="#edf2f5"/>
  <g fill="#d3d9dc">
    <circle cy="290" r="70"/>
    <circle cx="90" cy="310" r="70"/>
    <circle cx="390" cy="310" r="70"/>
    <circle cx="480" cy="290" r="70"/>
  </g>
  <g fill="#fff">
    <path d="M91.44,138.51c-6.75-1.17-13.95-1.1-20.79-1.31-7.47-.24-15-0.46-22.48-0.16a2.46,2.46,0,0,0,0,4.92c7.47,0.3,15,.08,22.48-0.16,6.85-.22,14-0.14,20.79-1.31a1,1,0,0,0,0-2h0Z"/>
    <path d="M103.88,87c-5.23-3-11.31-5.07-16.95-7.26-6.09-2.36-12.25-4.73-18.51-6.6-3.11-.92-4.18,3.6-1.31,4.75,11.21,4.47,24,9.21,36,11a1,1,0,0,0,.79-1.87h0Z"/>
    <path d="M107.91,189.27c-6.06.86-12.19,2.83-18.11,4.43A167.5,167.5,0,0,0,72,199.26c-2.88,1.13-1.8,5.65,1.31,4.75,11.58-3.38,24.86-6.86,35.38-12.86a1,1,0,0,0-.79-1.87h0Z"/>
    <path d="M388.58,135.75c6.78,0.94,13.94.64,20.78,0.62,7.47,0,15-.05,22.46-0.6,3.12-.23,3.21-4.9,0-4.92-7.48,0-15,.43-22.46.92-6.85.45-14.06,0.6-20.78,2a1,1,0,0,0,0,2h0Z"/>
    <path d="M372.16,85.66c6.85-1.31,13.72-4.08,20.3-6.4,6.34-2.24,12.7-4.52,18.86-7.19,2.55-1.11.73-5.39-1.9-4.5-6.36,2.15-12.6,4.77-18.79,7.37-6.41,2.7-13.33,5.23-19.27,8.85a1,1,0,0,0,.79,1.87h0Z"/>
    <path d="M375.15,185.38A159,159,0,0,0,408.8,198.5c3.11,0.81,4.25-3.68,1.31-4.75-10.86-3.94-22.91-9-34.44-10.28a1,1,0,0,0-.52,1.91h0Z"/>
  </g>
  <g fill="#456bd9">
    <path d="M293.5,157.73C284.42,156,275.22,155,266,154.1l-6.82-.62c-1.1-.1-5.22-0.53-6.21-0.53a52.36,52.36,0,0,0-12.46,1.38,42.93,42.93,0,0,0-20.23,11.79c-2.14,2.14-5.31,5.35-4.91,8.69s4.76,4,7.37,4.69q6.78,1.72,13.63,3.15a3.07,3.07,0,0,1,1,.2,3.66,3.66,0,0,1,.1.78l0.21,1.55q0.23,1.75.46,3.5,0.45,3.5.88,7t0.8,6.82c0.14,1.25.05,3.09,1.75,3.17s1.37-1.83,1.24-3q-0.38-3.45-.8-6.9t-0.88-6.9q-0.22-1.67-.46-3.35l-0.25-1.77c-0.06-.45-0.4-1.47-0.08-1.82a4.63,4.63,0,0,1,1.5-.32l1.5-.3q1.68-.32,3.38-0.58,3.38-.52,6.79-0.79t6.69-.28c0.57,0,.41-0.08.67,0.38a3.63,3.63,0,0,1,.18.75l0.36,1.51q0.39,1.7.77,3.4,1.47,6.73,2.54,13.54c0.17,1.09.32,2.18,0.48,3.27a1.48,1.48,0,0,0,.84,1.42,1.73,1.73,0,0,0,2.17-1.64,17.32,17.32,0,0,0-.39-2.85q-0.27-1.79-.57-3.57-0.56-3.28-1.22-6.54a238.84,238.84,0,0,0-6.89-25.87q-1-3.17-2.12-6.31c7,0.6,13.94,1.45,20.84,2.67q5.18,0.92,10.3,2.11a25.77,25.77,0,0,0,4.57,1.06,2.52,2.52,0,0,0,2.12-1c1.12-1.49.71-3.85-1.3-4.23h0Zm-65.14,18.32c-1.43-.37-2.9-0.61-4.33-1a16.39,16.39,0,0,1-2.91-1c-1.2-.61,1-3.56,1.48-4.28,2.9-4.11,7.31-7.06,11.47-9.77q1.37,9.12,2.64,18.26-4.16-1.18-8.35-2.26h0Z"/>
    <path d="M235.17,149.87a13.72,13.72,0,0,0,12.38-1.11c3.7-2.34,6.19-7.14,4.41-11.44s-6.41-6.13-10.63-6.35c-4.37-.22-9.55,2.3-11.51,6.33-2.33,4.8.65,10.58,5.34,12.57h0Z"/>
  </g>
  <g fill="#6a89e1">
    <path d="M236.17,158.9q2,10.05,3.53,20.21a72.44,72.44,0,0,1,20.25-2.61c-1.8-7-3.85-14-6.1-20.89C247.83,156.46,242,156.91,236.17,158.9Z"/>
    <path d="M235.84,145.8a9.88,9.88,0,0,0,8.92-.77c2.47-1.51,4.31-4.4,3.2-7.31a7.52,7.52,0,0,0-6.93-4.44c-3.18.08-7,1.85-8.45,4.84s0.4,6.41,3.26,7.69h0Z" fill="#6a89e1"/>
  </g>
  <path d="M174.13,21c-8.86-1-17.26-1.93-24.79-2.63l-8.81,96.8c7.37,0.69,15.63,1.58,24.34,2.59Z" fill="#2eb77c"/>
  <path d="M298.39,127.68s-90.84-13.75-141.06-18.46l8.81-96.8c52.24,4.9,146.37,19.17,146.37,19.17Z" fill="#35c98d"/>
  <g fill="none" stroke="#fff" stroke-linecap="round" stroke-linejoin="round" stroke-width="8">
    <polyline points="262.15 56.67 276.63 75.21 258.1 89.69"/>
    <polyline points="210.27 50.3 191.74 64.79 206.22 83.32"/>
    <line x1="246.92" y1="45.82" x2="222.23" y2="94.27"/>
  </g>
  <path d="M286.3,242.47l-6.54-2.05L311,31a1.17,1.17,0,0,1,1.57-.65h0a1.48,1.48,0,0,1,1.3,1.34Z" fill="#545361"/>
  <circle cx="240" cy="350" r="150" fill="#456bd9"/>
  <circle cx="208" cy="340" r="118" fill="#3450a3"/>
  <polygon points="164.87 117.8 157.33 109.21 165.62 110.03 164.87 117.8" fill="#28976a"/>
</svg>
