<?xml version="1.0" encoding="UTF-8" standalone="no"?>
<svg width="234px" height="115px" viewBox="0 0 234 115" version="1.1" xmlns="http://www.w3.org/2000/svg" xmlns:xlink="http://www.w3.org/1999/xlink">
    <!-- Generator: Sketch 3.6.1 (26313) - http://www.bohemiancoding.com/sketch -->
    <title>Portland</title>
    <desc>Created with Sketch.</desc>
    <defs></defs>
    <g id="Draft-2" stroke="none" stroke-width="1" fill="none" fill-rule="evenodd">
        <g id="Portland">
            <g id="Large-Tree" transform="translate(119.000000, 0.000000)" fill="#249579">
                <polygon id="Triangle-1" points="50.5 0 101 115 0 115 "></polygon>
            </g>
            <g id="Tall-Building" transform="translate(41.000000, 35.000000)" fill="#DBE5EA">
                <rect id="Rectangle-31" x="0" y="0" width="57" height="80"></rect>
            </g>
            <g id="Medium-Tree" transform="translate(0.000000, 19.000000)">
                <polygon id="Triangle-1" fill="#35C98D" points="42 0 84 96 0 96 "></polygon>
                <g id="Limbs" transform="translate(33.000000, 42.000000)" stroke="#DBE5EA" stroke-width="2">
                    <path d="M9,54 L9,0" id="Line"></path>
                    <path d="M10,22 L20,12.75" id="Line-Copy" stroke-linecap="square"></path>
                    <path d="M10,35.125 L20,25.875" id="Line-Copy-3" stroke-linecap="square"></path>
                    <path d="M0,28.5 L8,23.25" id="Line-Copy-2" stroke-linecap="square" transform="translate(4.000000, 25.875000) scale(-1, 1) translate(-4.000000, -25.875000) "></path>
                </g>
            </g>
            <g id="Small-Tree" transform="translate(84.000000, 50.000000)">
                <polygon id="Triangle-1" fill="#35C98D" points="28.5 0 57 65 0 65 "></polygon>
                <g id="Limbs" transform="translate(21.392857, 28.437500)" stroke="#DBE5EA" stroke-width="2">
                    <path d="M7,36.5625 L7,0" id="Line"></path>
                    <path d="M7.78571429,14.8958333 L14.5714286,8.6328125" id="Line-Copy" stroke-linecap="square"></path>
                    <path d="M7.78571429,23.7825521 L14.5714286,17.5195312" id="Line-Copy-3" stroke-linecap="square"></path>
                    <path d="M1,19.296875 L6.42857143,15.7421875" id="Line-Copy-2" stroke-linecap="square" transform="translate(3.714286, 17.519531) scale(-1, 1) translate(-3.714286, -17.519531) "></path>
                </g>
            </g>
            <g id="Short-Building" transform="translate(170.000000, 67.000000)">
                <rect id="Rectangle-31" fill="#DBE5EA" x="0" y="0" width="64" height="48"></rect>
                <path d="M0,8 L64,8" id="Line" stroke="#9FB3BE" stroke-width="2"></path>
                <path d="M0,16 L64,16" id="Line-Copy-4" stroke="#9FB3BE" stroke-width="2"></path>
                <path d="M0,24 L64,24" id="Line-Copy-5" stroke="#9FB3BE" stroke-width="2"></path>
                <path d="M0,32 L64,32" id="Line-Copy-6" stroke="#9FB3BE" stroke-width="2"></path>
            </g>
        </g>
    </g>
</svg>