<?xml version="1.0" encoding="UTF-8" standalone="no"?>
<svg width="180px" height="31px" viewBox="0 0 180 31" version="1.1" xmlns="http://www.w3.org/2000/svg" xmlns:xlink="http://www.w3.org/1999/xlink">
    <!-- Generator: Sketch 3.6.1 (26313) - http://www.bohemiancoding.com/sketch -->
    <title>Group 5</title>
    <desc>Created with Sketch.</desc>
    <defs></defs>
    <g id="Draft-2" stroke="none" stroke-width="1" fill="none" fill-rule="evenodd">
        <g id="Group-5" fill="#456BD9">
            <g id="twitter" transform="translate(0.000000, 3.000000)">
                <path d="M33.2903226,2.98375 C32.0432152,3.50028354 30.7200299,3.83988734 29.3648387,3.99125 C30.7925412,3.19883079 31.8622837,1.95020545 32.3748387,0.477916667 C31.0323332,1.21704166 29.5639581,1.73689799 28.0332258,2.015 C25.9207018,-0.0520311562 22.5894331,-0.558068419 19.8809923,0.776632771 C17.1725515,2.11133396 15.748259,4.96087938 16.3954839,7.75 C10.9136948,7.50537512 5.79901153,5.11224357 2.31645161,1.1625 C0.498012962,4.06939988 1.42147455,7.79198666 4.42483871,9.66166667 C3.35879232,9.6204526 2.31813946,9.34610754 1.38709677,8.86083333 L1.38709677,8.93833333 C1.38816185,11.9665038 3.67912932,14.5751348 6.86612903,15.1770833 C5.86141349,15.4287798 4.80833894,15.4641177 3.78677419,15.2804167 C4.68140917,17.8713078 7.24533844,19.6463881 10.1674194,19.6979167 C7.74671719,21.4683511 4.75644983,22.428381 1.6783871,22.4233333 C1.11747614,22.4248227 0.556984567,22.3946284 0,22.3329167 C3.12415937,24.2009706 6.75981095,25.1919651 10.4725806,25.1875 C15.6331103,25.2186942 20.5919866,23.3235101 24.2411091,19.9254417 C27.8902315,16.5273732 29.9254344,11.9096599 29.8919355,7.10416667 L29.8919355,6.2775 C31.2258589,5.37629415 32.3766439,4.26094205 33.2903226,2.98375" id="Shape"></path>
            </g>
            <g id="github" transform="translate(146.000000, 0.000000)">
                <path d="M-1.03737704e-13,15.5 C-0.00252331347,22.1760514 4.58573895,28.1035641 11.3880645,30.2120833 C11.6444279,30.2918277 11.9264118,30.2506757 12.1442858,30.1017224 C12.3621598,29.9527692 12.4887862,29.7145678 12.483871,29.4629167 L12.483871,26.8795833 C7.85096774,27.8095833 6.93548387,24.8 6.93548387,24.8 C6.62946618,23.8343079 5.95320587,23.0069193 5.03516129,22.475 C3.52322581,21.5191667 5.14612903,21.5320833 5.14612903,21.5320833 C6.21709211,21.6697069 7.1594,22.2610511 7.6983871,23.13375 C8.15448977,23.9046639 8.92183001,24.4744358 9.83046336,24.7168773 C10.7390967,24.9593188 11.7140344,24.8544213 12.5393548,24.4254167 C12.616653,23.6419648 12.9902563,22.9095438 13.5935484,22.35875 C9.90387097,21.9583333 6.02,20.6666667 6.02,14.68625 C5.99785913,13.1455158 6.61382647,11.6560328 7.74,10.5270833 C7.24315148,9.19972368 7.30259654,7.74664625 7.90645161,6.45833333 C8.51030669,5.17002042 9.29354839,6.045 12.483871,8.04708333 C15.2081146,7.35380211 18.082208,7.35380211 20.8064516,8.04708333 C23.9967742,6.00625 25.383871,6.45833333 25.383871,6.45833333 C25.9999989,7.757599 26.0595456,9.2270232 25.5503226,10.5658333 C26.672686,11.6960723 27.2837879,13.1858043 27.2564516,14.725 C27.2564516,20.6795833 23.3587097,21.9841667 19.6551613,22.3716667 C20.4586643,23.1213895 20.877921,24.1562178 20.8064516,25.2133333 L20.8064516,29.4629167 C20.7940847,29.7277149 20.9278963,29.9800342 21.1612069,30.1318538 C21.3945174,30.2836735 21.6949659,30.3139356 21.9577419,30.2120833 C30.0070274,27.6877312 34.7242481,19.9248031 32.9032355,12.1995536 C31.0822228,4.47430401 23.3071232,-0.735153016 14.8624638,0.111910983 C6.41780432,0.958974982 0.0124721134,7.59083789 -1.0188972e-13,15.5 L-1.03737704e-13,15.5 Z" id="Shape"></path>
            </g>
            <path d="M55.2016135,3 C52.3298894,3 50,5.16959661 50,7.84375058 L50,23.9895858 C50,26.6637398 52.3298894,28.8333364 55.2016135,28.8333364 L64.8101496,28.8333364 L64.8101496,18.8262823 L61.197918,18.8262823 L61.197918,14.9243721 L64.8101496,14.9243721 L64.8101496,12.0483952 C64.8101496,8.71831665 67.0136109,6.90191019 70.2104359,6.90191019 C71.7275732,6.90191019 73.0460377,7.00282166 73.425322,7.05327739 L73.425322,10.5347231 L71.2218607,10.5515417 C69.4699284,10.5515417 69.1448276,11.3083777 69.1448276,12.4352225 L69.1448276,14.9243721 L73.2808327,14.9243721 L72.738998,18.8262823 L69.1448276,18.8262823 L69.1448276,28.8333364 L72.5403253,28.8333364 C75.4120494,28.8333364 77.7419388,26.6637398 77.7419388,23.9895858 L77.7419388,7.84375058 C77.7419388,5.16959661 75.4120494,3 72.5403253,3 L55.2016135,3 Z" id=""></path>
            <path d="M113.760777,14.8402947 C113.760777,15.1430295 113.50792,15.3784899 113.182819,15.3784899 C112.225576,15.3784899 111.448945,16.1016897 111.448945,16.9930756 C111.448945,17.2958104 111.196089,17.5312708 110.870988,17.5312708 C110.545886,17.5312708 110.29303,17.2958104 110.29303,16.9930756 C110.29303,15.5130387 111.593435,14.3020995 113.182819,14.3020995 C113.50792,14.3020995 113.760777,14.5375599 113.760777,14.8402947 L113.760777,14.8402947 Z M117.806481,17.0267128 C117.806481,14.6552901 115.729445,12.7211511 113.182819,12.7211511 C110.636192,12.7211511 108.559156,14.6552901 108.559156,17.0267128 C108.559156,19.3981354 110.636192,21.3322745 113.182819,21.3322745 C115.729445,21.3322745 117.806481,19.3981354 117.806481,17.0267128 L117.806481,17.0267128 Z M99.3118313,26.6805894 L99.3118313,24.5278086 L127.053806,24.5278086 L127.053806,26.6805894 L99.3118313,26.6805894 Z M120.118313,17.0267128 C120.118313,20.5922561 117.011789,23.4850553 113.182819,23.4850553 C109.353848,23.4850553 106.247325,20.5922561 106.247325,17.0267128 C106.247325,13.4611695 109.353848,10.5683702 113.182819,10.5683702 C117.011789,10.5683702 120.118313,13.4611695 120.118313,17.0267128 L120.118313,17.0267128 Z M101.623663,6.22917129 L101.623663,4.07639043 L108.559156,4.07639043 L108.559156,6.22917129 L101.623663,6.22917129 Z M99.3118313,9.45834257 L99.3118313,7.30556171 L110.943232,7.30556171 L112.099148,5.15278086 L127.053806,5.15278086 L127.053806,7.47374772 L127.053806,9.45834257 L99.3118313,9.45834257 Z M129.365638,5.15278086 C129.365638,3.95866023 128.33615,3 127.053806,3 L99.3118313,3 C98.0294874,3 97,3.95866023 97,5.15278086 L97,26.6805894 C97,27.8747101 98.0294874,28.8333703 99.3118313,28.8333703 L127.053806,28.8333703 C128.33615,28.8333703 129.365638,27.8747101 129.365638,26.6805894 L129.365638,5.15278086 Z" id=""></path>
        </g>
    </g>
</svg>