<svg xmlns="http://www.w3.org/2000/svg" width="340" height="250" viewBox="0 0 340 250">
  <path d="M279.53,200.68c-1.13-5.21-5.14-8.46-9.36-11.3a2.55,2.55,0,0,0-3.87.89l-.14,0c-14.22,4.74-29.76,4.45-43.63,10.24a1.09,1.09,0,0,0-1.38.28l-.6.7-.1.11c-3.58,4.2-7.05,9.24-5.85,15,1.25,6,6.36,9.62,11.6,12.08,1.26.59,3.3.2,3.83-1.28l.09-.27a1.18,1.18,0,0,0,.67-1c.08-.85.16-1.71.25-2.56a31.55,31.55,0,0,0,25.16,20,2.88,2.88,0,0,0,3-1.47,19.1,19.1,0,0,1,7.11,5.53c1.75,2.27,5.48-.35,3.66-2.47l-.39-.43c10.48-8.46,7.16-22.79,1.05-33a9.32,9.32,0,0,1,3.28,2.34c1.44,1.54,3.57-.26,3.25-2A14.51,14.51,0,0,0,279.53,200.68Z" fill="#ef8d43"/>
  <path d="M264.95,202.72a13,13,0,0,0-3.36-5.38,15.28,15.28,0,0,0-2.26-1.94,4.26,4.26,0,0,0-3.93-.94,2.28,2.28,0,0,0-1.31,1,12.52,12.52,0,0,0-9.09-3.76,3.13,3.13,0,0,0-2.85,3.37,12.54,12.54,0,0,0-4.33,3.73,1.39,1.39,0,0,0-.8.6l-.14-.2a3.13,3.13,0,0,0-3.42-1.13,4.15,4.15,0,0,0-2.37,1.66,10.84,10.84,0,0,0-3.4,6.17c-.36,2.05-.32,6.2,1.92,7.15,2.68,1.14,5.46-2.5,6.62-4.45l.06-.11.16.22c1.25,6.37,5.71,11.8,11.53,15.52a1.69,1.69,0,0,0,1.21.28,101.63,101.63,0,0,1,8.82,8.08c1.35,1.36,3.81-.75,2.55-2.25-.31-.37-.65-.71-1-1.07a1.28,1.28,0,0,0,0-1c-2.23-5,1.52-9.51,1.9-14.52a21.09,21.09,0,0,0-1.41-9.14,13.74,13.74,0,0,1,1.9.77A2.19,2.19,0,0,0,264.95,202.72Z" fill="#ffde52"/>
  <path d="M253.4,91.28,145.67,98.91a6,6,0,0,1-6.41-5.56l-5.51-77.81a6,6,0,0,1,5.56-6.41L247,1.5Z" fill="#dbe5ea"/>
  <path d="M253.4,91.28,223.47,93.4,214.12,3.83,247,1.5a6,6,0,0,1,6.41,5.56L259,84.87A6,6,0,0,1,253.4,91.28Z" fill="#9caab1"/>
  <g fill="#fff" stroke="#456bd9" stroke-width="4">
    <path d="M154.46,53.17c2.67,13.65-1.42,25.16-9.14,25.71S129.19,68.8,126.53,55.15s1.42-25.16,9.14-25.71S151.79,39.52,154.46,53.17Z"/>
    <path d="M202.34,49.78c2.67,13.65-1.42,25.16-9.14,25.71s-16.13-10.08-18.79-23.73,1.42-25.16,9.14-25.71S199.67,36.13,202.34,49.78Z"/>
  </g>
  <path d="M215.07,102.33c-29.55,3.45-48.82,30.53-44.1,62a70.41,70.41,0,0,0,10.23,27.19,21.73,21.73,0,0,0,15.67,10.06,238.36,238.36,0,0,0,40.25.34c15.33-1,29-3.15,39.07-5.74a15.76,15.76,0,0,0,11.5-12.28,61.57,61.57,0,0,0,.08-24.64C281,124.54,248.11,98.48,215.07,102.33Z" fill="#dbe5ea"/>
  <g fill="none" stroke="#fff" stroke-linecap="round" stroke-linejoin="round" stroke-width="8">
    <polyline points="62.36 55.07 76.36 69.07 62.36 83.07" fill="none" stroke="#fff"/>
    <polyline points="18.36 55.07 4.36 69.07 18.36 83.07" fill="none" stroke="#fff"/>
    <line x1="48.52" y1="47.57" x2="32.87" y2="90.57" fill="none" stroke="#fff"/>
  </g>
  <path d="M287.81,159.23a72.84,72.84,0,0,0-33.25-47.59,10.19,10.19,0,0,0-3.77.48c-4.57,1.53-7.36,6.54-8.39,13.88q5.38-.42,10.65-.43h.08c5,0,7.81,4.26,7.94,8.47.12,4-2.36,8.22-7.35,8.46q-5.55.26-11,1A136,136,0,0,0,250.5,173c.2.54.42,1.07.63,1.6a300.39,300.39,0,0,0,37.5-9.86C288.43,162.92,288.17,161.08,287.81,159.23Z" fill="#9caab1"/>
  <path d="M288.87,167.57a290.16,290.16,0,0,1-36.77,9.48q1.06,2.59,2.19,5.11A300.72,300.72,0,0,0,289,173Q289,170.32,288.87,167.57Z" fill="#9caab1"/>
  <path d="M263,198.91c4.9-.83,9.37-1.76,13.27-2.77a15.76,15.76,0,0,0,11.5-12.28,58.08,58.08,0,0,0,1.11-7.92,290.34,290.34,0,0,1-33.44,8.64A158.92,158.92,0,0,0,263,198.91Z" fill="#9caab1"/>
  <path d="M253.1,128.57H253c-16.21,0-32.39,3.07-48.08,8.19-16.15,5.27-30.76,14-44.14,22.67-15.44,10-28.88,17.44-44.31,21.49-13.05,3.42-31.5,5.91-45.24-1.76a33.77,33.77,0,0,1-8.51-6.94c-6.92-7.57-8.77-18.64-8-27.43a22.26,22.26,0,0,1-24.11-.55c-.54,16.44,5.8,32.42,17.62,43.37s28.43,15.9,48.91,14.29a125,125,0,0,0,51.76-16.06,228.94,228.94,0,0,0,21.53-14.37c7.79-5.63,15.84-11.46,24.52-16a138.86,138.86,0,0,1,58.73-15.93c3.36-.16,4.48-3.05,4.41-5.37C258,131.51,256.43,128.57,253.1,128.57Z" fill="#c18bbd"/>
  <path d="M308.83,221c-4.34.51-7.49,5.37-4.79,9.44,3.18,4.8,10.92,4.73,13-1C318.82,224.55,313.83,219.29,308.83,221Z" fill="#fff"/>
  <path d="M338.69,205.32a4.22,4.22,0,0,0-5.1-2.33,4.64,4.64,0,0,0-3.28,4.47,4.39,4.39,0,0,0,4.34,4.18,4.29,4.29,0,0,0,4.32-4.28A4.08,4.08,0,0,0,338.69,205.32Z" fill="#fff"/>
  <path d="M164.6,80.65a6.43,6.43,0,0,0,5.74,6.26c4.09.5,7.26-3.48,6.53-7.4-.3-1.63-3.12-1.28-2.92.4a4,4,0,0,1-3.85,4.66,4.15,4.15,0,0,1-3.73-3.92.88.88,0,0,0-1.76,0Z" fill="#456bd9"/>
  <path d="M35.89,151.92A27.93,27.93,0,0,1,13.77,125a26.75,26.75,0,0,1,3.67-14.06l10.26,6.22a14.61,14.61,0,0,0-1.94,7.68A15.77,15.77,0,0,0,30.6,136a16.13,16.13,0,0,0,22.65-.29l16.51-11.46a27.89,27.89,0,0,1-27.62,28.25A28.43,28.43,0,0,1,35.89,151.92Z" fill="#dbe5ea"/>
  <path d="M69.35,129.5a28.2,28.2,0,0,0,.42-5.23,26.81,26.81,0,0,0-4.05-14l-10.09,6.49a14.9,14.9,0,0,1,2.14,7.67,15.71,15.71,0,0,1-4.52,11.3A16,16,0,0,1,42,140.53a16.34,16.34,0,0,1-2-.11A31,31,0,0,0,69.35,129.5Z" fill="#9caab1"/>
</svg>
