<svg xmlns="http://www.w3.org/2000/svg" width="100" height="100" viewBox="0 0 100 100">
  <rect width="100" height="100" fill="#c0cfd8" />
  <path
    d="M25.34,69.08a12.84,12.84,0,0,1,0-25.68,13,13,0,0,1,4.25.71A20.64,20.64,0,0,1,67.35,37.6a16,16,0,1,1,4.49,31.48H25.34ZM23.46,38.75a4.22,4.22,0,1,0-4.22-4.22A4.22,4.22,0,0,0,23.46,38.75ZM39,56.07c2.35,0,3.13-2.09,3.13-4.68S41.39,46.7,39,46.7s-3.12,2.1-3.12,4.69S36.7,56.07,39,56.07Zm21.07,0c2.35,0,3.13-2.09,3.13-4.68s-.78-4.69-3.13-4.69S57,48.8,57,51.39,57.77,56.07,60.11,56.07Z"
    fill="#fff" />
</svg>