<svg xmlns="http://www.w3.org/2000/svg" xmlns:xlink="http://www.w3.org/1999/xlink">
  <defs>
    <pattern id="grid" x="60%" y="60%" width="40" height="40" patternUnits="userSpaceOnUse">
      <rect width="40" height="40" fill="#f2f5f7" />
      <line x1="20" x2="20" y1="0" y2="40" stroke="#c4d1dc" stroke-width="1" />
      <line x1="0" x2="40" y1="20" y2="20" stroke="#c4d1dc" stroke-width="1" />
    </pattern>

    <g id="main" stroke-linecap="round">
      <circle cx="150" cy="150" r="125" fill="none" stroke="#f2f5f7" stroke-linecap="round" stroke-miterlimit="10" stroke-width="12" />
      <circle cx="150" cy="150" r="125" fill="none" stroke="#c0cfd8" stroke-linecap="round" stroke-miterlimit="10" stroke-width="6" />
      <circle cx="150" cy="155" r="80" fill="#f2f5f7" stroke="#f2f5f7" stroke-miterlimit="10" stroke-width="16" />
    </g>

    <g id="corner">
      <circle cx="30.05225" cy="30.04939" r="30.06282" fill="#f2f5f7" stroke="#f2f5f7" stroke-width="5" />
      <circle cx="30.05225" cy="30.04939" r="30.06282" fill="none" stroke="#c0cfd8" stroke-width="2" />
      <circle cx="30.25671" cy="29.9171" r="14.11368" fill="none" stroke="#c0cfd8" stroke-width="1" />x
      <circle cx="30.05225" cy="30.04939" r="10.35294" fill="none" stroke="#c0cfd8" stroke-width="1" />
      <path d="M37.20827,8.02408a14.45675,14.45675,0,0,1,8.0861,3.7965,13.95361,13.95361,0,0,1,3.69628,7.98989" fill="none" stroke="#c0cfd8" stroke-linecap="round" stroke-width="1" />
      <path d="M37.8497,11.536a8.9113,8.9113,0,0,1,5.1355,2.40534A9.29078,9.29078,0,0,1,45.39059,19.153" fill="none" stroke="#c0cfd8" stroke-linecap="round" stroke-width="1" />
      <path d="M21.25256,49.69337a14.49519,14.49519,0,0,1-8.09011-3.7965A13.88286,13.88286,0,0,1,9.46616,37.911" fill="none" stroke="#c0cfd8" stroke-linecap="round" stroke-width="1" />
      <path d="M20.61112,46.18551a8.879,8.879,0,0,1-5.1355-2.40539,9.36159,9.36159,0,0,1-2.40539-5.21166" fill="none" stroke="#c0cfd8" stroke-linecap="round" stroke-width="1" />
    </g>
  </defs>

  <rect fill="url(#grid)" width="100%" height="100%" />

  <!--  Center circle  -->
  <svg viewBox="0 0 300 300">
    <use xlink:href="#main" stroke="#DBE5EA" stroke-width="10" />
    <use xlink:href="#main" stroke="#7e92ab" stroke-width="3" />
  </svg>

  <!--  Broken image  -->
  <svg viewBox="100 50 200 200">
    <polygon points="227 183.5 173 183.5 173 117.5 213 117.5 227 131.5 227 183.5" fill="#738da0" stroke="#738da0" stroke-linecap="round" stroke-linejoin="round" stroke-width="6" />
    <polygon points="227 183.5 173 183.5 173 117.5 213 117.5 227 131.5 227 183.5" fill="#f2f5f7" />
    <rect x="179" y="123.5" width="42" height="54" fill="#c4d1dc" />
    <polygon points="228 130.5 228 132.5 212 132.5 212 116.5 214 116.5 228 130.5" fill="#f2f5f7" stroke="#738da0" stroke-linecap="round" stroke-linejoin="round" stroke-width="3" />
    <polygon points="202 168 186 168 186 152 202 168" fill="#738da0" />
    <circle cx="194" cy="140.5" r="7" fill="#738da0" />
    <rect x="206" y="146" width="12" height="12" fill="#738da0" />
    <polygon points="199 165 183 165 183 149 199 165" fill="#f2f5f7" />
    <circle cx="191" cy="137.5" r="7" fill="#f2f5f7" />
    <rect x="203" y="143" width="12" height="12" fill="#f2f5f7" />
    <polyline points="188.25 189.5 194 168.17 207.75 178.5 212 160 221 166 233.75 154.5" fill="none" stroke="#f2f5f7" stroke-miterlimit="10" stroke-width="6" />
  </svg>

  <!-- 4 corner circles  -->
  <svg viewBox="0 0 350 250" preserveAspectRatio="xMinYMin">
    <use xlink:href="#corner" x="5" y="10" />
  </svg>
  <svg viewBox="0 0 350 250" preserveAspectRatio="xMaxYMax">
    <use xlink:href="#corner" x="285" y="185" />
  </svg>
  <svg viewBox="0 0 350 250" preserveAspectRatio="xMaxYMin">
    <use xlink:href="#corner" x="285" y="10" />
  </svg>
  <svg viewBox="0 0 350 250" preserveAspectRatio="xMinYMax">
    <use xlink:href="#corner" x="5" y="185" />
  </svg>

</svg>
