<svg xmlns="http://www.w3.org/2000/svg" width="36" height="24" viewBox="0 0 36 24">
  <path d="M10.12,16.67a6.52,6.52,0,0,1-2.86-3.43A2.73,2.73,0,0,1,8,11.74c.72-.83,9.1-9.94,12.65-11.5A16.69,16.69,0,0,0,17.87,0C7.38,0,6.37,7.5,6.37,7.5S0,9.44,0,15.26C0,23.58,10.25,24,10.25,24a24.94,24.94,0,0,0,3.24-.12,1.94,1.94,0,0,0,1.34-1.07c.61-1.5,1.5-3.88,2.37-6.38C13.79,16.58,10.49,16.75,10.12,16.67Z" fill="#215cca"/>
  <path d="M36,13.49c0-7.36-7.21-8.15-7.21-8.15A9.15,9.15,0,0,0,25.56,2c-.64,2.29-2.31,8.41-2.4,9.56h2.52s.41,0,.3.5c-.24,1.12-.87,3.87-2.22,4l-1.77.1c-.49,2-1,4.14-1.39,5.67a7.05,7.05,0,0,0,4.5,1.36,6.86,6.86,0,0,0,5-1.84C36.19,20.33,36,13.49,36,13.49Z" fill="#215cca"/>
  <path d="M20.82,4.29A64,64,0,0,0,13.34,12l5.41-.21c1.11-3.11,2.07-5.89,2.49-7.1A.43.43,0,0,0,20.82,4.29Z" fill="#215cca"/>
</svg>
