<svg xmlns="http://www.w3.org/2000/svg" width="139" height="94" viewBox="0 0 139 94">
  <g>
    <path d="M39.56,64.86c-2.47-.46-9-7.22-10.89-13.08,0,0,.07-2.49,3-5.87C34.39,42.78,66.34,8.07,79.89,2.13A67.49133,67.49133,0,0,0,69.1,1.27991C29.16,1.27991,25.3,29.8,25.3,29.8S1,37.34,1,59.46C1,91.18,40.06,92.78,40.06,92.78a88.35041,88.35041,0,0,0,12.06-.53,7.4,7.4,0,0,0,5.1-4.06c2.33-5.9,5.59-14.79,9-24.32C53.54,64.51,40.87,65.11,39.56,64.86Z" fill="#fff"/>
    <path d="M138.06,52.59c0-28.05-27.45-31-27.45-31S107.32,14.72,98.4,9c-2.4,8.74-8.81,32-9.16,36.41h9.59s1.52,0,1.13,1.89C99,51.6,96.67,62,91.5,62.37c-1.2.08-3.61.25-6.72.43-1.91,7.68-3.89,15.76-5.31,21.59.71.6,6.34,5.19,17.34,5.19,12.91,0,19.14-7,19.14-7C138.84,78.8,138.06,52.59,138.06,52.59Z" fill="#fff"/>
    <path d="M51.84,47l20.59-.82c4.21-11.87,7.89-22.44,9.48-27.1a1.68,1.68,0,0,0-1.59-1.41C79,17.67,57.22,39.61,51.84,47Z" fill="#fff"/>
  </g>
</svg>
