<svg xmlns="http://www.w3.org/2000/svg" width="21" height="25" viewBox="0 0 21 25">
  <path d="M3.32172,19.38477H19.64559a.6225.6225,0,0,0,.14493-.01821l.01049.00063a.63178.63178,0,0,0,.63157-.63151V.88552A.63189.63189,0,0,0,19.801.254H3.32261A3.05186,3.05186,0,0,0,.27419,3.30222a.64364.64364,0,0,0,.00663.06568C.27863,4.92034.25938,19.18526.27863,21.06055c-.0012.03667-.00569.07247-.00569.10951a3.05036,3.05036,0,0,0,2.85689,3.03887.62671.62671,0,0,0,.09636.00955H19.801a.63185.63185,0,0,0,.63162-.63157v-2.3773a.6316.6316,0,0,0-1.26319,0V22.9554H3.32172A1.786,1.786,0,0,1,1.54,21.24321c.00094-.017.004-.033.0037-.05025-.00063-.02775-.00156-.0709-.00219-.12829A1.78649,1.78649,0,0,1,3.32172,19.38477ZM3.75237,3.30222a.63157.63157,0,1,1,1.26313,0V16.131a.63157.63157,0,0,1-1.26313,0Z" fill="#215cca"/>
</svg>
