<svg xmlns="http://www.w3.org/2000/svg" width="326" height="103" viewBox="0 0 326 103">
  <g>
    <g>
      <path d="M193.9,41.8c0-7.8-3.3-14.7-14.6-14.7a26.06935,26.06935,0,0,0-12.9,3.1l1.8,6.3a19.241,19.241,0,0,1,9.4-2.6c5.7,0,6.6,3.2,6.6,5.3v.5c-12.4,0-20.3,4.3-20.3,13.1,0,5.4,4,10.4,11,10.4a12.43694,12.43694,0,0,0,10-4.4h.2s1.4,5.9,9.3,3.7a52.10755,52.10755,0,0,1-.5-8.3Zm-9.3,8.3a12.25115,12.25115,0,0,1-.2,1.9,6.5006,6.5006,0,0,1-6.3,4.4,4.252,4.252,0,0,1-4.6-4.6c0-4.7,5.2-6,11.1-6Z" fill="#017ac8"/>
      <path d="M0,16.6S8.1,49.9,9.4,55.3c1.5,6.3,4.2,8.6,12.1,7.1l5.1-20.7a134.12085,134.12085,0,0,0,3-14h.1a127.92981,127.92981,0,0,0,2.5,14s2.1,9.4,3.1,14.3c1.1,4.9,4,8,11.7,6.3L59.1,16.5H49.3L45.2,36.3c-1.1,5.8-2.1,10.3-2.9,15.5h-.1c-.7-5.2-1.6-9.5-2.7-15.2L35.2,16.4H25L20.4,36.1c-1.3,6-2.5,10.8-3.3,15.9H17c-.8-4.8-1.9-10.9-3-16.6,0,0-2.7-14.1-3.7-18.9H0Z" fill="#017ac8"/>
      <path d="M86.9,41.8c0-7.8-3.3-14.7-14.6-14.7a26.06931,26.06931,0,0,0-12.9,3.1l1.8,6.3a19.241,19.241,0,0,1,9.4-2.6c5.7,0,6.6,3.2,6.6,5.3v.5C64.9,39.6,57,44,57,52.7c0,5.4,4,10.4,11,10.4a12.437,12.437,0,0,0,10-4.4h.2s1.4,5.9,9.3,3.7a52.10638,52.10638,0,0,1-.5-8.3V41.8Zm-9.3,8.3a12.25233,12.25233,0,0,1-.2,1.9,6.50062,6.50062,0,0,1-6.3,4.4,4.25194,4.25194,0,0,1-4.6-4.6c0-4.7,5.2-6,11.1-6Z" fill="#017ac8"/>
      <polygon points="102.4 52.6 102.4 16.6 93.1 16.6 93.1 62.3 102.4 62.3 102.4 52.6" fill="#017ac8"/>
      <path d="M224.1,16.6V50.4c0,4.7.9,7.9,2.8,9.9a10.38711,10.38711,0,0,0,7.6,2.9,20.986,20.986,0,0,0,6.7-1l-.1-7.3a16.07571,16.07571,0,0,1-3.5.4c-3.2,0-4.2-2-4.2-6.2v-13h8.1V27.3h-8.1V16.6Z" fill="#017ac8"/>
      <path d="M200.1,27.9V62.3h9.6V44.7a16.85914,16.85914,0,0,1,.2-2.5c.7-3.7,3.5-6,7.6-6a23.00251,23.00251,0,0,1,2.8.2v-9a12.48171,12.48171,0,0,0-2.1-.2c-3.6,0-7.7,2.3-9.4,7.3h-.3V28h-8.4Z" fill="#017ac8"/>
      <path d="M108.9,27.9V62.3h9.4V42.2a9.0337,9.0337,0,0,1,.4-2.8c.8-2,2.7-4.4,5.7-4.4,3.8,0,5.5,3.2,5.5,7.8V62.4h9.3V41.9a8.62716,8.62716,0,0,1,.4-2.8,5.94035,5.94035,0,0,1,5.6-4.2c3.8,0,5.7,3.1,5.7,8.5V62.2h9.3V42.1c0-10.7-5.4-14.9-11.5-14.9a12.35083,12.35083,0,0,0-6.8,1.9,14.90805,14.90805,0,0,0-4.4,4.3h-.1a9.93411,9.93411,0,0,0-9.5-6.2,10.85889,10.85889,0,0,0-10,5.5h-.1V28h-8.9Z" fill="#017ac8"/>
    </g>
    <g>
      <path d="M293.9,54.6c-.2-1.2-1.7-2.2-3.6-2.2s-3.4,1-3.6,2.2l-1.8,20.7c0,2,2.4,3.7,5.4,3.7s5.4-1.7,5.4-3.7Z" fill="#febc11"/>
      <path d="M279,50.1c1-.8,1.1-2.6.1-4.2-.9-1.6-2.5-2.4-3.7-2l-18.8,8.8c-1.8,1-2,3.9-.5,6.5s4.2,3.9,5.9,2.8Z" fill="#febc11"/>
      <path d="M305.2,44c-1.2-.4-2.8.4-3.7,2s-.9,3.4.1,4.2l17,11.9c1.8,1,4.4-.2,5.9-2.8s1.3-5.5-.5-6.6Z" fill="#febc11"/>
      <path d="M294,24.4c-.2,1.2-1.7,2.2-3.6,2.2-1.8,0-3.4-1-3.6-2.2L285,3.7c0-2,2.4-3.7,5.4-3.7s5.4,1.7,5.4,3.7Z" fill="#febc11"/>
      <path d="M305.3,35.1c-1.2.5-2.8-.4-3.7-2s-.8-3.4.1-4.2l17-11.9c1.8-1,4.4.2,5.9,2.8s1.3,5.5-.5,6.6Z" fill="#febc11"/>
      <path d="M279.1,28.8c1,.8,1.1,2.6.1,4.2-.9,1.6-2.5,2.4-3.7,2l-18.8-8.8c-1.8-1-2-3.9-.5-6.5s4.2-3.9,5.9-2.8Z" fill="#febc11"/>
    </g>
    <g>
      <path d="M140.3,93.8a30.62,30.62,0,0,1-8.5,1.4c-4.8,0-8.1-1.2-10.3-3.3A12.13463,12.13463,0,0,1,118,83c0-8.6,6.4-12.9,14.4-12.9a18.163,18.163,0,0,1,7.1,1.2l-1.3,5.3a13.82361,13.82361,0,0,0-5.8-1.1c-4,0-7.4,2.1-7.4,7.1,0,4.6,3,7.3,7,7.3a9.81893,9.81893,0,0,0,2.1-.2V85.5h-3.3V80.4h9.6V93.8Z" fill="#017ac8"/>
      <path d="M143,83c0-2.8,0-4.6-.1-6h5.6l.3,3.2h.1a5.06887,5.06887,0,0,1,4.8-3.6,5.2829,5.2829,0,0,1,1.3.1v6.2a7.93078,7.93078,0,0,0-1.7-.2c-1.9,0-3.2.8-3.6,2.3,0,.3-.1.7-.1,1.1V95H143Z" fill="#017ac8"/>
      <path d="M164.8,95.3c-5.4,0-9.5-3.4-9.5-9.2,0-5.7,3.8-9.5,9.9-9.5,5.6,0,9.3,3.8,9.3,9.2,0,6.5-4.7,9.5-9.7,9.5Zm.2-4.6c1.8,0,2.7-1.9,2.7-4.7,0-2.5-.8-4.7-2.7-4.7-2.2,0-2.9,2.4-2.9,4.7C162.1,88.7,162.9,90.7,165,90.7Z" fill="#017ac8"/>
      <path d="M190.3,94.5a12.80073,12.80073,0,0,1-4.9.8c-6,0-9.7-3.5-9.7-9.2,0-5.1,3.5-9.5,10.5-9.5a14.53337,14.53337,0,0,1,4.1.6l-.9,4.8a6.61271,6.61271,0,0,0-2.8-.4,4.30059,4.30059,0,0,0,.1,8.6,6.81509,6.81509,0,0,0,2.9-.5Z" fill="#017ac8"/>
      <path d="M196.5,88.3c.2,1.4,2.3,2.2,4.6,2.2a16.136,16.136,0,0,0,4.9-.7l.8,4.4a19.60958,19.60958,0,0,1-6.7,1.1c-6.3,0-9.9-3.5-9.9-9.1,0-4.2,2.7-9.5,9.3-9.5,5.8,0,8.3,4.3,8.3,9.2a7.65191,7.65191,0,0,1-.3,2.5h-11Zm5.3-4.5a2.65988,2.65988,0,0,0-2.6-2.9,3.00257,3.00257,0,0,0-2.8,2.9Z" fill="#017ac8"/>
      <path d="M209.6,83c0-2.8,0-4.6-.1-6h5.6l.3,3.2h.1a5.06887,5.06887,0,0,1,4.8-3.6,5.2829,5.2829,0,0,1,1.3.1v6.2a7.93078,7.93078,0,0,0-1.7-.2c-1.9,0-3.2.8-3.6,2.3,0,.3-.1.7-.1,1.1V95h-6.6Z" fill="#017ac8"/>
      <path d="M229,77l2.2,8.1c.3,1,.5,2.3.8,3.2h.1c.2-.9.4-2.3.7-3.2l1.6-8.1h7l-3.8,11.4c-2.7,7.5-4.4,10.2-6.4,12a10.99607,10.99607,0,0,1-6,2.6l-1.3-5.5a7.49532,7.49532,0,0,0,2.3-.7,5.84421,5.84421,0,0,0,2.1-1.6,1.35093,1.35093,0,0,0,0-1.7L221.7,77Z" fill="#017ac8"/>
    </g>
  </g>
</svg>
