<svg xmlns="http://www.w3.org/2000/svg" width="1600" height="500" viewBox="0 0 1600 500">
  <path d="M485.81,443a146.39,146.39,0,0,0-45.05-8.73A53.15,53.15,0,0,0,437.6,423c-20.1-49.68-86.07-78.85-152.5-63.8-43,9.74-74.7,35.37-86.87,65.89-22.83.27-46.87,6.64-66.74,18.85C75,478.67,49,548.12,71.82,595.4c12.78,26.49,38.4,40.91,68.26,42.07l0,.08h2.61c1.16,0,2.33,0,3.5,0l316.93-1.48c51.77,7.72,109.35-14.86,117.18-57.4C590,525.94,549.94,465.93,485.81,443Z" fill="#3d84f5"/>
  <path d="M953.57,355.34a120.08,120.08,0,0,0-30.86,4c-12.35-61-60-106.41-116.81-106.41a106.66,106.66,0,0,0-49.11,12c-27.85-22.84-62.62-36.42-100.36-36.42C574,228.58,505.72,293.26,493,378c-.72,0-1.43,0-2.14,0-97.08-3.06-152.15,70.73-152.15,158s69.7,126.6,152.15,126.6H953.57c74.64,0,135.14-68.76,135.14-153.58S1028.21,355.34,953.57,355.34Z" fill="#8abfff"/>
  <path d="M1541,283.39c-17.41-35.38-42.58-67.2-75.6-90.72-63.41-45.15-149.85-55-225.28-39.7-60.5-61.39-165.33-60.6-250.3-19.58-77.38,37.35-131.23,104.32-137.38,180.3-29.71,5.38-58.76,14.89-84.44,28.47C650.78,404.15,597,528,644.25,612.32c26,46.34,77.61,72,138,74.89l-.22.29h732.05c129.38,0,234.26-90.76,234.26-202.72C1748.37,380.69,1657.73,295,1541,283.39Z" fill="#fff"/>
</svg>
