<svg id="Layer_1" data-name="Layer 1" xmlns="http://www.w3.org/2000/svg" width="85" height="85" viewBox="0 0 85 85">
  <title>design-systems</title>
  <rect x="12.2" y="12.44" width="60" height="60" fill="none" stroke="#c0cfd8" stroke-linecap="round" stroke-miterlimit="10" stroke-dasharray="3 2"/>
  <line x1="11.7" y1="72" x2="71.7" y2="12" fill="none" stroke="#c0cfd8" stroke-linecap="round" stroke-miterlimit="10" stroke-dasharray="3 2"/>
  <line x1="11.7" y1="12" x2="71.7" y2="72" fill="none" stroke="#c0cfd8" stroke-linecap="round" stroke-miterlimit="10" stroke-dasharray="3 2"/>
  <line x1="12.13" y1="42.44" x2="72.25" y2="42.44" fill="none" stroke="#c0cfd8" stroke-linecap="round" stroke-miterlimit="10" stroke-dasharray="3 2"/>
  <line x1="42.82" y1="12.34" x2="42.82" y2="72.46" fill="none" stroke="#c0cfd8" stroke-linecap="round" stroke-miterlimit="10" stroke-dasharray="3 2"/>
  <path d="M12.05,2.6,2.18,9.77a.62.62,0,0,0-.22.68L5.73,22.06a.61.61,0,0,0,.58.42h12.2a.6.6,0,0,0,.58-.42l3.78-11.61a.61.61,0,0,0-.23-.68L12.77,2.6A.6.6,0,0,0,12.05,2.6Z" fill="#d9118f"/>
  <circle cx="12.41" cy="71.5" r="10" fill="#f27041"/>
  <path d="M53.51,81.5H31.84a.61.61,0,0,1-.52-.91L42.16,61.83a.6.6,0,0,1,1,0L54,80.59A.61.61,0,0,1,53.51,81.5Z" fill="#158466"/>
  <rect x="34.2" y="4.48" width="18" height="18" rx="0.56" fill="#f27041"/>
  <path d="M82.62,22.48H61a.59.59,0,0,1-.52-.9L71.27,2.82a.59.59,0,0,1,1,0L83.14,21.58A.6.6,0,0,1,82.62,22.48Z" fill="#950cde"/>
  <rect x="62.79" y="63.5" width="18" height="18" rx="0.56" fill="#d9118f"/>
  <path d="M71.43,33,61.56,40.2a.59.59,0,0,0-.22.68l3.77,11.61a.6.6,0,0,0,.58.42h12.2a.6.6,0,0,0,.58-.42l3.77-11.61A.62.62,0,0,0,82,40.2L72.15,33A.6.6,0,0,0,71.43,33Z" fill="#f27041"/>
  <circle cx="42.68" cy="42.91" r="10" fill="#950cde"/>
  <rect x="3.41" y="33.91" width="18" height="18" rx="0.56" fill="#158466"/>
</svg>
