<svg xmlns="http://www.w3.org/2000/svg" width="486" height="436" viewBox="0 0 486 436">
  <g>
    <path
      d="M428.7,158.14c8.44-1.46,17.44-1.37,26-1.64,9.34-.29,18.76-.57,28.1-.2a3.08,3.08,0,0,1,0,6.15c-9.34.37-18.76.1-28.1-.2-8.57-.27-17.55-.18-26-1.64a1.29,1.29,0,0,1-.86-1.61A1.28,1.28,0,0,1,428.7,158.14Z"
      fill="#fff" />
    <path
      d="M413.15,93.76c6.54-3.77,14.14-6.34,21.18-9.07,7.61-3,15.31-5.91,23.13-8.24,3.88-1.16,5.22,4.5,1.64,5.93-14,5.58-30,11.51-45,13.72-1.34.2-2.34-1.56-1-2.34Z"
      fill="#fff" />
    <path
      d="M408.12,221.58c7.58,1.08,15.23,3.54,22.63,5.53a210.81,210.81,0,0,1,22.24,7c3.6,1.41,2.25,7.07-1.64,5.93-14.47-4.23-31.08-8.58-44.22-16.08-1.36-.77-.36-2.53,1-2.34Z"
      fill="#fff" />
    <path
      d="M57.27,154.69c-8.47,1.17-17.43.8-26,.78-9.34,0-18.76-.06-28.08-.75-3.9-.29-4-6.13,0-6.15,9.35-.06,18.75.54,28.08,1.15,8.57.56,17.57.75,26,2.51,1.18.25,1.26,2.29,0,2.47Z"
      fill="#fff" />
    <path
      d="M77.8,92.07c-8.56-1.64-17.15-5.1-25.37-8-7.92-2.8-15.88-5.64-23.58-9-3.18-1.38-.92-6.73,2.37-5.62,8,2.69,15.75,6,23.49,9.22,8,3.37,16.66,6.54,24.08,11.06a1.29,1.29,0,0,1-1,2.34Z"
      fill="#fff" />
    <path
      d="M74.06,216.73A198.39,198.39,0,0,1,32,233.13c-3.88,1-5.31-4.6-1.64-5.93,13.57-4.92,28.64-11.24,43-12.85,1.29-.14,1.71,1.81.65,2.38Z"
      fill="#fff" />
  </g>
  <g>
    <path
      d="M176.12,182.17c-2.51.48-3,3.43-1.62,5.29a3.17,3.17,0,0,0,2.65,1.3c1.86-.07,3.89-.9,5.71-1.32q6.4-1.49,12.87-2.63c8.63-1.52,17.33-2.59,26.05-3.34q-1.36,3.93-2.66,7.89a298.35,298.35,0,0,0-8.61,32.33c-.55,2.71-1.06,5.44-1.53,8.17-.25,1.49-.49,3-.71,4.46a21.32,21.32,0,0,0-.49,3.56A2.16,2.16,0,0,0,210,240a2.44,2.44,0,0,0,.46-.07c.81-.29.94-1,1-1.78.2-1.36.39-2.73.61-4.09q1.34-8.5,3.18-16.92c.31-1.42.64-2.84,1-4.25l.44-1.88A4.3,4.3,0,0,1,217,210c.33-.57.12-.47.84-.47,2.79,0,5.57.12,8.36.35s5.61.57,8.48,1c1.41.22,2.82.46,4.22.72l1.88.37c.38.08,1.63.13,1.88.4.4.44,0,1.71-.1,2.27l-.31,2.21-.57,4.18c-.39,2.87-.75,5.75-1.1,8.62s-.68,5.75-1,8.63c-.16,1.45-.7,3.85,1.55,3.74s2-2.4,2.19-4q.48-4.28,1-8.53c.35-2.84.71-5.76,1.1-8.76l.57-4.37.26-1.94a4.81,4.81,0,0,1,.13-1c.16-.17,1-.2,1.2-.25q8.57-1.78,17-3.94c3.26-.83,8.71-1.67,9.21-5.86s-3.46-8.19-6.14-10.86c-7.06-7-15.54-12.41-25.28-14.73a65.27,65.27,0,0,0-15.57-1.73c-1.24,0-6.4.54-7.77.67l-8.52.77c-11.51,1.08-23,2.36-34.36,4.55Zm81.42,22.9q-5.24,1.35-10.44,2.82,1.59-11.41,3.3-22.83c5.19,3.39,10.71,7.07,14.33,12.21.63.9,3.35,4.58,1.85,5.35a20.12,20.12,0,0,1-3.64,1.19c-1.78.5-3.61.79-5.41,1.25Z"
      fill="#f27041" />
    <path
      d="M249,172.33c5.86-2.49,9.58-9.71,6.67-15.71-2.44-5-8.92-8.2-14.38-7.92-5.27.27-11.13,2.75-13.28,7.94-2.23,5.37.89,11.37,5.51,14.3A17.13,17.13,0,0,0,249,172.33Z"
      fill="#f27041" />
  </g>
  <g>
    <path
      d="M247.78,183.62q-2.5,12.57-4.41,25.26a90.52,90.52,0,0,0-25.31-3.26c2.24-8.77,4.81-17.46,7.63-26.11C233.21,180.57,240.55,181.13,247.78,183.62Z"
      fill="#ffad5c" />
    <path
      d="M248.2,167.25a12.37,12.37,0,0,1-11.14-1c-3.08-1.88-5.39-5.49-4-9.13a9.41,9.41,0,0,1,8.66-5.56c4,.1,8.75,2.31,10.56,6s-.5,8-4.08,9.61Z"
      fill="#ffad5c" />
  </g>
  <path d="M325.33,11.31C336.41,10,346.91,8.9,356.32,8l11,121c-9.22.86-19.53,2-30.42,3.24Z" fill="#1ead76" />
  <path d="M170,144.6s113.56-17.19,176.32-23.08l-11-121c-65.3,6.13-183,24-183,24Z" fill="#2cdd90" />
  <polygon points="336.91 132.25 346.33 121.52 335.98 122.54 336.91 132.25" fill="#158466" />
  <g>
    <polyline points="280.65 48.51 303.44 67.09 284.86 89.88" fill="none" stroke="#fff" stroke-linecap="round"
      stroke-linejoin="round" stroke-width="10" />
    <polyline points="215.65 55.12 197.07 77.91 219.85 96.49" fill="none" stroke="#fff" stroke-linecap="round"
      stroke-linejoin="round" stroke-width="10" />
    <line x1="259.07" y1="39.5" x2="242.41" y2="105.39" fill="none" stroke="#fff" stroke-linecap="round"
      stroke-linejoin="round" stroke-width="10" />
  </g>
  <path d="M185.13,288.09l8.18-2.56-39-261.75c-.1-.68-1-1-2-.81h0c-1,.24-1.71,1-1.63,1.67Z" fill="#485968" />
  <circle cx="242.95" cy="422.5" r="187.5" fill="#3d84f5" />
  <path
    d="M242.46,255A186.71,186.71,0,0,0,124,297.13c-80.66,65.79-85.62,188.22-10.65,260.43a187.51,187.51,0,0,0,248.49,10.32c80.66-65.79,85.62-188.22,10.65-260.43A186.83,186.83,0,0,0,242.46,255Z"
    fill="#215cca" />
</svg>
