<svg xmlns="http://www.w3.org/2000/svg" viewBox="0 0 215 67">
	<path d="M36.57,30.909c-3.562-1.633-5.402,1.157-5.402,1.157l-0.84,0.57c-0.058-0.429-0.136-0.877-0.241-1.346
		c0,0-0.904-5.742-8.639-15.233c0,0,1.126,3.964-0.589,10.931c0,0-0.175,0.555-0.296,1.49c-2.68-1.036-6.985-2.269-13.313-2.915
		c0,0,3.599,2.007,7.313,8.146c0,0,1.814,3.489,6.136,5.465l-9.808,6.66l-2.499,3.903l11.617-6.063
		c14.71-1.03,15.374-6.52,15.374-6.52l0.891-4.464l3.745-0.899L36.57,30.909z"/>
  <path d="M55.266,40.377c-0.122,0.373-0.296,0.688-0.523,0.945c-0.237,0.334-0.554,0.605-0.949,0.813
    c-0.417,0.245-0.909,0.367-1.477,0.367c-0.561,0-1.042-0.122-1.445-0.367c-0.41-0.208-0.741-0.479-0.992-0.813
    c-0.309-0.349-0.514-0.806-0.615-1.37c-0.115-0.564-0.173-1.644-0.173-3.241c0-1.596,0.058-2.684,0.173-3.263
    c0.1-0.549,0.306-0.998,0.615-1.348c0.251-0.334,0.582-0.612,0.992-0.835c0.402-0.215,0.884-0.33,1.445-0.345
    c0.568,0.015,1.06,0.13,1.477,0.345c0.395,0.223,0.712,0.501,0.949,0.835c0.273,0.308,0.465,0.698,0.587,1.162h2.485
    c-0.012-0.122-0.024-0.235-0.038-0.33c-0.1-0.637-0.283-1.152-0.548-1.545c-0.366-0.748-0.961-1.415-1.786-2
    c-0.832-0.593-1.872-0.896-3.12-0.911c-1.234,0.015-2.263,0.317-3.088,0.908c-0.839,0.583-1.449,1.247-1.829,1.993
    c-0.237,0.393-0.412,0.91-0.527,1.548c-0.108,0.638-0.161,1.9-0.161,3.786c0,1.852,0.054,3.104,0.161,3.756
    c0.057,0.348,0.129,0.637,0.215,0.867c0.093,0.222,0.197,0.456,0.312,0.7c0.38,0.748,0.99,1.408,1.829,1.978
    c0.825,0.593,1.854,0.904,3.088,0.933c1.248-0.029,2.288-0.341,3.12-0.933c0.825-0.57,1.42-1.23,1.786-1.978
    c0.265-0.393,0.448-0.915,0.549-1.567c0.004-0.027,0.007-0.061,0.011-0.09H55.266z"/>
  <path d="M111.505,28.296h2.281v2.35h-2.281V28.296z M111.505,33.044h2.281v11.734h-2.281V33.044z"/>
  <path d="M104.548,34.852h-1.152v-1.808h1.152v-1.549c0-1.115,0.299-1.937,0.897-2.464c0.584-0.49,1.317-0.735,2.2-0.735h1.477
    v2.215h-1.305c-0.689-0.023-1.018,0.303-0.987,0.977v1.556h2.293v1.808h-2.293v9.926h-2.281V34.852z"/>
  <path d="M62.036,39.757c0.003,0.943,0.267,1.658,0.795,2.147c0.491,0.496,1.134,0.744,1.93,0.741
    c0.928-0.003,1.756-0.386,2.484-1.149l1.658,1.454c-1.157,1.284-2.52,1.92-4.089,1.909c-0.599,0.002-1.183-0.087-1.752-0.267
    c-0.285-0.097-0.563-0.228-0.833-0.393c-0.285-0.142-0.552-0.319-0.801-0.529c-0.483-0.436-0.875-1.045-1.176-1.828
    c-0.331-0.753-0.497-1.732-0.501-2.938c-0.003-1.16,0.136-2.126,0.419-2.895c0.282-0.784,0.645-1.404,1.089-1.857
    c0.451-0.461,0.957-0.794,1.519-0.999c0.554-0.205,1.101-0.308,1.641-0.31c1.299,0.012,2.398,0.45,3.298,1.314
    c0.915,0.879,1.381,2.092,1.4,3.637l0.005,1.942L62.036,39.757z M66.837,37.802c-0.032-0.916-0.271-1.609-0.719-2.077
    c-0.44-0.446-1.004-0.668-1.692-0.666c-0.688,0.002-1.25,0.227-1.688,0.675c-0.43,0.471-0.666,1.164-0.708,2.081L66.837,37.802z"
    />
  <path d="M77.384,43.651l-0.044,0c-0.211,0.4-0.538,0.695-0.983,0.884c-0.437,0.197-1.042,0.297-1.816,0.299
    c-1.27-0.012-2.248-0.355-2.936-1.032c-0.724-0.661-1.088-1.508-1.09-2.54c-0.003-0.987,0.309-1.805,0.934-2.455
    c0.626-0.665,1.544-1.006,2.755-1.025l3.163-0.009l-0.003-1.238c0.012-1.037-0.766-1.539-2.336-1.505
    c-0.57,0.002-1.018,0.063-1.346,0.186c-0.343,0.145-0.612,0.388-0.808,0.729l-1.799-1.41c0.865-1.172,2.143-1.745,3.835-1.719
    c1.429-0.019,2.571,0.257,3.426,0.827c0.855,0.585,1.291,1.594,1.31,3.026l0.022,8.015l-2.281,0.006L77.384,43.651z
     M77.373,39.715l-2.742,0.008c-1.331,0.034-1.988,0.507-1.97,1.42c0.001,0.4,0.174,0.738,0.518,1.017
    c0.33,0.308,0.875,0.461,1.635,0.459c0.958,0.013,1.634-0.106,2.028-0.356c0.358-0.25,0.535-0.816,0.533-1.698L77.373,39.715z"/>
  <path d="M82.906,41.092c0.932,1.001,2.134,1.499,3.605,1.495c0.659-0.002,1.196-0.135,1.613-0.4
    c0.417-0.265,0.624-0.635,0.623-1.11c-0.001-0.422-0.126-0.716-0.375-0.881c-0.257-0.173-0.597-0.266-1.021-0.28l-2.019-0.175
    c-0.958-0.088-1.738-0.417-2.34-0.988c-0.616-0.556-0.933-1.335-0.95-2.338c0.011-1.206,0.422-2.111,1.231-2.717
    c0.787-0.605,1.787-0.91,3-0.913c0.526-0.001,0.997,0.031,1.414,0.098c0.416,0.074,0.808,0.178,1.174,0.313
    c0.702,0.292,1.331,0.685,1.888,1.181l-1.411,1.71c-0.44-0.326-0.905-0.595-1.395-0.807c-0.484-0.189-1.04-0.282-1.669-0.281
    c-0.717,0.002-1.217,0.136-1.502,0.4c-0.299,0.265-0.448,0.605-0.447,1.02c-0.015,0.264,0.099,0.494,0.342,0.69
    c0.22,0.218,0.608,0.357,1.164,0.416l1.887,0.142c1.185,0.087,2.042,0.455,2.571,1.102c0.491,0.633,0.739,1.436,0.742,2.409
    c-0.012,1.14-0.459,2.02-1.34,2.641c-0.875,0.636-1.995,0.964-3.36,0.983c-1.854,0.005-3.525-0.691-5.011-2.088L82.906,41.092z"/>
  <path d="M94.826,39.667c0.003,0.943,0.268,1.658,0.795,2.147c0.491,0.496,1.134,0.744,1.93,0.741
    c0.928-0.003,1.756-0.386,2.484-1.149l1.658,1.454c-1.157,1.284-2.52,1.92-4.088,1.909c-0.599,0.002-1.183-0.087-1.752-0.267
    c-0.285-0.097-0.562-0.228-0.833-0.393c-0.285-0.142-0.552-0.319-0.8-0.529c-0.483-0.436-0.875-1.045-1.176-1.828
    c-0.33-0.753-0.497-1.732-0.5-2.938c-0.003-1.16,0.136-2.126,0.419-2.895c0.282-0.784,0.645-1.404,1.089-1.857
    c0.451-0.461,0.957-0.794,1.519-0.999c0.554-0.205,1.101-0.308,1.641-0.31c1.299,0.012,2.398,0.45,3.298,1.314
    c0.914,0.879,1.381,2.092,1.4,3.637l0.005,1.942L94.826,39.667z M99.628,37.712c-0.032-0.916-0.272-1.609-0.719-2.077
    c-0.44-0.446-1.004-0.668-1.692-0.666c-0.688,0.002-1.25,0.227-1.688,0.675c-0.43,0.471-0.666,1.164-0.708,2.081L99.628,37.712z"
    />
  <path d="M116.169,32.965h2.281v1.244h0.048c0.752-0.927,1.738-1.39,2.957-1.39c0.913,0.015,1.709,0.315,2.388,0.901l-1.666,2.039
    c-0.482-0.393-0.983-0.589-1.502-0.589c-0.585,0-1.085,0.196-1.502,0.589c-0.468,0.385-0.709,1.008-0.724,1.868v7.074h-2.281
    V32.965z"/>
  <path d="M126.395,39.724c0,0.943,0.263,1.659,0.789,2.149c0.489,0.498,1.132,0.747,1.928,0.747c0.928,0,1.757-0.381,2.487-1.143
    l1.654,1.459c-1.16,1.281-2.525,1.913-4.094,1.898c-0.599,0-1.182-0.09-1.752-0.271c-0.285-0.098-0.562-0.23-0.832-0.396
    c-0.285-0.143-0.551-0.32-0.799-0.531c-0.482-0.437-0.872-1.047-1.171-1.831c-0.328-0.753-0.492-1.733-0.492-2.939
    c0-1.16,0.142-2.125,0.427-2.894c0.284-0.784,0.649-1.402,1.094-1.854c0.452-0.46,0.959-0.791,1.522-0.995
    c0.554-0.203,1.102-0.305,1.642-0.305c1.299,0.015,2.397,0.456,3.294,1.323c0.912,0.882,1.375,2.096,1.39,3.641v1.942H126.395z
     M131.202,37.782c-0.029-0.916-0.267-1.609-0.713-2.079c-0.439-0.447-1.002-0.67-1.69-0.67c-0.688,0-1.251,0.223-1.69,0.67
    c-0.431,0.469-0.669,1.162-0.713,2.079H131.202z"/>
  <path d="M142.303,36.712c0-1.886,0.053-3.148,0.161-3.786c0.115-0.638,0.29-1.155,0.527-1.548c0.38-0.745,0.99-1.41,1.829-1.993
    c0.825-0.59,1.854-0.893,3.088-0.908c1.248,0.015,2.288,0.319,3.12,0.911c0.825,0.585,1.42,1.252,1.786,2
    c0.265,0.393,0.448,0.908,0.548,1.545c0.093,0.637,0.14,1.897,0.14,3.778c0,1.852-0.047,3.104-0.14,3.756
    c-0.1,0.652-0.283,1.174-0.549,1.567c-0.366,0.748-0.961,1.408-1.786,1.978c-0.832,0.593-1.872,0.904-3.12,0.933
    c-1.234-0.029-2.263-0.341-3.088-0.933c-0.84-0.57-1.449-1.23-1.829-1.978c-0.115-0.244-0.219-0.478-0.312-0.7
    c-0.086-0.23-0.158-0.518-0.215-0.867C142.357,39.816,142.303,38.564,142.303,36.712z M144.679,36.712
    c0,1.596,0.058,2.677,0.173,3.241c0.1,0.564,0.305,1.021,0.615,1.37c0.251,0.334,0.582,0.605,0.992,0.813
    c0.402,0.245,0.884,0.367,1.445,0.367c0.568,0,1.06-0.122,1.477-0.367c0.395-0.208,0.712-0.479,0.949-0.813
    c0.309-0.349,0.521-0.805,0.636-1.37c0.108-0.564,0.162-1.644,0.162-3.241c0-1.596-0.054-2.684-0.162-3.263
    c-0.115-0.549-0.327-0.999-0.636-1.348c-0.237-0.334-0.554-0.612-0.949-0.835c-0.417-0.215-0.909-0.33-1.477-0.345
    c-0.561,0.015-1.042,0.13-1.445,0.345c-0.41,0.223-0.741,0.501-0.992,0.835c-0.309,0.349-0.514,0.798-0.615,1.348
    C144.737,34.028,144.679,35.115,144.679,36.712z"/>
  <path d="M182.296,43.293c-0.739,0.862-1.7,1.308-2.883,1.337c-0.724-0.015-1.326-0.174-1.807-0.478
    c-0.502-0.289-0.886-0.6-1.151-0.934c-0.294-0.378-0.505-0.841-0.634-1.39c-0.136-0.541-0.204-1.572-0.204-3.092
    c0-1.549,0.068-2.598,0.204-3.147c0.129-0.541,0.34-0.997,0.634-1.368c0.265-0.361,0.649-0.685,1.151-0.973
    c0.481-0.273,1.083-0.416,1.807-0.431c1.111,0,2.072,0.456,2.883,1.367v-1.222h2.242v11.258c-0.029,1.734-0.512,3.007-1.451,3.823
    c-0.946,0.837-2.078,1.256-3.397,1.256c-1.512-0.03-2.802-0.673-3.87-1.93l1.742-1.431c0.287,0.275,0.617,0.51,0.99,0.704
    c0.38,0.216,0.774,0.331,1.183,0.346c0.767,0,1.384-0.219,1.85-0.659c0.459-0.446,0.695-1.064,0.71-1.853V43.293z M177.859,38.74
    c0,0.885,0.029,1.494,0.086,1.829c0.05,0.349,0.169,0.639,0.355,0.87c0.151,0.208,0.38,0.398,0.689,0.569
    c0.294,0.208,0.66,0.312,1.098,0.312c0.438,0,0.804-0.104,1.098-0.312c0.294-0.171,0.516-0.36,0.667-0.569
    c0.187-0.23,0.312-0.521,0.377-0.87c0.043-0.334,0.065-0.944,0.065-1.829c0-0.899-0.022-1.524-0.065-1.873
    c-0.064-0.349-0.19-0.632-0.377-0.848c-0.151-0.208-0.374-0.412-0.667-0.613c-0.294-0.171-0.661-0.264-1.098-0.279
    c-0.438,0.015-0.804,0.108-1.098,0.279c-0.309,0.201-0.538,0.405-0.689,0.613c-0.187,0.216-0.305,0.498-0.355,0.848
    C177.888,37.216,177.859,37.841,177.859,38.74z"/>
  <path d="M186.868,38.721c0-1.217,0.097-2.152,0.291-2.806c0.201-0.638,0.509-1.176,0.926-1.614
    c0.308-0.383,0.739-0.726,1.292-1.028c0.546-0.287,1.245-0.438,2.099-0.453c0.883,0.015,1.597,0.167,2.142,0.456
    c0.538,0.304,0.955,0.648,1.249,1.034c0.444,0.437,0.758,0.974,0.944,1.611c0.179,0.652,0.268,1.586,0.268,2.801
    c0,1.215-0.09,2.141-0.269,2.778c-0.186,0.637-0.502,1.189-0.947,1.656c-0.144,0.171-0.319,0.337-0.527,0.5
    c-0.187,0.185-0.427,0.344-0.721,0.478c-0.545,0.319-1.259,0.485-2.141,0.5c-0.854-0.015-1.553-0.181-2.098-0.5
    c-0.552-0.289-0.983-0.615-1.291-0.978c-0.416-0.467-0.725-1.019-0.925-1.656C186.964,40.862,186.868,39.936,186.868,38.721z
     M193.835,38.743c0-0.825-0.036-1.427-0.108-1.806c-0.072-0.364-0.22-0.684-0.442-0.959c-0.165-0.26-0.41-0.464-0.733-0.613
    c-0.309-0.156-0.669-0.234-1.079-0.234c-0.381,0-0.734,0.078-1.057,0.234c-0.309,0.149-0.561,0.353-0.755,0.613
    c-0.194,0.275-0.335,0.595-0.421,0.959c-0.086,0.379-0.13,0.974-0.13,1.784c0,0.803,0.043,1.39,0.13,1.762
    c0.086,0.379,0.226,0.714,0.421,1.004c0.194,0.223,0.446,0.42,0.755,0.591c0.324,0.164,0.676,0.245,1.057,0.245
    c0.41,0,0.769-0.082,1.079-0.245c0.324-0.171,0.568-0.368,0.733-0.591c0.223-0.29,0.37-0.624,0.442-1.004
    C193.799,40.111,193.835,39.531,193.835,38.743z"/>
  <path d="M198.328,32.961h2.243v1.222h0.043c0.738-0.911,1.706-1.367,2.904-1.367c0.925,0,1.771,0.337,2.538,1.011
    c0.76,0.682,1.158,1.682,1.194,3v7.668h-2.243V37.62c0-0.809-0.208-1.424-0.625-1.847c-0.409-0.43-0.937-0.645-1.583-0.645
    s-1.177,0.215-1.593,0.645c-0.424,0.423-0.635,1.039-0.635,1.847v6.877h-2.243V32.961z"/>
  <path d="M155.97,32.965h2.281v1.244h0.048c0.752-0.927,1.738-1.39,2.957-1.39c0.913,0.015,1.709,0.315,2.388,0.901l-1.666,2.039
    c-0.482-0.393-0.983-0.589-1.502-0.589c-0.585,0-1.085,0.196-1.502,0.589c-0.468,0.385-0.709,1.008-0.724,1.868v7.074h-2.281
    V32.965z"/>
  <path d="M166.196,39.724c0,0.943,0.263,1.659,0.789,2.149c0.489,0.498,1.132,0.747,1.928,0.747c0.928,0,1.757-0.381,2.487-1.143
    l1.654,1.459c-1.16,1.281-2.525,1.913-4.094,1.898c-0.599,0-1.182-0.09-1.752-0.271c-0.285-0.098-0.562-0.23-0.832-0.396
    c-0.285-0.143-0.551-0.32-0.799-0.531c-0.482-0.437-0.872-1.047-1.171-1.831c-0.328-0.753-0.492-1.733-0.492-2.939
    c0-1.16,0.142-2.125,0.427-2.894c0.284-0.784,0.649-1.402,1.094-1.854c0.452-0.46,0.959-0.791,1.522-0.995
    c0.554-0.203,1.102-0.305,1.642-0.305c1.299,0.015,2.397,0.456,3.294,1.323c0.912,0.882,1.375,2.096,1.39,3.641v1.942H166.196z
     M171.003,37.782c-0.029-0.916-0.267-1.609-0.713-2.079c-0.439-0.447-1.002-0.67-1.69-0.67c-0.688,0-1.251,0.223-1.69,0.67
    c-0.431,0.469-0.669,1.162-0.713,2.079H171.003z"/>
</svg>
