<svg xmlns="http://www.w3.org/2000/svg" viewBox="0 0 215 67">
  <path d="M101.1,18.8c0-0.1-0.1-0.1-0.1-0.2c-0.1-0.1-0.3,0-0.5-0.1c-0.1,0-0.2-0.1-0.2-0.2c0-1,0-1.9,0-2.9
		c0.1-0.1,0.1-0.1,0.2-0.2c1.1-0.1,2.1,0,3.2,0c0.4,0,0.8-0.1,1.1,0c0.1,0.1,0.2,0.3,0.2,0.5c0,1.7,0,3.5,0,5.2c0,0.5,0,0.5,0.5,0.5
		c1.6,0,3.1,0,4.7,0c0.2,0,0.4,0,0.5-0.2c0.1-0.1,0-0.3,0-0.4c0-1.7,0-3.4,0-5c0-0.1,0-0.3,0-0.4c0-0.1,0.1-0.1,0.2-0.2
		c1-0.1,2,0,3,0c0.4,0,0.9,0,1.3,0c0.2,0.1,0.2,0.3,0.2,0.5c0,0.8,0,1.5,0,2.3c0,0.2-0.1,0.4-0.2,0.5c-0.2,0.1-0.3,0-0.5,0.1
		c-0.2,0-0.2,0.1-0.2,0.3c0,3.3,0,6.5,0,9.8c0,0.3,0.1,0.4,0.4,0.4c0.5,0,0.6,0.1,0.6,0.6c0,0.7,0,1.4,0,2.2c0,0.4-0.2,0.5-0.5,0.5
		c-1.3,0-2.6,0-3.8,0c-0.2,0-0.3,0-0.3-0.2c0-2.1,0-4.1,0-6.2c0-0.3,0-0.6,0-0.8c0-0.1-0.1-0.2-0.2-0.2c-0.1-0.1-0.2,0-0.3,0
		c-1.5,0-3,0-4.5,0c-0.1,0-0.2,0-0.3,0c-0.3,0.1-0.2,0.3-0.2,0.5c0,2.1,0,4.2,0,6.4c0,0.5-0.1,0.6-0.6,0.6c-1.2,0-2.5,0-3.7,0
		c-0.2,0-0.3,0-0.4-0.2c0-0.9,0-1.9,0-2.8c0-0.2,0.2-0.2,0.4-0.2c0.2,0,0.4,0,0.5-0.2c0.1-0.1,0-0.2,0-0.3c0-3.1,0-6.3,0-9.4
		C101.1,19,101.2,18.9,101.1,18.8z"/>
	<path d="M124.5,15.3c0.1,0.1,0.1,0.1,0.2,0.2c0,0.1,0,0.3,0,0.4c0,4,0,8,0,12c0,0.2,0,0.3,0,0.5c0,0.5,0.2,0.6,0.7,0.7
		c0.7,0.1,1.5,0,2.2,0c0.7,0,1.4,0,2.1,0c0.5-0.1,0.7-0.3,0.7-1c0-4,0-8.1,0-12.1c0-0.2-0.1-0.4,0.1-0.5c1.4,0,2.9,0,4.3,0
		c0.1,0.1,0.1,0.1,0.2,0.2c0,1,0.1,1.9,0,2.9c-0.1,0.1-0.1,0.1-0.2,0.2c-0.2,0.1-0.3,0-0.5,0.1c-0.1,0-0.1,0.1-0.1,0.2
		c-0.1,0.1,0,0.3,0,0.4c0,3.4,0,6.8,0,10.2c0,0.1,0,0.3,0,0.4c-0.1,0.2-0.2,0.4-0.4,0.6c-0.5,0.5-1.1,1-1.6,1.6
		c-0.2,0.2-0.5,0.4-0.8,0.4c-2.6,0-5.2,0-7.7,0c-0.3,0-0.5-0.1-0.7-0.3c-0.6-0.6-1.2-1.2-1.7-1.8c-0.1-0.2-0.2-0.3-0.2-0.5
		c0-3.5,0-7,0-10.4c0-0.2,0-0.4-0.2-0.6c-0.2-0.1-0.3,0-0.5-0.1c-0.2,0-0.2-0.2-0.2-0.3c0-0.9,0-1.7,0-2.6c0-0.2,0-0.3,0.2-0.3
		C121.7,15.3,123.1,15.3,124.5,15.3z"/>
	<path d="M61,29.1c0.1,0.1,0.2,0.3,0.2,0.4c0,0.7,0,1.5,0,2.2c0,0.4-0.2,0.5-0.5,0.5c-4.1,0-8.1,0-12.2,0c-0.3,0-0.5-0.1-0.5-0.5
		c0-0.8,0-1.6,0-2.4c0-0.3,0.1-0.4,0.4-0.4c0.4,0,0.5-0.1,0.5-0.5c0-3.1,0-6.2,0-9.3c0-0.2,0-0.4-0.2-0.5c-0.2-0.1-0.3,0-0.5-0.1
		c-0.2,0-0.2-0.2-0.2-0.4c0-0.8,0-1.7,0-2.5c0-0.2,0-0.3,0.2-0.4c0.1,0,0.2,0,0.3,0c3.8,0,7.6,0,11.4,0c0.1,0,0.3,0,0.4,0
		c0.1,0.1,0.1,0.1,0.2,0.2c0,0.9,0,1.8,0,2.7c-0.1,0.1-0.2,0.2-0.2,0.2c-0.4,0-0.9,0-1.3,0c-1.9,0-3.8,0-5.7,0c-0.1,0-0.3,0-0.4,0
		c-0.2,0-0.2,0.2-0.2,0.3c0,0.9,0,1.7,0,2.6c0,0.2,0,0.3,0.2,0.4c0.1,0.1,0.3,0,0.4,0c2,0,3.9,0,5.9,0c0.1,0,0.3,0,0.4,0
		c0,0.1,0.1,0.1,0.1,0.2c0.1,0.4,0,0.7,0,1.1c0,0.6,0,1.1,0,1.7c-0.1,0.2-0.3,0.2-0.5,0.2c-2,0-4,0-6,0c-0.6,0-0.6,0-0.6,0.6
		c0,1,0,1.9,0,2.9c0,0.2,0,0.4,0.3,0.4c0.1,0.1,0.3,0,0.4,0c2.4,0,4.8,0,7.2,0C60.7,29.1,60.8,29.1,61,29.1z"/>
	<path d="M169.1,22c0.1,0.1,0.1,0.1,0.2,0.2c0,0.9,0,1.8,0,2.7c-0.1,0.3-0.3,0.3-0.6,0.3c-2,0-4,0-5.9,0c-0.6,0-0.6,0-0.6,0.6
		c0,1,0,1.9,0,2.9c0,0.2,0,0.4,0.3,0.4c0.1,0.1,0.3,0,0.4,0c2.4,0,4.8,0,7.3,0c0.1,0,0.3,0,0.4,0c0.1,0.1,0.2,0.3,0.2,0.4
		c0,0.7,0,1.5,0,2.2c0,0.4-0.1,0.5-0.6,0.5c-2.2,0-4.4,0-6.6,0c-1.8,0-3.6,0-5.4,0c-0.5,0-0.6,0-0.6-0.6c0-0.8,0-1.5,0-2.3
		c0-0.3,0.1-0.4,0.4-0.4c0.4,0,0.5-0.2,0.5-0.6c0-2.8,0-5.6,0-8.4c0-0.3,0-0.7,0-1c0-0.2-0.1-0.3-0.2-0.5c-0.2-0.1-0.3,0-0.5-0.1
		c-0.2,0-0.2-0.1-0.2-0.3c0-0.9,0-1.8,0-2.7c0-0.1,0-0.2,0.2-0.3c0.1,0,0.2,0,0.3,0c3.8,0,7.7,0,11.5,0c0.1,0,0.3,0,0.4,0
		c0.1,0.1,0.2,0.3,0.2,0.4c0,0.8,0,1.5,0,2.3c0,0.2-0.1,0.4-0.2,0.5c-0.1,0-0.3,0-0.5,0c-2.2,0-4.4,0-6.6,0c-0.1,0-0.3,0-0.4,0
		c-0.2,0-0.2,0.1-0.2,0.3c0,0.9,0,1.8,0,2.6c0,0.2,0,0.3,0.2,0.4c0.1,0.1,0.3,0,0.4,0c2,0,3.9,0,5.9,0C168.8,21.9,169,21.9,169.1,22
		z"/>
	<path d="M69.7,21.3c0.1,0.4,0.3,0.6,0.8,0.6c1.8,0,3.6,0,5.4,0c0.4,0,0.7,0.1,0.9,0.4c0.5,0.5,1,1.1,1.6,1.6
		c0.3,0.3,0.4,0.6,0.4,0.9c0,1.5,0,3,0,4.6c0,0.4-0.1,0.8-0.5,1.1c-0.5,0.5-1,1-1.6,1.6c-0.2,0.2-0.4,0.3-0.7,0.3
		c-3.2,0-6.4,0-9.6,0c-0.2,0-0.3-0.1-0.3-0.3c0-0.9,0-1.8,0-2.7c0-0.1,0-0.2,0.1-0.2c0.1,0,0.3,0,0.4,0c2.4,0,4.9,0,7.3,0
		c0.1,0,0.3,0,0.4,0c0.4-0.1,0.7-0.3,0.7-0.7c0-0.8,0-1.5,0-2.3c0-0.4-0.2-0.6-0.5-0.8c-0.1-0.1-0.3,0-0.4,0c-1.7,0-3.4,0-5.1,0
		c-0.1,0-0.3,0-0.4,0c-0.2,0-0.4-0.1-0.5-0.3c-0.5-0.6-1.1-1.1-1.6-1.6c-0.2-0.2-0.4-0.5-0.4-0.9c0-1.5,0-2.9,0-4.4
		c0-0.3,0.1-0.6,0.3-0.8c0.4-0.4,0.8-0.8,1.2-1.2c0.2-0.2,0.3-0.4,0.5-0.6c0.1-0.1,0.2-0.1,0.3-0.1c0.1,0,0.1,0,0.2,0
		c2.9,0,5.8,0,8.7,0c0.1,0,0.2,0,0.2,0c0.1,0.1,0.1,0.1,0.2,0.2c0,1,0.1,1.9,0,2.9c-0.1,0.1-0.1,0.1-0.2,0.2c-1.1,0-2.2,0-3.3,0
		c-1.2,0-2.3,0-3.5,0c-0.1,0-0.3,0-0.4,0c-0.3,0-0.5,0.2-0.5,0.5C69.6,19.9,69.7,20.6,69.7,21.3z"/>
	<path d="M188.2,29.9c-0.6,0.8-1.4,1.5-2.1,2.2c-0.2,0.1-0.4,0.2-0.6,0.2c-3.1,0-6.3,0-9.4,0c-0.5,0-0.6,0-0.6-0.6
		c0-0.7,0-1.5,0-2.2c0-0.1,0-0.3,0.1-0.4c0.1,0,0.3,0,0.4,0c2.4,0,4.9,0,7.3,0c0.1,0,0.3,0,0.4,0c0.5-0.1,0.7-0.3,0.7-0.8
		c0-0.7,0-1.5,0-2.2c0-0.4-0.2-0.6-0.5-0.8c-0.1-0.1-0.3,0-0.4,0c-1.7,0-3.4,0-5.1,0c-0.1,0-0.3,0-0.4,0c-0.4,0-0.5-0.3-0.7-0.5
		c-0.5-0.5-1-1-1.5-1.4c-0.2-0.2-0.3-0.5-0.3-0.8c0-1.5,0-3,0-4.4c0-0.3,0.1-0.5,0.3-0.7c0.5-0.5,1.1-1,1.6-1.6
		c0.1-0.2,0.3-0.3,0.6-0.3c0.1,0,0.3,0,0.4,0c2.8,0,5.5,0,8.3,0c0.1,0,0.3,0,0.4,0c0,0.1,0.1,0.1,0.1,0.2c0.1,0.4,0,0.7,0,1.1
		c0,0.6,0,1.1,0,1.7c-0.1,0.1-0.2,0.2-0.2,0.2c-0.6,0-1.3,0-1.9,0c-1.6,0-3.2,0-4.8,0c-0.1,0-0.3,0-0.4,0c-0.3,0-0.5,0.2-0.5,0.5
		c0,0.7-0.1,1.5,0,2.2c0.1,0.4,0.3,0.5,0.8,0.5c1.8,0,3.5,0,5.3,0c0.4,0,0.7,0.1,1,0.4c0.5,0.5,1,1,1.5,1.5c0.1,0.1,0.2,0.3,0.3,0.4
		c0.1,0.2,0,0.4,0,0.6C188.2,26.6,188.3,28.2,188.2,29.9z"/>
	<path d="M92.4,19.5c-0.1,0-0.2-0.1-0.2-0.2c-0.1-0.2,0-0.3-0.1-0.5c0,0-0.1-0.1-0.1-0.1c-0.5-0.1-1,0-1.5,0c-0.9,0-1.8,0-2.7,0
		c-0.4,0-0.6,0.3-0.6,0.7c0,3,0,6.1,0,9.1c0,0.4,0.3,0.6,0.7,0.7c0.3,0.1,0.5,0,0.8,0c1,0,1.9,0,2.9,0c0.1,0,0.3,0,0.4,0
		c0.1-0.1,0.2,0,0.2-0.2c0.1-0.1,0-0.3,0.1-0.5c0-0.2,0.1-0.3,0.4-0.3c0.8,0,1.6,0,2.4,0c0.2,0,0.3,0.1,0.4,0.2c0,0,0,0.1,0,0.1
		c0,1.2,0,2.5,0,3.7c-0.1,0.2-0.3,0.2-0.5,0.2c-2.9,0-5.8,0-8.8,0c-0.2,0-0.5-0.1-0.6-0.2c-0.6-0.6-1.2-1.2-1.8-1.8
		c-0.1-0.1-0.2-0.3-0.2-0.5c0-0.1,0-0.2,0-0.3c0-3.8,0-7.5,0-11.3c0-0.1,0-0.2,0-0.3c0-0.3,0.2-0.5,0.4-0.7c0.5-0.5,1-1,1.5-1.5
		c0.1-0.2,0.3-0.3,0.6-0.3c3.1,0,6.2,0,9.3,0c0.1,0,0,0,0,0c0.1,0.1,0.1,0.1,0.2,0.2c0,1.3,0,2.5,0,3.8c-0.1,0.1-0.2,0.1-0.2,0.2
		C94.3,19.5,93.3,19.5,92.4,19.5z"/>
	<path d="M139.7,19.5c-0.2,0-0.2-0.2-0.2-0.4c0-1.2,0-2.3,0-3.5c0-0.2,0.1-0.3,0.2-0.3c0.1,0,0.2,0,0.3,0c4.2,0,8.3,0,12.5,0
		c0.1,0,0.3,0,0.4,0c0.1,0.1,0.2,0.3,0.2,0.4c0,1.1,0,2.1,0,3.2c0,0.2-0.1,0.4-0.2,0.5c-0.9,0-1.9,0-2.8,0c-0.1-0.1-0.1-0.1-0.2-0.2
		c-0.1-0.2,0-0.3-0.1-0.5c-0.1-0.1-0.1-0.1-0.2-0.2c-0.4-0.1-0.8-0.1-1.3,0c-0.1,0-0.2,0.1-0.2,0.2c-0.1,0.1,0,0.2,0,0.3
		c0,3.1,0,6.2,0,9.3c0,0.1,0,0.2,0,0.3c0,0.3,0.2,0.3,0.3,0.3c0.5,0,0.6,0.1,0.6,0.6c0,0.7,0,1.4,0,2.1c0,0.4-0.1,0.5-0.5,0.5
		c-1.6,0-3.1,0-4.7,0c-0.3,0-0.4-0.1-0.4-0.4c0-0.8,0-1.6,0-2.4c0-0.3,0.1-0.5,0.4-0.4c0.4,0,0.5-0.2,0.5-0.5c0-3.2,0-6.3,0-9.5
		c0-0.2-0.1-0.3-0.2-0.5c-0.4,0-0.9,0-1.3,0c-0.2,0-0.2,0.2-0.2,0.4c0,0.2,0,0.4-0.2,0.5C141.6,19.5,140.6,19.5,139.7,19.5z"/>
	<path d="M109.8,52.1c-0.4-0.1-0.3-0.5-0.4-0.8c-0.3-0.9-0.6-1.9-0.9-2.9c-0.2-0.8-0.5-1.5-0.7-2.3c-0.3,0.3-0.3,0.6-0.4,1
		c-0.5,1.5-0.9,3-1.4,4.6c-0.1,0.2-0.1,0.3-0.3,0.4c-0.6,0-1.2,0-1.7,0c-0.4-0.4-0.4-0.9-0.5-1.3c-0.3-0.9-0.5-1.8-0.8-2.7
		c-0.2-0.9-0.5-1.8-0.7-2.7c-0.2-0.9-0.5-1.7-0.7-2.6c0-0.2-0.2-0.4,0.1-0.5c0.6,0,1.3,0,1.9,0c0.4,0.2,0.4,0.6,0.4,0.9
		c0.4,1.6,0.7,3.1,1.1,4.7c0,0.1,0,0.3,0.1,0.3c0.2,0,0.2-0.2,0.2-0.3c0.5-1.8,1.1-3.5,1.7-5.2c0.1-0.2,0.2-0.3,0.4-0.3
		c0.4,0,0.8,0,1.1,0c0.2,0.1,0.3,0.2,0.4,0.5c0.6,1.8,1.1,3.5,1.7,5.3c0,0.1,0,0.1,0.1,0.2c0.2-0.5,0.3-1.1,0.4-1.6
		c0.3-1.3,0.6-2.6,0.9-4c0-0.2,0.1-0.3,0.4-0.4c0.6,0,1.2,0,1.8,0c0.2,0.1,0.2,0.2,0.1,0.4c-0.6,2-1.1,4.1-1.7,6.1
		c-0.3,1-0.5,1.9-0.8,2.9c-0.1,0.2-0.2,0.4-0.3,0.5C111,52.1,110.4,52.1,109.8,52.1z"/>
	<path d="M118,44.3c-0.1-0.2-0.4-0.1-0.5-0.4c0-0.5,0-1,0-1.4c0-0.1,0.1-0.2,0.2-0.2c0.2,0,0.5,0,0.8,0c2.1,0,4.1,0,6.2,0
		c0.1,0.1,0.2,0.1,0.3,0.2c0,0.5,0.1,1.1,0,1.6c-0.1,0.1-0.3,0.1-0.5,0.1c-1.2,0-2.4,0-3.6,0c-0.5,0-0.5,0-0.5,0.5
		c0,0.4,0,0.7,0,1.1c0,0.1,0,0.3,0.2,0.3c0.2,0.1,0.4,0,0.7,0c1,0,2,0,3,0c0.1,0.1,0.2,0.2,0.2,0.2c0,0.5,0,1,0,1.4
		c-0.1,0.1-0.1,0.1-0.2,0.2c-1.1,0-2.2,0-3.3,0c-0.1,0-0.3,0-0.4,0c-0.2,0-0.3,0.1-0.3,0.3c0,0.5,0,1.1,0,1.6c0,0.2,0,0.3,0.2,0.3
		c0.5,0.1,1,0,1.5,0c0.9,0,1.8,0,2.7,0c0.1,0,0.3,0,0.4,0c0.1,0.1,0.1,0.1,0.2,0.2c0,0.5,0,0.9,0,1.4c-0.1,0.1-0.1,0.2-0.2,0.2
		c0,0,0,0-0.1,0c-2.4,0-4.9,0-7.3,0c-0.1,0-0.1-0.2-0.2-0.3c0-0.5,0-0.9,0-1.4c0-0.3,0.4-0.2,0.5-0.4c0-0.1,0-0.1,0-0.2
		c0-1.8,0-3.6,0-5.4C118,44.4,118,44.3,118,44.3z"/>
	<path d="M98.1,43.9c-0.1,0.2-0.3,0.2-0.5,0.2c-1.2,0-2.4,0-3.6,0c-0.2,0-0.4-0.1-0.4,0.2c-0.1,0.5-0.1,1,0,1.6
		c0,0.1,0.1,0.1,0.1,0.1c0.4,0.1,0.9,0,1.4,0c0.8,0,1.6,0,2.4,0c0.2,0.1,0.2,0.2,0.2,0.4c0,0.3,0,0.7,0,1c0,0.2-0.1,0.3-0.1,0.4
		c-0.1,0.1-0.3,0-0.4,0c-1,0-2,0-3,0c-0.1,0-0.3,0-0.4,0c-0.1,0-0.2,0.1-0.2,0.2c0,0.6-0.1,1.2,0,1.9c0,0.1,0.1,0.1,0.2,0.2
		c0.1,0.1,0.3,0,0.4,0c1.4,0,2.8,0,4.2,0c0.1,0.1,0.2,0.2,0.2,0.4c0,0.4,0,0.8,0,1.1c0,0.1-0.1,0.2-0.1,0.3c-0.1,0.1-0.2,0-0.3,0
		c-2.3,0-4.7,0-7,0c-0.1,0-0.1,0-0.2,0c0,0-0.1-0.1-0.1-0.1c0-0.6,0-1.1,0-1.7c0.2-0.1,0.4-0.1,0.5-0.4c0.1-0.1,0-0.2,0-0.3
		c0-1.7,0-3.4,0-5.1c0-0.1,0-0.2,0-0.3c-0.1-0.2-0.4-0.2-0.5-0.4c0-0.5,0-1.1,0-1.6c0-0.1,0.1-0.2,0.2-0.2c0.1,0,0.3,0,0.4,0
		c2,0,4.1,0,6.1,0c0.1,0,0.3,0,0.4,0c0.1,0.1,0.2,0.2,0.2,0.2C98.2,42.9,98.2,43.4,98.1,43.9z"/>
	<path d="M145,51.8c-0.1,0.1-0.1,0.2-0.2,0.2c-0.6,0-1.3,0-1.9,0c-0.2-0.1-0.1-0.3-0.1-0.4c0-1-0.1-2,0-3c0.1-0.9-0.3-1.5-0.8-2.2
		c-0.8-1.3-1.6-2.6-2.4-3.9c-0.1-0.1-0.2-0.3,0-0.4c0.7,0,1.4,0,2.1,0c0.3,0.1,0.5,0.4,0.6,0.7c0.4,0.7,0.8,1.3,1.2,2
		c0.2,0.2,0.3,0.3,0.5,0c0.5-0.8,1-1.5,1.4-2.3c0.1-0.2,0.3-0.3,0.4-0.3c0.7,0,1.4,0,2.1,0c0.2,0.1,0.1,0.2,0,0.4
		c-0.9,1.5-1.9,2.9-2.8,4.4c-0.1,0.2-0.3,0.4-0.3,0.7c-0.1,0.5,0,0.9,0,1.4C145,50,145,50.9,145,51.8z"/>
	<path d="M43.2,19.3c0-0.3-0.1-0.6-0.4-0.9c-0.8-0.8-1.5-1.6-2.3-2.4c-0.3-0.3-0.5-0.6-0.9-0.7c-0.1,0-0.1,0-0.2,0
		c-3.6,0-7.1,0-10.7,0c-0.1,0-0.2,0-0.3,0c-0.1,0.1-0.1,0.1-0.2,0.2c0,1,0,1.9,0,2.9c0,0.1,0.1,0.2,0.2,0.2c0.2,0.1,0.3,0,0.5,0.1
		c0.1,0,0.1,0.1,0.1,0.2c0.1,0.1,0,0.2,0,0.3c0,3.1,0,6.3,0,9.4c0,0.1,0,0.2,0,0.3C29,29,28.9,29.1,28.7,29c-0.2,0-0.4,0-0.4,0.2
		c0,0.9,0,1.9,0,2.8c0,0.2,0.2,0.2,0.4,0.2c3.5,0,7.1,0,10.6,0c0.3,0,0.5-0.1,0.7-0.3c1-1,1.9-2,2.9-3c0.2-0.2,0.2-0.4,0.2-0.7
		C43.2,25.3,43.2,22.3,43.2,19.3z M39,28c-1.2,1.2-0.7,1.1-2.5,1.1c-1,0-2.1,0-3.1,0c-0.5,0-0.5-0.1-0.5-0.5c0-1.6,0-3.2,0-4.7
		c0-1.6,0-3.1,0-4.7c0-0.5,0.1-0.5,0.5-0.5c1.4,0,2.7,0,4.1,0c0.3,0,0.6,0.1,0.8,0.3c1.3,1.3,1.1,0.8,1.1,2.6c0,1.8,0,3.6,0,5.5
		C39.4,27.4,39.3,27.7,39,28z"/>
	<path d="M74.5,48.1c-0.2-0.4-0.6-0.7-0.9-1c-0.2-0.2-0.2-0.4,0-0.7c0.3-0.2,0.5-0.5,0.6-0.8c0-0.6,0-1.2,0-1.8
		c-0.4-0.7-0.9-1.3-1.6-1.6c-1.4,0-2.7,0-4.1,0c-0.8,0-1.6,0-2.4,0c-0.2,0-0.2,0.1-0.2,0.3c0,0.5,0,0.9,0,1.4c0,0.1,0,0.2,0.2,0.3
		c0.3,0,0.3,0.3,0.3,0.5c0,1.7,0,3.5,0,5.2c0,0.2-0.1,0.3-0.2,0.4c-0.4,0.1-0.3,0.4-0.4,0.7c0,0.3,0,0.6,0,0.9c0,0.1,0,0.3,0.1,0.4
		c0.1,0,0.1,0,0.2,0c2.2,0,4.4,0,6.7,0c0.1,0,0.2,0,0.2,0c0.5-0.4,1-0.8,1.4-1.4C74.6,49.8,74.5,49,74.5,48.1z M68.7,44.4
		c0-0.3,0.1-0.4,0.4-0.4c0.7,0,1.5,0,2.2,0c0.4,0,0.5,0.1,0.6,0.5c0,0.3,0,0.7,0,1c0,0.4-0.1,0.6-0.6,0.6c-0.4,0-0.7,0-1.1,0
		c-0.4,0-0.7,0-1.1,0c-0.3,0-0.4-0.1-0.4-0.4C68.7,45.3,68.7,44.9,68.7,44.4z M72.2,49.7c0,0.3-0.2,0.5-0.5,0.5c-0.4,0-0.9,0-1.3,0
		c-0.4,0-0.8,0-1.3,0c-0.3,0-0.5-0.1-0.5-0.4c0-0.5,0-1,0-1.5c0-0.3,0.1-0.4,0.4-0.4c0.8,0,1.7,0,2.5,0c0.4,0,0.6,0.2,0.6,0.6
		C72.2,48.9,72.2,49.3,72.2,49.7z"/>
	<path d="M137.6,50.4c-0.1-0.1-0.1-0.1-0.2-0.2c-0.2-0.1-0.4,0-0.5-0.1c-0.3,0-0.4-0.2-0.5-0.4c-0.2-0.4-0.4-0.7-0.6-1.1
		c-0.1-0.2-0.1-0.4,0.1-0.6c0.3-0.3,0.5-0.6,0.8-0.8c0.2-0.2,0.3-0.5,0.3-0.8c0-0.8,0-1.6,0-2.4c0-0.2,0-0.4-0.2-0.6
		c-0.4-0.5-0.8-1-1.4-1.3c-1.3,0-2.6,0-3.9,0c-0.8,0-1.6,0-2.5,0c-0.2,0-0.2,0.1-0.2,0.3c0,0.5,0,0.9,0,1.4c0,0.1,0,0.3,0.2,0.3
		c0.3,0,0.3,0.2,0.3,0.5c0,1.7,0,3.5,0,5.2c0,0.2-0.1,0.4-0.2,0.4c-0.4,0.1-0.3,0.4-0.3,0.6c0,0.3,0,0.6,0,0.9c0,0.1,0,0.3,0.1,0.4
		c0.8,0,1.6,0,2.4,0c0.1-0.1,0.1-0.1,0.2-0.2c0.1-0.7,0-1.4,0-2.1c0-0.4,0-0.7,0-1.1c0-0.1,0.1-0.2,0.2-0.2c0.4-0.1,0.7-0.1,1.1,0
		c0.3,0.1,0.4,0.3,0.5,0.5c0.4,0.9,0.9,1.7,1.3,2.6c0.1,0.2,0.2,0.4,0.4,0.5c0.7,0,1.5,0,2.2,0c0.1-0.1,0.1-0.1,0.2-0.2
		C137.6,51.4,137.6,50.9,137.6,50.4z M134.8,46.1c0,0.4-0.1,0.5-0.6,0.5c-0.4,0-0.8,0-1.1,0c0,0,0,0,0,0c-0.4,0-0.8,0-1.1,0
		c-0.3,0-0.4-0.1-0.4-0.4c0-0.6,0-1.2,0-1.7c0-0.3,0.1-0.4,0.4-0.4c0.8,0,1.5,0,2.3,0c0.4,0,0.6,0.1,0.6,0.5
		C134.9,45.1,134.9,45.6,134.8,46.1z"/>
	<path d="M87,50.7c0-0.2,0-0.3-0.1-0.4c-0.2-0.1-0.4,0-0.6-0.1c-0.2,0-0.4-0.1-0.4-0.3c-0.2-0.4-0.4-0.8-0.6-1.2
		c-0.1-0.3-0.1-0.5,0.1-0.7c0.4-0.4,0.8-0.7,1.1-1.2c0-1.1,0-2.1,0-3.2c-0.4-0.6-0.9-1.1-1.5-1.5c-2.1,0-4.3,0-6.4,0c-0.1,0,0,0,0,0
		c-0.1,0.1-0.1,0.1-0.2,0.2c-0.1,0.5,0,1,0,1.5c0,0.3,0.4,0.2,0.5,0.4c0,0.1,0,0.1,0,0.2c0,1.8,0,3.5,0,5.3c0,0.1,0,0.2,0,0.2
		c0,0.3-0.4,0.1-0.5,0.4c0,0.5,0,1,0,1.5c0,0.1,0.1,0.1,0.1,0.2c0.4,0.1,0.9,0,1.3,0c0.4,0,0.8,0.1,1.2,0c0.1-0.1,0.1-0.3,0.1-0.5
		c0-0.9,0-1.8,0-2.7c0-0.2,0-0.4,0.3-0.4c0.3-0.1,0.7-0.1,1,0c0.2,0,0.4,0.2,0.5,0.4c0.5,1,1,1.9,1.4,2.9c0.1,0.1,0.1,0.3,0.3,0.3
		c0.8,0,1.5,0.1,2.3,0C87.2,51.6,87,51.1,87,50.7z M83.7,46.6c-0.4,0-0.8,0-1.1,0c0,0,0,0,0,0c-0.4,0-0.7,0-1.1,0
		c-0.3,0-0.4-0.1-0.4-0.4c0-0.6,0-1.2,0-1.7c0-0.3,0.1-0.4,0.4-0.4c0.8,0,1.5,0,2.3,0c0.4,0,0.6,0.2,0.6,0.6c0,0.5,0,1,0,1.5
		C84.3,46.4,84.1,46.6,83.7,46.6z"/>
</svg>
