<svg xmlns="http://www.w3.org/2000/svg" viewBox="0 0 215 67">
  <path d="M201.917,36.901c-0.067,5.52-4.39,6.851-6.053,0.998c1.53-2.063,2.594-5.588,3.06-8.514
    c2.395-0.399,4.59-0.333,7.184-0.066c0.466-2.93-3.836-2.946-7.118-2.594c0-0.998,0.477-7.813-2.128-8.448
    c-2.735-0.666-4.257,5.521-4.656,8.714c-2.062,0.133-4.856,0.399-5.787,0.2c-0.588-0.126-0.429,1.289,1.268,1.98
    c0.92,0.375,2.731,0.571,4.187,0.481c-0.2,3.193-0.189,5.928,0.532,9.179c-1.064,1.863-2.86,3.193-3.459,1.065
    c-0.41-2.393-0.532-5.521-0.665-8.115c-0.001-0.015-0.517-2.413-2.328-1.663c-1.252,0.518-2.702,6.468-2.794,6.253
    c-0.349-0.807-0.209-2.86-0.276-4.59c0.058-2.445-3.72-2.227-3.516,0.066c-0.23,6.011-1.52,7.905-3.592,9.446
    c-1.2,0.892-3.571,0.986-3.592-0.998c3.461-2.616,5.67-9.85,1.924-11.217c-4.45-1.624-8.013,6.406-5.915,11.483
    c-2.055,1.886-2.27,0.242-2.328,0.2c-1.115-3.008-0.732-7.649-1.53-10.377c-0.732-2.129-3.592-1.131-5.853,5.787
    c-0.599,0.266,0.772-6.587-2.86-5.454c-1.727,0.538-1.986,3.459-2.718,4.457c-0.798,0.665-0.203-2.617-0.541-4.257
    c-0.375-1.818-3.493-1.494-3.601-0.2c-0.084,10.799-2.225,9.96-2.718,8.847c-0.599-1.796-0.8-7.091-1.796-8.448
    c-0.572-0.779-1.264-1.197-2.528-0.798c-1.702,0.537-2.461,4.922-2.993,4.789c-0.798,0,0.127-3.594-0.599-4.789
    c-0.51-0.84-2.096-0.921-2.794-0.133c-0.957,1.082-0.133,6.719-0.598,8.98c-0.53,2.571-2.773,2.685-3.06,0.133
    c-0.229-2.033-0.059-5.449,0.466-7.65c0.384-1.612-2.509-2.328-3.307-0.998c-0.466,0.2-1.015,5.408-0.551,8.448
    c0.178,1.165-2.439,4.007-3.392,1.197c-0.408-2.021-0.18-3.725-0.048-5.721c-0.287-1.414-2.778-1.679-3.278,0.266
    c-0.083,1.983-0.238,2.418-0.067,5.188c0.087,1.529-2.557,3.376-3.459,0.666c-1.569-4.717,0.684-11.782,3.326-7.916
    c1.397,0.732,3.326-0.798,1.729-2.661c-5.355-3.991-11.325,3.244-8.448,11.906c-2.395,2.395-4.517-1.91-4.523-3.991
    c1.33-3.325,2.084-5.818,2.528-9.246c3.578-0.707,8.215-0.299,8.348-0.698c-0.466-3.326-5.089-2.162-8.015-1.896
    c-0.133-2.661,0.39-7.649-2.537-7.649c-2.927,0-3.924,5.587-4.324,8.381c-1.996,0.2-4.447,0.266-6.642,0.066
    c-0.973,0.145,0.297,1.863,1.502,2.123c1.155,0.402,3.378,0.237,4.95,0.205c-0.466,3.459,0.532,8.514,0.798,9.778
    c-0.887,2.327-3.064,3.91-3.725,0.798c-0.307-1.444-0.089-6.67-0.855-7.583c-0.504-0.84-1.46-1.769-3.959-2.253
    c-0.63-3.225-1.871-3.065-2.569-3.068c-2.337-0.011-3.259,4.723-0.466,5.654c0.2,2.727-2.418,13.252-6.984,8.98
    c1.067-1.144,5.161-7.634,2.461-11.042c-4.214-4.095-10.776,4.39-6.452,11.175c0.33,0.517-3.849,1.837-4.789-2.395
    c-0.328-1.478,2.11-3.217,2.642-10.334c3.392-0.466,10.521-0.251,10.321-0.849c-0.426-1.491-1.752-1.55-2.026-1.515
    c-2.81-0.223-5.887-0.151-8.21,0.15c0.133-3.459-0.128-7.947-1.796-8.738c-1.775-0.841-3.592,2.129-4.789,9.113
    c-2.854,0.272-6.59,0.059-8.448-0.133c-0.249,1.006,1.172,1.889,2.136,2.22c0.956,0.526,4.524,0.324,6.046,0.241
    c-0.133,3.126,0.034,6.889,0.865,9.845c-0.558,1.315-2.001,1.676-2.792,0.645c-0.791-1.495-1.266-3.729-1.921-7.962
    c-0.531-2.244-3.053-2.245-3.66-1.472c-0.442,0.189-1.472,2.469-1.937,3.866c-0.786,1.572-0.299-2.449-0.466-3.326
    c-0.266-1.397-3.175-1.462-3.193,0.399c-0.135,14.368-6.723,10.899-7.117,9.379c3.922-1.957,6.163-10.451,2.195-11.641
    c-4.997-1.498-8.448,6.186-6.851,10.843c-1.338,0.688-1.863,0.465-2.262,0.266c-0.8-0.4-0.598,2.794,3.126,1.996
    c4.59,5.388,9.227,2.66,10.69,0.266c-0.076,0.595-0.219,1.475-0.057,1.792c0.111,1.185,2.845,1.295,3.203,0.071
    c0.789-2.829,1.862-9.512,2.794-8.315c0.605,4.468,2.983,11.73,8.847,5.787c3.259,5.322,6.918,3.459,8.847,1.73
    c1.596,1.996,4.175,2.154,6.186,1.397c5.122-1.929,5.863-9.047,5.93-11.707c3.259-1.53-0.409,9.579,4.048,11.441
    c1.73,0.865,4.656-0.731,5.787-3.126c1.863,3.991,5.654,4.989,8.448,2.195c1.862,2.395,5.521,1.197,6.652-0.865
    c1.131,2.794,4.789,2.528,6.053-0.399c1.464,3.991,4.723,2.395,6.186,0.2c0.005,0.91,0.12,1.352,0.426,1.826
    c0.482,0.748,2.655,0.922,3.299-0.495c1.331-2.927,1.73-8.115,2.794-8.115c1.121,0.407,0.47,5.725,2.594,7.583
    c1.064,0.932,3.326,0.267,4.523-2.261c0.133,1.331-0.133,1.929,0.266,2.727s1.996,1.064,2.661,0.332
    c1.719-1.891,1.862-7.783,2.794-7.051c0.399,2.129-0.485,6.235,1.596,6.519c3.526,0.481,4.257-8.357,5.122-6.984
    c0.912,5.085,1.594,10.699,8.315,5.92c2.66,4.169,8.714,1.131,9.844-1.729c-0.066,1.33-0.115,2.847,0.466,3.525
    c0.798,0.932,2.695,0.797,3.193-0.2c0.535-1.07,1.992-7.931,2.727-6.186c0.133,1.863,0.865,10.643,7.783,3.06
    c1.129,2.094,2.941,4.288,5.587,4.191c3.304-0.122,4.976-3.947,4.989-7.716C203.85,35.961,201.85,36.036,201.917,36.901z
     M53.457,38.974c0,0-0.528-1.85,0.13-3.657c0.657-1.807,1.665-2.832,2.251-2.619c0.586,0.213,0.594,1.784-0.196,3.457
    C54.821,37.894,53.457,38.974,53.457,38.974z M79.679,22.98c0.585-0.099,0.614,1.772,0.488,4.042l-1.545,0.125
    C79.11,22.484,79.724,22.973,79.679,22.98z M78.681,35.287c-0.349-1.75-0.153-5.684-0.285-5.849l1.601-0.168
    C79.923,30.945,79.306,35.057,78.681,35.287z M86.402,35.091c0.468-1.959,1.122-3.036,1.732-2.906
    c0.61,0.13,1.074,0.869,0.342,3.148c-0.588,1.83-1.93,3.796-1.93,3.796S85.959,36.948,86.402,35.091z M110.343,22.714
    c0.452-0.033,0.605,1.373,0.346,3.843l-1.269,0.125C109.908,22.018,110.39,22.711,110.343,22.714z M109.4,34.09
    c-0.216-0.486-0.258-4.702-0.258-4.702l1.208-0.152C110.253,31.451,109.627,34.006,109.4,34.09z M171.155,38.249
    c0,0-0.262-1.451,0.462-3.657c0.599-1.826,1.133-2.898,1.719-2.685c0.586,0.213,0.328,1.717-0.329,3.524
    C172.349,37.237,171.155,38.249,171.155,38.249z M196.501,22.632c0.385,0.034,0.282,1.905,0.222,4.375l-1.412,0.125
    C195.8,22.468,196.548,22.636,196.501,22.632z M195.16,33.742c-0.216-0.485-0.113-2.104-0.027-4.209c0-0.007,0-0.015,0-0.015
    h0.001c0,0.005,0,0.01,0,0.015c0,0.014,0,0.032,0,0.032c0.001-0.031,0.001-0.057,0.003-0.089l1.335-0.025
    C196.263,30.992,195.784,33.512,195.16,33.742z"/>
  <path d="M130.411,27.612c1.172,0,2.122-0.986,2.122-2.285s-0.95-2.219-2.122-2.219s-2.122,0.92-2.122,2.219
    S129.239,27.612,130.411,27.612z"/>
  <path d="M203.156,43.462c0-1.236,0.973-2.219,2.203-2.219c1.23,0,2.202,0.984,2.202,2.219c0,1.235-0.973,2.219-2.202,2.219
		C204.129,45.681,203.156,44.697,203.156,43.462z M203.637,43.462c0,0.989,0.771,1.739,1.722,1.739c0.95,0,1.722-0.75,1.722-1.739
		c0-0.995-0.772-1.739-1.722-1.739C204.408,41.724,203.637,42.467,203.637,43.462z M206.381,44.603h-0.525l-0.537-0.917h-0.403
		v0.917h-0.481v-2.303h1.118c0.531,0,0.894,0.095,0.894,0.705c0,0.425-0.218,0.654-0.626,0.682L206.381,44.603z M205.565,43.272
		c0.257,0,0.414-0.056,0.414-0.308c0-0.251-0.308-0.251-0.531-0.251h-0.531v0.559H205.565z"/>
  <rect x="13.936" y="41.184" width="29.166" height="5.1"/>
	<circle cx="9.474" cy="27.398" r="1.913"/>
	<circle cx="22.011" cy="26.203" r="1.913"/>
	<circle cx="34.549" cy="26.203" r="1.913"/>
	<circle cx="47.087" cy="27.398" r="1.913"/>
	<path d="M9.474,27.398l4.463,11.714h29.166l3.984-11.714c-10.2,13.972-12.538-1.195-12.538-1.195
    c-5.95,16.257-12.538,0-12.538,0C19.302,42.565,9.474,27.398,9.474,27.398z"/>
</svg>
