<svg xmlns="http://www.w3.org/2000/svg" viewBox="0 0 215 67">
  <path d="M27.5,17.11h4.413V31.91h6.47V17.11h4.413v32.974h-4.413V35.669h-6.47v14.414H27.5V17.11z"/>
	<path d="M66.682,17.11h4.328v23.299c0,2.378,0.212,3.958,0.636,4.741c0.438,0.783,1.301,1.174,2.588,1.174s2.135-0.342,2.546-1.026
		c0.424-0.698,0.636-2.114,0.636-4.25V17.11h4.328v23.94c0,3.588-0.545,6.015-1.634,7.282c-1.302,1.438-3.288,2.157-5.962,2.157
		c-2.942,0-5.014-0.925-6.216-2.776c-0.834-1.266-1.252-3.702-1.252-7.304V17.11H66.682z"/>
	<path d="M84.822,17.11h14.362v3.886h-4.943v29.086h-4.328V20.996h-5.091V17.11z"/>
	<path d="M102.262,17.11h11.732v3.758h-7.319v10.823h6.491v3.758h-6.491v10.874h7.319v3.758h-11.732V17.11z"/>
	<path d="M118.806,17.11h4.413v29.215h7.213v3.758h-11.626C118.806,50.083,118.806,17.11,118.806,17.11z"/>
	<path d="M148.828,34.408c0,5.823-0.644,9.959-1.93,12.408c-1.287,2.449-3.444,3.673-6.47,3.673c-3.182,0-5.424-1.317-6.725-3.95
		c-1.287-2.577-1.93-7.154-1.93-13.732c0-5.866,0.637-10.016,1.91-12.45c1.287-2.449,3.465-3.674,6.534-3.674
		c2.743,0,4.78,0.947,6.11,2.841c0.877,1.267,1.514,3.068,1.91,5.403C148.63,27.09,148.828,30.25,148.828,34.408z M144.203,34.878
		c0-5.709-0.254-9.496-0.764-11.362c-0.51-1.879-1.549-2.819-3.118-2.819c-1.57,0-2.617,0.862-3.139,2.584
		c-0.51,1.737-0.764,5.226-0.764,10.465c0,4.826,0.268,8.172,0.806,10.038c0.552,1.766,1.584,2.648,3.097,2.648
		c1.486,0,2.503-0.826,3.055-2.477C143.927,42.317,144.203,39.291,144.203,34.878z"/>
	<path d="M168.076,34.386c0,5.823-0.644,9.959-1.93,12.408c-1.287,2.449-3.444,3.673-6.47,3.673c-3.182,0-5.424-1.317-6.725-3.95
		c-1.287-2.577-1.93-7.154-1.93-13.732c0-5.866,0.637-10.016,1.91-12.45c1.287-2.449,3.465-3.674,6.534-3.674
		c2.743,0,4.78,0.947,6.11,2.841c0.877,1.267,1.514,3.068,1.91,5.403C167.878,27.069,168.076,30.23,168.076,34.386z M163.451,34.856
		c0-5.709-0.254-9.496-0.764-11.362c-0.51-1.879-1.549-2.819-3.118-2.819c-1.57,0-2.617,0.862-3.139,2.584
		c-0.51,1.737-0.764,5.226-0.764,10.465c0,4.826,0.268,8.172,0.806,10.038c0.552,1.766,1.584,2.648,3.097,2.648
		c1.486,0,2.503-0.826,3.055-2.477C163.175,42.295,163.451,39.27,163.451,34.856z"/>
	<path d="M174.91,50.09h-4.185V16.994h4.185V50.09z M187.5,50.09h-2.092h-2.092l-7.228-16.928l7.228-16.167h2.092h2.092
		l-7.228,16.167L187.5,50.09z"/>
	<path d="M55.729,16.511l-9.902,33.572h3.994l1.756-6.277h7.953l1.608,6.277h3.787L55.729,16.511z M52.589,40.192l3.14-11.222
		l2.875,11.222H52.589z"/>
</svg>
