<svg xmlns="http://www.w3.org/2000/svg" viewBox="0 0 215 67">
<g>
	<path d="M34.40344,31.90755h-6.08389v-0.62463h1.67236c0.25513,0,0.46303-0.04721,0.46303-0.23425V17.88039
		c-1.39181,0-4.43512-0.02179-4.94536,1.13851c-0.06991,0.13709-0.13891,0.29961-0.30143,0.29961
		c-0.11622,0-0.23334-0.04448-0.23334-0.18431c0-0.1153,0.04721-0.34681,0.62737-1.97379h11.21719
		c0.58196,1.62698,0.62827,1.85848,0.62827,1.97379c0,0.13982-0.11622,0.18431-0.23334,0.18431
		c-0.1616,0-0.23242-0.16252-0.30234-0.29961c-0.51024-1.16031-3.55354-1.13851-4.94536-1.13851v10.00877
		c0,3.32203,0.25511,3.39376,0.76537,3.39376h1.67146V31.90755z"/>
	<path d="M40.50692,20.68837c0-2.34512-0.06173-2.75912-0.5756-2.75912h-1.21387v-0.55382h5.43201
		c2.67559,0,4.0538,1.666,4.0538,3.39466c0,2.01555-1.46173,3.1704-3.33383,3.51904c2.03643,2.92075,3.53902,4.8346,4.19725,5.37028
		c0.28871,0.22606,0.51479,0.22606,1.17301,0.22606v0.55382h-2.11905c-0.43216,0-0.55654-0.16252-4.58856-5.90411h-1.68688v2.34512
		c0,2.94344,0.22515,3.00517,0.6782,3.00517h1.15213v0.55382H39.2522v-0.55382h0.84435c0.22607,0,0.41037-0.04176,0.41037-0.2061
		V20.68837z M41.84519,23.97953h1.15213c1.83033,0,3.8695-0.61555,3.8695-2.85809c0-0.82438-0.39312-3.0669-3.3756-3.0669h-0.8852
		c-0.39041,0-0.76082,0-0.76082,0.20337V23.97953z"/>
	<path d="M51.3665,17.37577h9.67102l-0.20518,1.41906c-0.04085,0.24695-0.04085,0.35045-0.18612,0.35045
		c-0.16433,0-0.18431-0.12348-0.20518-0.24604c-0.04085-0.33048-0.28872-0.45305-0.61738-0.55655
		c-0.86341-0.26873-2.09816-0.28871-3.04421-0.28871h-1.52346c-0.39131,0-0.76082,0-0.76082,0.20427v4.69208h1.95562
		c2.94071,0,3.06419-0.22608,3.06419-0.67822v-0.82256h0.51479v3.41463h-0.51479v-0.75991c0-0.47484,0-0.53658-2.40686-0.53658
		h-2.61295v3.31295c0,2.87898,0.14344,2.87898,0.84253,2.87898h1.31646c1.00959,0,4.0756,0,4.48598-1.00506
		c0.04176-0.10623,0.08352-0.2061,0.22606-0.2061c0.08352,0,0.14527,0.06174,0.14527,0.14255
		c0,0.12529-0.24695,0.88702-0.51388,1.74862h-9.09541v-0.55474h0.84345c0.22606,0,0.41037-0.04175,0.41037-0.20609v-8.9901
		c0-2.34603-0.06173-2.76003-0.5747-2.76003H51.3665V17.37577z"/>
	<path d="M66.44411,25.44208c-0.71906,1.78766-1.23293,3.37469-1.23293,3.92761c0,0.16615,0.01997,0.51569,0.51387,0.51569h0.82256
		h0.51479v0.55382h-4.17728v-0.55382c0.96782,0,1.02866,0,1.1939-0.41037l5.20503-12.34663
		c0.45213-0.14254,0.92606-0.22608,1.07041-0.22608c0.08172,0,0.12347,0.06083,0.12347,0.14437
		c0,0.24604-0.34954,0.20427-0.34954,0.63643c0,0.82438,2.89986,9.0945,3.66159,10.90397
		c0.28871,0.68183,0.55654,1.2983,1.0096,1.2983h0.75991v0.55382h-4.2372v-0.55382h1.02776
		c0.35044,0,0.39039-0.04176,0.39039-0.2061c0-0.16523-0.82256-2.49129-1.45992-4.23719H66.44411z M69.11972,18.96052
		c-1.06953,2.46861-1.68781,3.95122-2.40778,5.80244h4.30075L69.11972,18.96052z"/>
	<path d="M84.14839,18.77295c0,0.12621-0.02089,0.24877-0.1843,0.24877c-0.16433,0-0.18613-0.12256-0.2061-0.28871
		c-0.12347-0.84345-1.83216-1.06951-2.44863-1.06951c-2.09908,0-2.94253,1.43994-2.94253,2.48857
		c0,3.58169,6.74847,2.16172,6.74847,6.68673c0,2.57211-2.38689,3.99117-4.8355,3.99117c-0.94604,0-2.20078-0.20428-3.08598-0.55293
		c-0.16433-1.00868-0.28781-1.68961-0.28781-1.83306c0-0.14435,0.08263-0.22516,0.20518-0.22516
		c0.20518,0,0.24786,0.207,0.26693,0.36861c0.24786,1.15303,2.28429,1.56342,3.23123,1.56342
		c1.74954,0,3.45731-0.90156,3.45731-2.67288c0-4.03292-6.68855-2.2852-6.68855-6.91553c0-2.09636,2.24252-3.57716,4.5477-3.57716
		c0.67912,0,1.56342,0.08081,2.22256,0.39041V18.77295z"/>
	<path d="M95.527,17.37577h3.76418v0.55292h-0.84254c-0.22607,0-0.41037,0.04177-0.41037,0.2061v7.49205
		c0,3.92941-2.80089,5.2032-5.35212,5.2032c-1.87119,0-4.77286-0.80168-4.77286-4.50413v-5.63719
		c0-2.34603-0.06174-2.76003-0.57471-2.76003H86.1238v-0.55292h4.42423v0.55292h-0.82257c-0.24694,0-0.47483,0-0.47483,0.2061
		v7.87973c0,3.56352,2.51218,4.03291,3.78689,4.03291c1.35913,0,4.31982-0.41037,4.31982-4.54316v-4.56949
		c0-2.94435-0.22517-3.00608-0.6773-3.00608H95.527V17.37577z"/>
	<path d="M102.83973,20.68837c0-2.34512-0.06264-2.75912-0.57652-2.75912h-1.21296v-0.55382h5.43109
		c2.67559,0,4.0529,1.666,4.0529,3.39466c0,2.01555-1.45992,3.1704-3.33385,3.51904c2.03735,2.92075,3.53993,4.8346,4.19817,5.37028
		c0.28687,0.22606,0.51385,0.22606,1.173,0.22606v0.55382h-2.11996c-0.43126,0-0.55473-0.16252-4.58856-5.90411h-1.68597v2.34512
		c0,2.94344,0.22514,3.00517,0.6782,3.00517h1.15213v0.55382H101.585v-0.55382h0.84254c0.22697,0,0.41219-0.04176,0.41219-0.2061
		V20.68837z M104.17709,23.97953h1.15213c1.83033,0,3.86859-0.61555,3.86859-2.85809c0-0.82438-0.3913-3.0669-3.3747-3.0669h-0.8852
		c-0.3904,0-0.76082,0-0.76082,0.20337V23.97953z"/>
	<path d="M113.2793,17.37577h9.67101l-0.207,1.41906c-0.04084,0.24695-0.04084,0.35045-0.18431,0.35045
		c-0.16525,0-0.1852-0.12348-0.20428-0.24604c-0.04266-0.33048-0.2887-0.45305-0.61646-0.55655
		c-0.86703-0.26873-2.09998-0.28871-3.04692-0.28871h-1.52348c-0.39131,0-0.76084,0-0.76084,0.20427v4.69208h1.95473
		c2.94253,0,3.0651-0.22608,3.0651-0.67822v-0.82256h0.51477v3.41463h-0.51477v-0.75991c0-0.47484,0-0.53658-2.40778-0.53658
		h-2.61206v3.31295c0,2.87898,0.14347,2.87898,0.84346,2.87898h1.31737c1.00779,0,4.07378,0,4.48415-1.00506
		c0.04267-0.10623,0.08445-0.2061,0.22789-0.2061c0.08353,0,0.14436,0.06174,0.14436,0.14255
		c0,0.12529-0.24696,0.88702-0.51477,1.74862h-9.09451v-0.55474h0.84252c0.22789,0,0.41219-0.04175,0.41219-0.20609v-8.9901
		c0-2.34603-0.06356-2.76003-0.57653-2.76003h-1.21384V17.37577z"/>
	<path d="M130.94193,24.41197c0-4.44419,3.62071-7.42667,7.90149-7.42667c1.15306,0,2.32516,0.24604,3.37291,0.65642
		l-0.10168,1.21386c-0.0209,0.30869-0.04179,0.43398-0.24696,0.43398c-0.14435,0-0.14435-0.08352-0.18523-0.43398
		c-0.06355-0.43125-1.33733-1.19209-3.10684-1.19209c-3.8468,0-6.23552,2.73644-6.23552,6.50243
		c0,3.66159,2.61478,5.98493,5.78336,5.98493c1.62425,0,3.82594-0.75992,3.9912-1.9738
		c0.02086-0.14344,0.04083-0.34954,0.22514-0.34954c0.18703,0,0.18703,0.1035,0.18703,0.24785c0,0.24605,0,0.51207-0.10349,1.70687
		c-1.44086,0.69909-3.08691,1.04772-4.69208,1.04772C133.72012,30.82997,130.94193,28.54841,130.94193,24.41197"/>
	<path d="M150.58521,16.98538c4.21541,0,6.39709,2.81813,6.39709,6.72849c0,3.80322-2.65379,7.11617-6.72757,7.11617
		c-4.21904,0-6.39984-2.81815-6.39984-6.72486C143.85489,20.29742,146.5087,16.98538,150.58521,16.98538 M150.21207,17.60002
		c-2.03645,0-5.01984,1.34098-5.01984,6.11385c0,4.6276,2.73735,6.50152,5.43201,6.50152c2.03915,0,5.02255-1.33734,5.02255-6.11021
		C155.64679,19.47395,152.91035,17.60002,150.21207,17.60002"/>
	<path d="M160.16795,25.44208c-0.71997,1.78766-1.23474,3.37469-1.23474,3.92761c0,0.16615,0.01997,0.51569,0.51477,0.51569h0.82349
		h0.51477v0.55382h-4.17546v-0.55382c0.966,0,1.02777,0,1.19026-0.41037l5.20595-12.34663
		c0.45213-0.14254,0.92697-0.22608,1.07042-0.22608c0.08261,0,0.12437,0.06083,0.12437,0.14437
		c0,0.24604-0.34953,0.20427-0.34953,0.63643c0,0.82438,2.89894,9.0945,3.66251,10.90397
		c0.28778,0.68183,0.55472,1.2983,1.00687,1.2983h0.76173v0.55382h-4.2372v-0.55382h1.02682
		c0.35046,0,0.39223-0.04176,0.39223-0.2061c0-0.16523-0.82257-2.49129-1.46173-4.23719H160.16795z M162.84358,18.96052
		c-1.06953,2.46861-1.68781,3.95122-2.40778,5.80244h4.29892L162.84358,18.96052z"/>
	<path d="M177.45291,18.77295c0,0.12621-0.02089,0.24877-0.18431,0.24877c-0.16617,0-0.18614-0.12256-0.20612-0.28871
		c-0.12437-0.84345-1.83125-1.06951-2.44862-1.06951c-2.09909,0-2.94344,1.43994-2.94344,2.48857
		c0,3.58169,6.74937,2.16172,6.74937,6.68673c0,2.57211-2.38689,3.99117-4.83641,3.99117
		c-0.94695,0-2.20076-0.20428-3.08597-0.55293c-0.16434-1.00868-0.28783-1.68961-0.28783-1.83306
		c0-0.14435,0.08174-0.22516,0.20612-0.22516c0.20428,0,0.24695,0.207,0.26694,0.36861
		c0.24783,1.15303,2.28337,1.56342,3.23123,1.56342c1.7468,0,3.45549-0.90156,3.45549-2.67288
		c0-4.03292-6.68672-2.2852-6.68672-6.91553c0-2.09636,2.24249-3.57716,4.54858-3.57716c0.67914,0,1.56432,0.08081,2.22168,0.39041
		V18.77295z"/>
	<path d="M189.61195,31.90755h-6.08481v-0.62463h1.67328c0.25601,0,0.46393-0.04721,0.46393-0.23425V17.88039
		c-1.39273,0-4.4351-0.02179-4.94719,1.13851c-0.06898,0.13709-0.13799,0.29961-0.29959,0.29961
		c-0.11896,0-0.23332-0.04448-0.23332-0.18431c0-0.1153,0.0463-0.34681,0.62645-1.97379h11.21626
		c0.58107,1.62698,0.62738,1.85848,0.62738,1.97379c0,0.13982-0.1153,0.18431-0.23061,0.18431
		c-0.16525,0-0.23332-0.16252-0.30327-0.29961c-0.51114-1.16031-3.55351-1.13851-4.94627-1.13851v10.00877
		c0,3.32203,0.25421,3.39376,0.76538,3.39376h1.67238V31.90755z"/>
</g>
<g>
	<path d="M54.37666,35.41707c0.01997-0.03631-0.6428-0.00998,0.38041-0.11802c3.21944-0.35681,5.82876-0.34047,9.06455-0.44759
		l0.23242-0.06083c2.50763-0.00363,5.11878,0.06264,7.77894,0.23151c4.88,0.25603,9.81993,0.74176,14.48657,1.67237
		c-0.13165-0.05539-0.17886-0.08081,0.31413,0.02813c2.02917,0.4585,4.82825,0.95422,7.75898,1.29922l1.29285,0.13165
		c0.33411,0.01998,0.42217,0.00908,0.47756,0.00273c1.32281,0.14162,2.504,0.21789,3.59895,0.29869
		c7.21694,0.38313,14.51651,0.00363,21.88328-1.10765c7.33045-1.34733,14.74441-2.61568,22.65046-2.7328
		c3.32567-0.10896,6.66403-0.10442,9.86986,0.08897c4.75471,0.25513,10.78049,1.01868,15.30276,2.11088
		c-0.68637-0.10803,10.57439,1.15305,8.34912,0.62827c3.0787,0.29417,7.72539,0.38405,7.96324,0.30687
		c0.71454-0.20971,3.10869-0.16523,11.24353-0.98507c3.18585-0.2978,8.04407-1.05045,9.14806-1.29014
		c1.74136-0.35227-4.10916,0.57653-2.366,0.22698c-23.59286,5.3503-46.22609-5.47105-70.67601-1.57522
		c-4.16095,0.27782-19.67345,4.38248-36.24274,2.60752c-8.15483-0.7463-16.50484-3.19402-23.91609-3.2494
		c-7.34951-0.46666-13.51964-0.10803-17.08045,0.16433l-1.29469,0.11895c-7.83251,0.66731-16.95425,2.94616-23.49028,3.11503
		c-2.98065,0.24512-6.02577,0.32594-9.05546,0.30324c1.40726,0.08897,2.71283,0.09078,3.8459,0.13981
		c-3.08871,0.0109-6.17286-0.11893-7.35768-0.18339c-6.5578-0.46303-2.86444-0.03904-0.34137,0.28962
		c1.81944,0.16887-0.65369,0.11803,2.20166,0.33411c-2.06094-0.10986-3.09324-0.17976-5.15691-0.38224
		c-0.24422,0.07809,6.35443,0.46031,4.91723,0.42854c-1.98651-0.12711-4.2145-0.25057-6.2682-0.50661
		c0.69728,0.22789,7.13978,0.64825,6.82202,0.63644c-1.12218,0.01725-5.797-0.48211-6.20101-0.4703
		c-0.08262,0.02271,1.98196,0.21881,3.01424,0.30234c-6.35443-0.52932-9.84171-1.15757-4.07741-0.18975
		C11.43174,37.33549,8.61724,36.8661,6.5,36.34133l0.01633,0.00636c1.06135,0.276,2.86354,0.64008,3.84409,0.7935
		c-1.20116-0.1952-2.39869-0.42943-3.59622-0.7127l0.61918,0.18158c0.89247,0.20791,1.79039,0.39039,2.72827,0.54473
		l-2.39143-0.45304c0.59015,0.15615,1.27108,0.31777,2.02191,0.47393c2.83811,0.55291,5.58454,0.90881,7.14068,1.04227
		C29.46188,39.64429,42.22523,37.05222,54.37666,35.41707"/>
	<path d="M178.38522,37.64625c0.00452-0.01996-0.11623-0.0463,0.07442-0.04538c0.60106,0.0127,1.08041,0.10532,1.68147,0.11712
		l0.04538-0.02996l1.44086,0.1035l2.71918,0.05993c-0.02361-0.01272-0.03358-0.02361,0.05537-0.02542
		c0.37589-0.00092,0.8952,0.02632,1.43449,0.03722l0.23697-0.00273c0.06174-0.00726,0.07716-0.01816,0.08717-0.02451
		l0.66003,0.01362c2.64473-0.03088,5.32941-0.13438,8.23198-0.33049l1.81673-0.16433
		c0.87433-0.07898,1.99469-0.11166,2.8463-0.20882c-0.1398-0.10168,1.92659-0.36226,1.49805-0.43942
		c0.56201-0.07808,1.40816-0.1943,1.4463-0.23242c0.11713-0.10714,0.53474-0.276,1.9756-0.64099
		c0.56108-0.14164,1.40544-0.37859,1.5979-0.44578c0.29417-0.12348-0.73357,0.14708-0.43852,0.02542
		c-4.11189,1.11672-8.41901,1.28741-12.80238,1.45447c-1.49803,0.18521-11.65117,0.08988-14.24869-0.16162l-0.23607-0.01089
		c-1.41904-0.08444-3.14226-0.19248-4.34158-0.26057l-1.67058-0.06809c0.25604,0.0463,0.49301,0.09078,0.6982,0.13164
		c-0.56473-0.06355-1.12854-0.12711-1.34824-0.12982c-1.20845-0.08535-0.53477,0.04721-0.07991,0.17613
		c0.33049,0.0699-0.12712,0.07264,0.39223,0.16342c-0.3777-0.04267-0.56564-0.06264-0.94423-0.10713
		c-0.04721,0.02905,1.16574,0.10986,0.89702,0.13437l-1.14851-0.12711c0.1244,0.07264,1.30739,0.16433,1.24382,0.20337
		c-0.20609-0.01452-1.05589-0.16796-1.13486-0.13345c-0.01634,0.0118,0.36133,0.059,0.5511,0.07898
		c-1.16576-0.12166-1.81401-0.17703-0.75902,0.0336c-0.36952-0.05266-0.88792-0.14798-1.27924-0.1943l0.00272,0.00092
		c0.19429,0.02905,0.52931,0.08625,0.70908,0.11257l-0.6655-0.09533l0.11349,0.03814l0.50296,0.08261l-0.44214-0.06355
		l0.36952,0.10258c0.52023,0.10442,1.01778,0.23425,1.30376,0.25967C173.77487,37.33303,176.08368,37.50644,178.38522,37.64625"/>
</g>
<path d="M70.39471,49.19657c-0.18043,0-0.31076,0-0.31076-1.63051l-0.00931-5.06264
	c0.02483-0.01685,0.12989-0.01685,0.19284-0.01685h0.62817v-0.54882h-2.99769v0.54882h0.87244
	c0.19816,0,0.2487,0.14541,0.2487,1.48333v1.20138h-4.39102l-0.00887-2.66875c0.02483-0.01596,0.12945-0.01596,0.19196-0.01596
	h0.63084v-0.54882h-3.0008v0.54882h0.87333c0.1986,0,0.24914,0.14541,0.24914,1.48333l0.00798,5.20628
	c-0.00266,0.00177-0.03014,0.02039-0.15161,0.02039h-0.64369v0.5506h2.99991v-0.5506h-0.83565c-0.18132,0-0.3121,0-0.3121-1.63051
	v-1.77237h4.39102l0.00754,3.38249c-0.00266,0.00177-0.03059,0.02039-0.15339,0.02039h-0.64191v0.5506h2.99902v-0.5506H70.39471z"/>
<path fill="none" d="M82.39478,42.29417c-1.39954,0-3.0336,0.89904-3.0336,3.43303c0,2.70244,1.77325,3.66088,3.29205,3.66088
	c1.39909,0,3.03271-0.89904,3.03271-3.43302C85.68594,43.25262,83.91313,42.29417,82.39478,42.29417z"/>
<g>
	<path fill="none" d="M82.39478,42.29419c-1.39954,0-3.03357,0.89899-3.03357,3.43298c0,2.70245,1.77325,3.66089,3.29205,3.66089
		c1.39905,0,3.03271-0.89905,3.03271-3.43304C85.68597,43.25262,83.91315,42.29419,82.39478,42.29419z"/>
	<path d="M82.62708,41.7063c-2.46881,0-4.33075,1.82648-4.33075,4.24872c0,2.47992,1.58002,4.02087,4.12372,4.02087
		c2.46924,0,4.3316-1.82642,4.3316-4.24872C86.75165,43.24731,85.17126,41.7063,82.62708,41.7063z M82.65326,49.38806
		c-1.5188,0-3.29205-0.95844-3.29205-3.66089c0-2.534,1.63403-3.43298,3.03357-3.43298c1.51837,0,3.2912,0.95844,3.2912,3.66083
		C85.68597,48.48901,84.05231,49.38806,82.65326,49.38806z"/>
</g>
<path d="M98.41704,45.22271c-0.99391-0.35554-1.85172-0.6632-1.85172-1.55869c0-0.5373,0.4606-1.33615,1.72936-1.33615
	c0.45219,0,1.3632,0.1596,1.42126,0.52932c0.01286,0.08423,0.04034,0.25978,0.24117,0.25978
	c0.08556,0,0.22964-0.03369,0.22964-0.25624v-0.88308l-0.06783-0.03015c-0.44952-0.1986-1.03027-0.24028-1.43811-0.24028
	c-1.42525,0-2.96355,0.83875-2.96355,2.1944c0,1.46914,1.21114,1.90004,2.27996,2.28041
	c0.98283,0.35022,1.91113,0.68093,1.91113,1.72892c0,0.99036-1.06395,1.44166-2.05209,1.44166
	c-0.60158,0-1.78079-0.24028-1.9129-0.80949c-0.02793-0.20836-0.12235-0.31387-0.28062-0.31387
	c-0.14053,0-0.24249,0.10373-0.24249,0.24648c0,0.06649,0.03147,0.24294,0.10329,0.6366l0.09177,0.50981l0.06117,0.02217
	c0.54262,0.19772,1.33527,0.33071,1.97275,0.33071c1.5618,0,3.1431-0.83521,3.1431-2.43113
	C100.79231,46.07387,99.5302,45.62169,98.41704,45.22271z"/>
<path fill="none" d="M115.8242,44.22259c0-0.2784-0.09664-1.66509-2.00112-1.66509h-0.55503c-0.11526,0-0.30234,0-0.36352,0.02483
	v3.03848c0.29525,0.08157,0.62862,0.12413,0.96997,0.12413C114.81699,45.74493,115.8242,45.34506,115.8242,44.22259z"/>
<path d="M113.95074,46.29639c1.4151,0,2.93829-0.71283,2.93829-2.27686c0-1.00275-0.83075-2.08179-2.65454-2.08179h-3.51727v0.54883
	h0.87335c0.19769,0,0.24738,0.14539,0.24738,1.48334l0.00793,5.20715c-0.00262,0.00177-0.03015,0.01947-0.1507,0.01947h-0.64368
	v0.55151h3.00031v-0.55151h-0.83606c-0.18091,0-0.31122,0-0.31122-1.63049v-1.39288
	C113.23523,46.25385,113.59344,46.29639,113.95074,46.29639z M112.90454,42.58234c0.06116-0.02484,0.24823-0.02484,0.36353-0.02484
	h0.55499c1.90448,0,2.00116,1.38666,2.00116,1.6651c0,1.12244-1.0072,1.52234-1.94971,1.52234
	c-0.34137,0-0.67474-0.0426-0.96997-0.12415V42.58234z"/>
<path d="M129.0323,49.19657c-0.18088,0-0.3121,0-0.3121-1.63051l-0.00887-5.06264c0.02483-0.01685,0.12946-0.01685,0.1924-0.01685
	h0.62952v-0.54794h-2.99947v0.54794h0.87244c0.20216,0,0.24915,0.13654,0.24915,1.48244l0.00798,5.20717
	c-0.00266,0.00177-0.03014,0.02039-0.1525,0.02039h-0.6428v0.55148h3.00212v-0.55148H129.0323z"/>
<path d="M145.52979,48.00229c-0.2057,0-0.23851,0.19506-0.25624,0.30145c-0.086,0.5905-1.35477,1.04888-2.38857,1.04888
	c-2.03571,0-3.51283-1.41328-3.51283-3.36121c0-2.19086,1.52589-3.66266,3.79655-3.66266c1.12601,0,1.81137,0.45041,1.83354,0.59847
	l0.00531,0.03901c0.02306,0.172,0.04167,0.30854,0.22255,0.30854c0.24471,0,0.25801-0.19683,0.26865-0.35199l0.07271-0.79353
	l-0.08157-0.03014c-0.70221-0.25624-1.44698-0.39189-2.15273-0.39189c-2.88953,0-5.06796,1.90271-5.06796,4.42605
	c0,2.36996,1.67484,3.84264,4.37018,3.84264c1.0471,0,2.08003-0.21456,2.98616-0.62064l0.0603-0.02748l0.0062-0.06561
	c0.0665-0.69866,0.0665-0.85382,0.0665-1.00455C145.75853,48.18759,145.75853,48.00229,145.52979,48.00229z"/>
<path d="M161.75862,48.42344c-0.17023,0-0.22343,0.13299-0.24471,0.1853c-0.10463,0.23584-0.65877,0.51602-2.70776,0.51602h-0.8228
	c-0.36174,0-0.41759,0-0.41759-1.55869v-1.81049h1.52322c1.39467,0,1.39467,0.03458,1.39467,0.19949v0.55414h0.55058v-2.21037
	h-0.55058v0.59493c0,0.14275,0,0.2784-1.80518,0.2784h-1.11272v-2.59072c0.06117-0.02483,0.24913-0.02483,0.36528-0.02483h0.95224
	c0.64546,0,1.3725,0.0195,1.87877,0.16491c0.21367,0.05763,0.29082,0.11526,0.30678,0.22786
	c0.00887,0.0594,0.03369,0.23939,0.24203,0.23939c0.17467,0,0.19861-0.14186,0.21812-0.25623l0.15781-0.9948h-6.30746v0.54882
	h0.87422c0.19594,0,0.24559,0.14541,0.24559,1.48333l0.00798,5.20716c-0.00266,0.00177-0.02927,0.0195-0.14984,0.0195h-0.64546
	v0.55148h5.89784l0.13388-0.39809c0.16669-0.49562,0.22078-0.66143,0.22078-0.72792
	C161.96432,48.50677,161.87743,48.42344,161.75862,48.42344z"/>
</svg>
