<svg xmlns="http://www.w3.org/2000/svg" viewBox="0 0 215 67">
<g fill="#000000">
	<path d="M99.31,15.052c-0.004-0.115-0.067-0.177-0.177-0.197c-0.184-0.101-0.391-0.002-0.579-0.066
		c-0.136-0.024-0.248-0.081-0.306-0.216c-0.044-1.202-0.054-2.405,0.006-3.607c0.068-0.068,0.136-0.136,0.204-0.204
		c1.336-0.077,2.673-0.023,4.009-0.029c0.466-0.002,0.938-0.072,1.401,0.053c0.166,0.167,0.199,0.367,0.199,0.599
		c-0.008,2.185-0.005,4.37-0.004,6.555c0,0.577,0.055,0.638,0.616,0.638c1.948,0.003,3.895-0.003,5.842,0.005
		c0.26,0.001,0.461-0.052,0.572-0.303c0.091-0.163,0.046-0.34,0.046-0.51c0.004-2.096,0.002-4.192,0.004-6.288
		c0-0.172-0.025-0.347,0.026-0.517c0.022-0.118,0.094-0.185,0.21-0.207c1.238-0.072,2.478-0.018,3.716-0.028
		c0.533-0.005,1.067-0.031,1.599,0.019c0.218,0.14,0.296,0.334,0.293,0.597c-0.013,0.945-0.012,1.891,0,2.836
		c0.003,0.261-0.068,0.459-0.291,0.596c-0.196,0.074-0.411-0.015-0.606,0.067c-0.235,0.024-0.249,0.187-0.248,0.375
		c0.002,4.066,0.003,8.131,0,12.197c0,0.315,0.136,0.449,0.453,0.461c0.597,0.022,0.688,0.13,0.689,0.738
		c0.001,0.902-0.008,1.803,0.004,2.705c0.006,0.443-0.2,0.626-0.629,0.624c-1.598-0.006-3.195-0.008-4.793,0
		c-0.22,0.001-0.364-0.043-0.403-0.275c-0.044-2.574-0.004-5.148-0.022-7.722c-0.002-0.345,0.05-0.693-0.04-1.034
		c-0.058-0.124-0.161-0.202-0.272-0.272c-0.133-0.075-0.279-0.041-0.419-0.041c-1.882-0.002-3.764-0.003-5.646,0
		c-0.139,0-0.286-0.037-0.417,0.047c-0.366,0.063-0.281,0.352-0.281,0.584c-0.004,2.653-0.002,5.305-0.002,7.958
		c0,0.646-0.109,0.754-0.77,0.754c-1.532,0-3.063-0.002-4.595,0.001c-0.211,0-0.414,0.007-0.45-0.272
		c-0.046-1.17-0.039-2.34-0.004-3.51c0.039-0.309,0.278-0.296,0.491-0.283c0.253,0.015,0.459-0.033,0.583-0.275
		c0.076-0.133,0.042-0.279,0.042-0.419c0.002-3.906,0.002-7.813,0-11.719C99.358,15.329,99.396,15.183,99.31,15.052z"/>
	<path d="M128.57,10.756c0.071,0.071,0.143,0.141,0.214,0.212c0.045,0.171,0.023,0.347,0.023,0.52
		c0.001,5.001,0.001,10.002,0.003,15.003c0,0.188-0.038,0.38,0.038,0.563c0.056,0.585,0.247,0.775,0.832,0.832
		c0.925,0.088,1.852,0.035,2.778,0.034c0.862-0.001,1.726,0.061,2.587-0.039c0.619-0.131,0.838-0.402,0.84-1.29
		c0.008-5.05,0.002-10.101,0.008-15.151c0-0.236-0.103-0.517,0.187-0.681c1.804-0.045,3.608-0.055,5.412,0.005
		c0.068,0.068,0.136,0.136,0.204,0.204c0.043,1.202,0.083,2.404-0.02,3.606c-0.093,0.072-0.186,0.145-0.28,0.217
		c-0.188,0.064-0.395-0.035-0.579,0.066c-0.11,0.019-0.173,0.082-0.177,0.197c-0.094,0.163-0.047,0.34-0.047,0.51
		c-0.003,4.247-0.002,8.494-0.003,12.742c0,0.173,0.019,0.347-0.02,0.519c-0.094,0.275-0.269,0.489-0.476,0.692
		c-0.666,0.654-1.331,1.31-1.978,1.983c-0.292,0.303-0.631,0.446-1.038,0.446c-3.229,0.001-6.457-0.002-9.686,0.001
		c-0.362,0-0.648-0.12-0.895-0.394c-0.707-0.783-1.536-1.45-2.177-2.3c-0.154-0.204-0.199-0.398-0.199-0.638
		c0.004-4.352,0.002-8.705,0.006-13.057c0-0.276,0.002-0.539-0.265-0.708c-0.195-0.082-0.41,0.007-0.606-0.067
		c-0.259-0.021-0.279-0.217-0.28-0.406c-0.005-1.071-0.004-2.142,0-3.213c0.001-0.192,0.029-0.383,0.281-0.411
		C125.027,10.717,126.799,10.708,128.57,10.756z"/>
	<path d="M49.147,27.959c0.142,0.159,0.198,0.338,0.196,0.558c-0.01,0.933-0.014,1.867,0,2.8
		c0.007,0.441-0.189,0.63-0.618,0.63c-5.079-0.002-10.157-0.003-15.236,0.001c-0.405,0-0.603-0.14-0.593-0.583
		c0.022-0.996,0.02-1.994,0-2.99c-0.007-0.369,0.146-0.49,0.486-0.502c0.517-0.019,0.66-0.175,0.66-0.679
		c0.001-3.892-0.001-7.784,0.003-11.676c0-0.262-0.048-0.49-0.25-0.669c-0.195-0.082-0.41,0.007-0.606-0.067
		c-0.287-0.03-0.283-0.253-0.284-0.453c-0.005-1.041-0.004-2.082-0.002-3.123c0-0.207,0.006-0.42,0.287-0.454
		c0.14-0.037,0.283-0.021,0.424-0.021c4.77-0.001,9.541-0.001,14.311,0.002c0.153,0,0.317-0.052,0.458,0.056
		c0.072,0.092,0.143,0.183,0.215,0.275c0.04,1.139,0.046,2.277-0.003,3.416c-0.102,0.103-0.204,0.205-0.306,0.308
		c-0.552,0.057-1.105,0.022-1.658,0.023c-2.388,0.005-4.776,0.001-7.164,0.004c-0.172,0-0.348-0.036-0.515,0.037
		c-0.246,0.047-0.256,0.235-0.256,0.429c0,1.074-0.002,2.148,0.002,3.222c0.001,0.199-0.02,0.425,0.277,0.447
		c0.164,0.088,0.341,0.044,0.511,0.045c2.446,0.003,4.892,0.001,7.338,0.004c0.172,0,0.347-0.032,0.516,0.033
		c0.061,0.068,0.121,0.137,0.182,0.205c0.12,0.461,0.048,0.931,0.051,1.397c0.004,0.704,0.039,1.409-0.022,2.113
		C47.404,23,47.167,23.02,46.9,23.019c-2.495-0.006-4.99-0.004-7.484-0.003c-0.692,0-0.718,0.029-0.718,0.726
		c0,1.2,0.002,2.4-0.001,3.6c-0.001,0.267,0.008,0.517,0.362,0.541c0.166,0.081,0.343,0.04,0.514,0.04
		c3.019,0.003,6.039,0.001,9.058,0.004C48.802,27.927,48.978,27.895,49.147,27.959z"/>
	<path d="M184.336,19.053c0.071,0.091,0.142,0.183,0.212,0.274c0.049,1.107,0.041,2.214,0.004,3.321
		c-0.114,0.372-0.416,0.368-0.723,0.368c-2.469-0.002-4.938-0.001-7.406-0.001c-0.707,0-0.728,0.023-0.729,0.717
		c0,1.203,0.002,2.405-0.002,3.608c-0.001,0.269,0.007,0.518,0.362,0.542c0.166,0.081,0.343,0.04,0.514,0.04
		c3.022,0.003,6.043,0.001,9.065,0.005c0.169,0,0.348-0.052,0.509,0.052c0.127,0.163,0.202,0.331,0.199,0.554
		c-0.015,0.918-0.004,1.835-0.007,2.753c-0.002,0.539-0.134,0.658-0.727,0.659c-2.769,0.001-5.538,0.001-8.307,0.001
		c-2.231,0-4.462,0.001-6.693-0.001c-0.657,0-0.707-0.052-0.707-0.694c-0.001-0.965,0.005-1.931-0.003-2.896
		c-0.003-0.335,0.142-0.474,0.475-0.484c0.524-0.016,0.667-0.194,0.668-0.777c0.001-3.481,0-6.962,0-10.443
		c0-0.411-0.005-0.823,0.002-1.234c0.004-0.234-0.077-0.422-0.258-0.567c-0.192-0.088-0.403,0.006-0.597-0.067
		c-0.221-0.02-0.282-0.17-0.282-0.359c-0.002-1.107-0.001-2.214-0.003-3.321c0-0.154,0.042-0.277,0.19-0.345
		c0.138-0.05,0.282-0.028,0.423-0.028c4.803-0.001,9.606-0.002,14.409,0.002c0.153,0,0.317-0.052,0.458,0.056
		c0.137,0.155,0.204,0.322,0.2,0.543c-0.015,0.956-0.015,1.912-0.001,2.867c0.004,0.263-0.068,0.454-0.293,0.585
		c-0.186,0.054-0.377,0.026-0.566,0.026c-2.752,0.002-5.504,0.001-8.256,0.003c-0.172,0-0.348-0.036-0.515,0.037
		c-0.228,0.019-0.259,0.17-0.258,0.361c0.004,1.098,0,2.196,0.004,3.294c0.001,0.197-0.021,0.424,0.277,0.443
		c0.164,0.088,0.341,0.044,0.512,0.045c2.448,0.003,4.897,0.001,7.345,0.005C183.999,18.998,184.179,18.94,184.336,19.053z"/>
	<path d="M60.063,18.222c0.12,0.538,0.36,0.723,0.959,0.723c2.232,0.002,4.463,0.007,6.695-0.005
		c0.454-0.002,0.813,0.129,1.13,0.461c0.633,0.664,1.282,1.315,1.942,1.952c0.342,0.331,0.483,0.716,0.482,1.18
		c-0.004,1.899-0.011,3.798,0.004,5.697c0.004,0.554-0.187,0.997-0.568,1.379c-0.648,0.65-1.289,1.306-1.94,1.953
		c-0.252,0.25-0.559,0.383-0.922,0.383c-4.02-0.001-8.04-0.003-12.06,0.007c-0.287,0.001-0.431-0.112-0.434-0.367
		c-0.01-1.123-0.003-2.247-0.001-3.37c0-0.122,0.058-0.208,0.166-0.262c0.17-0.055,0.345-0.028,0.518-0.028
		c3.051-0.002,6.101-0.001,9.152-0.003c0.171,0,0.348,0.04,0.514-0.04c0.539-0.118,0.839-0.42,0.847-0.923
		c0.015-0.963,0.009-1.927,0.003-2.89c-0.003-0.462-0.243-0.772-0.664-0.949c-0.165-0.083-0.342-0.041-0.512-0.041
		c-2.131-0.003-4.262-0.002-6.392-0.003c-0.173,0-0.347,0.022-0.518-0.023c-0.251-0.037-0.446-0.151-0.63-0.339
		c-0.672-0.689-1.364-1.358-2.051-2.033c-0.301-0.296-0.452-0.633-0.448-1.073c0.017-1.817,0.016-3.634,0.001-5.451
		c-0.003-0.405,0.14-0.722,0.41-0.994c0.513-0.514,1.026-1.028,1.558-1.522c0.237-0.22,0.324-0.559,0.653-0.717
		c0.135-0.065,0.278-0.106,0.412-0.171c0.076-0.026,0.155-0.025,0.234-0.025c3.628,0,7.256,0,10.884,0
		c0.094,0,0.19-0.01,0.279,0.034c0.068,0.068,0.136,0.136,0.204,0.204c0.042,1.202,0.086,2.404-0.022,3.605
		c-0.093,0.073-0.185,0.145-0.278,0.218c-1.374,0.049-2.749,0.013-4.123,0.02c-1.454,0.007-2.908,0-4.362,0.003
		c-0.156,0-0.316-0.035-0.467,0.038c-0.386,0.046-0.603,0.263-0.649,0.649C59.997,16.408,60.002,17.315,60.063,18.222z"/>
	<path d="M208.208,28.919c-0.787,1.027-1.699,1.936-2.666,2.79c-0.207,0.182-0.457,0.24-0.732,0.239
		c-3.926-0.003-7.851-0.002-11.777-0.003c-0.658,0-0.696-0.04-0.696-0.696c-0.001-0.934-0.002-1.868,0.001-2.802
		c0.001-0.183-0.045-0.388,0.175-0.496c0.171-0.049,0.346-0.025,0.519-0.025c3.05-0.002,6.101,0,9.151-0.003
		c0.171,0,0.348,0.04,0.513-0.04c0.572-0.126,0.837-0.434,0.847-1.057c0.015-0.916,0.012-1.833,0-2.749
		c-0.006-0.455-0.237-0.779-0.662-0.956c-0.165-0.083-0.342-0.041-0.512-0.041c-2.131-0.003-4.261-0.002-6.392-0.003
		c-0.173,0-0.347,0.022-0.518-0.023c-0.447,0.009-0.641-0.33-0.905-0.61c-0.584-0.621-1.201-1.213-1.824-1.797
		c-0.288-0.27-0.394-0.584-0.394-0.96c0.002-1.852,0.002-3.704,0-5.556c0-0.362,0.119-0.668,0.368-0.932
		c0.647-0.687,1.394-1.278,1.962-2.041c0.171-0.23,0.411-0.363,0.698-0.404c0.171-0.046,0.345-0.023,0.518-0.023
		c3.454-0.002,6.909-0.002,10.363,0c0.172,0,0.347-0.032,0.515,0.033c0.061,0.068,0.121,0.137,0.182,0.205
		c0.12,0.461,0.046,0.931,0.051,1.396c0.007,0.704,0.031,1.409-0.016,2.113c-0.104,0.103-0.208,0.206-0.312,0.31
		c-0.805,0.055-1.611,0.022-2.416,0.024c-2.008,0.006-4.015-0.003-6.023,0c-0.171,0-0.348-0.036-0.514,0.04
		c-0.384,0.041-0.591,0.263-0.652,0.636c-0.054,0.932-0.077,1.863,0.011,2.795c0.143,0.486,0.395,0.662,0.965,0.663
		c2.216,0.001,4.433,0.01,6.649-0.007c0.494-0.004,0.87,0.163,1.205,0.51c0.626,0.649,1.274,1.279,1.904,1.925
		c0.152,0.156,0.271,0.345,0.404,0.519c0.075,0.263,0.034,0.532,0.033,0.797C208.219,24.766,208.266,26.842,208.208,28.919z"/>
	<path d="M88.483,15.926c-0.185-0.019-0.283-0.125-0.303-0.307c-0.077-0.193,0.02-0.406-0.069-0.597
		c-0.058-0.057-0.116-0.114-0.173-0.171c-0.627-0.087-1.258-0.038-1.887-0.035c-1.134,0.005-2.269-0.05-3.403,0.033
		c-0.515,0.034-0.714,0.382-0.716,0.823c-0.012,3.795-0.009,7.591-0.003,11.386c0.001,0.456,0.33,0.754,0.846,0.82
		c0.325,0.101,0.658,0.041,0.987,0.043c1.202,0.009,2.405,0.005,3.608,0.001c0.155,0,0.317,0.038,0.466-0.04
		c0.07-0.091,0.242-0.036,0.269-0.188c0.106-0.182,0-0.389,0.07-0.576c0.019-0.289,0.172-0.389,0.46-0.386
		c1.011,0.012,2.022,0.011,3.033-0.002c0.21-0.003,0.357,0.087,0.507,0.2c0.023,0.04,0.056,0.072,0.056,0.126
		c-0.007,1.539,0.029,3.079-0.02,4.618c-0.162,0.23-0.395,0.274-0.658,0.274c-3.649-0.003-7.298-0.004-10.947,0.002
		c-0.309,0.001-0.592-0.071-0.803-0.276c-0.77-0.749-1.527-1.51-2.273-2.282c-0.166-0.172-0.289-0.398-0.276-0.662
		c-0.042-0.107-0.028-0.218-0.028-0.328c-0.001-4.689-0.001-9.377,0-14.066c0-0.11-0.013-0.221,0.026-0.329
		c0.04-0.379,0.227-0.67,0.509-0.923c0.666-0.598,1.294-1.234,1.857-1.931c0.18-0.223,0.416-0.351,0.697-0.399
		c3.879-0.047,7.758-0.033,11.637-0.007c0.063,0-0.018,0.007,0.045,0.014c0.07,0.069,0.14,0.137,0.209,0.206
		c0.044,1.582,0.054,3.164-0.006,4.746c-0.1,0.072-0.2,0.144-0.3,0.216C90.759,15.963,89.621,15.97,88.483,15.926z"/>
	<path d="M147.575,15.916c-0.253-0.061-0.266-0.27-0.267-0.467c-0.003-1.447,0.004-2.895-0.005-4.342
		c-0.001-0.214,0.075-0.317,0.273-0.352c0.139-0.045,0.282-0.025,0.424-0.025c5.214-0.001,10.428-0.001,15.642,0.002
		c0.153,0,0.317-0.052,0.458,0.056c0.136,0.157,0.202,0.325,0.2,0.546c-0.012,1.334-0.012,2.668,0,4.002
		c0.002,0.263-0.073,0.454-0.293,0.59c-1.171,0.035-2.341,0.057-3.512-0.012c-0.069-0.067-0.138-0.134-0.207-0.202
		c-0.079-0.189,0.027-0.401-0.072-0.587c-0.074-0.088-0.149-0.177-0.223-0.265c-0.531-0.082-1.062-0.079-1.593-0.002
		c-0.145,0.031-0.209,0.12-0.192,0.267c-0.069,0.117-0.041,0.247-0.041,0.371c-0.001,3.886-0.001,7.773,0,11.659
		c0,0.125-0.024,0.254,0.039,0.373c-0.023,0.326,0.204,0.335,0.434,0.348c0.612,0.034,0.699,0.125,0.7,0.733
		c0.001,0.887,0.002,1.773,0,2.66c-0.001,0.496-0.151,0.672-0.627,0.674c-1.947,0.008-3.894,0-5.842,0.005
		c-0.371,0.001-0.544-0.133-0.536-0.533c0.019-0.997,0.015-1.995,0.002-2.992c-0.005-0.369,0.119-0.571,0.511-0.547
		c0.452,0.027,0.637-0.191,0.636-0.637c-0.006-3.942-0.006-7.884,0.003-11.826c0.001-0.251-0.084-0.421-0.268-0.565
		c-0.532-0.059-1.064-0.059-1.597,0c-0.293,0.034-0.256,0.257-0.244,0.45c0.017,0.266-0.05,0.482-0.29,0.623
		C149.916,15.968,148.745,15.977,147.575,15.916z"/>
	<path d="M110.239,56.681c-0.481-0.14-0.43-0.632-0.542-0.955c-0.41-1.173-0.716-2.382-1.078-3.571
		c-0.287-0.941-0.599-1.874-0.921-2.874c-0.328,0.358-0.365,0.806-0.488,1.195c-0.596,1.89-1.156,3.792-1.73,5.689
		c-0.065,0.213-0.178,0.397-0.375,0.517c-0.727,0.042-1.454,0.047-2.181-0.003c-0.501-0.439-0.467-1.095-0.642-1.657
		c-0.352-1.132-0.641-2.284-0.946-3.43c-0.299-1.124-0.577-2.253-0.879-3.376c-0.29-1.079-0.608-2.151-0.892-3.232
		c-0.06-0.227-0.215-0.516,0.13-0.685c0.79-0.057,1.581-0.047,2.372-0.005c0.485,0.224,0.451,0.72,0.547,1.121
		c0.47,1.944,0.905,3.897,1.361,5.845c0.029,0.125,0.028,0.337,0.173,0.349c0.197,0.017,0.192-0.206,0.234-0.344
		c0.675-2.198,1.423-4.372,2.15-6.553c0.089-0.266,0.218-0.395,0.479-0.422c0.473-0.041,0.947-0.034,1.42-0.003
		c0.26,0.107,0.412,0.277,0.504,0.566c0.706,2.221,1.437,4.434,2.156,6.651c0.026,0.081,0.052,0.145,0.157,0.203
		c0.299-0.63,0.36-1.323,0.522-1.981c0.406-1.649,0.761-3.31,1.153-4.962c0.051-0.215,0.184-0.428,0.453-0.47
		c0.759-0.045,1.518-0.048,2.276,0.002c0.193,0.116,0.225,0.288,0.169,0.491c-0.702,2.556-1.404,5.111-2.107,7.667
		c-0.333,1.209-0.686,2.413-0.991,3.63c-0.069,0.275-0.204,0.445-0.399,0.607C111.628,56.715,110.933,56.731,110.239,56.681z"/>
	<path d="M120.402,46.902c-0.12-0.254-0.557-0.138-0.583-0.501c-0.056-0.6-0.049-1.201-0.005-1.802
		c0.025-0.132,0.076-0.247,0.21-0.305c0.312-0.062,0.628-0.027,0.941-0.026c2.567,0.009,5.133-0.03,7.7,0.019
		c0.104,0.073,0.209,0.146,0.313,0.219c0.011,0.663,0.079,1.327-0.034,1.989c-0.173,0.158-0.378,0.182-0.605,0.181
		c-1.483-0.007-2.966-0.005-4.449-0.003c-0.598,0.001-0.651,0.057-0.653,0.651c-0.001,0.442-0.002,0.883,0.001,1.325
		c0.001,0.169-0.027,0.36,0.209,0.412c0.273,0.103,0.557,0.044,0.836,0.048c1.27,0.02,2.541-0.024,3.812,0.024
		c0.104,0.104,0.208,0.208,0.312,0.312c0.026,0.601,0.053,1.201-0.014,1.801c-0.068,0.072-0.136,0.144-0.205,0.217
		c-1.358,0.047-2.716,0.007-4.074,0.022c-0.172,0.002-0.348-0.035-0.515,0.038c-0.268-0.023-0.364,0.119-0.363,0.368
		c0.003,0.679,0.001,1.358,0,2.037c0,0.188,0.033,0.348,0.263,0.371c0.641,0.082,1.286,0.028,1.929,0.034
		c1.116,0.01,2.233,0.001,3.349,0.006c0.152,0.001,0.315-0.053,0.456,0.056c0.073,0.092,0.146,0.184,0.219,0.275
		c0.036,0.568,0.035,1.136,0.001,1.704c-0.073,0.101-0.145,0.203-0.218,0.304c-0.03,0.009-0.061,0.025-0.091,0.025
		c-3.039-0.002-6.078,0.023-9.117-0.012c-0.182-0.031-0.161-0.202-0.22-0.318c-0.034-0.568-0.034-1.136,0-1.704
		c0.014-0.388,0.485-0.278,0.603-0.553c0.044-0.071,0.041-0.15,0.041-0.228c0-2.254,0-4.508,0-6.762
		C120.451,47.048,120.454,46.969,120.402,46.902z"/>
	<path d="M95.622,46.4c-0.146,0.259-0.383,0.276-0.648,0.275c-1.51-0.007-3.02-0.007-4.53,0.001
		c-0.213,0.001-0.5-0.092-0.548,0.27c-0.063,0.647-0.07,1.293,0.005,1.939c0.017,0.105,0.078,0.165,0.182,0.182
		c0.562,0.097,1.128,0.028,1.692,0.042c0.991,0.025,1.983-0.036,2.973,0.032c0.206,0.128,0.285,0.307,0.276,0.553
		c-0.016,0.408-0.018,0.818,0.002,1.226c0.01,0.207-0.071,0.358-0.183,0.509c-0.16,0.104-0.338,0.051-0.507,0.051
		c-1.23,0.005-2.459,0.001-3.689,0.005c-0.154,0-0.316-0.041-0.463,0.045c-0.181-0.015-0.276,0.07-0.291,0.249
		c-0.052,0.774-0.075,1.547,0.012,2.32c0.01,0.116,0.073,0.179,0.189,0.189c0.162,0.092,0.339,0.044,0.509,0.046
		c1.73,0.021,3.461-0.032,5.191,0.028c0.157,0.114,0.278,0.24,0.274,0.459c-0.009,0.471-0.011,0.942,0.002,1.413
		c0.005,0.179-0.106,0.285-0.183,0.415c-0.092,0.088-0.208,0.057-0.316,0.058c-2.919,0.001-5.837,0.001-8.756,0.001
		c-0.079,0-0.158,0.001-0.233-0.028c-0.038-0.038-0.075-0.076-0.113-0.115c-0.05-0.696-0.05-1.391,0-2.087
		c0.19-0.164,0.496-0.179,0.59-0.465c0.067-0.1,0.044-0.214,0.044-0.323c0.001-2.133,0.001-4.267,0-6.4
		c0-0.108,0.024-0.223-0.047-0.321c-0.072-0.31-0.461-0.23-0.586-0.476c-0.059-0.663-0.036-1.326-0.011-1.989
		c0.028-0.116,0.09-0.197,0.218-0.21c0.169-0.057,0.344-0.029,0.516-0.029c2.536-0.002,5.073-0.002,7.609,0
		c0.172,0,0.347-0.026,0.517,0.027c0.103,0.102,0.205,0.204,0.308,0.306C95.666,45.2,95.673,45.8,95.622,46.4z"/>
	<path d="M154.153,56.375c-0.072,0.101-0.145,0.203-0.217,0.304c-0.79,0.05-1.581,0.049-2.371,0
		c-0.235-0.125-0.173-0.351-0.173-0.546c-0.005-1.249-0.074-2.503,0.019-3.745c0.083-1.101-0.381-1.93-0.945-2.788
		c-1.045-1.59-2.038-3.214-3.046-4.827c-0.099-0.158-0.254-0.36,0.061-0.482c0.885-0.041,1.771-0.043,2.656,0.002
		c0.405,0.144,0.573,0.506,0.777,0.838c0.51,0.83,1.021,1.66,1.538,2.486c0.188,0.3,0.343,0.387,0.575-0.008
		c0.573-0.974,1.208-1.913,1.781-2.886c0.143-0.243,0.317-0.358,0.558-0.429c0.885-0.05,1.77-0.038,2.655-0.006
		c0.237,0.127,0.167,0.297,0.06,0.465c-1.157,1.831-2.317,3.66-3.473,5.493c-0.173,0.274-0.396,0.529-0.393,0.882
		c-0.089,0.58-0.027,1.163-0.038,1.745C154.156,54.04,154.203,55.208,154.153,56.375z"/>
	<path d="M26.902,15.713c0-0.427-0.146-0.776-0.453-1.086c-0.979-0.986-1.935-1.995-2.911-2.984
		c-0.329-0.334-0.612-0.733-1.088-0.89c-0.092-0.032-0.187-0.024-0.282-0.024c-4.451,0-8.903,0-13.354,0
		c-0.109,0-0.222-0.017-0.326,0.033c-0.068,0.068-0.136,0.136-0.204,0.204c-0.06,1.202-0.049,2.405-0.006,3.607
		c0.057,0.135,0.17,0.192,0.306,0.216c0.188,0.064,0.395-0.035,0.579,0.066c0.11,0.019,0.173,0.082,0.177,0.196
		c0.086,0.13,0.048,0.277,0.048,0.416c0.002,3.907,0.002,7.814,0,11.721c0,0.14,0.033,0.285-0.041,0.419
		c-0.128,0.236-0.332,0.289-0.585,0.272c-0.213-0.014-0.451-0.025-0.49,0.283c-0.034,1.17-0.044,2.34,0.005,3.51
		c0.04,0.275,0.239,0.272,0.452,0.272c4.429-0.002,8.859,0,13.288-0.003c0.348,0,0.679-0.082,0.937-0.347
		c1.213-1.244,2.432-2.483,3.639-3.733c0.222-0.23,0.311-0.524,0.311-0.855C26.9,23.243,26.901,19.478,26.902,15.713z M21.73,26.581
		c-1.511,1.546-0.899,1.326-3.078,1.34c-1.297,0.009-2.594,0.004-3.891,0c-0.57-0.002-0.668-0.1-0.669-0.66
		c-0.002-1.977-0.001-3.954-0.001-5.931c0-1.961-0.001-3.923,0-5.884c0-0.563,0.099-0.664,0.656-0.664
		c1.708-0.002,3.417,0.003,5.125-0.003c0.388-0.002,0.701,0.122,0.969,0.405c1.594,1.685,1.358,1.018,1.369,3.287
		c0.011,2.278-0.004,4.555,0.007,6.833C22.221,25.805,22.093,26.21,21.73,26.581z"/>
	<path d="M66.08,51.725c-0.28-0.507-0.741-0.852-1.14-1.25c-0.298-0.298-0.306-0.555,0.003-0.836
		c0.327-0.297,0.632-0.612,0.759-1.054c0.039-0.758,0.039-1.517,0-2.275c-0.449-0.898-1.091-1.604-2.02-2.023
		c-1.709-0.047-3.419-0.016-5.128-0.018c-0.981-0.001-1.962-0.035-2.942,0.022c-0.198,0.017-0.263,0.149-0.264,0.322
		c-0.004,0.569-0.01,1.138,0.001,1.707c0.003,0.142,0.018,0.305,0.23,0.341c0.346,0.058,0.426,0.317,0.426,0.621
		c0,2.166-0.004,4.332,0.006,6.498c0.001,0.217-0.07,0.435-0.231,0.473c-0.538,0.127-0.436,0.525-0.44,0.888
		c-0.003,0.364-0.003,0.727,0,1.091c0.001,0.171-0.017,0.354,0.176,0.453c0.076,0.024,0.155,0.024,0.234,0.024
		c2.773,0,5.546,0,8.32,0c0.094,0,0.19,0.011,0.278-0.035c0.668-0.48,1.242-1.055,1.722-1.722
		C66.133,53.876,66.116,52.8,66.08,51.725z M58.76,47.125c0.001-0.351,0.184-0.518,0.531-0.517c0.931,0.001,1.863-0.011,2.793,0.005
		c0.53,0.009,0.675,0.162,0.694,0.684c0.014,0.41,0.015,0.821,0,1.231c-0.02,0.543-0.174,0.693-0.725,0.707
		c-0.457,0.012-0.915,0.002-1.373,0.002c-0.458,0-0.915-0.003-1.373,0.001c-0.373,0.003-0.551-0.177-0.548-0.55
		C58.763,48.167,58.759,47.646,58.76,47.125z M63.189,53.733c-0.009,0.437-0.226,0.663-0.684,0.652
		c-0.538-0.013-1.076-0.003-1.614-0.003c-0.522,0-1.045-0.013-1.566,0.004c-0.377,0.012-0.566-0.138-0.566-0.52
		c0.002-0.633,0-1.266,0.001-1.899c0.001-0.35,0.174-0.518,0.528-0.517c1.044,0.004,2.089-0.008,3.133,0.006
		c0.534,0.007,0.743,0.215,0.767,0.757C63.21,52.72,63.2,53.227,63.189,53.733z"/>
	<path d="M144.932,54.575c-0.071-0.073-0.142-0.145-0.212-0.218c-0.22-0.066-0.457,0.039-0.673-0.066
		c-0.336,0.035-0.461-0.209-0.587-0.447c-0.239-0.456-0.463-0.92-0.714-1.368c-0.165-0.294-0.121-0.532,0.102-0.765
		c0.327-0.341,0.642-0.694,0.973-1.031c0.288-0.294,0.437-0.628,0.432-1.048c-0.012-1.013-0.008-2.026-0.001-3.038
		c0.002-0.259-0.02-0.514-0.191-0.712c-0.529-0.614-1.006-1.292-1.81-1.595c-1.63-0.047-3.26-0.016-4.891-0.018
		c-1.028-0.001-2.057-0.036-3.085,0.022c-0.198,0.017-0.263,0.149-0.264,0.322c-0.004,0.57-0.01,1.139,0.001,1.708
		c0.003,0.146,0.027,0.337,0.222,0.357c0.38,0.039,0.433,0.299,0.433,0.596c0.002,2.168-0.004,4.336,0.008,6.503
		c0.001,0.241-0.104,0.473-0.261,0.504c-0.49,0.097-0.407,0.441-0.41,0.762c-0.004,0.396-0.003,0.791,0,1.187
		c0.001,0.171-0.017,0.354,0.176,0.453c1.012,0.036,2.024,0.045,3.035-0.005c0.067-0.07,0.134-0.139,0.202-0.209
		c0.083-0.892,0.009-1.786,0.039-2.678c0.016-0.467-0.061-0.937,0.048-1.401c0.03-0.148,0.12-0.216,0.272-0.199
		c0.449-0.073,0.899-0.077,1.348,0.002c0.319,0.123,0.519,0.355,0.669,0.661c0.533,1.087,1.078,2.167,1.625,3.247
		c0.125,0.246,0.253,0.499,0.553,0.584c0.916,0.036,1.833,0.04,2.749-0.002c0.071-0.071,0.141-0.143,0.212-0.214
		C144.977,55.838,144.977,55.207,144.932,54.575z M141.489,49.145c-0.013,0.512-0.173,0.667-0.697,0.685
		c-0.473,0.017-0.947,0.007-1.421,0.007c0,0.001,0-0.001,0,0c-0.474,0-0.948-0.007-1.421,0c-0.357,0.005-0.524-0.169-0.525-0.516
		c-0.002-0.726,0-1.453-0.001-2.179c-0.001-0.347,0.164-0.532,0.516-0.533c0.948-0.002,1.895-0.012,2.843,0.004
		c0.518,0.009,0.694,0.186,0.706,0.684C141.504,47.913,141.505,48.529,141.489,49.145z"/>
	<path d="M81.721,54.906c0.032-0.207-0.057-0.363-0.18-0.511c-0.216-0.14-0.473,0.01-0.693-0.098
		c-0.253,0.001-0.438-0.089-0.556-0.336c-0.242-0.505-0.507-0.998-0.762-1.496c-0.163-0.318-0.108-0.577,0.15-0.84
		c0.469-0.479,1.01-0.899,1.317-1.519c0.036-1.329,0.053-2.658-0.009-3.986c-0.544-0.707-1.098-1.404-1.914-1.826
		c-2.676-0.049-5.352-0.036-8.028-0.006c-0.063,0.001,0.019,0.008-0.044,0.016c-0.067,0.067-0.134,0.134-0.2,0.2
		c-0.069,0.631-0.043,1.264-0.014,1.896c0.026,0.378,0.51,0.236,0.606,0.535c0.044,0.089,0.036,0.184,0.036,0.278
		c0,2.205,0,4.409,0,6.614c0,0.093,0.015,0.19-0.048,0.273c-0.058,0.328-0.559,0.11-0.586,0.475c-0.049,0.632-0.049,1.264,0,1.896
		c0.037,0.068,0.075,0.135,0.112,0.203c0.545,0.079,1.094,0.035,1.641,0.029c0.496-0.005,0.997,0.076,1.489-0.053
		c0.153-0.175,0.185-0.378,0.183-0.607c-0.009-1.132-0.004-2.264-0.004-3.395c0-0.251,0.013-0.488,0.363-0.459
		c0.429-0.064,0.858-0.068,1.287,0.003c0.312,0.048,0.499,0.236,0.636,0.516c0.588,1.195,1.191,2.384,1.784,3.576
		c0.092,0.184,0.175,0.367,0.412,0.396c0.948,0.03,1.897,0.087,2.844-0.029C81.908,56.1,81.633,55.484,81.721,54.906z
		 M77.556,49.836c-0.473-0.005-0.947-0.001-1.42-0.001c0,0.001,0,0.002,0,0.003c-0.458,0-0.916-0.006-1.373,0.002
		c-0.367,0.006-0.558-0.136-0.552-0.529c0.012-0.726,0.01-1.452,0.001-2.178c-0.004-0.359,0.162-0.525,0.511-0.525
		c0.947,0,1.894-0.002,2.841,0.001c0.46,0.001,0.699,0.23,0.699,0.698c0,0.615,0.004,1.231,0.002,1.846
		C78.263,49.622,78.02,49.841,77.556,49.836z"/>
</g>
</svg>
