<svg xmlns="http://www.w3.org/2000/svg" viewBox="0 0 215 67">
<g fill="#000000">
	<path d="M208,42.2c0-0.1,0-0.2,0-0.4c0,0,0,0,0,0C208,42,208,42.1,208,42.2L208,42.2L208,42.2z"/>
	<path d="M8,34.6c0,0.1,0.1,0.2,0,0.3C8,34.8,8,34.7,8,34.6C8,34.5,8,34.5,8,34.6z"/>
	<path d="M8,34.6C8,34.6,8,34.6,8,34.6c0-0.1,0-0.2,0-0.3C8.1,34.4,8,34.5,8,34.6z"/>
	<path d="M208,41.9C208,41.9,208,41.9,208,41.9c0-0.1-0.1-0.2,0-0.3C208,41.7,208,41.8,208,41.9z"/>
	<path d="M208,40.7c-0.1-0.1,0-0.2,0-0.2c0,0,0,0,0,0C208,40.5,208,40.6,208,40.7z"/>
	<path d="M125,41.7c0,1,0.1,1.9,0.6,2.8c0.3,0.5,0.8,0.8,1.3,1.1c0.1,0,0.2,0.1,0.2,0.1c0.5,0.2,0.7,0.7,0.7,1.1
		c0,0.1,0,0.1-0.1,0.1c0,0-0.1,0-0.1,0c-3.2,0-6.3,0-9.5,0c-0.2,0-0.3-0.1-0.2-0.3c0-0.5,0.3-0.7,0.7-0.9c0.7-0.2,1.3-0.6,1.7-1.4
		c0.2-0.4,0.3-0.9,0.3-1.4c0-0.3,0.1-0.6,0.1-1c0-0.1,0-0.3,0-0.4c0-0.1,0-0.2,0-0.4c0-0.2,0-0.4,0-0.5c0-0.2,0-0.5,0-0.7
		c0-3.8,0-7.6,0-11.3c0-0.1,0-0.2,0-0.3c-0.1,0.2-0.2,0.3-0.3,0.5c-0.6,1.3-1.2,2.6-1.8,3.9c-0.8,1.9-1.7,3.7-2.5,5.6
		c-0.6,1.3-1.1,2.5-1.7,3.8c-0.7,1.6-1.4,3.1-2.1,4.7c-0.1,0.2-0.2,0.4-0.5,0.3c-0.2,0-0.4-0.1-0.6-0.3c-0.8-1.8-1.7-3.6-2.6-5.4
		c-0.5-1-1-2-1.4-3.1c-1.2-2.7-2.5-5.3-3.7-8c-0.3-0.6-0.6-1.3-0.9-1.9c0,0.1,0,0.2,0,0.2c0,3.7,0,7.5,0,11.2c0,0.2,0,0.4,0,0.6
		c0,0.3,0,0.6,0,0.9c0,1.1,0.1,2.2,0.7,3.2c0.2,0.3,0.6,0.5,0.9,0.8c0.2,0.1,0.4,0.3,0.6,0.4c0.4,0.3,0.4,0.7,0.4,1.1
		c0,0.1,0,0.1-0.1,0.1c0,0-0.1,0-0.1,0c-2.6,0-5.3,0-7.9,0c-0.2,0-0.3-0.1-0.2-0.2c0-0.4,0.3-1,0.8-1.1c0.6-0.2,1.1-0.6,1.5-1.1
		c0.3-0.4,0.4-0.9,0.5-1.3c0.1-0.7,0.2-1.4,0.2-2.1c0,0,0-0.1,0-0.1c0.1-0.3,0-0.6,0-0.9c0-0.1,0-0.1,0-0.2c0-4.3,0-8.6,0-12.9
		c0,0,0-0.1,0-0.1c0-0.2,0-0.3,0-0.5c-0.1-0.7-0.2-1.4-0.7-1.9c-0.5-0.6-1.1-0.9-1.8-1.2c-0.1-0.1-0.3,0-0.3-0.2
		c-0.1-0.3-0.3-0.5-0.3-0.8c0-0.2,0-0.4,0-0.5c0.1,0,0.2,0,0.2,0c2.3,0,4.5,0,6.8,0c0.1,0,0.2,0,0.2,0c0.3,0.6,0.6,1.2,0.9,1.9
		c1.1,2.4,2.3,4.8,3.4,7.2c0.7,1.4,1.3,2.8,2,4.1c0.7,1.6,1.5,3.1,2.2,4.7c0,0.1,0,0.2,0.2,0.2c0.1,0,0.1-0.1,0.1-0.2
		c0.4-1,0.9-2,1.4-2.9c0.8-1.8,1.7-3.5,2.5-5.3c0.5-1.1,1.1-2.2,1.6-3.3c0.4-0.8,0.7-1.6,1-2.4c0.2-0.6,0.4-1.2,0.6-1.8
		c0.2-0.7,0.4-1.4,0.5-2.1c0,0,0,0,0-0.1c0.1,0,0.1,0,0.2,0c2.4,0,4.8,0,7.1,0c0.1,0,0.1,0,0.2,0c0.1,0.4,0,0.7-0.2,1.1
		c-0.1,0.1-0.2,0.2-0.3,0.3c-0.4,0.1-0.8,0.3-1.2,0.6c-0.6,0.4-0.9,1-1,1.7c-0.2,1-0.2,2-0.1,3c0,0.1,0,0.2,0,0.3
		c0,3.9,0,7.8,0,11.7c0,0.1,0,0.2,0,0.3c0,0.3,0,0.6,0,0.9C125,41.5,124.9,41.6,125,41.7z"/>
	<path d="M157.2,29.1c0.1-0.5,0.5-0.7,0.8-0.9c0.3-0.3,0.5-0.6,0.7-0.9c0.1-0.3,0.2-0.6,0.2-0.8c0-0.1,0-0.2,0-0.3
		c-0.1-0.7-0.5-1.3-0.9-1.9c-0.3-0.4-0.7-0.7-1-1.2c-0.5-0.7-0.3-1.7,0.3-2.2c0.2-0.2,0.5-0.3,0.8-0.3c0.1,0,0.3,0,0.4,0
		c1,0.2,1.7,0.8,2.1,1.7c0.4,0.8,0.6,1.6,0.5,2.5c-0.1,1.4-0.5,2.6-1.5,3.6c-0.6,0.6-1.4,1-2.2,1.2c-0.1,0-0.2,0-0.2-0.1
		C157.1,29.3,157.1,29.2,157.2,29.1z"/>
	<path d="M124.9,40.6c0-0.1,0-0.1,0-0.2c0-4,0-8,0-12.1c0.1,0.1,0,0.1,0,0.2c0,4,0,8,0,11.9C124.9,40.5,124.9,40.5,124.9,40.6z"/>
	<path d="M49.4,28.4c0.1,0.1,0,0.2,0,0.2c0,3.9,0,7.8,0,11.6c0,0.1,0,0.2,0,0.2c0-1.7,0-3.3,0-5C49.4,33.1,49.4,30.7,49.4,28.4z"/>
	<path d="M127.7,21.6c-0.1,0-0.1,0-0.2,0c-2.4,0-4.8,0-7.2,0c-0.1,0-0.1,0-0.2,0c0.1-0.1,0.2,0,0.2,0c2.4,0,4.7,0,7.1,0
		C127.6,21.6,127.7,21.6,127.7,21.6z"/>
	<path d="M103.8,21.7c-0.1,0-0.1,0-0.2,0c-2.3,0-4.6,0-7,0c0,0-0.1,0-0.1,0c0.1-0.1,0.2,0,0.2,0c2.3,0,4.5,0,6.8,0
		C103.7,21.6,103.8,21.6,103.8,21.7z"/>
	<path d="M99.7,40c0,0.3,0,0.6,0,0.9C99.6,40.6,99.6,40.3,99.7,40z"/>
	<path d="M102.5,41.3c-0.1-0.3-0.1-0.6,0-0.9C102.5,40.7,102.5,41,102.5,41.3z"/>
	<path d="M64.3,27.9c0-0.2,0-0.5,0-0.7C64.4,27.5,64.4,27.7,64.3,27.9z"/>
	<path d="M186.3,34.6c0-0.2,0-0.4,0-0.7C186.3,34.2,186.4,34.4,186.3,34.6z"/>
	<path d="M24.9,50.6c0.2,0,0.4,0,0.6,0C25.3,50.7,25.1,50.7,24.9,50.6z"/>
	<path d="M186.3,33.7c-0.1-0.2,0-0.4,0-0.6C186.4,33.3,186.3,33.5,186.3,33.7z"/>
	<path d="M43.3,33.8c0-0.2,0-0.4,0-0.6C43.4,33.4,43.4,33.6,43.3,33.8z"/>
	<path d="M120.6,40.6c0.1,0.2,0,0.4,0,0.5C120.6,41,120.7,40.8,120.6,40.6z"/>
	<path d="M190,24.9c0.1,0.2,0,0.3,0,0.5C190,25.3,190,25.1,190,24.9z"/>
	<path d="M43.4,32.8c-0.1-0.2,0-0.4,0-0.5C43.4,32.5,43.4,32.6,43.4,32.8z"/>
	<path d="M99.6,26.3c0.1,0.2,0,0.3,0,0.5C99.6,26.7,99.6,26.5,99.6,26.3z"/>
	<path d="M120.7,41.6c0,0.1,0,0.3,0,0.4C120.6,41.8,120.6,41.7,120.7,41.6z"/>
	<path d="M158.5,20.5c-0.1,0-0.3,0-0.4,0C158.2,20.4,158.3,20.4,158.5,20.5z"/>
	<path d="M190.1,24.4c0,0.1,0,0.3,0,0.4C190.1,24.7,190,24.6,190.1,24.4z"/>
	<path d="M158.8,26.1c0.1,0.1,0,0.2,0,0.3C158.8,26.3,158.8,26.2,158.8,26.1z"/>
	<path d="M157.2,29.1c0,0.1,0,0.2,0,0.3C157.1,29.3,157.1,29.2,157.2,29.1z"/>
	<path d="M49.4,41.6c0,0.1,0,0.2,0,0.3C49.4,41.8,49.3,41.7,49.4,41.6z"/>
	<path d="M199,50.8c0.1-0.1,0.2,0,0.2,0C199.1,50.8,199,50.8,199,50.8z"/>
	<path d="M189.5,41.7c0,0.1,0,0.2,0,0.2C189.5,41.9,189.5,41.8,189.5,41.7z"/>
	<path d="M125,41.7c-0.1-0.1,0-0.2,0-0.3C125,41.5,125,41.6,125,41.7z"/>
	<path d="M49.3,26.6c0.1,0.1,0,0.2,0,0.3C49.3,26.8,49.3,26.7,49.3,26.6z"/>
	<path d="M49.3,27.4c0.1,0.1,0,0.2,0,0.3C49.3,27.6,49.4,27.5,49.3,27.4z"/>
	<path d="M66.6,39c0-0.1,0-0.2,0-0.2C66.7,38.9,66.7,39,66.6,39z"/>
	<path d="M163.7,34.6c0.1,0.1,0,0.2,0,0.2C163.7,34.8,163.7,34.7,163.7,34.6z"/>
	<path d="M43.3,34.6c0-0.1,0-0.2,0-0.3C43.3,34.4,43.4,34.5,43.3,34.6z"/>
	<path d="M163.7,32.8c0,0.1,0,0.2,0,0.2C163.7,33,163.7,32.9,163.7,32.8z"/>
	<path d="M43.4,33.2c0-0.1,0-0.2,0-0.4c0-0.2,0-0.4,0-0.5c-0.1-1-0.2-1.9-0.4-2.9c-0.8-3.4-2.6-6.4-5.2-8.7c-1.2-1.1-2.6-1.9-4-2.6
		c-1.8-0.8-3.7-1.3-5.7-1.5c-1.1-0.1-2.1-0.1-3.2-0.1c-1.3,0.1-2.7,0.3-4,0.6c-1.1,0.3-2.3,0.7-3.3,1.2c-0.8,0.4-1.6,0.9-2.3,1.4
		c-0.6,0.5-1.3,0.9-1.8,1.5c-0.6,0.5-1.1,1.1-1.6,1.7c-0.5,0.6-1,1.3-1.4,2c-0.4,0.6-0.7,1.3-1,2c-0.2,0.4-0.4,0.9-0.5,1.3
		c-0.2,0.6-0.4,1.2-0.5,1.9c-0.1,0.5-0.2,1-0.2,1.6c0,0.2,0,0.5-0.1,0.7c0,0.6,0,1.2,0,1.8c0.1,0.1,0,0.2,0,0.3c0,0.1,0,0.2,0,0.3
		c0,0,0,0.1,0,0.1c0.1,0.1,0,0.3,0.1,0.5c0.1,0.5,0.1,1,0.2,1.5c0.2,1.1,0.5,2.2,0.9,3.2c0.4,1,0.9,2,1.5,2.9
		c0.4,0.6,0.8,1.1,1.2,1.6c0.3,0.4,0.6,0.7,0.9,1c0.3,0.3,0.6,0.6,0.9,0.8c0.5,0.4,1.1,0.9,1.6,1.3c0.7,0.5,1.5,0.9,2.3,1.3
		c0.8,0.4,1.6,0.7,2.5,0.9c0.6,0.2,1.2,0.3,1.8,0.4c0.4,0.1,0.9,0.2,1.4,0.2c0.5,0,1.1,0,1.6,0.1c0.2,0,0.4,0,0.6,0
		c0.4,0,0.8,0,1.2-0.1c1-0.1,1.9-0.2,2.8-0.4c1.5-0.3,3-0.8,4.4-1.4c2.1-1,3.9-2.4,5.4-4.1c0.9-1,1.7-2.2,2.3-3.4
		c1-2.1,1.6-4.3,1.8-6.7c0-0.1,0-0.2,0-0.3c0-0.2,0-0.4,0-0.5C43.4,33.6,43.3,33.4,43.4,33.2z M38,34.6c0,2.9-0.5,5.7-2.1,8.3
		c-1.6,2.6-3.9,4.2-6.9,4.8c-4.5,0.9-8.3-0.3-11.5-3.6c-1.5-1.5-2.5-3.3-3.2-5.4c-0.6-1.6-0.8-3.3-0.9-5.1c-0.1-1.9,0-3.8,0.5-5.7
		c0.5-2,1.4-3.9,2.8-5.4c1.5-1.7,3.4-2.8,5.7-3.3c4.1-0.9,7.7,0.1,10.8,2.9c1.9,1.6,3.1,3.7,3.9,6c0.6,1.8,0.9,3.8,1,5.7
		C38,34.2,38,34.4,38,34.6z"/>
	<path d="M66.6,38.8c-0.1-1.5-0.7-2.8-1.8-3.8c-0.9-0.8-1.9-1.4-3-1.8c-0.4-0.2-0.8-0.3-1.3-0.4c0.5-0.3,0.9-0.5,1.2-0.8
		c0.6-0.4,1.2-0.9,1.7-1.5c0.5-0.8,0.7-1.6,0.8-2.5c0-0.2,0-0.5,0-0.7c-0.1-0.9-0.3-1.7-0.8-2.4c-0.8-1.2-2-2-3.3-2.6
		c-1.1-0.5-2.2-0.6-3.4-0.7c-0.1,0-0.3,0-0.4,0c0,0,0,0,0,0c-0.1,0-0.2,0-0.3,0c-3.1,0-6.2,0-9.3,0c-0.1,0-0.2,0-0.3,0.1
		c-0.2,0.2-0.1,0.9,0.2,1c0.3,0.2,0.6,0.3,0.9,0.4c0.6,0.3,1.1,0.7,1.3,1.3c0.1,0.3,0.2,0.6,0.2,0.9c0.1,0.4,0.1,0.9,0.1,1.3
		c0,0.1,0,0.2,0,0.3c0,0.2,0,0.4,0,0.5c0,0.1,0,0.2,0,0.3c0,0.2,0,0.5,0,0.7c0,0.1,0,0.2,0,0.3c0,3.9,0,7.7,0,11.6
		c0,0.1,0,0.2,0,0.3c0,0.4,0,0.7,0,1.1c0,0.1,0,0.2,0,0.3c0,0,0,0.1,0,0.1c0,0.4-0.1,0.8-0.1,1.3c-0.1,0.6-0.3,1.1-0.7,1.5
		c-0.4,0.4-0.9,0.7-1.4,0.8c-0.5,0.2-0.6,0.5-0.5,1c0,0.2,0.1,0.2,0.3,0.2c3.4,0,6.7,0,10.1,0c0.2,0,0.4,0,0.6,0
		c0.1-0.1,0.2,0,0.3,0c0.3,0,0.7-0.1,1-0.1c1.6-0.3,3.1-0.8,4.4-1.8c1.1-0.8,1.9-1.7,2.5-2.8c0.5-1,0.7-2,0.8-3.1
		C66.6,39,66.6,38.9,66.6,38.8z M62.1,41.8c-0.4,1.4-1.3,2.3-2.7,2.8c-0.8,0.3-1.7,0.4-2.5,0.4c-1,0-2,0-2.9,0c-0.2,0-0.3,0-0.3-0.3
		c0-3.5,0-7.1,0-10.6c0-3.5,0-7.1,0-10.6c0-0.2,0.1-0.3,0.3-0.2c0.7,0,1.4,0,2.1,0c2,0.1,3.4,1.2,3.8,3.2c0.2,1,0.3,2,0.1,3
		c-0.3,1.6-1.3,2.5-2.8,2.9c-0.5,0.1-1,0.2-1.5,0.2c-0.5,0.1-0.9,0.2-1.1,0.6c0,0,0,0.1,0,0.1c-0.2,0.4-0.2,0.5,0.3,0.5
		c0.8,0,1.5,0,2.3,0c2.8,0.3,4.8,2.6,5.1,5C62.4,39.9,62.4,40.9,62.1,41.8z"/>
	<path d="M156.5,45.8c-0.3-0.1-0.6-0.3-0.8-0.4c-0.4-0.2-0.7-0.4-1-0.7c-0.6-0.7-1.1-1.5-1.5-2.3c-0.7-1.3-1.1-2.7-1.7-4.1
		c-0.7-1.6-1.3-3.2-1.9-4.8c-0.8-2-1.6-4-2.5-6c-0.8-1.9-1.6-3.9-2.4-5.8c-0.1-0.1-0.1-0.3-0.2-0.4c-0.3-0.2-0.6-0.3-1-0.3
		c-0.3,0-0.6,0.2-0.8,0.5c-0.1,0.3-0.2,0.6-0.4,0.9c-0.5,1.3-1,2.6-1.6,3.9c-0.5,1.3-1.1,2.6-1.6,3.9c-0.6,1.4-1.1,2.7-1.7,4.1
		c-0.5,1.3-1.1,2.6-1.6,3.9c-0.5,1.4-1.1,2.7-1.7,4c-0.4,0.9-0.9,1.7-1.6,2.4c-0.4,0.5-1,0.8-1.6,1c-0.6,0.2-0.7,0.5-0.7,0.9
		c0,0.2,0,0.3,0.3,0.3c2.8,0,5.6,0,8.4,0c0,0,0.1,0,0.1,0c0.1,0,0.1,0,0.1-0.1c0-0.5-0.1-0.9-0.8-1c-0.3,0-0.6-0.1-1-0.2
		c-0.3-0.1-0.5-0.3-0.6-0.7c-0.1-0.4-0.1-0.8,0-1.2c0.1-0.7,0.4-1.3,0.7-2c0.6-1.4,1.1-2.8,1.8-4.1c0.1-0.1,0.1-0.2,0.3-0.2
		c2.2,0,4.4,0,6.6,0c0.1,0,0.2,0,0.2,0.2c0.1,0.3,0.2,0.7,0.3,1c0.3,0.8,0.6,1.6,0.9,2.5c0.4,1,0.7,2.1,0.9,3.2
		c0.1,0.7-0.1,1.2-0.8,1.4c-0.3,0.1-0.5,0.1-0.8,0.2c-0.3,0-0.7,0.4-0.7,0.7c-0.1,0.4,0,0.4,0.4,0.4c1.7,0,3.3,0,5,0
		c1.4,0,2.8,0,4.1,0c0.4,0,0.7,0,1.1,0c0.1,0,0.1,0,0.2-0.1C157,46.4,156.8,46,156.5,45.8z M145.4,35.2c-1.6,0-3.3,0-4.9,0
		c-0.2,0-0.2-0.1-0.1-0.2c0.7-1.7,1.4-3.5,2.1-5.2c0.2-0.4,0.4-0.9,0.6-1.4c0.7,1.8,1.3,3.5,2,5.2c0.2,0.4,0.3,0.9,0.5,1.3
		C145.7,35.2,145.6,35.2,145.4,35.2z"/>
	<path d="M93.6,45.8c-0.2-0.1-0.5-0.2-0.7-0.3c-0.4-0.2-0.8-0.4-1.1-0.8c-0.6-0.6-1-1.4-1.4-2.1c-0.4-0.9-0.8-1.8-1.2-2.7
		c-0.7-1.9-1.5-3.7-2.3-5.6c-0.8-2.1-1.7-4.1-2.5-6.2c-0.8-2-1.6-3.9-2.4-5.9c-0.1-0.2-0.1-0.5-0.3-0.7c-0.3-0.3-0.7-0.4-1.1-0.3
		c-0.3,0-0.6,0.1-0.7,0.5c-0.5,1.1-0.9,2.3-1.4,3.4c-0.5,1.1-0.9,2.2-1.3,3.3c-0.4,1-0.8,2-1.2,2.9c-0.5,1.3-1,2.6-1.6,3.9
		c-0.4,1-0.8,2-1.2,3c-0.4,1-0.8,2.1-1.3,3.1c-0.5,1-0.9,2-1.6,2.9c-0.3,0.3-0.6,0.7-0.9,1c-0.4,0.3-0.8,0.5-1.3,0.7
		c-0.3,0.1-0.5,0.4-0.5,0.8c0,0.3,0.1,0.3,0.3,0.3c2.8,0,5.6,0,8.4,0c0.1,0,0.1,0,0.2,0c0.1,0,0.1,0,0.1-0.1c0-0.5-0.2-1-0.8-1
		c-0.3,0-0.7-0.1-1-0.2c-0.3-0.1-0.5-0.3-0.6-0.7c-0.1-0.6,0-1.2,0.2-1.8c0.7-1.9,1.4-3.7,2.3-5.5c0.1-0.2,0.2-0.2,0.3-0.2
		c1.9,0,3.9,0,5.8,0c0.3,0,0.6-0.1,0.8,0c0.2,0.1,0.2,0.5,0.3,0.7c0.3,0.9,0.7,1.8,1,2.7c0.4,1.1,0.7,2.2,0.9,3.3
		c0.1,0.5-0.1,1.1-0.6,1.3c-0.3,0.1-0.6,0.2-0.9,0.2c-0.5,0-0.8,0.4-0.8,0.9c0,0.2,0,0.2,0.2,0.2c1.7,0,3.4,0,5.1,0
		c0.9,0,1.7,0,2.6,0c0.9,0,1.7,0,2.6,0c0.1,0,0.2,0.1,0.2-0.1C94.1,46.4,93.9,46,93.6,45.8z M82.6,35.2c-1.7,0-3.3,0-5,0
		c-0.1,0-0.2,0-0.1-0.2c0.9-2.2,1.8-4.3,2.7-6.5c0,0,0,0,0.1-0.1c0.8,2.2,1.7,4.4,2.5,6.5C82.8,35.2,82.7,35.2,82.6,35.2z"/>
	<path d="M186.3,34c0-0.1,0-0.2,0-0.3c0-0.2,0-0.4,0-0.6c0-0.5-0.1-1.1-0.1-1.6c-0.1-1.1-0.4-2.1-0.7-3.1c-0.7-1.7-1.6-3.3-3-4.5
		c-0.7-0.6-1.5-1.2-2.3-1.6c-1.2-0.7-2.6-1-3.9-1.2c-0.1,0-0.2,0-0.2,0c0,0,0,0,0,0c-0.1,0-0.1,0-0.2,0c-0.9,0-1.8,0-2.7,0.1
		c-2.2,0.4-4,1.4-5.6,2.9c-0.4,0.4-0.7,0.8-1.1,1.2c-0.7,0.9-1.3,1.8-1.7,2.9c-0.3,0.8-0.6,1.6-0.8,2.5c-0.1,0.7-0.2,1.5-0.3,2.2
		c0,0.1,0,0.2,0,0.2c0,0.5,0,1,0,1.5c0,0.1,0,0.2,0,0.2c0,0.7,0.1,1.4,0.2,2.1c0.2,1.1,0.5,2.2,1,3.2c0.6,1.2,1.3,2.4,2.2,3.3
		c0.5,0.5,0.9,0.9,1.5,1.3c0.9,0.7,1.8,1.2,2.9,1.5c0.9,0.3,1.8,0.5,2.8,0.6c0.6,0,1.2,0,1.7,0c1.2-0.1,2.4-0.4,3.6-0.9
		c1.3-0.6,2.4-1.4,3.4-2.5c0.8-0.8,1.4-1.7,1.9-2.8c0.5-0.9,0.8-1.9,1-3c0.2-1,0.3-2,0.4-3C186.3,34.4,186.3,34.2,186.3,34z
		 M181.3,39.9c-0.3,1.1-0.8,2.1-1.4,3.1c-1.2,1.8-2.9,2.7-5.1,2.6c-2.1-0.1-3.7-1.2-4.8-2.9c-0.8-1.3-1.3-2.8-1.6-4.3
		c-0.4-1.9-0.4-3.8-0.4-5.7c0.1-1.9,0.3-3.7,0.9-5.5c0.4-1.1,0.9-2.1,1.6-3c1.2-1.5,2.8-2.1,4.7-2c2.3,0.1,3.9,1.3,5,3.3
		c0.9,1.6,1.3,3.4,1.5,5.2c0.1,1.1,0.2,2.1,0.2,3.1C182.1,35.9,181.9,37.9,181.3,39.9z"/>
  <path d="M208,40.7c-0.1-0.1,0-0.2,0-0.2c0-0.2-0.1-0.5-0.1-0.7c-0.2-1-0.5-1.9-1-2.7c-0.4-0.6-0.8-1.2-1.3-1.7
			c-0.8-0.9-1.6-1.7-2.6-2.3c-0.6-0.4-1.2-0.8-1.9-1.2c0.2-0.1,0.4-0.2,0.6-0.3c1.4-0.8,2.7-1.7,3.7-2.9c1-1.3,1.6-2.7,1.7-4.4
			c0.1-1.2-0.2-2.4-0.7-3.5c-0.4-0.8-1-1.5-1.7-2.1c-0.9-0.8-1.8-1.4-2.9-1.8c-1-0.3-2-0.5-3-0.5c-0.1,0-0.2,0-0.2,0
			c-0.4,0.1-0.8,0.1-1.2,0.2c-1.3,0.2-2.5,0.6-3.6,1.4c-0.7,0.5-1.3,1-1.8,1.6c-0.4,0.5-0.8,1.1-1.1,1.7c-0.5,1-0.7,2.1-0.8,3.2
			c0,0.1,0,0.3,0,0.4c0,0,0,0,0,0.1c0,0.2,0,0.4,0,0.5c0,0.3,0,0.5,0.1,0.8c0.1,0.6,0.2,1.1,0.4,1.7c0.4,0.9,0.9,1.7,1.6,2.4
			c0.4,0.4,0.9,0.8,1.4,1.2c0.5,0.4,1.1,0.8,1.7,1.1c0.4,0.3,0.9,0.5,1.4,0.8c-0.9,0.4-1.8,0.9-2.6,1.5c-0.7,0.5-1.3,1-1.9,1.6
			c-0.3,0.3-0.6,0.7-0.9,1c-0.4,0.5-0.8,1.1-1,1.8c-0.3,0.8-0.6,1.6-0.6,2.5c0,0.1,0,0.2,0,0.2c0,0.5,0,1.1,0.1,1.6
			c0.1,0.6,0.2,1.2,0.5,1.8c0.5,1.2,1.3,2.3,2.3,3.2c0.9,0.7,1.8,1.3,2.9,1.7c1,0.4,2,0.6,3.1,0.6c0.2,0,0.4,0,0.6,0
			c0.1,0,0.2,0,0.2,0c0.2,0,0.4,0,0.6-0.1c0.8-0.1,1.6-0.3,2.4-0.6c1.6-0.6,2.9-1.6,3.9-2.9c1.1-1.4,1.7-3.1,1.8-4.9
			c0-0.1,0-0.2,0-0.4c0-0.1,0-0.2,0-0.3C208,41.3,208,41,208,40.7z M194.9,27.3c-1.1-1.2-1.7-2.7-1.7-4.3c0-1,0.2-1.9,0.5-2.7
			c0.5-1.2,1.5-2,2.8-2.3c1.9-0.5,3.6-0.2,5.2,1c0.7,0.6,1.2,1.3,1.6,2.2c0.4,1.1,0.7,2.1,0.7,3.3c-0.1,2.5-1.1,4.5-3.1,6
			c-0.2,0.2-0.5,0.3-0.7,0.5c-0.1,0.1-0.1,0.1-0.2,0C198.1,30,196.3,28.8,194.9,27.3z M203.3,48c-0.6,0.7-1.5,1-2.4,1.2
			c-1.1,0.3-2.2,0.4-3.4,0c-0.8-0.3-1.6-0.7-2.2-1.2c-1.4-1.1-2-2.5-2.4-4.2c-0.3-1.7-0.2-3.4,0.4-5c0.6-1.5,1.5-2.7,2.8-3.7
			c0.5-0.3,0.9-0.6,1.4-0.9c0.1-0.1,0.2-0.1,0.3,0c1.8,1.1,3.5,2.4,5,3.9c1.2,1.2,2,2.7,2.2,4.5c0,0.3,0.1,0.5,0.1,0.8
			C205.1,45.2,204.5,46.7,203.3,48z"/>
</g>
</svg>
