<svg xmlns="http://www.w3.org/2000/svg" viewBox="0 0 215 67">
<path d="M135,37.4c-0.1,0-0.2,0.1-0.3,0.2l-2,4.9c-0.3,0.7-0.1,1.3,0.1,1.5c0.2,0.2,0.2,0.2,0.5,0.4l0.7,0.1c0.3,0,0.5,0.5,0.5,0.6
	c0.1,0.3-0.2,0.3-0.5,0.3c-0.9,0-3,0-3.9,0c-0.3,0-1.5,0-2.9,0c-0.4,0-0.4-0.1-0.4-0.3c0-0.2,0-0.4,0.2-0.6c0.1-0.1,0.4-0.2,0.7-0.3
	c0.5-0.2,1.1-0.6,1.9-1.9l7.3-17.4c0.5-1.5,0.7-1.3,1.2-1.4c0.2,0,0.8,0.2,1,1c0.7,1.5,5,12.2,6.7,16.5c1,2,1.2,2.4,1.6,2.8
	c0.3,0.3,0.5,0.5,0.8,0.6c0.5,0.2,0.8,0.4,0.9,0.5c0.3,0.2,0.2,0.5,0.2,0.5c-1,0-1.9,0-5.3,0c-2.3,0-3.6,0.1-3.6-0.1
	c0-0.2,0.1-0.9,0.5-0.9c1.6-0.1,1.7-0.8,1.5-1.3l-1.9-5.4c-0.1-0.1,0-0.3-0.2-0.3H135z M139.8,35.6c0.1,0,0.2-0.1,0.1-0.2l-2.1-5.3
	c0-0.1-0.1-0.2-0.1-0.2s-0.1,0.1-0.2,0.2l-2.2,5.4c0,0.1,0,0.1,0.1,0.1H139.8z"/>
<path d="M178.9,40.9c0-4.2,3-6.3,5.9-7.8c-4-2-5.7-3.9-5.6-7.5c0-2.9,2.2-6.6,6.9-6.9c3.7-0.2,7.5,2.4,7.5,6.1c0,3.9-3.3,6.3-5,7.1
	c2.2,1.4,5.9,3.4,5.9,8.1c0,4.4-3.4,7.9-7.5,7.9C183.1,47.9,178.9,45.5,178.9,40.9z M187.1,46.9c2.4,0,4.9-1.7,4.9-5.1
	c0-3.8-3.7-6.3-6.5-7.8c-1.6,1.2-4.3,2.9-4.1,6.7C181.7,45.2,184.6,46.9,187.1,46.9z M186.4,20c-3.5-0.2-4.6,2.4-4.6,4.5
	c0,2.3,1.5,4.6,5.8,6.7c0.9-0.5,3.5-1.7,3.4-5.5C190.9,21.7,188.3,20.1,186.4,20z"/>
<path d="M82.6,37.4c-0.1,0-0.2,0.1-0.3,0.2l-2,4.9c-0.3,0.7-0.1,1.3,0.1,1.5c0.2,0.2,0.2,0.2,0.5,0.4l0.7,0.1c0.3,0,0.5,0.5,0.5,0.6
	c0.1,0.3-0.2,0.3-0.5,0.3c-0.9,0-3,0-3.9,0c-0.3,0-1.5,0-2.9,0c-0.4,0-0.4-0.1-0.4-0.3c0-0.2,0-0.4,0.2-0.6c0.1-0.1,0.4-0.2,0.7-0.3
	c0.5-0.2,1.1-0.6,1.9-1.9l7.3-17.4c0.5-1.5,0.7-1.3,1.2-1.4c0.2,0,0.8,0.2,1,1c0.7,1.5,5,12.2,6.7,16.5c1,2,1.2,2.4,1.6,2.8
	c0.3,0.3,0.5,0.5,0.8,0.6c0.5,0.2,0.8,0.4,0.9,0.5c0.3,0.2,0.2,0.5,0.2,0.5c-1,0-1.9,0-5.3,0c-2.3,0-3.6,0.1-3.6-0.1
	c0-0.2,0.1-0.9,0.5-0.9c1.6-0.1,1.7-0.8,1.5-1.3l-1.9-5.4c-0.1-0.1,0-0.3-0.2-0.3H82.6z M87.4,35.6c0.1,0,0.2-0.1,0.1-0.2l-2.1-5.3
	c0-0.1-0.1-0.2-0.1-0.2s-0.1,0.1-0.2,0.2l-2.2,5.4c0,0.1,0,0.1,0.1,0.1H87.4z"/>
<path d="M62.5,33.5"/>
<path d="M67.6,33.2c2.1-1.4,3.2-2.4,3.1-4.7c-0.1-1.9-2.1-4.7-7.2-4.7c-1,0-2.1,0.1-3.5,0.1c-0.6,0-2.4-0.2-3.9-0.2
  c-0.4,0-0.7,0.2-0.7,0.4s0.2,0.5,0.5,0.7c0.2,0.1,0.6,0.1,0.9,0.4c0.6,0.4,0.7,0.7,0.9,1.3c0.3,0.8,0.2,1.4,0.2,5.7v5
  c0,2.6,0,4.8-0.2,5.9c0,0-0.1,0.6-0.6,1c0,0-0.5,0.4-0.7,0.5c-0.3,0.1-0.7,0.4-0.7,0.6c0,0.4-0.1,0.5,0.8,0.5c0.6,0,1.4,0,2.1,0
  c0.7,0,1.3,0,1.6,0c0.4,0,1.3,0,2.1,0c0.8,0,1.7,0,2,0c5.2,0,8.2-3.4,8.3-6.1C72.7,34.9,69.9,34,67.6,33.2z M64.8,43.5
  c-0.7,0-3,0.1-3.1-0.1c-0.1-0.2,0-0.6,0-2.5l0-6.7h0v-1.7v0v-7c0-0.3,0-0.4,0.2-0.5c0.3-0.1,0.7,0,1.1,0c2.4,0,4.2,0.9,4.2,4.2
  c0,1.2-0.2,2.1-1.2,2.9c-0.5,0.4-1.5,0.8-2.6,0.8c-0.4,0-0.9,0.3-0.9,0.6c-0.2,0.5,0.1,0.4,0.7,0.4c1.1,0,2.3-0.1,2.9,0.3
  c2.7,1.3,3.1,2.9,3.1,4.7C69.1,41.9,67.8,43.4,64.8,43.5z"/>
<path d="M123.6,43.9c-0.4-0.2-0.8-0.6-0.8-1.1s-0.3-1.4-0.3-3.1v-9.9c0-1.8,0.1-2.1,0.2-2.6c0.1-0.5,0.2-1,0.5-1.3
	c0.8-0.9,1.9-0.8,1.9-2h-6.4c0,0-0.4,3-6.5,15.4l-7.5-15.4h-6.2c-0.2,1.2,0.8,1.2,1.6,1.8c0.3,0.2,0.6,0.4,0.8,0.7
	c0.3,0.5,0.3,1,0.3,2.7v9.3c0,1.8-0.1,3-0.2,3.7s-0.3,1-0.7,1.3c-0.7,0.6-1.7,0.5-1.8,1.7l7,0.1c0.1-1.1-0.7-1.2-1.2-1.7
	c-0.5-0.5-0.7-0.8-0.8-1.4c-0.1-0.6-0.2-1.8-0.2-3.5v-9.1l7.3,15.6c0.1,0.2,0.3,0.3,0.5,0.3c0.2,0,0.3-0.1,0.4-0.3l7.1-15.7
	l0.1,10.3c0,1.8-0.1,2.5-0.5,3.2c-0.2,0.4-1.1,1-1.4,1.2c-0.3,0.2-0.7,0.5-0.6,1.2l8.4-0.1C125.1,44.6,123.9,44,123.6,43.9z"/>
<path d="M164.9,23.4c-5.3,0-9.7,4.9-9.7,11c0,6.9,4.3,11,9.7,11c5.9,0,9.7-4.9,9.7-11S170.9,23.4,164.9,23.4z M165,44.3
	c-4.2,0-5.9-4.5-5.9-10c0-7.3,2.7-10,5.9-10c3.3,0,5.7,3.1,5.9,10C171.1,39.8,169,44.3,165,44.3z"/>
<path d="M23.4,33.6c0-6.3,4.2-14.4,15.2-14.4c9.2,0,14.9,5.3,14.9,13.8c0,8.4-5.9,15.1-15.2,15.1C27.7,48,23.4,40.1,23.4,33.6z
	 M48.3,34.3c0-8.2-4.7-13.4-10.8-13.4c-4.2,0-9.1,2.4-9.1,11.5c0,7.7,4.2,13.7,11.3,13.7C42.4,46.2,48.3,44.9,48.3,34.3z"/>
<path d="M149.8,29.8c0.1-0.4,0.4-0.6,0.7-0.8c0.3-0.3,0.4-0.5,0.6-0.8c0.1-0.3,0.2-0.5,0.2-0.7c0-0.1,0-0.2,0-0.3
	c-0.1-0.6-0.4-1.1-0.8-1.6c-0.3-0.3-0.6-0.6-0.8-1c-0.4-0.6-0.3-1.4,0.3-1.9c0.2-0.2,0.4-0.3,0.7-0.3c0.1,0,0.3,0,0.3,0
	c0.8,0.2,1.4,0.7,1.8,1.4c0.3,0.7,0.5,1.4,0.4,2.1c-0.1,1.2-0.4,2.2-1.3,3.1c-0.5,0.5-1.2,0.8-1.9,1c-0.1,0-0.2,0-0.2-0.1
	C149.7,30,149.7,29.9,149.8,29.8z"/>
</svg>
