<svg xmlns="http://www.w3.org/2000/svg" viewBox="0 0 215 67">
	<path d="M193,40.9c0-0.1,0-0.2,0-0.3l0,0C193,40.8,193,40.8,193,40.9L193,40.9L193,40.9z"/>
	<path d="M23,34.5c0,0.1,0.1,0.2,0,0.3C23,34.6,23,34.5,23,34.5C23,34.4,23,34.4,23,34.5z"/>
	<path d="M23,34.5L23,34.5c0-0.1,0-0.2,0-0.3C23.1,34.3,23,34.4,23,34.5z"/>
	<path d="M193,40.7L193,40.7c0-0.1-0.1-0.2,0-0.3C193,40.5,193,40.6,193,40.7z"/>
	<path d="M193,39.6c-0.1-0.1,0-0.2,0-0.2l0,0C193,39.5,193,39.6,193,39.6z"/>
	<path d="M122.5,40.5c0,0.8,0.1,1.6,0.5,2.4c0.3,0.4,0.7,0.7,1.1,0.9c0.1,0,0.2,0.1,0.2,0.1c0.4,0.2,0.6,0.6,0.6,0.9
		c0,0.1,0,0.1-0.1,0.1h-0.1c-2.7,0-5.4,0-8.1,0c-0.2,0-0.3-0.1-0.2-0.3c0-0.4,0.3-0.6,0.6-0.8c0.6-0.2,1.1-0.5,1.4-1.2
		c0.2-0.3,0.3-0.8,0.3-1.2c0-0.3,0.1-0.5,0.1-0.8c0-0.1,0-0.3,0-0.3c0-0.1,0-0.2,0-0.3c0-0.2,0-0.3,0-0.4c0-0.2,0-0.4,0-0.6
		c0-3.2,0-6.5,0-9.6c0-0.1,0-0.2,0-0.3c-0.1,0.2-0.2,0.3-0.3,0.4c-0.5,1.1-1,2.2-1.5,3.3c-0.7,1.6-1.4,3.1-2.1,4.8
		c-0.5,1.1-0.9,2.1-1.4,3.2c-0.6,1.4-1.2,2.6-1.8,4c-0.1,0.2-0.2,0.3-0.4,0.3c-0.2,0-0.3-0.1-0.5-0.3c-0.7-1.5-1.4-3.1-2.2-4.6
		c-0.4-0.8-0.8-1.7-1.2-2.6c-1-2.3-2.1-4.5-3.1-6.8c-0.3-0.5-0.5-1.1-0.8-1.6c0,0.1,0,0.2,0,0.2c0,3.1,0,6.4,0,9.5
		c0,0.2,0,0.3,0,0.5c0,0.3,0,0.5,0,0.8c0,0.9,0.1,1.9,0.6,2.7c0.2,0.3,0.5,0.4,0.8,0.7c0.2,0.1,0.3,0.3,0.5,0.3
		c0.3,0.3,0.3,0.6,0.3,0.9c0,0.1,0,0.1-0.1,0.1h-0.1c-2.2,0-4.5,0-6.7,0c-0.2,0-0.3-0.1-0.2-0.2c0-0.3,0.3-0.8,0.7-0.9
		c0.5-0.2,0.9-0.5,1.3-0.9c0.3-0.3,0.3-0.8,0.4-1.1c0.1-0.6,0.2-1.2,0.2-1.8v-0.1c0.1-0.3,0-0.5,0-0.8c0-0.1,0-0.1,0-0.2
		c0-3.7,0-7.3,0-11v-0.1c0-0.2,0-0.3,0-0.4c-0.1-0.6-0.2-1.2-0.6-1.6c-0.4-0.5-0.9-0.8-1.5-1c-0.1-0.1-0.3,0-0.3-0.2
		c-0.1-0.3-0.3-0.4-0.3-0.7c0-0.2,0-0.3,0-0.4c0.1,0,0.2,0,0.2,0c2,0,3.8,0,5.8,0c0.1,0,0.2,0,0.2,0c0.3,0.5,0.5,1,0.8,1.6
		c0.9,2,2,4.1,2.9,6.1c0.6,1.2,1.1,2.4,1.7,3.5c0.6,1.4,1.3,2.6,1.9,4c0,0.1,0,0.2,0.2,0.2c0.1,0,0.1-0.1,0.1-0.2
		c0.3-0.8,0.8-1.7,1.2-2.5c0.7-1.5,1.4-3,2.1-4.5c0.4-0.9,0.9-1.9,1.4-2.8c0.3-0.7,0.6-1.4,0.8-2c0.2-0.5,0.3-1,0.5-1.5
		c0.2-0.6,0.3-1.2,0.4-1.8c0,0,0,0,0-0.1c0.1,0,0.1,0,0.2,0c2,0,4.1,0,6,0c0.1,0,0.1,0,0.2,0c0.1,0.3,0,0.6-0.2,0.9
		c-0.1,0.1-0.2,0.2-0.3,0.3c-0.3,0.1-0.7,0.3-1,0.5c-0.5,0.3-0.8,0.8-0.8,1.4c-0.2,0.8-0.2,1.7-0.1,2.5c0,0.1,0,0.2,0,0.3
		c0,3.3,0,6.6,0,9.9c0,0.1,0,0.2,0,0.3C122.5,40,122.5,40.2,122.5,40.5C122.5,40.3,122.4,40.4,122.5,40.5z"/>
	<path d="M149.8,29.8c0.1-0.4,0.4-0.6,0.7-0.8c0.3-0.3,0.4-0.5,0.6-0.8c0.1-0.3,0.2-0.5,0.2-0.7c0-0.1,0-0.2,0-0.3
		c-0.1-0.6-0.4-1.1-0.8-1.6c-0.3-0.3-0.6-0.6-0.8-1c-0.4-0.6-0.3-1.4,0.3-1.9c0.2-0.2,0.4-0.3,0.7-0.3c0.1,0,0.3,0,0.3,0
		c0.8,0.2,1.4,0.7,1.8,1.4c0.3,0.7,0.5,1.4,0.4,2.1c-0.1,1.2-0.4,2.2-1.3,3.1c-0.5,0.5-1.2,0.8-1.9,1c-0.1,0-0.2,0-0.2-0.1
		C149.7,30,149.7,29.9,149.8,29.8z"/>
	<path d="M122.4,39.6c0-0.1,0-0.1,0-0.2c0-3.4,0-6.8,0-10.3c0.1,0.1,0,0.1,0,0.2c0,3.4,0,6.8,0,10.1
		C122.4,39.5,122.4,39.5,122.4,39.6z"/>
	<path d="M58.2,29.2c0.1,0.1,0,0.2,0,0.2c0,3.3,0,6.6,0,9.9c0,0.1,0,0.2,0,0.2c0-1.4,0-2.8,0-4.2C58.2,33.2,58.2,31.2,58.2,29.2z"/>
	<path d="M124.7,23.4c-0.1,0-0.1,0-0.2,0c-2,0-4.1,0-6.1,0c-0.1,0-0.1,0-0.2,0c0.1-0.1,0.2,0,0.2,0c2,0,4,0,6,0
		C124.7,23.4,124.7,23.4,124.7,23.4z"/>
	<path d="M104.4,23.5c-0.1,0-0.1,0-0.2,0c-2,0-3.9,0-5.9,0h-0.1c0.1-0.1,0.2,0,0.2,0c2,0,3.8,0,5.8,0
		C104.4,23.4,104.4,23.4,104.4,23.5z"/>
	<path d="M101,39.1c0,0.3,0,0.5,0,0.8C100.9,39.6,100.9,39.3,101,39.1z"/>
	<path d="M103.3,40.2c-0.1-0.3-0.1-0.5,0-0.8C103.3,39.6,103.3,39.9,103.3,40.2z"/>
	<path d="M70.9,28.8c0-0.2,0-0.4,0-0.6C71,28.4,71,28.6,70.9,28.8z"/>
	<path d="M174.5,34.5c0-0.2,0-0.3,0-0.6C174.5,34.1,174.6,34.3,174.5,34.5z"/>
	<path d="M37.4,48.1c0.2,0,0.3,0,0.5,0C37.7,48.1,37.6,48.1,37.4,48.1z"/>
	<path d="M174.5,33.7c-0.1-0.2,0-0.3,0-0.5C174.6,33.4,174.5,33.5,174.5,33.7z"/>
	<path d="M53,33.8c0-0.2,0-0.3,0-0.5C53.1,33.4,53.1,33.6,53,33.8z"/>
	<path d="M118.7,39.6c0.1,0.2,0,0.3,0,0.4C118.7,39.9,118.8,39.7,118.7,39.6z"/>
	<path d="M177.7,26.2c0.1,0.2,0,0.3,0,0.4C177.7,26.6,177.7,26.4,177.7,26.2z"/>
	<path d="M53.1,32.9c-0.1-0.2,0-0.3,0-0.4C53.1,32.7,53.1,32.8,53.1,32.9z"/>
	<path d="M100.9,27.4c0.1,0.2,0,0.3,0,0.4C100.9,27.8,100.9,27.6,100.9,27.4z"/>
	<path d="M118.8,40.4c0,0.1,0,0.3,0,0.3C118.7,40.6,118.7,40.5,118.8,40.4z"/>
	<path d="M150.9,22.5c-0.1,0-0.3,0-0.3,0C150.7,22.4,150.7,22.4,150.9,22.5z"/>
	<path d="M177.8,25.8c0,0.1,0,0.3,0,0.3C177.8,26.1,177.7,26,177.8,25.8z"/>
	<path d="M151.2,27.2c0.1,0.1,0,0.2,0,0.3C151.2,27.4,151.2,27.3,151.2,27.2z"/>
	<path d="M149.8,29.8c0,0.1,0,0.2,0,0.3C149.7,30,149.7,29.9,149.8,29.8z"/>
	<path d="M58.2,40.4c0,0.1,0,0.2,0,0.3C58.2,40.6,58.1,40.5,58.2,40.4z"/>
	<path d="M185.3,48.2c0.1-0.1,0.2,0,0.2,0C185.4,48.2,185.3,48.2,185.3,48.2z"/>
	<path d="M177.2,40.5c0,0.1,0,0.2,0,0.2S177.2,40.6,177.2,40.5z"/>
	<path d="M122.5,40.5c-0.1-0.1,0-0.2,0-0.3C122.5,40.3,122.5,40.4,122.5,40.5z"/>
	<path d="M58.1,27.7c0.1,0.1,0,0.2,0,0.3C58.1,27.8,58.1,27.8,58.1,27.7z"/>
	<path d="M58.1,28.3c0.1,0.1,0,0.2,0,0.3C58.1,28.5,58.2,28.4,58.1,28.3z"/>
	<path d="M72.8,38.2c0-0.1,0-0.2,0-0.2C72.9,38.1,72.9,38.2,72.8,38.2z"/>
	<path d="M155.3,34.5c0.1,0.1,0,0.2,0,0.2S155.3,34.5,155.3,34.5z"/>
	<path d="M53,34.5c0-0.1,0-0.2,0-0.3C53,34.3,53.1,34.4,53,34.5z"/>
	<path d="M155.3,32.9c0,0.1,0,0.2,0,0.2S155.3,33,155.3,32.9z"/>
	<path d="M53.1,33.3c0-0.1,0-0.2,0-0.3c0-0.2,0-0.3,0-0.4C53,31.7,53,30.9,52.8,30c-0.7-2.9-2.2-5.4-4.4-7.4c-1-0.9-2.2-1.6-3.4-2.2
		c-1.5-0.7-3.1-1.1-4.8-1.3c-0.9-0.1-1.8-0.1-2.7-0.1c-1.1,0.1-2.3,0.3-3.4,0.5c-0.9,0.3-2,0.6-2.8,1c-0.7,0.3-1.4,0.8-2,1.2
		c-0.5,0.4-1.1,0.8-1.5,1.3c-0.5,0.4-0.9,0.9-1.4,1.4c-0.4,0.5-0.8,1.1-1.2,1.7c-0.3,0.5-0.6,1.1-0.8,1.7c-0.2,0.3-0.3,0.8-0.4,1.1
		c-0.2,0.5-0.3,1-0.4,1.6c-0.1,0.4-0.2,0.8-0.2,1.4c0,0.2,0,0.4-0.1,0.6c0,0.5,0,1,0,1.5c0.1,0.1,0,0.2,0,0.3c0,0.1,0,0.2,0,0.3v0.1
		c0.1,0.1,0,0.3,0.1,0.4c0.1,0.4,0.1,0.8,0.2,1.3c0.2,0.9,0.4,1.9,0.8,2.7s0.8,1.7,1.3,2.5c0.3,0.5,0.7,0.9,1,1.4
		c0.3,0.3,0.5,0.6,0.8,0.8c0.3,0.3,0.5,0.5,0.8,0.7c0.4,0.3,0.9,0.8,1.4,1.1c0.6,0.4,1.3,0.8,2,1.1c0.7,0.3,1.4,0.6,2.1,0.8
		c0.5,0.2,1,0.3,1.5,0.3c0.3,0.1,0.8,0.2,1.2,0.2c0.4,0,0.9,0,1.4,0.1c0.2,0,0.3,0,0.5,0c0.3,0,0.7,0,1-0.1c0.8-0.1,1.6-0.2,2.4-0.3
		c1.3-0.3,2.5-0.7,3.7-1.2c1.8-0.8,3.3-2,4.6-3.5c0.8-0.8,1.4-1.9,2-2.9c0.8-1.8,1.4-3.7,1.5-5.7c0-0.1,0-0.2,0-0.3
		c0-0.2,0-0.3,0-0.4C53.1,33.6,53,33.4,53.1,33.3z M48.5,34.5c0,2.5-0.4,4.8-1.8,7.1c-1.4,2.2-3.3,3.6-5.9,4.1
		c-3.8,0.8-7.1-0.3-9.8-3.1c-1.3-1.3-2.1-2.8-2.7-4.6c-0.5-1.4-0.7-2.8-0.8-4.3c-0.1-1.6,0-3.2,0.4-4.8c0.4-1.7,1.2-3.3,2.4-4.6
		c1.3-1.4,2.9-2.4,4.8-2.8c3.5-0.8,6.5,0.1,9.2,2.5c1.6,1.4,2.6,3.1,3.3,5.1c0.5,1.5,0.8,3.2,0.8,4.8C48.5,34.1,48.5,34.3,48.5,34.5
		z"/>
	<path d="M72.8,38c-0.1-1.3-0.6-2.4-1.5-3.2c-0.8-0.7-1.6-1.2-2.5-1.5c-0.3-0.2-0.7-0.3-1.1-0.3c0.4-0.3,0.8-0.4,1-0.7
		c0.5-0.3,1-0.8,1.4-1.3c0.4-0.7,0.6-1.4,0.7-2.1c0-0.2,0-0.4,0-0.6c-0.1-0.8-0.3-1.4-0.7-2c-0.7-1-1.7-1.7-2.8-2.2
		c-0.9-0.4-1.9-0.5-2.9-0.6c-0.1,0-0.3,0-0.3,0l0,0c-0.1,0-0.2,0-0.3,0c-2.6,0-5.3,0-7.9,0c-0.1,0-0.2,0-0.3,0.1
		c-0.2,0.2-0.1,0.8,0.2,0.8c0.3,0.2,0.5,0.3,0.8,0.3c0.5,0.3,0.9,0.6,1.1,1.1c0.1,0.3,0.2,0.5,0.2,0.8c0.1,0.3,0.1,0.8,0.1,1.1
		c0,0.1,0,0.2,0,0.3c0,0.2,0,0.3,0,0.4c0,0.1,0,0.2,0,0.3c0,0.2,0,0.4,0,0.6c0,0.1,0,0.2,0,0.3c0,3.3,0,6.5,0,9.9c0,0.1,0,0.2,0,0.3
		c0,0.3,0,0.6,0,0.9c0,0.1,0,0.2,0,0.3v0.1c0,0.3-0.1,0.7-0.1,1.1c-0.1,0.5-0.3,0.9-0.6,1.3c-0.3,0.3-0.8,0.6-1.2,0.7
		c-0.4,0.2-0.5,0.4-0.4,0.8c0,0.2,0.1,0.2,0.3,0.2c2.9,0,5.7,0,8.6,0c0.2,0,0.3,0,0.5,0c0.1-0.1,0.2,0,0.3,0c0.3,0,0.6-0.1,0.8-0.1
		c1.4-0.3,2.6-0.7,3.7-1.5c0.9-0.7,1.6-1.4,2.1-2.4c0.4-0.8,0.6-1.7,0.7-2.6C72.8,38.2,72.8,38.1,72.8,38z M69,40.6
		c-0.3,1.2-1.1,2-2.3,2.4c-0.7,0.3-1.4,0.3-2.1,0.3c-0.8,0-1.7,0-2.5,0c-0.2,0-0.3,0-0.3-0.3c0-3,0-6,0-9s0-6,0-9
		c0-0.2,0.1-0.3,0.3-0.2c0.6,0,1.2,0,1.8,0c1.7,0.1,2.9,1,3.2,2.7c0.2,0.8,0.3,1.7,0.1,2.5c-0.3,1.4-1.1,2.1-2.4,2.5
		c-0.4,0.1-0.8,0.2-1.3,0.2c-0.4,0.1-0.8,0.2-0.9,0.5v0.1c-0.2,0.3-0.2,0.4,0.3,0.4c0.7,0,1.3,0,2,0c2.4,0.3,4.1,2.2,4.3,4.2
		C69.3,39,69.3,39.8,69,40.6z"/>
	<path d="M149.2,44c-0.3-0.1-0.5-0.3-0.7-0.3c-0.3-0.2-0.6-0.3-0.8-0.6c-0.5-0.6-0.9-1.3-1.3-2c-0.6-1.1-0.9-2.3-1.4-3.5
		c-0.6-1.4-1.1-2.7-1.6-4.1c-0.7-1.7-1.4-3.4-2.1-5.1c-0.7-1.6-1.4-3.3-2-4.9c-0.1-0.1-0.1-0.3-0.2-0.3c-0.3-0.2-0.5-0.3-0.8-0.3
		c-0.3,0-0.5,0.2-0.7,0.4c-0.1,0.3-0.2,0.5-0.3,0.8c-0.4,1.1-0.8,2.2-1.4,3.3c-0.4,1.1-0.9,2.2-1.4,3.3c-0.5,1.2-0.9,2.3-1.4,3.5
		c-0.4,1.1-0.9,2.2-1.4,3.3c-0.4,1.2-0.9,2.3-1.4,3.4c-0.3,0.8-0.8,1.4-1.4,2c-0.3,0.4-0.8,0.7-1.4,0.8c-0.5,0.2-0.6,0.4-0.6,0.8
		c0,0.2,0,0.3,0.3,0.3c2.4,0,4.8,0,7.1,0h0.1c0.1,0,0.1,0,0.1-0.1c0-0.4-0.1-0.8-0.7-0.8c-0.3,0-0.5-0.1-0.8-0.2
		c-0.3-0.1-0.4-0.3-0.5-0.6c-0.1-0.3-0.1-0.7,0-1c0.1-0.6,0.3-1.1,0.6-1.7c0.5-1.2,0.9-2.4,1.5-3.5c0.1-0.1,0.1-0.2,0.3-0.2
		c1.9,0,3.7,0,5.6,0c0.1,0,0.2,0,0.2,0.2c0.1,0.3,0.2,0.6,0.3,0.8c0.3,0.7,0.5,1.4,0.8,2.1c0.3,0.8,0.6,1.8,0.8,2.7
		c0.1,0.6-0.1,1-0.7,1.2c-0.3,0.1-0.4,0.1-0.7,0.2c-0.3,0-0.6,0.3-0.6,0.6c-0.1,0.3,0,0.3,0.3,0.3c1.4,0,2.8,0,4.2,0
		c1.2,0,2.4,0,3.5,0c0.3,0,0.6,0,0.9,0c0.1,0,0.1,0,0.2-0.1C149.6,44.5,149.5,44.1,149.2,44z M139.8,35c-1.4,0-2.8,0-4.2,0
		c-0.2,0-0.2-0.1-0.1-0.2c0.6-1.4,1.2-3,1.8-4.4c0.2-0.3,0.3-0.8,0.5-1.2c0.6,1.5,1.1,3,1.7,4.4c0.2,0.3,0.3,0.8,0.4,1.1
		C140,35,140,35,139.8,35z"/>
	<path d="M95.8,44c-0.2-0.1-0.4-0.2-0.6-0.3c-0.3-0.2-0.7-0.3-0.9-0.7c-0.5-0.5-0.8-1.2-1.2-1.8c-0.3-0.8-0.7-1.5-1-2.3
		c-0.6-1.6-1.3-3.1-2-4.8c-0.7-1.8-1.4-3.5-2.1-5.3c-0.7-1.7-1.4-3.3-2-5c-0.1-0.2-0.1-0.4-0.3-0.6c-0.3-0.3-0.6-0.3-0.9-0.3
		c-0.3,0-0.5,0.1-0.6,0.4c-0.4,0.9-0.8,2-1.2,2.9c-0.4,0.9-0.8,1.9-1.1,2.8c-0.3,0.8-0.7,1.7-1,2.5c-0.4,1.1-0.8,2.2-1.4,3.3
		c-0.3,0.8-0.7,1.7-1,2.5c-0.3,0.8-0.7,1.8-1.1,2.6c-0.4,0.8-0.8,1.7-1.4,2.5c-0.3,0.3-0.5,0.6-0.8,0.8c-0.3,0.3-0.7,0.4-1.1,0.6
		c-0.3,0.1-0.4,0.3-0.4,0.7c0,0.3,0.1,0.3,0.3,0.3c2.4,0,4.8,0,7.1,0c0.1,0,0.1,0,0.2,0c0.1,0,0.1,0,0.1-0.1c0-0.4-0.2-0.8-0.7-0.8
		c-0.3,0-0.6-0.1-0.8-0.2s-0.4-0.3-0.5-0.6c-0.1-0.5,0-1,0.2-1.5c0.6-1.6,1.2-3.1,2-4.7c0.1-0.2,0.2-0.2,0.3-0.2c1.6,0,3.3,0,4.9,0
		c0.3,0,0.5-0.1,0.7,0c0.2,0.1,0.2,0.4,0.3,0.6c0.3,0.8,0.6,1.5,0.8,2.3c0.3,0.9,0.6,1.9,0.8,2.8c0.1,0.4-0.1,0.9-0.5,1.1
		c-0.3,0.1-0.5,0.2-0.8,0.2c-0.4,0-0.7,0.3-0.7,0.8c0,0.2,0,0.2,0.2,0.2c1.4,0,2.9,0,4.3,0c0.8,0,1.4,0,2.2,0s1.4,0,2.2,0
		c0.1,0,0.2,0.1,0.2-0.1C96.2,44.5,96,44.1,95.8,44z M86.4,35c-1.4,0-2.8,0-4.2,0c-0.1,0-0.2,0-0.1-0.2c0.8-1.9,1.5-3.7,2.3-5.5
		c0,0,0,0,0.1-0.1c0.7,1.9,1.4,3.7,2.1,5.5C86.6,35,86.5,35,86.4,35z"/>
	<path d="M174.5,34c0-0.1,0-0.2,0-0.3c0-0.2,0-0.3,0-0.5c0-0.4-0.1-0.9-0.1-1.4c-0.1-0.9-0.3-1.8-0.6-2.6c-0.6-1.4-1.4-2.8-2.5-3.8
		c-0.6-0.5-1.3-1-2-1.4c-1-0.6-2.2-0.8-3.3-1c-0.1,0-0.2,0-0.2,0l0,0c-0.1,0-0.1,0-0.2,0c-0.8,0-1.5,0-2.3,0.1
		c-1.9,0.3-3.4,1.2-4.8,2.5c-0.3,0.3-0.6,0.7-0.9,1c-0.6,0.8-1.1,1.5-1.4,2.5c-0.3,0.7-0.5,1.4-0.7,2.1c-0.1,0.6-0.2,1.3-0.3,1.9
		c0,0.1,0,0.2,0,0.2c0,0.4,0,0.8,0,1.3c0,0.1,0,0.2,0,0.2c0,0.6,0.1,1.2,0.2,1.8c0.2,0.9,0.4,1.9,0.8,2.7c0.5,1,1.1,2,1.9,2.8
		c0.4,0.4,0.8,0.8,1.3,1.1c0.8,0.6,1.5,1,2.5,1.3c0.8,0.3,1.5,0.4,2.4,0.5c0.5,0,1,0,1.4,0c1-0.1,2-0.3,3.1-0.8
		c1.1-0.5,2-1.2,2.9-2.1c0.7-0.7,1.2-1.4,1.6-2.4c0.4-0.8,0.7-1.6,0.8-2.5c0.2-0.8,0.3-1.7,0.3-2.5C174.5,34.3,174.5,34.1,174.5,34z
		 M170.3,39c-0.3,0.9-0.7,1.8-1.2,2.6c-1,1.5-2.5,2.3-4.3,2.2c-1.8-0.1-3.1-1-4.1-2.5c-0.7-1.1-1.1-2.4-1.4-3.7
		c-0.3-1.6-0.3-3.2-0.3-4.8c0.1-1.6,0.3-3.1,0.8-4.7c0.3-0.9,0.8-1.8,1.4-2.5c1-1.3,2.4-1.8,4-1.7c2,0.1,3.3,1.1,4.2,2.8
		c0.8,1.4,1.1,2.9,1.3,4.4c0.1,0.9,0.2,1.8,0.2,2.6C171,35.6,170.8,37.3,170.3,39z"/>
	<path d="M193,39.6c-0.1-0.1,0-0.2,0-0.2c0-0.2-0.1-0.4-0.1-0.6c-0.2-0.8-0.4-1.6-0.8-2.3c-0.3-0.5-0.7-1-1.1-1.4
		c-0.7-0.8-1.4-1.4-2.2-2c-0.5-0.3-1-0.7-1.6-1c0.2-0.1,0.3-0.2,0.5-0.3c1.2-0.7,2.3-1.4,3.1-2.5c0.8-1.1,1.4-2.3,1.4-3.7
		c0.1-1-0.2-2-0.6-3c-0.3-0.7-0.8-1.3-1.4-1.8c-0.8-0.7-1.5-1.2-2.5-1.5c-0.8-0.3-1.7-0.4-2.5-0.4c-0.1,0-0.2,0-0.2,0
		c-0.3,0.1-0.7,0.1-1,0.2c-1.1,0.2-2.1,0.5-3.1,1.2c-0.6,0.4-1.1,0.8-1.5,1.4c-0.3,0.4-0.7,0.9-0.9,1.4c-0.4,0.8-0.6,1.8-0.7,2.7
		c0,0.1,0,0.3,0,0.3c0,0,0,0,0,0.1c0,0.2,0,0.3,0,0.4c0,0.3,0,0.4,0.1,0.7c0.1,0.5,0.2,0.9,0.3,1.4c0.3,0.8,0.8,1.4,1.4,2
		c0.3,0.3,0.8,0.7,1.2,1c0.4,0.3,0.9,0.7,1.4,0.9c0.3,0.3,0.8,0.4,1.2,0.7c-0.8,0.3-1.5,0.8-2.2,1.3c-0.6,0.4-1.1,0.8-1.6,1.4
		c-0.3,0.3-0.5,0.6-0.8,0.8c-0.3,0.4-0.7,0.9-0.8,1.5c-0.3,0.7-0.5,1.4-0.5,2.1c0,0.1,0,0.2,0,0.2c0,0.4,0,0.9,0.1,1.4
		c0.1,0.5,0.2,1,0.4,1.5c0.4,1,1.1,2,2,2.7c0.8,0.6,1.5,1.1,2.5,1.4c0.8,0.3,1.7,0.5,2.6,0.5c0.2,0,0.3,0,0.5,0c0.1,0,0.2,0,0.2,0
		c0.2,0,0.3,0,0.5-0.1c0.7-0.1,1.4-0.3,2-0.5c1.4-0.5,2.5-1.4,3.3-2.5c0.9-1.2,1.4-2.6,1.5-4.2c0-0.1,0-0.2,0-0.3c0-0.1,0-0.2,0-0.3
		C193,40.2,193,39.9,193,39.6z M181.8,28.3c-0.9-1-1.4-2.3-1.4-3.7c0-0.8,0.2-1.6,0.4-2.3c0.4-1,1.3-1.7,2.4-2
		c1.6-0.4,3.1-0.2,4.4,0.8c0.6,0.5,1,1.1,1.4,1.9c0.3,0.9,0.6,1.8,0.6,2.8c-0.1,2.1-0.9,3.8-2.6,5.1c-0.2,0.2-0.4,0.3-0.6,0.4
		c-0.1,0.1-0.1,0.1-0.2,0C184.6,30.6,183,29.5,181.8,28.3z M189,45.8c-0.5,0.6-1.3,0.8-2,1c-0.9,0.3-1.9,0.3-2.9,0
		c-0.7-0.3-1.4-0.6-1.9-1c-1.2-0.9-1.7-2.1-2-3.6c-0.3-1.4-0.2-2.9,0.3-4.2c0.5-1.3,1.3-2.3,2.4-3.1c0.4-0.3,0.8-0.5,1.2-0.8
		c0.1-0.1,0.2-0.1,0.3,0c1.5,0.9,3,2,4.2,3.3c1,1,1.7,2.3,1.9,3.8c0,0.3,0.1,0.4,0.1,0.7C190.5,43.5,190,44.7,189,45.8z"/>
</svg>
