<svg xmlns="http://www.w3.org/2000/svg" viewBox="0 0 215 67">
  <path d="M34.403,31.908H28.32v-0.625h1.672c0.255,0,0.463-0.047,0.463-0.234V17.88c-1.392,0-4.435-0.022-4.945,1.139
		c-0.07,0.137-0.139,0.3-0.301,0.3c-0.116,0-0.233-0.044-0.233-0.184c0-0.115,0.047-0.347,0.627-1.974h11.217
		c0.582,1.627,0.628,1.858,0.628,1.974c0,0.14-0.116,0.184-0.233,0.184c-0.162,0-0.232-0.163-0.302-0.3
		c-0.51-1.16-3.554-1.139-4.945-1.139v10.009c0,3.322,0.255,3.394,0.765,3.394h1.671L34.403,31.908L34.403,31.908z"/>
	<path d="M40.507,20.688c0-2.345-0.062-2.759-0.576-2.759h-1.214v-0.554h5.432c2.676,0,4.054,1.666,4.054,3.395
		c0,2.016-1.462,3.17-3.334,3.519c2.036,2.921,3.539,4.835,4.197,5.37c0.289,0.226,0.515,0.226,1.173,0.226v0.554h-2.119
		c-0.432,0-0.557-0.163-4.589-5.904h-1.687v2.345c0,2.943,0.225,3.005,0.678,3.005h1.152v0.554h-4.423v-0.554h0.844
		c0.226,0,0.41-0.042,0.41-0.206V20.688z M41.845,23.98h1.152c1.83,0,3.869-0.616,3.869-2.858c0-0.824-0.393-3.067-3.376-3.067
		h-0.885c-0.39,0-0.761,0-0.761,0.203L41.845,23.98L41.845,23.98z"/>
	<path d="M51.367,17.376h9.671l-0.205,1.419c-0.041,0.247-0.041,0.35-0.186,0.35c-0.164,0-0.184-0.123-0.205-0.246
		c-0.041-0.33-0.289-0.453-0.617-0.557c-0.863-0.269-2.098-0.289-3.044-0.289h-1.523c-0.391,0-0.761,0-0.761,0.204v4.692h1.956
		c2.941,0,3.064-0.226,3.064-0.678V21.45h0.515v3.415h-0.515v-0.76c0-0.475,0-0.537-2.407-0.537h-2.613v3.313
		c0,2.879,0.143,2.879,0.843,2.879h1.316c1.01,0,4.076,0,4.486-1.005c0.042-0.106,0.084-0.206,0.226-0.206
		c0.084,0,0.145,0.062,0.145,0.143c0,0.125-0.247,0.887-0.514,1.749h-9.095v-0.555h0.843c0.226,0,0.41-0.042,0.41-0.206v-8.99
		c0-2.346-0.062-2.76-0.575-2.76h-1.215V17.376z"/>
	<path d="M66.444,25.442c-0.719,1.788-1.233,3.375-1.233,3.928c0,0.166,0.02,0.516,0.514,0.516h0.823h0.515v0.554h-4.177v-0.554
		c0.968,0,1.029,0,1.194-0.41l5.205-12.347c0.452-0.143,0.926-0.226,1.07-0.226c0.082,0,0.123,0.061,0.123,0.144
		c0,0.246-0.35,0.204-0.35,0.636c0,0.824,2.9,9.094,3.662,10.904c0.289,0.682,0.557,1.298,1.01,1.298h0.76v0.554h-4.237v-0.554
		h1.028c0.35,0,0.39-0.042,0.39-0.206c0-0.165-0.823-2.491-1.46-4.237H66.444z M69.12,18.961c-1.07,2.469-1.688,3.951-2.408,5.802
		h4.301L69.12,18.961z"/>
	<path d="M84.148,18.773c0,0.126-0.021,0.249-0.184,0.249c-0.164,0-0.186-0.123-0.206-0.289c-0.123-0.843-1.832-1.07-2.449-1.07
		c-2.099,0-2.943,1.44-2.943,2.489c0,3.582,6.748,2.162,6.748,6.687c0,2.572-2.387,3.991-4.836,3.991
		c-0.946,0-2.201-0.204-3.086-0.553c-0.164-1.009-0.288-1.69-0.288-1.833c0-0.144,0.083-0.225,0.205-0.225
		c0.205,0,0.248,0.207,0.267,0.369c0.248,1.153,2.284,1.563,3.231,1.563c1.75,0,3.457-0.902,3.457-2.673
		c0-4.033-6.689-2.285-6.689-6.916c0-2.096,2.243-3.577,4.548-3.577c0.679,0,1.563,0.081,2.223,0.39L84.148,18.773L84.148,18.773z"
		/>
	<path d="M95.527,17.376h3.764v0.553h-0.843c-0.226,0-0.41,0.042-0.41,0.206v7.492c0,3.929-2.801,5.203-5.352,5.203
		c-1.871,0-4.773-0.802-4.773-4.504v-5.637c0-2.346-0.062-2.76-0.575-2.76h-1.215v-0.553h4.424v0.553h-0.823
		c-0.247,0-0.475,0-0.475,0.206v7.88c0,3.564,2.512,4.033,3.787,4.033c1.359,0,4.32-0.41,4.32-4.543v-4.569
		c0-2.944-0.225-3.006-0.677-3.006h-1.153V17.376z"/>
	<path d="M102.84,20.688c0-2.345-0.063-2.759-0.577-2.759h-1.213v-0.554h5.431c2.676,0,4.053,1.666,4.053,3.395
		c0,2.016-1.46,3.17-3.334,3.519c2.037,2.921,3.54,4.835,4.198,5.37c0.287,0.226,0.514,0.226,1.173,0.226v0.554h-2.12
		c-0.431,0-0.555-0.163-4.589-5.904h-1.686v2.345c0,2.943,0.225,3.005,0.678,3.005h1.152v0.554h-4.422v-0.554h0.843
		c0.227,0,0.412-0.042,0.412-0.206V20.688z M104.177,23.98h1.152c1.83,0,3.869-0.616,3.869-2.858c0-0.824-0.391-3.067-3.375-3.067
		h-0.885c-0.39,0-0.761,0-0.761,0.203V23.98z"/>
	<path d="M113.279,17.376h9.671l-0.207,1.419c-0.041,0.247-0.041,0.35-0.184,0.35c-0.165,0-0.185-0.123-0.204-0.246
		c-0.043-0.33-0.289-0.453-0.616-0.557c-0.867-0.269-2.1-0.289-3.047-0.289h-1.523c-0.391,0-0.761,0-0.761,0.204v4.692h1.955
		c2.943,0,3.065-0.226,3.065-0.678V21.45h0.515v3.415h-0.515v-0.76c0-0.475,0-0.537-2.408-0.537h-2.612v3.313
		c0,2.879,0.143,2.879,0.843,2.879h1.317c1.008,0,4.074,0,4.484-1.005c0.043-0.106,0.084-0.206,0.228-0.206
		c0.084,0,0.144,0.062,0.144,0.143c0,0.125-0.247,0.887-0.515,1.749h-9.095v-0.555h0.843c0.228,0,0.412-0.042,0.412-0.206v-8.99
		c0-2.346-0.064-2.76-0.577-2.76h-1.214C113.279,17.929,113.279,17.376,113.279,17.376z"/>
	<path d="M130.942,24.412c0-4.444,3.621-7.427,7.901-7.427c1.153,0,2.325,0.246,3.373,0.656l-0.102,1.214
		c-0.021,0.309-0.042,0.434-0.247,0.434c-0.144,0-0.144-0.084-0.185-0.434c-0.064-0.431-1.337-1.192-3.107-1.192
		c-3.847,0-6.236,2.736-6.236,6.502c0,3.662,2.615,5.985,5.783,5.985c1.624,0,3.826-0.76,3.991-1.974
		c0.021-0.143,0.041-0.35,0.225-0.35c0.187,0,0.187,0.104,0.187,0.248c0,0.246,0,0.512-0.103,1.707
		c-1.441,0.699-3.087,1.048-4.692,1.048C133.72,30.83,130.942,28.548,130.942,24.412"/>
	<path d="M150.585,16.985c4.215,0,6.397,2.818,6.397,6.728c0,3.803-2.654,7.116-6.728,7.116c-4.219,0-6.4-2.818-6.4-6.725
		C143.855,20.297,146.509,16.985,150.585,16.985 M150.212,17.6c-2.036,0-5.02,1.341-5.02,6.114c0,4.628,2.737,6.502,5.432,6.502
		c2.039,0,5.023-1.337,5.023-6.11C155.647,19.474,152.91,17.6,150.212,17.6"/>
	<path d="M160.168,25.442c-0.72,1.788-1.235,3.375-1.235,3.928c0,0.166,0.02,0.516,0.515,0.516h0.823h0.515v0.554h-4.175v-0.554
		c0.966,0,1.028,0,1.19-0.41l5.206-12.347c0.452-0.143,0.927-0.226,1.07-0.226c0.083,0,0.124,0.061,0.124,0.144
		c0,0.246-0.35,0.204-0.35,0.636c0,0.824,2.899,9.094,3.663,10.904c0.288,0.682,0.555,1.298,1.007,1.298h0.762v0.554h-4.237v-0.554
		h1.027c0.35,0,0.392-0.042,0.392-0.206c0-0.165-0.823-2.491-1.462-4.237H160.168z M162.844,18.961
		c-1.07,2.469-1.688,3.951-2.408,5.802h4.299L162.844,18.961z"/>
	<path d="M177.453,18.773c0,0.126-0.021,0.249-0.184,0.249c-0.166,0-0.186-0.123-0.206-0.289c-0.124-0.843-1.831-1.07-2.449-1.07
		c-2.099,0-2.943,1.44-2.943,2.489c0,3.582,6.749,2.162,6.749,6.687c0,2.572-2.387,3.991-4.836,3.991
		c-0.947,0-2.201-0.204-3.086-0.553c-0.164-1.009-0.288-1.69-0.288-1.833c0-0.144,0.082-0.225,0.206-0.225
		c0.204,0,0.247,0.207,0.267,0.369c0.248,1.153,2.283,1.563,3.231,1.563c1.747,0,3.455-0.902,3.455-2.673
		c0-4.033-6.687-2.285-6.687-6.916c0-2.096,2.242-3.577,4.549-3.577c0.679,0,1.564,0.081,2.222,0.39V18.773z"/>
	<path d="M189.612,31.908h-6.085v-0.625h1.673c0.256,0,0.464-0.047,0.464-0.234V17.88c-1.393,0-4.435-0.022-4.947,1.139
		c-0.069,0.137-0.138,0.3-0.3,0.3c-0.119,0-0.233-0.044-0.233-0.184c0-0.115,0.046-0.347,0.626-1.974h11.216
		c0.581,1.627,0.627,1.858,0.627,1.974c0,0.14-0.115,0.184-0.231,0.184c-0.165,0-0.233-0.163-0.303-0.3
		c-0.511-1.16-3.554-1.139-4.946-1.139v10.009c0,3.322,0.254,3.394,0.765,3.394h1.672V31.908z"/>
  <path d="M206.075,35.437c0.067-0.02,0.125-0.038,0.159-0.05c0.294-0.123-0.734,0.147-0.439,0.025
		c-0.197,0.054-0.397,0.095-0.594,0.144c-1.089,0.153-2.326,0.331-1.394,0.144c-1.299,0.295-2.595,0.532-3.889,0.734
		c1.257-0.161,2.532-0.344,3.617-0.511c-1.276,0.246-2.567,0.426-3.872,0.553c0.085-0.013,0.169-0.029,0.254-0.042
		c-0.2,0.026-0.398,0.051-0.596,0.075c-2.083,0.191-4.196,0.276-6.329,0.357c-1.245,0.154-8.453,0.114-12.349-0.048
		c-15.579-1.314-31.139-5.302-47.513-2.693c-4.161,0.278-19.673,4.382-36.243,2.607c-8.155-0.746-16.505-3.194-23.916-3.249
		c-7.349-0.467-13.52-0.108-17.08,0.164l-1.295,0.119c-7.833,0.667-16.954,2.946-23.49,3.115c-2.981,0.245-6.026,0.326-9.055,0.303
		c1.407,0.089,2.713,0.091,3.846,0.14c-3.089,0.011-6.173-0.119-7.358-0.183c-6.558-0.463-2.864-0.039-0.341,0.29
		c1.819,0.169-0.654,0.118,2.202,0.334c-2.061-0.11-3.093-0.18-5.157-0.382c-0.244,0.078,6.354,0.46,4.917,0.429
		c-1.987-0.127-4.214-0.251-6.268-0.507c0.697,0.228,7.14,0.648,6.822,0.636c-1.122,0.017-5.797-0.482-6.201-0.47
		c-0.062,0.017,1.071,0.13,2.079,0.221c-5.743-0.508-8.616-1.028-3.143-0.109c-2.017-0.249-4.832-0.718-6.949-1.243l0.016,0.006
		c0.663,0.173,1.616,0.379,2.477,0.548c-0.743-0.14-1.487-0.291-2.229-0.467l0.619,0.182c0.334,0.078,0.671,0.148,1.009,0.219
		L7.72,36.702c0.59,0.156,1.271,0.318,2.022,0.474c2.838,0.553,5.585,0.909,7.141,1.042c12.579,1.426,25.342-1.166,37.494-2.801
		c0.02-0.036-0.643-0.01,0.38-0.118c3.219-0.357,5.829-0.341,9.065-0.448l0.232-0.061c2.508-0.004,5.119,0.063,7.779,0.232
		c4.88,0.256,9.82,0.742,14.487,1.672c-0.132-0.055-0.179-0.081,0.314,0.028c2.029,0.458,4.828,0.954,7.759,1.299l1.293,0.132
		c0.334,0.02,0.422,0.009,0.478,0.003c1.323,0.142,2.504,0.218,3.599,0.299c7.217,0.383,14.517,0.004,21.883-1.108
		c7.33-1.347,14.744-2.616,22.65-2.733c3.326-0.109,6.664-0.104,9.87,0.089c4.745,0.255,10.756,1.016,15.275,2.105
		c0.021-0.005,0.699,0.065,1.668,0.165c0.141,0.028,0.271,0.052,0.369,0.061c2.297,0.3,4.606,0.473,6.907,0.613
		c0.005-0.02-0.116-0.046,0.074-0.045c0.601,0.013,1.08,0.105,1.681,0.117l0.045-0.03l1.441,0.103l2.719,0.06
		c-0.024-0.013-0.034-0.024,0.055-0.025c0.376-0.001,0.895,0.026,1.435,0.037l0.237-0.003c0.062-0.007,0.077-0.018,0.087-0.025
		l0.66,0.014c2.645-0.031,5.329-0.134,8.232-0.33l1.817-0.164c0.874-0.079,1.995-0.112,2.846-0.209
		c-0.14-0.102,1.927-0.362,1.498-0.439c0.562-0.078,1.408-0.194,1.446-0.232c0.117-0.107,0.535-0.276,1.976-0.641
		c0.258-0.065,0.576-0.151,0.863-0.23c0.286-0.051,0.52-0.095,0.674-0.129C206.703,35.367,206.525,35.379,206.075,35.437z"/>
	<path d="M169.468,36.814c-0.009-0.002-0.019-0.004-0.027-0.006C169.438,36.809,169.445,36.811,169.468,36.814z"/>
  <path d="M70.395,49.197c-0.18,0-0.311,0-0.311-1.631l-0.009-5.063c0.025-0.017,0.13-0.017,0.193-0.017h0.628v-0.549h-2.998v0.549
	  h0.872c0.198,0,0.249,0.145,0.249,1.483v1.201h-4.391l-0.009-2.669c0.025-0.016,0.129-0.016,0.192-0.016h0.631v-0.549h-3.001v0.549
	  h0.873c0.199,0,0.249,0.145,0.249,1.483l0.008,5.206c-0.003,0.002-0.03,0.02-0.152,0.02h-0.644v0.551h3v-0.551h-0.836
	  c-0.181,0-0.312,0-0.312-1.631v-1.772h4.391l0.008,3.382c-0.003,0.002-0.031,0.02-0.153,0.02h-0.642v0.551h2.999v-0.551H70.395z"/>
  <path d="M82.627,41.706c-2.469,0-4.331,1.826-4.331,4.249c0,2.48,1.58,4.021,4.124,4.021c2.469,0,4.332-1.826,4.332-4.249
		C86.752,43.247,85.171,41.706,82.627,41.706z M82.653,49.388c-1.519,0-3.292-0.958-3.292-3.661c0-2.534,1.634-3.433,3.034-3.433
		c1.518,0,3.291,0.958,3.291,3.661C85.686,48.489,84.052,49.388,82.653,49.388z"/>
  <path d="M98.417,45.223c-0.994-0.356-1.852-0.663-1.852-1.559c0-0.537,0.461-1.336,1.729-1.336c0.452,0,1.363,0.16,1.421,0.529
	  c0.013,0.084,0.04,0.26,0.241,0.26c0.086,0,0.23-0.034,0.23-0.256v-0.883l-0.068-0.03c-0.45-0.199-1.03-0.24-1.438-0.24
	  c-1.425,0-2.964,0.839-2.964,2.194c0,1.469,1.211,1.9,2.28,2.28c0.983,0.35,1.911,0.681,1.911,1.729c0,0.99-1.064,1.442-2.052,1.442
	  c-0.602,0-1.781-0.24-1.913-0.809c-0.028-0.208-0.122-0.314-0.281-0.314c-0.141,0-0.242,0.104-0.242,0.246
	  c0,0.066,0.031,0.243,0.103,0.637l0.092,0.51l0.061,0.022c0.543,0.198,1.335,0.331,1.973,0.331c1.562,0,3.143-0.835,3.143-2.431
	  C100.792,46.074,99.53,45.622,98.417,45.223z"/>
  <path d="M113.951,46.296c1.415,0,2.938-0.713,2.938-2.277c0-1.003-0.831-2.082-2.655-2.082h-3.517v0.549h0.873
	  c0.198,0,0.247,0.145,0.247,1.483l0.008,5.207c-0.003,0.002-0.03,0.019-0.151,0.019h-0.644v0.552h3v-0.552h-0.836
	  c-0.181,0-0.311,0-0.311-1.63v-1.393C113.235,46.254,113.593,46.296,113.951,46.296z M112.905,42.582
	  c0.061-0.025,0.248-0.025,0.364-0.025h0.555c1.904,0,2.001,1.387,2.001,1.665c0,1.122-1.007,1.522-1.95,1.522
	  c-0.341,0-0.675-0.043-0.97-0.124V42.582z"/>
  <path d="M129.032,49.197c-0.181,0-0.312,0-0.312-1.631l-0.009-5.063c0.025-0.017,0.129-0.017,0.192-0.017h0.63v-0.548h-2.999v0.548
	  h0.872c0.202,0,0.249,0.137,0.249,1.482l0.008,5.207c-0.003,0.002-0.03,0.02-0.152,0.02h-0.643v0.551h3.002v-0.551H129.032z"/>
  <path d="M145.53,48.002c-0.206,0-0.239,0.195-0.256,0.301c-0.086,0.59-1.355,1.049-2.389,1.049c-2.036,0-3.513-1.413-3.513-3.361
	  c0-2.191,1.526-3.663,3.797-3.663c1.126,0,1.811,0.45,1.834,0.598l0.005,0.039c0.023,0.172,0.042,0.309,0.223,0.309
	  c0.245,0,0.258-0.197,0.269-0.352l0.073-0.794l-0.082-0.03c-0.702-0.256-1.447-0.392-2.153-0.392c-2.89,0-5.068,1.903-5.068,4.426
	  c0,2.37,1.675,3.843,4.37,3.843c1.047,0,2.08-0.215,2.986-0.621l0.06-0.027l0.006-0.066c0.066-0.699,0.066-0.854,0.066-1.005
	  C145.759,48.188,145.759,48.002,145.53,48.002z"/>
  <path d="M161.759,48.423c-0.17,0-0.223,0.133-0.245,0.185c-0.105,0.236-0.659,0.516-2.708,0.516h-0.823
	  c-0.362,0-0.418,0-0.418-1.559v-1.81h1.523c1.395,0,1.395,0.035,1.395,0.199v0.554h0.551v-2.21h-0.551v0.595
	  c0,0.143,0,0.278-1.805,0.278h-1.113v-2.591c0.061-0.025,0.249-0.025,0.365-0.025h0.952c0.645,0,1.372,0.02,1.879,0.165
	  c0.214,0.058,0.291,0.115,0.307,0.228c0.009,0.059,0.034,0.239,0.242,0.239c0.175,0,0.199-0.142,0.218-0.256l0.158-0.995h-6.307
	  v0.549h0.874c0.196,0,0.246,0.145,0.246,1.483l0.008,5.207c-0.003,0.002-0.029,0.02-0.15,0.02h-0.645v0.551h5.898l0.134-0.398
	  c0.167-0.496,0.221-0.661,0.221-0.728C161.964,48.507,161.877,48.423,161.759,48.423z"/>
</svg>
