<svg xmlns="http://www.w3.org/2000/svg" viewBox="0 0 215 67">
  <path d="M174.665,26.294c0.973,0,1.774-0.505,1.882-1.16l0.962-10.868c0-1.074-1.258-1.957-2.842-1.957
		c-1.58,0-2.837,0.883-2.837,1.957l0.96,10.868c0.106,0.654,0.908,1.16,1.878,1.16H174.665z"/>
	<path d="M168.791,29.69c0.488-0.842,0.45-1.789-0.063-2.209l-8.933-6.265c-0.928-0.537-2.321,0.11-3.112,1.48
		c-0.793,1.369-0.652,2.898,0.276,3.435l9.89,4.605c0.619,0.23,1.461-0.211,1.946-1.052L168.791,29.69z"/>
	<path d="M180.543,29.684c0.487,0.842,1.326,1.283,1.945,1.052l9.892-4.605c0.931-0.537,1.065-2.066,0.278-3.435
		c-0.794-1.37-2.189-2.017-3.115-1.48l-8.933,6.265c-0.511,0.42-0.549,1.367-0.063,2.209L180.543,29.684z"/>
  <path d="M174.665,39.869c0.973,0,1.774,0.503,1.882,1.157l0.962,10.867c0,1.076-1.258,1.957-2.842,1.957
		c-1.58,0-2.837-0.881-2.837-1.957l0.96-10.867c0.106-0.654,0.908-1.157,1.878-1.157H174.665z"/>
	<path d="M180.543,36.475c0.487-0.843,1.326-1.281,1.945-1.048l9.892,4.6c0.931,0.539,1.065,2.069,0.278,3.439
		c-0.794,1.366-2.189,2.015-3.115,1.479l-8.933-6.26c-0.511-0.425-0.549-1.371-0.063-2.212L180.543,36.475z"/>
	<path d="M168.791,36.473c0.488,0.841,0.45,1.787-0.063,2.212l-8.933,6.26c-0.928,0.536-2.321-0.113-3.112-1.479
		c-0.793-1.37-0.652-2.901,0.276-3.439l9.89-4.6c0.619-0.233,1.461,0.205,1.947,1.048L168.791,36.473z"/>
  <path d="M123.21,34.33c0-4.104-1.753-7.714-7.676-7.714c-3.041,0-5.456,0.854-6.773,1.615l0.965,3.298
	  c1.204-0.759,3.123-1.388,4.938-1.388c3.005-0.008,3.498,1.701,3.498,2.796v0.259c-6.551-0.01-10.691,2.257-10.691,6.879
	  c0,2.822,2.108,5.466,5.774,5.466c2.254,0,4.14-0.899,5.268-2.341h0.112c0,0,0.748,3.13,4.873,1.933
	  c-0.217-1.303-0.287-2.692-0.287-4.364V34.33z M118.319,38.664c0,0.334-0.03,0.679-0.121,0.98c-0.379,1.255-1.679,2.315-3.304,2.315
	  c-1.355,0-2.431-0.769-2.431-2.395c0-2.488,2.739-3.175,5.856-3.159V38.664z"/>
  <path d="M21.154,21.027c0,0,4.28,17.539,4.963,20.386c0.797,3.323,2.234,4.545,6.376,3.721l2.673-10.875
	  c0.677-2.701,1.132-4.626,1.567-7.374h0.076c0.306,2.775,0.742,4.681,1.299,7.384c0,0,1.088,4.936,1.645,7.529
	  c0.559,2.592,2.113,4.225,6.17,3.336l6.368-24.107H47.15l-2.174,10.422c-0.585,3.034-1.114,5.404-1.523,8.18H43.38
	  c-0.372-2.749-0.844-5.024-1.439-7.98l-2.264-10.622H34.32l-2.421,10.354c-0.686,3.146-1.328,5.687-1.736,8.368h-0.073
	  c-0.418-2.525-0.975-5.718-1.577-8.763c0,0-1.439-7.406-1.943-9.959H21.154z"/>
  <path d="M66.903,34.33c0-4.104-1.753-7.714-7.675-7.714c-3.042,0-5.457,0.854-6.773,1.615l0.963,3.298
	  c1.205-0.759,3.123-1.388,4.939-1.388c3.007-0.008,3.499,1.701,3.499,2.796v0.259c-6.552-0.01-10.691,2.257-10.691,6.879
	  c0,2.822,2.107,5.466,5.771,5.466c2.255,0,4.141-0.899,5.271-2.341h0.111c0,0,0.749,3.13,4.872,1.933
	  c-0.217-1.303-0.287-2.692-0.287-4.364V34.33z M62.013,38.664c0,0.334-0.029,0.679-0.121,0.98c-0.379,1.255-1.679,2.315-3.303,2.315
	  c-1.355,0-2.431-0.769-2.431-2.395c0-2.488,2.738-3.175,5.856-3.159V38.664z"/>
  <polygon points="75.063,40.016 75.063,21.027 70.169,21.027 70.169,45.134 75.063,45.134 "/>
  <path d="M139.111,21.027c0,2.313,0,17.784,0,17.784c0,2.451,0.462,4.169,1.449,5.219c0.863,0.918,2.283,1.512,3.985,1.512
	  c1.447,0,2.871-0.275,3.542-0.525l-0.063-3.825c-0.499,0.123-1.074,0.221-1.859,0.221c-1.667,0-2.227-1.068-2.227-3.269V31.34h4.263
	  v-4.612h-4.263v-5.7H139.111z"/>
  <path d="M126.474,27.024v18.11h5.05v-9.273c0-0.5,0.03-0.937,0.109-1.337c0.374-1.943,1.859-3.184,3.992-3.184
	  c0.585,0,1.004,0.063,1.458,0.129v-4.741c-0.38-0.077-0.64-0.112-1.113-0.112c-1.884,0-4.028,1.217-4.928,3.824h-0.137v-3.416
	  H126.474z"/>
  <path d="M78.492,27.024v18.11h4.921V34.513c0-0.498,0.057-1.024,0.231-1.482c0.408-1.069,1.402-2.32,2.991-2.32
	  c1.986,0,2.915,1.679,2.915,4.102v10.321h4.916V34.385c0-0.475,0.065-1.048,0.205-1.468c0.404-1.216,1.477-2.206,2.953-2.206
	  c2.013,0,2.979,1.649,2.979,4.5c0,0,0,7.65,0,9.923h4.919V34.468c0-5.625-2.856-7.852-6.08-7.852c-1.428,0-2.555,0.358-3.574,0.984
	  c-0.856,0.526-1.624,1.272-2.294,2.256h-0.072c-0.778-1.952-2.607-3.239-4.991-3.239c-3.063,0-4.44,1.552-5.274,2.869h-0.073v-2.461
	  H78.492z"/>
	<path d="M194.904,43.616c0.703,0,1.25,0.546,1.25,1.227c0,0.696-0.546,1.235-1.257,1.235c-0.703,0-1.265-0.539-1.265-1.235
		c0-0.681,0.561-1.227,1.265-1.227H194.904z M194.89,43.863c-0.539,0-0.943,0.442-0.943,0.98c0,0.546,0.404,0.98,0.958,0.98
		c0.539,0.008,0.935-0.434,0.935-0.98c0-0.539-0.396-0.98-0.943-0.98H194.89z M194.703,45.479h-0.284v-1.22
		c0.112-0.022,0.269-0.045,0.471-0.045c0.232,0,0.337,0.038,0.427,0.097c0.067,0.052,0.12,0.15,0.12,0.262
		c0,0.142-0.105,0.247-0.254,0.292v0.015c0.12,0.037,0.187,0.134,0.224,0.299c0.038,0.187,0.06,0.262,0.09,0.299h-0.307
		c-0.037-0.045-0.06-0.15-0.097-0.292c-0.022-0.135-0.097-0.195-0.254-0.195h-0.135V45.479z M194.71,44.791h0.135
		c0.157,0,0.284-0.053,0.284-0.18c0-0.112-0.082-0.187-0.262-0.187c-0.075,0-0.127,0.007-0.157,0.015V44.791z"/>
</svg>
