<svg xmlns="http://www.w3.org/2000/svg" viewBox="0 0 94.75 58.5">
  <path d="M3.78,52.18L22,49.29a1.14,1.14,0,0,0,1-1.16c-0.11-3.64.62-16.31,15.2-22.48L30.86,6.28S1.67,16,2.45,51.06A1.15,1.15,0,0,0,3.78,52.18Z" style="fill:#f26941"/>
  <path d="M90.73,52.38L72.54,49.49a1.14,1.14,0,0,1-1-1.16c0.11-3.64-.62-16.31-15.2-22.48L63.65,6.48s29.19,9.74,28.41,44.79A1.15,1.15,0,0,1,90.73,52.38Z" style="fill:#35c98d"/>
  <path d="M38.14,25.65L30.86,6.28s15.7-6.95,32.79.2L56.37,25.85S49.06,21.7,38.14,25.65Z" style="fill:#e1c62e"/>
  <circle cx="47.24" cy="46.19" r="8.64" style="fill:#0f1c3f"/>
  <path d="M50.37,39.37l26-15.81s1.59-1,2.36.11S78.4,25.71,78,26L53.12,45.48Z" style="fill:#0f1c3f"/>
</svg>
