<?xml version="1.0" encoding="utf-8"?>
<!-- Generator: Adobe Illustrator 19.2.1, SVG Export Plug-In . SVG Version: 6.00 Build 0)  -->
<svg version="1.1" id="Layer_1" xmlns="http://www.w3.org/2000/svg" xmlns:xlink="http://www.w3.org/1999/xlink" x="0px" y="0px"
	 viewBox="0 0 132.8 68.8" style="enable-background:new 0 0 132.8 68.8;" xml:space="preserve">
<style type="text/css">
	.st0{fill:#0F1C3F;}
	.st1{fill:#DBE5EA;}
	.st2{fill:#F14CA3;}
</style>
<path class="st0" d="M32.9,1.3h81.7c1.6,0,2.9,1.3,2.9,2.9v50.4c0,1.6-1.3,2.9-2.9,2.9H32.9c-1.6,0-2.9-1.3-2.9-2.9V4.1
	C30,2.6,31.3,1.3,32.9,1.3z"/>
<rect x="32.5" y="3.2" class="st1" width="82.6" height="50.2"/>
<path class="st0" d="M116.7,21.3l9.1,1.3c3.1,0.4,5.3,3.3,4.9,6.5l-4.4,31.2c-0.4,3.1-3.3,5.3-6.5,4.9l-9.1-1.3
	c-3.1-0.4-5.3-3.3-4.9-6.5l4.4-31.2C110.6,23,113.5,20.8,116.7,21.3z"/>
<rect x="101.8" y="34.6" transform="matrix(0.144 -0.9896 0.9896 0.144 58.1227 153.9004)" class="st1" width="32.5" height="17.5"/>
<path class="st2" d="M75.2,17.2c0,0-5.7-8-14.2-5.6S53,23,53.4,24.6s1.4,6.2,8.6,11.9C67.6,40.9,75.1,47,75.1,47s13.6-9.7,17.7-14.7
	s7.9-12.8,1.2-18.5c-4.1-3.7-10.3-3.8-14.6-0.2C77.4,15.2,75.2,17.2,75.2,17.2z"/>
<path class="st0" d="M7.4,23l55.1-4.4c2.6-0.2,4.9,1.7,5.1,4.4l2.8,34.9c0.2,2.6-1.7,4.9-4.4,5.1L11,67.4c-2.6,0.2-4.9-1.7-5.1-4.4
	L3,28.1C2.8,25.5,4.7,23.2,7.4,23z"/>
<rect x="9.3" y="23.3" transform="matrix(0.9968 -8.037290e-02 8.037290e-02 0.9968 -3.3116 3.0859)" class="st1" width="54.8" height="38.7"/>
<path class="st2" d="M35.2,36.4c0,0-3.8-4.5-8.7-2.6s-4.1,7.1-3.8,8.1s1.2,3.6,5.7,6.6c3.5,2.3,8.3,5.5,8.3,5.5s7.5-6.4,9.7-9.6
	s4-8-0.3-11c-2.6-2-6.3-1.7-8.6,0.6C36.4,35.1,35.2,36.4,35.2,36.4z"/>
<path class="st2" d="M118.8,39.5c-0.6-1.2-1.9-2-3.3-1.9c-1.4,0.2-2.5,1.5-2.3,2.9c0.1,1.3,0.7,2.4,1.7,3.3c1.2,1.3,2.8,3.1,2.8,3.1
	c1.7-0.9,3.4-1.9,5-3c1.2-1.1,2.4-2.9,1-4.5c-0.9-1.1-2.5-1.4-3.7-0.6C119.5,39.1,118.8,39.5,118.8,39.5z"/>
</svg>
