<svg id="Layer_1" data-name="Layer 1" xmlns="http://www.w3.org/2000/svg" viewBox="0 0 132.75 68.75"><title>responsive</title><rect x="30.04" y="1.29" width="87.43" height="56.14" rx="2.86" ry="2.86" style="fill:#0f1c3f"/><rect x="32.51" y="3.23" width="82.63" height="50.16" style="fill:#dbe5ea"/><rect x="96.71" y="32.86" width="42.98" height="20.65" rx="5.72" ry="5.72" transform="translate(58.89 154.18) rotate(-81.95)" style="fill:#0f1c3f"/><rect x="101.76" y="34.59" width="32.52" height="17.53" transform="translate(58.12 153.9) rotate(-81.72)" style="fill:#dbe5ea"/><path d="M75.16,17.22s-5.67-8-14.25-5.6S53,23,53.42,24.64,54.86,30.88,62,36.49C67.59,40.92,75.1,47,75.1,47s13.61-9.7,17.74-14.7S100.78,19.5,94,13.81a11.15,11.15,0,0,0-14.59-.25C77.39,15.22,75.16,17.22,75.16,17.22Z" style="fill:#f14ca3"/><rect x="4.31" y="20.71" width="64.77" height="44.59" rx="4.77" ry="4.77" transform="translate(-3.34 3.09) rotate(-4.61)" style="fill:#0f1c3f"/><rect x="9.25" y="23.31" width="54.85" height="38.73" transform="translate(-3.31 3.09) rotate(-4.61)" style="fill:#dbe5ea"/><path d="M35.19,36.38s-3.76-4.46-8.7-2.58-4.11,7.11-3.76,8.07,1.17,3.61,5.66,6.56C31.93,50.76,36.68,54,36.68,54s7.55-6.4,9.73-9.57,4-8-.26-11a6.61,6.61,0,0,0-8.63.6C36.41,35.08,35.19,36.38,35.19,36.38Z" style="fill:#f14ca3"/><path d="M118.84,39.55a3.5,3.5,0,0,0-3.32-1.93,2.76,2.76,0,0,0-2.35,2.94,5.17,5.17,0,0,0,1.67,3.26c1.22,1.31,2.85,3.1,2.85,3.1a34.69,34.69,0,0,0,5-3c1.21-1.08,2.45-2.87,1-4.54A2.79,2.79,0,0,0,120,38.8Z" style="fill:#f14ca3"/></svg>
