<svg width="100" id="Layer_1" data-name="Layer 1" xmlns="http://www.w3.org/2000/svg" viewBox="0 0 480.01 320.17"><defs><style>.cls-1{fill:#456bd9}</style></defs><path class="cls-1" d="M135 222.4a87.18 87.18 0 01-38.2-45.8 37.18 37.18 0 0110.4-20C116.8 145.6 228.6 24 276 3.2A235.69 235.69 0 00238.4 0C98.4 0 85 100 85 100S0 126 0 203.6C0 314.6 136.8 320 136.8 320a305.51 305.51 0 0043.2-1.6 25.81 25.81 0 0017.8-14.2c8.2-20 20-51.8 31.6-85.2-45.4 2.2-89.4 4.4-94.4 3.4zM480 180c0-98.2-96.2-108.8-96.2-108.8a122.2 122.2 0 00-42.8-44c-8.6 30.6-30.8 112.2-32 127.6h33.6s5.4 0 4 6.6c-3.2 15-11.6 51.6-29.6 52.8l-23.6 1.4c-6.6 27-13.6 55.2-18.6 75.6a94 94 0 0060 18.2 91.81 91.81 0 0067-24.6C482.8 271.2 480 180 480 180z"/><path class="cls-1" d="M277.8 57.2A846.57 846.57 0 00178 160l72.2-2.8c14.8-41.6 27.6-78.6 33.2-94.8a6 6 0 00-5.6-5.2z"/></svg>
