<svg xmlns="http://www.w3.org/2000/svg" width="140" height="70" viewBox="0 0 140 70">
  <style type="text/css">
    .st0{fill:#f2f5f7;}
    .st1{fill:#738da0;}
    .st2{fill:#158466;}
    .st3{fill:#2cdd90;}
    .st4{fill: none; stroke: #f2f5f7; stroke-width: 2.4; stroke-miterlimit: 3.2;}
    .st5{fill: none; stroke: #f2f5f7; stroke-width: 2.4; stroke-miterlimit: 2.4;}
  </style>
  <g>
    <rect x="20" y="22" class="st0" width="38" height="48"/>
    <rect x="20" y="31" class="st1" width="38" height="3"/>
    <rect x="20" y="25" class="st1" width="38" height="3"/>
  </g>
  <g>
    <polygon class="st2" points="70,70 100,0 130,70"/>
  </g>
  <g>
    <rect x="102" y="40" class="st0" width="38" height="30"/>
    <rect x="102" y="51" class="st1" width="38" height="3"/>
    <rect x="102" y="45" class="st1" width="38" height="3"/>
  </g>
  <g transform="translate(0 14) scale(0.8)">
    <polygon class="st3" points="0,70 30,0 60,70"/>
    <line class="st4" x1="30" y1="30" x2="30" y2="70"/>
    <line class="st4" x1="30" y1="45" x2="40" y2="37"/>
    <line class="st4" x1="21" y1="44" x2="30" y2="50"/>
    <line class="st4" x1="30" y1="55" x2="40" y2="47"/>
  </g>
  <g transform="translate(50 28) scale(0.6)">
    <polygon class="st3" points="0,70 30,0 60,70"/>
    <line class="st5" x1="30" y1="35" x2="30" y2="69.7"/>
    <line class="st5" x1="30" y1="50" x2="40" y2="42"/>
    <line class="st5" x1="21" y1="49" x2="30" y2="55"/>
    <line class="st5" x1="30" y1="60" x2="40" y2="52"/>
  </g>
</svg>
