<svg xmlns="http://www.w3.org/2000/svg" width="16" height="16" viewBox="0 0 16 16">
  <path d="M4.5,10.08A2.88,2.88,0,0,1,3.23,8.56a1.18,1.18,0,0,1,.33-.67c.32-.37,4-4.42,5.62-5.11a7.32,7.32,0,0,0-1.24-.1C3.28,2.68,2.83,6,2.83,6S0,6.86,0,9.44c0,3.7,4.55,3.88,4.55,3.88A11.65,11.65,0,0,0,6,13.27a.87.87,0,0,0,.59-.48c.27-.67.67-1.73,1.06-2.84C6.13,10,4.68,10.11,4.5,10.08Z"/>
  <path d="M16,8.66a3.58,3.58,0,0,0-3.2-3.61,4.14,4.14,0,0,0-1.44-1.47c-.28,1-1,3.74-1.07,4.25H11.4s.18,0,.13.22c-.11.5-.39,1.72-1,1.78l-.79.05c-.21.88-.44,1.83-.61,2.51a3,3,0,0,0,2,.59,3,3,0,0,0,2.22-.81C16.08,11.71,16,8.66,16,8.66Z"/>
  <path d="M9.25,4.58A27.61,27.61,0,0,0,5.93,8l2.4-.1c.49-1.38.92-2.62,1.11-3.16A.19.19,0,0,0,9.25,4.58Z"/>
</svg>
