<?xml version="1.0" encoding="UTF-8" standalone="no"?>
<svg width="1016px" height="185px" viewBox="0 0 1016 185" version="1.1" xmlns="http://www.w3.org/2000/svg" xmlns:xlink="http://www.w3.org/1999/xlink">
    <!-- Generator: Sketch 3.6.1 (26313) - http://www.bohemiancoding.com/sketch -->
    <title>device illustration</title>
    <desc>Created with Sketch.</desc>
    <defs></defs>
    <g id="Draft-2" stroke="none" stroke-width="1" fill="none" fill-rule="evenodd">
        <g id="device-illustration">
            <g id="arms-+-hands" transform="translate(0.500000, 83.000000)" stroke="#FFFFFF" stroke-width="3">
                <path d="M101,13 C101,13 123,34 142,44" id="Path-13"></path>
                <path d="M150,42 C150,42 165,50 194,2" id="Path-14"></path>
                <path d="M454,0 C454,0 470,20 504,32" id="Path-15"></path>
                <path d="M510,30 C510,30 537,28 558,3" id="Path-16"></path>
                <path d="M577,9 C577,9 592,28 625,33" id="Path-17"></path>
                <path d="M635,31 C635,31 660,44 696,25" id="Path-18"></path>
                <path d="M832,13 C832,13 862,41 893,35" id="Path-19"></path>
                <path d="M904,36 C904,36 930,36 949,22" id="Path-20"></path>
                <path d="M11,62 C11,62 10,40 40,14" id="Path-21"></path>
                <path d="M959,26 C959,26 986,35 1006,53" id="Path-22"></path>
                <circle id="Oval-17" fill="#FFFFFF" cx="895" cy="35" r="11"></circle>
                <circle id="Oval-17-Copy" fill="#FFFFFF" cx="628" cy="31" r="11"></circle>
                <circle id="Oval-17-Copy-2" fill="#FFFFFF" cx="504" cy="31" r="11"></circle>
                <circle id="Oval-17-Copy-3" fill="#FFFFFF" cx="143" cy="42" r="11"></circle>
                <circle id="Oval-17-Copy-4" fill="#FFFFFF" cx="11" cy="64" r="11"></circle>
                <circle id="Oval-17-Copy-5" fill="#FFFFFF" cx="1006" cy="53" r="9"></circle>
            </g>
            <g id="television-+-television-face" transform="translate(180.500000, 0.000000)">
                <g id="television">
                    <rect id="Rectangle-11" stroke="#FFFFFF" stroke-width="3" fill="#456BD9" x="0" y="0" width="284" height="160" rx="4"></rect>
                    <rect id="Rectangle-11-Copy" fill="#FFFFFF" x="8" y="8" width="268" height="140"></rect>
                    <rect id="Rectangle-6-Copy" fill="#FFFFFF" transform="translate(142.000000, 181.500000) scale(1, -1) translate(-142.000000, -181.500000) " x="35" y="178" width="214" height="7"></rect>
                    <rect id="Rectangle-14" fill="#FFFFFF" x="120" y="158" width="44" height="24"></rect>
                </g>
                <g id="television-face" transform="translate(77.000000, 65.000000)">
                    <path d="M65,47.5967742 C79.6709487,47.5967742 91.5641026,35.8092048 91.5641026,21.2685009 C91.5641026,21.2685014 38.4358974,21.2685012 38.4358974,21.2685009 C38.4358974,35.8092048 50.3290513,47.5967742 65,47.5967742 Z" id="Oval-9-Copy" fill="#0F1C3F"></path>
                    <path d="M0.0511363636,12 C0.0511363636,12 -1.22727273,1.93784382e-15 9,0 C19.2272727,0 17.9488636,12 17.9488636,12" id="Path-11" stroke="#0F1C3F" stroke-width="4" stroke-linecap="round"></path>
                    <path d="M110.051136,12 C110.051136,12 108.772727,1.93784382e-15 119,0 C129.227273,0 127.948864,12 127.948864,12" id="Path-11-Copy" stroke="#0F1C3F" stroke-width="4" stroke-linecap="round"></path>
                </g>
            </g>
            <g id="watch-+-watch-face" transform="translate(956.551651, 103.027538) rotate(3.000000) translate(-956.551651, -103.027538) translate(938.551651, 71.027538)">
                <g id="watch" transform="translate(-0.000000, 1.000000)">
                    <rect id="Rectangle-15" stroke="#FFFFFF" stroke-width="3" fill="#456BD9" x="0" y="16" width="32" height="32" rx="6"></rect>
                    <rect id="Rectangle-15-Copy" fill="#FFFFFF" x="6" y="22" width="20" height="20" rx="1"></rect>
                    <rect id="Rectangle-17" fill="#FFFFFF" x="32" y="29" width="3" height="6"></rect>
                    <path d="M8,3.00684547 C8,2.45078007 8.43620627,1.88528728 8.98019736,1.75792789 C8.98019736,1.75792789 11.4285714,1 16,1 C20.5714286,1 23.0426702,1.76301396 23.0426702,1.76301396 C23.5713889,1.89389774 24,2.44994876 24,3.00684547 L24,16 L8,16 L8,3.00684547 Z" id="Rectangle-18" fill="#FFFFFF"></path>
                    <path d="M8,50.0068455 C8,49.4507801 8.43620627,48.8852873 8.98019736,48.7579279 C8.98019736,48.7579279 11.4285714,48 16,48 C20.5714286,48 23.0426702,48.763014 23.0426702,48.763014 C23.5713889,48.8938977 24,49.4499488 24,50.0068455 L24,63 L8,63 L8,50.0068455 Z" id="Rectangle-18-Copy" fill="#FFFFFF" transform="translate(16.000000, 55.500000) scale(1, -1) translate(-16.000000, -55.500000) "></path>
                </g>
                <g id="watch-face" transform="translate(9.000000, 27.000000)">
                    <path d="M2,7 C4,7 4,5.65685425 4,4 C4,2.34314575 4,1 2,1 C1.13686838e-13,1 1.13686838e-13,2.34314575 1.13686838e-13,4 C1.13686838e-13,5.65685425 1.13686838e-13,7 2,7 Z" id="Oval-7" fill="#0F1C3F"></path>
                    <path d="M12,7 C14,7 14,5.65685425 14,4 C14,2.34314575 14,1 12,1 C10,1 10,2.34314575 10,4 C10,5.65685425 10,7 12,7 Z" id="Oval-7-Copy" fill="#0F1C3F"></path>
                    <path d="M3,9 C3,9 4,11 7,11 C10,11 11,9 11,9" id="Path-8" stroke="#0F1C3F" stroke-linecap="round"></path>
                </g>
            </g>
            <g id="phone-+-phone-face" transform="translate(565.999695, 92.017450) rotate(2.000000) translate(-565.999695, -92.017450) translate(543.499695, 55.017450)">
                <g id="phone" transform="translate(0.000000, 1.000000)">
                    <rect id="Rectangle-7" stroke="#FFFFFF" stroke-width="3" fill="#456BD9" x="0" y="0" width="44" height="72" rx="6"></rect>
                    <rect id="Rectangle-7-Copy" fill="#FFFFFF" x="7" y="13" width="30" height="48"></rect>
                </g>
                <g id="phone-face" transform="translate(12.000000, 31.000000)">
                    <path d="M2.5,8.00976562 C5,8.00976562 5,6.21890462 5,4.00976562 C5,1.80062663 5,0.009765625 2.5,0.009765625 C1.13686838e-13,0.009765625 1.13686838e-13,1.80062663 1.13686838e-13,4.00976562 C1.13686838e-13,6.21890462 1.13686838e-13,8.00976562 2.5,8.00976562 Z" id="Oval-7-Copy-2" fill="#0F1C3F"></path>
                    <path d="M17.5,8.00976562 C20,8.00976562 20,6.21890462 20,4.00976562 C20,1.80062663 20,0.009765625 17.5,0.009765625 C15,0.009765625 15,1.80062663 15,4.00976562 C15,6.21890462 15,8.00976562 17.5,8.00976562 Z" id="Oval-7-Copy-3" fill="#0F1C3F"></path>
                    <path d="M1,12 C1,12 3.25,15 10,15 C16.75,15 19,12 19,12" id="Path-8-Copy" stroke="#0F1C3F" stroke-width="2" stroke-linecap="round"></path>
                </g>
            </g>
            <g id="tablet-+-tablet-face" transform="translate(68.033660, 96.463904) rotate(-4.000000) translate(-68.033660, -96.463904) translate(28.533660, 40.963904)">
                <g id="tablet" transform="translate(0.000000, 0.000000)">
                    <rect id="Rectangle-7-Copy-2" stroke="#FFFFFF" stroke-width="3" fill="#456BD9" x="0" y="0" width="78" height="110" rx="6"></rect>
                    <rect id="Rectangle-7-Copy-3" fill="#FFFFFF" x="10" y="12" width="58" height="86"></rect>
                </g>
                <g id="tablet-face" transform="translate(20.000000, 43.000000)">
                    <path d="M5.44444444,14.1348805 C9.88888889,14.1348805 9.88888889,10.9745376 9.88888889,7.07605699 C9.88888889,3.1775764 9.88888889,0.0172334559 5.44444444,0.0172334559 C1,0.0172334559 1,3.1775764 1,7.07605699 C1,10.9745376 1,14.1348805 5.44444444,14.1348805 Z" id="Oval-7-Copy-2" fill="#0F1C3F"></path>
                    <path d="M32.5555556,14.1348805 C37,14.1348805 37,10.9745376 37,7.07605699 C37,3.1775764 37,0.0172334559 32.5555556,0.0172334559 C28.1111111,0.0172334559 28.1111111,3.1775764 28.1111111,7.07605699 C28.1111111,10.9745376 28.1111111,14.1348805 32.5555556,14.1348805 Z" id="Oval-7-Copy-3" fill="#0F1C3F"></path>
                    <path d="M4,22 C4,22 7.75,27 19,27 C30.25,27 34,22 34,22" id="Path-8-Copy-2" stroke="#0F1C3F" stroke-width="3" stroke-linecap="round"></path>
                </g>
            </g>
            <g id="laptop-+-laptop-face" transform="translate(763.491274, 102.500076) rotate(-1.000000) translate(-763.491274, -102.500076) translate(656.491274, 44.000076)">
                <g id="laptop" transform="translate(0.000000, 1.000000)">
                    <rect id="Rectangle-4" stroke="#FFFFFF" stroke-width="3" fill="#456BD9" x="20" y="7.10542736e-15" width="176" height="110"></rect>
                    <rect id="Rectangle-4-Copy" fill="#FFFFFF" x="31" y="11" width="154" height="88"></rect>
                    <rect id="Rectangle-6" fill="#FFFFFF" x="0" y="107" width="214" height="9"></rect>
                </g>
                <g id="laptop-face" transform="translate(68.000000, 48.000000)" fill="#0F1C3F">
                    <path d="M4.44444444,14.4264706 C8.88888889,14.4264706 8.88888889,11.2661276 8.88888889,7.36764706 C8.88888889,3.46916647 8.88888889,0.308823529 4.44444444,0.308823529 C0,0.308823529 0,3.46916647 0,7.36764706 C0,11.2661276 0,14.4264706 4.44444444,14.4264706 Z" id="Oval-7-Copy-2"></path>
                    <path d="M73.5555556,14.1348805 C78,14.1348805 78,10.9745376 78,7.07605699 C78,3.1775764 78,0.0172334559 73.5555556,0.0172334559 C69.1111111,0.0172334559 69.1111111,3.1775764 69.1111111,7.07605699 C69.1111111,10.9745376 69.1111111,14.1348805 73.5555556,14.1348805 Z" id="Oval-7-Copy-3"></path>
                    <path d="M39,30.75 C48.0820159,30.75 55.4444444,23.4417069 55.4444444,14.4264706 C55.4444444,14.4264708 22.5555556,14.4264707 22.5555556,14.4264706 C22.5555556,23.4417069 29.9179841,30.75 39,30.75 Z" id="Oval-9-Copy"></path>
                </g>
            </g>
        </g>
    </g>
</svg>