<?xml version="1.0" encoding="UTF-8" standalone="no"?>
<svg width="34px" height="31px" viewBox="0 0 34 31" version="1.1" xmlns="http://www.w3.org/2000/svg" xmlns:xlink="http://www.w3.org/1999/xlink">
    <!-- Generator: Sketch 3.6.1 (26313) - http://www.bohemiancoding.com/sketch -->
    <title>github</title>
    <desc>Created with Sketch.</desc>
    <defs></defs>
    <g id="Draft-2" stroke="none" stroke-width="1" fill="none" fill-rule="evenodd">
        <g id="github" fill="#456BD9">
            <path d="M-1.03737704e-13,15.5 C-0.00252331347,22.1760514 4.58573895,28.1035641 11.3880645,30.2120833 C11.6444279,30.2918277 11.9264118,30.2506757 12.1442858,30.1017224 C12.3621598,29.9527692 12.4887862,29.7145678 12.483871,29.4629167 L12.483871,26.8795833 C7.85096774,27.8095833 6.93548387,24.8 6.93548387,24.8 C6.62946618,23.8343079 5.95320587,23.0069193 5.03516129,22.475 C3.52322581,21.5191667 5.14612903,21.5320833 5.14612903,21.5320833 C6.21709211,21.6697069 7.1594,22.2610511 7.6983871,23.13375 C8.15448977,23.9046639 8.92183001,24.4744358 9.83046336,24.7168773 C10.7390967,24.9593188 11.7140344,24.8544213 12.5393548,24.4254167 C12.616653,23.6419648 12.9902563,22.9095438 13.5935484,22.35875 C9.90387097,21.9583333 6.02,20.6666667 6.02,14.68625 C5.99785913,13.1455158 6.61382647,11.6560328 7.74,10.5270833 C7.24315148,9.19972368 7.30259654,7.74664625 7.90645161,6.45833333 C8.51030669,5.17002042 9.29354839,6.045 12.483871,8.04708333 C15.2081146,7.35380211 18.082208,7.35380211 20.8064516,8.04708333 C23.9967742,6.00625 25.383871,6.45833333 25.383871,6.45833333 C25.9999989,7.757599 26.0595456,9.2270232 25.5503226,10.5658333 C26.672686,11.6960723 27.2837879,13.1858043 27.2564516,14.725 C27.2564516,20.6795833 23.3587097,21.9841667 19.6551613,22.3716667 C20.4586643,23.1213895 20.877921,24.1562178 20.8064516,25.2133333 L20.8064516,29.4629167 C20.7940847,29.7277149 20.9278963,29.9800342 21.1612069,30.1318538 C21.3945174,30.2836735 21.6949659,30.3139356 21.9577419,30.2120833 C30.0070274,27.6877312 34.7242481,19.9248031 32.9032355,12.1995536 C31.0822228,4.47430401 23.3071232,-0.735153016 14.8624638,0.111910983 C6.41780432,0.958974982 0.0124721134,7.59083789 -1.0188972e-13,15.5 L-1.03737704e-13,15.5 Z" id="Shape"></path>
        </g>
    </g>
</svg>