<?xml version="1.0" encoding="utf-8"?>
<!-- Generator: Adobe Illustrator 18.1.1, SVG Export Plug-In . SVG Version: 6.00 Build 0)  -->
<svg version="1.1" id="Layer_1" xmlns="http://www.w3.org/2000/svg" xmlns:xlink="http://www.w3.org/1999/xlink" x="0px" y="0px"
	 viewBox="0 0 960 560" enable-background="new 0 0 960 560" xml:space="preserve">
<g>
	<path fill="none" stroke="#DBE5EA" stroke-width="86" stroke-linecap="round" d="M521.3,235.4l-16.6-16.6
		c-36.4-36.3-95.4-36.3-131.8,0L273.7,318c-36.5,36.4-36.5,95.5-0.1,132c0,0,0,0,0.1,0.1l32.7,32.7c36.4,36.5,95.5,36.7,132,0.3
		c0.1-0.1,0.2-0.2,0.3-0.3l32.9-32.9"/>
	<path fill="none" stroke="#DBE5EA" stroke-width="86" stroke-linecap="round" d="M438.7,317.8l16.6,16.6
		c36.4,36.3,95.4,36.3,131.8,0l99.2-99.2c36.5-36.4,36.5-95.5,0.1-132c0,0,0,0-0.1-0.1L653.4,70c-36.4-36.5-95.5-36.7-132-0.3
		c-0.1,0.1-0.2,0.2-0.3,0.3l-32.9,33.4"/>
</g>
</svg>
