<?xml version="1.0" encoding="UTF-8" standalone="no"?>
<svg width="120px" height="120px" viewBox="0 0 120 120" version="1.1" xmlns="http://www.w3.org/2000/svg" xmlns:xlink="http://www.w3.org/1999/xlink">
    <!-- Generator: Sketch 3.6.1 (26313) - http://www.bohemiancoding.com/sketch -->
    <title>Pink Cloud Avatar</title>
    <desc>Created with Sketch.</desc>
    <defs>
        <circle id="path-1" cx="60" cy="60" r="60"></circle>
    </defs>
    <g id="Draft-2" stroke="none" stroke-width="1" fill="none" fill-rule="evenodd">
        <g id="Elements" transform="translate(-1242.000000, -1026.000000)">
            <g id="Avatars" transform="translate(1098.000000, 738.000000)">
                <g id="Pink-Cloud-Avatar" transform="translate(144.000000, 288.000000)">
                    <g id="Oval-22-Copy-2">
                        <use stroke-opacity="0.05" stroke="#000000" stroke-width="3" fill="#F26941" fill-rule="evenodd" xlink:href="#path-1"></use>
                        <use stroke="none" fill="none" xlink:href="#path-1"></use>
                    </g>
                    <g id="Placeholder-Cloud" transform="translate(16.000000, 33.000000)" fill="#FFFFFF">
                        <path d="M15.2378641,49 C6.82222413,49 0,42.1764239 0,33.7591161 C0,25.3418084 6.82222413,18.5182323 15.2378641,18.5182323 C17.003294,18.5182323 18.6986018,18.8185208 20.2755155,19.3708166 C22.6328083,8.30222196 32.4635572,0 44.2330097,0 C53.0465584,0 60.7729294,4.65568332 65.0878781,11.6423447 C66.6558585,11.2233617 68.3037322,11 70.0037646,11 C80.4950957,11 89,19.5065898 89,30 C89,40.3551292 80.7177722,48.7754571 70.4174757,48.9955832 L70.4174757,49 L15.2378641,49 Z M13,13 C15.7614237,13 18,10.7614237 18,8 C18,5.23857625 15.7614237,3 13,3 C10.2385763,3 8,5.23857625 8,8 C8,10.7614237 10.2385763,13 13,13 Z M31.5,33 C34.125,33 35,30.7614237 35,28 C35,25.2385763 34.125,23 31.5,23 C28.875,23 28,25.2385763 28,28 C28,30.7614237 28.875,33 31.5,33 Z M56.5,33 C59.125,33 60,30.7614237 60,28 C60,25.2385763 59.125,23 56.5,23 C53.875,23 53,25.2385763 53,28 C53,30.7614237 53.875,33 56.5,33 Z"></path>
                    </g>
                </g>
            </g>
        </g>
    </g>
</svg>