<svg xmlns="http://www.w3.org/2000/svg" width="150" height="190" viewBox="0 0 150 190">
  <g fill="white">
    <circle cx="79.35" cy="8" r="2.07" opacity="0.42"/>
    <circle cx="33.73" cy="35.68" r="2.2" opacity="0.89"/>
    <circle cx="0.81" cy="29.32" r="1.81" opacity="0.98"/>
    <circle cx="8.97" cy="60.39" r="1.95" opacity="0.52"/>
    <circle cx="9.86" cy="148.12" r="1.5" opacity="0.69"/>
    <circle cx="6.27" cy="128.15" r="2.25" opacity="0.77"/>
    <circle cx="18.18" cy="107.26" r="2.14" opacity="0.42"/>
    <circle cx="18.91" cy="86.68" r="2.31" opacity="0.84"/>
    <circle cx="5.69" cy="67.53" r="1.57" opacity="0.42"/>
    <circle cx="18.65" cy="48.6" r="1.55" opacity="0.41"/>
    <circle cx="14.63" cy="4.61" r="1.61" opacity="0.76"/>
    <circle cx="95.37" cy="63.67" r="1.45" opacity="0.6"/>
    <circle cx="69.47" cy="55.55" r="1.69" opacity="0.91"/>
    <circle cx="51.39" cy="69.29" r="2.43" opacity="0.79"/>
    <circle cx="115.35" cy="57" r="2.07" opacity="0.21"/>
    <circle cx="87.22" cy="40.33" r="1.8" opacity="0.32"/>
    <circle cx="65.8" cy="43.08" r="2.4" opacity="0.37"/>
    <circle cx="69.73" cy="84.68" r="2.2" opacity="0.44"/>
    <circle cx="36.81" cy="78.32" r="1.81" opacity="0.49"/>
    <circle cx="44.97" cy="109.39" r="1.95" opacity="0.26"/>
    <circle cx="22.29" cy="160.12" r="1.69" opacity="0.28"/>
    <circle cx="76.86" cy="188.12" r="1.5" opacity="0.34"/>
    <circle cx="42.27" cy="177.15" r="2.25" opacity="0.38"/>
    <circle cx="54.18" cy="156.26" r="2.14" opacity="0.21"/>
    <circle cx="54.91" cy="135.68" r="2.31" opacity="0.42"/>
    <circle cx="41.69" cy="116.53" r="1.57" opacity="0.21"/>
    <circle cx="54.65" cy="97.6" r="1.55" opacity="0.20"/>
    <circle cx="30.07" cy="69.94" r="2.48" opacity="0.29"/>
    <circle cx="50.63" cy="53.61" r="1.61" opacity="0.38"/>
    <circle cx="51.22" cy="29.64" r="1.79" opacity="0.29"/>
    <circle cx="131.37" cy="112.67" r="1.45" opacity="0.3"/>
    <circle cx="105.47" cy="104.55" r="1.69" opacity="0.45"/>
    <circle cx="87.39" cy="118.29" r="2.43" opacity="0.4"/>
  </g>
</svg>
