<svg id="Layer_1" data-name="Layer 1" xmlns="http://www.w3.org/2000/svg" width="150" height="190" viewBox="0 0 150 190">
  <title>new-stars-prep</title>
  <g fill="white">
    <circle cx="136.96" cy="12.83" r="1.44" opacity="0.84"/>
    <circle cx="81.78" cy="4.7" r="1.28" opacity="0.63"/>
    <circle cx="22.4" cy="4.14" r="1.82" opacity="0.4"/>
    <circle cx="2.41" cy="1.83" r="2.41" opacity="0.49"/>
    <circle cx="93.47" cy="104.47" r="2.48" opacity="0.96"/>
    <circle cx="118" cy="93.02" r="2.22" opacity="0.81"/>
    <circle cx="121.37" cy="72.61" r="2.11" opacity="0.4"/>
    <circle cx="144.01" cy="56.8" r="1.67" opacity="0.58"/>
    <circle cx="113.95" cy="15.27" r="1.35" opacity="0.73"/>
    <circle cx="131.91" cy="0.41" r="2.41" opacity="0.41"/>
    <circle cx="124.37" cy="26.61" r="2.37" opacity="0.71"/>
    <circle cx="132.5" cy="43.69" r="1.72" opacity="0.72"/>
    <circle cx="144.62" cy="79.58" r="1.63" opacity="0.97"/>
    <circle cx="137.77" cy="99.93" r="2.17" opacity="0.86"/>
    <circle cx="133.24" cy="114.31" r="2.08" opacity="0.99"/>
    <circle cx="122.86" cy="148.12" r="1.98" opacity="0.77"/>
    <circle cx="141.78" cy="166.21" r="1.27" opacity="0.51"/>
    <circle cx="71.68" cy="45.29" r="2.07" opacity="0.64"/>
    <circle cx="98.96" cy="32.83" r="1.44" opacity="0.21"/>
    <circle cx="43.78" cy="19.7" r="1.28" opacity="0.15"/>
    <circle cx="55.47" cy="124.47" r="2.48" opacity="0.24"/>
    <circle cx="80" cy="113.02" r="2.22" opacity="0.20"/>
    <circle cx="83.37" cy="92.61" r="2.11" opacity="0.1"/>
    <circle cx="106.01" cy="76.8" r="1.67" opacity="0.14"/>
    <circle cx="75.95" cy="35.27" r="1.35" opacity="0.18"/>
    <circle cx="101.43" cy="12.25" r="2.3" opacity="0.1"/>
    <circle cx="93.91" cy="20.41" r="2.41" opacity="0.1"/>
    <circle cx="86.37" cy="46.61" r="2.37" opacity="0.18"/>
    <circle cx="94.5" cy="63.69" r="1.72" opacity="0.18"/>
    <circle cx="106.62" cy="99.58" r="1.63" opacity="0.24"/>
    <circle cx="99.77" cy="119.93" r="2.17" opacity="0.21"/>
    <circle cx="95.24" cy="134.31" r="2.08" opacity="0.25"/>
    <circle cx="84.86" cy="168.12" r="1.98" opacity="0.19"/>
    <circle cx="103.78" cy="186.21" r="1.27" opacity="0.12"/>
    <circle cx="33.68" cy="65.29" r="2.07" opacity="0.16"/>
  </g>
</svg>
