<?xml version="1.0" encoding="UTF-8" standalone="no"?>
<svg width="34px" height="26px" viewBox="0 0 34 26" version="1.1" xmlns="http://www.w3.org/2000/svg" xmlns:xlink="http://www.w3.org/1999/xlink">
    <!-- Generator: Sketch 3.6.1 (26313) - http://www.bohemiancoding.com/sketch -->
    <title>twitter</title>
    <desc>Created with Sketch.</desc>
    <defs></defs>
    <g id="Draft-2" stroke="none" stroke-width="1" fill="none" fill-rule="evenodd">
        <g id="twitter" fill="#456BD9">
            <path d="M33.2903226,2.98375 C32.0432152,3.50028354 30.7200299,3.83988734 29.3648387,3.99125 C30.7925412,3.19883079 31.8622837,1.95020545 32.3748387,0.477916667 C31.0323332,1.21704166 29.5639581,1.73689799 28.0332258,2.015 C25.9207018,-0.0520311562 22.5894331,-0.558068419 19.8809923,0.776632771 C17.1725515,2.11133396 15.748259,4.96087938 16.3954839,7.75 C10.9136948,7.50537512 5.79901153,5.11224357 2.31645161,1.1625 C0.498012962,4.06939988 1.42147455,7.79198666 4.42483871,9.66166667 C3.35879232,9.6204526 2.31813946,9.34610754 1.38709677,8.86083333 L1.38709677,8.93833333 C1.38816185,11.9665038 3.67912932,14.5751348 6.86612903,15.1770833 C5.86141349,15.4287798 4.80833894,15.4641177 3.78677419,15.2804167 C4.68140917,17.8713078 7.24533844,19.6463881 10.1674194,19.6979167 C7.74671719,21.4683511 4.75644983,22.428381 1.6783871,22.4233333 C1.11747614,22.4248227 0.556984567,22.3946284 0,22.3329167 C3.12415937,24.2009706 6.75981095,25.1919651 10.4725806,25.1875 C15.6331103,25.2186942 20.5919866,23.3235101 24.2411091,19.9254417 C27.8902315,16.5273732 29.9254344,11.9096599 29.8919355,7.10416667 L29.8919355,6.2775 C31.2258589,5.37629415 32.3766439,4.26094205 33.2903226,2.98375" id="Shape"></path>
        </g>
    </g>
</svg>