<svg xmlns="http://www.w3.org/2000/svg" width="620" height="500" viewBox="0 0 620 500">
  <g>
    <rect x="70" width="480" height="270" fill="#f2f5f7"/>
    <g>
      <circle cx="70" cy="290" r="70" fill="#c0cfd8"/>
      <circle cx="160" cy="310" r="70" fill="#c0cfd8"/>
      <circle cx="460" cy="310" r="70" fill="#c0cfd8"/>
      <circle cx="550" cy="290" r="70" fill="#c0cfd8"/>
    </g>
    <g>
      <path d="M161.44,138.51c-6.75-1.17-13.95-1.1-20.79-1.31-7.47-.24-15-.46-22.48-.16a2.46,2.46,0,0,0,0,4.92c7.47.3,15,.08,22.48-.16,6.85-.22,14-.14,20.79-1.31a1,1,0,0,0,0-2h0Z" fill="#fff"/>
      <path d="M173.88,87c-5.23-3-11.31-5.07-16.95-7.26-6.09-2.36-12.25-4.73-18.51-6.6-3.11-.92-4.18,3.6-1.31,4.75,11.21,4.47,24,9.21,36,11a1.015,1.015,0,0,0,.79-1.87h0Z" fill="#fff"/>
      <path d="M177.91,189.27c-6.06.86-12.19,2.83-18.11,4.43a167.50285,167.50285,0,0,0-17.8,5.56c-2.88,1.13-1.8,5.65,1.31,4.75,11.58-3.38,24.86-6.86,35.38-12.86a1.015,1.015,0,1,0-.79-1.87h0Z" fill="#fff"/>
      <path d="M458.58,135.75c6.78.94,13.94.64,20.78.62,7.47,0,15-.05,22.46-.6,3.12-.23,3.21-4.9,0-4.92-7.48,0-15,.43-22.46.92-6.85.45-14.06.6-20.78,2a1,1,0,0,0,0,2h0Z" fill="#fff"/>
      <path d="M442.16,85.66c6.85-1.31,13.72-4.08,20.3-6.4,6.34-2.24,12.7-4.52,18.86-7.19,2.55-1.11.73-5.39-1.9-4.5-6.36,2.15-12.6,4.77-18.79,7.37-6.41,2.7-13.33,5.23-19.27,8.85a1.015,1.015,0,0,0,.79,1.87h.01Z" fill="#fff"/>
      <path d="M445.15,185.38A159.00035,159.00035,0,0,0,478.8,198.5c3.11.81,4.25-3.68,1.31-4.75-10.86-3.94-22.91-9-34.44-10.28a1,1,0,0,0-.52,1.91Z" fill="#fff"/>
    </g>
    <g>
      <path d="M363.5,157.73C354.42,156,345.22,155,336,154.1l-6.82-.62c-1.1-.1-5.22-.53-6.21-.53a52.35959,52.35959,0,0,0-12.46,1.38,42.93,42.93,0,0,0-20.23,11.79c-2.14,2.14-5.31,5.35-4.91,8.69s4.76,4,7.37,4.69q6.78,1.72,13.63,3.15a3.07006,3.07006,0,0,1,1,.2,3.65973,3.65973,0,0,1,.1.78l.21,1.55.46,3.5q.45,3.5.88,7t.8,6.82c.14,1.25.05,3.09,1.75,3.17s1.37-1.83,1.24-3q-.38-3.45-.8-6.9t-.88-6.9q-.22-1.67-.46-3.35l-.25-1.77c-.06-.45-.4-1.47-.08-1.82a4.62985,4.62985,0,0,1,1.5-.32l1.5-.3q1.68-.32,3.38-.58,3.38-.52,6.79-.79t6.69-.28c.57,0,.41-.08.67.38a3.6301,3.6301,0,0,1,.18.75l.36,1.51q.39,1.7.77,3.4,1.47,6.73,2.54,13.54c.17,1.09.32,2.18.48,3.27a1.48,1.48,0,0,0,.84,1.42,1.73,1.73,0,0,0,2.17-1.64,17.32018,17.32018,0,0,0-.39-2.85q-.27-1.79-.57-3.57-.56-3.28-1.22-6.54a238.83932,238.83932,0,0,0-6.89-25.87q-1-3.17-2.12-6.31c7,.6,13.94,1.45,20.84,2.67q5.18.92,10.3,2.11a25.76914,25.76914,0,0,0,4.57,1.06,2.52,2.52,0,0,0,2.12-1c1.12-1.49.71-3.85-1.3-4.23h0Zm-65.14,18.32c-1.43-.37-2.9-.61-4.33-1a16.38985,16.38985,0,0,1-2.91-1c-1.2-.61,1-3.56,1.48-4.28,2.9-4.11,7.31-7.06,11.47-9.77q1.37,9.12,2.64,18.26-4.16-1.18-8.35-2.26h0Z" fill="#f27040"/>
      <path d="M305.17,149.87a13.72,13.72,0,0,0,12.38-1.11c3.7-2.34,6.19-7.14,4.41-11.44s-6.41-6.13-10.63-6.35c-4.37-.22-9.55,2.3-11.51,6.33-2.33,4.8.65,10.58,5.34,12.57h.01Z" fill="#f27040"/>
    </g>
    <g>
      <path d="M306.17,158.9q2,10.05,3.53,20.21a72.43987,72.43987,0,0,1,20.25-2.61c-1.8-7-3.85-14-6.1-20.89C317.83,156.46,312,156.91,306.17,158.9Z" fill="#ffae5b"/>
      <path d="M305.84,145.8a9.88,9.88,0,0,0,8.92-.77c2.47-1.51,4.31-4.4,3.2-7.31a7.52,7.52,0,0,0-6.93-4.44c-3.18.08-7,1.85-8.45,4.84s.4,6.41,3.26,7.69h0Z" fill="#ffae5b"/>
    </g>
    <path d="M244.13,21c-8.86-1-17.26-1.93-24.79-2.63l-8.81,96.8c7.37.69,15.63,1.58,24.34,2.59Z" fill="#1cac76"/>
    <path d="M368.39,127.68s-90.84-13.75-141.06-18.46l8.81-96.8c52.24,4.9,146.37,19.17,146.37,19.17Z" fill="#2cdd90"/>
    <g>
      <polyline points="332.15 56.67 346.63 75.21 328.1 89.69" fill="none" stroke="#fff" stroke-linecap="round" stroke-linejoin="round" stroke-width="8"/>
      <polyline points="280.27 50.3 261.74 64.79 276.22 83.32" fill="none" stroke="#fff" stroke-linecap="round" stroke-linejoin="round" stroke-width="8"/>
      <line x1="316.92" y1="45.82" x2="292.23" y2="94.27" fill="none" stroke="#fff" stroke-linecap="round" stroke-linejoin="round" stroke-width="8"/>
    </g>
    <path d="M356.3,242.47l-6.54-2.05L381,31a1.17,1.17,0,0,1,1.57-.65h0a1.48,1.48,0,0,1,1.3,1.34Z" fill="#485968"/>
    <circle cx="310" cy="350" r="150" fill="#3d84f5"/>
    <circle cx="278" cy="340" r="118" fill="#215cca"/>
    <polygon points="234.87 117.8 227.33 109.21 235.62 110.03 234.87 117.8" fill="#158466"/>
  </g>
</svg>
