<?xml version="1.0" standalone="no"?>
<!DOCTYPE svg PUBLIC "-//W3C//DTD SVG 20010904//EN"
 "http://www.w3.org/TR/2001/REC-SVG-20010904/DTD/svg10.dtd">
<svg version="1.0" xmlns="http://www.w3.org/2000/svg"
 width="16" height="16" viewBox="0 0 16 16"
 preserveAspectRatio="xMidYMid meet">
  <path d="M4.5,10.08A2.91,2.91,0,0,1,3.23,8.55a1.24,1.24,0,0,1,.35-.68c.32-.37,4-4.42,5.63-5.11a7.84,7.84,0,0,0-1.26-.1C3.28,2.66,2.83,6,2.83,6S0,6.87,0,9.45c0,3.7,4.56,3.89,4.56,3.89A10.2,10.2,0,0,0,6,13.28a.86.86,0,0,0,.59-.47c.27-.69.65-1.73,1.05-2.84C6.13,10,4.65,10.11,4.5,10.08Z"/>
  <path d="M16,8.65A3.6,3.6,0,0,0,12.79,5a4.08,4.08,0,0,0-1.42-1.47c-.28,1-1,3.74-1.07,4.25h1.12s.18,0,.13.22c-.11.5-.38,1.72-1,1.76l-.78,0c-.22.9-.45,1.84-.62,2.52a3.13,3.13,0,0,0,2,.61,3.06,3.06,0,0,0,2.23-.82C16.09,11.71,16,8.65,16,8.65Z"/>
  <path d="M9.26,4.57A28.22,28.22,0,0,0,5.93,8l2.4-.1c.49-1.39.92-2.62,1.11-3.16A.2.2,0,0,0,9.26,4.57Z"/>
</svg>
