<svg xmlns="http://www.w3.org/2000/svg" width="274.34" height="131.24001" viewBox="0 0 274.34 131.24001">
  <rect x="40.04299" y="15.35324" width="13.76" height="71.35" rx="6" transform="translate(-14.10845 18.15255) rotate(-19.09)" fill="#c0cfd8"/>
  <path d="M56.36,85.69a7.5,7.5,0,0,1-7.05-5L30.47,26.25a7.45558,7.45558,0,0,1,14.09-4.88L63.4,75.8a7.46,7.46,0,0,1-7.04,9.89ZM37.5,17.51a6.32,6.32,0,0,0-5.95,8.37L50.39,80.31a6.31,6.31,0,0,0,11.92-4.13L43.47,21.75A6.35,6.35,0,0,0,37.5,17.51Z" fill="#215cca"/>
  <path d="M57.18,89.76a7.45,7.45,0,0,1-1-14.84l40-5.58a7.45511,7.45511,0,1,1,2.04,14.77h0l-40,5.58A7.54973,7.54973,0,0,1,57.18,89.76Zm40-19.35a6.26941,6.26941,0,0,0-.88.06l-40,5.58a6.31,6.31,0,0,0,1.74,12.49l40-5.58a6.31,6.31,0,0,0-.85-12.54Z" fill="#215cca"/>
  <path d="M102.22,80.52a6.3,6.3,0,0,0-5.9-10l-40,5.58a6.31,6.31,0,0,0,1.74,12.49l40-5.58A6.26,6.26,0,0,0,102.22,80.52Z" fill="#c0cfd8"/>
  <circle cx="57.50071" cy="81.98122" r="4.28" fill="#fff"/>
  <path d="M7.46,35.75A7.45,7.45,0,0,1,5.54,21.11l29-7.7a7.45515,7.45515,0,0,1,3.83,14.41l-29,7.7A7.45027,7.45027,0,0,1,7.46,35.75Zm29-21.46a6.28983,6.28983,0,0,0-1.62.21l-29,7.7A6.31,6.31,0,1,0,8.68077,34.49611q.2013-.0465.39923-.10611l29-7.7a6.31,6.31,0,0,0-1.66-12.4Z" fill="#215cca"/>
  <path d="M42.52,18.98a6.3,6.3,0,0,0-7.69785-4.48588L34.8,14.5l-29,7.7A6.31,6.31,0,0,0,9.04,34.39l29-7.7A6.31,6.31,0,0,0,42.52,18.98Z" fill="#c0cfd8"/>
  <circle cx="36.5162" cy="20.7389" r="4.29815" fill="#fff"/>
  <rect x="0.53697" y="28.06021" width="14.07946" height="1.15488" transform="translate(-7.15601 2.93806) rotate(-15.00492)" fill="#215cca"/>
  <path d="M184.06,94.67l-13.26,7.44-68.58,5.58a3.45,3.45,0,0,1-3.71-3.15l-3.79-46.9L90.9,10.78a3.45,3.45,0,0,1,3.13-3.67l68.69-5.63,13.95,4.09a6.45008,6.45008,0,0,1,2.64,1.32,3.43,3.43,0,0,1,1.2,2.34l3.35,41.15,3.26,40a3.43,3.43,0,0,1-.81,2.5A6.41013,6.41013,0,0,1,184.06,94.67Z" fill="#738da0"/>
  <rect x="94.55974" y="4.17136" width="74.54" height="100.92" rx="3" transform="translate(-3.99498 10.86709) rotate(-4.65)" fill="#c0cfd8"/>
  <rect x="87.99966" y="4.44846" width="80.28001" height="89.45" rx="3" transform="translate(-3.56466 10.54998) rotate(-4.65)" fill="#f2f5f7"/>
  <rect x="94.62392" y="10.6546" width="64.22" height="51.61" rx="3" transform="translate(-2.53859 10.39417) rotate(-4.65)" fill="#738da0"/>
  <rect x="134.8448" y="72.00436" width="26.38" height="3.44" rx="1" transform="translate(-5.48949 12.24366) rotate(-4.65)" fill="#738da0"/>
  <rect x="101.00622" y="12.80874" width="55.05" height="47.02" rx="3" transform="translate(-2.52126 10.53941) rotate(-4.65)" fill="#0e1c43"/>
  <path d="M115.23,120.47a7.22,7.22,0,0,1-7.14933,7.29H108.08c-4,0-7.15-1.66-7.15-7.29a7.15,7.15,0,1,1,14.3,0Z" fill="#fff"/>
  <path d="M110.03,131.24a7.79,7.79,0,1,1,7.63855-7.93856q.00144.07428.00145.14856A7.73,7.73,0,0,1,110.03,131.24Zm0-14.59a6.8,6.8,0,1,0,6.66876,6.92876q.00122-.06437.00124-.12876a6.74,6.74,0,0,0-6.67-6.8Z" fill="#c0cfd8"/>
  <path d="M134.86,117.42c0,3.39-1.34,6-4.7,6s-7.46-2.58-7.46-6a6.08,6.08,0,0,1,12.16,0Z" fill="#fff"/>
  <path d="M127.55,122.4a6.56,6.56,0,1,1,6.49973-6.61972l.00027.05973a6.53,6.53,0,0,1-6.49986,6.56Zm0-12.27a5.72,5.72,0,1,0,5.66979,5.76979L133.22,115.85a5.7,5.7,0,0,0-5.65979-5.73993L127.55,110.11Z" fill="#c0cfd8"/>
  <path d="M157.59,123.76c0,4-3.2,5.69-7.15,5.69s-7.15-1.66-7.15-5.69a7.22,7.22,0,0,1,7.14932-7.29H150.44C154.39,116.46,157.59,118.51,157.59,123.76Z" fill="#fff"/>
  <path d="M149.12,128.48a7.79,7.79,0,1,1,7.63855-7.93856q.00144.07428.00145.14856A7.73,7.73,0,0,1,149.12,128.48Zm0-14.59a6.8,6.8,0,1,0,6.66877,6.92876q.0012-.06436.00123-.12876a6.74,6.74,0,0,0-6.67-6.79Z" fill="#c0cfd8"/>
  <path d="M179.59,122.19a8.22,8.22,0,0,1-8.14,8.29c-3.49,0-8.14-3.71-8.14-8.29s1.4-9.78,8.14-8.29C175.84,114.87,179.59,117.61,179.59,122.19Z" fill="#fff"/>
  <path d="M170.9,127.28a8.86,8.86,0,1,1,8.68837-9.02837q.00163.08418.00163.16837A8.79,8.79,0,0,1,170.9,127.28Zm0-16.59a7.73,7.73,0,1,0,7.57855,7.87854q.00145-.07426.00145-.14854A7.66,7.66,0,0,0,170.9,110.69Z" fill="#c0cfd8"/>
  <rect x="194.35402" y="32.94307" width="71.35001" height="13.76" rx="6" transform="translate(130.47646 250.98301) rotate(-74.58)" fill="#c0cfd8"/>
  <path d="M222.37,75.04a7.46,7.46,0,0,1-7.18-9.44L230.5,10.11a7.45816,7.45816,0,1,1,14.37,4h0L229.56,69.63A7.47,7.47,0,0,1,222.37,75.04Zm9.24-64.65L216.3,65.91a6.31,6.31,0,1,0,12.072,3.67839q.04817-.158.088-.31839l15.26-55.53a6.31,6.31,0,0,0-12.04851-3.75471q-.06246.20044-.11149.40471h.05Z" fill="#215cca"/>
  <path d="M181.81,76.47a7.45,7.45,0,0,1,.77-14.88l40.38.84a7.45661,7.45661,0,1,1-.31,14.91l-40.38-.84ZM223.32,63.6h-.39l-40.38-.84a6.31,6.31,0,1,0-.68967,12.60115q.21462.01173.42967.00885l40.43.82a6.31,6.31,0,0,0,.61-12.59Z" fill="#215cca"/>
  <path d="M229.11,70.01a6.32,6.32,0,0,0-5.79-6.42h-.39l-40.38-.84a6.31,6.31,0,0,0-.68967,12.60114q.21464.01175.42968.00886l40.43.83A6.31,6.31,0,0,0,229.11,70.01Z" fill="#c0cfd8"/>
  <circle cx="222.4355" cy="69.86547" r="4.28" fill="#fff"/>
  <circle cx="183.19052" cy="69.05017" r="4.28" fill="#fff"/>
  <circle cx="183.15987" cy="69.22371" r="4.28" fill="#fff"/>
  <path d="M237.28,19.53a7.46,7.46,0,0,1-1.14-14.82L265.72.11a7.45424,7.45424,0,0,1,2.3,14.73l-29.61,4.62A7.5184,7.5184,0,0,1,237.28,19.53ZM266.9,1.11a6.30994,6.30994,0,0,0-1,.08L236.29,5.81a6.31,6.31,0,0,0,1.94,12.46l29.61-4.62a6.31,6.31,0,0,0-.94-12.54Z" fill="#215cca"/>
  <path d="M273.12,6.49a6.3,6.3,0,0,0-7.19-5.26156l-.01.00156L236.31,5.85a6.31,6.31,0,0,0,1.94,12.46l29.61-4.62A6.33,6.33,0,0,0,273.12,6.49Z" fill="#c0cfd8"/>
  <circle cx="237.58469" cy="12.0117" r="4.28" fill="#fff"/>
  <line x1="260.12" y1="8.48" x2="273.97" y2="6.24" fill="none"/>
  <rect x="260.03234" y="6.80823" width="14.01999" height="1.15" transform="translate(2.26091 42.83624) rotate(-9.21)" fill="#215cca"/>
  <path d="M115.07,23.42a46.66929,46.66929,0,0,1,3.65,10.17l-2.56.84a51.18085,51.18085,0,0,0-3.6-10.21Zm28.65.46a.94.94,0,0,1-1,.5c-4,13.5-10.29,21.76-22.26,27a17.99844,17.99844,0,0,0-1.84-2.1c11.71-4.93,17.71-12.62,21.5-26.55ZM127.2,21.24a64.20086,64.20086,0,0,1,2,10.86l-2.72.42a62.909,62.909,0,0,0-2-10.83Z" fill="#fff"/>
</svg>
