<svg xmlns="http://www.w3.org/2000/svg" viewBox="0 0 800 800" width="800" height="800">
  <rect x="568.4" y="460.5" width="66" height="121" fill="#8abfff"/>
  <path d="M587.5,479.5h27.8c0.7,0,1.3,0.3,1.7,0.9
    c2.9,4.6,4.4,9.4,4.4,14.6c0,5.2-1.5,10.3-4.4,15.5c-0.4,0.6-1,1-1.7,1h-27.7c-0.7,0-1.4-0.4-1.8-1c-2.9-5.4-4.4-10.6-4.4-15.5
    c0-4.9,1.5-9.7,4.4-14.5C586.2,479.9,586.8,479.5,587.5,479.5z" fill="none" stroke="#215cca" stroke-width="2"/>
  <path d="M587.5,531.5h27.8c0.7,0,1.3,0.3,1.7,0.9
    c2.9,4.6,4.4,9.4,4.4,14.6c0,5.2-1.5,10.3-4.4,15.5c-0.4,0.6-1,1-1.7,1h-27.7c-0.7,0-1.4-0.4-1.8-1c-2.9-5.4-4.4-10.6-4.4-15.5
    c0-4.9,1.5-9.7,4.4-14.5C586.2,531.9,586.8,531.5,587.5,531.5z" fill="none" stroke="#215cca" stroke-width="2"/>
  <path d="M593.4,486.5h2c0.6,0,1,0.4,1,1v16
    c0,0.6-0.4,1-1,1h-2c-0.6,0-1-0.4-1-1v-16C592.4,487,592.8,486.5,593.4,486.5z" fill="#215cca"/>
  <path d="M607.4,486.5h2c0.6,0,1,0.4,1,1v16
    c0,0.6-0.4,1-1,1h-2c-0.6,0-1-0.4-1-1v-16C606.4,487,606.8,486.5,607.4,486.5z" fill="#215cca"/>
  <path d="M593.4,538.5h2c0.6,0,1,0.4,1,1v16
    c0,0.6-0.4,1-1,1h-2c-0.6,0-1-0.4-1-1v-16C592.4,539,592.8,538.5,593.4,538.5z" fill="#215cca"/>
  <path d="M607.4,538.5h2c0.6,0,1,0.4,1,1v16
    c0,0.6-0.4,1-1,1h-2c-0.6,0-1-0.4-1-1v-16C606.4,539,606.8,538.5,607.4,538.5z" fill="#215cca"/>
  <path d="M184.4,416.5h1c3.9,0,7,3.1,7,7v151
    c0,3.9-3.1,7-7,7h-1c-3.9,0-7-3.1-7-7v-151C177.4,419.6,180.5,416.5,184.4,416.5z" fill="#738da0"/>
  <path d="M441.2,354l50.9-18.5c1.6-0.6,3.3,0.2,3.8,1.8c0.1,0.3,0.2,0.7,0.2,1.1l-2.8,155.8
    c0,1.3-0.7,2.5-1.7,3.2l-48.5,33.2l0,0L441.2,354z" fill="#c0cfd8"/>
  <path d="M143.9,381.9c36.1-10.7,58.1-16.8,66-18.1c7.9-1.3,102.3-10.9,283.1-28.6l-50.4,19.4L143.9,381.9z" fill="#738da0"
    />
  <path d="M98.1,236.4c-5.6,1-9.5,2.2-11.8,3.6c-3.4,2.1-15.1,12.7-8.5,41c6.5,28.4,21.5,32.5,25.2,33.1
    c2.5,0.4,6.7-0.2,12.6-1.9L98.1,236.4z" fill="#738da0"/>
  <path d="M435.4,116.1l56.1,37.8c1.1,0.7,1.8,2,1.8,3.3v126.5c0,1.7-1.1,3.3-2.8,3.8l-52.6,16.7l0,0
    L435.4,116.1z" fill="#c0cfd8"/>
  <path d="M80.4,201.6l32,148.8c0.4,2.1,2.4,3.4,4.5,3.1l320.8-48.9c2-0.3,3.4-2,3.4-4L438,119.9
    c0-2.2-1.9-4-4.1-3.9c-0.3,0-0.6,0-0.8,0.1L83.4,196.8C81.3,197.3,80,199.4,80.4,201.6z" fill="#f2f5f7"/>
  <path d="M254.4,536.7c2.5,62.6,7.6,93.8,15.2,93.5c7.6-0.3,14.2-31.9,19.7-95L254.4,536.7z" fill="#c0cfd8"/>
  <path d="M341.1,677.5c-22.2,4.6-51.7,0.9-62-3.6s-24.7-27.5-26-60.3c-1.3-32.8,11.6-53.5,21-60.4
    s54.5-12.1,66.9-7.8S363.3,672.9,341.1,677.5z" fill="#738da0"/>
  <path d="M320.9,660c0-1.1-0.9-2-2-2h-54.3c0.8,1.4,1.6,2.7,2.4,4h51.9C320,662,320.9,661.1,320.9,660z" fill="#c0cfd8"/>
  <path d="M311.9,636c0-1.1-0.9-2-2-2h-54.1c0.3,1.4,0.6,2.7,1,4h53.1C311,638,311.9,637.1,311.9,636z" fill="#c0cfd8"/>
  <path d="M306.9,612c0-1.1-0.9-2-2-2h-51.8c0,1.2,0,2.4,0.1,3.7c0,0.1,0,0.2,0,0.3h51.7C306,614,306.9,613.1,306.9,612z" fill="#c0cfd8"
    />
  <path d="M310.9,588c0-1.1-0.9-2-2-2h-53.2c-0.3,1.3-0.6,2.6-0.9,4h54C310,590,310.9,589.1,310.9,588z" fill="#c0cfd8"/>
  <path d="M316.9,564c0-1.1-0.9-2-2-2h-48.8c-0.9,1.2-1.7,2.6-2.5,4h51.4C316,566,316.9,565.1,316.9,564z" fill="#c0cfd8"/>
  <ellipse cx="339.4" cy="611.5" rx="36" ry="66" fill="#485968"/>
  <ellipse cx="343.9" cy="611.5" rx="7.5" ry="22" fill="#252b32"/>
  <path d="M328.4,533.7c2.5,62.6,7.6,93.8,15.2,93.5
    c7.6-0.3,14.2-31.9,19.7-95L328.4,533.7z" fill="#c0cfd8"/>
  <path d="M141.2,387.2l20.3,149.6c0.3,2,2.1,3.5,4.1,3.5l276.3-9.7c2.2-0.1,3.9-1.8,3.9-4V358.4
    c0-2.2-1.8-4-4-4c-0.1,0-0.2,0-0.4,0l-295.7,27.1c-2.7,0.3-4.8,2.7-4.5,5.4C141.2,387.1,141.2,387.1,141.2,387.2z" fill="#f2f5f7"/>
  <path d="M474.4,407.5h1c3.9,0,7,3.1,7,7v151
    c0,3.9-3.1,7-7,7h-1c-3.9,0-7-3.1-7-7v-151C467.4,410.6,470.5,407.5,474.4,407.5z" fill="#738da0"/>
  <path d="M403.7,533.2c-0.5,23.7-0.5,40.6,0,50.5c1,20.3-3.8,39,13.7,49.8c19.8,12.2,132.8,14.1,219.6,24
    c41.3,4.7,72,13,81.3,17.5c19.2,9.2-16.8,26.3-107.8,51.2" fill="none" stroke="#252b32" stroke-width="4"/>
  <path d="M592.5,747.3v18.2l32.9-18.2c1.3-0.7,2.1-2,2.1-3.5v-11.5l0,0c-5,3.3-9.6,6-13.8,7.9
    C609.4,742.1,602.4,744.5,592.5,747.3z" fill="#485968"/>
  <path d="M549.2,731.1l-0.3,15.8l0,0l43.1,18.5c0.5,0.2,1.1,0,1.3-0.5c0.1-0.1,0.1-0.2,0.1-0.4l0.3-15
    c0-1.3-0.7-2.4-1.9-2.9l-41.3-16.5c-0.5-0.2-1.1,0-1.3,0.6C549.3,730.9,549.2,731,549.2,731.1z" fill="#738da0"/>
  <path d="M550,730.2l43.2,17.7c9.4-3.1,15.7-5.3,18.8-6.6c10.6-4.5,15.4-7.3,15.4-8.9
    c0-3.6-8.4-6.3-14.2-8.5c-5.8-2.2-11.8-3.5-17.8-3.5C591.4,720.4,576.3,723.6,550,730.2z" fill="#738da0"/>
  <path d="M102.1,208.6l309.2-72.7c2.2-0.5,4.3,0.8,4.8,3c0.1,0.2,0.1,0.5,0.1,0.7l7.8,147.2
    c0.1,2-1.3,3.8-3.4,4.2L129,337.8c-2.1,0.3-4.1-1-4.6-3.1L99.1,213.3C98.7,211.2,100,209.1,102.1,208.6z" fill="#738da0"/>
  <path d="M108.9,212l302.6-71.9
    c2.1-0.5,4.3,0.8,4.8,3c0.1,0.2,0.1,0.5,0.1,0.7l7.3,137.6c0.1,2-1.3,3.8-3.4,4.2L133.7,332c-2.1,0.3-4.1-1-4.6-3.1l-23.3-112.1
    C105.4,214.6,106.8,212.5,108.9,212z" fill="#183889"/>
  <path d="M484.2,175.7c-5.7-0.3-9.8,0-12.3,0.8
    c-3.8,1.3-17.5,8.9-17.5,38s13.6,36.5,17.1,37.9c2.3,1,6.6,1.3,12.7,1V175.7z" fill="#738da0"/>
  <ellipse cx="484.2" cy="214.6" rx="19.4" ry="38.9" fill="#738da0"/>
  <path d="M155,286c7.3,6.7,16.8,9.2,28.5,7.3c11.6-1.9,20.8-7.3,27.6-16.4" fill="none" stroke="#3D84F5" stroke-width="7" stroke-linecap="round"/>
  <path d="M297.7,258c7.3,6.7,16.8,9.2,28.5,7.3
    c11.6-1.9,20.8-7.3,27.6-16.4" fill="none" stroke="#3D84F5" stroke-width="7" stroke-linecap="round"/>
  <path d="M154.8,608.8c0-22.7,10-34,30.1-34s30.1,11.3,30.1,34h-17.1c-0.1-11.2-4.4-16.9-12.9-17.1
    s-13.4,5.5-14.8,17.1H154.8z" fill="#c0cfd8"/>
  <path d="M444.8,599.8c0-22.7,10-34,30.1-34
    c20,0,30.1,11.3,30.1,34h-17.1c-0.1-11.2-4.4-16.9-12.9-17.1c-8.5-0.2-13.4,5.5-14.8,17.1H444.8z" fill="#c0cfd8"/>
  <polygon points="165.9,404 167.5,417.4 225.9,411.9 224,398.4 " fill="#c0cfd8"/>
  <path d="M591.7,167.7c-0.5-0.7-1.2-1.1-2-1.1H546l44-56.1c0.7-0.9,1.1-1.7,1.1-2.5c0-1.8-1.8-2.7-5.3-2.7h-47.1
    c-0.8,0-1.5,0.3-2,1c-0.5,0.7-0.7,1.5-0.7,2.5c0,2.5,0.9,3.7,2.6,3.7h40.1L534.6,169c-0.5,0.5-0.7,1.1-0.7,1.8
    c0,0.9,0.5,1.7,1.5,2.3c1,0.6,2.3,0.9,3.8,0.9h50.5c1.8,0,2.7-1.2,2.7-3.6C592.5,169.3,592.2,168.4,591.7,167.7z" fill="#ffffff"/>
  <path d="M662.5,115c-0.4-0.6-0.9-0.9-1.6-0.9h-34.8l35-44.6c0.6-0.7,0.9-1.4,0.9-2c0-1.5-1.4-2.2-4.2-2.2h-37.5
    c-0.7,0-1.2,0.3-1.6,0.8c-0.4,0.5-0.5,1.2-0.5,2c0,2,0.7,3,2.1,3h31.9L617.1,116c-0.4,0.4-0.5,0.9-0.5,1.4c0,0.7,0.4,1.3,1.2,1.8
    c0.8,0.5,1.8,0.7,3,0.7h40.2c1.5,0,2.2-1,2.2-2.9C663.1,116.3,662.9,115.6,662.5,115z" fill="#ffffff"/>
  <path d="M724,66.2c-0.3-0.4-0.7-0.6-1.2-0.6h-26.3l26.5-33.7c0.4-0.6,0.6-1,0.6-1.5c0-1.1-1.1-1.7-3.2-1.7H692
    c-0.5,0-0.9,0.2-1.2,0.6c-0.3,0.4-0.4,0.9-0.4,1.5c0,1.5,0.5,2.2,1.6,2.2h24.1L689.6,67c-0.3,0.3-0.4,0.7-0.4,1.1
    c0,0.6,0.3,1,0.9,1.4c0.6,0.4,1.4,0.5,2.3,0.5h30.4c1.1,0,1.7-0.7,1.7-2.2C724.4,67.2,724.3,66.7,724,66.2z" fill="#ffffff"/>
  <path d="M561.9,739.1l-27.3,9.4c-0.8,0.3-1.3,1-1.3,1.9v7.1c0,0.6,0.4,1,1,1c0.1,0,0.2,0,0.3-0.1l27.3-9
    c0.8-0.3,1.4-1,1.4-1.9V740c0-0.6-0.4-1-1-1C562.1,739,562,739,561.9,739.1z" fill="#d8d8d8"/>
  <path d="M582.9,746.1l-27.3,9.4
    c-0.8,0.3-1.3,1-1.3,1.9v7.1c0,0.6,0.4,1,1,1c0.1,0,0.2,0,0.3-0.1l27.3-9c0.8-0.3,1.4-1,1.4-1.9V747c0-0.6-0.4-1-1-1
    C583.1,746,583,746,582.9,746.1z" fill="#d8d8d8"/>
</svg>
