<svg xmlns="http://www.w3.org/2000/svg" viewBox="0 0 200 200">
  <path class="wifi-bar" d="M100,45c30.7,0,58.8,11.2,80.6,29.7l9.4-11.1c-24.3-20.7-55.7-33.2-90-33.2c-34.3,0-65.7,12.6-90,33.2l9.4,11.1
  C41.2,56.3,69.3,45,100,45z" fill="#c0cfd8"></path>
  <path class="wifi-bar" d="M100,80.4c22,0,42.1,8,57.7,21.3l9.4-11.1C149,75.1,125.6,65.8,100,65.8c-25.6,0-49,9.4-67.1,24.8l9.4,11.1
  C57.9,88.4,78,80.4,100,80.4z" fill="#c0cfd8"></path>
  <path class="wifi-bar" d="M100,118.5c12.6,0,24.1,4.6,33,12.2l9.4-11.1c-11.5-9.8-26.3-15.7-42.5-15.7c-16.2,0-31,5.9-42.5,15.7l9.4,11.1
  C75.9,123.1,87.4,118.5,100,118.5z" fill="#c0cfd8"></path>
  <path class="wifi-bar" d="M118.8,147.4c-5.1-4.3-11.6-7-18.8-7c-7.2,0-13.7,2.7-18.8,7l18.8,22.1L118.8,147.4z" fill="#c0cfd8"></path>
</svg>
