<svg xmlns="http://www.w3.org/2000/svg" width="415" height="74" viewBox="0 0 415 74"><polygon points="29.101 47.991 19.699 47.983 19.695 57.237 29.419 66.955 47.966 66.931 45.935 64.908 29.106 64.908 29.101 47.991" style="fill:#2a5ca8"/><path d="M55.523,52.653,51.106,41.917s-4.982-15.988-5.079-16.558h-.786l0,2.334-2.18-.011v-1.51H29.581V7.453H49.719L43.826,1.538l-23.357,0V22.186H1.061V39.972l7.63,7.63V27.3h2.788l1.27,1.855H22.809l2.949,2.351,7.944.732,3.309,8-.982,2.736,2.312-2.218,1.173,1.16-2.5,3.637,4.582,11.81,7.815,5.82,2.1,3.781,2.045-4.352,2.376-3.134Z" style="fill:#2a5ca8"/><polygon points="66.833 27.263 49.719 27.253 49.719 22.489 64.48 22.489 68.275 26.619 69.24 27.607 69.215 44.125 67.544 46.147 67.544 27.294 66.833 27.263" style="fill:#2a5ca8"/><path d="M122.268,45.548a10.286,10.286,0,0,1-5.966,9.687,21.231,21.231,0,0,1-8.275,1.925q-1.477.065-8.724.063H91.477c-.728,0-1.09-.181-1.09-.544s.663-.546,1.988-.546q2.309,0,2.727-.482t.416-2.918v-34.7a10.745,10.745,0,0,0-.256-3.271q-.451-.768-3.271-.833-1.733,0-1.732-.676,0-.608,1.6-.608h.769a4.945,4.945,0,0,0,1.283.193h12.509q6.928.064,10.328,2.309a8.588,8.588,0,0,1,3.977,7.633,8.976,8.976,0,0,1-3.271,7.152q-3.272,2.79-9.173,3.5v.384q5.837.386,9.109,2.438A10.258,10.258,0,0,1,122.268,45.548Zm-8.6-22.13q0-6.159-2.823-8.211-1.477-1.09-5.581-1.09-1.092,0-3.4.192v18.6h.578l3.528-.128a7.273,7.273,0,0,0,5.677-2.6A10.383,10.383,0,0,0,113.672,23.418Zm1.86,21.424q0-8.082-6.543-10.006a28.931,28.931,0,0,0-7.12-.578V53.374q0,1.862.385,2.117.641.451,3.593.449a9.178,9.178,0,0,0,7.056-2.823Q115.531,50.3,115.532,44.842Z" style="fill:#4f4f53"/><path d="M112.9,53.117a9.18,9.18,0,0,1-7.057,2.823q-2.95,0-3.592-.449-.385-.254-.385-2.116V34.258a28.931,28.931,0,0,1,7.12.578q6.543,1.923,6.543,10.006Q115.532,50.3,112.9,53.117Zm-1.251-22.932a7.277,7.277,0,0,1-5.677,2.6l-3.528.128h-.578v-18.6q2.309-.192,3.4-.192,4.106,0,5.581,1.09,2.822,2.054,2.823,8.211A10.383,10.383,0,0,1,111.652,30.185Zm5.741,6.062q-3.271-2.052-9.109-2.438v-.384q5.9-.705,9.173-3.5a8.976,8.976,0,0,0,3.271-7.152,8.587,8.587,0,0,0-3.977-7.633q-3.4-2.244-10.328-2.309H93.916a4.906,4.906,0,0,1-1.283-.193h-.77q-1.6,0-1.6.608,0,.676,1.733.676,2.821.065,3.271.834a10.747,10.747,0,0,1,.256,3.271v34.7q0,2.437-.416,2.918t-2.727.481c-1.326,0-1.989.184-1.989.546s.363.545,1.091.545H99.3q7.246,0,8.723-.063a21.236,21.236,0,0,0,8.276-1.925,10.286,10.286,0,0,0,5.965-9.687A10.262,10.262,0,0,0,117.393,36.248Z" style="fill:#4f4f53"/><path d="M150.171,54.337q0,1.091-2.266,2.277a9.416,9.416,0,0,1-4.371,1.187q-4.4,0-4.6-4.553a7.953,7.953,0,0,1-7.53,4.746,6.448,6.448,0,0,1-4.532-1.635,5.441,5.441,0,0,1-1.787-4.2q0-5.259,6.292-8.339a34.728,34.728,0,0,1,7.5-2.052v-1.6a29.955,29.955,0,0,0-.578-7.442,4.376,4.376,0,0,0-4.619-3.271,5.78,5.78,0,0,0-3.753,1.219,3.8,3.8,0,0,0-1.507,3.08c0,.343.266.512.8.512a1.866,1.866,0,0,1,1.444.769,2.643,2.643,0,0,1,.642,1.733,2.495,2.495,0,0,1-2.823,2.823,3.245,3.245,0,0,1-2.438-.994,3.5,3.5,0,0,1-.962-2.534,6.818,6.818,0,0,1,2.374-5.2,10.535,10.535,0,0,1,7.312-2.374q7.055,0,8.66,3.849a19,19,0,0,1,.578,5.836v12q0,2.951.064,3.464.32,2.309,1.859,2.309a3.788,3.788,0,0,0,2.95-1.282q.641-.705.962-.707C150.063,53.951,150.171,54.079,150.171,54.337Zm-11.29-6.8V42.854q-4.741,1.091-6.8,2.855a5.9,5.9,0,0,0-2.055,4.715,4.874,4.874,0,0,0,1.17,3.368,3.768,3.768,0,0,0,2.941,1.315q2.717,0,4.361-3.08Q138.881,51.321,138.881,47.537Z" style="fill:#4f4f53"/><path d="M138.5,52.027q-1.644,3.078-4.361,3.08a3.768,3.768,0,0,1-2.942-1.316,4.874,4.874,0,0,1-1.17-3.367,5.9,5.9,0,0,1,2.055-4.715q2.055-1.763,6.8-2.855v4.683Q138.881,51.322,138.5,52.027Zm11.349,1.925q-.321,0-.962.707a3.792,3.792,0,0,1-2.951,1.281q-1.539,0-1.859-2.309-.065-.512-.064-3.464v-12a19.005,19.005,0,0,0-.578-5.836q-1.6-3.849-8.66-3.849a10.519,10.519,0,0,0-7.311,2.373,6.822,6.822,0,0,0-2.374,5.2,3.5,3.5,0,0,0,.962,2.534,3.245,3.245,0,0,0,2.438.994,2.495,2.495,0,0,0,2.823-2.823,2.645,2.645,0,0,0-.642-1.733,1.865,1.865,0,0,0-1.444-.769q-.8,0-.8-.513a3.8,3.8,0,0,1,1.507-3.079,5.777,5.777,0,0,1,3.753-1.219,4.374,4.374,0,0,1,4.618,3.271,29.9,29.9,0,0,1,.577,7.441v1.6a34.726,34.726,0,0,0-7.5,2.052q-6.293,3.08-6.292,8.339a5.443,5.443,0,0,0,1.787,4.2,6.453,6.453,0,0,0,4.532,1.635,7.953,7.953,0,0,0,7.53-4.746q.192,4.555,4.6,4.553a9.424,9.424,0,0,0,4.371-1.186q2.265-1.188,2.266-2.277C150.171,54.078,150.063,53.951,149.85,53.951Z" style="fill:#4f4f53"/><path d="M176.277,42.982a16.018,16.018,0,0,1-3.635,10.713,11.374,11.374,0,0,1-9.043,4.3,7.728,7.728,0,0,1-6.564-3.079V69.859a7.507,7.507,0,0,0,.1,1.667c.064.171.27.321.617.449a23.629,23.629,0,0,0,3.766.192q.778,0,.779.578c0,.3-.279.448-.833.448H148.887q-1.861,0-1.86-.477,0-.613.769-.613h1.925q1.86,0,1.988-.834.062-.385.064-5.9V33.425q0-1.8-1.733-1.668h-2.693q-.577,0-.578-.477,0-.615,1.412-.614A11.8,11.8,0,0,0,154.6,29a2.8,2.8,0,0,1,1.283-.514.649.649,0,0,1,.673.482,15.684,15.684,0,0,1,.224,2.919,7.789,7.789,0,0,1,6.8-3.4,11.593,11.593,0,0,1,9.141,4.073A15.261,15.261,0,0,1,176.277,42.982Zm-5.708.031a21.3,21.3,0,0,0-1.546-8.551q-2.062-4.885-6.38-4.886a5.337,5.337,0,0,0-3.868,1.575,5.621,5.621,0,0,0-1.739,3.826q-.129,2.83.064,11.9.064,4.565.194,5.5a4.189,4.189,0,0,0,.838,1.9,5.692,5.692,0,0,0,4.834,2.636,5.471,5.471,0,0,0,5.027-2.829Q170.567,49.765,170.569,43.013Z" style="fill:#4f4f53"/><path d="M167.992,54.074a5.475,5.475,0,0,1-5.028,2.829,5.691,5.691,0,0,1-4.834-2.636,4.2,4.2,0,0,1-.838-1.9q-.13-.931-.194-5.5-.192-9.065-.064-11.895a5.626,5.626,0,0,1,1.74-3.827,5.336,5.336,0,0,1,3.868-1.575q4.318,0,6.38,4.886a21.292,21.292,0,0,1,1.546,8.552Q170.569,49.766,167.992,54.074Zm4.726-21.514a11.593,11.593,0,0,0-9.141-4.073,7.792,7.792,0,0,0-6.8,3.4,15.714,15.714,0,0,0-.224-2.92.649.649,0,0,0-.673-.481A2.809,2.809,0,0,0,154.6,29a11.8,11.8,0,0,1-6.414,1.667q-1.411,0-1.411.614c0,.318.192.476.578.476h2.693q1.733-.128,1.733,1.669V65.369q0,5.517-.065,5.9-.129.833-1.988.834H147.8q-.77,0-.769.614,0,.475,1.86.477H161.46c.555,0,.834-.15.834-.448q0-.579-.779-.578a23.631,23.631,0,0,1-3.767-.192c-.347-.129-.553-.278-.617-.449a7.414,7.414,0,0,1-.1-1.667V54.913a7.731,7.731,0,0,0,6.565,3.079,11.373,11.373,0,0,0,9.042-4.3,16.017,16.017,0,0,0,3.636-10.712,15.27,15.27,0,0,0-3.56-10.423Z" style="fill:#4f4f53"/><path d="M196.355,53.438q0,.578-1.6,2.052a9.416,9.416,0,0,1-6.542,2.5,7.235,7.235,0,0,1-5.324-1.792q-1.027-1.022-1.026-6.015V31.113a.711.711,0,0,0-.706-.7h-2.438q-1.412,0-1.412-.449t.7-.513a9.866,9.866,0,0,0,7.776-4.932,1.12,1.12,0,0,1,.956-.584.395.395,0,0,1,.446.448v1.347a14.066,14.066,0,0,0,.257,3.464,9.936,9.936,0,0,0,1.924.129A21.484,21.484,0,0,0,194.045,29a1.948,1.948,0,0,1,.449-.064q.512,0,.512.554,0,.923-5.2.923h-2.63V42.278a80.981,80.981,0,0,0,.449,11.258,2.652,2.652,0,0,0,2.95,2.277q2.118,0,4.747-2.373a.734.734,0,0,1,.577-.321C196.2,53.117,196.355,53.225,196.355,53.438Z" style="fill:#4f4f53"/><path d="M195.905,53.117a.734.734,0,0,0-.577.321q-2.631,2.375-4.747,2.373a2.652,2.652,0,0,1-2.95-2.277,80.913,80.913,0,0,1-.449-11.257V30.409h2.63q5.2,0,5.2-.922c0-.369-.172-.554-.512-.554a1.878,1.878,0,0,0-.449.064,21.5,21.5,0,0,1-4.683.321,9.859,9.859,0,0,1-1.924-.129,14.017,14.017,0,0,1-.257-3.464V24.38a.4.4,0,0,0-.447-.449,1.121,1.121,0,0,0-.956.585A9.864,9.864,0,0,1,178,29.447c-.467.044-.7.214-.7.514s.471.449,1.412.449h2.437a.713.713,0,0,1,.706.7V50.185q0,4.993,1.026,6.016a7.234,7.234,0,0,0,5.324,1.791,9.417,9.417,0,0,0,6.543-2.5q1.6-1.473,1.6-2.052C196.355,53.224,196.2,53.117,195.905,53.117Z" style="fill:#4f4f53"/><path d="M210.659,56.838q0,.576-1.09.577.062,0-1.54-.128-1.924-.128-3.207-.129h-6.671a1.2,1.2,0,0,1-.769.256c-.471,0-.705-.159-.705-.475,0-.453.426-.68,1.283-.68,1.625-.042,2.512-.161,2.662-.352a7.7,7.7,0,0,0,.225-2.663V33.808a11.131,11.131,0,0,0-.161-1.892c-.064-.193-.331-.289-.8-.289h-2.5c-.471,0-.705-.15-.705-.449,0-.262.357-.411,1.075-.449a15.311,15.311,0,0,0,7.278-2l.634-.375a8.391,8.391,0,0,1,.506,3.52V52.485a24.041,24.041,0,0,0,.1,3.007.772.772,0,0,0,.673.577,11.727,11.727,0,0,0,2.823.256Q210.659,56.325,210.659,56.838Zm-4.812-39.963a2.551,2.551,0,0,1-2.886,2.886,2.842,2.842,0,0,1-2.053-.8A2.608,2.608,0,0,1,200.075,17q0-3.015,2.886-3.016a2.552,2.552,0,0,1,2.886,2.888Z" style="fill:#4f4f53"/><path d="M209.762,56.325a11.742,11.742,0,0,1-2.824-.256.771.771,0,0,1-.672-.577,24.041,24.041,0,0,1-.1-3.007V31.877a8.4,8.4,0,0,0-.506-3.519l-.634.374a15.3,15.3,0,0,1-7.278,2c-.718.038-1.075.188-1.075.448,0,.3.234.449.705.449h2.5c.471,0,.738.1.8.289a11.172,11.172,0,0,1,.16,1.892V53.247a7.68,7.68,0,0,1-.225,2.663q-.224.287-2.662.351-1.283,0-1.283.68c0,.317.234.475.705.475a1.2,1.2,0,0,0,.77-.256h6.671q1.282,0,3.207.129,1.6.128,1.54.128,1.09,0,1.09-.576Q210.658,56.326,209.762,56.325Zm-6.8-42.336q-2.886,0-2.886,3.016a2.612,2.612,0,0,0,.833,1.956,2.845,2.845,0,0,0,2.053.8,2.551,2.551,0,0,0,2.886-2.886,2.552,2.552,0,0,0-2.886-2.887Z" style="fill:#4f4f53"/><path d="M230.224,49.057a8.461,8.461,0,0,1-2.708,6.332,9,9,0,0,1-6.467,2.6,12.5,12.5,0,0,1-5.287-1.54A3.18,3.18,0,0,0,214.3,56q-.893,0-1.338,1.219c-.17.514-.4.769-.7.769s-.446-.171-.446-.514v-8.6q0-.705.449-.706c.342,0,.534.237.577.711a9.613,9.613,0,0,0,1.668,4.653,8.2,8.2,0,0,0,6.864,3.36,5.157,5.157,0,0,0,3.721-1.35,4.753,4.753,0,0,0,1.411-3.6,5.158,5.158,0,0,0-1.6-3.986,6.948,6.948,0,0,0-1.636-1.19q-.739-.352-4.33-1.7-7.12-2.7-7.121-8.1a8.252,8.252,0,0,1,2.418-6.043,8.082,8.082,0,0,1,5.983-2.444,14.707,14.707,0,0,1,3.818.769,3.984,3.984,0,0,0,1.146.193,1.541,1.541,0,0,0,1.654-1.283c.128-.426.319-.642.574-.642.3,0,.445.172.445.514v3.079a35.966,35.966,0,0,0,.322,4.94v.128a.455.455,0,0,1-.514.514q-.385,0-.962-1.942A7.475,7.475,0,0,0,224.224,31a6.3,6.3,0,0,0-4.072-1.425,4.973,4.973,0,0,0-3.592,1.351,4.512,4.512,0,0,0-1.412,3.407q0,3.215,4.3,4.886,6.671,2.637,8.466,4.373A7.338,7.338,0,0,1,230.224,49.057Z" style="fill:#4f4f53"/><path d="M251.328,53.438q0,.578-1.6,2.052a9.418,9.418,0,0,1-6.543,2.5,7.232,7.232,0,0,1-5.324-1.792q-1.028-1.022-1.026-6.015V31.113a.712.712,0,0,0-.706-.7h-2.438q-1.412,0-1.412-.449t.7-.513a9.864,9.864,0,0,0,7.776-4.932,1.122,1.122,0,0,1,.955-.584.4.4,0,0,1,.447.448v1.347a14.013,14.013,0,0,0,.257,3.464,9.928,9.928,0,0,0,1.924.129A21.5,21.5,0,0,0,249.018,29a1.933,1.933,0,0,1,.448-.064c.343,0,.512.185.512.554q0,.923-5.194.923h-2.63V42.278a81.067,81.067,0,0,0,.449,11.258,2.653,2.653,0,0,0,2.951,2.277q2.116,0,4.747-2.373a.734.734,0,0,1,.578-.321C251.178,53.117,251.328,53.225,251.328,53.438Z" style="fill:#4f4f53"/><path d="M227.913,43.591q-1.795-1.734-8.466-4.372-4.3-1.672-4.3-4.886a4.512,4.512,0,0,1,1.412-3.407,4.975,4.975,0,0,1,3.591-1.35A6.3,6.3,0,0,1,224.225,31a7.48,7.48,0,0,1,2.47,3.755q.577,1.943.962,1.942a.454.454,0,0,0,.514-.513v-.129a35.743,35.743,0,0,1-.321-4.939V28.036c0-.342-.148-.514-.445-.514-.257,0-.447.216-.574.642a1.542,1.542,0,0,1-1.654,1.283,3.974,3.974,0,0,1-1.145-.192,14.681,14.681,0,0,0-3.818-.77,8.082,8.082,0,0,0-5.982,2.444,8.254,8.254,0,0,0-2.417,6.042q0,5.4,7.119,8.1,3.593,1.35,4.331,1.7a6.969,6.969,0,0,1,1.635,1.19,5.154,5.154,0,0,1,1.6,3.986,4.751,4.751,0,0,1-1.41,3.6,5.16,5.16,0,0,1-3.721,1.35,8.194,8.194,0,0,1-6.863-3.36,9.6,9.6,0,0,1-1.669-4.653c-.043-.473-.235-.712-.576-.712-.3,0-.449.237-.449.706v8.6c0,.343.148.513.446.513s.531-.256.7-.769Q213.407,56,214.3,56a3.172,3.172,0,0,1,1.465.449,12.489,12.489,0,0,0,5.288,1.539,9.008,9.008,0,0,0,6.467-2.6,8.463,8.463,0,0,0,2.706-6.332A7.352,7.352,0,0,0,227.913,43.591Z" style="fill:#4f4f53"/><path d="M250.879,53.117a.736.736,0,0,0-.579.321q-2.631,2.375-4.747,2.373a2.653,2.653,0,0,1-2.95-2.277,80.924,80.924,0,0,1-.449-11.257V30.409h2.631q5.194,0,5.194-.922,0-.554-.512-.554a1.878,1.878,0,0,0-.449.064,21.493,21.493,0,0,1-4.682.321,9.848,9.848,0,0,1-1.925-.129,14,14,0,0,1-.257-3.464V24.38a.4.4,0,0,0-.447-.449,1.12,1.12,0,0,0-.955.585,9.863,9.863,0,0,1-7.776,4.932c-.467.044-.7.214-.7.514s.471.449,1.412.449h2.437a.714.714,0,0,1,.706.7V50.185q0,4.993,1.026,6.016a7.23,7.23,0,0,0,5.324,1.791,9.418,9.418,0,0,0,6.543-2.5q1.6-1.473,1.6-2.052Q251.328,53.117,250.879,53.117Z" style="fill:#4f4f53"/><path d="M303.286,56.645q0,.576-1.21.577H288.139c-.85,0-1.273-.17-1.273-.513s.992-.575,2.976-.7q1.584-.126,1.837-.543a9.056,9.056,0,0,0,.254-2.975V33.809H272.624V51.963q0,2.885.449,3.4t3.016.707q1.666.129,1.667.577,0,.576-1.283.577h-13.92c-.856,0-1.283-.17-1.283-.513s.426-.554,1.283-.64c.554-.042,1.132-.086,1.732-.129a2.55,2.55,0,0,0,1.8-.64,15.4,15.4,0,0,0,.193-3.587V17.9a10.521,10.521,0,0,0-.29-3.394q-.287-.512-2.02-.576-1.988-.136-2.342-.2c-.235-.044-.351-.225-.351-.541,0-.36.277-.54.833-.54.17,0,.535.022,1.091.063q1.6.131,7.569.129,3.272,0,4.554-.1a5.708,5.708,0,0,1,1.154-.1q1.155,0,1.154.643,0,.579-2.084.579t-2.5.483q-.419.483-.419,3.057V32.2h19.309V18.369q0-3.411-.513-4.022t-3.593-.547q-.961,0-.962-.58c0-.385.363-.579,1.091-.579h13.983q1.346,0,1.347.577t-2.823.642a4.208,4.208,0,0,0-1.219.128,1.087,1.087,0,0,0-.8.707,15.492,15.492,0,0,0-.16,3.014V51.834a10.6,10.6,0,0,0,.317,3.593q.634.705,3.673.7Q303.285,56.005,303.286,56.645Z" style="fill:#4f4f53"/><path d="M302.271,56.133q-3.04,0-3.673-.7a10.62,10.62,0,0,1-.317-3.593V17.709a15.407,15.407,0,0,1,.16-3.015,1.089,1.089,0,0,1,.8-.706,4.212,4.212,0,0,1,1.219-.128q2.822-.064,2.823-.643t-1.348-.576H287.955q-1.09,0-1.09.579c0,.387.319.58.961.58q3.079-.064,3.592.546t.514,4.022V32.206H272.623V17.4q0-2.575.418-3.057t2.5-.483q2.084,0,2.085-.579,0-.644-1.155-.643a5.7,5.7,0,0,0-1.153.1q-1.287.1-4.555.1-5.966,0-7.569-.129c-.556-.042-.92-.063-1.09-.063q-.835,0-.834.539c0,.316.117.5.352.541s1.016.112,2.342.2q1.731.064,2.02.576a10.528,10.528,0,0,1,.289,3.394V51.714a15.4,15.4,0,0,1-.193,3.588,2.548,2.548,0,0,1-1.8.64c-.6.043-1.176.087-1.733.129q-1.283.129-1.283.64c0,.343.427.512,1.283.512h13.921q1.282,0,1.282-.576,0-.45-1.667-.577c-1.711-.13-2.716-.362-3.015-.706s-.449-1.475-.449-3.4V33.809h19.308V52.49a9.014,9.014,0,0,1-.255,2.975q-.253.416-1.837.543-2.976.192-2.975.7c0,.343.424.512,1.272.512h13.937q1.209,0,1.21-.576C303.285,56.219,302.946,56.047,302.271,56.133Z" style="fill:#4f4f53"/><path d="M327.211,50.231a5.679,5.679,0,0,1-.994,2.277,14.213,14.213,0,0,1-2.02,2.662,9.839,9.839,0,0,1-7.377,2.823,12.648,12.648,0,0,1-9.654-4.169,14.578,14.578,0,0,1-3.88-10.328,15.867,15.867,0,0,1,3.689-10.712,11.635,11.635,0,0,1,9.2-4.3,11.258,11.258,0,0,1,7.632,2.663,9.222,9.222,0,0,1,3.272,6.831,32.543,32.543,0,0,1-5.452.257h-4.491q-.449,0-7.7.191a26.636,26.636,0,0,0-.322,4.026q0,6.457,2.47,9.938a8.036,8.036,0,0,0,6.961,3.484,6.673,6.673,0,0,0,4.1-1.155,14.1,14.1,0,0,0,3.336-4.426.781.781,0,0,1,.706-.513C327.038,49.781,327.211,49.933,327.211,50.231ZM321.63,37.146q-.259-7.7-5.517-7.7-5.2,0-6.479,7.7Z" style="fill:#4f4f53"/><path d="M309.635,37.145q1.282-7.7,6.479-7.7,5.259,0,5.517,7.7ZM326.7,49.781a.779.779,0,0,0-.706.514,14.106,14.106,0,0,1-3.335,4.425,6.683,6.683,0,0,1-4.1,1.155,8.037,8.037,0,0,1-6.961-3.484q-2.47-3.483-2.47-9.938a26.774,26.774,0,0,1,.321-4.027q7.248-.192,7.7-.191h4.49a32.635,32.635,0,0,0,5.452-.257,9.221,9.221,0,0,0-3.271-6.831,11.265,11.265,0,0,0-7.633-2.663,11.636,11.636,0,0,0-9.2,4.3,15.864,15.864,0,0,0-3.689,10.711,14.581,14.581,0,0,0,3.879,10.328,12.648,12.648,0,0,0,9.656,4.169,9.839,9.839,0,0,0,7.376-2.823,14.208,14.208,0,0,0,2.019-2.662,5.655,5.655,0,0,0,.994-2.277C327.21,49.933,327.039,49.781,326.7,49.781Z" style="fill:#4f4f53"/><path d="M355.113,54.337q0,1.091-2.265,2.277a9.417,9.417,0,0,1-4.372,1.187q-4.406,0-4.595-4.553a7.955,7.955,0,0,1-7.53,4.746,6.453,6.453,0,0,1-4.533-1.635,5.44,5.44,0,0,1-1.786-4.2q0-5.259,6.292-8.339a34.73,34.73,0,0,1,7.5-2.052v-1.6a29.952,29.952,0,0,0-.578-7.442,4.376,4.376,0,0,0-4.619-3.271,5.78,5.78,0,0,0-3.753,1.219,3.8,3.8,0,0,0-1.508,3.08c0,.343.266.512.8.512a1.863,1.863,0,0,1,1.444.769,2.643,2.643,0,0,1,.642,1.733,2.495,2.495,0,0,1-2.823,2.823,3.244,3.244,0,0,1-2.437-.994,3.5,3.5,0,0,1-.962-2.534,6.822,6.822,0,0,1,2.373-5.2,10.539,10.539,0,0,1,7.313-2.374q7.056,0,8.66,3.849a19.007,19.007,0,0,1,.577,5.836v12q0,2.951.064,3.464.322,2.309,1.861,2.309a3.788,3.788,0,0,0,2.95-1.282q.641-.705.963-.707C355.006,53.951,355.113,54.079,355.113,54.337Zm-11.29-6.8V42.854q-4.743,1.091-6.8,2.855a5.9,5.9,0,0,0-2.055,4.715,4.876,4.876,0,0,0,1.169,3.368,3.769,3.769,0,0,0,2.941,1.315q2.718,0,4.362-3.08Q343.823,51.321,343.823,47.537Z" style="fill:#4f4f53"/><path d="M343.444,52.027q-1.645,3.078-4.362,3.08a3.765,3.765,0,0,1-2.94-1.316,4.87,4.87,0,0,1-1.17-3.367,5.9,5.9,0,0,1,2.055-4.715q2.055-1.763,6.8-2.855v4.683Q343.823,51.322,343.444,52.027Zm11.349,1.925q-.323,0-.963.707a3.792,3.792,0,0,1-2.95,1.281q-1.541,0-1.86-2.309-.066-.512-.063-3.464v-12a18.97,18.97,0,0,0-.578-5.836q-1.6-3.849-8.66-3.849a10.519,10.519,0,0,0-7.311,2.373,6.822,6.822,0,0,0-2.374,5.2,3.5,3.5,0,0,0,.962,2.534,3.244,3.244,0,0,0,2.438.994,2.494,2.494,0,0,0,2.822-2.823,2.642,2.642,0,0,0-.642-1.733,1.862,1.862,0,0,0-1.443-.769q-.8,0-.8-.513a3.8,3.8,0,0,1,1.508-3.079,5.776,5.776,0,0,1,3.753-1.219,4.374,4.374,0,0,1,4.618,3.271,29.909,29.909,0,0,1,.578,7.441v1.6a34.725,34.725,0,0,0-7.5,2.052q-6.293,3.08-6.292,8.339a5.443,5.443,0,0,0,1.787,4.2,6.454,6.454,0,0,0,4.532,1.635,7.953,7.953,0,0,0,7.53-4.746q.192,4.555,4.6,4.553a9.428,9.428,0,0,0,4.372-1.186q2.266-1.188,2.266-2.277C355.113,54.078,355.006,53.951,354.794,53.951Z" style="fill:#4f4f53"/><path d="M366.274,56.774c0,.385-.279.577-.834.577h-.77q-.129,0-3.4-.128h-1.988q-.514,0-5.132.1-.385.033-.769.032c-.642.042-.962-.137-.962-.541,0-.281.234-.422.706-.422h1.667q1.8,0,1.8-.769.064-.385.064-5V17.966a9.461,9.461,0,0,0-.129-2.309c-.128-.343-.471-.514-1.026-.514h-2.309q-.9,0-.9-.546,0-.484,1.6-.544a15.783,15.783,0,0,0,5.709-1.412L360.949,12l.512-.192a21.487,21.487,0,0,1,.449,5.645V53.439a21.2,21.2,0,0,0,.064,2.278.6.6,0,0,0,.449.482,17.993,17.993,0,0,0,2.373.128C365.781,56.325,366.274,56.476,366.274,56.774Z" style="fill:#4f4f53"/><path d="M364.8,56.325a17.992,17.992,0,0,1-2.373-.128.607.607,0,0,1-.45-.482,21.609,21.609,0,0,1-.063-2.278V17.452a21.568,21.568,0,0,0-.449-5.644L360.95,12l-1.347.642a15.8,15.8,0,0,1-5.709,1.412q-1.6.06-1.6.544,0,.546.9.546H355.5c.555,0,.9.171,1.026.514a9.467,9.467,0,0,1,.129,2.309v32.65q0,4.62-.064,5,0,.771-1.8.77h-1.667c-.471,0-.706.141-.706.421q0,.606.961.541.387,0,.771-.032,4.618-.1,5.132-.1h1.988q3.272.128,3.4.128h.77c.555,0,.834-.192.834-.577C366.274,56.476,365.783,56.325,364.8,56.325Z" style="fill:#4f4f53"/><path d="M385,53.438q0,.578-1.6,2.052a9.415,9.415,0,0,1-6.542,2.5,7.235,7.235,0,0,1-5.324-1.792q-1.026-1.022-1.028-6.015V31.113a.71.71,0,0,0-.706-.7h-2.438q-1.412,0-1.411-.449c0-.3.233-.47.7-.513a9.866,9.866,0,0,0,7.775-4.932,1.12,1.12,0,0,1,.956-.584.395.395,0,0,1,.446.448v1.347a14.013,14.013,0,0,0,.257,3.464,9.936,9.936,0,0,0,1.924.129A21.481,21.481,0,0,0,382.693,29a1.952,1.952,0,0,1,.449-.064q.512,0,.513.554,0,.923-5.2.923h-2.63V42.278a80.891,80.891,0,0,0,.449,11.258,2.653,2.653,0,0,0,2.951,2.277q2.116,0,4.745-2.373a.734.734,0,0,1,.577-.321C384.853,53.117,385,53.225,385,53.438Z" style="fill:#4f4f53"/><path d="M384.554,53.117a.734.734,0,0,0-.577.321q-2.63,2.375-4.745,2.373a2.653,2.653,0,0,1-2.951-2.277,80.759,80.759,0,0,1-.448-11.257V30.409h2.629q5.2,0,5.2-.922c0-.369-.172-.554-.512-.554A1.875,1.875,0,0,0,382.7,29a21.5,21.5,0,0,1-4.684.321,9.838,9.838,0,0,1-1.923-.129,13.909,13.909,0,0,1-.257-3.464V24.38a.4.4,0,0,0-.447-.449,1.122,1.122,0,0,0-.957.585,9.864,9.864,0,0,1-7.775,4.932c-.466.044-.7.214-.7.514s.47.449,1.411.449H369.8a.713.713,0,0,1,.707.7V50.185q0,4.993,1.027,6.016a7.234,7.234,0,0,0,5.324,1.791,9.418,9.418,0,0,0,6.543-2.5q1.6-1.473,1.6-2.052Q385,53.117,384.554,53.117Z" style="fill:#4f4f53"/><path d="M412.971,56.838c0,.343-.363.512-1.09.512H400.206q-.835,0-.834-.511c0-.3.812-.448,2.437-.448q1.476,0,1.7-.352a6.762,6.762,0,0,0,.225-2.4V40.649q0-5.824-.513-7.232-1.093-2.942-4.812-2.943a5.859,5.859,0,0,0-5,2.751q-.643.9-.642,3.967V53.51a15.122,15.122,0,0,0,.063,1.983q.064.64.513.737a24.5,24.5,0,0,0,2.757.159c.514,0,.771.172.771.512,0,.3-.215.448-.642.448h-5.709q-5.325-.064-5.9,0h-.642c-.47,0-.706-.129-.706-.388,0-.3.235-.445.706-.445h.962l.962-.064q1.475.064,1.54-.9V26.707q0-10.277-.321-11.114-.385-.643-3.143-.707-1.539,0-1.54-.477,0-.409.321-.477t2.181-.137a14.766,14.766,0,0,0,6.286-1.54,6.374,6.374,0,0,1,.9-.321q.45.769.449,4.94V32.589a8.867,8.867,0,0,1,7.7-4.106q5.131,0,7.313,2.823a7.678,7.678,0,0,1,1.346,3.977,41.548,41.548,0,0,1,.129,4.3V55.746q.064.64,3.335.641C412.778,56.476,412.971,56.624,412.971,56.838Z" style="fill:#4f4f53"/><path d="M412.394,56.388q-3.27,0-3.335-.641V39.582a41.432,41.432,0,0,0-.13-4.3,7.673,7.673,0,0,0-1.346-3.978q-2.183-2.822-7.313-2.823a8.867,8.867,0,0,0-7.7,4.106V16.875q0-4.17-.449-4.94a6.406,6.406,0,0,0-.9.321A14.764,14.764,0,0,1,384.94,13.8q-1.862.07-2.182.137t-.322.477c0,.319.514.476,1.54.476q2.758.067,3.143.707.321.837.322,11.114V55.554q-.065.964-1.541.9l-.961.065h-.963c-.469,0-.706.148-.706.445,0,.259.235.388.706.388h.642q.578-.064,5.9,0h5.709c.427,0,.641-.149.641-.448,0-.341-.257-.513-.769-.513a24.377,24.377,0,0,1-2.758-.158q-.45-.1-.513-.737a15.065,15.065,0,0,1-.064-1.984V37.193q0-3.071.642-3.967a5.861,5.861,0,0,1,5-2.752q3.72,0,4.811,2.943.512,1.411.513,7.233v12.99a6.768,6.768,0,0,1-.224,2.4q-.224.352-1.7.351-2.438,0-2.438.449,0,.511.835.511H411.88q1.09,0,1.09-.512C412.971,56.624,412.778,56.475,412.394,56.388Z" style="fill:#4f4f53"/></svg>
