<?xml version="1.0" encoding="UTF-8"?>
<svg id="Layer_1" data-name="Layer 1" xmlns="http://www.w3.org/2000/svg" width="154" height="40" viewBox="0 0 154 40">
  <path d="m151.12,38.49h.45l.21,1.05h0l.21-1.05h.44v1.49h-.28v-1.17h0l-.26,1.17h-.23l-.26-1.17h0v1.17h-.28v-1.49Zm2.25.5c0-.22-.04-.31-.18-.31s-.19.15-.19.59.06.53.19.53.19-.06.19-.38h.29c0,.32-.08.59-.47.59-.45,0-.5-.32-.5-.77s.06-.77.5-.77.46.31.46.53h-.29Zm-5.16.98v-1.21h.32v-.27h-.96v.27h.32v1.21h.31Zm1.92,0v-1.49h-.42l-.18.76-.06.26-.06-.25-.18-.76h-.41v1.49h.29v-1.05l.07.34.17.71h.24l.18-.71.07-.34v1.05h.28Zm.7-.74c0,.11-.09.2-.2.2s-.2-.09-.2-.2.09-.2.2-.2h0c.11,0,.2.09.2.2,0,0,0,0,0,0h0Z" fill="#1a1918"/>
  <path d="m14.77,32.76l-5.57.02c-.93.01-1.86-.07-2.78-.23l-.25-.04-.24-.04-.24-.05-.23-.05-.23-.06-.23-.06-.23-.07-.23-.07-.23-.08-.22-.09-.23-.1-.23-.11-.23-.12-.23-.14-.23-.16-.22-.17-.21-.17-.19-.18-.18-.19-.17-.2-.16-.2-.15-.2-.14-.21-.11-.21-.11-.21-.11-.21-.1-.22-.09-.22-.08-.22-.07-.22-.07-.22-.06-.23-.06-.22-.05-.23-.05-.23-.04-.22-.04-.23-.03-.24-.03-.24-.03-.24-.02-.23-.02-.24V7.26l.02-.25.02-.24.03-.24.03-.24.03-.23.04-.23.04-.23.05-.24.05-.23.06-.23.06-.22.07-.23.08-.22.08-.22.09-.22.09-.23.11-.22.12-.22.14-.21.14-.21.16-.21.17-.21.18-.2.2-.19.21-.18.22-.17.23-.16.23-.14.24-.13.23-.11.22-.1.22-.09.21-.08.22-.07.22-.06.22-.06.22-.06.23-.05.23-.05.23-.04.24-.04.24-.03.25-.04.25-.03.26-.03.26-.03.27-.02.29-.03.29-.02.29-.02h.29s.29-.01.29-.01h1.28l.33-.06h2.08s.33.01.33.01h.93s.29.03.29.03l.29.02.29.02.29.02.28.03.27.03.27.03.27.07.25.04.25.04.24.04.24.05.24.05.23.06.23.06.23.06.23.07.23.08.23.09.23.1.23.11.04.02V.16h22.51v4.63l.76-4.63h13.87l.8,4.86V.16h39.1s.29.03.29.03l.29.02.29.02.28.02.27.03.27.03.26.03.25.04.25.04.25.04.24.04.24.05.23.05.23.05.23.06.23.06.22.07.22.07.22.08.22.09.22.1.22.11h0V.11h13.26v.94l.17-.08.22-.1.22-.08.22-.08.22-.07.22-.06.22-.06.22-.06.23-.05.23-.05.23-.04.24-.04.24-.04.25-.04h.26s.26-.01.26-.01l.26-.03.27-.02.28-.02.29-.02.29-.02h.29s.29-.01.29-.01h3l.33-.06h1.59s.29.03.29.03l.29.02.29.02.29.02.28.03.27.03.26.03.26.04.25.04.25.04.24.04.24.05.23.05.23.06.23.06.23.06.23.07.23.08.23.08.23.1.23.11.08.04V.16h22.51v32.51l-138.91.09h0Zm-.7-1.53h-6.44s-.15-.03-.15-.03l-.15-.02-.15-.02-.15-.02-.15-.03-.17-.03-.25-.04-.22-.04-.21-.04-.21-.05-.2-.05-.2-.05-.19-.06-.19-.06-.18-.06-.18-.07-.17-.08-.17-.08-.17-.09-.17-.15-.16-.11-.15-.12-.14-.12-.13-.13-.13-.13-.12-.14-.11-.13-.1-.15-.11-.14-.09-.16-.09-.17-.08-.16-.08-.17-.07-.17-.06-.17-.06-.16-.06-.18-.05-.18-.05-.19-.04-.19-.04-.21-.04-.2-.03-.2-.03-.21-.03-.21-.02-.21-.02-.21v-.22s-.01-.22-.01-.22V7.35l.02-.22.02-.22.02-.21.03-.21.03-.21.03-.2.04-.2.04-.2.04-.19.05-.19.05-.19.06-.18.05-.18.07-.18.07-.18.08-.17.08-.15.09-.16.1-.16.11-.15.11-.15.12-.15.13-.14.13-.13.14-.13.15-.12.16-.11.16-.1.16-.09.16-.08.18-.06.17-.07.17-.06.18-.06.18-.05.19-.05.19-.05.2-.04.2-.04.21-.04.21-.05.22-.04.23-.04.23-.03.24-.03h.24s.25-.04.25-.04l.26-.02.27-.02.28-.02h.29s.29-.01.29-.01h4.79l.29.02.29.02.28.02.27.02.26.02.25.03.25.03.24.03.23.03.23.04.22.04.21.04.21.04.2.05.2.05.19.06.18.06.18.06.18.07.17.07.17.08,2.26,1.17v-1.95h19.45v21.95l3.61-21.95h11.26l3.64,22.01V1.69h37.5s.29.03.29.03l.27.02.27.02.26.02.25.02.25.03.24.03.23.03.23.03.22.04.22.04.21.04.21.04.2.05.19.05.19.05.18.06.18.06.18.06.17.07.17.08.16.08,2.26,1.27V1.69h10.19v1.85l2.34-1.14.17-.07.17-.07.18-.06.18-.06.18-.05.19-.05.19-.05.2-.04.2-.04.21-.04.22-.04.22-.04.23-.03.23-.03.24-.03.25-.03.25-.02.26-.02.27-.02.28-.02h.29s.29-.01.29-.01h4.77l.29.02.29.02.27.02.27.02.26.02.25.03.25.03.24.03.23.04.23.04.22.04.21.04.21.04.2.05.2.05.19.06.18.06.18.06.18.07.18.07.17.08,2.29,1.2v-1.97h19.45v29.45l-137.38.09h-.72Z" fill="#1a1918" fill-rule="evenodd"/>
  <path d="m3.4,8.53c0-2.45.45-3.97,1.36-4.56.9-.59,3.16-.88,6.76-.88,3.69,0,5.98.32,6.87.95.89.63,1.34,2.13,1.34,4.5v3.65h-7.12v-3.51c0-.51-.08-.85-.24-1.03-.26-.2-.58-.3-.91-.25-.26-.03-.52.06-.71.24-.13.16-.2.51-.2,1.06v15.42c-.03.36.05.72.23,1.03.21.22.5.33.8.29.27.02.54-.06.76-.22.19-.16.29-.4.27-.64v-6.18h7.13v5.88c0,2.42-.46,3.94-1.38,4.57s-3.18.94-6.79.94c-3.65,0-5.92-.32-6.82-.97-.9-.64-1.35-2.16-1.35-4.55v-15.73Z" fill="#1a1918"/>
  <path d="m22.6,29.58V3.24h7.09v9.73h2.11V3.24h7.15v26.34h-7.15v-12.32h-2.11v12.32h-7.09Z" fill="#1a1918"/>
  <path d="m41.1,29.58l4.31-26.34h8.63l4.35,26.34h-6.74l-.55-5.2h-2.86l-.53,5.2h-6.62Zm7.53-9.47h2.17l-1.07-10.15-1.1,10.15Z" fill="#1a1918"/>
  <path d="m66.96,14.41v15.17h-6.42V3.24h8.67l2.49,13.34,2.45-13.34h8.67v26.34h-6.44v-15.17l-2.69,15.17h-4.03l-2.69-15.17Z" fill="#1a1918"/>
  <path d="m85.88,29.58V3.24h8.12c3.54,0,5.79.31,6.76.94s1.46,2.13,1.46,4.51v6.59c0,2.4-.49,3.91-1.46,4.54-.98.63-3.21.94-6.71.94h-1.03v8.82h-7.14Zm7.13-22.1v9.03c.08,0,.2,0,.35.01s.25.01.32.01c.38.04.77-.04,1.1-.22.22-.21.33-.52.29-.82v-6.59c0-.65-.1-1.06-.29-1.2s-.58-.22-1.15-.22h-.62Z" fill="#1a1918"/>
  <path d="m105.08,29.58V3.24h7.09v26.34h-7.09Z" fill="#1a1918"/>
  <path d="m115.04,8.53c0-2.45.46-3.97,1.38-4.56.92-.59,3.16-.88,6.74-.88,3.66,0,5.94.32,6.85.95s1.36,2.13,1.36,4.5v15.72c0,2.42-.46,3.94-1.38,4.57-.92.63-3.18.94-6.78.94-3.65,0-5.92-.32-6.82-.97-.9-.64-1.35-2.16-1.35-4.55v-15.73Zm7.13.16v15.42c-.03.36.05.72.23,1.04.21.22.5.32.8.29.27.02.55-.06.77-.21.17-.14.27-.36.26-.59v-15.95c0-.51-.08-.85-.24-1.03-.25-.21-.58-.31-.91-.27-.25-.02-.49.06-.68.21-.16.15-.24.37-.23.59v.5Z" fill="#1a1918"/>
  <path d="m134.24,29.58V3.24h6.62l3.54,13.5V3.24h6.17v26.34h-6.64l-3.56-12.91v12.91h-6.14Z" fill="#1a1918"/>
  <polygon points="1.08 38.58 147.24 38.58 147.24 40 1.08 40 1.08 38.58 1.08 38.58" fill="#1a1918" fill-rule="evenodd"/>
  <path d="m6.81,37.54l-.02-3.96h3.91c.37-.02.74.06,1.07.23.27.17.47.43.56.73.08.23.12.46.14.7.02.2,0,.41-.05.61-.07.28-.25.51-.51.64-.39.14-.8.21-1.22.18h-1.76v.88h-2.13Zm2.12-1.87h.66c.24.02.48-.03.69-.15.13-.11.17-.29.09-.44-.03-.1-.11-.19-.21-.23-.13-.06-.28-.08-.42-.08h-.82v.9Z" fill="#1a1918"/>
  <path d="m17.05,36.36c-.03-.1-.06-.19-.08-.29-.02-.1-.04-.21-.05-.31-.03-.27-.03-.54,0-.81.02-.2.07-.4.16-.59.2-.4.56-.68,1-.77.23-.05.46-.09.69-.11.25-.02.55-.03.88-.04.42,0,.83.02,1.24.08.32.04.63.12.93.24.22.08.41.22.56.39.16.19.29.41.36.65.05.15.09.31.12.47.03.17.04.33.04.5,0,.25-.03.49-.09.73-.06.21-.16.41-.29.59-.21.23-.5.39-.81.44-.53.11-1.06.15-1.6.14-.72.04-1.44-.06-2.12-.29-.45-.18-.79-.55-.93-1.01Zm2.74-1.51c-.14,0-.27.02-.4.07-.1.04-.18.12-.22.21-.07.16-.1.34-.1.51,0,.18.01.37.07.54.05.12.15.22.27.26.18.07.36.1.55.09.12,0,.24-.01.36-.05.09-.04.16-.1.21-.17.04-.06.07-.13.09-.2.02-.1.04-.19.04-.29,0-.11,0-.23,0-.34,0-.09-.02-.17-.05-.26-.05-.13-.15-.24-.28-.29-.17-.07-.36-.09-.55-.08Z" fill="#1a1918"/>
  <path d="m28.25,37.54l-1.36-3.96h2.16l.52,1.99v.05c.09.29.15.55.2.8.08.36,0-.07,0-.2l.04-.59.13-2.05h2.12l.43,1.95.02.08c.07.31.12.58.16.81v-.08c.03-.31.06-.57.08-.77l.25-1.98h2.38l-1.11,3.96h-2.5l-.51-2.02-.07-.29c-.03-.12-.06-.27-.1-.43,0,.18-.01.37-.04.59v.11l-.17,2.05h-2.64Z" fill="#1a1918"/>
  <path d="m39.86,37.54l-.02-3.96h5v1.28h-2.87v.4h2.87v.85h-2.87v.4h2.88v1.05h-4.99Z" fill="#1a1918"/>
  <path d="m49.64,37.54l-.02-3.96h4c.34-.02.67.06.96.22.25.15.43.39.52.67.16.47.13.83-.08,1.07-.22.24-.62.36-1.21.36h-.11l1.99,1.65h-2.53l-.97-.91c-.07-.06-.13-.13-.2-.2s-.15-.16-.24-.26v.07c0,.25.02.39.02.42v.88h-2.13Zm2.12-2.01h.69c.22.02.44-.02.64-.13.11-.08.14-.22.07-.4-.03-.1-.1-.18-.19-.22-.12-.05-.25-.07-.38-.07h-.83v.82Z" fill="#1a1918"/>
  <path d="m64.36,37.54l-.02-3.96h5v1.28h-2.88v.4h2.88v.85h-2.87v.4h2.88v1.05h-4.99Z" fill="#1a1918"/>
  <path d="m76.69,38.21l-.65-.64c-.45-.02-.9-.14-1.3-.36-.31-.2-.54-.49-.64-.84-.07-.21-.11-.42-.13-.64-.03-.26-.03-.53,0-.79.02-.2.07-.4.16-.59.09-.19.23-.36.4-.49.17-.13.37-.22.59-.27.22-.05.45-.09.68-.11.25-.02.52-.03.83-.04.42,0,.84.02,1.26.07.31.04.62.12.92.24.21.08.4.21.55.38.16.19.28.41.36.65.05.15.09.3.11.45.02.17.04.34.04.51,0,.25-.03.49-.09.73-.06.21-.16.41-.29.59-.14.17-.33.28-.54.34-.32.09-.65.14-.98.15l.71.66h-1.96Zm.11-3.37c-.14,0-.27.02-.4.07-.1.04-.17.12-.22.21-.07.16-.1.34-.1.51,0,.18.01.37.07.54.05.12.15.22.27.26.18.07.36.1.55.09.12,0,.24-.01.36-.05.09-.03.16-.08.22-.16.04-.06.08-.13.09-.2.02-.1.04-.19.04-.29,0-.11,0-.23,0-.34,0-.09-.02-.17-.05-.26-.05-.13-.15-.24-.28-.29-.18-.07-.37-.1-.56-.09h0Z" fill="#1a1918"/>
  <path d="m84.44,33.58h2.13v2.47s0,.1,0,.15c0,.03.01.07.02.1.03.09.09.17.18.21.1.05.22.08.33.07.14.01.28-.03.39-.12.09-.11.13-.25.12-.39v-2.49s2.12,0,2.12,0v2.5c.01.26,0,.52-.06.77-.04.14-.12.27-.24.36-.24.17-.52.29-.82.33-.46.08-.93.12-1.4.11-.64.03-1.28-.05-1.9-.22-.37-.1-.67-.36-.81-.71-.03-.09-.05-.18-.06-.28-.01-.13-.02-.27-.02-.4v-2.45Z" fill="#1a1918"/>
  <path d="m94.59,37.54l-.02-3.96h2.16v3.96h-2.14Z" fill="#1a1918"/>
  <path d="m101.59,37.54l-.02-3.96h3.9c.37-.02.74.06,1.07.23.27.16.47.42.57.73.08.23.12.46.14.7.02.2,0,.41-.05.61-.07.28-.25.51-.51.64-.39.14-.8.21-1.22.18h-1.76v.88h-2.13Zm2.12-1.87h.66c.24.02.48-.03.69-.15.13-.11.17-.29.09-.44-.03-.1-.11-.19-.21-.23-.13-.06-.28-.08-.42-.08h-.81v.9Z" fill="#1a1918"/>
  <path d="m113.92,35.24c0,.15.02.29.03.41s0,.24,0,.35v1.54h-2.03v-3.96h2.79l.56,1.46.05.12.06.18c.02.06.04.12.06.18s.04.12.05.19c.01-.06.04-.13.06-.21s.06-.17.1-.29l.64-1.64h2.87v3.96h-2.02v-1.63c0-.05,0-.1,0-.16,0-.08,0-.24.02-.47l-.06.14c-.09.23-.16.39-.21.48l-.77,1.64h-1.17l-.71-1.56c-.03-.06-.07-.15-.11-.25s-.11-.27-.21-.49Z" fill="#1a1918"/>
  <path d="m124.02,37.54l-.02-3.96h5v1.28h-2.88v.4h2.88v.85h-2.87v.4h2.88v1.05h-4.99Z" fill="#1a1918"/>
  <path d="m133.8,37.54l-.02-3.96h2.38l.95,1.71.11.22.23.45c-.02-.16-.03-.37-.03-.61v-1.77h2.08v3.96h-2.34l-.96-1.51-.18-.29-.21-.36c.03.22.04.44.04.66h0v1.5h-2.06Z" fill="#1a1918"/>
  <path d="m147.44,34.88v2.66s-2.13,0-2.13,0v-2.66h-1.38v-1.3h4.8v1.3h-1.3Z" fill="#1a1918"/>
</svg>