<svg xmlns="http://www.w3.org/2000/svg" width="201" height="30" viewBox="0 0 201 30">
  <g>
    <path d="M194.417,19.901c-.067,5.52-4.39,6.851-6.053.998,1.53-2.063,2.594-5.588,3.06-8.514a25.87818,25.87818,0,0,1,7.184-.066c.466-2.93-3.836-2.946-7.118-2.594,0-.998.477-7.813-2.128-8.448-2.735-.666-4.257,5.521-4.656,8.714a37.40114,37.40114,0,0,1-5.787.2c-.588-.126-.429,1.289,1.268,1.98a11.335,11.335,0,0,0,4.187.481,30.929,30.929,0,0,0,.532,9.179c-1.064,1.863-2.86,3.193-3.459,1.065a75.58216,75.58216,0,0,1-.665-8.115c-.001-.015-.517-2.413-2.328-1.663-1.252.518-2.702,6.468-2.794,6.253-.349-.807-.209-2.86-.276-4.59.058-2.445-3.72-2.227-3.516.066-.23,6.011-1.52,7.905-3.592,9.446-1.2.892-3.571.986-3.592-.998,3.461-2.616,5.67-9.85,1.924-11.217-4.45-1.624-8.013,6.406-5.915,11.483-2.055,1.886-2.27.242-2.328.2-1.115-3.008-.732-7.649-1.53-10.377-.732-2.129-3.592-1.131-5.853,5.787-.599.266.772-6.587-2.86-5.454-1.727.538-1.986,3.459-2.718,4.457-.798.665-.203-2.617-.541-4.257-.375-1.818-3.493-1.494-3.601-.2-.084,10.799-2.225,9.96-2.718,8.847-.599-1.796-.8-7.091-1.796-8.448a1.999,1.999,0,0,0-2.528-.798c-1.702.537-2.461,4.922-2.993,4.789-.798,0,.127-3.594-.599-4.789a1.90068,1.90068,0,0,0-2.794-.133c-.957,1.082-.133,6.719-.598,8.98-.53,2.571-2.773,2.685-3.06.133a26.50192,26.50192,0,0,1,.466-7.65c.384-1.612-2.509-2.328-3.307-.998-.466.2-1.015,5.408-.551,8.448.178,1.165-2.439,4.007-3.392,1.197a20.3145,20.3145,0,0,1-.048-5.721,1.70347,1.70347,0,0,0-3.278.266,33.58635,33.58635,0,0,0-.067,5.188c.087,1.529-2.557,3.376-3.459.666-1.569-4.717.684-11.782,3.326-7.916,1.397.732,3.326-.798,1.729-2.661-5.355-3.991-11.325,3.244-8.448,11.906-2.395,2.395-4.517-1.91-4.523-3.991a34.89342,34.89342,0,0,0,2.528-9.246c3.578-.707,8.215-.299,8.348-.698-.466-3.326-5.089-2.162-8.015-1.896-.133-2.661.39-7.649-2.537-7.649S99.024,7.13,98.624,9.924a36.64574,36.64574,0,0,1-6.642.066c-.973.145.297,1.863,1.502,2.123,1.155.402,3.378.237,4.95.205-.466,3.459.532,8.514.798,9.778-.887,2.327-3.064,3.91-3.725.798-.307-1.444-.089-6.67-.855-7.583-.504-.84-1.46-1.769-3.959-2.253-.63-3.225-1.871-3.065-2.569-3.068-2.337-.011-3.259,4.723-.466,5.654.2,2.727-2.418,13.252-6.984,8.98,1.067-1.144,5.161-7.634,2.461-11.042-4.214-4.095-10.776,4.39-6.452,11.175.33.517-3.849,1.837-4.789-2.395-.328-1.478,2.11-3.217,2.642-10.334,3.392-.466,10.521-.251,10.321-.849a1.95925,1.95925,0,0,0-2.026-1.515,42.20321,42.20321,0,0,0-8.21.15c.133-3.459-.128-7.947-1.796-8.738-1.775-.841-3.592,2.129-4.789,9.113a49.32233,49.32233,0,0,1-8.448-.133c-.249,1.006,1.172,1.889,2.136,2.22.956.526,4.524.324,6.046.241a33.56754,33.56754,0,0,0,.865,9.845c-.558,1.315-2.001,1.676-2.792.645-.791-1.495-1.266-3.729-1.921-7.962-.531-2.244-3.053-2.245-3.66-1.472-.442.189-1.472,2.469-1.937,3.866-.786,1.572-.299-2.449-.466-3.326-.266-1.397-3.175-1.462-3.193.399-.135,14.368-6.723,10.899-7.117,9.379,3.922-1.957,6.163-10.451,2.195-11.641-4.997-1.498-8.448,6.186-6.851,10.843-1.338.688-1.863.465-2.262.266-.8-.4-.598,2.794,3.126,1.996,4.59,5.388,9.227,2.66,10.69.266a4.65569,4.65569,0,0,0-.057,1.792c.111,1.185,2.845,1.295,3.203.071.789-2.829,1.862-9.512,2.794-8.315.605,4.468,2.983,11.73,8.847,5.787,3.259,5.322,6.918,3.459,8.847,1.73a5.34634,5.34634,0,0,0,6.186,1.397c5.122-1.929,5.863-9.047,5.93-11.707,3.259-1.53-.409,9.579,4.048,11.441,1.73.865,4.656-.731,5.787-3.126,1.863,3.991,5.654,4.989,8.448,2.195,1.862,2.395,5.521,1.197,6.652-.865,1.131,2.794,4.789,2.528,6.053-.399,1.464,3.991,4.723,2.395,6.186.2a3.004,3.004,0,0,0,.426,1.826,2.13627,2.13627,0,0,0,3.299-.495c1.331-2.927,1.73-8.115,2.794-8.115,1.121.407.47,5.725,2.594,7.583,1.064.932,3.326.267,4.523-2.261.133,1.331-.133,1.929.266,2.727a1.83573,1.83573,0,0,0,2.661.332c1.719-1.891,1.862-7.783,2.794-7.051.399,2.129-.485,6.235,1.596,6.519,3.526.481,4.257-8.357,5.122-6.984.912,5.085,1.594,10.699,8.315,5.92,2.66,4.169,8.714,1.131,9.844-1.729-.066,1.33-.115,2.847.466,3.525a2.11752,2.11752,0,0,0,3.193-.2c.535-1.07,1.992-7.931,2.727-6.186.133,1.863.865,10.643,7.783,3.06,1.129,2.094,2.941,4.288,5.587,4.191,3.304-.122,4.976-3.947,4.989-7.716C196.35,18.961,194.35,19.036,194.417,19.901ZM45.957,21.974a6.6117,6.6117,0,0,1,.13-3.657c.657-1.807,1.665-2.832,2.251-2.619s.594,1.784-.196,3.457A8.70183,8.70183,0,0,1,45.957,21.974ZM72.179,5.98c.585-.099.614,1.772.488,4.042l-1.545.125C71.61,5.484,72.224,5.973,72.179,5.98Zm-.998,12.307c-.349-1.75-.153-5.684-.285-5.849l1.601-.168C72.423,13.945,71.806,18.057,71.181,18.287Zm7.721-.196c.468-1.959,1.122-3.036,1.732-2.906s1.074.869.342,3.148a17.66288,17.66288,0,0,1-1.93,3.796A9.56668,9.56668,0,0,1,78.902,18.091ZM102.843,5.714c.452-.033.605,1.373.346,3.843l-1.269.125C102.408,5.018,102.89,5.711,102.843,5.714ZM101.9,17.09a38.89073,38.89073,0,0,1-.258-4.702l1.208-.152C102.753,14.451,102.127,17.006,101.9,17.09Zm61.755,4.159a8.17425,8.17425,0,0,1,.462-3.657c.599-1.826,1.133-2.898,1.719-2.685s.328,1.717-.329,3.524A7.20811,7.20811,0,0,1,163.655,21.249ZM189.001,5.632c.385.034.282,1.905.222,4.375l-1.412.125C188.3,5.468,189.048,5.636,189.001,5.632Zm-1.341,11.11a17.40219,17.40219,0,0,1-.027-4.209v-.015h.001v.047c.001-.031.001-.057.003-.089l1.335-.025C188.763,13.992,188.284,16.512,187.66,16.742Z" fill="#203b72"/>
    <path d="M122.911,10.612a2.18489,2.18489,0,0,0,2.122-2.285,2.12412,2.12412,0,1,0-4.244,0A2.18489,2.18489,0,0,0,122.911,10.612Z" fill="#203b72"/>
    <path d="M195.656,26.462a2.20256,2.20256,0,1,1,2.203,2.219A2.196,2.196,0,0,1,195.656,26.462Zm.481,0a1.72208,1.72208,0,1,0,1.722-1.739A1.71262,1.71262,0,0,0,196.137,26.462Zm2.744,1.141h-.525l-.537-.917h-.403v.917h-.481V25.3h1.118c.531,0,.894.095.894.705a.60866.60866,0,0,1-.626.682Zm-.816-1.331c.257,0,.414-.056.414-.308,0-.251-.308-.251-.531-.251h-.531v.559Z" fill="#203b72"/>
    <rect x="6.436" y="24.184" width="29.166" height="5.1" fill="#203b72"/>
    <circle cx="1.974" cy="10.398" r="1.913" fill="#203b72"/>
    <circle cx="14.511" cy="9.203" r="1.913" fill="#203b72"/>
    <circle cx="27.049" cy="9.203" r="1.913" fill="#203b72"/>
    <circle cx="39.587" cy="10.398" r="1.913" fill="#203b72"/>
    <path d="M1.974,10.398,6.437,22.112H35.603l3.984-11.714C29.387,24.37,27.049,9.203,27.049,9.203c-5.95,16.257-12.538,0-12.538,0C11.802,25.565,1.974,10.398,1.974,10.398Z" fill="#203b72"/>
  </g>
</svg>
