<svg xmlns="http://www.w3.org/2000/svg" xmlns:xlink="http://www.w3.org/1999/xlink" width="171" height="30" viewBox="0 0 171 30">
  <defs>
    <linearGradient id="a" x1="-211.2415" y1="394.40741" x2="-211.2415" y2="393.40741" gradientTransform="matrix(26.63922, 0, 0, -21.6, 5716.87866, 8524.20016)" gradientUnits="userSpaceOnUse">
      <stop offset="0" stop-color="#67b1df"/>
      <stop offset="1" stop-color="#007cca"/>
    </linearGradient>
    <linearGradient id="b" x1="-212.23927" y1="398.94158" x2="-212.23927" y2="397.94158" gradientTransform="matrix(30.3, 0, 0, -29.1, 6447.05025, 11609.70016)" gradientUnits="userSpaceOnUse">
      <stop offset="0" stop-color="#67b1df"/>
      <stop offset="1" stop-color="#027aca"/>
    </linearGradient>
    <linearGradient id="c" x1="-206.78622" y1="394.48848" x2="-206.78622" y2="393.48848" gradientTransform="matrix(17.30405, 0, 0, -21.7, 3620.13788, 8565.40031)" xlink:href="#b"/>
    <linearGradient id="d" x1="-209.85088" y1="394.6484" x2="-209.85088" y2="393.6484" gradientTransform="matrix(22.8, 0, 0, -21.9, 4900.64899, 8647.19984)" xlink:href="#b"/>
    <linearGradient id="e" x1="-209.85088" y1="394.6484" x2="-209.85088" y2="393.6484" gradientTransform="matrix(22.8, 0, 0, -21.9, 4847.44983, 8647.19984)" xlink:href="#b"/>
  </defs>
  <g>
    <path d="M.75,16c0,.1.1.2,0,.3V16Z"/>
    <path d="M.75,16h0v-.3C.85,15.8.75,15.9.75,16Z"/>
    <path d="M170.75,22.2h0c0-.1-.1-.2,0-.3Z"/>
    <path d="M170.75,21.1a.1385.1385,0,0,1,0-.2h0Z"/>
    <path d="M100.25,22a5.18619,5.18619,0,0,0,.5,2.4,3.12592,3.12592,0,0,0,1.1.9.34914.34914,0,0,1,.2.1,1.06919,1.06919,0,0,1,.6.9c0,.1,0,.1-.1.1h-8.2c-.2,0-.3-.1-.2-.3,0-.4.3-.6.6-.8a2.07648,2.07648,0,0,0,1.4-1.2,2.3754,2.3754,0,0,0,.3-1.2c0-.3.1-.5.1-.8V10.6a1.38046,1.38046,0,0,1-.3.4l-1.5,3.3c-.7,1.6-1.4,3.1-2.1,4.8-.5,1.1-.9,2.1-1.4,3.2-.6,1.4-1.2,2.6-1.8,4-.1.2-.2.3-.4.3s-.3-.1-.5-.3c-.7-1.5-1.4-3.1-2.2-4.6-.4-.8-.8-1.7-1.2-2.6-1-2.3-2.1-4.5-3.1-6.8-.3-.5-.5-1.1-.8-1.6v11a5.09764,5.09764,0,0,0,.6,2.7c.2.3.5.4.8.7.2.1.3.3.5.3a1.1021,1.1021,0,0,1,.3.9c0,.1,0,.1-.1.1h-6.8c-.2,0-.3-.1-.2-.2a1.06759,1.06759,0,0,1,.7-.9,3.80529,3.80529,0,0,0,1.3-.9c.3-.3.3-.8.4-1.1a11.019,11.019,0,0,0,.2-1.8v-.1a2.15208,2.15208,0,0,0,0-.8V8.9a2.83447,2.83447,0,0,0-.6-1.6,3.07223,3.07223,0,0,0-1.5-1c-.1-.1-.3,0-.3-.2-.1-.3-.3-.4-.3-.7V5h6.2c.3.5.5,1,.8,1.6.9,2,2,4.1,2.9,6.1.6,1.2,1.1,2.4,1.7,3.5.6,1.4,1.3,2.6,1.9,4,0,.1,0,.2.2.2.1,0,.1-.1.1-.2.3-.8.8-1.7,1.2-2.5l2.1-4.5c.4-.9.9-1.9,1.4-2.8.3-.7.6-1.4.8-2,.2-.5.3-1,.5-1.5a11.6272,11.6272,0,0,0,.4-1.8V5h6.4a1.02,1.02,0,0,1-.2.9l-.3.3a4.67108,4.67108,0,0,0-1,.5,1.59592,1.59592,0,0,0-.8,1.4,7.01723,7.01723,0,0,0-.1,2.5V21.1a1.64454,1.64454,0,0,0-.2.9C100.25,21.8,100.15,21.9,100.25,22Z" fill="url(#a)"/>
    <path d="M127.55,11.3a1.38737,1.38737,0,0,1,.7-.8,4.1742,4.1742,0,0,0,.6-.8,2.54416,2.54416,0,0,0,.2-.7V8.7a3.465,3.465,0,0,0-.8-1.6,3.91534,3.91534,0,0,1-.8-1,1.41689,1.41689,0,0,1,.3-1.9.90782.90782,0,0,1,.7-.3h.3a2.82732,2.82732,0,0,1,1.8,1.4,3.94781,3.94781,0,0,1,.4,2.1,4.57157,4.57157,0,0,1-1.3,3.1,4.35139,4.35139,0,0,1-1.9,1c-.1,0-.2,0-.2-.1C127.45,11.5,127.45,11.4,127.55,11.3Z" fill="#de3a2e"/>
    <path d="M100.15,21.1V10.6c.1.1,0,.1,0,.2V21.1Z"/>
    <path d="M35.95,10.7a.13851.13851,0,0,1,0,.2v-.2Z"/>
    <path d="M102.45,4.9h-6.5a.13851.13851,0,0,1,.2,0h6.3Z"/>
    <path d="M82.15,5h-6.2a.13851.13851,0,0,1,.2,0h5.8C82.15,4.9,82.15,4.9,82.15,5Z"/>
    <path d="M78.75,20.6v.8A1.09543,1.09543,0,0,1,78.75,20.6Z"/>
    <path d="M81.05,21.7a1.10417,1.10417,0,0,1,0-.8Z"/>
    <path d="M48.65,10.3V9.7A.6375.6375,0,0,1,48.65,10.3Z"/>
    <path d="M152.25,16v-.6C152.25,15.6,152.35,15.8,152.25,16Z"/>
    <path d="M152.25,15.2c-.1-.2,0-.3,0-.5C152.35,14.9,152.25,15,152.25,15.2Z"/>
    <path d="M30.75,15.3v-.5A.44637.44637,0,0,1,30.75,15.3Z"/>
    <path d="M96.45,21.1c.1.2,0,.3,0,.4C96.45,21.4,96.55,21.2,96.45,21.1Z"/>
    <path d="M155.45,7.7c.1.2,0,.3,0,.4Z"/>
    <path d="M30.85,14.4c-.1-.2,0-.3,0-.4Z"/>
    <path d="M78.65,8.9c.1.2,0,.3,0,.4Z"/>
    <path d="M96.55,21.9v.3A.1875.1875,0,0,1,96.55,21.9Z"/>
    <path d="M128.65,4h-.3C128.45,3.9,128.45,3.9,128.65,4Z"/>
    <path d="M155.55,7.3v.3S155.45,7.5,155.55,7.3Z"/>
    <path d="M128.95,8.7c.1.1,0,.2,0,.3Z"/>
    <path d="M127.55,11.3v.3A.1875.1875,0,0,1,127.55,11.3Z"/>
    <path d="M35.95,21.9v.3C35.95,22.1,35.85,22,35.95,21.9Z"/>
    <path d="M163.05,29.7a.13851.13851,0,0,1,.2,0Z"/>
    <path d="M100.25,22c-.1-.1,0-.2,0-.3Z"/>
    <path d="M35.85,9.2c.1.1,0,.2,0,.3Z"/>
    <path d="M35.85,9.8c.1.1,0,.2,0,.3C35.85,10,35.95,9.9,35.85,9.8Z"/>
    <path d="M50.55,19.7v-.2C50.65,19.6,50.65,19.7,50.55,19.7Z"/>
    <path d="M133.05,16a.13852.13852,0,0,1,0,.2Z"/>
    <path d="M30.75,16v-.3C30.75,15.8,30.85,15.9,30.75,16Z"/>
    <path d="M30.85,14.8v-.7a23.00321,23.00321,0,0,0-.3-2.6,14.452,14.452,0,0,0-4.4-7.4,15.23081,15.23081,0,0,0-3.4-2.2A15.51,15.51,0,0,0,17.95.6a24.36873,24.36873,0,0,0-2.7-.1c-1.1.1-2.3.3-3.4.5a23.074,23.074,0,0,0-2.8,1,13.241,13.241,0,0,0-2,1.2,9.33664,9.33664,0,0,0-1.5,1.3,18.47908,18.47908,0,0,0-1.4,1.4c-.4.5-.8,1.1-1.2,1.7a8.86476,8.86476,0,0,0-.8,1.7,4.87453,4.87453,0,0,0-.4,1.1,7.49117,7.49117,0,0,0-.4,1.6,5.21236,5.21236,0,0,0-.2,1.4,1.26834,1.26834,0,0,1-.1.6v1.5c.1.1,0,.2,0,.3v.4c.1.1,0,.3.1.4.1.4.1.8.2,1.3a12.046,12.046,0,0,0,.8,2.7c.4.8.8,1.7,1.3,2.5.3.5.7.9,1,1.4a6.034,6.034,0,0,0,.8.8,5.0084,5.0084,0,0,0,.8.7,17.09595,17.09595,0,0,0,1.4,1.1,12.81047,12.81047,0,0,0,2,1.1,18.02842,18.02842,0,0,0,2.1.8,4.01256,4.01256,0,0,0,1.5.3,4.29758,4.29758,0,0,0,1.2.2,7.08417,7.08417,0,0,1,1.4.1h.5a3.40193,3.40193,0,0,0,1-.1l2.4-.3a22.85122,22.85122,0,0,0,3.7-1.2,13.11308,13.11308,0,0,0,4.6-3.5,14.92039,14.92039,0,0,0,2-2.9,16.04627,16.04627,0,0,0,1.5-5.7v-.7C30.85,15.1,30.75,14.9,30.85,14.8ZM26.25,16a12.97812,12.97812,0,0,1-1.8,7.1,8.65935,8.65935,0,0,1-5.9,4.1,10.06159,10.06159,0,0,1-9.8-3.1,11.22782,11.22782,0,0,1-2.7-4.6,15.57142,15.57142,0,0,1-.8-4.3,15.61306,15.61306,0,0,1,.4-4.8,10.20161,10.20161,0,0,1,2.4-4.6A9.04575,9.04575,0,0,1,12.85,3a9.805,9.805,0,0,1,9.2,2.5,11.57518,11.57518,0,0,1,3.3,5.1,15.58361,15.58361,0,0,1,.8,4.8A1.26834,1.26834,0,0,1,26.25,16Z" fill="url(#b)"/>
    <path d="M50.55,19.5a4.61847,4.61847,0,0,0-1.5-3.2,7.2503,7.2503,0,0,0-2.5-1.5,2.01584,2.01584,0,0,0-1.1-.3c.4-.3.8-.4,1-.7a5.7062,5.7062,0,0,0,1.4-1.3,5.78649,5.78649,0,0,0,.7-2.1V9.8a4.34694,4.34694,0,0,0-.7-2,6.72124,6.72124,0,0,0-2.8-2.2,9.3669,9.3669,0,0,0-2.9-.6h-8.5a.36737.36737,0,0,0-.3.1c-.2.2-.1.8.2.8a1.32984,1.32984,0,0,0,.8.3,2.23731,2.23731,0,0,1,1.3,1.9,4.102,4.102,0,0,1,.1,1.1V22.6c0,.3-.1.7-.1,1.1a3.09932,3.09932,0,0,1-.6,1.3,2.92473,2.92473,0,0,1-1.2.7c-.4.2-.5.4-.4.8,0,.2.1.2.3.2h9.1c.1-.1.2,0,.3,0,.3,0,.6-.1.8-.1a9.32867,9.32867,0,0,0,3.7-1.5,6.89225,6.89225,0,0,0,2.1-2.4,7.71437,7.71437,0,0,0,.7-2.6A2.14222,2.14222,0,0,0,50.55,19.5Zm-3.8,2.6a3.28634,3.28634,0,0,1-2.3,2.4,5.10534,5.10534,0,0,1-2.1.3h-2.5c-.2,0-.3,0-.3-.3V6.5c0-.2.1-.3.3-.2h1.8A3.14739,3.14739,0,0,1,44.85,9a5.29566,5.29566,0,0,1,.1,2.5,3.09639,3.09639,0,0,1-2.4,2.5,5.06656,5.06656,0,0,1-1.3.2c-.4.1-.8.2-.9.5v.1c-.2.3-.2.4.3.4h2a4.8823,4.8823,0,0,1,4.3,4.2A5.85015,5.85015,0,0,1,46.75,22.1Z" fill="url(#c)"/>
    <path d="M126.95,25.5c-.3-.1-.5-.3-.7-.3a2.40668,2.40668,0,0,1-.8-.6,13.73464,13.73464,0,0,1-1.3-2,36.45952,36.45952,0,0,1-1.4-3.5c-.6-1.4-1.1-2.7-1.6-4.1l-2.1-5.1c-.7-1.6-1.4-3.3-2-4.9-.1-.1-.1-.3-.2-.3a1.32984,1.32984,0,0,0-.8-.3,1.0122,1.0122,0,0,0-.7.4c-.1.3-.2.5-.3.8a23.2926,23.2926,0,0,1-1.4,3.3c-.4,1.1-.9,2.2-1.4,3.3-.5,1.2-.9,2.3-1.4,3.5-.4,1.1-.9,2.2-1.4,3.3a34.54276,34.54276,0,0,1-1.4,3.4,5.579,5.579,0,0,1-1.4,2,2.1888,2.1888,0,0,1-1.4.8c-.5.2-.6.4-.6.8,0,.2,0,.3.3.3h7.2c.1,0,.1,0,.1-.1,0-.4-.1-.8-.7-.8a2.3535,2.3535,0,0,1-.8-.2c-.3-.1-.4-.3-.5-.6a1.70417,1.70417,0,0,1,0-1,5.77515,5.77515,0,0,1,.6-1.7,36.83026,36.83026,0,0,1,1.5-3.5c.1-.1.1-.2.3-.2h5.6c.1,0,.2,0,.2.2a6.89,6.89,0,0,0,.3.8c.3.7.5,1.4.8,2.1a21.28415,21.28415,0,0,1,.8,2.7.94914.94914,0,0,1-.7,1.2c-.3.1-.4.1-.7.2a.64523.64523,0,0,0-.6.6c-.1.3,0,.3.3.3h8.6c.1,0,.1,0,.2-.1C127.35,26,127.25,25.6,126.95,25.5Zm-9.4-9h-4.2c-.2,0-.2-.1-.1-.2.6-1.4,1.2-3,1.8-4.4.2-.3.3-.8.5-1.2.6,1.5,1.1,3,1.7,4.4a4.87453,4.87453,0,0,1,.4,1.1C117.75,16.5,117.75,16.5,117.55,16.5Z" fill="url(#d)"/>
    <path d="M73.55,25.5l-.6-.3c-.3-.2-.7-.3-.9-.7a11.27429,11.27429,0,0,1-1.2-1.8c-.3-.8-.7-1.5-1-2.3-.6-1.6-1.3-3.1-2-4.8-.7-1.8-1.4-3.5-2.1-5.3-.7-1.7-1.4-3.3-2-5-.1-.2-.1-.4-.3-.6a1.1021,1.1021,0,0,0-.9-.3.54834.54834,0,0,0-.6.4c-.4.9-.8,2-1.2,2.9s-.8,1.9-1.1,2.8c-.3.8-.7,1.7-1,2.5a23.2926,23.2926,0,0,1-1.4,3.3c-.3.8-.7,1.7-1,2.5s-.7,1.8-1.1,2.6a15.7053,15.7053,0,0,1-1.4,2.5,6.034,6.034,0,0,1-.8.8,3.88053,3.88053,0,0,1-1.1.6c-.3.1-.4.3-.4.7,0,.3.1.3.3.3h7.3c.1,0,.1,0,.1-.1a.70861.70861,0,0,0-.7-.8,1.88389,1.88389,0,0,1-.8-.2,1.02416,1.02416,0,0,1-.5-.6,2.62177,2.62177,0,0,1,.2-1.5,47.28482,47.28482,0,0,1,2-4.7c.1-.2.2-.2.3-.2h4.9c.3,0,.5-.1.7,0s.2.4.3.6a20.94382,20.94382,0,0,1,.8,2.3c.3.9.6,1.9.8,2.8a1.00537,1.00537,0,0,1-.5,1.1,2.3535,2.3535,0,0,1-.8.2.71326.71326,0,0,0-.7.8c0,.2,0,.2.2.2h8.7c.1,0,.2.1.2-.1C73.95,26,73.75,25.6,73.55,25.5Zm-9.4-9h-4.2c-.1,0-.2,0-.1-.2.8-1.9,1.5-3.7,2.3-5.5l.1-.1c.7,1.9,1.4,3.7,2.1,5.5C64.35,16.5,64.25,16.5,64.15,16.5Z" fill="url(#e)"/>
    <path d="M152.25,15.5v-.8c0-.4-.1-.9-.1-1.4a10.95611,10.95611,0,0,0-.6-2.6,10.936,10.936,0,0,0-2.5-3.8,14.29022,14.29022,0,0,0-2-1.4,9.70113,9.70113,0,0,0-3.3-1h-.4a17.70221,17.70221,0,0,0-2.3.1,8.94326,8.94326,0,0,0-4.8,2.5c-.3.3-.6.7-.9,1a7.67985,7.67985,0,0,0-1.4,2.5,17.23094,17.23094,0,0,0-.7,2.1c-.1.6-.2,1.3-.3,1.9v1.7a11.0201,11.0201,0,0,0,.2,1.8,12.047,12.047,0,0,0,.8,2.7,10.65328,10.65328,0,0,0,1.9,2.8,6.88486,6.88486,0,0,0,1.3,1.1,7.45046,7.45046,0,0,0,2.5,1.3,9.30428,9.30428,0,0,0,2.4.5h1.4a9.47807,9.47807,0,0,0,3.1-.8,9.76464,9.76464,0,0,0,2.9-2.1,6.74148,6.74148,0,0,0,1.6-2.4,7.32274,7.32274,0,0,0,.8-2.5,10.67968,10.67968,0,0,0,.3-2.5A2.63837,2.63837,0,0,0,152.25,15.5Zm-4.2,5a12.27164,12.27164,0,0,1-1.2,2.6,4.68285,4.68285,0,0,1-4.3,2.2,5.071,5.071,0,0,1-4.1-2.5,11.80847,11.80847,0,0,1-1.4-3.7,25.80607,25.80607,0,0,1-.3-4.8,19.28639,19.28639,0,0,1,.8-4.7,7.68038,7.68038,0,0,1,1.4-2.5,4.41958,4.41958,0,0,1,4-1.7,4.73867,4.73867,0,0,1,4.2,2.8,11.73326,11.73326,0,0,1,1.3,4.4,24.62178,24.62178,0,0,1,.2,2.6A15.43871,15.43871,0,0,1,148.05,20.5Z" fill="#de3a2e"/>
    <path d="M170.75,21.1a.1385.1385,0,0,1,0-.2c0-.2-.1-.4-.1-.6a8.95473,8.95473,0,0,0-.8-2.3,7.5522,7.5522,0,0,0-1.1-1.4,13.72593,13.72593,0,0,0-2.2-2c-.5-.3-1-.7-1.6-1,.2-.1.3-.2.5-.3a9.50347,9.50347,0,0,0,3.1-2.5,6.26581,6.26581,0,0,0,1.4-3.7,6.452,6.452,0,0,0-.6-3,4.88746,4.88746,0,0,0-1.4-1.8,6.43744,6.43744,0,0,0-2.5-1.5,7.267,7.267,0,0,0-2.5-.4h-.2c-.3.1-.7.1-1,.2a7.42313,7.42313,0,0,0-3.1,1.2,5.01766,5.01766,0,0,0-1.5,1.4,6.70692,6.70692,0,0,0-.9,1.4,8.27876,8.27876,0,0,0-.7,2.7v.8a1.70194,1.70194,0,0,0,.1.7c.1.5.2.9.3,1.4a5.5789,5.5789,0,0,0,1.4,2,12.69543,12.69543,0,0,0,1.2,1,6.70614,6.70614,0,0,0,1.4.9c.3.3.8.4,1.2.7a9.80006,9.80006,0,0,0-2.2,1.3,7.00152,7.00152,0,0,0-1.6,1.4,6.03407,6.03407,0,0,1-.8.8,3.60643,3.60643,0,0,0-.8,1.5,5.3742,5.3742,0,0,0-.5,2.1v.2a7.08348,7.08348,0,0,0,.1,1.4,8.33,8.33,0,0,0,.4,1.5,6.59244,6.59244,0,0,0,2,2.7,7.68,7.68,0,0,0,2.5,1.4,7.51157,7.51157,0,0,0,2.6.5h.7a.90149.90149,0,0,0,.5-.1,11.69672,11.69672,0,0,0,2-.5,6.9518,6.9518,0,0,0,3.3-2.5,7.63112,7.63112,0,0,0,1.5-4.2v-.6C170.75,21.7,170.75,21.4,170.75,21.1ZM159.55,9.8a5.489,5.489,0,0,1-1.4-3.7,8.51907,8.51907,0,0,1,.4-2.3,3.48342,3.48342,0,0,1,2.4-2,4.9266,4.9266,0,0,1,4.4.8,5.53274,5.53274,0,0,1,1.4,1.9,8.755,8.755,0,0,1,.6,2.8,6.44194,6.44194,0,0,1-2.6,5.1,2.09175,2.09175,0,0,1-.6.4c-.1.1-.1.1-.2,0A14.92588,14.92588,0,0,1,159.55,9.8Zm7.2,17.5a3.81063,3.81063,0,0,1-2,1,4.78171,4.78171,0,0,1-2.9,0,8.4762,8.4762,0,0,1-1.9-1,5.44458,5.44458,0,0,1-2-3.6,7.49124,7.49124,0,0,1,.3-4.2,6.7102,6.7102,0,0,1,2.4-3.1c.4-.3.8-.5,1.2-.8a.18748.18748,0,0,1,.3,0,19.11906,19.11906,0,0,1,4.2,3.3,6.58108,6.58108,0,0,1,1.9,3.8c0,.3.1.4.1.7A5.98264,5.98264,0,0,1,166.75,27.3Z" fill="#de3a2e"/>
  </g>
</svg>
