<svg xmlns="http://www.w3.org/2000/svg" viewBox="0 0 725.37 234.51"><defs><style>.cls-3{fill:#f3592a}.cls-5{isolation:isolate}.cls-6{fill:#5b3bbc}</style></defs><path d="M145.74 147.19c-.09-1.64-.14-3.3-.14-5a91.5 91.5 0 0 1 183 0q0 3.51-.26 6.94 2.48 1.09 4.8 2.42c.3-3.08.46-6.2.46-9.36a96.5 96.5 0 0 0-193 0c0 2.29.09 4.56.24 6.81q2.4-1 4.9-1.81Z" transform="translate(-16.32 .12)" style="fill:#f35d22"/><path d="M162.07 144.64a53.18 53.18 0 0 1 26.59 7.09 61.39 61.39 0 0 1 96.26-2.4 53.5 53.5 0 0 1 44.89.5q.29-3.51.29-7.11a88.5 88.5 0 0 0-177 0v2.68a53.72 53.72 0 0 1 8.97-.76Z" transform="translate(-16.32 .12)" style="fill:#ffce1c;fill-rule:evenodd"/><path class="cls-3" d="M237.6 39.24a3.5 3.5 0 0 1-3.5-3.5v-30a3.5 3.5 0 0 1 7 0v30a3.5 3.5 0 0 1-3.5 3.5Z" transform="translate(-16.32 .12)" id="Line"/><path class="cls-3" d="M336.4 109a3.5 3.5 0 0 1-.6-7l30.46-5.37a3.5 3.5 0 1 1 1.21 6.89L337 109a3.15 3.15 0 0 1-.6 0Z" transform="translate(-16.32 .12)" id="Line-2" data-name="Line"/><path class="cls-3" d="M164.43 63.15a3.49 3.49 0 0 1-2.47-1l-21.87-21.89a3.5 3.5 0 1 1 4.91-4.95l21.87 21.87a3.5 3.5 0 0 1-2.48 6Z" transform="translate(-16.32 .12)" id="Line-3" data-name="Line"/><path class="cls-3" d="M308.81 63.15a3.5 3.5 0 0 1-2.48-6l21.87-21.84a3.5 3.5 0 0 1 4.95 4.95l-21.87 21.87a3.49 3.49 0 0 1-2.47 1.02Z" transform="translate(-16.32 .12)" id="Line-4" data-name="Line"/><path class="cls-3" d="M137.8 109a3.23 3.23 0 0 1-.61-.06l-30.46-5.37a3.5 3.5 0 1 1 1.27-6.86l30.46 5.37a3.5 3.5 0 0 1-.61 7Z" transform="translate(-16.32 .12)" id="Line-5" data-name="Line"/><path class="cls-3" d="M250 85a2 2 0 0 1-2-1.71c-.4-2.69-1.71-4-4.24-4.41s-4.16.59-5.29 3.07a2 2 0 1 1-3.64-1.65c1.87-4.13 5.15-6 9.49-5.38s7 3.3 7.63 7.79a2 2 0 0 1-1.68 2.29Z" transform="translate(-16.32 .12)" id="Path"/><path class="cls-3" d="M271.33 84.28h-.22a2 2 0 0 1-1.77-2.21c.51-4.51 3.05-7.29 7.36-8s7.66 1 9.67 5a2 2 0 1 1-3.58 1.77c-1.21-2.43-2.87-3.32-5.39-2.88s-3.78 1.85-4.08 4.55a2 2 0 0 1-1.99 1.77Z" transform="translate(-16.32 .12)" id="Path-2" data-name="Path"/><path class="cls-3" d="M262.09 117.88c-11.66 0-18.88-6.66-20.94-19.38a3 3 0 0 1 5.92-1c1.7 10.47 7.1 15 17 14.28s14.18-6.16 13.78-17.12a3 3 0 0 1 6-.22c.65 18-10.15 22.64-19.34 23.32-.83.09-1.64.12-2.42.12Z" transform="translate(-16.32 .12)" id="Path-2-2" data-name="Path-2"/><path id="Rectangle" style="fill:none" d="M79.97 0h288v152h-288z"/><g id="Pleasantest" class="cls-5"><g class="cls-5"><path class="cls-6" d="M85.48 173.88c0 16.15-10.55 28.86-29.49 28.86H36.54v24.16c0 3.94-2.17 6.1-6.11 6.1h-7.88c-3.94 0-6.23-2.16-6.23-6.1v-76.79c0-3.94 2.29-6.1 6.23-6.1H56c19.06-.01 29.48 13.85 29.48 29.87Zm-20.34.12c0-7.37-4.7-13-11.82-13H36.54v25.68h16.78c7.12.04 11.82-5.55 11.82-12.68ZM93.69 226.9v-79.72c0-3.94 2.16-6.1 6.1-6.1h7.38c3.94 0 6.23 2.16 6.23 6.1v79.72c0 3.94-2.29 6.1-6.23 6.1h-7.38c-3.94 0-6.1-2.16-6.1-6.1ZM123.69 200.58c0-18.43 13.86-34.32 35.86-34.32 18.56 0 33.82 11.18 34.7 32 .13 3.69-2.41 5.34-6.22 5.34h-45.52c-.25 7.76 7.5 15.26 20.09 15.26a29.07 29.07 0 0 0 14.49-3.86c3.43-1.91 6.23-1.65 8.65 1.27l1.4 1.78c2.54 3.05 2.28 6.48-1.15 9-7.5 5.46-16.27 7.37-24.66 7.37-23.4-.02-37.64-15.15-37.64-33.84Zm52.13-7.88c-1.78-8.77-9.28-11.57-16-11.57s-14.64 3.05-16.82 11.57ZM200.24 200.33c0-19.2 13.09-34.07 31.4-34.07 8.65 0 16.27 3.3 21 10.67v-3.17c0-3.95 2.16-6.11 6.1-6.11h7.5c3.94 0 6.1 2.16 6.1 6.11v53.14c0 3.94-2.16 6.1-6.1 6.1h-7.5c-3.94 0-6.1-2.16-6.1-6.1v-3.05c-4.71 7.24-12.33 10.55-21 10.55-18.31 0-31.4-14.75-31.4-34.07Zm52.63 0c0-10.43-6.61-18.31-16.65-18.31-10.3 0-16.28 8.26-16.28 18.31s6 18.3 16.28 18.3c10.04 0 16.65-7.88 16.65-18.3ZM283.44 221.3c-1.9-3.81.13-6.61 4.07-7.62l3.94-.89c3.44-.89 5 .76 7.63 3.43 2.29 2.54 5.72 3.81 9.79 3.81 5 0 8.39-2.29 8.39-5.72 0-2.8-1.91-4.19-6.1-5.72l-8-2.8c-6.74-2.16-18.44-7.12-18.44-18.94 0-12.2 10.18-20.59 24.29-20.59 8.39 0 16 2.66 20.85 9.91 2.54 3.69.63 7-3.56 8l-3.56.89c-3.31.89-5.09-.25-7.38-2.41a8.69 8.69 0 0 0-6.35-2.42c-4.07 0-6.61 2.54-6.61 5.59 0 2.8 2.54 4.2 6 5.34l8.14 3.05c13.48 4.45 18.31 11.7 18.56 19.71 0 13.73-12.2 20.47-26.32 20.47-11.61.01-21.01-4.31-25.34-13.09ZM340.75 200.33c0-19.2 13.1-34.07 31.41-34.07 8.64 0 16.27 3.3 21 10.67v-3.17c0-3.95 2.16-6.11 6.11-6.11h7.5c3.94 0 6.1 2.16 6.1 6.11v53.14c0 3.94-2.16 6.1-6.1 6.1h-7.5c-3.95 0-6.11-2.16-6.11-6.1v-3.05c-4.7 7.24-12.33 10.55-21 10.55-18.31 0-31.41-14.75-31.41-34.07Zm52.64 0c0-10.43-6.61-18.31-16.66-18.31-10.3 0-16.27 8.26-16.27 18.31s6 18.3 16.27 18.3c10.05 0 16.66-7.88 16.66-18.3ZM427.37 226.9v-53.14c0-3.95 2.16-6.11 6.1-6.11H441c3.94 0 6.1 2.16 6.1 6.11v4.32c3.18-7.5 10.17-11.82 19.84-11.82 17.54 0 23.9 13.73 23.9 29.11v31.53c0 3.94-2.29 6.1-6.23 6.1h-7.41c-3.94 0-6.1-2.16-6.1-6.1v-30.13c0-9.16-3.56-14.5-10.3-14.5s-13.73 5.22-13.73 17.42v27.21c0 3.94-2.16 6.1-6.1 6.1h-7.5c-3.94 0-6.1-2.16-6.1-6.1ZM507 211.26v-29h-6.49a3 3 0 0 1-3.3-3.17v-8.27a3 3 0 0 1 3.3-3.18h8l2.16-13.22a4.64 4.64 0 0 1 5-4.07h6.23c2.93 0 4.45 1.66 4.45 4.45v12.84h14.75a2.89 2.89 0 0 1 3.18 3.18v8.27a2.88 2.88 0 0 1-3.18 3.17h-14.74v29.64c0 4.83 2.42 6.73 5.34 6.73 3.31 0 5.47-2.54 5.47-6a15.08 15.08 0 0 0-.13-2.29c-.25-2.29.51-3.43 2.67-3.43h7.76a3.29 3.29 0 0 1 3.56 2.54 22.33 22.33 0 0 1 .76 5c0 14.11-10 20-21.87 20-11.06-.05-22.92-5.14-22.92-23.19ZM556 200.58c0-18.43 13.86-34.32 35.85-34.32 18.56 0 33.82 11.18 34.71 32 .13 3.69-2.42 5.34-6.23 5.34h-45.5c-.25 7.76 7.51 15.26 20.09 15.26a29.08 29.08 0 0 0 14.5-3.94c3.43-1.91 6.23-1.65 8.64 1.27l1.4 1.78c2.54 3.05 2.29 6.48-1.14 9-7.51 5.46-16.28 7.37-24.67 7.37-23.39.06-37.65-15.07-37.65-33.76Zm52.13-7.88c-1.78-8.77-9.29-11.57-16-11.57s-14.63 3.05-16.79 11.57ZM632.5 221.3c-1.91-3.81.13-6.61 4.07-7.62l3.94-.89c3.43-.89 5 .76 7.63 3.43 2.29 2.54 5.72 3.81 9.79 3.81 5 0 8.39-2.29 8.39-5.72 0-2.8-1.91-4.19-6.1-5.72l-8-2.8c-6.74-2.16-18.44-7.12-18.44-18.94 0-12.2 10.17-20.59 24.28-20.59 8.4 0 16 2.66 20.86 9.91 2.54 3.69.63 7-3.57 8l-3.55.89c-3.31.89-5.09-.25-7.38-2.41a8.71 8.71 0 0 0-6.36-2.42c-4.06 0-6.61 2.54-6.61 5.59 0 2.8 2.55 4.2 6 5.34l8.14 3.05c13.47 4.45 18.3 11.7 18.56 19.71 0 13.73-12.21 20.47-26.32 20.47-11.6.01-21.01-4.31-25.33-13.09ZM696.94 211.26v-29h-6.48a3 3 0 0 1-3.31-3.17v-8.27a3 3 0 0 1 3.31-3.18h8l2.16-13.22a4.64 4.64 0 0 1 5-4.07h6.23c2.92 0 4.45 1.66 4.45 4.45v12.84H731a2.88 2.88 0 0 1 3.18 3.18v8.27a2.87 2.87 0 0 1-3.18 3.17h-14.73v29.64c0 4.83 2.41 6.73 5.34 6.73 3.3 0 5.46-2.54 5.46-6a16.32 16.32 0 0 0-.12-2.29c-.26-2.29.5-3.43 2.67-3.43h7.75a3.29 3.29 0 0 1 3.56 2.54 22.33 22.33 0 0 1 .76 5c0 14.11-10 20-21.86 20-11.07-.05-22.89-5.14-22.89-23.19Z" transform="translate(-16.32 .12)"/></g></g></svg>