<svg xmlns="http://www.w3.org/2000/svg" width="200" height="34.89258" viewBox="0 0 200 34.89258">
  <g>
    <path d="M27.653,15.908H21.57v-.625h1.672c.255,0,.463-.047.463-.234V1.88c-1.392,0-4.435-.022-4.945,1.139-.07.137-.139.3-.301.3-.116,0-.233-.044-.233-.184a9.92355,9.92355,0,0,1,.627-1.974H30.07a9.78006,9.78006,0,0,1,.628,1.974c0,.14-.116.184-.233.184-.162,0-.232-.163-.302-.3-.51-1.16-3.554-1.139-4.945-1.139V11.889c0,3.322.255,3.394.765,3.394h1.671Z" fill="#007070"/>
    <path d="M33.757,4.688c0-2.345-.062-2.759-.576-2.759H31.967V1.375h5.432c2.676,0,4.054,1.666,4.054,3.395,0,2.016-1.462,3.17-3.334,3.519a36.81554,36.81554,0,0,0,4.197,5.37c.289.226.515.226,1.173.226v.554H41.37c-.432,0-.557-.163-4.589-5.904H35.094V10.88c0,2.943.225,3.005.678,3.005h1.152v.554H32.501v-.554h.844c.226,0,.41-.042.41-.206V4.688ZM35.095,7.98h1.152c1.83,0,3.869-.616,3.869-2.858,0-.824-.393-3.067-3.376-3.067h-.885c-.39,0-.761,0-.761.203Z" fill="#007070"/>
    <path d="M44.617,1.376h9.671l-.205,1.419c-.041.247-.041.35-.186.35-.164,0-.184-.123-.205-.246-.041-.33-.289-.453-.617-.557a11.35586,11.35586,0,0,0-3.044-.289H48.508c-.391,0-.761,0-.761.204V6.949h1.956c2.941,0,3.064-.226,3.064-.678V5.45h.515V8.865h-.515v-.76c0-.475,0-.537-2.407-.537H47.747v3.313c0,2.879.143,2.879.843,2.879h1.316c1.01,0,4.076,0,4.486-1.005.042-.106.084-.206.226-.206a.14037.14037,0,0,1,.14495.13564l.00005.00736c0,.125-.247.887-.514,1.749H45.154v-.555h.843c.226,0,.41-.042.41-.206V4.69c0-2.346-.062-2.76-.575-2.76H44.617Z" fill="#007070"/>
    <path d="M59.694,9.442a16.78794,16.78794,0,0,0-1.233,3.928.453.453,0,0,0,.514.516h1.338v.554H56.136v-.554c.968,0,1.029,0,1.194-.41L62.535,1.129a4.97432,4.97432,0,0,1,1.07-.226c.082,0,.123.061.123.144,0,.246-.35.204-.35.636,0,.824,2.9,9.094,3.662,10.904.289.682.557,1.298,1.01,1.298h.76v.554H64.573v-.554h1.028c.35,0,.39-.042.39-.206,0-.165-.823-2.491-1.46-4.237ZM62.37,2.961C61.3,5.43,60.682,6.912,59.962,8.763h4.301Z" fill="#007070"/>
    <path d="M77.398,2.773c0,.126-.021.249-.184.249-.164,0-.186-.123-.206-.289-.123-.843-1.832-1.07-2.449-1.07A2.64918,2.64918,0,0,0,71.6289,3.99769q-.0087.07695-.0129.15431c0,3.582,6.748,2.162,6.748,6.687,0,2.572-2.387,3.991-4.836,3.991a9.31411,9.31411,0,0,1-3.086-.553c-.164-1.009-.288-1.69-.288-1.833a.19971.19971,0,0,1,.205-.225c.205,0,.248.207.267.369.248,1.153,2.284,1.563,3.231,1.563,1.75,0,3.457-.902,3.457-2.673,0-4.033-6.689-2.285-6.689-6.916,0-2.096,2.243-3.577,4.548-3.577a5.57642,5.57642,0,0,1,2.223.39Z" fill="#007070"/>
    <path d="M88.777,1.376h3.764v.553h-.843c-.226,0-.41.042-.41.206V9.627c0,3.929-2.801,5.203-5.352,5.203-1.871,0-4.773-.802-4.773-4.504V4.689c0-2.346-.062-2.76-.575-2.76H79.373V1.376h4.424v.553h-.823c-.247,0-.475,0-.475.206v7.88c0,3.564,2.512,4.033,3.787,4.033,1.359,0,4.32-.41,4.32-4.543V4.936c0-2.944-.225-3.006-.677-3.006H88.776V1.376Z" fill="#007070"/>
    <path d="M96.09,4.688c0-2.345-.063-2.759-.577-2.759H94.3V1.375h5.431c2.676,0,4.053,1.666,4.053,3.395,0,2.016-1.46,3.17-3.334,3.519a36.86685,36.86685,0,0,0,4.198,5.37c.287.226.514.226,1.173.226v.554h-2.12c-.431,0-.555-.163-4.589-5.904H97.426V10.88c0,2.943.225,3.005.678,3.005h1.152v.554H94.834v-.554h.843c.227,0,.412-.042.412-.206V4.688ZM97.427,7.98h1.152c1.83,0,3.869-.616,3.869-2.858,0-.824-.391-3.067-3.375-3.067h-.885c-.39,0-.761,0-.761.203Z" fill="#007070"/>
    <path d="M106.529,1.376H116.2l-.207,1.419c-.041.247-.041.35-.184.35-.165,0-.185-.123-.204-.246-.043-.33-.289-.453-.616-.557a11.39,11.39,0,0,0-3.047-.289h-1.523c-.391,0-.761,0-.761.204V6.949h1.955c2.943,0,3.065-.226,3.065-.678V5.45h.515V8.865h-.515v-.76c0-.475,0-.537-2.408-.537h-2.612v3.313c0,2.879.143,2.879.843,2.879h1.317c1.008,0,4.074,0,4.484-1.005.043-.106.084-.206.228-.206a.13953.13953,0,0,1,.144.135l0,.008c0,.125-.247.887-.515,1.749h-9.095v-.555h.843c.228,0,.412-.042.412-.206V4.69c0-2.346-.064-2.76-.577-2.76h-1.214Z" fill="#007070"/>
    <path d="M132.093.985a9.39428,9.39428,0,0,1,3.373.656l-.102,1.214c-.021.309-.042.434-.247.434-.144,0-.144-.084-.185-.434-.064-.431-1.337-1.192-3.107-1.192-3.847,0-6.236,2.736-6.236,6.502a5.68651,5.68651,0,0,0,5.37916,5.97807q.20173.01063.40384.00693c1.624,0,3.826-.76,3.991-1.974.021-.143.041-.35.225-.35.187,0,.187.104.187.248,0,.246,0,.512-.103,1.707a10.86572,10.86572,0,0,1-4.692,1.048c-4.01.001-6.788-2.281-6.788-6.417C124.192,3.968,127.813.985,132.093.985Z" fill="#007070"/>
    <path d="M143.835.985c4.215,0,6.397,2.818,6.397,6.728,0,3.803-2.654,7.116-6.728,7.116-4.219,0-6.4-2.818-6.4-6.725.001-3.807,2.655-7.119,6.731-7.119m-.373.615c-2.036,0-5.02,1.341-5.02,6.114,0,4.628,2.737,6.502,5.432,6.502,2.039,0,5.023-1.337,5.023-6.11,0-4.632-2.737-6.506-5.435-6.506" fill="#007070"/>
    <path d="M153.418,9.442a16.77581,16.77581,0,0,0-1.235,3.928.45336.45336,0,0,0,.515.516h1.338v.554h-4.175v-.554c.966,0,1.028,0,1.19-.41l5.206-12.347a4.98578,4.98578,0,0,1,1.07-.226c.083,0,.124.061.124.144,0,.246-.35.204-.35.636,0,.824,2.899,9.094,3.663,10.904.288.682.555,1.298,1.007,1.298h.762v.554h-4.237v-.554h1.027c.35,0,.392-.042.392-.206,0-.165-.823-2.491-1.462-4.237Zm2.676-6.481c-1.07,2.469-1.688,3.951-2.408,5.802h4.299Z" fill="#007070"/>
    <path d="M170.703,2.773c0,.126-.021.249-.184.249-.166,0-.186-.123-.206-.289-.124-.843-1.831-1.07-2.449-1.07a2.64918,2.64918,0,0,0-2.9301,2.33468q-.0087.077-.01289.15432c0,3.582,6.749,2.162,6.749,6.687,0,2.572-2.387,3.991-4.836,3.991a9.30959,9.30959,0,0,1-3.086-.553c-.164-1.009-.288-1.69-.288-1.833a.19946.19946,0,0,1,.206-.225c.204,0,.247.207.267.369.248,1.153,2.283,1.563,3.231,1.563,1.747,0,3.455-.902,3.455-2.673,0-4.033-6.687-2.285-6.687-6.916,0-2.096,2.242-3.577,4.549-3.577a5.56546,5.56546,0,0,1,2.222.39Z" fill="#007070"/>
    <path d="M176.777,15.908v-.625h1.673c.256,0,.464-.047.464-.234V1.88c-1.393,0-4.435-.022-4.947,1.139-.069.137-.138.3-.3.3-.119,0-.233-.044-.233-.184a9.84179,9.84179,0,0,1,.626-1.974h11.216a9.80046,9.80046,0,0,1,.627,1.974c0,.14-.115.184-.231.184-.165,0-.233-.163-.303-.3-.511-1.16-3.554-1.139-4.946-1.139V11.889c0,3.322.254,3.394.765,3.394h1.672v.625Z" fill="#007070"/>
    <path d="M199.325,19.437c.067-.02.125-.038.159-.05.294-.123-.734.147-.439.025-.197.054-.397.095-.594.144-1.089.153-2.326.331-1.394.144-1.299.295-2.595.532-3.889.734,1.257-.161,2.532-.344,3.617-.511-1.276.246-2.567.426-3.872.553.085-.013.169-.029.254-.042-.2.026-.398.051-.596.075-2.083.191-4.196.276-6.329.357-1.245.154-8.453.114-12.349-.048-15.579-1.314-31.139-5.302-47.513-2.693-4.161.278-19.673,4.382-36.243,2.607-8.155-.746-16.505-3.194-23.916-3.249a122.124,122.124,0,0,0-17.08.164l-1.295.119c-7.833.667-16.954,2.946-23.49,3.115-2.981.245-6.026.326-9.055.303,1.407.089,2.713.091,3.846.14-3.089.011-6.173-.119-7.358-.183-6.558-.463-2.864-.039-.341.29,1.819.169-.654.118,2.202.334-2.061-.11-3.093-.18-5.157-.382-.244.078,6.354.46,4.917.429-1.987-.127-4.214-.251-6.268-.507.697.228,7.14.648,6.822.636-1.122.017-5.797-.482-6.201-.47-.062.017,1.071.13,2.079.221-5.743-.508-8.616-1.028-3.143-.109A65.4107,65.4107,0,0,1-.25,20.34l.016.006c.663.173,1.616.379,2.477.548-.743-.14-1.487-.291-2.229-.467l.619.182c.334.078.671.148,1.009.219L.97,20.702c.59.156,1.271.318,2.022.474,2.838.553,5.585.909,7.141,1.042,12.579,1.426,25.342-1.166,37.494-2.801.02-.036-.643-.01.38-.118,3.219-.357,5.829-.341,9.065-.448l.232-.061c2.508-.004,5.119.063,7.779.232A102.2757,102.2757,0,0,1,79.57,20.694c-.132-.055-.179-.081.314.028,2.029.458,4.828.954,7.759,1.299l1.293.132a2.54862,2.54862,0,0,0,.478.003c1.323.142,2.504.218,3.599.299a107.99717,107.99717,0,0,0,21.883-1.108,134.69483,134.69483,0,0,1,22.65-2.733c3.326-.109,6.664-.104,9.87.089a92.629,92.629,0,0,1,15.275,2.105c.021-.005.699.065,1.668.165.141.028.271.052.369.061,2.297.3,4.606.473,6.907.613.005-.02-.116-.046.074-.045.601.013,1.08.105,1.681.117l.045-.03,1.441.103,2.719.06c-.024-.013-.034-.024.055-.025.376-.001.895.026,1.435.037l.237-.003a.16132.16132,0,0,0,.087-.025l.66.014c2.645-.031,5.329-.134,8.232-.33l1.817-.164c.874-.079,1.995-.112,2.846-.209-.14-.102,1.927-.362,1.498-.439.562-.078,1.408-.194,1.446-.232a6.80613,6.80613,0,0,1,1.976-.641c.258-.065.576-.151.863-.23.286-.051.52-.095.674-.129C199.953,19.367,199.775,19.379,199.325,19.437Z" fill="#e95a5c"/>
    <path d="M162.718,20.814l-.027-.006C162.688,20.809,162.695,20.811,162.718,20.814Z"/>
    <path d="M63.645,33.197c-.18,0-.311,0-.311-1.631l-.009-5.063a.609.609,0,0,1,.193-.017h.628v-.549H61.148v.549h.872c.198,0,.249.145.249,1.483V29.17H57.878l-.009-2.669a.63827.63827,0,0,1,.192-.016h.631v-.549H55.691v.549h.873c.199,0,.249.145.249,1.483l.008,5.206c-.003.002-.03.02-.152.02h-.644v.551h3v-.551h-.836c-.181,0-.312,0-.312-1.631V29.791h4.391l.008,3.382c-.003.002-.031.02-.153.02h-.642v.551H64.48v-.551h-.835Z" fill="#007070"/>
    <path d="M75.877,25.706a4.19607,4.19607,0,0,0-4.32918,4.0586q-.00307.09516-.00182.1904a3.77935,3.77935,0,0,0,4.124,4.021,4.19691,4.19691,0,0,0,4.33016-4.05928q.00306-.09483.00184-.18972a3.78011,3.78011,0,0,0-4.125-4.021Zm.026,7.682c-1.519,0-3.292-.958-3.292-3.661,0-2.534,1.634-3.433,3.034-3.433,1.518,0,3.291.958,3.291,3.661C78.936,32.489,77.302,33.388,75.903,33.388Z" fill="#007070"/>
    <path d="M91.667,29.223c-.994-.356-1.852-.663-1.852-1.559,0-.537.461-1.336,1.729-1.336.452,0,1.363.16,1.421.529.013.084.04.26.241.26.086,0,.23-.034.23-.256v-.883l-.068-.03a3.77139,3.77139,0,0,0-1.438-.24c-1.425,0-2.964.839-2.964,2.194,0,1.469,1.211,1.9,2.28,2.28.983.35,1.911.681,1.911,1.729,0,.99-1.064,1.442-2.052,1.442-.602,0-1.781-.24-1.913-.809-.028-.208-.122-.314-.281-.314a.23588.23588,0,0,0-.24214.22946q-.00021.00827.00014.01654a6.28937,6.28937,0,0,0,.103.637l.092.51.061.022a6.35955,6.35955,0,0,0,1.973.331c1.562,0,3.143-.835,3.143-2.431C94.042,30.074,92.78,29.622,91.667,29.223Z" fill="#007070"/>
    <path d="M107.201,30.296c1.415,0,2.938-.713,2.938-2.277,0-1.003-.831-2.082-2.655-2.082h-3.517v.549h.873c.198,0,.247.145.247,1.483l.008,5.207c-.003.002-.03.019-.151.019H104.3v.552h3v-.552h-.836c-.181,0-.311,0-.311-1.63V30.172A4.40921,4.40921,0,0,0,107.201,30.296Zm-1.046-3.714a1.53247,1.53247,0,0,1,.364-.025h.555c1.904,0,2.001,1.387,2.001,1.665,0,1.122-1.007,1.522-1.95,1.522a3.71254,3.71254,0,0,1-.97-.124Z" fill="#007070"/>
    <path d="M122.282,33.197c-.181,0-.312,0-.312-1.631l-.009-5.063a.60213.60213,0,0,1,.192-.017h.63v-.548h-2.999v.548h.872c.202,0,.249.137.249,1.482l.008,5.207c-.003.002-.03.02-.152.02h-.643v.551h3.002v-.551h-.838Z" fill="#007070"/>
    <path d="M138.78,32.002c-.206,0-.239.195-.256.301-.086.59-1.355,1.049-2.389,1.049a3.32607,3.32607,0,0,1-3.508-3.13363q-.00641-.11357-.005-.22737a3.53294,3.53294,0,0,1,3.797-3.663,2.30082,2.30082,0,0,1,1.834.598l.005.039c.023.172.042.309.223.309.245,0,.258-.197.269-.352l.073-.794-.082-.03a6.36619,6.36619,0,0,0-2.153-.392c-2.89,0-5.068,1.903-5.068,4.426,0,2.37,1.675,3.843,4.37,3.843a7.35359,7.35359,0,0,0,2.986-.621l.06-.027.006-.066a9.39723,9.39723,0,0,0,.066-1.005.21422.21422,0,0,0-.228-.254Z" fill="#007070"/>
    <path d="M155.009,32.423a.25616.25616,0,0,0-.245.185c-.105.236-.659.516-2.708.516h-.823c-.362,0-.418,0-.418-1.559v-1.81h1.523c1.395,0,1.395.035,1.395.199v.554h.551v-2.21h-.551v.595c0,.143,0,.278-1.805.278h-1.113V26.58a1.54143,1.54143,0,0,1,.365-.025h.952a7.58856,7.58856,0,0,1,1.879.165c.214.058.291.115.307.228a.23884.23884,0,0,0,.23867.239l.00334,0c.175,0,.199-.142.218-.256l.158-.995h-6.307v.549h.874c.196,0,.246.145.246,1.483l.008,5.207c-.003.002-.029.02-.15.02h-.645v.551h5.898l.134-.398a4.37165,4.37165,0,0,0,.221-.728.19706.19706,0,0,0-.19694-.1972Z" fill="#007070"/>
  </g>
</svg>
